M48
; DRILL file {KiCad 9.0.9-9.0.9~ubuntu24.04.1} date 2026-10-10T04:13:57+0000
; FORMAT={-:-/ absolute / metric / decimal}
; #@! TF.CreationDate,2026-10-10T04:13:57+00:00
; #@! TF.GenerationSoftware,Kicad,Pcbnew,9.0.9-9.0.9~ubuntu24.04.1
; #@! TF.FileFunction,Plated,1,2,PTH
FMAT,2
METRIC
; #@! TA.AperFunction,Plated,PTH,ViaDrill
T1C0.300
; #@! TA.AperFunction,Plated,PTH,ViaDrill
T2C0.400
; #@! TA.AperFunction,Plated,PTH,ComponentDrill
T3C0.600
; #@! TA.AperFunction,Plated,PTH,ComponentDrill
T4C1.000
%
G90
G05
T1
X98.64Y-137.896
X105.806Y-137.719
X106.707Y-165.631
X109.813Y-169.298
X110.97Y-133.775
X112.314Y-136.707
X118.787Y-105.83
X119.572Y-105.446
X123.612Y-117.504
X127.265Y-118.544
X127.638Y-107.885
X127.638Y-171.232
X131.752Y-106.905
X133.639Y-137.896
X133.831Y-108.103
X133.976Y-142.675
X138.77Y-120.62
X142.896Y-121.669
X143.94Y-175.465
X145.299Y-119.698
X146.867Y-141.639
X147.496Y-135.08
X150.825Y-205.972
X151.098Y-156.984
X152.12Y-146.506
X153.124Y-140.096
X153.832Y-154.855
X156.459Y-132.232
X156.706Y-149.35
X160.016Y-120.459
X162.293Y-152.471
X166.295Y-137.629
X171.714Y-170.558
X183.146Y-179.458
X183.431Y-119.698
X186.721Y-121.834
X187.104Y-181.997
X187.109Y-112.708
X194.51Y-152.471
X199.156Y-152.471
X205.273Y-146.698
X205.387Y-148.702
X213.913Y-149.166
X214.862Y-149.75
T2
X126.84Y-138.039
X149.507Y-203.908
X154.65Y-142.645
X160.857Y-145.797
X192.025Y-145.797
X202.0Y-154.125
X205.47Y-150.384
T4
X158.92Y-124.0
X161.46Y-124.0
X164.0Y-124.0
T3
X217.77Y-145.68G85X216.67Y-145.68
G05
X217.77Y-154.32G85X216.67Y-154.32
G05
X221.7Y-145.68G85X221.1Y-145.68
G05
X221.7Y-154.32G85X221.1Y-154.32
G05
M30
