M48
; DRILL file {KiCad 9.0.9-9.0.9~ubuntu24.04.1} date 2026-10-07T20:14:34+0000
; FORMAT={-:-/ absolute / metric / decimal}
; #@! TF.CreationDate,2026-10-07T20:14:34+00:00
; #@! TF.GenerationSoftware,Kicad,Pcbnew,9.0.9-9.0.9~ubuntu24.04.1
; #@! TF.FileFunction,Plated,1,2,PTH
FMAT,2
METRIC
; #@! TA.AperFunction,Plated,PTH,ViaDrill
T1C0.300
; #@! TA.AperFunction,Plated,PTH,ViaDrill
T2C0.400
; #@! TA.AperFunction,Plated,PTH,ComponentDrill
T3C0.600
; #@! TA.AperFunction,Plated,PTH,ComponentDrill
T4C1.000
%
G90
G05
T1
X107.479Y-136.611
X109.199Y-162.196
X110.137Y-167.768
X112.256Y-137.851
X118.125Y-105.562
X118.135Y-157.122
X119.228Y-121.941
X120.693Y-121.727
X126.503Y-116.692
X126.942Y-140.057
X130.44Y-168.899
X130.582Y-110.821
X133.525Y-106.077
X140.955Y-140.177
X142.976Y-131.562
X143.916Y-175.462
X144.148Y-142.749
X146.876Y-136.635
X150.825Y-205.971
X152.121Y-143.385
X152.292Y-156.999
X153.107Y-141.388
X156.018Y-139.867
X156.157Y-130.933
X157.044Y-128.675
X158.931Y-125.438
X170.849Y-167.535
X183.201Y-120.233
X183.474Y-179.425
X184.548Y-170.513
X186.838Y-181.786
X187.137Y-121.827
X192.791Y-148.403
X194.669Y-151.363
X203.0Y-153.976
X204.0Y-155.212
X204.823Y-147.255
X206.218Y-148.305
X214.358Y-148.305
X214.996Y-149.109
X215.014Y-151.444
X217.526Y-149.78
T2
X117.738Y-121.622
X125.0Y-121.066
X129.225Y-118.648
X157.791Y-139.709
X160.842Y-203.908
X198.282Y-143.112
X201.564Y-154.134
X205.998Y-149.699
T4
X158.92Y-124.0
X161.46Y-124.0
X164.0Y-124.0
T3
X217.77Y-145.68G85X216.67Y-145.68
G05
X217.77Y-154.32G85X216.67Y-154.32
G05
X221.7Y-145.68G85X221.1Y-145.68
G05
X221.7Y-154.32G85X221.1Y-154.32
G05
M30
