%TF.GenerationSoftware,KiCad,Pcbnew,9.0.9-9.0.9~ubuntu24.04.1*%
%TF.CreationDate,2026-10-07T20:14:34+00:00*%
%TF.ProjectId,eclipse-core,65636c69-7073-4652-9d63-6f72652e6b69,rev?*%
%TF.SameCoordinates,Original*%
%TF.FileFunction,Copper,L1,Top*%
%TF.FilePolarity,Positive*%
%FSLAX46Y46*%
G04 Gerber Fmt 4.6, Leading zero omitted, Abs format (unit mm)*
G04 Created by KiCad (PCBNEW 9.0.9-9.0.9~ubuntu24.04.1) date 2026-10-07 20:14:34*
%MOMM*%
%LPD*%
G01*
G04 APERTURE LIST*
G04 Aperture macros list*
%AMRoundRect*
0 Rectangle with rounded corners*
0 $1 Rounding radius*
0 $2 $3 $4 $5 $6 $7 $8 $9 X,Y pos of 4 corners*
0 Add a 4 corners polygon primitive as box body*
4,1,4,$2,$3,$4,$5,$6,$7,$8,$9,$2,$3,0*
0 Add four circle primitives for the rounded corners*
1,1,$1+$1,$2,$3*
1,1,$1+$1,$4,$5*
1,1,$1+$1,$6,$7*
1,1,$1+$1,$8,$9*
0 Add four rect primitives between the rounded corners*
20,1,$1+$1,$2,$3,$4,$5,0*
20,1,$1+$1,$4,$5,$6,$7,0*
20,1,$1+$1,$6,$7,$8,$9,0*
20,1,$1+$1,$8,$9,$2,$3,0*%
%AMFreePoly0*
4,1,51,1.895800,6.420000,3.778100,6.180500,5.633600,5.783300,7.448900,5.231200,9.211300,4.528100,10.908200,3.678900,12.527500,2.689900,14.057700,1.567900,15.487999,0.320900,16.808100,-1.042100,18.008600,-2.511500,19.081100,-4.076800,8.056500,-10.965800,7.603600,-10.304900,7.096699,-9.684400,6.539401,-9.108900,5.935500,-8.582500,5.289400,-8.108700,4.605700,-7.691100,3.889200,-7.332600,
3.145100,-7.035700,2.378600,-6.802600,1.595200,-6.634900,0.800400,-6.533800,0.000000,-6.500000,-0.800400,-6.533800,-1.595200,-6.634900,-2.378600,-6.802600,-3.145100,-7.035700,-3.889200,-7.332600,-4.605700,-7.691100,-5.289400,-8.108700,-5.935500,-8.582500,-6.539400,-9.108900,-7.096700,-9.684399,-7.603600,-10.304900,-8.056500,-10.965800,-19.081100,-4.076800,-18.008600,-2.511500,-16.808100,-1.042100,
-15.488000,0.320901,-14.057700,1.567900,-12.527500,2.689900,-10.908200,3.678900,-9.211300,4.528100,-7.448900,5.231200,-5.633600,5.783300,-3.778100,6.180500,-1.895800,6.420000,0.000000,6.500000,1.895800,6.420000,1.895800,6.420000,$1*%
G04 Aperture macros list end*
%TA.AperFunction,SMDPad,CuDef*%
%ADD10C,14.000000*%
%TD*%
%TA.AperFunction,SMDPad,CuDef*%
%ADD11FreePoly0,240.000000*%
%TD*%
%TA.AperFunction,SMDPad,CuDef*%
%ADD12FreePoly0,0.000000*%
%TD*%
%TA.AperFunction,SMDPad,CuDef*%
%ADD13RoundRect,0.218750X-0.218750X-0.256250X0.218750X-0.256250X0.218750X0.256250X-0.218750X0.256250X0*%
%TD*%
%TA.AperFunction,SMDPad,CuDef*%
%ADD14FreePoly0,120.000000*%
%TD*%
%TA.AperFunction,ComponentPad*%
%ADD15R,1.700000X1.700000*%
%TD*%
%TA.AperFunction,ComponentPad*%
%ADD16C,1.700000*%
%TD*%
%TA.AperFunction,HeatsinkPad*%
%ADD17O,1.600000X1.000000*%
%TD*%
%TA.AperFunction,HeatsinkPad*%
%ADD18O,2.100000X1.000000*%
%TD*%
%TA.AperFunction,ViaPad*%
%ADD19C,0.600000*%
%TD*%
%TA.AperFunction,ViaPad*%
%ADD20C,0.800000*%
%TD*%
%TA.AperFunction,Conductor*%
%ADD21C,0.250000*%
%TD*%
%TA.AperFunction,Conductor*%
%ADD22C,0.500000*%
%TD*%
%TA.AperFunction,Conductor*%
%ADD23C,0.350000*%
%TD*%
G04 APERTURE END LIST*
D10*
%TO.P,E1,1*%
%TO.N,Net-(E1-Pad1)*%
X150000000Y-180000000D03*
%TD*%
D11*
%TO.P,E3,1*%
%TO.N,Net-(E3-Pad1)*%
X163856406Y-188000000D03*
%TD*%
D12*
%TO.P,E2,1*%
%TO.N,Net-(E2-Pad1)*%
X150000000Y-164000000D03*
%TD*%
D13*
%TO.P,D2,1*%
%TO.N,GND*%
X149212500Y-205000000D03*
%TO.P,D2,2*%
%TO.N,Net-(D2-A)*%
X150787500Y-205000000D03*
%TD*%
D14*
%TO.P,E4,1*%
%TO.N,Net-(E4-Pad1)*%
X136143594Y-188000000D03*
%TD*%
D15*
%TO.P,J3,1*%
%TO.N,+3V3*%
X164000000Y-124000000D03*
D16*
%TO.P,J3,2*%
%TO.N,Net-(J3-Pin_2)*%
X161460000Y-124000000D03*
%TO.P,J3,3*%
%TO.N,GND*%
X158920000Y-124000000D03*
%TD*%
D17*
%TO.P,J1,S1*%
%TO.N,GND*%
X221400000Y-145680000D03*
D18*
X217220000Y-145680000D03*
D17*
X221400000Y-154320000D03*
D18*
X217220000Y-154320000D03*
%TD*%
D19*
%TO.N,+3V3*%
X192791100Y-148402700D03*
X157044100Y-128675500D03*
D20*
%TO.N,GND*%
X160841800Y-203908200D03*
D19*
%TO.N,Net-(D2-A)*%
X150825000Y-205971000D03*
%TO.N,Net-(D4-K)*%
X126503100Y-116691600D03*
X130581500Y-110820800D03*
%TO.N,Net-(D5-K)*%
X184548300Y-170512700D03*
X120693100Y-121727300D03*
%TO.N,Net-(E1-Pad1)*%
X143915700Y-175461800D03*
%TO.N,Net-(E2-Pad1)*%
X152292500Y-156998800D03*
%TO.N,Net-(E3-Pad1)*%
X170849100Y-167534600D03*
%TO.N,Net-(E4-Pad1)*%
X130439700Y-168898600D03*
%TO.N,Net-(J1-CC1)*%
X214996300Y-149109400D03*
X203000000Y-153976000D03*
%TO.N,Net-(J1-CC2)*%
X204000000Y-155211800D03*
X215013600Y-151443700D03*
%TO.N,Net-(J2-Pin_1)*%
X112256000Y-137851500D03*
X133525000Y-106077200D03*
%TO.N,Net-(J2-Pin_4)*%
X118134900Y-157121800D03*
X110137500Y-167767900D03*
%TO.N,Net-(J2-Pin_5)*%
X153107100Y-141388300D03*
X126942100Y-140057100D03*
X140954600Y-140176800D03*
%TO.N,Net-(J2-Pin_7)*%
X119228400Y-121940900D03*
X186838100Y-181786200D03*
%TO.N,Net-(J2-Pin_10)*%
X187137500Y-121826600D03*
X118124900Y-105562100D03*
%TO.N,Net-(J3-Pin_2)*%
X156156900Y-130932900D03*
%TO.N,Net-(U1-DM)*%
X217525600Y-149780100D03*
X204822900Y-147254600D03*
%TO.N,Net-(U1-DP)*%
X206217800Y-148304700D03*
X214358300Y-148304700D03*
%TO.N,Net-(U1-PG)*%
X194668800Y-151362800D03*
X156017700Y-139867300D03*
%TO.N,Net-(U3-PA7)*%
X146875800Y-136635000D03*
X144147700Y-142749000D03*
%TO.N,Net-(U3-PB0)*%
X152121300Y-143385200D03*
X183473900Y-179424700D03*
X109198700Y-162195800D03*
%TO.N,Net-(U3-PB1)*%
X142976000Y-131562300D03*
X183200500Y-120233300D03*
X158931100Y-125438500D03*
X107478800Y-136611000D03*
D20*
%TO.N,VBUS*%
X205998500Y-149699200D03*
X201563500Y-154134200D03*
%TO.N,VIN*%
X117737600Y-121621900D03*
X198282000Y-143112400D03*
X125000000Y-121066100D03*
X157790900Y-139709400D03*
X129225000Y-118648100D03*
%TD*%
D21*
%TO.N,+3V3*%
X164000000Y-124000000D02*
X168388400Y-124000000D01*
X168388400Y-124000000D02*
X192791100Y-148402700D01*
X157044100Y-128675500D02*
X158449500Y-128675500D01*
X158449500Y-128675500D02*
X162833300Y-124291700D01*
X162833300Y-124291700D02*
X162833300Y-124000000D01*
X164000000Y-124000000D02*
X162833300Y-124000000D01*
D22*
%TO.N,GND*%
X220558400Y-154320000D02*
X220558400Y-145680000D01*
X221400000Y-154320000D02*
X220558400Y-154320000D01*
X150304300Y-203908200D02*
X160841800Y-203908200D01*
X221400000Y-145680000D02*
X220558400Y-145680000D01*
X220558400Y-145680000D02*
X217220000Y-145680000D01*
X220558400Y-154320000D02*
X217220000Y-154320000D01*
X149212500Y-205000000D02*
X150304300Y-203908200D01*
D21*
%TO.N,Net-(D2-A)*%
X150787500Y-205933500D02*
X150825000Y-205971000D01*
X150787500Y-205000000D02*
X150787500Y-205933500D01*
D23*
%TO.N,Net-(D4-K)*%
X130581500Y-112613200D02*
X126503100Y-116691600D01*
X130581500Y-110820800D02*
X130581500Y-112613200D01*
%TO.N,Net-(D5-K)*%
X123476800Y-124511000D02*
X138546600Y-124511000D01*
X120693100Y-121727300D02*
X123476800Y-124511000D01*
X138546600Y-124511000D02*
X184548300Y-170512700D01*
D21*
%TO.N,Net-(E1-Pad1)*%
X145461800Y-175461800D02*
X143915700Y-175461800D01*
X150000000Y-180000000D02*
X145461800Y-175461800D01*
%TO.N,Net-(E2-Pad1)*%
X150000000Y-164000000D02*
X150000000Y-159291300D01*
X150000000Y-159291300D02*
X152292500Y-156998800D01*
%TO.N,Net-(E3-Pad1)*%
X170849100Y-167534600D02*
X163856400Y-174527300D01*
X163856400Y-174527300D02*
X163856400Y-188000000D01*
%TO.N,Net-(E4-Pad1)*%
X130439700Y-182296100D02*
X136143600Y-188000000D01*
X130439700Y-168898600D02*
X130439700Y-182296100D01*
%TO.N,Net-(J1-CC1)*%
X210129700Y-153976000D02*
X214996300Y-149109400D01*
X203000000Y-153976000D02*
X210129700Y-153976000D01*
%TO.N,Net-(J1-CC2)*%
X211245500Y-155211800D02*
X204000000Y-155211800D01*
X215013600Y-151443700D02*
X211245500Y-155211800D01*
D23*
%TO.N,Net-(J2-Pin_1)*%
X132151900Y-106077200D02*
X112256000Y-125973100D01*
X133525000Y-106077200D02*
X132151900Y-106077200D01*
X112256000Y-125973100D02*
X112256000Y-137851500D01*
%TO.N,Net-(J2-Pin_4)*%
X110137500Y-165119200D02*
X110137500Y-167767900D01*
X118134900Y-157121800D02*
X110137500Y-165119200D01*
D21*
%TO.N,Net-(J2-Pin_5)*%
X127061800Y-140176800D02*
X140954600Y-140176800D01*
X140954600Y-140495300D02*
X143829900Y-143370600D01*
X151124800Y-143370600D02*
X153107100Y-141388300D01*
X126942100Y-140057100D02*
X127061800Y-140176800D01*
X140954600Y-140176800D02*
X140954600Y-140495300D01*
X143829900Y-143370600D02*
X151124800Y-143370600D01*
D23*
%TO.N,Net-(J2-Pin_7)*%
X141678500Y-128988500D02*
X126276000Y-128988500D01*
X126276000Y-128988500D02*
X119228400Y-121940900D01*
X186838100Y-181786200D02*
X186838100Y-174148100D01*
X186838100Y-174148100D02*
X141678500Y-128988500D01*
%TO.N,Net-(J2-Pin_10)*%
X118296500Y-105390500D02*
X118124900Y-105562100D01*
X187137500Y-121826600D02*
X170701400Y-105390500D01*
X170701400Y-105390500D02*
X118296500Y-105390500D01*
D21*
%TO.N,Net-(J3-Pin_2)*%
X156156900Y-130932900D02*
X156156900Y-128690600D01*
X158731200Y-126116300D02*
X159343700Y-126116300D01*
X159343700Y-126116300D02*
X161460000Y-124000000D01*
X156156900Y-128690600D02*
X158731200Y-126116300D01*
%TO.N,Net-(U1-DM)*%
X217525600Y-149780100D02*
X215000100Y-147254600D01*
X215000100Y-147254600D02*
X204822900Y-147254600D01*
%TO.N,Net-(U1-DP)*%
X206217800Y-148304700D02*
X214358300Y-148304700D01*
%TO.N,Net-(U1-PG)*%
X167513200Y-151362800D02*
X194668800Y-151362800D01*
X156017700Y-139867300D02*
X167513200Y-151362800D01*
%TO.N,Net-(U3-PA7)*%
X144147700Y-142749000D02*
X144147700Y-139363100D01*
X144147700Y-139363100D02*
X146875800Y-136635000D01*
%TO.N,Net-(U3-PB0)*%
X152121300Y-148070300D02*
X123324200Y-148070300D01*
X152121300Y-148070300D02*
X152121300Y-143385200D01*
X183473900Y-179424700D02*
X183473900Y-179287200D01*
X183473900Y-179287200D02*
X152257000Y-148070300D01*
X123324200Y-148070300D02*
X109198700Y-162195800D01*
X152257000Y-148070300D02*
X152121300Y-148070300D01*
%TO.N,Net-(U3-PB1)*%
X136050100Y-138488200D02*
X142976000Y-131562300D01*
X160293300Y-123507700D02*
X160293300Y-124320900D01*
X159175700Y-125438500D02*
X158931100Y-125438500D01*
X107478800Y-136611000D02*
X109356000Y-138488200D01*
X109356000Y-138488200D02*
X136050100Y-138488200D01*
X160293300Y-124320900D02*
X159175700Y-125438500D01*
X183200500Y-120233300D02*
X163567700Y-120233300D01*
X163567700Y-120233300D02*
X160293300Y-123507700D01*
D22*
%TO.N,VBUS*%
X201563500Y-154134200D02*
X205998500Y-149699200D01*
%TO.N,VIN*%
X118397400Y-120962100D02*
X125000000Y-120962100D01*
X117737600Y-121621900D02*
X118397400Y-120962100D01*
X157790900Y-139709400D02*
X167302700Y-149221200D01*
X198282000Y-143996600D02*
X198282000Y-143112400D01*
X129225000Y-120877700D02*
X138959200Y-120877700D01*
X125000000Y-120962100D02*
X129140600Y-120962100D01*
X129140600Y-120962100D02*
X129225000Y-120877700D01*
X138959200Y-120877700D02*
X157790900Y-139709400D01*
X193057400Y-149221200D02*
X198282000Y-143996600D01*
X167302700Y-149221200D02*
X193057400Y-149221200D01*
X125000000Y-120962100D02*
X125000000Y-121066100D01*
X129225000Y-120877700D02*
X129225000Y-118648100D01*
%TD*%
%TA.AperFunction,Conductor*%
%TO.N,GND*%
G36*
X161289509Y-89448770D02*
G01*
X161720801Y-89528867D01*
X162004066Y-89581473D01*
X162007115Y-89582078D01*
X162181390Y-89618984D01*
X163514774Y-89901355D01*
X163517694Y-89902012D01*
X165016854Y-90258974D01*
X165019837Y-90259724D01*
X166509549Y-90654141D01*
X166512495Y-90654961D01*
X167991865Y-91086598D01*
X167994782Y-91087489D01*
X169462867Y-91556071D01*
X169465763Y-91557035D01*
X170921664Y-92062274D01*
X170924511Y-92063302D01*
X172287674Y-92574990D01*
X172367268Y-92604867D01*
X172370166Y-92605996D01*
X173798867Y-93183541D01*
X173801669Y-93184715D01*
X175215483Y-93797905D01*
X175218242Y-93799143D01*
X176412353Y-94353007D01*
X176616238Y-94447575D01*
X176619041Y-94448918D01*
X178000306Y-95132169D01*
X178003074Y-95133582D01*
X179366748Y-95851222D01*
X179369481Y-95852704D01*
X180714773Y-96604320D01*
X180717467Y-96605870D01*
X182043469Y-97390951D01*
X182046109Y-97392558D01*
X183352082Y-98210670D01*
X183354641Y-98212318D01*
X184639700Y-99062909D01*
X184642218Y-99064622D01*
X185673140Y-99784797D01*
X185905518Y-99947130D01*
X185908032Y-99948934D01*
X187148873Y-100862872D01*
X187151267Y-100864683D01*
X188368780Y-101809412D01*
X188371155Y-101811302D01*
X188852560Y-102204570D01*
X189564596Y-102786245D01*
X189566978Y-102788241D01*
X190145618Y-103285637D01*
X190690245Y-103753797D01*
X190735581Y-103792767D01*
X190737913Y-103794823D01*
X191880962Y-104828317D01*
X191883241Y-104830430D01*
X193000047Y-105892269D01*
X193002272Y-105894439D01*
X193347275Y-106239333D01*
X193785779Y-106677700D01*
X194092071Y-106983895D01*
X194094242Y-106986120D01*
X195156430Y-108102592D01*
X195158544Y-108104871D01*
X196192381Y-109247578D01*
X196194434Y-109249904D01*
X197064313Y-110261226D01*
X197199324Y-110418189D01*
X197201312Y-110420559D01*
X197463861Y-110741743D01*
X198176619Y-111613683D01*
X198178555Y-111616114D01*
X199123645Y-112833302D01*
X199125516Y-112835774D01*
X199488874Y-113328777D01*
X200039776Y-114076237D01*
X200041584Y-114078756D01*
X200158343Y-114245782D01*
X200924508Y-115341805D01*
X200926256Y-115344375D01*
X201766239Y-116612543D01*
X201777185Y-116629068D01*
X201778869Y-116631681D01*
X202597375Y-117937373D01*
X202598993Y-117940027D01*
X203384479Y-119265764D01*
X203386030Y-119268457D01*
X203881284Y-120154243D01*
X204131635Y-120602009D01*
X204138086Y-120613546D01*
X204139568Y-120616278D01*
X204857628Y-121979712D01*
X204859042Y-121982480D01*
X205542726Y-123363530D01*
X205544070Y-123366333D01*
X206192908Y-124764053D01*
X206194182Y-124766889D01*
X206807807Y-126180490D01*
X206809008Y-126183356D01*
X207386982Y-127611827D01*
X207388112Y-127614723D01*
X207930109Y-129057259D01*
X207931166Y-129060182D01*
X208436844Y-130515872D01*
X208437827Y-130518821D01*
X208906847Y-131986693D01*
X208907756Y-131989665D01*
X209339849Y-133468868D01*
X209340683Y-133471863D01*
X209735551Y-134961390D01*
X209736310Y-134964404D01*
X210093728Y-136463390D01*
X210094411Y-136466422D01*
X210414150Y-137973925D01*
X210414756Y-137976974D01*
X210696589Y-139491909D01*
X210697120Y-139494971D01*
X210940912Y-141016613D01*
X210941365Y-141019688D01*
X211143091Y-142518366D01*
X211143202Y-142519213D01*
X211144199Y-142527026D01*
X211144199Y-142552727D01*
X211150459Y-142576092D01*
X211151520Y-142584401D01*
X211151498Y-142584537D01*
X211151606Y-142585094D01*
X211154105Y-142605604D01*
X211154105Y-142605606D01*
X211154106Y-142605608D01*
X211165376Y-142631762D01*
X211171492Y-142654587D01*
X211186150Y-142679975D01*
X211189017Y-142686628D01*
X211189020Y-142686633D01*
X211199680Y-142711372D01*
X211199681Y-142711373D01*
X211214802Y-142729602D01*
X211224219Y-142745913D01*
X211248338Y-142770032D01*
X211252020Y-142774470D01*
X211252020Y-142774471D01*
X211273203Y-142800009D01*
X211273205Y-142800010D01*
X211273207Y-142800013D01*
X211288865Y-142810559D01*
X211298786Y-142820480D01*
X211332458Y-142839920D01*
X211336021Y-142842320D01*
X211368726Y-142864348D01*
X211368728Y-142864349D01*
X211382134Y-142868601D01*
X211390112Y-142873207D01*
X211432279Y-142884505D01*
X211478505Y-142899167D01*
X211487742Y-142899365D01*
X211491972Y-142900500D01*
X211540393Y-142900500D01*
X211593645Y-142901647D01*
X211593653Y-142901644D01*
X211595580Y-142901411D01*
X211610582Y-142900500D01*
X222675500Y-142900500D01*
X222742539Y-142920185D01*
X222788294Y-142972989D01*
X222799500Y-143024500D01*
X222799500Y-156975500D01*
X222779815Y-157042539D01*
X222727011Y-157088294D01*
X222675500Y-157099500D01*
X211597887Y-157099500D01*
X211593645Y-157098353D01*
X211540393Y-157099500D01*
X211491972Y-157099500D01*
X211491968Y-157099501D01*
X211489226Y-157099862D01*
X211480212Y-157100549D01*
X211478504Y-157100833D01*
X211434964Y-157114642D01*
X211434963Y-157114641D01*
X211432243Y-157115503D01*
X211390112Y-157126793D01*
X211382140Y-157131394D01*
X211369312Y-157135463D01*
X211369312Y-157135464D01*
X211368736Y-157135646D01*
X211368731Y-157135648D01*
X211336020Y-157157678D01*
X211336021Y-157157679D01*
X211332461Y-157160077D01*
X211298786Y-157179520D01*
X211288866Y-157189438D01*
X211278927Y-157196133D01*
X211278925Y-157196133D01*
X211273212Y-157199981D01*
X211273210Y-157199983D01*
X211273207Y-157199987D01*
X211252015Y-157225533D01*
X211248332Y-157229972D01*
X211224219Y-157254087D01*
X211214804Y-157270392D01*
X211208106Y-157278468D01*
X211208104Y-157278472D01*
X211199682Y-157288625D01*
X211199678Y-157288632D01*
X211189023Y-157313356D01*
X211189024Y-157313357D01*
X211186153Y-157320017D01*
X211171492Y-157345413D01*
X211165376Y-157368236D01*
X211161811Y-157376510D01*
X211161809Y-157376511D01*
X211154107Y-157394387D01*
X211154106Y-157394391D01*
X211151605Y-157414911D01*
X211151518Y-157415608D01*
X211150457Y-157423915D01*
X211144199Y-157447273D01*
X211144199Y-157472939D01*
X211143201Y-157480757D01*
X211143135Y-157480906D01*
X211143088Y-157481616D01*
X210938357Y-159000699D01*
X210937897Y-159003815D01*
X210690073Y-160545657D01*
X210689533Y-160548760D01*
X210402641Y-162083739D01*
X210402023Y-162086828D01*
X210076231Y-163614048D01*
X210075535Y-163617120D01*
X209711053Y-165135590D01*
X209710279Y-165138643D01*
X209307352Y-166647337D01*
X209306501Y-166650370D01*
X208865375Y-168148373D01*
X208864447Y-168151383D01*
X208385407Y-169637721D01*
X208384402Y-169640706D01*
X207867797Y-171114304D01*
X207866718Y-171117263D01*
X207312815Y-172577358D01*
X207311660Y-172580289D01*
X206720875Y-174025782D01*
X206719647Y-174028682D01*
X206092315Y-175458751D01*
X206091013Y-175461619D01*
X205427570Y-176875272D01*
X205426195Y-176878107D01*
X204727077Y-178274421D01*
X204725632Y-178277219D01*
X203991239Y-179655386D01*
X203989722Y-179658147D01*
X203220585Y-181017176D01*
X203218999Y-181019897D01*
X202415579Y-182358969D01*
X202413924Y-182361649D01*
X201576778Y-183679843D01*
X201575056Y-183682481D01*
X200704649Y-184979057D01*
X200702860Y-184981649D01*
X199799852Y-186255627D01*
X199797998Y-186258174D01*
X198862886Y-187508855D01*
X198860968Y-187511353D01*
X197894409Y-188737854D01*
X197892428Y-188740303D01*
X196895037Y-189941849D01*
X196892995Y-189944247D01*
X195865372Y-191120111D01*
X195863269Y-191122456D01*
X194806153Y-192271792D01*
X194803992Y-192274083D01*
X193718005Y-193396218D01*
X193715786Y-193398454D01*
X192601609Y-194492682D01*
X192599333Y-194494860D01*
X191457801Y-195560360D01*
X191455472Y-195562480D01*
X190287182Y-196598699D01*
X190284799Y-196600759D01*
X189090602Y-197606939D01*
X189088168Y-197608938D01*
X187868753Y-198584498D01*
X187866268Y-198586434D01*
X186622525Y-199530662D01*
X186619992Y-199532535D01*
X185352626Y-200444896D01*
X185350047Y-200446703D01*
X184059944Y-201326562D01*
X184057319Y-201328304D01*
X182745258Y-202175128D01*
X182742590Y-202176802D01*
X181409476Y-202990004D01*
X181406767Y-202991610D01*
X180053400Y-203770707D01*
X180050650Y-203772244D01*
X178677922Y-204516719D01*
X178675134Y-204518185D01*
X177283970Y-205227536D01*
X177281146Y-205228931D01*
X175872413Y-205902719D01*
X175869555Y-205904042D01*
X174444145Y-206541839D01*
X174441254Y-206543089D01*
X173000100Y-207144476D01*
X172997178Y-207145652D01*
X171541207Y-207710244D01*
X171538256Y-207711345D01*
X170068441Y-208238763D01*
X170065489Y-208239780D01*
X169371732Y-208469007D01*
X168582739Y-208729700D01*
X168579736Y-208730650D01*
X167084985Y-209182761D01*
X167081958Y-209183634D01*
X165576286Y-209597610D01*
X165573239Y-209598407D01*
X164057438Y-209974030D01*
X164054371Y-209974748D01*
X162529619Y-210311727D01*
X162526535Y-210312368D01*
X160993657Y-210610522D01*
X160990558Y-210611084D01*
X159450607Y-210870205D01*
X159447494Y-210870688D01*
X157901478Y-211090609D01*
X157898354Y-211091013D01*
X156347259Y-211271593D01*
X156344126Y-211271918D01*
X154788876Y-211413049D01*
X154785736Y-211413293D01*
X153227485Y-211514869D01*
X153224340Y-211515034D01*
X151663976Y-211577001D01*
X151660827Y-211577086D01*
X150099397Y-211599399D01*
X150096247Y-211599404D01*
X148534754Y-211582050D01*
X148531605Y-211581975D01*
X146971054Y-211524965D01*
X146967908Y-211524810D01*
X145409343Y-211428183D01*
X145406202Y-211427949D01*
X143850511Y-211291758D01*
X143847377Y-211291443D01*
X142295717Y-211115791D01*
X142292592Y-211115397D01*
X140745884Y-210900387D01*
X140742770Y-210899914D01*
X139201973Y-210645680D01*
X139198872Y-210645127D01*
X137665129Y-210351858D01*
X137662043Y-210351228D01*
X136136154Y-210019077D01*
X136133085Y-210018368D01*
X134616145Y-209647572D01*
X134613095Y-209646785D01*
X133106080Y-209237583D01*
X133103051Y-209236719D01*
X131606895Y-208789366D01*
X131603905Y-208788430D01*
X131113201Y-208628022D01*
X130119639Y-208303233D01*
X130116658Y-208302217D01*
X128645128Y-207779454D01*
X128642174Y-207778362D01*
X127184430Y-207218403D01*
X127181504Y-207217236D01*
X125738448Y-206620429D01*
X125735553Y-206619188D01*
X124308172Y-205985942D01*
X124305309Y-205984629D01*
X122894364Y-205315282D01*
X122891536Y-205313895D01*
X121498175Y-204608990D01*
X121495382Y-204607533D01*
X120120278Y-203867412D01*
X120117524Y-203865884D01*
X118761724Y-203091110D01*
X118759009Y-203089513D01*
X117423259Y-202280511D01*
X117420600Y-202278854D01*
X116105883Y-201436219D01*
X116103253Y-201434486D01*
X114810326Y-200558706D01*
X114807741Y-200556906D01*
X113537537Y-199648612D01*
X113534998Y-199646748D01*
X112288212Y-198706436D01*
X112285721Y-198704507D01*
X111063238Y-197732844D01*
X111060798Y-197730853D01*
X109863430Y-196728488D01*
X109861040Y-196726436D01*
X109718834Y-196601111D01*
X109000648Y-195968177D01*
X108689443Y-195693914D01*
X108687107Y-195691801D01*
X107542177Y-194629913D01*
X107539895Y-194627742D01*
X106879111Y-193982900D01*
X106422276Y-193537086D01*
X106420061Y-193534869D01*
X106286137Y-193397364D01*
X105655624Y-192749990D01*
X105330517Y-192416189D01*
X105328348Y-192413905D01*
X105029718Y-192091286D01*
X104955505Y-192011111D01*
X112796200Y-192011111D01*
X112796200Y-192253688D01*
X112827861Y-192494185D01*
X112890647Y-192728504D01*
X112983473Y-192952605D01*
X112983476Y-192952612D01*
X113104764Y-193162689D01*
X113104766Y-193162692D01*
X113104767Y-193162693D01*
X113252433Y-193355136D01*
X113252439Y-193355143D01*
X113423956Y-193526660D01*
X113423963Y-193526666D01*
X113436120Y-193535994D01*
X113616411Y-193674336D01*
X113826488Y-193795624D01*
X114050600Y-193888454D01*
X114284911Y-193951238D01*
X114465286Y-193974984D01*
X114525411Y-193982900D01*
X114525412Y-193982900D01*
X114767989Y-193982900D01*
X114816088Y-193976567D01*
X115008489Y-193951238D01*
X115242800Y-193888454D01*
X115466912Y-193795624D01*
X115676989Y-193674336D01*
X115869438Y-193526665D01*
X116040965Y-193355138D01*
X116188636Y-193162689D01*
X116309924Y-192952612D01*
X116402754Y-192728500D01*
X116465538Y-192494189D01*
X116497200Y-192253688D01*
X116497200Y-192011112D01*
X116465538Y-191770611D01*
X116402754Y-191536300D01*
X116309924Y-191312188D01*
X116188636Y-191102111D01*
X116040965Y-190909662D01*
X116040960Y-190909656D01*
X115869443Y-190738139D01*
X115869436Y-190738133D01*
X115676993Y-190590467D01*
X115676992Y-190590466D01*
X115676989Y-190590464D01*
X115466912Y-190469176D01*
X115466905Y-190469173D01*
X115242804Y-190376347D01*
X115008485Y-190313561D01*
X114767989Y-190281900D01*
X114767988Y-190281900D01*
X114525412Y-190281900D01*
X114525411Y-190281900D01*
X114284914Y-190313561D01*
X114050595Y-190376347D01*
X113826494Y-190469173D01*
X113826485Y-190469177D01*
X113616406Y-190590467D01*
X113423963Y-190738133D01*
X113423956Y-190738139D01*
X113252439Y-190909656D01*
X113252433Y-190909663D01*
X113104767Y-191102106D01*
X112983477Y-191312185D01*
X112983473Y-191312194D01*
X112890647Y-191536295D01*
X112827861Y-191770614D01*
X112796200Y-192011111D01*
X104955505Y-192011111D01*
X104267549Y-191267891D01*
X104265439Y-191265552D01*
X103234123Y-190093000D01*
X103232073Y-190090609D01*
X102230854Y-188892218D01*
X102228865Y-188889775D01*
X101258417Y-187666351D01*
X101256491Y-187663859D01*
X100455699Y-186599890D01*
X100317399Y-186416138D01*
X100315549Y-186413613D01*
X100276555Y-186358969D01*
X99408476Y-185142477D01*
X99406689Y-185139904D01*
X99362059Y-185073877D01*
X98532193Y-183846135D01*
X98530468Y-183843511D01*
X97689090Y-182527907D01*
X97687466Y-182525294D01*
X96879797Y-181188779D01*
X96878202Y-181186063D01*
X96483476Y-180493741D01*
X96104720Y-179829430D01*
X96103209Y-179826698D01*
X95364453Y-178450887D01*
X95363013Y-178448121D01*
X95305067Y-178333300D01*
X94659428Y-177053965D01*
X94658081Y-177051210D01*
X93990134Y-175639634D01*
X93988823Y-175636770D01*
X93356962Y-174208721D01*
X93355724Y-174205824D01*
X92760329Y-172762162D01*
X92759166Y-172759235D01*
X92200667Y-171301009D01*
X92199577Y-171298054D01*
X92134112Y-171113200D01*
X91678227Y-169825916D01*
X91677256Y-169823055D01*
X91193498Y-168338245D01*
X91192580Y-168335303D01*
X90999980Y-167688843D01*
X109537000Y-167688843D01*
X109537000Y-167846956D01*
X109577923Y-167999683D01*
X109577926Y-167999690D01*
X109656975Y-168136609D01*
X109656979Y-168136614D01*
X109656980Y-168136616D01*
X109768784Y-168248420D01*
X109768786Y-168248421D01*
X109768790Y-168248424D01*
X109905709Y-168327473D01*
X109905716Y-168327477D01*
X110058443Y-168368400D01*
X110058445Y-168368400D01*
X110216555Y-168368400D01*
X110216557Y-168368400D01*
X110369284Y-168327477D01*
X110506216Y-168248420D01*
X110618020Y-168136616D01*
X110697077Y-167999684D01*
X110738000Y-167846957D01*
X110738000Y-167688843D01*
X110697077Y-167536116D01*
X110629612Y-167419262D01*
X110613000Y-167357263D01*
X110613000Y-165367520D01*
X110632685Y-165300481D01*
X110649319Y-165279839D01*
X114370177Y-161558981D01*
X118180767Y-157748390D01*
X118236349Y-157716299D01*
X118366684Y-157681377D01*
X118503616Y-157602320D01*
X118615420Y-157490516D01*
X118694477Y-157353584D01*
X118735400Y-157200857D01*
X118735400Y-157042743D01*
X118694477Y-156890016D01*
X118693978Y-156889151D01*
X118615424Y-156753090D01*
X118615418Y-156753082D01*
X118503617Y-156641281D01*
X118503609Y-156641275D01*
X118366690Y-156562226D01*
X118366686Y-156562224D01*
X118366684Y-156562223D01*
X118213957Y-156521300D01*
X118055843Y-156521300D01*
X117903116Y-156562223D01*
X117903109Y-156562226D01*
X117766190Y-156641275D01*
X117766182Y-156641281D01*
X117654381Y-156753082D01*
X117654375Y-156753090D01*
X117575326Y-156890009D01*
X117575323Y-156890014D01*
X117540401Y-157020346D01*
X117508307Y-157075933D01*
X109828094Y-164756145D01*
X109828095Y-164756146D01*
X109757003Y-164827237D01*
X109694405Y-164935663D01*
X109662000Y-165056600D01*
X109662000Y-167357263D01*
X109645388Y-167419262D01*
X109577923Y-167536115D01*
X109577923Y-167536116D01*
X109537000Y-167688843D01*
X90999980Y-167688843D01*
X90746676Y-166838633D01*
X90745839Y-166835687D01*
X90338099Y-165328196D01*
X90337321Y-165325167D01*
X90335128Y-165316158D01*
X89968018Y-163807863D01*
X89967312Y-163804793D01*
X89924876Y-163608915D01*
X89636654Y-162278542D01*
X89636045Y-162275545D01*
X89344261Y-160741386D01*
X89343737Y-160738435D01*
X89091007Y-159197312D01*
X89090538Y-159194200D01*
X89079142Y-159111624D01*
X88877043Y-157647231D01*
X88876666Y-157644217D01*
X88702525Y-156092258D01*
X88702217Y-156089152D01*
X88567559Y-154533344D01*
X88567336Y-154530327D01*
X88472235Y-152971553D01*
X88472084Y-152968424D01*
X88471989Y-152965765D01*
X88416608Y-151407812D01*
X88416537Y-151404668D01*
X88400719Y-149843080D01*
X88400726Y-149840087D01*
X88424578Y-148278520D01*
X88424664Y-148275454D01*
X88488168Y-146715088D01*
X88488329Y-146712071D01*
X88591447Y-145153799D01*
X88591685Y-145150772D01*
X88734359Y-143595516D01*
X88734668Y-143592563D01*
X88916794Y-142041478D01*
X88917181Y-142038502D01*
X89138640Y-140492587D01*
X89139113Y-140489556D01*
X89399769Y-138949743D01*
X89400303Y-138946813D01*
X89699998Y-137414059D01*
X89700609Y-137411133D01*
X89895822Y-136531943D01*
X106878300Y-136531943D01*
X106878300Y-136690057D01*
X106884731Y-136714055D01*
X106919223Y-136842783D01*
X106919226Y-136842790D01*
X106998275Y-136979709D01*
X106998279Y-136979714D01*
X106998280Y-136979716D01*
X107110084Y-137091520D01*
X107110086Y-137091521D01*
X107110090Y-137091524D01*
X107247009Y-137170573D01*
X107247016Y-137170577D01*
X107399743Y-137211500D01*
X107426190Y-137211500D01*
X107493229Y-137231185D01*
X107513871Y-137247819D01*
X109094737Y-138828685D01*
X109191763Y-138884703D01*
X109299982Y-138913700D01*
X109299984Y-138913700D01*
X136106116Y-138913700D01*
X136106118Y-138913700D01*
X136214337Y-138884703D01*
X136311363Y-138828685D01*
X142940929Y-132199119D01*
X143002252Y-132165634D01*
X143028610Y-132162800D01*
X143055055Y-132162800D01*
X143055057Y-132162800D01*
X143207784Y-132121877D01*
X143344716Y-132042820D01*
X143456520Y-131931016D01*
X143535577Y-131794084D01*
X143538324Y-131783830D01*
X143574684Y-131724170D01*
X143637530Y-131693638D01*
X143706906Y-131701929D01*
X143745780Y-131728239D01*
X152744176Y-140726635D01*
X152777661Y-140787958D01*
X152772677Y-140857650D01*
X152742054Y-140899956D01*
X152744131Y-140902033D01*
X152626581Y-141019582D01*
X152626575Y-141019590D01*
X152547526Y-141156509D01*
X152547523Y-141156516D01*
X152506600Y-141309243D01*
X152506600Y-141335690D01*
X152486915Y-141402729D01*
X152470281Y-141423371D01*
X150984871Y-142908781D01*
X150923548Y-142942266D01*
X150897190Y-142945100D01*
X144872200Y-142945100D01*
X144805161Y-142925415D01*
X144759406Y-142872611D01*
X144748200Y-142821100D01*
X144748200Y-142669945D01*
X144748200Y-142669943D01*
X144707277Y-142517216D01*
X144666896Y-142447273D01*
X144628224Y-142380290D01*
X144628218Y-142380282D01*
X144609519Y-142361583D01*
X144576034Y-142300260D01*
X144573200Y-142273902D01*
X144573200Y-139590710D01*
X144592885Y-139523671D01*
X144609519Y-139503029D01*
X146840729Y-137271819D01*
X146902052Y-137238334D01*
X146928410Y-137235500D01*
X146954855Y-137235500D01*
X146954857Y-137235500D01*
X147107584Y-137194577D01*
X147244516Y-137115520D01*
X147356320Y-137003716D01*
X147435377Y-136866784D01*
X147476300Y-136714057D01*
X147476300Y-136555943D01*
X147435377Y-136403216D01*
X147421517Y-136379209D01*
X147356324Y-136266290D01*
X147356318Y-136266282D01*
X147244517Y-136154481D01*
X147244509Y-136154475D01*
X147107590Y-136075426D01*
X147107586Y-136075424D01*
X147107584Y-136075423D01*
X146954857Y-136034500D01*
X146796743Y-136034500D01*
X146644016Y-136075423D01*
X146644009Y-136075426D01*
X146507090Y-136154475D01*
X146507082Y-136154481D01*
X146395281Y-136266282D01*
X146395275Y-136266290D01*
X146316226Y-136403209D01*
X146316223Y-136403216D01*
X146275300Y-136555943D01*
X146275300Y-136582390D01*
X146255615Y-136649429D01*
X146238981Y-136670071D01*
X143807217Y-139101834D01*
X143807213Y-139101840D01*
X143751198Y-139198860D01*
X143751197Y-139198863D01*
X143722200Y-139307082D01*
X143722200Y-142273902D01*
X143714956Y-142298569D01*
X143711601Y-142324064D01*
X143704375Y-142334603D01*
X143702515Y-142340941D01*
X143692875Y-142353981D01*
X143689539Y-142357924D01*
X143667180Y-142380284D01*
X143659767Y-142393123D01*
X143652601Y-142401596D01*
X143632325Y-142414970D01*
X143614746Y-142431733D01*
X143603682Y-142433865D01*
X143594278Y-142440069D01*
X143569987Y-142440358D01*
X143546139Y-142444955D01*
X143535681Y-142440768D01*
X143524413Y-142440903D01*
X143503820Y-142428013D01*
X143481274Y-142418987D01*
X143470245Y-142409198D01*
X141555386Y-140494338D01*
X141521901Y-140433015D01*
X141523291Y-140374566D01*
X141555100Y-140255857D01*
X141555100Y-140097743D01*
X141514177Y-139945016D01*
X141454152Y-139841048D01*
X141435124Y-139808090D01*
X141435118Y-139808082D01*
X141323317Y-139696281D01*
X141323309Y-139696275D01*
X141186390Y-139617226D01*
X141186386Y-139617224D01*
X141186384Y-139617223D01*
X141033657Y-139576300D01*
X140875543Y-139576300D01*
X140722816Y-139617223D01*
X140722809Y-139617226D01*
X140585890Y-139696275D01*
X140585882Y-139696281D01*
X140567183Y-139714981D01*
X140505860Y-139748466D01*
X140479502Y-139751300D01*
X127530536Y-139751300D01*
X127463497Y-139731615D01*
X127428064Y-139694455D01*
X127427570Y-139694835D01*
X127424038Y-139690233D01*
X127423148Y-139689299D01*
X127422620Y-139688384D01*
X127310816Y-139576580D01*
X127310814Y-139576579D01*
X127310809Y-139576575D01*
X127173890Y-139497526D01*
X127173886Y-139497524D01*
X127173884Y-139497523D01*
X127021157Y-139456600D01*
X126863043Y-139456600D01*
X126710316Y-139497523D01*
X126710309Y-139497526D01*
X126573390Y-139576575D01*
X126573382Y-139576581D01*
X126461581Y-139688382D01*
X126461575Y-139688390D01*
X126382526Y-139825309D01*
X126382523Y-139825316D01*
X126341600Y-139978043D01*
X126341600Y-140136157D01*
X126373674Y-140255857D01*
X126382523Y-140288883D01*
X126382526Y-140288890D01*
X126461575Y-140425809D01*
X126461579Y-140425814D01*
X126461580Y-140425816D01*
X126573384Y-140537620D01*
X126573386Y-140537621D01*
X126573390Y-140537624D01*
X126708508Y-140615633D01*
X126710316Y-140616677D01*
X126863043Y-140657600D01*
X126863045Y-140657600D01*
X127021155Y-140657600D01*
X127021157Y-140657600D01*
X127173884Y-140616677D01*
X127173892Y-140616672D01*
X127181394Y-140613566D01*
X127182250Y-140615633D01*
X127232011Y-140602300D01*
X140453459Y-140602300D01*
X140520498Y-140621985D01*
X140560846Y-140664299D01*
X140614115Y-140756563D01*
X140614116Y-140756564D01*
X140614117Y-140756565D01*
X143485074Y-143627521D01*
X143485084Y-143627532D01*
X143489414Y-143631862D01*
X143489415Y-143631863D01*
X143568637Y-143711085D01*
X143665663Y-143767103D01*
X143773881Y-143796100D01*
X143773882Y-143796100D01*
X143773883Y-143796100D01*
X151180816Y-143796100D01*
X151180818Y-143796100D01*
X151289037Y-143767103D01*
X151386063Y-143711085D01*
X151417601Y-143679545D01*
X151434423Y-143670360D01*
X151448272Y-143657110D01*
X151464451Y-143653962D01*
X151478921Y-143646061D01*
X151498041Y-143647428D01*
X151516856Y-143643768D01*
X151532170Y-143649868D01*
X151548612Y-143651044D01*
X151563956Y-143662530D01*
X151581765Y-143669624D01*
X151597221Y-143687430D01*
X151604547Y-143692914D01*
X151606165Y-143695126D01*
X151609666Y-143700024D01*
X151640780Y-143753916D01*
X151666725Y-143779861D01*
X151672683Y-143788197D01*
X151680934Y-143811906D01*
X151692966Y-143833940D01*
X151694916Y-143852078D01*
X151695649Y-143854184D01*
X151695298Y-143855637D01*
X151695800Y-143860298D01*
X151695800Y-147520800D01*
X151676115Y-147587839D01*
X151623311Y-147633594D01*
X151571800Y-147644800D01*
X123268182Y-147644800D01*
X123159963Y-147673797D01*
X123159960Y-147673798D01*
X123062940Y-147729813D01*
X123062934Y-147729817D01*
X109233771Y-161558981D01*
X109172448Y-161592466D01*
X109146090Y-161595300D01*
X109119643Y-161595300D01*
X108966916Y-161636223D01*
X108966909Y-161636226D01*
X108829990Y-161715275D01*
X108829982Y-161715281D01*
X108718181Y-161827082D01*
X108718175Y-161827090D01*
X108639126Y-161964009D01*
X108639123Y-161964016D01*
X108598200Y-162116743D01*
X108598200Y-162274857D01*
X108599198Y-162278579D01*
X108639123Y-162427583D01*
X108639126Y-162427590D01*
X108718175Y-162564509D01*
X108718179Y-162564514D01*
X108718180Y-162564516D01*
X108829984Y-162676320D01*
X108829986Y-162676321D01*
X108829990Y-162676324D01*
X108966909Y-162755373D01*
X108966916Y-162755377D01*
X109119643Y-162796300D01*
X109119645Y-162796300D01*
X109277755Y-162796300D01*
X109277757Y-162796300D01*
X109430484Y-162755377D01*
X109567416Y-162676320D01*
X109679220Y-162564516D01*
X109758277Y-162427584D01*
X109799200Y-162274857D01*
X109799200Y-162248410D01*
X109818885Y-162181371D01*
X109835519Y-162160729D01*
X123464129Y-148532119D01*
X123525452Y-148498634D01*
X123551810Y-148495800D01*
X152029390Y-148495800D01*
X152096429Y-148515485D01*
X152117071Y-148532119D01*
X156121587Y-152536635D01*
X159819286Y-156234333D01*
X159852771Y-156295656D01*
X159847787Y-156365348D01*
X159805915Y-156421281D01*
X159740451Y-156445698D01*
X159684152Y-156436575D01*
X158721529Y-156037844D01*
X158721516Y-156037839D01*
X156599890Y-155368892D01*
X154428024Y-154887401D01*
X154428015Y-154887400D01*
X152222469Y-154597034D01*
X150000000Y-154500000D01*
X147777529Y-154597034D01*
X145571983Y-154887400D01*
X145571974Y-154887401D01*
X143400108Y-155368892D01*
X141278486Y-156037838D01*
X139223229Y-156889152D01*
X137250009Y-157916346D01*
X135373795Y-159111624D01*
X133608921Y-160465860D01*
X133608916Y-160465865D01*
X131968777Y-161968776D01*
X131968776Y-161968777D01*
X130465865Y-163608916D01*
X130465860Y-163608921D01*
X129111624Y-165373795D01*
X127916346Y-167250009D01*
X126889152Y-169223229D01*
X126037838Y-171278486D01*
X125368892Y-173400108D01*
X124887401Y-175571974D01*
X124887400Y-175571983D01*
X124597034Y-177777529D01*
X124500000Y-179999999D01*
X124597034Y-182222469D01*
X124887400Y-184428015D01*
X124887401Y-184428024D01*
X125368892Y-186599890D01*
X125801328Y-187971399D01*
X126037838Y-188721513D01*
X126367066Y-189516340D01*
X126889152Y-190776769D01*
X127916346Y-192749990D01*
X127916350Y-192749996D01*
X127916352Y-192750000D01*
X128179264Y-193162689D01*
X129111624Y-194626203D01*
X130465860Y-196391077D01*
X130465862Y-196391079D01*
X130465866Y-196391084D01*
X131968777Y-198031222D01*
X133608915Y-199534133D01*
X133608919Y-199534136D01*
X133608921Y-199534138D01*
X135373795Y-200888374D01*
X135373800Y-200888377D01*
X137250000Y-202083647D01*
X137250006Y-202083650D01*
X137250009Y-202083652D01*
X139223229Y-203110846D01*
X139223234Y-203110848D01*
X141278486Y-203962161D01*
X143400114Y-204631108D01*
X145571971Y-205112597D01*
X147777528Y-205402964D01*
X150000000Y-205500000D01*
X150033720Y-205498527D01*
X150036570Y-205499230D01*
X150039390Y-205498409D01*
X150070270Y-205507547D01*
X150101553Y-205515267D01*
X150104427Y-205517654D01*
X150106388Y-205518235D01*
X150117269Y-205528323D01*
X150133013Y-205541403D01*
X150135577Y-205544374D01*
X150198133Y-205626867D01*
X150223072Y-205645778D01*
X150231611Y-205655675D01*
X150240869Y-205676060D01*
X150254176Y-205694067D01*
X150255037Y-205707257D01*
X150260503Y-205719292D01*
X150257270Y-205741446D01*
X150258729Y-205763789D01*
X150257503Y-205768774D01*
X150224500Y-205891943D01*
X150224500Y-206050056D01*
X150265423Y-206202783D01*
X150265426Y-206202790D01*
X150344475Y-206339709D01*
X150344479Y-206339714D01*
X150344480Y-206339716D01*
X150456284Y-206451520D01*
X150456286Y-206451521D01*
X150456290Y-206451524D01*
X150593209Y-206530573D01*
X150593216Y-206530577D01*
X150745943Y-206571500D01*
X150745945Y-206571500D01*
X150904055Y-206571500D01*
X150904057Y-206571500D01*
X151056784Y-206530577D01*
X151193716Y-206451520D01*
X151305520Y-206339716D01*
X151384577Y-206202784D01*
X151425500Y-206050057D01*
X151425500Y-205891943D01*
X151384577Y-205739216D01*
X151384573Y-205739209D01*
X151381466Y-205731706D01*
X151383172Y-205730999D01*
X151381490Y-205724067D01*
X151372681Y-205709056D01*
X151373420Y-205690818D01*
X151369116Y-205673082D01*
X151374815Y-205656421D01*
X151375512Y-205639244D01*
X151390113Y-205611702D01*
X151391462Y-205607759D01*
X151392757Y-205605912D01*
X151463115Y-205513132D01*
X151469885Y-205495963D01*
X151478328Y-205483928D01*
X151494602Y-205470942D01*
X151507386Y-205454510D01*
X151521361Y-205449590D01*
X151532943Y-205440350D01*
X151553653Y-205438224D01*
X151573292Y-205431312D01*
X151574221Y-205431267D01*
X152222471Y-205402964D01*
X154428028Y-205112597D01*
X156599885Y-204631108D01*
X158721513Y-203962161D01*
X160776765Y-203110848D01*
X162750000Y-202083647D01*
X164626199Y-200888377D01*
X166391084Y-199534133D01*
X168031222Y-198031222D01*
X168508733Y-197510111D01*
X175649500Y-197510111D01*
X175649500Y-197752688D01*
X175681161Y-197993185D01*
X175743947Y-198227504D01*
X175809098Y-198384792D01*
X175836776Y-198451612D01*
X175958064Y-198661689D01*
X175958066Y-198661692D01*
X175958067Y-198661693D01*
X176105733Y-198854136D01*
X176105739Y-198854143D01*
X176277256Y-199025660D01*
X176277262Y-199025665D01*
X176469711Y-199173336D01*
X176679788Y-199294624D01*
X176903900Y-199387454D01*
X177138211Y-199450238D01*
X177318586Y-199473984D01*
X177378711Y-199481900D01*
X177378712Y-199481900D01*
X177621289Y-199481900D01*
X177669388Y-199475567D01*
X177861789Y-199450238D01*
X178096100Y-199387454D01*
X178320212Y-199294624D01*
X178530289Y-199173336D01*
X178722738Y-199025665D01*
X178894265Y-198854138D01*
X179041936Y-198661689D01*
X179163224Y-198451612D01*
X179256054Y-198227500D01*
X179318838Y-197993189D01*
X179350500Y-197752688D01*
X179350500Y-197510112D01*
X179318838Y-197269611D01*
X179256054Y-197035300D01*
X179163224Y-196811188D01*
X179041936Y-196601111D01*
X178894265Y-196408662D01*
X178894260Y-196408656D01*
X178722743Y-196237139D01*
X178722736Y-196237133D01*
X178530293Y-196089467D01*
X178530292Y-196089466D01*
X178530289Y-196089464D01*
X178320212Y-195968176D01*
X178320205Y-195968173D01*
X178096104Y-195875347D01*
X177861785Y-195812561D01*
X177621289Y-195780900D01*
X177621288Y-195780900D01*
X177378712Y-195780900D01*
X177378711Y-195780900D01*
X177138214Y-195812561D01*
X176903895Y-195875347D01*
X176679794Y-195968173D01*
X176679785Y-195968177D01*
X176469706Y-196089467D01*
X176277263Y-196237133D01*
X176277256Y-196237139D01*
X176105739Y-196408656D01*
X176105733Y-196408663D01*
X175958067Y-196601106D01*
X175836777Y-196811185D01*
X175836773Y-196811194D01*
X175743947Y-197035295D01*
X175681161Y-197269614D01*
X175649500Y-197510111D01*
X168508733Y-197510111D01*
X169534133Y-196391084D01*
X170888377Y-194626199D01*
X172083647Y-192750000D01*
X173110848Y-190776765D01*
X173962161Y-188721513D01*
X174631108Y-186599885D01*
X175112597Y-184428028D01*
X175402964Y-182222471D01*
X175500000Y-180000000D01*
X175402964Y-177777528D01*
X175112597Y-175571971D01*
X174631108Y-173400114D01*
X173962161Y-171278486D01*
X173563420Y-170315842D01*
X173555952Y-170246375D01*
X173587227Y-170183896D01*
X173647316Y-170148244D01*
X173717141Y-170150738D01*
X173765663Y-170180711D01*
X182837081Y-179252128D01*
X182870566Y-179313451D01*
X182873400Y-179339809D01*
X182873400Y-179503756D01*
X182914323Y-179656483D01*
X182914326Y-179656490D01*
X182993375Y-179793409D01*
X182993379Y-179793414D01*
X182993380Y-179793416D01*
X183105184Y-179905220D01*
X183105186Y-179905221D01*
X183105190Y-179905224D01*
X183242109Y-179984273D01*
X183242116Y-179984277D01*
X183394843Y-180025200D01*
X183394845Y-180025200D01*
X183552955Y-180025200D01*
X183552957Y-180025200D01*
X183705684Y-179984277D01*
X183842616Y-179905220D01*
X183954420Y-179793416D01*
X184033477Y-179656484D01*
X184074400Y-179503757D01*
X184074400Y-179345643D01*
X184033477Y-179192916D01*
X183989575Y-179116874D01*
X183954424Y-179055990D01*
X183954418Y-179055982D01*
X183842617Y-178944181D01*
X183842609Y-178944175D01*
X183705690Y-178865126D01*
X183705686Y-178865124D01*
X183705684Y-178865123D01*
X183705682Y-178865122D01*
X183705679Y-178865121D01*
X183666586Y-178854646D01*
X183611000Y-178822553D01*
X172146220Y-167357773D01*
X172123912Y-167327349D01*
X172120214Y-167320245D01*
X172083647Y-167250000D01*
X170888377Y-165373800D01*
X170888374Y-165373795D01*
X169534138Y-163608921D01*
X169534136Y-163608919D01*
X169534133Y-163608915D01*
X168031222Y-161968777D01*
X166391084Y-160465866D01*
X166391079Y-160465862D01*
X166391077Y-160465860D01*
X164626203Y-159111624D01*
X163393480Y-158326294D01*
X162749999Y-157916352D01*
X162749995Y-157916350D01*
X162749989Y-157916346D01*
X162672650Y-157876086D01*
X162642226Y-157853778D01*
X152583119Y-147794671D01*
X152549634Y-147733348D01*
X152546800Y-147706990D01*
X152546800Y-143860298D01*
X152566485Y-143793259D01*
X152583119Y-143772617D01*
X152588635Y-143767101D01*
X152601820Y-143753916D01*
X152680877Y-143616984D01*
X152721800Y-143464257D01*
X152721800Y-143306143D01*
X152680877Y-143153416D01*
X152617364Y-143043407D01*
X152601824Y-143016490D01*
X152601818Y-143016482D01*
X152490017Y-142904681D01*
X152490016Y-142904680D01*
X152441326Y-142876569D01*
X152393111Y-142826003D01*
X152379887Y-142757396D01*
X152405855Y-142692531D01*
X152415635Y-142681511D01*
X153072029Y-142025119D01*
X153133352Y-141991634D01*
X153159710Y-141988800D01*
X153186155Y-141988800D01*
X153186157Y-141988800D01*
X153338884Y-141947877D01*
X153475816Y-141868820D01*
X153587620Y-141757016D01*
X153587620Y-141757015D01*
X153593367Y-141751269D01*
X153595943Y-141753845D01*
X153638660Y-141722387D01*
X153708388Y-141717948D01*
X153768764Y-141751223D01*
X186326281Y-174308740D01*
X186359766Y-174370063D01*
X186362600Y-174396421D01*
X186362600Y-181375563D01*
X186345988Y-181437562D01*
X186278523Y-181554415D01*
X186278523Y-181554416D01*
X186237600Y-181707143D01*
X186237600Y-181865256D01*
X186278523Y-182017983D01*
X186278526Y-182017990D01*
X186357575Y-182154909D01*
X186357579Y-182154914D01*
X186357580Y-182154916D01*
X186469384Y-182266720D01*
X186469386Y-182266721D01*
X186469390Y-182266724D01*
X186606309Y-182345773D01*
X186606316Y-182345777D01*
X186759043Y-182386700D01*
X186759045Y-182386700D01*
X186917155Y-182386700D01*
X186917157Y-182386700D01*
X187069884Y-182345777D01*
X187206816Y-182266720D01*
X187318620Y-182154916D01*
X187397677Y-182017984D01*
X187438600Y-181865257D01*
X187438600Y-181707143D01*
X187397677Y-181554416D01*
X187330212Y-181437562D01*
X187313600Y-181375563D01*
X187313600Y-174085500D01*
X187308828Y-174067690D01*
X187281195Y-173964564D01*
X187218595Y-173856136D01*
X187130064Y-173767605D01*
X184659584Y-171297125D01*
X184626099Y-171235802D01*
X184631083Y-171166110D01*
X184672955Y-171110177D01*
X184715169Y-171089670D01*
X184780084Y-171072277D01*
X184917016Y-170993220D01*
X185028820Y-170881416D01*
X185107877Y-170744484D01*
X185148800Y-170591757D01*
X185148800Y-170433643D01*
X185107877Y-170280916D01*
X185051863Y-170183896D01*
X185028824Y-170143990D01*
X185028818Y-170143982D01*
X184917017Y-170032181D01*
X184917009Y-170032175D01*
X184780090Y-169953126D01*
X184780085Y-169953123D01*
X184649753Y-169918201D01*
X184594166Y-169886107D01*
X168911254Y-154203195D01*
X200862999Y-154203195D01*
X200889918Y-154338522D01*
X200889921Y-154338532D01*
X200942721Y-154466004D01*
X200942728Y-154466017D01*
X201019385Y-154580741D01*
X201019388Y-154580745D01*
X201116954Y-154678311D01*
X201116958Y-154678314D01*
X201231682Y-154754971D01*
X201231695Y-154754978D01*
X201359167Y-154807778D01*
X201359172Y-154807780D01*
X201359176Y-154807780D01*
X201359177Y-154807781D01*
X201494504Y-154834700D01*
X201494507Y-154834700D01*
X201632495Y-154834700D01*
X201723541Y-154816589D01*
X201767828Y-154807780D01*
X201895311Y-154754975D01*
X202010042Y-154678314D01*
X202107614Y-154580742D01*
X202184275Y-154466011D01*
X202237080Y-154338528D01*
X202244253Y-154302464D01*
X202276636Y-154240556D01*
X202337351Y-154205980D01*
X202407121Y-154209718D01*
X202463793Y-154250584D01*
X202473257Y-154264656D01*
X202519477Y-154344712D01*
X202519479Y-154344715D01*
X202519480Y-154344716D01*
X202631284Y-154456520D01*
X202631286Y-154456521D01*
X202631290Y-154456524D01*
X202647733Y-154466017D01*
X202768216Y-154535577D01*
X202920943Y-154576500D01*
X202920945Y-154576500D01*
X203079055Y-154576500D01*
X203079057Y-154576500D01*
X203231784Y-154535577D01*
X203368716Y-154456520D01*
X203387417Y-154437819D01*
X203448740Y-154404334D01*
X203475098Y-154401500D01*
X203762055Y-154401500D01*
X203829094Y-154421185D01*
X203874849Y-154473989D01*
X203884793Y-154543147D01*
X203855768Y-154606703D01*
X203796990Y-154644477D01*
X203794182Y-154645265D01*
X203768216Y-154652223D01*
X203768209Y-154652226D01*
X203631290Y-154731275D01*
X203631282Y-154731281D01*
X203519481Y-154843082D01*
X203519475Y-154843090D01*
X203440426Y-154980009D01*
X203440423Y-154980016D01*
X203399500Y-155132743D01*
X203399500Y-155290857D01*
X203420410Y-155368892D01*
X203440423Y-155443583D01*
X203440426Y-155443590D01*
X203519475Y-155580509D01*
X203519479Y-155580514D01*
X203519480Y-155580516D01*
X203631284Y-155692320D01*
X203631286Y-155692321D01*
X203631290Y-155692324D01*
X203768209Y-155771373D01*
X203768216Y-155771377D01*
X203920943Y-155812300D01*
X203920945Y-155812300D01*
X204079055Y-155812300D01*
X204079057Y-155812300D01*
X204231784Y-155771377D01*
X204368716Y-155692320D01*
X204387417Y-155673619D01*
X204448740Y-155640134D01*
X204475098Y-155637300D01*
X211301516Y-155637300D01*
X211301518Y-155637300D01*
X211409737Y-155608303D01*
X211506763Y-155552285D01*
X214244814Y-152814234D01*
X217174500Y-152814234D01*
X217174500Y-152965765D01*
X217213719Y-153112136D01*
X217251602Y-153177750D01*
X217289485Y-153243365D01*
X217396635Y-153350515D01*
X217527865Y-153426281D01*
X217674234Y-153465500D01*
X217674236Y-153465500D01*
X217825764Y-153465500D01*
X217825766Y-153465500D01*
X217972135Y-153426281D01*
X218103365Y-153350515D01*
X218210515Y-153243365D01*
X218286281Y-153112135D01*
X218325500Y-152965766D01*
X218325500Y-152814234D01*
X218286281Y-152667865D01*
X218210515Y-152536635D01*
X218103365Y-152429485D01*
X218037750Y-152391602D01*
X217972136Y-152353719D01*
X217898950Y-152334109D01*
X217825766Y-152314500D01*
X217674234Y-152314500D01*
X217527863Y-152353719D01*
X217396635Y-152429485D01*
X217396632Y-152429487D01*
X217289487Y-152536632D01*
X217289485Y-152536635D01*
X217213719Y-152667863D01*
X217174500Y-152814234D01*
X214244814Y-152814234D01*
X214978529Y-152080519D01*
X215039852Y-152047034D01*
X215066210Y-152044200D01*
X215092655Y-152044200D01*
X215092657Y-152044200D01*
X215245384Y-152003277D01*
X215382316Y-151924220D01*
X215494120Y-151812416D01*
X215573177Y-151675484D01*
X215614100Y-151522757D01*
X215614100Y-151364643D01*
X215573177Y-151211916D01*
X215573173Y-151211909D01*
X215494124Y-151074990D01*
X215494118Y-151074982D01*
X215382317Y-150963181D01*
X215382309Y-150963175D01*
X215245390Y-150884126D01*
X215245386Y-150884124D01*
X215245384Y-150884123D01*
X215092657Y-150843200D01*
X214934543Y-150843200D01*
X214781816Y-150884123D01*
X214781809Y-150884126D01*
X214644890Y-150963175D01*
X214644882Y-150963181D01*
X214533081Y-151074982D01*
X214533075Y-151074990D01*
X214454026Y-151211909D01*
X214454023Y-151211916D01*
X214413100Y-151364643D01*
X214413100Y-151391090D01*
X214393415Y-151458129D01*
X214376781Y-151478771D01*
X211105571Y-154749981D01*
X211044248Y-154783466D01*
X211017890Y-154786300D01*
X204475098Y-154786300D01*
X204408059Y-154766615D01*
X204387417Y-154749981D01*
X204368717Y-154731281D01*
X204368709Y-154731275D01*
X204231790Y-154652226D01*
X204231786Y-154652224D01*
X204231784Y-154652223D01*
X204205850Y-154645274D01*
X204146191Y-154608910D01*
X204115662Y-154546063D01*
X204123957Y-154476688D01*
X204168442Y-154422810D01*
X204234994Y-154401535D01*
X204237945Y-154401500D01*
X210185716Y-154401500D01*
X210185718Y-154401500D01*
X210293937Y-154372503D01*
X210390963Y-154316485D01*
X214961229Y-149746219D01*
X215022552Y-149712734D01*
X215048910Y-149709900D01*
X215075355Y-149709900D01*
X215075357Y-149709900D01*
X215228084Y-149668977D01*
X215365016Y-149589920D01*
X215476820Y-149478116D01*
X215555877Y-149341184D01*
X215596800Y-149188457D01*
X215596800Y-149030343D01*
X215555877Y-148877616D01*
X215555873Y-148877609D01*
X215476824Y-148740690D01*
X215476818Y-148740682D01*
X215365017Y-148628881D01*
X215365009Y-148628875D01*
X215228090Y-148549826D01*
X215228086Y-148549824D01*
X215228084Y-148549823D01*
X215075357Y-148508900D01*
X215075356Y-148508900D01*
X215067297Y-148507839D01*
X215067739Y-148504477D01*
X215015761Y-148489215D01*
X214970006Y-148436411D01*
X214958800Y-148384900D01*
X214958800Y-148225645D01*
X214958800Y-148225643D01*
X214928285Y-148111759D01*
X214929948Y-148041914D01*
X214969110Y-147984051D01*
X215033338Y-147956547D01*
X215102241Y-147968133D01*
X215135741Y-147991989D01*
X216888781Y-149745028D01*
X216922266Y-149806351D01*
X216925100Y-149832709D01*
X216925100Y-149859156D01*
X216966023Y-150011883D01*
X216966026Y-150011890D01*
X217045075Y-150148809D01*
X217045079Y-150148814D01*
X217045080Y-150148816D01*
X217156884Y-150260620D01*
X217156886Y-150260621D01*
X217156890Y-150260624D01*
X217259684Y-150319971D01*
X217293816Y-150339677D01*
X217446543Y-150380600D01*
X217446545Y-150380600D01*
X217604655Y-150380600D01*
X217604657Y-150380600D01*
X217757384Y-150339677D01*
X217894316Y-150260620D01*
X218006120Y-150148816D01*
X218085177Y-150011884D01*
X218126100Y-149859157D01*
X218126100Y-149701043D01*
X218085177Y-149548316D01*
X218054324Y-149494877D01*
X218006124Y-149411390D01*
X218006118Y-149411382D01*
X217894317Y-149299581D01*
X217894309Y-149299575D01*
X217757390Y-149220526D01*
X217757386Y-149220524D01*
X217757384Y-149220523D01*
X217604657Y-149179600D01*
X217604656Y-149179600D01*
X217578209Y-149179600D01*
X217511170Y-149159915D01*
X217490528Y-149143281D01*
X215461036Y-147113788D01*
X215381482Y-147034234D01*
X217174500Y-147034234D01*
X217174500Y-147185765D01*
X217213719Y-147332136D01*
X217251602Y-147397750D01*
X217289485Y-147463365D01*
X217396635Y-147570515D01*
X217527865Y-147646281D01*
X217674234Y-147685500D01*
X217674236Y-147685500D01*
X217825764Y-147685500D01*
X217825766Y-147685500D01*
X217972135Y-147646281D01*
X218103365Y-147570515D01*
X218210515Y-147463365D01*
X218286281Y-147332135D01*
X218325500Y-147185766D01*
X218325500Y-147034234D01*
X218286281Y-146887865D01*
X218210515Y-146756635D01*
X218103365Y-146649485D01*
X218037750Y-146611602D01*
X217972136Y-146573719D01*
X217898950Y-146554109D01*
X217825766Y-146534500D01*
X217674234Y-146534500D01*
X217527863Y-146573719D01*
X217396635Y-146649485D01*
X217396632Y-146649487D01*
X217289487Y-146756632D01*
X217289485Y-146756635D01*
X217213719Y-146887863D01*
X217174500Y-147034234D01*
X215381482Y-147034234D01*
X215261365Y-146914117D01*
X215261364Y-146914116D01*
X215261363Y-146914115D01*
X215164337Y-146858097D01*
X215056118Y-146829100D01*
X215056117Y-146829100D01*
X205297998Y-146829100D01*
X205230959Y-146809415D01*
X205210317Y-146792781D01*
X205191617Y-146774081D01*
X205191609Y-146774075D01*
X205054690Y-146695026D01*
X205054686Y-146695024D01*
X205054684Y-146695023D01*
X204901957Y-146654100D01*
X204743843Y-146654100D01*
X204591116Y-146695023D01*
X204591109Y-146695026D01*
X204454190Y-146774075D01*
X204454182Y-146774081D01*
X204342381Y-146885882D01*
X204342375Y-146885890D01*
X204263326Y-147022809D01*
X204263323Y-147022816D01*
X204222400Y-147175543D01*
X204222400Y-147333656D01*
X204263323Y-147486383D01*
X204263326Y-147486390D01*
X204342375Y-147623309D01*
X204342379Y-147623314D01*
X204342380Y-147623316D01*
X204454184Y-147735120D01*
X204454186Y-147735121D01*
X204454190Y-147735124D01*
X204484441Y-147752589D01*
X204591116Y-147814177D01*
X204743843Y-147855100D01*
X204743845Y-147855100D01*
X204901955Y-147855100D01*
X204901957Y-147855100D01*
X205054684Y-147814177D01*
X205191616Y-147735120D01*
X205210317Y-147716419D01*
X205271640Y-147682934D01*
X205297998Y-147680100D01*
X205693802Y-147680100D01*
X205760841Y-147699785D01*
X205806596Y-147752589D01*
X205816540Y-147821747D01*
X205787515Y-147885303D01*
X205781483Y-147891781D01*
X205737281Y-147935982D01*
X205737275Y-147935990D01*
X205658226Y-148072909D01*
X205658223Y-148072916D01*
X205617300Y-148225643D01*
X205617300Y-148383757D01*
X205657054Y-148532119D01*
X205658223Y-148536483D01*
X205658226Y-148536490D01*
X205737275Y-148673409D01*
X205737279Y-148673414D01*
X205737280Y-148673416D01*
X205849084Y-148785220D01*
X205858142Y-148790449D01*
X205859381Y-148791165D01*
X205907596Y-148841733D01*
X205920818Y-148910340D01*
X205894850Y-148975205D01*
X205837935Y-149015732D01*
X205821573Y-149020169D01*
X205794176Y-149025618D01*
X205794167Y-149025621D01*
X205666695Y-149078421D01*
X205666682Y-149078428D01*
X205551958Y-149155085D01*
X205551954Y-149155088D01*
X205454388Y-149252654D01*
X205454385Y-149252658D01*
X205377728Y-149367382D01*
X205377721Y-149367395D01*
X205324921Y-149494867D01*
X205324918Y-149494877D01*
X205307580Y-149582040D01*
X205275194Y-149643951D01*
X205273644Y-149645529D01*
X201509829Y-153409344D01*
X201448506Y-153442829D01*
X201446340Y-153443280D01*
X201359177Y-153460618D01*
X201359167Y-153460621D01*
X201231695Y-153513421D01*
X201231682Y-153513428D01*
X201116958Y-153590085D01*
X201116954Y-153590088D01*
X201019388Y-153687654D01*
X201019385Y-153687658D01*
X200942728Y-153802382D01*
X200942721Y-153802395D01*
X200889921Y-153929867D01*
X200889918Y-153929877D01*
X200863000Y-154065204D01*
X200863000Y-154065207D01*
X200863000Y-154203193D01*
X200863000Y-154203195D01*
X200862999Y-154203195D01*
X168911254Y-154203195D01*
X138838565Y-124130506D01*
X138838564Y-124130505D01*
X138730136Y-124067905D01*
X138730137Y-124067905D01*
X138689824Y-124057103D01*
X138609201Y-124035500D01*
X138609199Y-124035500D01*
X123725121Y-124035500D01*
X123658082Y-124015815D01*
X123637440Y-123999181D01*
X121362540Y-121724281D01*
X121329055Y-121662958D01*
X121334039Y-121593266D01*
X121375911Y-121537333D01*
X121441375Y-121512916D01*
X121450221Y-121512600D01*
X124404481Y-121512600D01*
X124471520Y-121532285D01*
X124492162Y-121548919D01*
X124553454Y-121610211D01*
X124553458Y-121610214D01*
X124668182Y-121686871D01*
X124668195Y-121686878D01*
X124758495Y-121724281D01*
X124795672Y-121739680D01*
X124795676Y-121739680D01*
X124795677Y-121739681D01*
X124931004Y-121766600D01*
X124931007Y-121766600D01*
X125068995Y-121766600D01*
X125164798Y-121747543D01*
X125204328Y-121739680D01*
X125331811Y-121686875D01*
X125446542Y-121610214D01*
X125463490Y-121593266D01*
X125507838Y-121548919D01*
X125569161Y-121515434D01*
X125595519Y-121512600D01*
X129213072Y-121512600D01*
X129213074Y-121512600D01*
X129213075Y-121512600D01*
X129353085Y-121475084D01*
X129378553Y-121460380D01*
X129405520Y-121444810D01*
X129467515Y-121428200D01*
X138679813Y-121428200D01*
X138746852Y-121447885D01*
X138767494Y-121464519D01*
X147867165Y-130564190D01*
X156438123Y-139135147D01*
X156471608Y-139196470D01*
X156466624Y-139266162D01*
X156424752Y-139322095D01*
X156359288Y-139346512D01*
X156291015Y-139331660D01*
X156288443Y-139330216D01*
X156249484Y-139307723D01*
X156247092Y-139307082D01*
X156096757Y-139266800D01*
X155938643Y-139266800D01*
X155785916Y-139307723D01*
X155785909Y-139307726D01*
X155648990Y-139386775D01*
X155648982Y-139386781D01*
X155537181Y-139498582D01*
X155537175Y-139498590D01*
X155458126Y-139635509D01*
X155458123Y-139635516D01*
X155417200Y-139788243D01*
X155417200Y-139946356D01*
X155458123Y-140099083D01*
X155458126Y-140099090D01*
X155537175Y-140236009D01*
X155537179Y-140236014D01*
X155537180Y-140236016D01*
X155648984Y-140347820D01*
X155648986Y-140347821D01*
X155648990Y-140347824D01*
X155754231Y-140408584D01*
X155785916Y-140426877D01*
X155938643Y-140467800D01*
X155965090Y-140467800D01*
X156032129Y-140487485D01*
X156052771Y-140504119D01*
X167251937Y-151703285D01*
X167348963Y-151759303D01*
X167457182Y-151788300D01*
X167569218Y-151788300D01*
X194193702Y-151788300D01*
X194260741Y-151807985D01*
X194281383Y-151824619D01*
X194300084Y-151843320D01*
X194300086Y-151843321D01*
X194300090Y-151843324D01*
X194437009Y-151922373D01*
X194437016Y-151922377D01*
X194589743Y-151963300D01*
X194589745Y-151963300D01*
X194747855Y-151963300D01*
X194747857Y-151963300D01*
X194900584Y-151922377D01*
X195037516Y-151843320D01*
X195149320Y-151731516D01*
X195228377Y-151594584D01*
X195269300Y-151441857D01*
X195269300Y-151283743D01*
X195228377Y-151131016D01*
X195196026Y-151074982D01*
X195149324Y-150994090D01*
X195149318Y-150994082D01*
X195037517Y-150882281D01*
X195037509Y-150882275D01*
X194900590Y-150803226D01*
X194900586Y-150803224D01*
X194900584Y-150803223D01*
X194747857Y-150762300D01*
X194589743Y-150762300D01*
X194437016Y-150803223D01*
X194437009Y-150803226D01*
X194300090Y-150882275D01*
X194300082Y-150882281D01*
X194281383Y-150900981D01*
X194220060Y-150934466D01*
X194193702Y-150937300D01*
X167740810Y-150937300D01*
X167673771Y-150917615D01*
X167653129Y-150900981D01*
X156654519Y-139902371D01*
X156621034Y-139841048D01*
X156618200Y-139814690D01*
X156618200Y-139788245D01*
X156618200Y-139788243D01*
X156577277Y-139635516D01*
X156554783Y-139596556D01*
X156538311Y-139528657D01*
X156561164Y-139462630D01*
X156616085Y-139419439D01*
X156685638Y-139412798D01*
X156747741Y-139444814D01*
X156749852Y-139446876D01*
X157066044Y-139763068D01*
X157099529Y-139824391D01*
X157099980Y-139826557D01*
X157117318Y-139913722D01*
X157117321Y-139913732D01*
X157170121Y-140041204D01*
X157170128Y-140041217D01*
X157222563Y-140119691D01*
X157222565Y-140119693D01*
X157246786Y-140155942D01*
X157344358Y-140253514D01*
X157380606Y-140277734D01*
X157380607Y-140277735D01*
X157459082Y-140330171D01*
X157459095Y-140330178D01*
X157566251Y-140374563D01*
X157586572Y-140382980D01*
X157673742Y-140400319D01*
X157735649Y-140432702D01*
X157737229Y-140434254D01*
X166964686Y-149661710D01*
X166964688Y-149661711D01*
X166964692Y-149661714D01*
X167032812Y-149701043D01*
X167032813Y-149701043D01*
X167090215Y-149734184D01*
X167230225Y-149771700D01*
X167230226Y-149771700D01*
X167230228Y-149771700D01*
X193129872Y-149771700D01*
X193129874Y-149771700D01*
X193129875Y-149771700D01*
X193269885Y-149734184D01*
X193287384Y-149724081D01*
X193395415Y-149661710D01*
X198722510Y-144334615D01*
X198794984Y-144209085D01*
X198832500Y-144069075D01*
X198832500Y-143586999D01*
X198852185Y-143519960D01*
X198853398Y-143518108D01*
X198902775Y-143444211D01*
X198955580Y-143316728D01*
X198982500Y-143181393D01*
X198982500Y-143043407D01*
X198982500Y-143043404D01*
X198955581Y-142908077D01*
X198955580Y-142908076D01*
X198955580Y-142908072D01*
X198952444Y-142900500D01*
X198902778Y-142780595D01*
X198902771Y-142780582D01*
X198826114Y-142665858D01*
X198826111Y-142665854D01*
X198728545Y-142568288D01*
X198728541Y-142568285D01*
X198613817Y-142491628D01*
X198613804Y-142491621D01*
X198486332Y-142438821D01*
X198486322Y-142438818D01*
X198350995Y-142411900D01*
X198350993Y-142411900D01*
X198213007Y-142411900D01*
X198213005Y-142411900D01*
X198077677Y-142438818D01*
X198077667Y-142438821D01*
X197950195Y-142491621D01*
X197950182Y-142491628D01*
X197835458Y-142568285D01*
X197835454Y-142568288D01*
X197737888Y-142665854D01*
X197737885Y-142665858D01*
X197661228Y-142780582D01*
X197661221Y-142780595D01*
X197608421Y-142908067D01*
X197608418Y-142908077D01*
X197581500Y-143043404D01*
X197581500Y-143043407D01*
X197581500Y-143181393D01*
X197581500Y-143181395D01*
X197581499Y-143181395D01*
X197608418Y-143316722D01*
X197608421Y-143316732D01*
X197661222Y-143444206D01*
X197661223Y-143444207D01*
X197661225Y-143444211D01*
X197710602Y-143518108D01*
X197716252Y-143536154D01*
X197726477Y-143552064D01*
X197730928Y-143583023D01*
X197731480Y-143584785D01*
X197731500Y-143586999D01*
X197731500Y-143717212D01*
X197711815Y-143784251D01*
X197695181Y-143804893D01*
X193456034Y-148044039D01*
X193394711Y-148077524D01*
X193325019Y-148072540D01*
X193278761Y-148038336D01*
X193277367Y-148039731D01*
X193159817Y-147922181D01*
X193159809Y-147922175D01*
X193022890Y-147843126D01*
X193022886Y-147843124D01*
X193022884Y-147843123D01*
X192870157Y-147802200D01*
X192870156Y-147802200D01*
X192843709Y-147802200D01*
X192776670Y-147782515D01*
X192756028Y-147765881D01*
X168649665Y-123659517D01*
X168649664Y-123659516D01*
X168649663Y-123659515D01*
X168560542Y-123608061D01*
X168552639Y-123603498D01*
X168552638Y-123603497D01*
X168552637Y-123603497D01*
X168444418Y-123574500D01*
X168444417Y-123574500D01*
X165274499Y-123574500D01*
X165207460Y-123554815D01*
X165161705Y-123502011D01*
X165150499Y-123450500D01*
X165150499Y-123105143D01*
X165150499Y-123105136D01*
X165150497Y-123105117D01*
X165147586Y-123080012D01*
X165147585Y-123080010D01*
X165147585Y-123080009D01*
X165102206Y-122977235D01*
X165022765Y-122897794D01*
X165005587Y-122890209D01*
X164919992Y-122852415D01*
X164894865Y-122849500D01*
X163105143Y-122849500D01*
X163105117Y-122849502D01*
X163080012Y-122852413D01*
X163080008Y-122852415D01*
X162977235Y-122897793D01*
X162897794Y-122977234D01*
X162852415Y-123080006D01*
X162852415Y-123080008D01*
X162849500Y-123105131D01*
X162849500Y-123460000D01*
X162841667Y-123486673D01*
X162837080Y-123514091D01*
X162831960Y-123519731D01*
X162829815Y-123527039D01*
X162808810Y-123545239D01*
X162790124Y-123565829D01*
X162780079Y-123570135D01*
X162777011Y-123572794D01*
X162757691Y-123579749D01*
X162757280Y-123579859D01*
X162669063Y-123603497D01*
X162668814Y-123603640D01*
X162660733Y-123605813D01*
X162633463Y-123605186D01*
X162606345Y-123608061D01*
X162599047Y-123604394D01*
X162590881Y-123604207D01*
X162568280Y-123588936D01*
X162543912Y-123576694D01*
X162537440Y-123568100D01*
X162532987Y-123565091D01*
X162530087Y-123558335D01*
X162518058Y-123542361D01*
X162443996Y-123397006D01*
X162405093Y-123343460D01*
X162337558Y-123250505D01*
X162337554Y-123250500D01*
X162209499Y-123122445D01*
X162209494Y-123122441D01*
X162062997Y-123016006D01*
X162062996Y-123016005D01*
X162062994Y-123016004D01*
X161986906Y-122977235D01*
X161901639Y-122933788D01*
X161901633Y-122933786D01*
X161767513Y-122890209D01*
X161709837Y-122850772D01*
X161682638Y-122786414D01*
X161694552Y-122717567D01*
X161718146Y-122684600D01*
X163707629Y-120695119D01*
X163768952Y-120661634D01*
X163795310Y-120658800D01*
X182725402Y-120658800D01*
X182792441Y-120678485D01*
X182813083Y-120695119D01*
X182831784Y-120713820D01*
X182831786Y-120713821D01*
X182831790Y-120713824D01*
X182968709Y-120792873D01*
X182968716Y-120792877D01*
X183121443Y-120833800D01*
X183121445Y-120833800D01*
X183279555Y-120833800D01*
X183279557Y-120833800D01*
X183432284Y-120792877D01*
X183569216Y-120713820D01*
X183681020Y-120602016D01*
X183760077Y-120465084D01*
X183801000Y-120312357D01*
X183801000Y-120154243D01*
X183760077Y-120001516D01*
X183760073Y-120001509D01*
X183681024Y-119864590D01*
X183681018Y-119864582D01*
X183569217Y-119752781D01*
X183569209Y-119752775D01*
X183432290Y-119673726D01*
X183432286Y-119673724D01*
X183432284Y-119673723D01*
X183279557Y-119632800D01*
X183121443Y-119632800D01*
X182968716Y-119673723D01*
X182968709Y-119673726D01*
X182831790Y-119752775D01*
X182831782Y-119752781D01*
X182813083Y-119771481D01*
X182751760Y-119804966D01*
X182725402Y-119807800D01*
X163511682Y-119807800D01*
X163403463Y-119836797D01*
X163403460Y-119836798D01*
X163306440Y-119892813D01*
X163306434Y-119892817D01*
X159952817Y-123246434D01*
X159952813Y-123246440D01*
X159896798Y-123343460D01*
X159896797Y-123343463D01*
X159867800Y-123451682D01*
X159867800Y-124093289D01*
X159848115Y-124160328D01*
X159831481Y-124180970D01*
X159190354Y-124822096D01*
X159129031Y-124855581D01*
X159070581Y-124854190D01*
X159010158Y-124838000D01*
X159010157Y-124838000D01*
X158852043Y-124838000D01*
X158699316Y-124878923D01*
X158699309Y-124878926D01*
X158562390Y-124957975D01*
X158562382Y-124957981D01*
X158450581Y-125069782D01*
X158450575Y-125069790D01*
X158371526Y-125206709D01*
X158371523Y-125206716D01*
X158330600Y-125359443D01*
X158330600Y-125517557D01*
X158355383Y-125610046D01*
X158371523Y-125670283D01*
X158371524Y-125670286D01*
X158398597Y-125717178D01*
X158415070Y-125785079D01*
X158392217Y-125851105D01*
X158378891Y-125866859D01*
X155895637Y-128350115D01*
X155816417Y-128429334D01*
X155816413Y-128429340D01*
X155760398Y-128526360D01*
X155760397Y-128526363D01*
X155731400Y-128634582D01*
X155731400Y-130457802D01*
X155711715Y-130524841D01*
X155695081Y-130545483D01*
X155676381Y-130564182D01*
X155676375Y-130564190D01*
X155597326Y-130701109D01*
X155597323Y-130701116D01*
X155556400Y-130853843D01*
X155556400Y-131011957D01*
X155575110Y-131081781D01*
X155597323Y-131164683D01*
X155597326Y-131164690D01*
X155676375Y-131301609D01*
X155676379Y-131301614D01*
X155676380Y-131301616D01*
X155788184Y-131413420D01*
X155788186Y-131413421D01*
X155788190Y-131413424D01*
X155909122Y-131483243D01*
X155925116Y-131492477D01*
X156077843Y-131533400D01*
X156077845Y-131533400D01*
X156235955Y-131533400D01*
X156235957Y-131533400D01*
X156388684Y-131492477D01*
X156525616Y-131413420D01*
X156637420Y-131301616D01*
X156716477Y-131164684D01*
X156757400Y-131011957D01*
X156757400Y-130853843D01*
X156716477Y-130701116D01*
X156716473Y-130701109D01*
X156637424Y-130564190D01*
X156637418Y-130564182D01*
X156618719Y-130545483D01*
X156585234Y-130484160D01*
X156582400Y-130457802D01*
X156582400Y-129317109D01*
X156602085Y-129250070D01*
X156654889Y-129204315D01*
X156724047Y-129194371D01*
X156768398Y-129209721D01*
X156812316Y-129235077D01*
X156965043Y-129276000D01*
X156965045Y-129276000D01*
X157123155Y-129276000D01*
X157123157Y-129276000D01*
X157275884Y-129235077D01*
X157412816Y-129156020D01*
X157431517Y-129137319D01*
X157492840Y-129103834D01*
X157519198Y-129101000D01*
X158505516Y-129101000D01*
X158505518Y-129101000D01*
X158613737Y-129072003D01*
X158710763Y-129015985D01*
X162713414Y-125013332D01*
X162774735Y-124979849D01*
X162844427Y-124984833D01*
X162887346Y-125016962D01*
X162889669Y-125014640D01*
X162897794Y-125022765D01*
X162977235Y-125102206D01*
X163080009Y-125147585D01*
X163105135Y-125150500D01*
X164894864Y-125150499D01*
X164894879Y-125150497D01*
X164894882Y-125150497D01*
X164919987Y-125147586D01*
X164919988Y-125147585D01*
X164919991Y-125147585D01*
X165022765Y-125102206D01*
X165102206Y-125022765D01*
X165147585Y-124919991D01*
X165150500Y-124894865D01*
X165150500Y-124549500D01*
X165170185Y-124482461D01*
X165222989Y-124436706D01*
X165274500Y-124425500D01*
X168160790Y-124425500D01*
X168227829Y-124445185D01*
X168248471Y-124461819D01*
X192154281Y-148367628D01*
X192187766Y-148428951D01*
X192189359Y-148437811D01*
X192190600Y-148446517D01*
X192190600Y-148481757D01*
X192201332Y-148521811D01*
X192202386Y-148529202D01*
X192198400Y-148556688D01*
X192197739Y-148584458D01*
X192193455Y-148590786D01*
X192192359Y-148598348D01*
X192174143Y-148619318D01*
X192158575Y-148642320D01*
X192151551Y-148645327D01*
X192146540Y-148651097D01*
X192119877Y-148658890D01*
X192094347Y-148669823D01*
X192079627Y-148670700D01*
X167582086Y-148670700D01*
X167515047Y-148651015D01*
X167494405Y-148634381D01*
X158515754Y-139655729D01*
X158482269Y-139594406D01*
X158481846Y-139592378D01*
X158464480Y-139505072D01*
X158446900Y-139462630D01*
X158411678Y-139377595D01*
X158411671Y-139377582D01*
X158335014Y-139262858D01*
X158335011Y-139262854D01*
X158237445Y-139165288D01*
X158237441Y-139165285D01*
X158122717Y-139088628D01*
X158122704Y-139088621D01*
X157995232Y-139035821D01*
X157995222Y-139035818D01*
X157908057Y-139018480D01*
X157846146Y-138986095D01*
X157844568Y-138984544D01*
X139297216Y-120437191D01*
X139297215Y-120437190D01*
X139171685Y-120364716D01*
X139171686Y-120364716D01*
X139136682Y-120355337D01*
X139031675Y-120327200D01*
X139031672Y-120327200D01*
X129899500Y-120327200D01*
X129832461Y-120307515D01*
X129786706Y-120254711D01*
X129775500Y-120203200D01*
X129775500Y-119122699D01*
X129795185Y-119055660D01*
X129796398Y-119053808D01*
X129845775Y-118979911D01*
X129898580Y-118852428D01*
X129925500Y-118717093D01*
X129925500Y-118579107D01*
X129925500Y-118579104D01*
X129898581Y-118443777D01*
X129898580Y-118443776D01*
X129898580Y-118443772D01*
X129898578Y-118443767D01*
X129845778Y-118316295D01*
X129845771Y-118316282D01*
X129769114Y-118201558D01*
X129769111Y-118201554D01*
X129671545Y-118103988D01*
X129671541Y-118103985D01*
X129556817Y-118027328D01*
X129556804Y-118027321D01*
X129429332Y-117974521D01*
X129429322Y-117974518D01*
X129293995Y-117947600D01*
X129293993Y-117947600D01*
X129156007Y-117947600D01*
X129156005Y-117947600D01*
X129020677Y-117974518D01*
X129020667Y-117974521D01*
X128893195Y-118027321D01*
X128893182Y-118027328D01*
X128778458Y-118103985D01*
X128778454Y-118103988D01*
X128680888Y-118201554D01*
X128680885Y-118201558D01*
X128604228Y-118316282D01*
X128604221Y-118316295D01*
X128551421Y-118443767D01*
X128551418Y-118443777D01*
X128524500Y-118579104D01*
X128524500Y-118579107D01*
X128524500Y-118717093D01*
X128524500Y-118717095D01*
X128524499Y-118717095D01*
X128551418Y-118852422D01*
X128551421Y-118852432D01*
X128604222Y-118979906D01*
X128604223Y-118979907D01*
X128604225Y-118979911D01*
X128653602Y-119053808D01*
X128674480Y-119120485D01*
X128674500Y-119122699D01*
X128674500Y-120287600D01*
X128654815Y-120354639D01*
X128602011Y-120400394D01*
X128550500Y-120411600D01*
X125275056Y-120411600D01*
X125227603Y-120402161D01*
X125204328Y-120392520D01*
X125204322Y-120392518D01*
X125068995Y-120365600D01*
X125068993Y-120365600D01*
X124931007Y-120365600D01*
X124931005Y-120365600D01*
X124795677Y-120392518D01*
X124795671Y-120392520D01*
X124772397Y-120402161D01*
X124724944Y-120411600D01*
X118789321Y-120411600D01*
X118722282Y-120391915D01*
X118676527Y-120339111D01*
X118666583Y-120269953D01*
X118695608Y-120206397D01*
X118701640Y-120199919D01*
X122289016Y-116612543D01*
X125902600Y-116612543D01*
X125902600Y-116770656D01*
X125943523Y-116923383D01*
X125943526Y-116923390D01*
X126022575Y-117060309D01*
X126022579Y-117060314D01*
X126022580Y-117060316D01*
X126134384Y-117172120D01*
X126134386Y-117172121D01*
X126134390Y-117172124D01*
X126271309Y-117251173D01*
X126271316Y-117251177D01*
X126424043Y-117292100D01*
X126424045Y-117292100D01*
X126582155Y-117292100D01*
X126582157Y-117292100D01*
X126734884Y-117251177D01*
X126871816Y-117172120D01*
X126983620Y-117060316D01*
X127062677Y-116923384D01*
X127097599Y-116793049D01*
X127129690Y-116737467D01*
X130863254Y-113003902D01*
X130863259Y-113003899D01*
X130873462Y-112993695D01*
X130873464Y-112993695D01*
X130961995Y-112905164D01*
X131024595Y-112796736D01*
X131057001Y-112675801D01*
X131057001Y-112550599D01*
X131057001Y-112543004D01*
X131057000Y-112542986D01*
X131057000Y-111231436D01*
X131073613Y-111169436D01*
X131141077Y-111052584D01*
X131182000Y-110899857D01*
X131182000Y-110741743D01*
X131141077Y-110589016D01*
X131092012Y-110504032D01*
X131062024Y-110452090D01*
X131062018Y-110452082D01*
X130950217Y-110340281D01*
X130950209Y-110340275D01*
X130813290Y-110261226D01*
X130813286Y-110261224D01*
X130813284Y-110261223D01*
X130660557Y-110220300D01*
X130502443Y-110220300D01*
X130349716Y-110261223D01*
X130349709Y-110261226D01*
X130212790Y-110340275D01*
X130212782Y-110340281D01*
X130100981Y-110452082D01*
X130100975Y-110452090D01*
X130021926Y-110589009D01*
X130021923Y-110589016D01*
X129981000Y-110741743D01*
X129981000Y-110899856D01*
X130021923Y-111052583D01*
X130021924Y-111052586D01*
X130089387Y-111169436D01*
X130106000Y-111231436D01*
X130106000Y-112364879D01*
X130086315Y-112431918D01*
X130069681Y-112452560D01*
X126457233Y-116065007D01*
X126401646Y-116097101D01*
X126271314Y-116132023D01*
X126271309Y-116132026D01*
X126134390Y-116211075D01*
X126134382Y-116211081D01*
X126022581Y-116322882D01*
X126022575Y-116322890D01*
X125943526Y-116459809D01*
X125943523Y-116459816D01*
X125902600Y-116612543D01*
X122289016Y-116612543D01*
X122384824Y-116516735D01*
X132312539Y-106589019D01*
X132373862Y-106555534D01*
X132400220Y-106552700D01*
X133114363Y-106552700D01*
X133176362Y-106569312D01*
X133293216Y-106636777D01*
X133445943Y-106677700D01*
X133445945Y-106677700D01*
X133604055Y-106677700D01*
X133604057Y-106677700D01*
X133756784Y-106636777D01*
X133893716Y-106557720D01*
X134005520Y-106445916D01*
X134084577Y-106308984D01*
X134125500Y-106156257D01*
X134125500Y-105998143D01*
X134125500Y-105990016D01*
X134128955Y-105990016D01*
X134137673Y-105936417D01*
X134184394Y-105884466D01*
X134249498Y-105866000D01*
X170453079Y-105866000D01*
X170520118Y-105885685D01*
X170540760Y-105902319D01*
X186510907Y-121872465D01*
X186543000Y-121928051D01*
X186549876Y-121953711D01*
X186577923Y-122058385D01*
X186577926Y-122058390D01*
X186656975Y-122195309D01*
X186656979Y-122195314D01*
X186656980Y-122195316D01*
X186768784Y-122307120D01*
X186768786Y-122307121D01*
X186768790Y-122307124D01*
X186905709Y-122386173D01*
X186905716Y-122386177D01*
X187058443Y-122427100D01*
X187058445Y-122427100D01*
X187216555Y-122427100D01*
X187216557Y-122427100D01*
X187369284Y-122386177D01*
X187506216Y-122307120D01*
X187618020Y-122195316D01*
X187697077Y-122058384D01*
X187738000Y-121905657D01*
X187738000Y-121747543D01*
X187697077Y-121594816D01*
X187670579Y-121548919D01*
X187618024Y-121457890D01*
X187618018Y-121457882D01*
X187506217Y-121346081D01*
X187506209Y-121346075D01*
X187369290Y-121267026D01*
X187369285Y-121267023D01*
X187306584Y-121250222D01*
X187238951Y-121232100D01*
X187183365Y-121200007D01*
X170993365Y-105010006D01*
X170993364Y-105010005D01*
X170884936Y-104947405D01*
X170884937Y-104947405D01*
X170844624Y-104936603D01*
X170764001Y-104915000D01*
X118359101Y-104915000D01*
X118233899Y-104915000D01*
X118173431Y-104931202D01*
X118112962Y-104947405D01*
X118105454Y-104950516D01*
X118104561Y-104948361D01*
X118055152Y-104961600D01*
X118045843Y-104961600D01*
X117893116Y-105002523D01*
X117893109Y-105002526D01*
X117756190Y-105081575D01*
X117756182Y-105081581D01*
X117644381Y-105193382D01*
X117644375Y-105193390D01*
X117565326Y-105330309D01*
X117565323Y-105330316D01*
X117524400Y-105483043D01*
X117524400Y-105641156D01*
X117565323Y-105793883D01*
X117565326Y-105793890D01*
X117644375Y-105930809D01*
X117644379Y-105930814D01*
X117644380Y-105930816D01*
X117756184Y-106042620D01*
X117756186Y-106042621D01*
X117756190Y-106042624D01*
X117893109Y-106121673D01*
X117893116Y-106121677D01*
X118045843Y-106162600D01*
X118045845Y-106162600D01*
X118203955Y-106162600D01*
X118203957Y-106162600D01*
X118356684Y-106121677D01*
X118493616Y-106042620D01*
X118605420Y-105930816D01*
X118607045Y-105928002D01*
X118609035Y-105926103D01*
X118610370Y-105924365D01*
X118610641Y-105924572D01*
X118657611Y-105879785D01*
X118714433Y-105866000D01*
X131391280Y-105866000D01*
X131458319Y-105885685D01*
X131504074Y-105938489D01*
X131514018Y-106007647D01*
X131484993Y-106071203D01*
X131478961Y-106077680D01*
X116763767Y-120792873D01*
X111946595Y-125610045D01*
X111946594Y-125610045D01*
X111946595Y-125610046D01*
X111875503Y-125681137D01*
X111812905Y-125789563D01*
X111780500Y-125910500D01*
X111780500Y-137440863D01*
X111763888Y-137502862D01*
X111696423Y-137619715D01*
X111696423Y-137619716D01*
X111655500Y-137772443D01*
X111655500Y-137938684D01*
X111652045Y-137938684D01*
X111643327Y-137992283D01*
X111596606Y-138044234D01*
X111531502Y-138062700D01*
X109583610Y-138062700D01*
X109516571Y-138043015D01*
X109495929Y-138026381D01*
X108115619Y-136646071D01*
X108082134Y-136584748D01*
X108079300Y-136558390D01*
X108079300Y-136531945D01*
X108079300Y-136531943D01*
X108038377Y-136379216D01*
X107973180Y-136266290D01*
X107959324Y-136242290D01*
X107959318Y-136242282D01*
X107847517Y-136130481D01*
X107847509Y-136130475D01*
X107710590Y-136051426D01*
X107710586Y-136051424D01*
X107710584Y-136051423D01*
X107557857Y-136010500D01*
X107399743Y-136010500D01*
X107247016Y-136051423D01*
X107247009Y-136051426D01*
X107110090Y-136130475D01*
X107110082Y-136130481D01*
X106998281Y-136242282D01*
X106998275Y-136242290D01*
X106919226Y-136379209D01*
X106919223Y-136379216D01*
X106878300Y-136531943D01*
X89895822Y-136531943D01*
X90039125Y-135886542D01*
X90039822Y-135883585D01*
X90416934Y-134368163D01*
X90417728Y-134365137D01*
X90480980Y-134135966D01*
X90833229Y-132859710D01*
X90834060Y-132856846D01*
X91287653Y-131362500D01*
X91288601Y-131359517D01*
X91298215Y-131330516D01*
X91780003Y-129877175D01*
X91780979Y-129874349D01*
X92309877Y-128404960D01*
X92310975Y-128402028D01*
X92331165Y-128350115D01*
X92877004Y-126946597D01*
X92878177Y-126943693D01*
X93031152Y-126578119D01*
X93480998Y-125503091D01*
X93482216Y-125500281D01*
X94121456Y-124075409D01*
X94122705Y-124072715D01*
X94797965Y-122664463D01*
X94799293Y-122661781D01*
X95510102Y-121271142D01*
X95511479Y-121268532D01*
X96257368Y-119896417D01*
X96258872Y-119893733D01*
X97039303Y-118541126D01*
X97040889Y-118538457D01*
X97201703Y-118275412D01*
X97855464Y-117206045D01*
X97857075Y-117203483D01*
X98705251Y-115892158D01*
X98706959Y-115889591D01*
X99588129Y-114600290D01*
X99589889Y-114597785D01*
X100503538Y-113331261D01*
X100505344Y-113328823D01*
X100697286Y-113076511D01*
X107276500Y-113076511D01*
X107276500Y-113319088D01*
X107308161Y-113559585D01*
X107370947Y-113793904D01*
X107463773Y-114018005D01*
X107463776Y-114018012D01*
X107585064Y-114228089D01*
X107585066Y-114228092D01*
X107585067Y-114228093D01*
X107732733Y-114420536D01*
X107732739Y-114420543D01*
X107904256Y-114592060D01*
X107904263Y-114592066D01*
X107915028Y-114600326D01*
X108096711Y-114739736D01*
X108306788Y-114861024D01*
X108530900Y-114953854D01*
X108765211Y-115016638D01*
X108945586Y-115040384D01*
X109005711Y-115048300D01*
X109005712Y-115048300D01*
X109248289Y-115048300D01*
X109296388Y-115041967D01*
X109488789Y-115016638D01*
X109723100Y-114953854D01*
X109947212Y-114861024D01*
X110157289Y-114739736D01*
X110349738Y-114592065D01*
X110521265Y-114420538D01*
X110668936Y-114228089D01*
X110790224Y-114018012D01*
X110883054Y-113793900D01*
X110945838Y-113559589D01*
X110977500Y-113319088D01*
X110977500Y-113076512D01*
X110945838Y-112836011D01*
X110883054Y-112601700D01*
X110790224Y-112377588D01*
X110668936Y-112167511D01*
X110521265Y-111975062D01*
X110521260Y-111975056D01*
X110349743Y-111803539D01*
X110349736Y-111803533D01*
X110157293Y-111655867D01*
X110157292Y-111655866D01*
X110157289Y-111655864D01*
X109947212Y-111534576D01*
X109947205Y-111534573D01*
X109723104Y-111441747D01*
X109488785Y-111378961D01*
X109248289Y-111347300D01*
X109248288Y-111347300D01*
X109005712Y-111347300D01*
X109005711Y-111347300D01*
X108765214Y-111378961D01*
X108530895Y-111441747D01*
X108306794Y-111534573D01*
X108306785Y-111534577D01*
X108096706Y-111655867D01*
X107904263Y-111803533D01*
X107904256Y-111803539D01*
X107732739Y-111975056D01*
X107732733Y-111975063D01*
X107585067Y-112167506D01*
X107463777Y-112377585D01*
X107463773Y-112377594D01*
X107370947Y-112601695D01*
X107308161Y-112836014D01*
X107276500Y-113076511D01*
X100697286Y-113076511D01*
X101450887Y-112085889D01*
X101452750Y-112083504D01*
X102429566Y-110864976D01*
X102431490Y-110862638D01*
X103438927Y-109669334D01*
X103440902Y-109667053D01*
X104478338Y-108499705D01*
X104480374Y-108497472D01*
X105547132Y-107356845D01*
X105549241Y-107354646D01*
X106644594Y-106241516D01*
X106646765Y-106239366D01*
X107770056Y-105154398D01*
X107772237Y-105152345D01*
X108922735Y-104096248D01*
X108924997Y-104094224D01*
X110101928Y-103067709D01*
X110104254Y-103065731D01*
X111306856Y-102069459D01*
X111309230Y-102067542D01*
X112536751Y-101102136D01*
X112539245Y-101100227D01*
X113790843Y-100166347D01*
X113793307Y-100164556D01*
X115068353Y-99262674D01*
X115070796Y-99260992D01*
X116368291Y-98391820D01*
X116370830Y-98390165D01*
X117689979Y-97554231D01*
X117692588Y-97552624D01*
X119032502Y-96750491D01*
X119035157Y-96748947D01*
X120395045Y-95981089D01*
X120397702Y-95979633D01*
X121776615Y-95246584D01*
X121779382Y-95245158D01*
X123176477Y-94547365D01*
X123179282Y-94546009D01*
X124593560Y-93883970D01*
X124596388Y-93882689D01*
X126027188Y-93256714D01*
X126029991Y-93255531D01*
X127476162Y-92666128D01*
X127478973Y-92665023D01*
X128939692Y-92112527D01*
X128942543Y-92111489D01*
X130416837Y-91596268D01*
X130419694Y-91595310D01*
X131906546Y-91117719D01*
X131909528Y-91116803D01*
X133408011Y-90677138D01*
X133410912Y-90676326D01*
X134920167Y-90274839D01*
X134923092Y-90274101D01*
X136442025Y-89911087D01*
X136444999Y-89910416D01*
X137972664Y-89586100D01*
X137975617Y-89585512D01*
X138710431Y-89448921D01*
X138779938Y-89456023D01*
X138834573Y-89499575D01*
X138856988Y-89565752D01*
X138853905Y-89598763D01*
X138817960Y-89754241D01*
X138706580Y-90406224D01*
X138706580Y-90406225D01*
X138633185Y-91063532D01*
X138633184Y-91063545D01*
X138633184Y-91063548D01*
X138598014Y-91724026D01*
X138601190Y-92385433D01*
X138618770Y-92665000D01*
X138642699Y-93045545D01*
X138642700Y-93045555D01*
X138722400Y-93702113D01*
X138722405Y-93702146D01*
X138840034Y-94352998D01*
X138995196Y-94995953D01*
X138995198Y-94995961D01*
X139187373Y-95628849D01*
X139269798Y-95852704D01*
X139317080Y-95981118D01*
X139415911Y-96249529D01*
X139415912Y-96249532D01*
X139680034Y-96855897D01*
X139680035Y-96855900D01*
X139680038Y-96855907D01*
X139680039Y-96855908D01*
X139978876Y-97445963D01*
X139978882Y-97445973D01*
X140311412Y-98017698D01*
X140311419Y-98017710D01*
X140676534Y-98569202D01*
X140676554Y-98569230D01*
X140880284Y-98841267D01*
X141073014Y-99098616D01*
X141499512Y-99604153D01*
X141499519Y-99604160D01*
X141954592Y-100084110D01*
X141954601Y-100084119D01*
X142034956Y-100159579D01*
X142436742Y-100536893D01*
X142436754Y-100536903D01*
X142827966Y-100863750D01*
X142944320Y-100960960D01*
X143134737Y-101102142D01*
X143475628Y-101354891D01*
X144028856Y-101717348D01*
X144028869Y-101717356D01*
X144028877Y-101717361D01*
X144028893Y-101717370D01*
X144028901Y-101717375D01*
X144539992Y-102011364D01*
X144602207Y-102047151D01*
X145193690Y-102343152D01*
X145801336Y-102604369D01*
X146423104Y-102829923D01*
X147056900Y-103019055D01*
X147700594Y-103171130D01*
X148352021Y-103285636D01*
X149008990Y-103362188D01*
X149601309Y-103396580D01*
X149669274Y-103400527D01*
X149669282Y-103400528D01*
X149669292Y-103400528D01*
X150330717Y-103400528D01*
X150330724Y-103400527D01*
X150991009Y-103362188D01*
X151647978Y-103285636D01*
X152299405Y-103171130D01*
X152943099Y-103019055D01*
X153576895Y-102829923D01*
X154198663Y-102604369D01*
X154806309Y-102343152D01*
X155397792Y-102047151D01*
X155971122Y-101717361D01*
X156524371Y-101354891D01*
X157055679Y-100960960D01*
X157563257Y-100536893D01*
X158045400Y-100084117D01*
X158500487Y-99604153D01*
X158926985Y-99098616D01*
X159323462Y-98569206D01*
X159688584Y-98017703D01*
X160021123Y-97445963D01*
X160319960Y-96855908D01*
X160584091Y-96249522D01*
X160812627Y-95628845D01*
X161004800Y-94995964D01*
X161159963Y-94353007D01*
X161277595Y-93702137D01*
X161357300Y-93045543D01*
X161398809Y-92385433D01*
X161401985Y-91724026D01*
X161366815Y-91063548D01*
X161323620Y-90676709D01*
X161293418Y-90406225D01*
X161293418Y-90406224D01*
X161268262Y-90258970D01*
X161182040Y-89754249D01*
X161146059Y-89598615D01*
X161150137Y-89528867D01*
X161191277Y-89472393D01*
X161256419Y-89447127D01*
X161289509Y-89448770D01*
G37*
%TD.AperFunction*%
%TD*%
M02*
