%TF.GenerationSoftware,KiCad,Pcbnew,9.0.9-9.0.9~ubuntu24.04.1*%
%TF.CreationDate,2026-10-07T20:14:34+00:00*%
%TF.ProjectId,eclipse-core,65636c69-7073-4652-9d63-6f72652e6b69,rev?*%
%TF.SameCoordinates,Original*%
%TF.FileFunction,Paste,Bot*%
%TF.FilePolarity,Positive*%
%FSLAX46Y46*%
G04 Gerber Fmt 4.6, Leading zero omitted, Abs format (unit mm)*
G04 Created by KiCad (PCBNEW 9.0.9-9.0.9~ubuntu24.04.1) date 2026-10-07 20:14:34*
%MOMM*%
%LPD*%
G01*
G04 APERTURE LIST*
G04 Aperture macros list*
%AMRoundRect*
0 Rectangle with rounded corners*
0 $1 Rounding radius*
0 $2 $3 $4 $5 $6 $7 $8 $9 X,Y pos of 4 corners*
0 Add a 4 corners polygon primitive as box body*
4,1,4,$2,$3,$4,$5,$6,$7,$8,$9,$2,$3,0*
0 Add four circle primitives for the rounded corners*
1,1,$1+$1,$2,$3*
1,1,$1+$1,$4,$5*
1,1,$1+$1,$6,$7*
1,1,$1+$1,$8,$9*
0 Add four rect primitives between the rounded corners*
20,1,$1+$1,$2,$3,$4,$5,0*
20,1,$1+$1,$4,$5,$6,$7,0*
20,1,$1+$1,$6,$7,$8,$9,0*
20,1,$1+$1,$8,$9,$2,$3,0*%
G04 Aperture macros list end*
%ADD10R,1.500000X3.600000*%
%ADD11RoundRect,0.250000X-1.000000X-0.650000X1.000000X-0.650000X1.000000X0.650000X-1.000000X0.650000X0*%
%ADD12RoundRect,0.225000X-0.225000X-0.250000X0.225000X-0.250000X0.225000X0.250000X-0.225000X0.250000X0*%
%ADD13RoundRect,0.225000X0.250000X-0.225000X0.250000X0.225000X-0.250000X0.225000X-0.250000X-0.225000X0*%
%ADD14RoundRect,0.200000X-0.275000X0.200000X-0.275000X-0.200000X0.275000X-0.200000X0.275000X0.200000X0*%
%ADD15RoundRect,0.250000X-0.325000X-0.650000X0.325000X-0.650000X0.325000X0.650000X-0.325000X0.650000X0*%
%ADD16RoundRect,0.200000X-0.200000X-0.275000X0.200000X-0.275000X0.200000X0.275000X-0.200000X0.275000X0*%
%ADD17RoundRect,0.250000X-0.250000X-0.475000X0.250000X-0.475000X0.250000X0.475000X-0.250000X0.475000X0*%
%ADD18RoundRect,0.250000X1.000000X0.650000X-1.000000X0.650000X-1.000000X-0.650000X1.000000X-0.650000X0*%
%ADD19RoundRect,0.200000X0.275000X-0.200000X0.275000X0.200000X-0.275000X0.200000X-0.275000X-0.200000X0*%
%ADD20RoundRect,0.250000X0.650000X-0.325000X0.650000X0.325000X-0.650000X0.325000X-0.650000X-0.325000X0*%
%ADD21RoundRect,0.250000X-1.080000X0.595000X-1.080000X-0.595000X1.080000X-0.595000X1.080000X0.595000X0*%
%ADD22RoundRect,0.150000X-0.150000X0.687500X-0.150000X-0.687500X0.150000X-0.687500X0.150000X0.687500X0*%
%ADD23RoundRect,0.250000X-0.312500X-1.450000X0.312500X-1.450000X0.312500X1.450000X-0.312500X1.450000X0*%
%ADD24RoundRect,0.150000X-0.875000X-0.150000X0.875000X-0.150000X0.875000X0.150000X-0.875000X0.150000X0*%
%ADD25RoundRect,0.250000X-0.262500X-0.450000X0.262500X-0.450000X0.262500X0.450000X-0.262500X0.450000X0*%
%ADD26RoundRect,0.250000X0.475000X-0.250000X0.475000X0.250000X-0.475000X0.250000X-0.475000X-0.250000X0*%
%ADD27RoundRect,0.150000X-0.512500X-0.150000X0.512500X-0.150000X0.512500X0.150000X-0.512500X0.150000X0*%
%ADD28RoundRect,0.200000X-0.035705X-0.338157X0.310705X-0.138157X0.035705X0.338157X-0.310705X0.138157X0*%
%ADD29R,1.450000X0.600000*%
%ADD30R,1.450000X0.300000*%
%ADD31RoundRect,0.200000X-0.310705X-0.138157X0.035705X-0.338157X0.310705X0.138157X-0.035705X0.338157X0*%
%ADD32RoundRect,0.375000X-0.625000X-0.375000X0.625000X-0.375000X0.625000X0.375000X-0.625000X0.375000X0*%
%ADD33RoundRect,0.500000X-0.500000X-1.400000X0.500000X-1.400000X0.500000X1.400000X-0.500000X1.400000X0*%
%ADD34RoundRect,0.250000X0.250000X1.500000X-0.250000X1.500000X-0.250000X-1.500000X0.250000X-1.500000X0*%
%ADD35RoundRect,0.250001X0.499999X1.449999X-0.499999X1.449999X-0.499999X-1.449999X0.499999X-1.449999X0*%
G04 APERTURE END LIST*
D10*
%TO.C,L4*%
X177675000Y-119500000D03*
X180725000Y-119500000D03*
%TD*%
D11*
%TO.C,D1*%
X198000000Y-137500000D03*
X202000000Y-137500000D03*
%TD*%
D12*
%TO.C,C20*%
X183225000Y-183600000D03*
X184775000Y-183600000D03*
%TD*%
D13*
%TO.C,C7*%
X141500000Y-134775000D03*
X141500000Y-133225000D03*
%TD*%
D14*
%TO.C,R2*%
X195500000Y-145675000D03*
X195500000Y-147325000D03*
%TD*%
D15*
%TO.C,C1*%
X192025000Y-138000000D03*
X194975000Y-138000000D03*
%TD*%
D10*
%TO.C,L1*%
X100675000Y-165500000D03*
X103725000Y-165500000D03*
%TD*%
D16*
%TO.C,R5*%
X158175000Y-143500000D03*
X159825000Y-143500000D03*
%TD*%
D13*
%TO.C,C6*%
X141500000Y-130775000D03*
X141500000Y-129225000D03*
%TD*%
D17*
%TO.C,C13*%
X178250000Y-124600000D03*
X180150000Y-124600000D03*
%TD*%
D18*
%TO.C,D4*%
X112500000Y-130400000D03*
X108500000Y-130400000D03*
%TD*%
D19*
%TO.C,R8*%
X151500000Y-151325000D03*
X151500000Y-149675000D03*
%TD*%
D20*
%TO.C,C14*%
X115600000Y-163275000D03*
X115600000Y-160325000D03*
%TD*%
D21*
%TO.C,U1*%
X202000000Y-150000000D03*
D22*
X200000000Y-147362500D03*
X201000000Y-147362500D03*
X202000000Y-147362500D03*
X203000000Y-147362500D03*
X204000000Y-147362500D03*
X204000000Y-152637500D03*
X203000000Y-152637500D03*
X202000000Y-152637500D03*
X201000000Y-152637500D03*
X200000000Y-152637500D03*
%TD*%
D18*
%TO.C,D3*%
X111500000Y-160400000D03*
X107500000Y-160400000D03*
%TD*%
D23*
%TO.C,F1*%
X205362500Y-141500000D03*
X209637500Y-141500000D03*
%TD*%
D15*
%TO.C,C2*%
X200525000Y-160000000D03*
X203475000Y-160000000D03*
%TD*%
D24*
%TO.C,U3*%
X145350000Y-141715000D03*
X145350000Y-140445000D03*
X145350000Y-139175000D03*
X145350000Y-137905000D03*
X145350000Y-136635000D03*
X145350000Y-135365000D03*
X145350000Y-134095000D03*
X145350000Y-132825000D03*
X145350000Y-131555000D03*
X145350000Y-130285000D03*
X154650000Y-130285000D03*
X154650000Y-131555000D03*
X154650000Y-132825000D03*
X154650000Y-134095000D03*
X154650000Y-135365000D03*
X154650000Y-136635000D03*
X154650000Y-137905000D03*
X154650000Y-139175000D03*
X154650000Y-140445000D03*
X154650000Y-141715000D03*
%TD*%
D16*
%TO.C,R12*%
X158175000Y-132000000D03*
X159825000Y-132000000D03*
%TD*%
%TO.C,R13*%
X158175000Y-134000000D03*
X159825000Y-134000000D03*
%TD*%
D14*
%TO.C,R3*%
X195500000Y-152675000D03*
X195500000Y-154325000D03*
%TD*%
D12*
%TO.C,C8*%
X158225000Y-145500000D03*
X159775000Y-145500000D03*
%TD*%
D16*
%TO.C,R6*%
X140175000Y-143000000D03*
X141825000Y-143000000D03*
%TD*%
D25*
%TO.C,R17*%
X188487500Y-123600000D03*
X190312500Y-123600000D03*
%TD*%
D26*
%TO.C,C4*%
X125000000Y-119950000D03*
X125000000Y-118050000D03*
%TD*%
D18*
%TO.C,D5*%
X188500000Y-174400000D03*
X184500000Y-174400000D03*
%TD*%
D27*
%TO.C,U6*%
X184862500Y-180950000D03*
X184862500Y-180000000D03*
X184862500Y-179050000D03*
X187137500Y-179050000D03*
X187137500Y-180000000D03*
X187137500Y-180950000D03*
%TD*%
D25*
%TO.C,R15*%
X112487500Y-139600000D03*
X114312500Y-139600000D03*
%TD*%
D12*
%TO.C,C9*%
X140225000Y-145000000D03*
X141775000Y-145000000D03*
%TD*%
D26*
%TO.C,C5*%
X143000000Y-119950000D03*
X143000000Y-118050000D03*
%TD*%
D16*
%TO.C,R11*%
X149175000Y-208500000D03*
X150825000Y-208500000D03*
%TD*%
D28*
%TO.C,R9*%
X170285529Y-165412500D03*
X171714471Y-164587500D03*
%TD*%
D27*
%TO.C,U7*%
X184862500Y-120950000D03*
X184862500Y-120000000D03*
X184862500Y-119050000D03*
X187137500Y-119050000D03*
X187137500Y-120000000D03*
X187137500Y-120950000D03*
%TD*%
D29*
%TO.C,J1*%
X216305000Y-146750000D03*
X216305000Y-147550000D03*
D30*
X216305000Y-148750000D03*
X216305000Y-149750000D03*
X216305000Y-150250000D03*
X216305000Y-151250000D03*
D29*
X216305000Y-152450000D03*
X216305000Y-153250000D03*
X216305000Y-153250000D03*
X216305000Y-152450000D03*
D30*
X216305000Y-151750000D03*
X216305000Y-150750000D03*
X216305000Y-149250000D03*
X216305000Y-148250000D03*
D29*
X216305000Y-147550000D03*
X216305000Y-146750000D03*
%TD*%
D27*
%TO.C,U4*%
X107862500Y-166950000D03*
X107862500Y-166000000D03*
X107862500Y-165050000D03*
X110137500Y-165050000D03*
X110137500Y-166000000D03*
X110137500Y-166950000D03*
%TD*%
D19*
%TO.C,R7*%
X148500000Y-151325000D03*
X148500000Y-149675000D03*
%TD*%
D31*
%TO.C,R10*%
X128285529Y-164587500D03*
X129714471Y-165412500D03*
%TD*%
D12*
%TO.C,C19*%
X107225000Y-139600000D03*
X108775000Y-139600000D03*
%TD*%
D27*
%TO.C,U5*%
X108862500Y-136950000D03*
X108862500Y-136000000D03*
X108862500Y-135050000D03*
X111137500Y-135050000D03*
X111137500Y-136000000D03*
X111137500Y-136950000D03*
%TD*%
D32*
%TO.C,U2*%
X130850000Y-121300000D03*
X130850000Y-119000000D03*
D33*
X137150000Y-119000000D03*
D32*
X130850000Y-116700000D03*
%TD*%
D20*
%TO.C,C15*%
X116600000Y-133275000D03*
X116600000Y-130325000D03*
%TD*%
D17*
%TO.C,C12*%
X178250000Y-184600000D03*
X180150000Y-184600000D03*
%TD*%
D25*
%TO.C,R14*%
X111487500Y-169600000D03*
X113312500Y-169600000D03*
%TD*%
D17*
%TO.C,C11*%
X102250000Y-140600000D03*
X104150000Y-140600000D03*
%TD*%
D25*
%TO.C,R16*%
X188487500Y-183600000D03*
X190312500Y-183600000D03*
%TD*%
D10*
%TO.C,L2*%
X101675000Y-135500000D03*
X104725000Y-135500000D03*
%TD*%
%TO.C,L3*%
X177675000Y-179500000D03*
X180725000Y-179500000D03*
%TD*%
D12*
%TO.C,C21*%
X183225000Y-123600000D03*
X184775000Y-123600000D03*
%TD*%
D20*
%TO.C,C17*%
X192600000Y-117275000D03*
X192600000Y-114325000D03*
%TD*%
D16*
%TO.C,R4*%
X158175000Y-141500000D03*
X159825000Y-141500000D03*
%TD*%
D12*
%TO.C,C18*%
X106225000Y-169600000D03*
X107775000Y-169600000D03*
%TD*%
D17*
%TO.C,C10*%
X101250000Y-170600000D03*
X103150000Y-170600000D03*
%TD*%
D18*
%TO.C,D6*%
X188500000Y-114400000D03*
X184500000Y-114400000D03*
%TD*%
D20*
%TO.C,C16*%
X192600000Y-177275000D03*
X192600000Y-174325000D03*
%TD*%
D34*
%TO.C,J2*%
X134000000Y-103150000D03*
X132000000Y-103150000D03*
X130000000Y-103150000D03*
X128000000Y-103150000D03*
X126000000Y-103150000D03*
X124000000Y-103150000D03*
X122000000Y-103150000D03*
X120000000Y-103150000D03*
X118000000Y-103150000D03*
X116000000Y-103150000D03*
D35*
X136350000Y-108900000D03*
X113650000Y-108900000D03*
%TD*%
D12*
%TO.C,C3*%
X207225000Y-152500000D03*
X208775000Y-152500000D03*
%TD*%
D16*
%TO.C,R1*%
X207175000Y-148000000D03*
X208825000Y-148000000D03*
%TD*%
M02*
