%TF.GenerationSoftware,KiCad,Pcbnew,9.0.9-9.0.9~ubuntu24.04.1*%
%TF.CreationDate,2026-10-10T22:21:54+00:00*%
%TF.ProjectId,eclipse-core,65636c69-7073-4652-9d63-6f72652e6b69,rev?*%
%TF.SameCoordinates,Original*%
%TF.FileFunction,Soldermask,Bot*%
%TF.FilePolarity,Negative*%
%FSLAX46Y46*%
G04 Gerber Fmt 4.6, Leading zero omitted, Abs format (unit mm)*
G04 Created by KiCad (PCBNEW 9.0.9-9.0.9~ubuntu24.04.1) date 2026-10-10 22:21:54*
%MOMM*%
%LPD*%
G01*
G04 APERTURE LIST*
G04 Aperture macros list*
%AMRoundRect*
0 Rectangle with rounded corners*
0 $1 Rounding radius*
0 $2 $3 $4 $5 $6 $7 $8 $9 X,Y pos of 4 corners*
0 Add a 4 corners polygon primitive as box body*
4,1,4,$2,$3,$4,$5,$6,$7,$8,$9,$2,$3,0*
0 Add four circle primitives for the rounded corners*
1,1,$1+$1,$2,$3*
1,1,$1+$1,$4,$5*
1,1,$1+$1,$6,$7*
1,1,$1+$1,$8,$9*
0 Add four rect primitives between the rounded corners*
20,1,$1+$1,$2,$3,$4,$5,0*
20,1,$1+$1,$4,$5,$6,$7,0*
20,1,$1+$1,$6,$7,$8,$9,0*
20,1,$1+$1,$8,$9,$2,$3,0*%
%AMRotRect*
0 Rectangle, with rotation*
0 The origin of the aperture is its center*
0 $1 length*
0 $2 width*
0 $3 Rotation angle, in degrees counterclockwise*
0 Add horizontal line*
21,1,$1,$2,0,0,$3*%
G04 Aperture macros list end*
%ADD10RoundRect,0.200000X0.275000X-0.200000X0.275000X0.200000X-0.275000X0.200000X-0.275000X-0.200000X0*%
%ADD11RoundRect,0.200000X-0.275000X0.200000X-0.275000X-0.200000X0.275000X-0.200000X0.275000X0.200000X0*%
%ADD12RotRect,2.200000X2.200000X75.000000*%
%ADD13RotRect,1.250000X2.200000X75.000000*%
%ADD14RoundRect,0.250000X-0.262500X-0.450000X0.262500X-0.450000X0.262500X0.450000X-0.262500X0.450000X0*%
%ADD15RoundRect,0.250000X-0.325000X-0.650000X0.325000X-0.650000X0.325000X0.650000X-0.325000X0.650000X0*%
%ADD16R,1.500000X3.600000*%
%ADD17RoundRect,0.250000X0.475000X-0.250000X0.475000X0.250000X-0.475000X0.250000X-0.475000X-0.250000X0*%
%ADD18RoundRect,0.150000X-0.512500X-0.150000X0.512500X-0.150000X0.512500X0.150000X-0.512500X0.150000X0*%
%ADD19C,0.650000*%
%ADD20R,1.450000X0.600000*%
%ADD21R,1.450000X0.300000*%
%ADD22O,1.600000X1.000000*%
%ADD23O,2.100000X1.000000*%
%ADD24RotRect,2.200000X2.200000X197.000000*%
%ADD25RotRect,1.250000X2.200000X197.000000*%
%ADD26RoundRect,0.200000X-0.321458X0.110859X-0.204509X-0.271663X0.321458X-0.110859X0.204509X0.271663X0*%
%ADD27RoundRect,0.200000X-0.200000X-0.275000X0.200000X-0.275000X0.200000X0.275000X-0.200000X0.275000X0*%
%ADD28RotRect,2.200000X2.200000X298.000000*%
%ADD29RotRect,1.250000X2.200000X298.000000*%
%ADD30RoundRect,0.225000X-0.225000X-0.250000X0.225000X-0.250000X0.225000X0.250000X-0.225000X0.250000X0*%
%ADD31RoundRect,0.250000X-0.312500X-1.450000X0.312500X-1.450000X0.312500X1.450000X-0.312500X1.450000X0*%
%ADD32C,3.200000*%
%ADD33RoundRect,0.200000X-0.305694X-0.148916X0.047485X-0.336705X0.305694X0.148916X-0.047485X0.336705X0*%
%ADD34RoundRect,0.200000X0.321564X0.110552X-0.006097X0.339982X-0.321564X-0.110552X0.006097X-0.339982X0*%
%ADD35RoundRect,0.200000X0.264360X0.213866X-0.122010X0.317393X-0.264360X-0.213866X0.122010X-0.317393X0*%
%ADD36RoundRect,0.250000X-0.250000X-0.475000X0.250000X-0.475000X0.250000X0.475000X-0.250000X0.475000X0*%
%ADD37RoundRect,0.250000X1.000000X0.650000X-1.000000X0.650000X-1.000000X-0.650000X1.000000X-0.650000X0*%
%ADD38RoundRect,0.250000X0.650000X-0.325000X0.650000X0.325000X-0.650000X0.325000X-0.650000X-0.325000X0*%
%ADD39RotRect,2.200000X2.200000X55.000000*%
%ADD40RotRect,1.250000X2.200000X55.000000*%
%ADD41RoundRect,0.250000X-1.000000X-0.650000X1.000000X-0.650000X1.000000X0.650000X-1.000000X0.650000X0*%
%ADD42RotRect,2.200000X2.200000X340.000000*%
%ADD43RotRect,1.250000X2.200000X340.000000*%
%ADD44RoundRect,0.150000X-0.587500X-0.150000X0.587500X-0.150000X0.587500X0.150000X-0.587500X0.150000X0*%
%ADD45RoundRect,0.375000X-0.625000X-0.375000X0.625000X-0.375000X0.625000X0.375000X-0.625000X0.375000X0*%
%ADD46RoundRect,0.500000X-0.500000X-1.400000X0.500000X-1.400000X0.500000X1.400000X-0.500000X1.400000X0*%
%ADD47RoundRect,0.200000X-0.190011X0.281994X-0.326819X-0.093883X0.190011X-0.281994X0.326819X0.093883X0*%
%ADD48RoundRect,0.200000X0.035705X0.338157X-0.310705X0.138157X-0.035705X-0.338157X0.310705X-0.138157X0*%
%ADD49RoundRect,0.225000X0.250000X-0.225000X0.250000X0.225000X-0.250000X0.225000X-0.250000X-0.225000X0*%
%ADD50RoundRect,0.150000X-0.150000X0.687500X-0.150000X-0.687500X0.150000X-0.687500X0.150000X0.687500X0*%
%ADD51R,3.300000X2.100000*%
%ADD52RoundRect,0.200000X-0.035705X-0.338157X0.310705X-0.138157X0.035705X0.338157X-0.310705X0.138157X0*%
%ADD53RotRect,2.200000X2.200000X160.000000*%
%ADD54RotRect,1.250000X2.200000X160.000000*%
%ADD55RoundRect,0.200000X0.190011X-0.281994X0.326819X0.093883X-0.190011X0.281994X-0.326819X-0.093883X0*%
%ADD56R,1.700000X1.700000*%
%ADD57C,1.700000*%
%ADD58RoundRect,0.250000X0.250000X1.500000X-0.250000X1.500000X-0.250000X-1.500000X0.250000X-1.500000X0*%
%ADD59RoundRect,0.250001X0.499999X1.449999X-0.499999X1.449999X-0.499999X-1.449999X0.499999X-1.449999X0*%
%ADD60RotRect,2.200000X2.200000X242.000000*%
%ADD61RotRect,1.250000X2.200000X242.000000*%
%ADD62RotRect,2.200000X2.200000X120.000000*%
%ADD63RotRect,1.250000X2.200000X120.000000*%
%ADD64RoundRect,0.150000X-0.875000X-0.150000X0.875000X-0.150000X0.875000X0.150000X-0.875000X0.150000X0*%
%ADD65RoundRect,0.200000X-0.047485X-0.336705X0.305694X-0.148916X0.047485X0.336705X-0.305694X0.148916X0*%
%ADD66RoundRect,0.200000X-0.310705X-0.138157X0.035705X-0.338157X0.310705X0.138157X-0.035705X0.338157X0*%
G04 APERTURE END LIST*
D10*
%TO.C,R8*%
X151500000Y-151325000D03*
X151500000Y-149675000D03*
%TD*%
D11*
%TO.C,R3*%
X195500000Y-152675000D03*
X195500000Y-154325000D03*
%TD*%
D12*
%TO.C,D13*%
X93743363Y-135857833D03*
D13*
X94332176Y-133660352D03*
%TD*%
D14*
%TO.C,R14*%
X111487500Y-169600000D03*
X113312500Y-169600000D03*
%TD*%
D15*
%TO.C,C1*%
X192025000Y-138000000D03*
X194975000Y-138000000D03*
%TD*%
D16*
%TO.C,L1*%
X100675000Y-165500000D03*
X103725000Y-165500000D03*
%TD*%
D10*
%TO.C,R7*%
X148500000Y-151325000D03*
X148500000Y-149675000D03*
%TD*%
D17*
%TO.C,C4*%
X125000000Y-119950000D03*
X125000000Y-118050000D03*
%TD*%
D18*
%TO.C,U5*%
X108862500Y-136950000D03*
X108862500Y-136000000D03*
X108862500Y-135050000D03*
X111137500Y-135050000D03*
X111137500Y-136000000D03*
X111137500Y-136950000D03*
%TD*%
D19*
%TO.C,J1*%
X217750000Y-147110000D03*
X217750000Y-152890000D03*
D20*
X216305000Y-146750000D03*
X216305000Y-147550000D03*
D21*
X216305000Y-148750000D03*
X216305000Y-149750000D03*
X216305000Y-150250000D03*
X216305000Y-151250000D03*
D20*
X216305000Y-152450000D03*
X216305000Y-153250000D03*
X216305000Y-153250000D03*
X216305000Y-152450000D03*
D21*
X216305000Y-151750000D03*
X216305000Y-150750000D03*
X216305000Y-149250000D03*
X216305000Y-148250000D03*
D20*
X216305000Y-147550000D03*
X216305000Y-146750000D03*
D22*
X221400000Y-145680000D03*
D23*
X217220000Y-145680000D03*
D22*
X221400000Y-154320000D03*
D23*
X217220000Y-154320000D03*
%TD*%
D24*
%TO.C,D10*%
X167818274Y-205202565D03*
D25*
X165642681Y-205867711D03*
%TD*%
D16*
%TO.C,L2*%
X101675000Y-135500000D03*
X104725000Y-135500000D03*
%TD*%
D26*
%TO.C,R21*%
X165400693Y-200373349D03*
X165883107Y-201951251D03*
%TD*%
D27*
%TO.C,R4*%
X158175000Y-141500000D03*
X159825000Y-141500000D03*
%TD*%
D28*
%TO.C,D8*%
X200788476Y-121975947D03*
D29*
X201856523Y-123984653D03*
%TD*%
D30*
%TO.C,C19*%
X107225000Y-139600000D03*
X108775000Y-139600000D03*
%TD*%
D31*
%TO.C,F1*%
X205362500Y-141500000D03*
X209637500Y-141500000D03*
%TD*%
D32*
%TO.C,H1*%
X177500000Y-197631400D03*
%TD*%
D30*
%TO.C,C21*%
X183225000Y-123600000D03*
X184775000Y-123600000D03*
%TD*%
D33*
%TO.C,R20*%
X196509268Y-174729386D03*
X197966132Y-175504014D03*
%TD*%
D34*
%TO.C,R25*%
X106851200Y-119786901D03*
X105499600Y-118840499D03*
%TD*%
D35*
%TO.C,R24*%
X99119889Y-136366726D03*
X97526111Y-135939674D03*
%TD*%
D36*
%TO.C,C11*%
X102250000Y-140600000D03*
X104150000Y-140600000D03*
%TD*%
D37*
%TO.C,D3*%
X111500000Y-160400000D03*
X107500000Y-160400000D03*
%TD*%
D38*
%TO.C,C15*%
X116600000Y-133275000D03*
X116600000Y-130325000D03*
%TD*%
D37*
%TO.C,D5*%
X188500000Y-174400000D03*
X184500000Y-174400000D03*
%TD*%
D27*
%TO.C,R6*%
X140175000Y-143000000D03*
X141825000Y-143000000D03*
%TD*%
D11*
%TO.C,R2*%
X195500000Y-145675000D03*
X195500000Y-147325000D03*
%TD*%
D14*
%TO.C,R16*%
X188487500Y-183600000D03*
X190312500Y-183600000D03*
%TD*%
D17*
%TO.C,C5*%
X143000000Y-119950000D03*
X143000000Y-118050000D03*
%TD*%
D32*
%TO.C,H3*%
X109127000Y-113197800D03*
%TD*%
D30*
%TO.C,C8*%
X158225000Y-145500000D03*
X159775000Y-145500000D03*
%TD*%
D16*
%TO.C,L3*%
X177675000Y-179500000D03*
X180725000Y-179500000D03*
%TD*%
D36*
%TO.C,C10*%
X101250000Y-170600000D03*
X103150000Y-170600000D03*
%TD*%
D15*
%TO.C,C2*%
X200525000Y-160000000D03*
X203475000Y-160000000D03*
%TD*%
D39*
%TO.C,D14*%
X101972981Y-117469837D03*
D40*
X103277868Y-115606266D03*
%TD*%
D27*
%TO.C,R11*%
X149175000Y-208500000D03*
X150825000Y-208500000D03*
%TD*%
D41*
%TO.C,D1*%
X198000000Y-137500000D03*
X202000000Y-137500000D03*
%TD*%
D27*
%TO.C,R13*%
X158175000Y-134000000D03*
X159825000Y-134000000D03*
%TD*%
D30*
%TO.C,C3*%
X207225000Y-152500000D03*
X208775000Y-152500000D03*
%TD*%
D42*
%TO.C,D7*%
X168991477Y-95189982D03*
D43*
X171129277Y-95968078D03*
%TD*%
D44*
%TO.C,Q1*%
X133062500Y-138950000D03*
X133062500Y-137050000D03*
X134937500Y-138000000D03*
%TD*%
D32*
%TO.C,H2*%
X114646700Y-192132400D03*
%TD*%
D18*
%TO.C,U4*%
X107862500Y-166950000D03*
X107862500Y-166000000D03*
X107862500Y-165050000D03*
X110137500Y-165050000D03*
X110137500Y-166000000D03*
X110137500Y-166950000D03*
%TD*%
D10*
%TO.C,R27*%
X130500000Y-142825000D03*
X130500000Y-141175000D03*
%TD*%
D18*
%TO.C,U6*%
X184862500Y-180950000D03*
X184862500Y-180000000D03*
X184862500Y-179050000D03*
X187137500Y-179050000D03*
X187137500Y-180000000D03*
X187137500Y-180950000D03*
%TD*%
D45*
%TO.C,U2*%
X130850000Y-121300000D03*
X130850000Y-119000000D03*
D46*
X137150000Y-119000000D03*
D45*
X130850000Y-116700000D03*
%TD*%
D36*
%TO.C,C12*%
X178250000Y-184600000D03*
X180150000Y-184600000D03*
%TD*%
D16*
%TO.C,L4*%
X177675000Y-119500000D03*
X180725000Y-119500000D03*
%TD*%
D47*
%TO.C,R22*%
X131984067Y-199498354D03*
X131419733Y-201048846D03*
%TD*%
D30*
%TO.C,C18*%
X106225000Y-169600000D03*
X107775000Y-169600000D03*
%TD*%
%TO.C,C9*%
X140225000Y-145000000D03*
X141775000Y-145000000D03*
%TD*%
D37*
%TO.C,D4*%
X112500000Y-130400000D03*
X108500000Y-130400000D03*
%TD*%
D48*
%TO.C,R23*%
X104382071Y-176337500D03*
X102953129Y-177162500D03*
%TD*%
D49*
%TO.C,C7*%
X141500000Y-134775000D03*
X141500000Y-133225000D03*
%TD*%
D14*
%TO.C,R15*%
X112487500Y-139600000D03*
X114312500Y-139600000D03*
%TD*%
D50*
%TO.C,U1*%
X200000000Y-147362500D03*
X201000000Y-147362500D03*
X202000000Y-147362500D03*
X203000000Y-147362500D03*
X204000000Y-147362500D03*
X204000000Y-152637500D03*
X203000000Y-152637500D03*
X202000000Y-152637500D03*
X201000000Y-152637500D03*
X200000000Y-152637500D03*
D51*
X202000000Y-150000000D03*
%TD*%
D14*
%TO.C,R17*%
X188487500Y-123600000D03*
X190312500Y-123600000D03*
%TD*%
D52*
%TO.C,R9*%
X170285529Y-165412500D03*
X171714471Y-164587500D03*
%TD*%
D53*
%TO.C,D11*%
X131008523Y-204810018D03*
D54*
X128870723Y-204031922D03*
%TD*%
D36*
%TO.C,C13*%
X178250000Y-124600000D03*
X180150000Y-124600000D03*
%TD*%
D55*
%TO.C,R18*%
X168015933Y-100501646D03*
X168580267Y-98951154D03*
%TD*%
D27*
%TO.C,R5*%
X158175000Y-143500000D03*
X159825000Y-143500000D03*
%TD*%
D18*
%TO.C,U7*%
X184862500Y-120950000D03*
X184862500Y-120000000D03*
X184862500Y-119050000D03*
X187137500Y-119050000D03*
X187137500Y-120000000D03*
X187137500Y-120950000D03*
%TD*%
D56*
%TO.C,J3*%
X164000000Y-124000000D03*
D57*
X161460000Y-124000000D03*
X158920000Y-124000000D03*
%TD*%
D27*
%TO.C,R26*%
X133175000Y-142000000D03*
X134825000Y-142000000D03*
%TD*%
D30*
%TO.C,C20*%
X183225000Y-183600000D03*
X184775000Y-183600000D03*
%TD*%
D49*
%TO.C,C6*%
X141500000Y-130775000D03*
X141500000Y-129225000D03*
%TD*%
D58*
%TO.C,J2*%
X134000000Y-103150000D03*
X132000000Y-103150000D03*
X130000000Y-103150000D03*
X128000000Y-103150000D03*
X126000000Y-103150000D03*
X124000000Y-103150000D03*
X122000000Y-103150000D03*
X120000000Y-103150000D03*
X118000000Y-103150000D03*
X116000000Y-103150000D03*
D59*
X136350000Y-108900000D03*
X113650000Y-108900000D03*
%TD*%
D38*
%TO.C,C16*%
X192600000Y-177275000D03*
X192600000Y-174325000D03*
%TD*%
D60*
%TO.C,D9*%
X201633524Y-176434647D03*
D61*
X200565477Y-178443353D03*
%TD*%
D27*
%TO.C,R12*%
X158175000Y-132000000D03*
X159825000Y-132000000D03*
%TD*%
D37*
%TO.C,D6*%
X188500000Y-114400000D03*
X184500000Y-114400000D03*
%TD*%
D62*
%TO.C,D12*%
X100220500Y-179779423D03*
D63*
X99083000Y-177809215D03*
%TD*%
D64*
%TO.C,U3*%
X145350000Y-141715000D03*
X145350000Y-140445000D03*
X145350000Y-139175000D03*
X145350000Y-137905000D03*
X145350000Y-136635000D03*
X145350000Y-135365000D03*
X145350000Y-134095000D03*
X145350000Y-132825000D03*
X145350000Y-131555000D03*
X145350000Y-130285000D03*
X154650000Y-130285000D03*
X154650000Y-131555000D03*
X154650000Y-132825000D03*
X154650000Y-134095000D03*
X154650000Y-135365000D03*
X154650000Y-136635000D03*
X154650000Y-137905000D03*
X154650000Y-139175000D03*
X154650000Y-140445000D03*
X154650000Y-141715000D03*
%TD*%
D65*
%TO.C,R19*%
X196509268Y-125270614D03*
X197966132Y-124495986D03*
%TD*%
D38*
%TO.C,C17*%
X192600000Y-117275000D03*
X192600000Y-114325000D03*
%TD*%
D27*
%TO.C,R1*%
X207175000Y-148000000D03*
X208825000Y-148000000D03*
%TD*%
D66*
%TO.C,R10*%
X128285529Y-164587500D03*
X129714471Y-165412500D03*
%TD*%
D38*
%TO.C,C14*%
X115600000Y-163275000D03*
X115600000Y-160325000D03*
%TD*%
M02*
