%TF.GenerationSoftware,KiCad,Pcbnew,9.0.9-9.0.9~ubuntu24.04.1*%
%TF.CreationDate,2026-10-10T04:13:57+00:00*%
%TF.ProjectId,eclipse-core,65636c69-7073-4652-9d63-6f72652e6b69,rev?*%
%TF.SameCoordinates,Original*%
%TF.FileFunction,Drillmap*%
%TF.FilePolarity,Positive*%
%FSLAX45Y45*%
G04 Gerber Fmt 4.5, Leading zero omitted, Abs format (unit mm)*
G04 Created by KiCad (PCBNEW 9.0.9-9.0.9~ubuntu24.04.1) date 2026-10-10 04:13:57*
%MOMM*%
%LPD*%
G01*
G04 APERTURE LIST*
%ADD10C,0.100000*%
%ADD11C,0.200000*%
G04 APERTURE END LIST*
D10*
X16055566Y-8890517D02*
G75*
G02*
X13944434Y-8890517I-1055566J-309483D01*
G01*
X16055566Y-8890517D02*
G75*
G02*
X21154470Y-14250000I-1055566J-6109483D01*
G01*
X21154470Y-14250000D02*
X22320000Y-14250000D01*
X21154470Y-15750000D02*
G75*
G02*
X13944434Y-8890517I-6154470J750000D01*
G01*
X22320000Y-14250000D02*
X22320000Y-15750000D01*
X22320000Y-15750000D02*
X21154470Y-15750000D01*
D11*
D10*
X9849020Y-13774640D02*
X9879020Y-13804640D01*
X9879020Y-13774640D02*
X9849020Y-13804640D01*
X10565560Y-13756850D02*
X10595560Y-13786850D01*
X10595560Y-13756850D02*
X10565560Y-13786850D01*
X10655730Y-16548120D02*
X10685730Y-16578120D01*
X10685730Y-16548120D02*
X10655730Y-16578120D01*
X10966310Y-16914820D02*
X10996310Y-16944820D01*
X10996310Y-16914820D02*
X10966310Y-16944820D01*
X11081980Y-13362470D02*
X11111980Y-13392470D01*
X11111980Y-13362470D02*
X11081980Y-13392470D01*
X11216360Y-13655650D02*
X11246360Y-13685650D01*
X11246360Y-13655650D02*
X11216360Y-13685650D01*
X11863740Y-10568030D02*
X11893740Y-10598030D01*
X11893740Y-10568030D02*
X11863740Y-10598030D01*
X11942240Y-10529620D02*
X11972240Y-10559620D01*
X11972240Y-10529620D02*
X11942240Y-10559620D01*
X12346240Y-11735420D02*
X12376240Y-11765420D01*
X12376240Y-11735420D02*
X12346240Y-11765420D01*
X12711500Y-11839360D02*
X12741500Y-11869360D01*
X12741500Y-11839360D02*
X12711500Y-11869360D01*
X12748800Y-10773520D02*
X12778800Y-10803520D01*
X12778800Y-10773520D02*
X12748800Y-10803520D01*
X12748800Y-17108210D02*
X12778800Y-17138210D01*
X12778800Y-17108210D02*
X12748800Y-17138210D01*
X13160200Y-10675480D02*
X13190200Y-10705480D01*
X13190200Y-10675480D02*
X13160200Y-10705480D01*
X13348950Y-13774640D02*
X13378950Y-13804640D01*
X13378950Y-13774640D02*
X13348950Y-13804640D01*
X13368140Y-10795320D02*
X13398140Y-10825320D01*
X13398140Y-10795320D02*
X13368140Y-10825320D01*
X13382590Y-14252540D02*
X13412590Y-14282540D01*
X13412590Y-14252540D02*
X13382590Y-14282540D01*
X13862050Y-12047050D02*
X13892050Y-12077050D01*
X13892050Y-12047050D02*
X13862050Y-12077050D01*
X14274620Y-12151880D02*
X14304620Y-12181880D01*
X14304620Y-12151880D02*
X14274620Y-12181880D01*
X14379000Y-17531520D02*
X14409000Y-17561520D01*
X14409000Y-17531520D02*
X14379000Y-17561520D01*
X14514900Y-11954770D02*
X14544900Y-11984770D01*
X14544900Y-11954770D02*
X14514900Y-11984770D01*
X14671730Y-14148950D02*
X14701730Y-14178950D01*
X14701730Y-14148950D02*
X14671730Y-14178950D01*
X14734620Y-13493000D02*
X14764620Y-13523000D01*
X14764620Y-13493000D02*
X14734620Y-13523000D01*
X15067500Y-20582170D02*
X15097500Y-20612170D01*
X15097500Y-20582170D02*
X15067500Y-20612170D01*
X15094840Y-15683450D02*
X15124840Y-15713450D01*
X15124840Y-15683450D02*
X15094840Y-15713450D01*
X15197020Y-14635590D02*
X15227020Y-14665590D01*
X15227020Y-14635590D02*
X15197020Y-14665590D01*
X15297350Y-13994560D02*
X15327350Y-14024560D01*
X15327350Y-13994560D02*
X15297350Y-14024560D01*
X15368210Y-15470480D02*
X15398210Y-15500480D01*
X15398210Y-15470480D02*
X15368210Y-15500480D01*
X15630890Y-13208180D02*
X15660890Y-13238180D01*
X15660890Y-13208180D02*
X15630890Y-13238180D01*
X15655620Y-14920030D02*
X15685620Y-14950030D01*
X15685620Y-14920030D02*
X15655620Y-14950030D01*
X15986650Y-12030900D02*
X16016650Y-12060900D01*
X16016650Y-12030900D02*
X15986650Y-12060900D01*
X16214300Y-15232090D02*
X16244300Y-15262090D01*
X16244300Y-15232090D02*
X16214300Y-15262090D01*
X16614500Y-13747880D02*
X16644500Y-13777880D01*
X16644500Y-13747880D02*
X16614500Y-13777880D01*
X17156450Y-17040840D02*
X17186450Y-17070840D01*
X17186450Y-17040840D02*
X17156450Y-17070840D01*
X18299610Y-17930830D02*
X18329610Y-17960830D01*
X18329610Y-17930830D02*
X18299610Y-17960830D01*
X18328100Y-11954770D02*
X18358100Y-11984770D01*
X18358100Y-11954770D02*
X18328100Y-11984770D01*
X18657100Y-12168350D02*
X18687100Y-12198350D01*
X18687100Y-12168350D02*
X18657100Y-12198350D01*
X18695370Y-18184680D02*
X18725370Y-18214680D01*
X18725370Y-18184680D02*
X18695370Y-18214680D01*
X18695950Y-11255800D02*
X18725950Y-11285800D01*
X18725950Y-11255800D02*
X18695950Y-11285800D01*
X19435990Y-15232090D02*
X19465990Y-15262090D01*
X19465990Y-15232090D02*
X19435990Y-15262090D01*
X19900560Y-15232090D02*
X19930560Y-15262090D01*
X19930560Y-15232090D02*
X19900560Y-15262090D01*
X20512270Y-14654790D02*
X20542270Y-14684790D01*
X20542270Y-14654790D02*
X20512270Y-14684790D01*
X20523690Y-14855180D02*
X20553690Y-14885180D01*
X20553690Y-14855180D02*
X20523690Y-14885180D01*
X21376330Y-14901580D02*
X21406330Y-14931580D01*
X21406330Y-14901580D02*
X21376330Y-14931580D01*
X21471160Y-14960000D02*
X21501160Y-14990000D01*
X21501160Y-14960000D02*
X21471160Y-14990000D01*
X12704030Y-13803870D02*
G75*
G02*
X12664030Y-13803870I-20000J0D01*
G01*
X12664030Y-13803870D02*
G75*
G02*
X12704030Y-13803870I20000J0D01*
G01*
X14970710Y-20390820D02*
G75*
G02*
X14930710Y-20390820I-20000J0D01*
G01*
X14930710Y-20390820D02*
G75*
G02*
X14970710Y-20390820I20000J0D01*
G01*
X15485000Y-14264460D02*
G75*
G02*
X15445000Y-14264460I-20000J0D01*
G01*
X15445000Y-14264460D02*
G75*
G02*
X15485000Y-14264460I20000J0D01*
G01*
X16105710Y-14579670D02*
G75*
G02*
X16065710Y-14579670I-20000J0D01*
G01*
X16065710Y-14579670D02*
G75*
G02*
X16105710Y-14579670I20000J0D01*
G01*
X19222500Y-14579670D02*
G75*
G02*
X19182500Y-14579670I-20000J0D01*
G01*
X19182500Y-14579670D02*
G75*
G02*
X19222500Y-14579670I20000J0D01*
G01*
X20220000Y-15412460D02*
G75*
G02*
X20180000Y-15412460I-20000J0D01*
G01*
X20180000Y-15412460D02*
G75*
G02*
X20220000Y-15412460I20000J0D01*
G01*
X20566960Y-15038420D02*
G75*
G02*
X20526960Y-15038420I-20000J0D01*
G01*
X20526960Y-15038420D02*
G75*
G02*
X20566960Y-15038420I20000J0D01*
G01*
X21722000Y-14538000D02*
X21722000Y-14598000D01*
X21692000Y-14568000D02*
X21752000Y-14568000D01*
X21777000Y-14538000D02*
X21667000Y-14538000D01*
X21667000Y-14598000D02*
G75*
G02*
X21667000Y-14538000I0J30000D01*
G01*
X21667000Y-14598000D02*
X21777000Y-14598000D01*
X21777000Y-14598000D02*
G75*
G03*
X21777000Y-14538000I0J30000D01*
G01*
X21722000Y-15402000D02*
X21722000Y-15462000D01*
X21692000Y-15432000D02*
X21752000Y-15432000D01*
X21777000Y-15402000D02*
X21667000Y-15402000D01*
X21667000Y-15462000D02*
G75*
G02*
X21667000Y-15402000I0J30000D01*
G01*
X21667000Y-15462000D02*
X21777000Y-15462000D01*
X21777000Y-15462000D02*
G75*
G03*
X21777000Y-15402000I0J30000D01*
G01*
X22140000Y-14538000D02*
X22140000Y-14598000D01*
X22110000Y-14568000D02*
X22170000Y-14568000D01*
X22170000Y-14538000D02*
X22110000Y-14538000D01*
X22110000Y-14598000D02*
G75*
G02*
X22110000Y-14538000I0J30000D01*
G01*
X22110000Y-14598000D02*
X22170000Y-14598000D01*
X22170000Y-14598000D02*
G75*
G03*
X22170000Y-14538000I0J30000D01*
G01*
X22140000Y-15402000D02*
X22140000Y-15462000D01*
X22110000Y-15432000D02*
X22170000Y-15432000D01*
X22170000Y-15402000D02*
X22110000Y-15402000D01*
X22110000Y-15462000D02*
G75*
G02*
X22110000Y-15402000I0J30000D01*
G01*
X22110000Y-15462000D02*
X22170000Y-15462000D01*
X22170000Y-15462000D02*
G75*
G03*
X22170000Y-15402000I0J30000D01*
G01*
X15927356Y-12435356D02*
X15927356Y-12364644D01*
X15856644Y-12364644D01*
X15856644Y-12435356D01*
X15927356Y-12435356D01*
X16181356Y-12435356D02*
X16181356Y-12364644D01*
X16110644Y-12364644D01*
X16110644Y-12435356D01*
X16181356Y-12435356D01*
X16435356Y-12435356D02*
X16435356Y-12364644D01*
X16364644Y-12364644D01*
X16364644Y-12435356D01*
X16435356Y-12435356D01*
D11*
X9055777Y-21516484D02*
X9055777Y-21316484D01*
X9055777Y-21316484D02*
X9103396Y-21316484D01*
X9103396Y-21316484D02*
X9131967Y-21326008D01*
X9131967Y-21326008D02*
X9151015Y-21345055D01*
X9151015Y-21345055D02*
X9160539Y-21364103D01*
X9160539Y-21364103D02*
X9170063Y-21402198D01*
X9170063Y-21402198D02*
X9170063Y-21430770D01*
X9170063Y-21430770D02*
X9160539Y-21468865D01*
X9160539Y-21468865D02*
X9151015Y-21487912D01*
X9151015Y-21487912D02*
X9131967Y-21506960D01*
X9131967Y-21506960D02*
X9103396Y-21516484D01*
X9103396Y-21516484D02*
X9055777Y-21516484D01*
X9255777Y-21516484D02*
X9255777Y-21383150D01*
X9255777Y-21421246D02*
X9265301Y-21402198D01*
X9265301Y-21402198D02*
X9274824Y-21392674D01*
X9274824Y-21392674D02*
X9293872Y-21383150D01*
X9293872Y-21383150D02*
X9312920Y-21383150D01*
X9379586Y-21516484D02*
X9379586Y-21383150D01*
X9379586Y-21316484D02*
X9370063Y-21326008D01*
X9370063Y-21326008D02*
X9379586Y-21335531D01*
X9379586Y-21335531D02*
X9389110Y-21326008D01*
X9389110Y-21326008D02*
X9379586Y-21316484D01*
X9379586Y-21316484D02*
X9379586Y-21335531D01*
X9503396Y-21516484D02*
X9484348Y-21506960D01*
X9484348Y-21506960D02*
X9474824Y-21487912D01*
X9474824Y-21487912D02*
X9474824Y-21316484D01*
X9608158Y-21516484D02*
X9589110Y-21506960D01*
X9589110Y-21506960D02*
X9579586Y-21487912D01*
X9579586Y-21487912D02*
X9579586Y-21316484D01*
X9836729Y-21516484D02*
X9836729Y-21316484D01*
X9836729Y-21316484D02*
X9903396Y-21459341D01*
X9903396Y-21459341D02*
X9970063Y-21316484D01*
X9970063Y-21316484D02*
X9970063Y-21516484D01*
X10151015Y-21516484D02*
X10151015Y-21411722D01*
X10151015Y-21411722D02*
X10141491Y-21392674D01*
X10141491Y-21392674D02*
X10122444Y-21383150D01*
X10122444Y-21383150D02*
X10084348Y-21383150D01*
X10084348Y-21383150D02*
X10065301Y-21392674D01*
X10151015Y-21506960D02*
X10131967Y-21516484D01*
X10131967Y-21516484D02*
X10084348Y-21516484D01*
X10084348Y-21516484D02*
X10065301Y-21506960D01*
X10065301Y-21506960D02*
X10055777Y-21487912D01*
X10055777Y-21487912D02*
X10055777Y-21468865D01*
X10055777Y-21468865D02*
X10065301Y-21449817D01*
X10065301Y-21449817D02*
X10084348Y-21440293D01*
X10084348Y-21440293D02*
X10131967Y-21440293D01*
X10131967Y-21440293D02*
X10151015Y-21430770D01*
X10246253Y-21383150D02*
X10246253Y-21583150D01*
X10246253Y-21392674D02*
X10265301Y-21383150D01*
X10265301Y-21383150D02*
X10303396Y-21383150D01*
X10303396Y-21383150D02*
X10322444Y-21392674D01*
X10322444Y-21392674D02*
X10331967Y-21402198D01*
X10331967Y-21402198D02*
X10341491Y-21421246D01*
X10341491Y-21421246D02*
X10341491Y-21478389D01*
X10341491Y-21478389D02*
X10331967Y-21497436D01*
X10331967Y-21497436D02*
X10322444Y-21506960D01*
X10322444Y-21506960D02*
X10303396Y-21516484D01*
X10303396Y-21516484D02*
X10265301Y-21516484D01*
X10265301Y-21516484D02*
X10246253Y-21506960D01*
X10427205Y-21497436D02*
X10436729Y-21506960D01*
X10436729Y-21506960D02*
X10427205Y-21516484D01*
X10427205Y-21516484D02*
X10417682Y-21506960D01*
X10417682Y-21506960D02*
X10427205Y-21497436D01*
X10427205Y-21497436D02*
X10427205Y-21516484D01*
X10427205Y-21392674D02*
X10436729Y-21402198D01*
X10436729Y-21402198D02*
X10427205Y-21411722D01*
X10427205Y-21411722D02*
X10417682Y-21402198D01*
X10417682Y-21402198D02*
X10427205Y-21392674D01*
X10427205Y-21392674D02*
X10427205Y-21411722D01*
D10*
X8765000Y-21830000D02*
X8795000Y-21860000D01*
X8795000Y-21830000D02*
X8765000Y-21860000D01*
D11*
X9093872Y-21736484D02*
X9112920Y-21736484D01*
X9112920Y-21736484D02*
X9131967Y-21746008D01*
X9131967Y-21746008D02*
X9141491Y-21755531D01*
X9141491Y-21755531D02*
X9151015Y-21774579D01*
X9151015Y-21774579D02*
X9160539Y-21812674D01*
X9160539Y-21812674D02*
X9160539Y-21860293D01*
X9160539Y-21860293D02*
X9151015Y-21898389D01*
X9151015Y-21898389D02*
X9141491Y-21917436D01*
X9141491Y-21917436D02*
X9131967Y-21926960D01*
X9131967Y-21926960D02*
X9112920Y-21936484D01*
X9112920Y-21936484D02*
X9093872Y-21936484D01*
X9093872Y-21936484D02*
X9074824Y-21926960D01*
X9074824Y-21926960D02*
X9065301Y-21917436D01*
X9065301Y-21917436D02*
X9055777Y-21898389D01*
X9055777Y-21898389D02*
X9046253Y-21860293D01*
X9046253Y-21860293D02*
X9046253Y-21812674D01*
X9046253Y-21812674D02*
X9055777Y-21774579D01*
X9055777Y-21774579D02*
X9065301Y-21755531D01*
X9065301Y-21755531D02*
X9074824Y-21746008D01*
X9074824Y-21746008D02*
X9093872Y-21736484D01*
X9246253Y-21917436D02*
X9255777Y-21926960D01*
X9255777Y-21926960D02*
X9246253Y-21936484D01*
X9246253Y-21936484D02*
X9236729Y-21926960D01*
X9236729Y-21926960D02*
X9246253Y-21917436D01*
X9246253Y-21917436D02*
X9246253Y-21936484D01*
X9322444Y-21736484D02*
X9446253Y-21736484D01*
X9446253Y-21736484D02*
X9379586Y-21812674D01*
X9379586Y-21812674D02*
X9408158Y-21812674D01*
X9408158Y-21812674D02*
X9427205Y-21822198D01*
X9427205Y-21822198D02*
X9436729Y-21831722D01*
X9436729Y-21831722D02*
X9446253Y-21850770D01*
X9446253Y-21850770D02*
X9446253Y-21898389D01*
X9446253Y-21898389D02*
X9436729Y-21917436D01*
X9436729Y-21917436D02*
X9427205Y-21926960D01*
X9427205Y-21926960D02*
X9408158Y-21936484D01*
X9408158Y-21936484D02*
X9351015Y-21936484D01*
X9351015Y-21936484D02*
X9331967Y-21926960D01*
X9331967Y-21926960D02*
X9322444Y-21917436D01*
X9570063Y-21736484D02*
X9589110Y-21736484D01*
X9589110Y-21736484D02*
X9608158Y-21746008D01*
X9608158Y-21746008D02*
X9617682Y-21755531D01*
X9617682Y-21755531D02*
X9627205Y-21774579D01*
X9627205Y-21774579D02*
X9636729Y-21812674D01*
X9636729Y-21812674D02*
X9636729Y-21860293D01*
X9636729Y-21860293D02*
X9627205Y-21898389D01*
X9627205Y-21898389D02*
X9617682Y-21917436D01*
X9617682Y-21917436D02*
X9608158Y-21926960D01*
X9608158Y-21926960D02*
X9589110Y-21936484D01*
X9589110Y-21936484D02*
X9570063Y-21936484D01*
X9570063Y-21936484D02*
X9551015Y-21926960D01*
X9551015Y-21926960D02*
X9541491Y-21917436D01*
X9541491Y-21917436D02*
X9531967Y-21898389D01*
X9531967Y-21898389D02*
X9522444Y-21860293D01*
X9522444Y-21860293D02*
X9522444Y-21812674D01*
X9522444Y-21812674D02*
X9531967Y-21774579D01*
X9531967Y-21774579D02*
X9541491Y-21755531D01*
X9541491Y-21755531D02*
X9551015Y-21746008D01*
X9551015Y-21746008D02*
X9570063Y-21736484D01*
X9760539Y-21736484D02*
X9779586Y-21736484D01*
X9779586Y-21736484D02*
X9798634Y-21746008D01*
X9798634Y-21746008D02*
X9808158Y-21755531D01*
X9808158Y-21755531D02*
X9817682Y-21774579D01*
X9817682Y-21774579D02*
X9827205Y-21812674D01*
X9827205Y-21812674D02*
X9827205Y-21860293D01*
X9827205Y-21860293D02*
X9817682Y-21898389D01*
X9817682Y-21898389D02*
X9808158Y-21917436D01*
X9808158Y-21917436D02*
X9798634Y-21926960D01*
X9798634Y-21926960D02*
X9779586Y-21936484D01*
X9779586Y-21936484D02*
X9760539Y-21936484D01*
X9760539Y-21936484D02*
X9741491Y-21926960D01*
X9741491Y-21926960D02*
X9731967Y-21917436D01*
X9731967Y-21917436D02*
X9722444Y-21898389D01*
X9722444Y-21898389D02*
X9712920Y-21860293D01*
X9712920Y-21860293D02*
X9712920Y-21812674D01*
X9712920Y-21812674D02*
X9722444Y-21774579D01*
X9722444Y-21774579D02*
X9731967Y-21755531D01*
X9731967Y-21755531D02*
X9741491Y-21746008D01*
X9741491Y-21746008D02*
X9760539Y-21736484D01*
X9912920Y-21936484D02*
X9912920Y-21803150D01*
X9912920Y-21822198D02*
X9922444Y-21812674D01*
X9922444Y-21812674D02*
X9941491Y-21803150D01*
X9941491Y-21803150D02*
X9970063Y-21803150D01*
X9970063Y-21803150D02*
X9989110Y-21812674D01*
X9989110Y-21812674D02*
X9998634Y-21831722D01*
X9998634Y-21831722D02*
X9998634Y-21936484D01*
X9998634Y-21831722D02*
X10008158Y-21812674D01*
X10008158Y-21812674D02*
X10027205Y-21803150D01*
X10027205Y-21803150D02*
X10055777Y-21803150D01*
X10055777Y-21803150D02*
X10074825Y-21812674D01*
X10074825Y-21812674D02*
X10084348Y-21831722D01*
X10084348Y-21831722D02*
X10084348Y-21936484D01*
X10179586Y-21936484D02*
X10179586Y-21803150D01*
X10179586Y-21822198D02*
X10189110Y-21812674D01*
X10189110Y-21812674D02*
X10208158Y-21803150D01*
X10208158Y-21803150D02*
X10236729Y-21803150D01*
X10236729Y-21803150D02*
X10255777Y-21812674D01*
X10255777Y-21812674D02*
X10265301Y-21831722D01*
X10265301Y-21831722D02*
X10265301Y-21936484D01*
X10265301Y-21831722D02*
X10274825Y-21812674D01*
X10274825Y-21812674D02*
X10293872Y-21803150D01*
X10293872Y-21803150D02*
X10322444Y-21803150D01*
X10322444Y-21803150D02*
X10341491Y-21812674D01*
X10341491Y-21812674D02*
X10351015Y-21831722D01*
X10351015Y-21831722D02*
X10351015Y-21936484D01*
X10741491Y-21726960D02*
X10570063Y-21984103D01*
X10998634Y-21736484D02*
X11017682Y-21736484D01*
X11017682Y-21736484D02*
X11036729Y-21746008D01*
X11036729Y-21746008D02*
X11046253Y-21755531D01*
X11046253Y-21755531D02*
X11055777Y-21774579D01*
X11055777Y-21774579D02*
X11065301Y-21812674D01*
X11065301Y-21812674D02*
X11065301Y-21860293D01*
X11065301Y-21860293D02*
X11055777Y-21898389D01*
X11055777Y-21898389D02*
X11046253Y-21917436D01*
X11046253Y-21917436D02*
X11036729Y-21926960D01*
X11036729Y-21926960D02*
X11017682Y-21936484D01*
X11017682Y-21936484D02*
X10998634Y-21936484D01*
X10998634Y-21936484D02*
X10979587Y-21926960D01*
X10979587Y-21926960D02*
X10970063Y-21917436D01*
X10970063Y-21917436D02*
X10960539Y-21898389D01*
X10960539Y-21898389D02*
X10951015Y-21860293D01*
X10951015Y-21860293D02*
X10951015Y-21812674D01*
X10951015Y-21812674D02*
X10960539Y-21774579D01*
X10960539Y-21774579D02*
X10970063Y-21755531D01*
X10970063Y-21755531D02*
X10979587Y-21746008D01*
X10979587Y-21746008D02*
X10998634Y-21736484D01*
X11151015Y-21917436D02*
X11160539Y-21926960D01*
X11160539Y-21926960D02*
X11151015Y-21936484D01*
X11151015Y-21936484D02*
X11141491Y-21926960D01*
X11141491Y-21926960D02*
X11151015Y-21917436D01*
X11151015Y-21917436D02*
X11151015Y-21936484D01*
X11284348Y-21736484D02*
X11303396Y-21736484D01*
X11303396Y-21736484D02*
X11322444Y-21746008D01*
X11322444Y-21746008D02*
X11331967Y-21755531D01*
X11331967Y-21755531D02*
X11341491Y-21774579D01*
X11341491Y-21774579D02*
X11351015Y-21812674D01*
X11351015Y-21812674D02*
X11351015Y-21860293D01*
X11351015Y-21860293D02*
X11341491Y-21898389D01*
X11341491Y-21898389D02*
X11331967Y-21917436D01*
X11331967Y-21917436D02*
X11322444Y-21926960D01*
X11322444Y-21926960D02*
X11303396Y-21936484D01*
X11303396Y-21936484D02*
X11284348Y-21936484D01*
X11284348Y-21936484D02*
X11265301Y-21926960D01*
X11265301Y-21926960D02*
X11255777Y-21917436D01*
X11255777Y-21917436D02*
X11246253Y-21898389D01*
X11246253Y-21898389D02*
X11236729Y-21860293D01*
X11236729Y-21860293D02*
X11236729Y-21812674D01*
X11236729Y-21812674D02*
X11246253Y-21774579D01*
X11246253Y-21774579D02*
X11255777Y-21755531D01*
X11255777Y-21755531D02*
X11265301Y-21746008D01*
X11265301Y-21746008D02*
X11284348Y-21736484D01*
X11541491Y-21936484D02*
X11427206Y-21936484D01*
X11484348Y-21936484D02*
X11484348Y-21736484D01*
X11484348Y-21736484D02*
X11465301Y-21765055D01*
X11465301Y-21765055D02*
X11446253Y-21784103D01*
X11446253Y-21784103D02*
X11427206Y-21793627D01*
X11731967Y-21936484D02*
X11617682Y-21936484D01*
X11674825Y-21936484D02*
X11674825Y-21736484D01*
X11674825Y-21736484D02*
X11655777Y-21765055D01*
X11655777Y-21765055D02*
X11636729Y-21784103D01*
X11636729Y-21784103D02*
X11617682Y-21793627D01*
X11846253Y-21822198D02*
X11827206Y-21812674D01*
X11827206Y-21812674D02*
X11817682Y-21803150D01*
X11817682Y-21803150D02*
X11808158Y-21784103D01*
X11808158Y-21784103D02*
X11808158Y-21774579D01*
X11808158Y-21774579D02*
X11817682Y-21755531D01*
X11817682Y-21755531D02*
X11827206Y-21746008D01*
X11827206Y-21746008D02*
X11846253Y-21736484D01*
X11846253Y-21736484D02*
X11884348Y-21736484D01*
X11884348Y-21736484D02*
X11903396Y-21746008D01*
X11903396Y-21746008D02*
X11912920Y-21755531D01*
X11912920Y-21755531D02*
X11922444Y-21774579D01*
X11922444Y-21774579D02*
X11922444Y-21784103D01*
X11922444Y-21784103D02*
X11912920Y-21803150D01*
X11912920Y-21803150D02*
X11903396Y-21812674D01*
X11903396Y-21812674D02*
X11884348Y-21822198D01*
X11884348Y-21822198D02*
X11846253Y-21822198D01*
X11846253Y-21822198D02*
X11827206Y-21831722D01*
X11827206Y-21831722D02*
X11817682Y-21841246D01*
X11817682Y-21841246D02*
X11808158Y-21860293D01*
X11808158Y-21860293D02*
X11808158Y-21898389D01*
X11808158Y-21898389D02*
X11817682Y-21917436D01*
X11817682Y-21917436D02*
X11827206Y-21926960D01*
X11827206Y-21926960D02*
X11846253Y-21936484D01*
X11846253Y-21936484D02*
X11884348Y-21936484D01*
X11884348Y-21936484D02*
X11903396Y-21926960D01*
X11903396Y-21926960D02*
X11912920Y-21917436D01*
X11912920Y-21917436D02*
X11922444Y-21898389D01*
X11922444Y-21898389D02*
X11922444Y-21860293D01*
X11922444Y-21860293D02*
X11912920Y-21841246D01*
X11912920Y-21841246D02*
X11903396Y-21831722D01*
X11903396Y-21831722D02*
X11884348Y-21822198D01*
X11998634Y-21736484D02*
X11998634Y-21774579D01*
X12074825Y-21736484D02*
X12074825Y-21774579D01*
X12370063Y-22012674D02*
X12360539Y-22003150D01*
X12360539Y-22003150D02*
X12341491Y-21974579D01*
X12341491Y-21974579D02*
X12331968Y-21955531D01*
X12331968Y-21955531D02*
X12322444Y-21926960D01*
X12322444Y-21926960D02*
X12312920Y-21879341D01*
X12312920Y-21879341D02*
X12312920Y-21841246D01*
X12312920Y-21841246D02*
X12322444Y-21793627D01*
X12322444Y-21793627D02*
X12331968Y-21765055D01*
X12331968Y-21765055D02*
X12341491Y-21746008D01*
X12341491Y-21746008D02*
X12360539Y-21717436D01*
X12360539Y-21717436D02*
X12370063Y-21707912D01*
X12531968Y-21803150D02*
X12531968Y-21936484D01*
X12484348Y-21726960D02*
X12436729Y-21869817D01*
X12436729Y-21869817D02*
X12560539Y-21869817D01*
X12722444Y-21803150D02*
X12722444Y-21936484D01*
X12674825Y-21726960D02*
X12627206Y-21869817D01*
X12627206Y-21869817D02*
X12751015Y-21869817D01*
X12979587Y-21936484D02*
X12979587Y-21736484D01*
X13065301Y-21936484D02*
X13065301Y-21831722D01*
X13065301Y-21831722D02*
X13055777Y-21812674D01*
X13055777Y-21812674D02*
X13036730Y-21803150D01*
X13036730Y-21803150D02*
X13008158Y-21803150D01*
X13008158Y-21803150D02*
X12989110Y-21812674D01*
X12989110Y-21812674D02*
X12979587Y-21822198D01*
X13189110Y-21936484D02*
X13170063Y-21926960D01*
X13170063Y-21926960D02*
X13160539Y-21917436D01*
X13160539Y-21917436D02*
X13151015Y-21898389D01*
X13151015Y-21898389D02*
X13151015Y-21841246D01*
X13151015Y-21841246D02*
X13160539Y-21822198D01*
X13160539Y-21822198D02*
X13170063Y-21812674D01*
X13170063Y-21812674D02*
X13189110Y-21803150D01*
X13189110Y-21803150D02*
X13217682Y-21803150D01*
X13217682Y-21803150D02*
X13236730Y-21812674D01*
X13236730Y-21812674D02*
X13246253Y-21822198D01*
X13246253Y-21822198D02*
X13255777Y-21841246D01*
X13255777Y-21841246D02*
X13255777Y-21898389D01*
X13255777Y-21898389D02*
X13246253Y-21917436D01*
X13246253Y-21917436D02*
X13236730Y-21926960D01*
X13236730Y-21926960D02*
X13217682Y-21936484D01*
X13217682Y-21936484D02*
X13189110Y-21936484D01*
X13370063Y-21936484D02*
X13351015Y-21926960D01*
X13351015Y-21926960D02*
X13341491Y-21907912D01*
X13341491Y-21907912D02*
X13341491Y-21736484D01*
X13522444Y-21926960D02*
X13503396Y-21936484D01*
X13503396Y-21936484D02*
X13465301Y-21936484D01*
X13465301Y-21936484D02*
X13446253Y-21926960D01*
X13446253Y-21926960D02*
X13436730Y-21907912D01*
X13436730Y-21907912D02*
X13436730Y-21831722D01*
X13436730Y-21831722D02*
X13446253Y-21812674D01*
X13446253Y-21812674D02*
X13465301Y-21803150D01*
X13465301Y-21803150D02*
X13503396Y-21803150D01*
X13503396Y-21803150D02*
X13522444Y-21812674D01*
X13522444Y-21812674D02*
X13531968Y-21831722D01*
X13531968Y-21831722D02*
X13531968Y-21850770D01*
X13531968Y-21850770D02*
X13436730Y-21869817D01*
X13608158Y-21926960D02*
X13627206Y-21936484D01*
X13627206Y-21936484D02*
X13665301Y-21936484D01*
X13665301Y-21936484D02*
X13684349Y-21926960D01*
X13684349Y-21926960D02*
X13693872Y-21907912D01*
X13693872Y-21907912D02*
X13693872Y-21898389D01*
X13693872Y-21898389D02*
X13684349Y-21879341D01*
X13684349Y-21879341D02*
X13665301Y-21869817D01*
X13665301Y-21869817D02*
X13636730Y-21869817D01*
X13636730Y-21869817D02*
X13617682Y-21860293D01*
X13617682Y-21860293D02*
X13608158Y-21841246D01*
X13608158Y-21841246D02*
X13608158Y-21831722D01*
X13608158Y-21831722D02*
X13617682Y-21812674D01*
X13617682Y-21812674D02*
X13636730Y-21803150D01*
X13636730Y-21803150D02*
X13665301Y-21803150D01*
X13665301Y-21803150D02*
X13684349Y-21812674D01*
X13760539Y-22012674D02*
X13770063Y-22003150D01*
X13770063Y-22003150D02*
X13789111Y-21974579D01*
X13789111Y-21974579D02*
X13798634Y-21955531D01*
X13798634Y-21955531D02*
X13808158Y-21926960D01*
X13808158Y-21926960D02*
X13817682Y-21879341D01*
X13817682Y-21879341D02*
X13817682Y-21841246D01*
X13817682Y-21841246D02*
X13808158Y-21793627D01*
X13808158Y-21793627D02*
X13798634Y-21765055D01*
X13798634Y-21765055D02*
X13789111Y-21746008D01*
X13789111Y-21746008D02*
X13770063Y-21717436D01*
X13770063Y-21717436D02*
X13760539Y-21707912D01*
D10*
X8795000Y-22109000D02*
G75*
G02*
X8755000Y-22109000I-20000J0D01*
G01*
X8755000Y-22109000D02*
G75*
G02*
X8795000Y-22109000I20000J0D01*
G01*
D11*
X9093872Y-22000484D02*
X9112920Y-22000484D01*
X9112920Y-22000484D02*
X9131967Y-22010008D01*
X9131967Y-22010008D02*
X9141491Y-22019531D01*
X9141491Y-22019531D02*
X9151015Y-22038579D01*
X9151015Y-22038579D02*
X9160539Y-22076674D01*
X9160539Y-22076674D02*
X9160539Y-22124293D01*
X9160539Y-22124293D02*
X9151015Y-22162389D01*
X9151015Y-22162389D02*
X9141491Y-22181436D01*
X9141491Y-22181436D02*
X9131967Y-22190960D01*
X9131967Y-22190960D02*
X9112920Y-22200484D01*
X9112920Y-22200484D02*
X9093872Y-22200484D01*
X9093872Y-22200484D02*
X9074824Y-22190960D01*
X9074824Y-22190960D02*
X9065301Y-22181436D01*
X9065301Y-22181436D02*
X9055777Y-22162389D01*
X9055777Y-22162389D02*
X9046253Y-22124293D01*
X9046253Y-22124293D02*
X9046253Y-22076674D01*
X9046253Y-22076674D02*
X9055777Y-22038579D01*
X9055777Y-22038579D02*
X9065301Y-22019531D01*
X9065301Y-22019531D02*
X9074824Y-22010008D01*
X9074824Y-22010008D02*
X9093872Y-22000484D01*
X9246253Y-22181436D02*
X9255777Y-22190960D01*
X9255777Y-22190960D02*
X9246253Y-22200484D01*
X9246253Y-22200484D02*
X9236729Y-22190960D01*
X9236729Y-22190960D02*
X9246253Y-22181436D01*
X9246253Y-22181436D02*
X9246253Y-22200484D01*
X9427205Y-22067150D02*
X9427205Y-22200484D01*
X9379586Y-21990960D02*
X9331967Y-22133817D01*
X9331967Y-22133817D02*
X9455777Y-22133817D01*
X9570063Y-22000484D02*
X9589110Y-22000484D01*
X9589110Y-22000484D02*
X9608158Y-22010008D01*
X9608158Y-22010008D02*
X9617682Y-22019531D01*
X9617682Y-22019531D02*
X9627205Y-22038579D01*
X9627205Y-22038579D02*
X9636729Y-22076674D01*
X9636729Y-22076674D02*
X9636729Y-22124293D01*
X9636729Y-22124293D02*
X9627205Y-22162389D01*
X9627205Y-22162389D02*
X9617682Y-22181436D01*
X9617682Y-22181436D02*
X9608158Y-22190960D01*
X9608158Y-22190960D02*
X9589110Y-22200484D01*
X9589110Y-22200484D02*
X9570063Y-22200484D01*
X9570063Y-22200484D02*
X9551015Y-22190960D01*
X9551015Y-22190960D02*
X9541491Y-22181436D01*
X9541491Y-22181436D02*
X9531967Y-22162389D01*
X9531967Y-22162389D02*
X9522444Y-22124293D01*
X9522444Y-22124293D02*
X9522444Y-22076674D01*
X9522444Y-22076674D02*
X9531967Y-22038579D01*
X9531967Y-22038579D02*
X9541491Y-22019531D01*
X9541491Y-22019531D02*
X9551015Y-22010008D01*
X9551015Y-22010008D02*
X9570063Y-22000484D01*
X9760539Y-22000484D02*
X9779586Y-22000484D01*
X9779586Y-22000484D02*
X9798634Y-22010008D01*
X9798634Y-22010008D02*
X9808158Y-22019531D01*
X9808158Y-22019531D02*
X9817682Y-22038579D01*
X9817682Y-22038579D02*
X9827205Y-22076674D01*
X9827205Y-22076674D02*
X9827205Y-22124293D01*
X9827205Y-22124293D02*
X9817682Y-22162389D01*
X9817682Y-22162389D02*
X9808158Y-22181436D01*
X9808158Y-22181436D02*
X9798634Y-22190960D01*
X9798634Y-22190960D02*
X9779586Y-22200484D01*
X9779586Y-22200484D02*
X9760539Y-22200484D01*
X9760539Y-22200484D02*
X9741491Y-22190960D01*
X9741491Y-22190960D02*
X9731967Y-22181436D01*
X9731967Y-22181436D02*
X9722444Y-22162389D01*
X9722444Y-22162389D02*
X9712920Y-22124293D01*
X9712920Y-22124293D02*
X9712920Y-22076674D01*
X9712920Y-22076674D02*
X9722444Y-22038579D01*
X9722444Y-22038579D02*
X9731967Y-22019531D01*
X9731967Y-22019531D02*
X9741491Y-22010008D01*
X9741491Y-22010008D02*
X9760539Y-22000484D01*
X9912920Y-22200484D02*
X9912920Y-22067150D01*
X9912920Y-22086198D02*
X9922444Y-22076674D01*
X9922444Y-22076674D02*
X9941491Y-22067150D01*
X9941491Y-22067150D02*
X9970063Y-22067150D01*
X9970063Y-22067150D02*
X9989110Y-22076674D01*
X9989110Y-22076674D02*
X9998634Y-22095722D01*
X9998634Y-22095722D02*
X9998634Y-22200484D01*
X9998634Y-22095722D02*
X10008158Y-22076674D01*
X10008158Y-22076674D02*
X10027205Y-22067150D01*
X10027205Y-22067150D02*
X10055777Y-22067150D01*
X10055777Y-22067150D02*
X10074825Y-22076674D01*
X10074825Y-22076674D02*
X10084348Y-22095722D01*
X10084348Y-22095722D02*
X10084348Y-22200484D01*
X10179586Y-22200484D02*
X10179586Y-22067150D01*
X10179586Y-22086198D02*
X10189110Y-22076674D01*
X10189110Y-22076674D02*
X10208158Y-22067150D01*
X10208158Y-22067150D02*
X10236729Y-22067150D01*
X10236729Y-22067150D02*
X10255777Y-22076674D01*
X10255777Y-22076674D02*
X10265301Y-22095722D01*
X10265301Y-22095722D02*
X10265301Y-22200484D01*
X10265301Y-22095722D02*
X10274825Y-22076674D01*
X10274825Y-22076674D02*
X10293872Y-22067150D01*
X10293872Y-22067150D02*
X10322444Y-22067150D01*
X10322444Y-22067150D02*
X10341491Y-22076674D01*
X10341491Y-22076674D02*
X10351015Y-22095722D01*
X10351015Y-22095722D02*
X10351015Y-22200484D01*
X10741491Y-21990960D02*
X10570063Y-22248103D01*
X10998634Y-22000484D02*
X11017682Y-22000484D01*
X11017682Y-22000484D02*
X11036729Y-22010008D01*
X11036729Y-22010008D02*
X11046253Y-22019531D01*
X11046253Y-22019531D02*
X11055777Y-22038579D01*
X11055777Y-22038579D02*
X11065301Y-22076674D01*
X11065301Y-22076674D02*
X11065301Y-22124293D01*
X11065301Y-22124293D02*
X11055777Y-22162389D01*
X11055777Y-22162389D02*
X11046253Y-22181436D01*
X11046253Y-22181436D02*
X11036729Y-22190960D01*
X11036729Y-22190960D02*
X11017682Y-22200484D01*
X11017682Y-22200484D02*
X10998634Y-22200484D01*
X10998634Y-22200484D02*
X10979587Y-22190960D01*
X10979587Y-22190960D02*
X10970063Y-22181436D01*
X10970063Y-22181436D02*
X10960539Y-22162389D01*
X10960539Y-22162389D02*
X10951015Y-22124293D01*
X10951015Y-22124293D02*
X10951015Y-22076674D01*
X10951015Y-22076674D02*
X10960539Y-22038579D01*
X10960539Y-22038579D02*
X10970063Y-22019531D01*
X10970063Y-22019531D02*
X10979587Y-22010008D01*
X10979587Y-22010008D02*
X10998634Y-22000484D01*
X11151015Y-22181436D02*
X11160539Y-22190960D01*
X11160539Y-22190960D02*
X11151015Y-22200484D01*
X11151015Y-22200484D02*
X11141491Y-22190960D01*
X11141491Y-22190960D02*
X11151015Y-22181436D01*
X11151015Y-22181436D02*
X11151015Y-22200484D01*
X11284348Y-22000484D02*
X11303396Y-22000484D01*
X11303396Y-22000484D02*
X11322444Y-22010008D01*
X11322444Y-22010008D02*
X11331967Y-22019531D01*
X11331967Y-22019531D02*
X11341491Y-22038579D01*
X11341491Y-22038579D02*
X11351015Y-22076674D01*
X11351015Y-22076674D02*
X11351015Y-22124293D01*
X11351015Y-22124293D02*
X11341491Y-22162389D01*
X11341491Y-22162389D02*
X11331967Y-22181436D01*
X11331967Y-22181436D02*
X11322444Y-22190960D01*
X11322444Y-22190960D02*
X11303396Y-22200484D01*
X11303396Y-22200484D02*
X11284348Y-22200484D01*
X11284348Y-22200484D02*
X11265301Y-22190960D01*
X11265301Y-22190960D02*
X11255777Y-22181436D01*
X11255777Y-22181436D02*
X11246253Y-22162389D01*
X11246253Y-22162389D02*
X11236729Y-22124293D01*
X11236729Y-22124293D02*
X11236729Y-22076674D01*
X11236729Y-22076674D02*
X11246253Y-22038579D01*
X11246253Y-22038579D02*
X11255777Y-22019531D01*
X11255777Y-22019531D02*
X11265301Y-22010008D01*
X11265301Y-22010008D02*
X11284348Y-22000484D01*
X11541491Y-22200484D02*
X11427206Y-22200484D01*
X11484348Y-22200484D02*
X11484348Y-22000484D01*
X11484348Y-22000484D02*
X11465301Y-22029055D01*
X11465301Y-22029055D02*
X11446253Y-22048103D01*
X11446253Y-22048103D02*
X11427206Y-22057627D01*
X11722444Y-22000484D02*
X11627206Y-22000484D01*
X11627206Y-22000484D02*
X11617682Y-22095722D01*
X11617682Y-22095722D02*
X11627206Y-22086198D01*
X11627206Y-22086198D02*
X11646253Y-22076674D01*
X11646253Y-22076674D02*
X11693872Y-22076674D01*
X11693872Y-22076674D02*
X11712920Y-22086198D01*
X11712920Y-22086198D02*
X11722444Y-22095722D01*
X11722444Y-22095722D02*
X11731967Y-22114770D01*
X11731967Y-22114770D02*
X11731967Y-22162389D01*
X11731967Y-22162389D02*
X11722444Y-22181436D01*
X11722444Y-22181436D02*
X11712920Y-22190960D01*
X11712920Y-22190960D02*
X11693872Y-22200484D01*
X11693872Y-22200484D02*
X11646253Y-22200484D01*
X11646253Y-22200484D02*
X11627206Y-22190960D01*
X11627206Y-22190960D02*
X11617682Y-22181436D01*
X11798634Y-22000484D02*
X11931967Y-22000484D01*
X11931967Y-22000484D02*
X11846253Y-22200484D01*
X11998634Y-22000484D02*
X11998634Y-22038579D01*
X12074825Y-22000484D02*
X12074825Y-22038579D01*
X12370063Y-22276674D02*
X12360539Y-22267150D01*
X12360539Y-22267150D02*
X12341491Y-22238579D01*
X12341491Y-22238579D02*
X12331968Y-22219531D01*
X12331968Y-22219531D02*
X12322444Y-22190960D01*
X12322444Y-22190960D02*
X12312920Y-22143341D01*
X12312920Y-22143341D02*
X12312920Y-22105246D01*
X12312920Y-22105246D02*
X12322444Y-22057627D01*
X12322444Y-22057627D02*
X12331968Y-22029055D01*
X12331968Y-22029055D02*
X12341491Y-22010008D01*
X12341491Y-22010008D02*
X12360539Y-21981436D01*
X12360539Y-21981436D02*
X12370063Y-21971912D01*
X12427206Y-22000484D02*
X12560539Y-22000484D01*
X12560539Y-22000484D02*
X12474825Y-22200484D01*
X12789110Y-22200484D02*
X12789110Y-22000484D01*
X12874825Y-22200484D02*
X12874825Y-22095722D01*
X12874825Y-22095722D02*
X12865301Y-22076674D01*
X12865301Y-22076674D02*
X12846253Y-22067150D01*
X12846253Y-22067150D02*
X12817682Y-22067150D01*
X12817682Y-22067150D02*
X12798634Y-22076674D01*
X12798634Y-22076674D02*
X12789110Y-22086198D01*
X12998634Y-22200484D02*
X12979587Y-22190960D01*
X12979587Y-22190960D02*
X12970063Y-22181436D01*
X12970063Y-22181436D02*
X12960539Y-22162389D01*
X12960539Y-22162389D02*
X12960539Y-22105246D01*
X12960539Y-22105246D02*
X12970063Y-22086198D01*
X12970063Y-22086198D02*
X12979587Y-22076674D01*
X12979587Y-22076674D02*
X12998634Y-22067150D01*
X12998634Y-22067150D02*
X13027206Y-22067150D01*
X13027206Y-22067150D02*
X13046253Y-22076674D01*
X13046253Y-22076674D02*
X13055777Y-22086198D01*
X13055777Y-22086198D02*
X13065301Y-22105246D01*
X13065301Y-22105246D02*
X13065301Y-22162389D01*
X13065301Y-22162389D02*
X13055777Y-22181436D01*
X13055777Y-22181436D02*
X13046253Y-22190960D01*
X13046253Y-22190960D02*
X13027206Y-22200484D01*
X13027206Y-22200484D02*
X12998634Y-22200484D01*
X13179587Y-22200484D02*
X13160539Y-22190960D01*
X13160539Y-22190960D02*
X13151015Y-22171912D01*
X13151015Y-22171912D02*
X13151015Y-22000484D01*
X13331968Y-22190960D02*
X13312920Y-22200484D01*
X13312920Y-22200484D02*
X13274825Y-22200484D01*
X13274825Y-22200484D02*
X13255777Y-22190960D01*
X13255777Y-22190960D02*
X13246253Y-22171912D01*
X13246253Y-22171912D02*
X13246253Y-22095722D01*
X13246253Y-22095722D02*
X13255777Y-22076674D01*
X13255777Y-22076674D02*
X13274825Y-22067150D01*
X13274825Y-22067150D02*
X13312920Y-22067150D01*
X13312920Y-22067150D02*
X13331968Y-22076674D01*
X13331968Y-22076674D02*
X13341491Y-22095722D01*
X13341491Y-22095722D02*
X13341491Y-22114770D01*
X13341491Y-22114770D02*
X13246253Y-22133817D01*
X13417682Y-22190960D02*
X13436730Y-22200484D01*
X13436730Y-22200484D02*
X13474825Y-22200484D01*
X13474825Y-22200484D02*
X13493872Y-22190960D01*
X13493872Y-22190960D02*
X13503396Y-22171912D01*
X13503396Y-22171912D02*
X13503396Y-22162389D01*
X13503396Y-22162389D02*
X13493872Y-22143341D01*
X13493872Y-22143341D02*
X13474825Y-22133817D01*
X13474825Y-22133817D02*
X13446253Y-22133817D01*
X13446253Y-22133817D02*
X13427206Y-22124293D01*
X13427206Y-22124293D02*
X13417682Y-22105246D01*
X13417682Y-22105246D02*
X13417682Y-22095722D01*
X13417682Y-22095722D02*
X13427206Y-22076674D01*
X13427206Y-22076674D02*
X13446253Y-22067150D01*
X13446253Y-22067150D02*
X13474825Y-22067150D01*
X13474825Y-22067150D02*
X13493872Y-22076674D01*
X13570063Y-22276674D02*
X13579587Y-22267150D01*
X13579587Y-22267150D02*
X13598634Y-22238579D01*
X13598634Y-22238579D02*
X13608158Y-22219531D01*
X13608158Y-22219531D02*
X13617682Y-22190960D01*
X13617682Y-22190960D02*
X13627206Y-22143341D01*
X13627206Y-22143341D02*
X13627206Y-22105246D01*
X13627206Y-22105246D02*
X13617682Y-22057627D01*
X13617682Y-22057627D02*
X13608158Y-22029055D01*
X13608158Y-22029055D02*
X13598634Y-22010008D01*
X13598634Y-22010008D02*
X13579587Y-21981436D01*
X13579587Y-21981436D02*
X13570063Y-21971912D01*
D10*
X8765000Y-22343000D02*
X8765000Y-22403000D01*
X8735000Y-22373000D02*
X8795000Y-22373000D01*
D11*
X9093872Y-22264484D02*
X9112920Y-22264484D01*
X9112920Y-22264484D02*
X9131967Y-22274008D01*
X9131967Y-22274008D02*
X9141491Y-22283531D01*
X9141491Y-22283531D02*
X9151015Y-22302579D01*
X9151015Y-22302579D02*
X9160539Y-22340674D01*
X9160539Y-22340674D02*
X9160539Y-22388293D01*
X9160539Y-22388293D02*
X9151015Y-22426388D01*
X9151015Y-22426388D02*
X9141491Y-22445436D01*
X9141491Y-22445436D02*
X9131967Y-22454960D01*
X9131967Y-22454960D02*
X9112920Y-22464484D01*
X9112920Y-22464484D02*
X9093872Y-22464484D01*
X9093872Y-22464484D02*
X9074824Y-22454960D01*
X9074824Y-22454960D02*
X9065301Y-22445436D01*
X9065301Y-22445436D02*
X9055777Y-22426388D01*
X9055777Y-22426388D02*
X9046253Y-22388293D01*
X9046253Y-22388293D02*
X9046253Y-22340674D01*
X9046253Y-22340674D02*
X9055777Y-22302579D01*
X9055777Y-22302579D02*
X9065301Y-22283531D01*
X9065301Y-22283531D02*
X9074824Y-22274008D01*
X9074824Y-22274008D02*
X9093872Y-22264484D01*
X9246253Y-22445436D02*
X9255777Y-22454960D01*
X9255777Y-22454960D02*
X9246253Y-22464484D01*
X9246253Y-22464484D02*
X9236729Y-22454960D01*
X9236729Y-22454960D02*
X9246253Y-22445436D01*
X9246253Y-22445436D02*
X9246253Y-22464484D01*
X9427205Y-22264484D02*
X9389110Y-22264484D01*
X9389110Y-22264484D02*
X9370063Y-22274008D01*
X9370063Y-22274008D02*
X9360539Y-22283531D01*
X9360539Y-22283531D02*
X9341491Y-22312103D01*
X9341491Y-22312103D02*
X9331967Y-22350198D01*
X9331967Y-22350198D02*
X9331967Y-22426388D01*
X9331967Y-22426388D02*
X9341491Y-22445436D01*
X9341491Y-22445436D02*
X9351015Y-22454960D01*
X9351015Y-22454960D02*
X9370063Y-22464484D01*
X9370063Y-22464484D02*
X9408158Y-22464484D01*
X9408158Y-22464484D02*
X9427205Y-22454960D01*
X9427205Y-22454960D02*
X9436729Y-22445436D01*
X9436729Y-22445436D02*
X9446253Y-22426388D01*
X9446253Y-22426388D02*
X9446253Y-22378769D01*
X9446253Y-22378769D02*
X9436729Y-22359722D01*
X9436729Y-22359722D02*
X9427205Y-22350198D01*
X9427205Y-22350198D02*
X9408158Y-22340674D01*
X9408158Y-22340674D02*
X9370063Y-22340674D01*
X9370063Y-22340674D02*
X9351015Y-22350198D01*
X9351015Y-22350198D02*
X9341491Y-22359722D01*
X9341491Y-22359722D02*
X9331967Y-22378769D01*
X9570063Y-22264484D02*
X9589110Y-22264484D01*
X9589110Y-22264484D02*
X9608158Y-22274008D01*
X9608158Y-22274008D02*
X9617682Y-22283531D01*
X9617682Y-22283531D02*
X9627205Y-22302579D01*
X9627205Y-22302579D02*
X9636729Y-22340674D01*
X9636729Y-22340674D02*
X9636729Y-22388293D01*
X9636729Y-22388293D02*
X9627205Y-22426388D01*
X9627205Y-22426388D02*
X9617682Y-22445436D01*
X9617682Y-22445436D02*
X9608158Y-22454960D01*
X9608158Y-22454960D02*
X9589110Y-22464484D01*
X9589110Y-22464484D02*
X9570063Y-22464484D01*
X9570063Y-22464484D02*
X9551015Y-22454960D01*
X9551015Y-22454960D02*
X9541491Y-22445436D01*
X9541491Y-22445436D02*
X9531967Y-22426388D01*
X9531967Y-22426388D02*
X9522444Y-22388293D01*
X9522444Y-22388293D02*
X9522444Y-22340674D01*
X9522444Y-22340674D02*
X9531967Y-22302579D01*
X9531967Y-22302579D02*
X9541491Y-22283531D01*
X9541491Y-22283531D02*
X9551015Y-22274008D01*
X9551015Y-22274008D02*
X9570063Y-22264484D01*
X9760539Y-22264484D02*
X9779586Y-22264484D01*
X9779586Y-22264484D02*
X9798634Y-22274008D01*
X9798634Y-22274008D02*
X9808158Y-22283531D01*
X9808158Y-22283531D02*
X9817682Y-22302579D01*
X9817682Y-22302579D02*
X9827205Y-22340674D01*
X9827205Y-22340674D02*
X9827205Y-22388293D01*
X9827205Y-22388293D02*
X9817682Y-22426388D01*
X9817682Y-22426388D02*
X9808158Y-22445436D01*
X9808158Y-22445436D02*
X9798634Y-22454960D01*
X9798634Y-22454960D02*
X9779586Y-22464484D01*
X9779586Y-22464484D02*
X9760539Y-22464484D01*
X9760539Y-22464484D02*
X9741491Y-22454960D01*
X9741491Y-22454960D02*
X9731967Y-22445436D01*
X9731967Y-22445436D02*
X9722444Y-22426388D01*
X9722444Y-22426388D02*
X9712920Y-22388293D01*
X9712920Y-22388293D02*
X9712920Y-22340674D01*
X9712920Y-22340674D02*
X9722444Y-22302579D01*
X9722444Y-22302579D02*
X9731967Y-22283531D01*
X9731967Y-22283531D02*
X9741491Y-22274008D01*
X9741491Y-22274008D02*
X9760539Y-22264484D01*
X9912920Y-22464484D02*
X9912920Y-22331150D01*
X9912920Y-22350198D02*
X9922444Y-22340674D01*
X9922444Y-22340674D02*
X9941491Y-22331150D01*
X9941491Y-22331150D02*
X9970063Y-22331150D01*
X9970063Y-22331150D02*
X9989110Y-22340674D01*
X9989110Y-22340674D02*
X9998634Y-22359722D01*
X9998634Y-22359722D02*
X9998634Y-22464484D01*
X9998634Y-22359722D02*
X10008158Y-22340674D01*
X10008158Y-22340674D02*
X10027205Y-22331150D01*
X10027205Y-22331150D02*
X10055777Y-22331150D01*
X10055777Y-22331150D02*
X10074825Y-22340674D01*
X10074825Y-22340674D02*
X10084348Y-22359722D01*
X10084348Y-22359722D02*
X10084348Y-22464484D01*
X10179586Y-22464484D02*
X10179586Y-22331150D01*
X10179586Y-22350198D02*
X10189110Y-22340674D01*
X10189110Y-22340674D02*
X10208158Y-22331150D01*
X10208158Y-22331150D02*
X10236729Y-22331150D01*
X10236729Y-22331150D02*
X10255777Y-22340674D01*
X10255777Y-22340674D02*
X10265301Y-22359722D01*
X10265301Y-22359722D02*
X10265301Y-22464484D01*
X10265301Y-22359722D02*
X10274825Y-22340674D01*
X10274825Y-22340674D02*
X10293872Y-22331150D01*
X10293872Y-22331150D02*
X10322444Y-22331150D01*
X10322444Y-22331150D02*
X10341491Y-22340674D01*
X10341491Y-22340674D02*
X10351015Y-22359722D01*
X10351015Y-22359722D02*
X10351015Y-22464484D01*
X10741491Y-22254960D02*
X10570063Y-22512103D01*
X10998634Y-22264484D02*
X11017682Y-22264484D01*
X11017682Y-22264484D02*
X11036729Y-22274008D01*
X11036729Y-22274008D02*
X11046253Y-22283531D01*
X11046253Y-22283531D02*
X11055777Y-22302579D01*
X11055777Y-22302579D02*
X11065301Y-22340674D01*
X11065301Y-22340674D02*
X11065301Y-22388293D01*
X11065301Y-22388293D02*
X11055777Y-22426388D01*
X11055777Y-22426388D02*
X11046253Y-22445436D01*
X11046253Y-22445436D02*
X11036729Y-22454960D01*
X11036729Y-22454960D02*
X11017682Y-22464484D01*
X11017682Y-22464484D02*
X10998634Y-22464484D01*
X10998634Y-22464484D02*
X10979587Y-22454960D01*
X10979587Y-22454960D02*
X10970063Y-22445436D01*
X10970063Y-22445436D02*
X10960539Y-22426388D01*
X10960539Y-22426388D02*
X10951015Y-22388293D01*
X10951015Y-22388293D02*
X10951015Y-22340674D01*
X10951015Y-22340674D02*
X10960539Y-22302579D01*
X10960539Y-22302579D02*
X10970063Y-22283531D01*
X10970063Y-22283531D02*
X10979587Y-22274008D01*
X10979587Y-22274008D02*
X10998634Y-22264484D01*
X11151015Y-22445436D02*
X11160539Y-22454960D01*
X11160539Y-22454960D02*
X11151015Y-22464484D01*
X11151015Y-22464484D02*
X11141491Y-22454960D01*
X11141491Y-22454960D02*
X11151015Y-22445436D01*
X11151015Y-22445436D02*
X11151015Y-22464484D01*
X11284348Y-22264484D02*
X11303396Y-22264484D01*
X11303396Y-22264484D02*
X11322444Y-22274008D01*
X11322444Y-22274008D02*
X11331967Y-22283531D01*
X11331967Y-22283531D02*
X11341491Y-22302579D01*
X11341491Y-22302579D02*
X11351015Y-22340674D01*
X11351015Y-22340674D02*
X11351015Y-22388293D01*
X11351015Y-22388293D02*
X11341491Y-22426388D01*
X11341491Y-22426388D02*
X11331967Y-22445436D01*
X11331967Y-22445436D02*
X11322444Y-22454960D01*
X11322444Y-22454960D02*
X11303396Y-22464484D01*
X11303396Y-22464484D02*
X11284348Y-22464484D01*
X11284348Y-22464484D02*
X11265301Y-22454960D01*
X11265301Y-22454960D02*
X11255777Y-22445436D01*
X11255777Y-22445436D02*
X11246253Y-22426388D01*
X11246253Y-22426388D02*
X11236729Y-22388293D01*
X11236729Y-22388293D02*
X11236729Y-22340674D01*
X11236729Y-22340674D02*
X11246253Y-22302579D01*
X11246253Y-22302579D02*
X11255777Y-22283531D01*
X11255777Y-22283531D02*
X11265301Y-22274008D01*
X11265301Y-22274008D02*
X11284348Y-22264484D01*
X11427206Y-22283531D02*
X11436729Y-22274008D01*
X11436729Y-22274008D02*
X11455777Y-22264484D01*
X11455777Y-22264484D02*
X11503396Y-22264484D01*
X11503396Y-22264484D02*
X11522444Y-22274008D01*
X11522444Y-22274008D02*
X11531967Y-22283531D01*
X11531967Y-22283531D02*
X11541491Y-22302579D01*
X11541491Y-22302579D02*
X11541491Y-22321627D01*
X11541491Y-22321627D02*
X11531967Y-22350198D01*
X11531967Y-22350198D02*
X11417682Y-22464484D01*
X11417682Y-22464484D02*
X11541491Y-22464484D01*
X11608158Y-22264484D02*
X11731967Y-22264484D01*
X11731967Y-22264484D02*
X11665301Y-22340674D01*
X11665301Y-22340674D02*
X11693872Y-22340674D01*
X11693872Y-22340674D02*
X11712920Y-22350198D01*
X11712920Y-22350198D02*
X11722444Y-22359722D01*
X11722444Y-22359722D02*
X11731967Y-22378769D01*
X11731967Y-22378769D02*
X11731967Y-22426388D01*
X11731967Y-22426388D02*
X11722444Y-22445436D01*
X11722444Y-22445436D02*
X11712920Y-22454960D01*
X11712920Y-22454960D02*
X11693872Y-22464484D01*
X11693872Y-22464484D02*
X11636729Y-22464484D01*
X11636729Y-22464484D02*
X11617682Y-22454960D01*
X11617682Y-22454960D02*
X11608158Y-22445436D01*
X11903396Y-22264484D02*
X11865301Y-22264484D01*
X11865301Y-22264484D02*
X11846253Y-22274008D01*
X11846253Y-22274008D02*
X11836729Y-22283531D01*
X11836729Y-22283531D02*
X11817682Y-22312103D01*
X11817682Y-22312103D02*
X11808158Y-22350198D01*
X11808158Y-22350198D02*
X11808158Y-22426388D01*
X11808158Y-22426388D02*
X11817682Y-22445436D01*
X11817682Y-22445436D02*
X11827206Y-22454960D01*
X11827206Y-22454960D02*
X11846253Y-22464484D01*
X11846253Y-22464484D02*
X11884348Y-22464484D01*
X11884348Y-22464484D02*
X11903396Y-22454960D01*
X11903396Y-22454960D02*
X11912920Y-22445436D01*
X11912920Y-22445436D02*
X11922444Y-22426388D01*
X11922444Y-22426388D02*
X11922444Y-22378769D01*
X11922444Y-22378769D02*
X11912920Y-22359722D01*
X11912920Y-22359722D02*
X11903396Y-22350198D01*
X11903396Y-22350198D02*
X11884348Y-22340674D01*
X11884348Y-22340674D02*
X11846253Y-22340674D01*
X11846253Y-22340674D02*
X11827206Y-22350198D01*
X11827206Y-22350198D02*
X11817682Y-22359722D01*
X11817682Y-22359722D02*
X11808158Y-22378769D01*
X11998634Y-22264484D02*
X11998634Y-22302579D01*
X12074825Y-22264484D02*
X12074825Y-22302579D01*
X12370063Y-22540674D02*
X12360539Y-22531150D01*
X12360539Y-22531150D02*
X12341491Y-22502579D01*
X12341491Y-22502579D02*
X12331968Y-22483531D01*
X12331968Y-22483531D02*
X12322444Y-22454960D01*
X12322444Y-22454960D02*
X12312920Y-22407341D01*
X12312920Y-22407341D02*
X12312920Y-22369246D01*
X12312920Y-22369246D02*
X12322444Y-22321627D01*
X12322444Y-22321627D02*
X12331968Y-22293055D01*
X12331968Y-22293055D02*
X12341491Y-22274008D01*
X12341491Y-22274008D02*
X12360539Y-22245436D01*
X12360539Y-22245436D02*
X12370063Y-22235912D01*
X12484348Y-22264484D02*
X12503396Y-22264484D01*
X12503396Y-22264484D02*
X12522444Y-22274008D01*
X12522444Y-22274008D02*
X12531968Y-22283531D01*
X12531968Y-22283531D02*
X12541491Y-22302579D01*
X12541491Y-22302579D02*
X12551015Y-22340674D01*
X12551015Y-22340674D02*
X12551015Y-22388293D01*
X12551015Y-22388293D02*
X12541491Y-22426388D01*
X12541491Y-22426388D02*
X12531968Y-22445436D01*
X12531968Y-22445436D02*
X12522444Y-22454960D01*
X12522444Y-22454960D02*
X12503396Y-22464484D01*
X12503396Y-22464484D02*
X12484348Y-22464484D01*
X12484348Y-22464484D02*
X12465301Y-22454960D01*
X12465301Y-22454960D02*
X12455777Y-22445436D01*
X12455777Y-22445436D02*
X12446253Y-22426388D01*
X12446253Y-22426388D02*
X12436729Y-22388293D01*
X12436729Y-22388293D02*
X12436729Y-22340674D01*
X12436729Y-22340674D02*
X12446253Y-22302579D01*
X12446253Y-22302579D02*
X12455777Y-22283531D01*
X12455777Y-22283531D02*
X12465301Y-22274008D01*
X12465301Y-22274008D02*
X12484348Y-22264484D01*
X12789110Y-22464484D02*
X12789110Y-22264484D01*
X12874825Y-22464484D02*
X12874825Y-22359722D01*
X12874825Y-22359722D02*
X12865301Y-22340674D01*
X12865301Y-22340674D02*
X12846253Y-22331150D01*
X12846253Y-22331150D02*
X12817682Y-22331150D01*
X12817682Y-22331150D02*
X12798634Y-22340674D01*
X12798634Y-22340674D02*
X12789110Y-22350198D01*
X12998634Y-22464484D02*
X12979587Y-22454960D01*
X12979587Y-22454960D02*
X12970063Y-22445436D01*
X12970063Y-22445436D02*
X12960539Y-22426388D01*
X12960539Y-22426388D02*
X12960539Y-22369246D01*
X12960539Y-22369246D02*
X12970063Y-22350198D01*
X12970063Y-22350198D02*
X12979587Y-22340674D01*
X12979587Y-22340674D02*
X12998634Y-22331150D01*
X12998634Y-22331150D02*
X13027206Y-22331150D01*
X13027206Y-22331150D02*
X13046253Y-22340674D01*
X13046253Y-22340674D02*
X13055777Y-22350198D01*
X13055777Y-22350198D02*
X13065301Y-22369246D01*
X13065301Y-22369246D02*
X13065301Y-22426388D01*
X13065301Y-22426388D02*
X13055777Y-22445436D01*
X13055777Y-22445436D02*
X13046253Y-22454960D01*
X13046253Y-22454960D02*
X13027206Y-22464484D01*
X13027206Y-22464484D02*
X12998634Y-22464484D01*
X13179587Y-22464484D02*
X13160539Y-22454960D01*
X13160539Y-22454960D02*
X13151015Y-22435912D01*
X13151015Y-22435912D02*
X13151015Y-22264484D01*
X13331968Y-22454960D02*
X13312920Y-22464484D01*
X13312920Y-22464484D02*
X13274825Y-22464484D01*
X13274825Y-22464484D02*
X13255777Y-22454960D01*
X13255777Y-22454960D02*
X13246253Y-22435912D01*
X13246253Y-22435912D02*
X13246253Y-22359722D01*
X13246253Y-22359722D02*
X13255777Y-22340674D01*
X13255777Y-22340674D02*
X13274825Y-22331150D01*
X13274825Y-22331150D02*
X13312920Y-22331150D01*
X13312920Y-22331150D02*
X13331968Y-22340674D01*
X13331968Y-22340674D02*
X13341491Y-22359722D01*
X13341491Y-22359722D02*
X13341491Y-22378769D01*
X13341491Y-22378769D02*
X13246253Y-22397817D01*
X13417682Y-22454960D02*
X13436730Y-22464484D01*
X13436730Y-22464484D02*
X13474825Y-22464484D01*
X13474825Y-22464484D02*
X13493872Y-22454960D01*
X13493872Y-22454960D02*
X13503396Y-22435912D01*
X13503396Y-22435912D02*
X13503396Y-22426388D01*
X13503396Y-22426388D02*
X13493872Y-22407341D01*
X13493872Y-22407341D02*
X13474825Y-22397817D01*
X13474825Y-22397817D02*
X13446253Y-22397817D01*
X13446253Y-22397817D02*
X13427206Y-22388293D01*
X13427206Y-22388293D02*
X13417682Y-22369246D01*
X13417682Y-22369246D02*
X13417682Y-22359722D01*
X13417682Y-22359722D02*
X13427206Y-22340674D01*
X13427206Y-22340674D02*
X13446253Y-22331150D01*
X13446253Y-22331150D02*
X13474825Y-22331150D01*
X13474825Y-22331150D02*
X13493872Y-22340674D01*
X13741492Y-22388293D02*
X13893873Y-22388293D01*
X13817682Y-22464484D02*
X13817682Y-22312103D01*
X14227206Y-22331150D02*
X14227206Y-22464484D01*
X14179587Y-22254960D02*
X14131968Y-22397817D01*
X14131968Y-22397817D02*
X14255777Y-22397817D01*
X14474825Y-22454960D02*
X14493873Y-22464484D01*
X14493873Y-22464484D02*
X14531968Y-22464484D01*
X14531968Y-22464484D02*
X14551015Y-22454960D01*
X14551015Y-22454960D02*
X14560539Y-22435912D01*
X14560539Y-22435912D02*
X14560539Y-22426388D01*
X14560539Y-22426388D02*
X14551015Y-22407341D01*
X14551015Y-22407341D02*
X14531968Y-22397817D01*
X14531968Y-22397817D02*
X14503396Y-22397817D01*
X14503396Y-22397817D02*
X14484349Y-22388293D01*
X14484349Y-22388293D02*
X14474825Y-22369246D01*
X14474825Y-22369246D02*
X14474825Y-22359722D01*
X14474825Y-22359722D02*
X14484349Y-22340674D01*
X14484349Y-22340674D02*
X14503396Y-22331150D01*
X14503396Y-22331150D02*
X14531968Y-22331150D01*
X14531968Y-22331150D02*
X14551015Y-22340674D01*
X14674825Y-22464484D02*
X14655777Y-22454960D01*
X14655777Y-22454960D02*
X14646254Y-22435912D01*
X14646254Y-22435912D02*
X14646254Y-22264484D01*
X14779587Y-22464484D02*
X14760539Y-22454960D01*
X14760539Y-22454960D02*
X14751015Y-22445436D01*
X14751015Y-22445436D02*
X14741492Y-22426388D01*
X14741492Y-22426388D02*
X14741492Y-22369246D01*
X14741492Y-22369246D02*
X14751015Y-22350198D01*
X14751015Y-22350198D02*
X14760539Y-22340674D01*
X14760539Y-22340674D02*
X14779587Y-22331150D01*
X14779587Y-22331150D02*
X14808158Y-22331150D01*
X14808158Y-22331150D02*
X14827206Y-22340674D01*
X14827206Y-22340674D02*
X14836730Y-22350198D01*
X14836730Y-22350198D02*
X14846254Y-22369246D01*
X14846254Y-22369246D02*
X14846254Y-22426388D01*
X14846254Y-22426388D02*
X14836730Y-22445436D01*
X14836730Y-22445436D02*
X14827206Y-22454960D01*
X14827206Y-22454960D02*
X14808158Y-22464484D01*
X14808158Y-22464484D02*
X14779587Y-22464484D01*
X14903396Y-22331150D02*
X14979587Y-22331150D01*
X14931968Y-22264484D02*
X14931968Y-22435912D01*
X14931968Y-22435912D02*
X14941492Y-22454960D01*
X14941492Y-22454960D02*
X14960539Y-22464484D01*
X14960539Y-22464484D02*
X14979587Y-22464484D01*
X15036730Y-22454960D02*
X15055777Y-22464484D01*
X15055777Y-22464484D02*
X15093873Y-22464484D01*
X15093873Y-22464484D02*
X15112920Y-22454960D01*
X15112920Y-22454960D02*
X15122444Y-22435912D01*
X15122444Y-22435912D02*
X15122444Y-22426388D01*
X15122444Y-22426388D02*
X15112920Y-22407341D01*
X15112920Y-22407341D02*
X15093873Y-22397817D01*
X15093873Y-22397817D02*
X15065301Y-22397817D01*
X15065301Y-22397817D02*
X15046254Y-22388293D01*
X15046254Y-22388293D02*
X15036730Y-22369246D01*
X15036730Y-22369246D02*
X15036730Y-22359722D01*
X15036730Y-22359722D02*
X15046254Y-22340674D01*
X15046254Y-22340674D02*
X15065301Y-22331150D01*
X15065301Y-22331150D02*
X15093873Y-22331150D01*
X15093873Y-22331150D02*
X15112920Y-22340674D01*
X15189111Y-22540674D02*
X15198635Y-22531150D01*
X15198635Y-22531150D02*
X15217682Y-22502579D01*
X15217682Y-22502579D02*
X15227206Y-22483531D01*
X15227206Y-22483531D02*
X15236730Y-22454960D01*
X15236730Y-22454960D02*
X15246254Y-22407341D01*
X15246254Y-22407341D02*
X15246254Y-22369246D01*
X15246254Y-22369246D02*
X15236730Y-22321627D01*
X15236730Y-22321627D02*
X15227206Y-22293055D01*
X15227206Y-22293055D02*
X15217682Y-22274008D01*
X15217682Y-22274008D02*
X15198635Y-22245436D01*
X15198635Y-22245436D02*
X15189111Y-22235912D01*
D10*
X8780356Y-22672356D02*
X8780356Y-22601644D01*
X8709644Y-22601644D01*
X8709644Y-22672356D01*
X8780356Y-22672356D01*
D11*
X9160539Y-22728484D02*
X9046253Y-22728484D01*
X9103396Y-22728484D02*
X9103396Y-22528484D01*
X9103396Y-22528484D02*
X9084348Y-22557055D01*
X9084348Y-22557055D02*
X9065301Y-22576103D01*
X9065301Y-22576103D02*
X9046253Y-22585627D01*
X9246253Y-22709436D02*
X9255777Y-22718960D01*
X9255777Y-22718960D02*
X9246253Y-22728484D01*
X9246253Y-22728484D02*
X9236729Y-22718960D01*
X9236729Y-22718960D02*
X9246253Y-22709436D01*
X9246253Y-22709436D02*
X9246253Y-22728484D01*
X9379586Y-22528484D02*
X9398634Y-22528484D01*
X9398634Y-22528484D02*
X9417682Y-22538008D01*
X9417682Y-22538008D02*
X9427205Y-22547531D01*
X9427205Y-22547531D02*
X9436729Y-22566579D01*
X9436729Y-22566579D02*
X9446253Y-22604674D01*
X9446253Y-22604674D02*
X9446253Y-22652293D01*
X9446253Y-22652293D02*
X9436729Y-22690388D01*
X9436729Y-22690388D02*
X9427205Y-22709436D01*
X9427205Y-22709436D02*
X9417682Y-22718960D01*
X9417682Y-22718960D02*
X9398634Y-22728484D01*
X9398634Y-22728484D02*
X9379586Y-22728484D01*
X9379586Y-22728484D02*
X9360539Y-22718960D01*
X9360539Y-22718960D02*
X9351015Y-22709436D01*
X9351015Y-22709436D02*
X9341491Y-22690388D01*
X9341491Y-22690388D02*
X9331967Y-22652293D01*
X9331967Y-22652293D02*
X9331967Y-22604674D01*
X9331967Y-22604674D02*
X9341491Y-22566579D01*
X9341491Y-22566579D02*
X9351015Y-22547531D01*
X9351015Y-22547531D02*
X9360539Y-22538008D01*
X9360539Y-22538008D02*
X9379586Y-22528484D01*
X9570063Y-22528484D02*
X9589110Y-22528484D01*
X9589110Y-22528484D02*
X9608158Y-22538008D01*
X9608158Y-22538008D02*
X9617682Y-22547531D01*
X9617682Y-22547531D02*
X9627205Y-22566579D01*
X9627205Y-22566579D02*
X9636729Y-22604674D01*
X9636729Y-22604674D02*
X9636729Y-22652293D01*
X9636729Y-22652293D02*
X9627205Y-22690388D01*
X9627205Y-22690388D02*
X9617682Y-22709436D01*
X9617682Y-22709436D02*
X9608158Y-22718960D01*
X9608158Y-22718960D02*
X9589110Y-22728484D01*
X9589110Y-22728484D02*
X9570063Y-22728484D01*
X9570063Y-22728484D02*
X9551015Y-22718960D01*
X9551015Y-22718960D02*
X9541491Y-22709436D01*
X9541491Y-22709436D02*
X9531967Y-22690388D01*
X9531967Y-22690388D02*
X9522444Y-22652293D01*
X9522444Y-22652293D02*
X9522444Y-22604674D01*
X9522444Y-22604674D02*
X9531967Y-22566579D01*
X9531967Y-22566579D02*
X9541491Y-22547531D01*
X9541491Y-22547531D02*
X9551015Y-22538008D01*
X9551015Y-22538008D02*
X9570063Y-22528484D01*
X9760539Y-22528484D02*
X9779586Y-22528484D01*
X9779586Y-22528484D02*
X9798634Y-22538008D01*
X9798634Y-22538008D02*
X9808158Y-22547531D01*
X9808158Y-22547531D02*
X9817682Y-22566579D01*
X9817682Y-22566579D02*
X9827205Y-22604674D01*
X9827205Y-22604674D02*
X9827205Y-22652293D01*
X9827205Y-22652293D02*
X9817682Y-22690388D01*
X9817682Y-22690388D02*
X9808158Y-22709436D01*
X9808158Y-22709436D02*
X9798634Y-22718960D01*
X9798634Y-22718960D02*
X9779586Y-22728484D01*
X9779586Y-22728484D02*
X9760539Y-22728484D01*
X9760539Y-22728484D02*
X9741491Y-22718960D01*
X9741491Y-22718960D02*
X9731967Y-22709436D01*
X9731967Y-22709436D02*
X9722444Y-22690388D01*
X9722444Y-22690388D02*
X9712920Y-22652293D01*
X9712920Y-22652293D02*
X9712920Y-22604674D01*
X9712920Y-22604674D02*
X9722444Y-22566579D01*
X9722444Y-22566579D02*
X9731967Y-22547531D01*
X9731967Y-22547531D02*
X9741491Y-22538008D01*
X9741491Y-22538008D02*
X9760539Y-22528484D01*
X9912920Y-22728484D02*
X9912920Y-22595150D01*
X9912920Y-22614198D02*
X9922444Y-22604674D01*
X9922444Y-22604674D02*
X9941491Y-22595150D01*
X9941491Y-22595150D02*
X9970063Y-22595150D01*
X9970063Y-22595150D02*
X9989110Y-22604674D01*
X9989110Y-22604674D02*
X9998634Y-22623722D01*
X9998634Y-22623722D02*
X9998634Y-22728484D01*
X9998634Y-22623722D02*
X10008158Y-22604674D01*
X10008158Y-22604674D02*
X10027205Y-22595150D01*
X10027205Y-22595150D02*
X10055777Y-22595150D01*
X10055777Y-22595150D02*
X10074825Y-22604674D01*
X10074825Y-22604674D02*
X10084348Y-22623722D01*
X10084348Y-22623722D02*
X10084348Y-22728484D01*
X10179586Y-22728484D02*
X10179586Y-22595150D01*
X10179586Y-22614198D02*
X10189110Y-22604674D01*
X10189110Y-22604674D02*
X10208158Y-22595150D01*
X10208158Y-22595150D02*
X10236729Y-22595150D01*
X10236729Y-22595150D02*
X10255777Y-22604674D01*
X10255777Y-22604674D02*
X10265301Y-22623722D01*
X10265301Y-22623722D02*
X10265301Y-22728484D01*
X10265301Y-22623722D02*
X10274825Y-22604674D01*
X10274825Y-22604674D02*
X10293872Y-22595150D01*
X10293872Y-22595150D02*
X10322444Y-22595150D01*
X10322444Y-22595150D02*
X10341491Y-22604674D01*
X10341491Y-22604674D02*
X10351015Y-22623722D01*
X10351015Y-22623722D02*
X10351015Y-22728484D01*
X10741491Y-22518960D02*
X10570063Y-22776103D01*
X10998634Y-22528484D02*
X11017682Y-22528484D01*
X11017682Y-22528484D02*
X11036729Y-22538008D01*
X11036729Y-22538008D02*
X11046253Y-22547531D01*
X11046253Y-22547531D02*
X11055777Y-22566579D01*
X11055777Y-22566579D02*
X11065301Y-22604674D01*
X11065301Y-22604674D02*
X11065301Y-22652293D01*
X11065301Y-22652293D02*
X11055777Y-22690388D01*
X11055777Y-22690388D02*
X11046253Y-22709436D01*
X11046253Y-22709436D02*
X11036729Y-22718960D01*
X11036729Y-22718960D02*
X11017682Y-22728484D01*
X11017682Y-22728484D02*
X10998634Y-22728484D01*
X10998634Y-22728484D02*
X10979587Y-22718960D01*
X10979587Y-22718960D02*
X10970063Y-22709436D01*
X10970063Y-22709436D02*
X10960539Y-22690388D01*
X10960539Y-22690388D02*
X10951015Y-22652293D01*
X10951015Y-22652293D02*
X10951015Y-22604674D01*
X10951015Y-22604674D02*
X10960539Y-22566579D01*
X10960539Y-22566579D02*
X10970063Y-22547531D01*
X10970063Y-22547531D02*
X10979587Y-22538008D01*
X10979587Y-22538008D02*
X10998634Y-22528484D01*
X11151015Y-22709436D02*
X11160539Y-22718960D01*
X11160539Y-22718960D02*
X11151015Y-22728484D01*
X11151015Y-22728484D02*
X11141491Y-22718960D01*
X11141491Y-22718960D02*
X11151015Y-22709436D01*
X11151015Y-22709436D02*
X11151015Y-22728484D01*
X11284348Y-22528484D02*
X11303396Y-22528484D01*
X11303396Y-22528484D02*
X11322444Y-22538008D01*
X11322444Y-22538008D02*
X11331967Y-22547531D01*
X11331967Y-22547531D02*
X11341491Y-22566579D01*
X11341491Y-22566579D02*
X11351015Y-22604674D01*
X11351015Y-22604674D02*
X11351015Y-22652293D01*
X11351015Y-22652293D02*
X11341491Y-22690388D01*
X11341491Y-22690388D02*
X11331967Y-22709436D01*
X11331967Y-22709436D02*
X11322444Y-22718960D01*
X11322444Y-22718960D02*
X11303396Y-22728484D01*
X11303396Y-22728484D02*
X11284348Y-22728484D01*
X11284348Y-22728484D02*
X11265301Y-22718960D01*
X11265301Y-22718960D02*
X11255777Y-22709436D01*
X11255777Y-22709436D02*
X11246253Y-22690388D01*
X11246253Y-22690388D02*
X11236729Y-22652293D01*
X11236729Y-22652293D02*
X11236729Y-22604674D01*
X11236729Y-22604674D02*
X11246253Y-22566579D01*
X11246253Y-22566579D02*
X11255777Y-22547531D01*
X11255777Y-22547531D02*
X11265301Y-22538008D01*
X11265301Y-22538008D02*
X11284348Y-22528484D01*
X11417682Y-22528484D02*
X11541491Y-22528484D01*
X11541491Y-22528484D02*
X11474825Y-22604674D01*
X11474825Y-22604674D02*
X11503396Y-22604674D01*
X11503396Y-22604674D02*
X11522444Y-22614198D01*
X11522444Y-22614198D02*
X11531967Y-22623722D01*
X11531967Y-22623722D02*
X11541491Y-22642769D01*
X11541491Y-22642769D02*
X11541491Y-22690388D01*
X11541491Y-22690388D02*
X11531967Y-22709436D01*
X11531967Y-22709436D02*
X11522444Y-22718960D01*
X11522444Y-22718960D02*
X11503396Y-22728484D01*
X11503396Y-22728484D02*
X11446253Y-22728484D01*
X11446253Y-22728484D02*
X11427206Y-22718960D01*
X11427206Y-22718960D02*
X11417682Y-22709436D01*
X11636729Y-22728484D02*
X11674825Y-22728484D01*
X11674825Y-22728484D02*
X11693872Y-22718960D01*
X11693872Y-22718960D02*
X11703396Y-22709436D01*
X11703396Y-22709436D02*
X11722444Y-22680865D01*
X11722444Y-22680865D02*
X11731967Y-22642769D01*
X11731967Y-22642769D02*
X11731967Y-22566579D01*
X11731967Y-22566579D02*
X11722444Y-22547531D01*
X11722444Y-22547531D02*
X11712920Y-22538008D01*
X11712920Y-22538008D02*
X11693872Y-22528484D01*
X11693872Y-22528484D02*
X11655777Y-22528484D01*
X11655777Y-22528484D02*
X11636729Y-22538008D01*
X11636729Y-22538008D02*
X11627206Y-22547531D01*
X11627206Y-22547531D02*
X11617682Y-22566579D01*
X11617682Y-22566579D02*
X11617682Y-22614198D01*
X11617682Y-22614198D02*
X11627206Y-22633246D01*
X11627206Y-22633246D02*
X11636729Y-22642769D01*
X11636729Y-22642769D02*
X11655777Y-22652293D01*
X11655777Y-22652293D02*
X11693872Y-22652293D01*
X11693872Y-22652293D02*
X11712920Y-22642769D01*
X11712920Y-22642769D02*
X11722444Y-22633246D01*
X11722444Y-22633246D02*
X11731967Y-22614198D01*
X11903396Y-22595150D02*
X11903396Y-22728484D01*
X11855777Y-22518960D02*
X11808158Y-22661817D01*
X11808158Y-22661817D02*
X11931967Y-22661817D01*
X11998634Y-22528484D02*
X11998634Y-22566579D01*
X12074825Y-22528484D02*
X12074825Y-22566579D01*
X12370063Y-22804674D02*
X12360539Y-22795150D01*
X12360539Y-22795150D02*
X12341491Y-22766579D01*
X12341491Y-22766579D02*
X12331968Y-22747531D01*
X12331968Y-22747531D02*
X12322444Y-22718960D01*
X12322444Y-22718960D02*
X12312920Y-22671341D01*
X12312920Y-22671341D02*
X12312920Y-22633246D01*
X12312920Y-22633246D02*
X12322444Y-22585627D01*
X12322444Y-22585627D02*
X12331968Y-22557055D01*
X12331968Y-22557055D02*
X12341491Y-22538008D01*
X12341491Y-22538008D02*
X12360539Y-22509436D01*
X12360539Y-22509436D02*
X12370063Y-22499912D01*
X12427206Y-22528484D02*
X12551015Y-22528484D01*
X12551015Y-22528484D02*
X12484348Y-22604674D01*
X12484348Y-22604674D02*
X12512920Y-22604674D01*
X12512920Y-22604674D02*
X12531968Y-22614198D01*
X12531968Y-22614198D02*
X12541491Y-22623722D01*
X12541491Y-22623722D02*
X12551015Y-22642769D01*
X12551015Y-22642769D02*
X12551015Y-22690388D01*
X12551015Y-22690388D02*
X12541491Y-22709436D01*
X12541491Y-22709436D02*
X12531968Y-22718960D01*
X12531968Y-22718960D02*
X12512920Y-22728484D01*
X12512920Y-22728484D02*
X12455777Y-22728484D01*
X12455777Y-22728484D02*
X12436729Y-22718960D01*
X12436729Y-22718960D02*
X12427206Y-22709436D01*
X12789110Y-22728484D02*
X12789110Y-22528484D01*
X12874825Y-22728484D02*
X12874825Y-22623722D01*
X12874825Y-22623722D02*
X12865301Y-22604674D01*
X12865301Y-22604674D02*
X12846253Y-22595150D01*
X12846253Y-22595150D02*
X12817682Y-22595150D01*
X12817682Y-22595150D02*
X12798634Y-22604674D01*
X12798634Y-22604674D02*
X12789110Y-22614198D01*
X12998634Y-22728484D02*
X12979587Y-22718960D01*
X12979587Y-22718960D02*
X12970063Y-22709436D01*
X12970063Y-22709436D02*
X12960539Y-22690388D01*
X12960539Y-22690388D02*
X12960539Y-22633246D01*
X12960539Y-22633246D02*
X12970063Y-22614198D01*
X12970063Y-22614198D02*
X12979587Y-22604674D01*
X12979587Y-22604674D02*
X12998634Y-22595150D01*
X12998634Y-22595150D02*
X13027206Y-22595150D01*
X13027206Y-22595150D02*
X13046253Y-22604674D01*
X13046253Y-22604674D02*
X13055777Y-22614198D01*
X13055777Y-22614198D02*
X13065301Y-22633246D01*
X13065301Y-22633246D02*
X13065301Y-22690388D01*
X13065301Y-22690388D02*
X13055777Y-22709436D01*
X13055777Y-22709436D02*
X13046253Y-22718960D01*
X13046253Y-22718960D02*
X13027206Y-22728484D01*
X13027206Y-22728484D02*
X12998634Y-22728484D01*
X13179587Y-22728484D02*
X13160539Y-22718960D01*
X13160539Y-22718960D02*
X13151015Y-22699912D01*
X13151015Y-22699912D02*
X13151015Y-22528484D01*
X13331968Y-22718960D02*
X13312920Y-22728484D01*
X13312920Y-22728484D02*
X13274825Y-22728484D01*
X13274825Y-22728484D02*
X13255777Y-22718960D01*
X13255777Y-22718960D02*
X13246253Y-22699912D01*
X13246253Y-22699912D02*
X13246253Y-22623722D01*
X13246253Y-22623722D02*
X13255777Y-22604674D01*
X13255777Y-22604674D02*
X13274825Y-22595150D01*
X13274825Y-22595150D02*
X13312920Y-22595150D01*
X13312920Y-22595150D02*
X13331968Y-22604674D01*
X13331968Y-22604674D02*
X13341491Y-22623722D01*
X13341491Y-22623722D02*
X13341491Y-22642769D01*
X13341491Y-22642769D02*
X13246253Y-22661817D01*
X13417682Y-22718960D02*
X13436730Y-22728484D01*
X13436730Y-22728484D02*
X13474825Y-22728484D01*
X13474825Y-22728484D02*
X13493872Y-22718960D01*
X13493872Y-22718960D02*
X13503396Y-22699912D01*
X13503396Y-22699912D02*
X13503396Y-22690388D01*
X13503396Y-22690388D02*
X13493872Y-22671341D01*
X13493872Y-22671341D02*
X13474825Y-22661817D01*
X13474825Y-22661817D02*
X13446253Y-22661817D01*
X13446253Y-22661817D02*
X13427206Y-22652293D01*
X13427206Y-22652293D02*
X13417682Y-22633246D01*
X13417682Y-22633246D02*
X13417682Y-22623722D01*
X13417682Y-22623722D02*
X13427206Y-22604674D01*
X13427206Y-22604674D02*
X13446253Y-22595150D01*
X13446253Y-22595150D02*
X13474825Y-22595150D01*
X13474825Y-22595150D02*
X13493872Y-22604674D01*
X13570063Y-22804674D02*
X13579587Y-22795150D01*
X13579587Y-22795150D02*
X13598634Y-22766579D01*
X13598634Y-22766579D02*
X13608158Y-22747531D01*
X13608158Y-22747531D02*
X13617682Y-22718960D01*
X13617682Y-22718960D02*
X13627206Y-22671341D01*
X13627206Y-22671341D02*
X13627206Y-22633246D01*
X13627206Y-22633246D02*
X13617682Y-22585627D01*
X13617682Y-22585627D02*
X13608158Y-22557055D01*
X13608158Y-22557055D02*
X13598634Y-22538008D01*
X13598634Y-22538008D02*
X13579587Y-22509436D01*
X13579587Y-22509436D02*
X13570063Y-22499912D01*
M02*
