%TF.GenerationSoftware,KiCad,Pcbnew,9.0.9-9.0.9~ubuntu24.04.1*%
%TF.CreationDate,2026-10-10T04:13:57+00:00*%
%TF.ProjectId,eclipse-core,65636c69-7073-4652-9d63-6f72652e6b69,rev?*%
%TF.SameCoordinates,Original*%
%TF.FileFunction,Copper,L1,Top*%
%TF.FilePolarity,Positive*%
%FSLAX46Y46*%
G04 Gerber Fmt 4.6, Leading zero omitted, Abs format (unit mm)*
G04 Created by KiCad (PCBNEW 9.0.9-9.0.9~ubuntu24.04.1) date 2026-10-10 04:13:57*
%MOMM*%
%LPD*%
G01*
G04 APERTURE LIST*
G04 Aperture macros list*
%AMRoundRect*
0 Rectangle with rounded corners*
0 $1 Rounding radius*
0 $2 $3 $4 $5 $6 $7 $8 $9 X,Y pos of 4 corners*
0 Add a 4 corners polygon primitive as box body*
4,1,4,$2,$3,$4,$5,$6,$7,$8,$9,$2,$3,0*
0 Add four circle primitives for the rounded corners*
1,1,$1+$1,$2,$3*
1,1,$1+$1,$4,$5*
1,1,$1+$1,$6,$7*
1,1,$1+$1,$8,$9*
0 Add four rect primitives between the rounded corners*
20,1,$1+$1,$2,$3,$4,$5,0*
20,1,$1+$1,$4,$5,$6,$7,0*
20,1,$1+$1,$6,$7,$8,$9,0*
20,1,$1+$1,$8,$9,$2,$3,0*%
%AMFreePoly0*
4,1,51,1.895800,6.420000,3.778100,6.180500,5.633600,5.783300,7.448900,5.231200,9.211300,4.528100,10.908200,3.678900,12.527500,2.689900,14.057700,1.567900,15.488000,0.320900,16.808100,-1.042100,18.008600,-2.511500,19.081100,-4.076800,8.056500,-10.965800,7.603600,-10.304900,7.096700,-9.684400,6.539400,-9.108900,5.935500,-8.582500,5.289400,-8.108700,4.605700,-7.691100,3.889200,-7.332600,
3.145100,-7.035700,2.378600,-6.802600,1.595200,-6.634900,0.800400,-6.533800,0.000000,-6.500000,-0.800400,-6.533800,-1.595200,-6.634900,-2.378600,-6.802600,-3.145100,-7.035700,-3.889200,-7.332600,-4.605700,-7.691100,-5.289400,-8.108700,-5.935500,-8.582500,-6.539400,-9.108900,-7.096700,-9.684400,-7.603600,-10.304900,-8.056500,-10.965800,-19.081100,-4.076800,-18.008600,-2.511500,-16.808100,-1.042100,
-15.488000,0.320900,-14.057700,1.567900,-12.527500,2.689900,-10.908200,3.678900,-9.211300,4.528100,-7.448900,5.231200,-5.633600,5.783300,-3.778100,6.180500,-1.895800,6.420000,0.000000,6.500000,1.895800,6.420000,1.895800,6.420000,$1*%
G04 Aperture macros list end*
%TA.AperFunction,SMDPad,CuDef*%
%ADD10C,14.000000*%
%TD*%
%TA.AperFunction,SMDPad,CuDef*%
%ADD11RoundRect,0.218750X-0.218750X-0.256250X0.218750X-0.256250X0.218750X0.256250X-0.218750X0.256250X0*%
%TD*%
%TA.AperFunction,SMDPad,CuDef*%
%ADD12FreePoly0,0.000000*%
%TD*%
%TA.AperFunction,SMDPad,CuDef*%
%ADD13FreePoly0,240.000000*%
%TD*%
%TA.AperFunction,SMDPad,CuDef*%
%ADD14FreePoly0,120.000000*%
%TD*%
%TA.AperFunction,HeatsinkPad*%
%ADD15O,1.600000X1.000000*%
%TD*%
%TA.AperFunction,HeatsinkPad*%
%ADD16O,2.100000X1.000000*%
%TD*%
%TA.AperFunction,ComponentPad*%
%ADD17R,1.700000X1.700000*%
%TD*%
%TA.AperFunction,ComponentPad*%
%ADD18C,1.700000*%
%TD*%
%TA.AperFunction,ViaPad*%
%ADD19C,0.600000*%
%TD*%
%TA.AperFunction,ViaPad*%
%ADD20C,0.800000*%
%TD*%
%TA.AperFunction,Conductor*%
%ADD21C,0.250000*%
%TD*%
%TA.AperFunction,Conductor*%
%ADD22C,0.500000*%
%TD*%
%TA.AperFunction,Conductor*%
%ADD23C,0.350000*%
%TD*%
G04 APERTURE END LIST*
D10*
%TO.P,E1,1*%
%TO.N,Net-(E1-Pad1)*%
X150000000Y-180000000D03*
%TD*%
D11*
%TO.P,D2,1*%
%TO.N,GND*%
X149212500Y-205000000D03*
%TO.P,D2,2*%
%TO.N,Net-(D2-A)*%
X150787500Y-205000000D03*
%TD*%
D12*
%TO.P,E2,1*%
%TO.N,Net-(E2-Pad1)*%
X150000000Y-164000000D03*
%TD*%
D13*
%TO.P,E3,1*%
%TO.N,Net-(E3-Pad1)*%
X163856406Y-188000000D03*
%TD*%
D14*
%TO.P,E4,1*%
%TO.N,Net-(E4-Pad1)*%
X136143594Y-188000000D03*
%TD*%
D15*
%TO.P,J1,S1*%
%TO.N,GND*%
X221400000Y-145680000D03*
D16*
X217220000Y-145680000D03*
D15*
X221400000Y-154320000D03*
D16*
X217220000Y-154320000D03*
%TD*%
D17*
%TO.P,J3,1*%
%TO.N,+3V3*%
X164000000Y-124000000D03*
D18*
%TO.P,J3,2*%
%TO.N,Net-(J3-Pin_2)*%
X161460000Y-124000000D03*
%TO.P,J3,3*%
%TO.N,GND*%
X158920000Y-124000000D03*
%TD*%
D19*
%TO.N,+3V3*%
X138770500Y-120620500D03*
X142896200Y-121668800D03*
D20*
%TO.N,GND*%
X149507100Y-203908200D03*
X154650000Y-142644600D03*
D19*
%TO.N,Net-(D2-A)*%
X150825000Y-205971700D03*
%TO.N,Net-(D4-K)*%
X123612400Y-117504200D03*
X131752000Y-106904800D03*
%TO.N,Net-(D5-K)*%
X166295000Y-137628800D03*
X160016500Y-120459000D03*
%TO.N,Net-(D6-K)*%
X119572400Y-105446200D03*
X187109500Y-112708000D03*
%TO.N,Net-(D10-K)*%
X98640200Y-137896400D03*
X133639500Y-137896400D03*
%TO.N,Net-(E1-Pad1)*%
X143940000Y-175465200D03*
%TO.N,Net-(E2-Pad1)*%
X151098400Y-156984500D03*
%TO.N,Net-(E3-Pad1)*%
X171714500Y-170558400D03*
%TO.N,Net-(E4-Pad1)*%
X127638000Y-171232100D03*
%TO.N,Net-(J2-Pin_1)*%
X112313600Y-136706500D03*
X133831400Y-108103200D03*
%TO.N,Net-(J2-Pin_4)*%
X109813100Y-169298200D03*
X127638000Y-107885200D03*
%TO.N,Net-(J2-Pin_5)*%
X127265000Y-118543600D03*
X153123500Y-140095600D03*
X146867300Y-141639500D03*
%TO.N,Net-(J2-Pin_7)*%
X105805600Y-137718500D03*
X187103700Y-181996800D03*
%TO.N,Net-(J2-Pin_10)*%
X186721000Y-121833500D03*
X118787400Y-105830300D03*
%TO.N,Net-(J3-Pin_2)*%
X156458900Y-132231800D03*
%TO.N,Net-(U1-DM)*%
X213913300Y-149165800D03*
X205386900Y-148701800D03*
%TO.N,Net-(U1-DP)*%
X205272700Y-146697900D03*
X214861600Y-149750000D03*
%TO.N,Net-(U1-PG)*%
X194509900Y-152470900D03*
X199155600Y-152470900D03*
X162293000Y-152470900D03*
%TO.N,Net-(U3-PA6)*%
X152120200Y-146505900D03*
X156706200Y-149350300D03*
%TO.N,Net-(U3-PB0)*%
X153832100Y-154854800D03*
X183146100Y-179458300D03*
X106707300Y-165631200D03*
%TO.N,Net-(U3-PB1)*%
X145299000Y-119697700D03*
X110969800Y-133774700D03*
X183431000Y-119697700D03*
%TO.N,Net-(U3-PC0)*%
X147496200Y-135080000D03*
X133975900Y-142675400D03*
D20*
%TO.N,VBUS*%
X202000000Y-154124600D03*
X205469600Y-150384200D03*
%TO.N,VIN*%
X126840300Y-138038700D03*
X192025000Y-145796700D03*
X160857100Y-145796700D03*
%TD*%
D21*
%TO.N,+3V3*%
X164000000Y-124000000D02*
X162833300Y-124000000D01*
X162833300Y-123708300D02*
X162833300Y-124000000D01*
X160793800Y-121668800D02*
X162833300Y-123708300D01*
X139818800Y-121668800D02*
X138770500Y-120620500D01*
X142896200Y-121668800D02*
X160793800Y-121668800D01*
X142896200Y-121668800D02*
X139818800Y-121668800D01*
D22*
%TO.N,GND*%
X154650000Y-128270000D02*
X154650000Y-142644600D01*
X149507100Y-203908200D02*
X149212500Y-204202800D01*
X158920000Y-124000000D02*
X154650000Y-128270000D01*
X215708300Y-145680000D02*
X214672900Y-144644600D01*
X149212500Y-204202800D02*
X149212500Y-205000000D01*
X221400000Y-154320000D02*
X217220000Y-154320000D01*
X156650000Y-144644600D02*
X154650000Y-142644600D01*
X217220000Y-145680000D02*
X215708300Y-145680000D01*
X214672900Y-144644600D02*
X156650000Y-144644600D01*
D21*
%TO.N,Net-(D2-A)*%
X150787500Y-205000000D02*
X150787500Y-205934200D01*
X150787500Y-205934200D02*
X150825000Y-205971700D01*
D23*
%TO.N,Net-(D4-K)*%
X131752000Y-109364600D02*
X123612400Y-117504200D01*
X131752000Y-106904800D02*
X131752000Y-109364600D01*
%TO.N,Net-(D5-K)*%
X160016500Y-120459000D02*
X162767100Y-120459000D01*
X166295000Y-123986900D02*
X166295000Y-137628800D01*
X162767100Y-120459000D02*
X166295000Y-123986900D01*
%TO.N,Net-(D6-K)*%
X187109500Y-112708000D02*
X179847700Y-105446200D01*
X179847700Y-105446200D02*
X119572400Y-105446200D01*
D21*
%TO.N,Net-(D10-K)*%
X99454800Y-137081800D02*
X98640200Y-137896400D01*
X126535200Y-137302000D02*
X126487600Y-137349600D01*
X133639500Y-137896400D02*
X133045100Y-137302000D01*
X106069400Y-137081800D02*
X99454800Y-137081800D01*
X126487600Y-137349600D02*
X106337200Y-137349600D01*
X133045100Y-137302000D02*
X126535200Y-137302000D01*
X106337200Y-137349600D02*
X106069400Y-137081800D01*
%TO.N,Net-(E1-Pad1)*%
X150000000Y-180000000D02*
X145465200Y-175465200D01*
X145465200Y-175465200D02*
X143940000Y-175465200D01*
%TO.N,Net-(E2-Pad1)*%
X151098400Y-156984500D02*
X150000000Y-158082900D01*
X150000000Y-158082900D02*
X150000000Y-164000000D01*
%TO.N,Net-(E3-Pad1)*%
X163856400Y-178416500D02*
X171714500Y-170558400D01*
X163856400Y-188000000D02*
X163856400Y-178416500D01*
%TO.N,Net-(E4-Pad1)*%
X127638000Y-171232100D02*
X127638000Y-179494400D01*
X127638000Y-179494400D02*
X136143600Y-188000000D01*
D23*
%TO.N,Net-(J2-Pin_1)*%
X110278200Y-134671100D02*
X110278200Y-131809600D01*
X112313600Y-136706500D02*
X110278200Y-134671100D01*
X133831400Y-108256400D02*
X133831400Y-108103200D01*
X110278200Y-131809600D02*
X133831400Y-108256400D01*
%TO.N,Net-(J2-Pin_4)*%
X97949500Y-157902400D02*
X109345300Y-169298200D01*
X109345300Y-169298200D02*
X109813100Y-169298200D01*
X97949500Y-137573700D02*
X97949500Y-157902400D01*
X127638000Y-107885200D02*
X97949500Y-137573700D01*
D21*
%TO.N,Net-(J2-Pin_5)*%
X131851600Y-118543600D02*
X148275500Y-134967500D01*
X146867400Y-141503700D02*
X146867400Y-141639500D01*
X148275500Y-134967500D02*
X148275500Y-140095600D01*
X153123500Y-140095600D02*
X148275500Y-140095600D01*
X146867400Y-141639500D02*
X146867300Y-141639500D01*
X127265000Y-118543600D02*
X131851600Y-118543600D01*
X148275500Y-140095600D02*
X146867400Y-141503700D01*
D23*
%TO.N,Net-(J2-Pin_7)*%
X158263000Y-153156100D02*
X187103700Y-181996800D01*
X105805600Y-137718500D02*
X121243200Y-153156100D01*
X121243200Y-153156100D02*
X158263000Y-153156100D01*
%TO.N,Net-(J2-Pin_10)*%
X186721000Y-121833500D02*
X171020400Y-106132900D01*
X119090000Y-106132900D02*
X118787400Y-105830300D01*
X171020400Y-106132900D02*
X119090000Y-106132900D01*
D21*
%TO.N,Net-(J3-Pin_2)*%
X156458900Y-129001100D02*
X161460000Y-124000000D01*
X156458900Y-132231800D02*
X156458900Y-129001100D01*
%TO.N,Net-(U1-DM)*%
X205850900Y-149165800D02*
X213913300Y-149165800D01*
X205386900Y-148701800D02*
X205850900Y-149165800D01*
%TO.N,Net-(U1-DP)*%
X214861600Y-149241900D02*
X212317600Y-146697900D01*
X212317600Y-146697900D02*
X205272700Y-146697900D01*
X214861600Y-149750000D02*
X214861600Y-149241900D01*
%TO.N,Net-(U1-PG)*%
X194509900Y-152470900D02*
X162293000Y-152470900D01*
X199155600Y-152470900D02*
X194509900Y-152470900D01*
%TO.N,Net-(U3-PA6)*%
X154964600Y-149350300D02*
X156706200Y-149350300D01*
X152120200Y-146505900D02*
X154964600Y-149350300D01*
%TO.N,Net-(U3-PB0)*%
X117483700Y-154854800D02*
X106707300Y-165631200D01*
X158542600Y-154854800D02*
X153832100Y-154854800D01*
X183146100Y-179458300D02*
X158542600Y-154854800D01*
X153832100Y-154854800D02*
X117483700Y-154854800D01*
%TO.N,Net-(U3-PB1)*%
X145299000Y-119697700D02*
X143510900Y-117909600D01*
X126834900Y-117909600D02*
X110969800Y-133774700D01*
X143510900Y-117909600D02*
X126834900Y-117909600D01*
X145299000Y-119697700D02*
X183431000Y-119697700D01*
%TO.N,Net-(U3-PC0)*%
X141571300Y-135080000D02*
X133975900Y-142675400D01*
X147496200Y-135080000D02*
X141571300Y-135080000D01*
D22*
%TO.N,VBUS*%
X205469600Y-150655000D02*
X205469600Y-150384200D01*
X202000000Y-154124600D02*
X205469600Y-150655000D01*
%TO.N,VIN*%
X160566800Y-145506400D02*
X134308000Y-145506400D01*
X160857100Y-145796700D02*
X160566800Y-145506400D01*
X160857100Y-145796700D02*
X192025000Y-145796700D01*
X134308000Y-145506400D02*
X126840300Y-138038700D01*
%TD*%
%TA.AperFunction,Conductor*%
%TO.N,GND*%
G36*
X161289509Y-89448770D02*
G01*
X161720801Y-89528867D01*
X162004066Y-89581473D01*
X162007115Y-89582078D01*
X162181390Y-89618984D01*
X163514774Y-89901355D01*
X163517694Y-89902012D01*
X165016854Y-90258974D01*
X165019837Y-90259724D01*
X166509549Y-90654141D01*
X166512495Y-90654961D01*
X167991865Y-91086598D01*
X167994782Y-91087489D01*
X169462867Y-91556071D01*
X169465763Y-91557035D01*
X170921664Y-92062274D01*
X170924511Y-92063302D01*
X172287674Y-92574990D01*
X172367268Y-92604867D01*
X172370166Y-92605996D01*
X173798867Y-93183541D01*
X173801669Y-93184715D01*
X175215483Y-93797905D01*
X175218242Y-93799143D01*
X176412353Y-94353007D01*
X176616238Y-94447575D01*
X176619041Y-94448918D01*
X178000306Y-95132169D01*
X178003074Y-95133582D01*
X179366748Y-95851222D01*
X179369481Y-95852704D01*
X180714773Y-96604320D01*
X180717467Y-96605870D01*
X182043469Y-97390951D01*
X182046109Y-97392558D01*
X183352082Y-98210670D01*
X183354641Y-98212318D01*
X184639700Y-99062909D01*
X184642218Y-99064622D01*
X185673140Y-99784797D01*
X185905518Y-99947130D01*
X185908032Y-99948934D01*
X187148873Y-100862872D01*
X187151267Y-100864683D01*
X188368780Y-101809412D01*
X188371155Y-101811302D01*
X188852560Y-102204570D01*
X189564596Y-102786245D01*
X189566978Y-102788241D01*
X190145618Y-103285637D01*
X190690245Y-103753797D01*
X190735581Y-103792767D01*
X190737913Y-103794823D01*
X191880962Y-104828317D01*
X191883241Y-104830430D01*
X193000047Y-105892269D01*
X193002272Y-105894439D01*
X193065872Y-105958019D01*
X193788969Y-106680889D01*
X194092071Y-106983895D01*
X194094229Y-106986107D01*
X194372440Y-107278536D01*
X195156430Y-108102592D01*
X195158544Y-108104871D01*
X196192381Y-109247578D01*
X196194434Y-109249904D01*
X196555246Y-109669385D01*
X197199324Y-110418189D01*
X197201322Y-110420571D01*
X198176619Y-111613683D01*
X198178555Y-111616114D01*
X199123645Y-112833302D01*
X199125516Y-112835774D01*
X199488874Y-113328777D01*
X200039776Y-114076237D01*
X200041584Y-114078756D01*
X200158343Y-114245782D01*
X200924508Y-115341805D01*
X200926256Y-115344375D01*
X201777185Y-116629068D01*
X201778869Y-116631681D01*
X202597375Y-117937373D01*
X202598993Y-117940027D01*
X203384479Y-119265764D01*
X203386030Y-119268457D01*
X203755622Y-119929490D01*
X204095878Y-120538056D01*
X204138086Y-120613546D01*
X204139562Y-120616268D01*
X204263861Y-120852283D01*
X204857628Y-121979712D01*
X204859042Y-121982480D01*
X205542726Y-123363530D01*
X205544070Y-123366333D01*
X206192908Y-124764053D01*
X206194182Y-124766889D01*
X206807807Y-126180490D01*
X206809008Y-126183356D01*
X207386982Y-127611827D01*
X207388112Y-127614723D01*
X207930109Y-129057259D01*
X207931166Y-129060182D01*
X208436844Y-130515872D01*
X208437827Y-130518821D01*
X208906847Y-131986693D01*
X208907756Y-131989665D01*
X209339849Y-133468868D01*
X209340683Y-133471863D01*
X209735551Y-134961390D01*
X209736310Y-134964404D01*
X210093728Y-136463390D01*
X210094411Y-136466422D01*
X210414150Y-137973925D01*
X210414756Y-137976974D01*
X210696589Y-139491909D01*
X210697120Y-139494971D01*
X210940912Y-141016613D01*
X210941365Y-141019688D01*
X211074424Y-142008217D01*
X211133028Y-142443609D01*
X211143091Y-142518366D01*
X211143202Y-142519213D01*
X211144199Y-142527026D01*
X211144199Y-142552727D01*
X211150459Y-142576092D01*
X211151520Y-142584401D01*
X211151498Y-142584537D01*
X211151606Y-142585094D01*
X211154105Y-142605604D01*
X211154105Y-142605606D01*
X211154106Y-142605608D01*
X211165376Y-142631762D01*
X211171492Y-142654587D01*
X211186150Y-142679975D01*
X211189017Y-142686628D01*
X211189020Y-142686633D01*
X211199680Y-142711372D01*
X211199681Y-142711373D01*
X211214802Y-142729602D01*
X211224219Y-142745913D01*
X211248338Y-142770032D01*
X211252020Y-142774470D01*
X211252020Y-142774471D01*
X211273203Y-142800009D01*
X211273205Y-142800010D01*
X211273207Y-142800013D01*
X211288865Y-142810559D01*
X211298786Y-142820480D01*
X211332458Y-142839920D01*
X211336021Y-142842320D01*
X211368726Y-142864348D01*
X211368728Y-142864349D01*
X211382134Y-142868601D01*
X211390112Y-142873207D01*
X211432279Y-142884505D01*
X211478505Y-142899167D01*
X211487742Y-142899365D01*
X211491972Y-142900500D01*
X211540393Y-142900500D01*
X211593645Y-142901647D01*
X211593653Y-142901644D01*
X211595580Y-142901411D01*
X211610582Y-142900500D01*
X222675500Y-142900500D01*
X222742539Y-142920185D01*
X222788294Y-142972989D01*
X222799500Y-143024500D01*
X222799500Y-156975500D01*
X222779815Y-157042539D01*
X222727011Y-157088294D01*
X222675500Y-157099500D01*
X211597887Y-157099500D01*
X211593645Y-157098353D01*
X211540393Y-157099500D01*
X211491972Y-157099500D01*
X211491968Y-157099501D01*
X211489226Y-157099862D01*
X211480212Y-157100549D01*
X211478504Y-157100833D01*
X211434964Y-157114642D01*
X211434963Y-157114641D01*
X211432243Y-157115503D01*
X211390112Y-157126793D01*
X211382140Y-157131394D01*
X211369312Y-157135463D01*
X211369312Y-157135464D01*
X211368736Y-157135646D01*
X211368731Y-157135648D01*
X211336020Y-157157678D01*
X211336021Y-157157679D01*
X211332461Y-157160077D01*
X211298786Y-157179520D01*
X211288866Y-157189438D01*
X211278927Y-157196133D01*
X211278925Y-157196133D01*
X211273212Y-157199981D01*
X211273210Y-157199983D01*
X211273207Y-157199987D01*
X211252015Y-157225533D01*
X211248332Y-157229972D01*
X211224219Y-157254087D01*
X211214804Y-157270392D01*
X211208106Y-157278468D01*
X211208104Y-157278472D01*
X211199682Y-157288625D01*
X211199678Y-157288632D01*
X211189023Y-157313356D01*
X211189024Y-157313357D01*
X211186153Y-157320017D01*
X211171492Y-157345413D01*
X211165376Y-157368236D01*
X211161811Y-157376510D01*
X211161809Y-157376511D01*
X211154107Y-157394387D01*
X211154106Y-157394391D01*
X211151605Y-157414911D01*
X211151518Y-157415608D01*
X211150457Y-157423915D01*
X211144199Y-157447273D01*
X211144199Y-157472939D01*
X211143201Y-157480757D01*
X211143135Y-157480906D01*
X211143088Y-157481616D01*
X210938357Y-159000699D01*
X210937897Y-159003815D01*
X210690073Y-160545657D01*
X210689533Y-160548760D01*
X210402641Y-162083739D01*
X210402023Y-162086828D01*
X210076231Y-163614048D01*
X210075535Y-163617120D01*
X209711053Y-165135590D01*
X209710279Y-165138643D01*
X209307352Y-166647337D01*
X209306501Y-166650370D01*
X208865375Y-168148373D01*
X208864447Y-168151383D01*
X208385407Y-169637721D01*
X208384402Y-169640706D01*
X207867797Y-171114304D01*
X207866718Y-171117263D01*
X207312815Y-172577358D01*
X207311660Y-172580289D01*
X206720875Y-174025782D01*
X206719647Y-174028682D01*
X206092315Y-175458751D01*
X206091013Y-175461619D01*
X205427570Y-176875272D01*
X205426195Y-176878107D01*
X204727077Y-178274421D01*
X204725632Y-178277219D01*
X203991239Y-179655386D01*
X203989722Y-179658147D01*
X203220585Y-181017176D01*
X203218999Y-181019897D01*
X202415579Y-182358969D01*
X202413924Y-182361649D01*
X201576778Y-183679843D01*
X201575056Y-183682481D01*
X200704649Y-184979057D01*
X200702860Y-184981649D01*
X199799852Y-186255627D01*
X199797998Y-186258174D01*
X198862886Y-187508855D01*
X198860968Y-187511353D01*
X197894409Y-188737854D01*
X197892428Y-188740303D01*
X196895037Y-189941849D01*
X196892995Y-189944247D01*
X195865372Y-191120111D01*
X195863269Y-191122456D01*
X194806153Y-192271792D01*
X194803992Y-192274083D01*
X193718005Y-193396218D01*
X193715786Y-193398454D01*
X192601609Y-194492682D01*
X192599333Y-194494860D01*
X191457801Y-195560360D01*
X191455472Y-195562480D01*
X190287182Y-196598699D01*
X190284799Y-196600759D01*
X189090602Y-197606939D01*
X189088168Y-197608938D01*
X187868753Y-198584498D01*
X187866268Y-198586434D01*
X186622525Y-199530662D01*
X186619992Y-199532535D01*
X185352626Y-200444896D01*
X185350047Y-200446703D01*
X184059944Y-201326562D01*
X184057319Y-201328304D01*
X182745258Y-202175128D01*
X182742590Y-202176802D01*
X181409476Y-202990004D01*
X181406767Y-202991610D01*
X180053400Y-203770707D01*
X180050650Y-203772244D01*
X178677922Y-204516719D01*
X178675134Y-204518185D01*
X177283970Y-205227536D01*
X177281146Y-205228931D01*
X175872413Y-205902719D01*
X175869555Y-205904042D01*
X174444145Y-206541839D01*
X174441254Y-206543089D01*
X173000100Y-207144476D01*
X172997178Y-207145652D01*
X171541207Y-207710244D01*
X171538256Y-207711345D01*
X170068441Y-208238763D01*
X170065489Y-208239780D01*
X169371732Y-208469007D01*
X168582739Y-208729700D01*
X168579736Y-208730650D01*
X167084985Y-209182761D01*
X167081958Y-209183634D01*
X165576286Y-209597610D01*
X165573239Y-209598407D01*
X164057438Y-209974030D01*
X164054371Y-209974748D01*
X162529619Y-210311727D01*
X162526535Y-210312368D01*
X160993657Y-210610522D01*
X160990558Y-210611084D01*
X159450607Y-210870205D01*
X159447494Y-210870688D01*
X157901478Y-211090609D01*
X157898354Y-211091013D01*
X156347259Y-211271593D01*
X156344126Y-211271918D01*
X154788876Y-211413049D01*
X154785736Y-211413293D01*
X153227485Y-211514869D01*
X153224340Y-211515034D01*
X151663976Y-211577001D01*
X151660827Y-211577086D01*
X150099397Y-211599399D01*
X150096247Y-211599404D01*
X148534754Y-211582050D01*
X148531605Y-211581975D01*
X146971054Y-211524965D01*
X146967908Y-211524810D01*
X145409343Y-211428183D01*
X145406202Y-211427949D01*
X143850511Y-211291758D01*
X143847377Y-211291443D01*
X142295717Y-211115791D01*
X142292592Y-211115397D01*
X140745884Y-210900387D01*
X140742770Y-210899914D01*
X139201973Y-210645680D01*
X139198872Y-210645127D01*
X137665129Y-210351858D01*
X137662043Y-210351228D01*
X136136154Y-210019077D01*
X136133085Y-210018368D01*
X134616145Y-209647572D01*
X134613095Y-209646785D01*
X133106080Y-209237583D01*
X133103051Y-209236719D01*
X131606895Y-208789366D01*
X131603905Y-208788430D01*
X131113201Y-208628022D01*
X130119639Y-208303233D01*
X130116658Y-208302217D01*
X128645128Y-207779454D01*
X128642174Y-207778362D01*
X127184430Y-207218403D01*
X127181504Y-207217236D01*
X125738448Y-206620429D01*
X125735553Y-206619188D01*
X124308172Y-205985942D01*
X124305309Y-205984629D01*
X122894364Y-205315282D01*
X122891536Y-205313895D01*
X121498175Y-204608990D01*
X121495382Y-204607533D01*
X120120278Y-203867412D01*
X120117524Y-203865884D01*
X118761724Y-203091110D01*
X118759009Y-203089513D01*
X117423259Y-202280511D01*
X117420600Y-202278854D01*
X116105883Y-201436219D01*
X116103253Y-201434486D01*
X114810326Y-200558706D01*
X114807741Y-200556906D01*
X113537537Y-199648612D01*
X113534998Y-199646748D01*
X112288212Y-198706436D01*
X112285721Y-198704507D01*
X111063238Y-197732844D01*
X111060798Y-197730853D01*
X109863430Y-196728488D01*
X109861040Y-196726436D01*
X109718834Y-196601111D01*
X109000648Y-195968177D01*
X108689443Y-195693914D01*
X108687107Y-195691801D01*
X107542177Y-194629913D01*
X107539895Y-194627742D01*
X106879111Y-193982900D01*
X106422276Y-193537086D01*
X106420061Y-193534869D01*
X106286137Y-193397364D01*
X105655624Y-192749990D01*
X105330517Y-192416189D01*
X105328348Y-192413905D01*
X105029718Y-192091286D01*
X104955505Y-192011111D01*
X112796200Y-192011111D01*
X112796200Y-192253688D01*
X112827861Y-192494185D01*
X112890647Y-192728504D01*
X112983473Y-192952605D01*
X112983476Y-192952612D01*
X113104764Y-193162689D01*
X113104766Y-193162692D01*
X113104767Y-193162693D01*
X113252433Y-193355136D01*
X113252439Y-193355143D01*
X113423956Y-193526660D01*
X113423963Y-193526666D01*
X113436120Y-193535994D01*
X113616411Y-193674336D01*
X113826488Y-193795624D01*
X114050600Y-193888454D01*
X114284911Y-193951238D01*
X114465286Y-193974984D01*
X114525411Y-193982900D01*
X114525412Y-193982900D01*
X114767989Y-193982900D01*
X114816088Y-193976567D01*
X115008489Y-193951238D01*
X115242800Y-193888454D01*
X115466912Y-193795624D01*
X115676989Y-193674336D01*
X115869438Y-193526665D01*
X116040965Y-193355138D01*
X116188636Y-193162689D01*
X116309924Y-192952612D01*
X116402754Y-192728500D01*
X116465538Y-192494189D01*
X116497200Y-192253688D01*
X116497200Y-192011112D01*
X116465538Y-191770611D01*
X116402754Y-191536300D01*
X116309924Y-191312188D01*
X116188636Y-191102111D01*
X116040965Y-190909662D01*
X116040960Y-190909656D01*
X115869443Y-190738139D01*
X115869436Y-190738133D01*
X115676993Y-190590467D01*
X115676992Y-190590466D01*
X115676989Y-190590464D01*
X115466912Y-190469176D01*
X115466905Y-190469173D01*
X115242804Y-190376347D01*
X115008485Y-190313561D01*
X114767989Y-190281900D01*
X114767988Y-190281900D01*
X114525412Y-190281900D01*
X114525411Y-190281900D01*
X114284914Y-190313561D01*
X114050595Y-190376347D01*
X113826494Y-190469173D01*
X113826485Y-190469177D01*
X113616406Y-190590467D01*
X113423963Y-190738133D01*
X113423956Y-190738139D01*
X113252439Y-190909656D01*
X113252433Y-190909663D01*
X113104767Y-191102106D01*
X112983477Y-191312185D01*
X112983473Y-191312194D01*
X112890647Y-191536295D01*
X112827861Y-191770614D01*
X112796200Y-192011111D01*
X104955505Y-192011111D01*
X104267549Y-191267891D01*
X104265439Y-191265552D01*
X103234123Y-190093000D01*
X103232073Y-190090609D01*
X102230854Y-188892218D01*
X102228865Y-188889775D01*
X101258417Y-187666351D01*
X101256491Y-187663859D01*
X100455699Y-186599890D01*
X100317399Y-186416138D01*
X100315549Y-186413613D01*
X100276555Y-186358969D01*
X99408476Y-185142477D01*
X99406689Y-185139904D01*
X99362059Y-185073877D01*
X98532193Y-183846135D01*
X98530468Y-183843511D01*
X97689090Y-182527907D01*
X97687466Y-182525294D01*
X96879797Y-181188779D01*
X96878202Y-181186063D01*
X96212163Y-180017877D01*
X96104720Y-179829430D01*
X96103209Y-179826698D01*
X96029853Y-179690084D01*
X95364453Y-178450887D01*
X95363013Y-178448121D01*
X95305067Y-178333300D01*
X94659428Y-177053965D01*
X94658081Y-177051210D01*
X93990134Y-175639634D01*
X93988823Y-175636770D01*
X93356962Y-174208721D01*
X93355724Y-174205824D01*
X92760329Y-172762162D01*
X92759166Y-172759235D01*
X92200667Y-171301009D01*
X92199577Y-171298054D01*
X92093994Y-170999918D01*
X91678227Y-169825916D01*
X91677256Y-169823055D01*
X91193498Y-168338246D01*
X91192567Y-168335260D01*
X91143955Y-168172094D01*
X90746676Y-166838633D01*
X90745839Y-166835687D01*
X90338099Y-165328196D01*
X90337321Y-165325167D01*
X90334398Y-165313159D01*
X89968018Y-163807863D01*
X89967312Y-163804793D01*
X89924876Y-163608915D01*
X89636654Y-162278542D01*
X89636045Y-162275545D01*
X89344261Y-160741386D01*
X89343737Y-160738435D01*
X89091007Y-159197312D01*
X89090538Y-159194200D01*
X89079142Y-159111624D01*
X88877043Y-157647231D01*
X88876666Y-157644217D01*
X88702525Y-156092258D01*
X88702217Y-156089152D01*
X88701754Y-156083801D01*
X88567559Y-154533344D01*
X88567336Y-154530327D01*
X88472235Y-152971553D01*
X88472084Y-152968424D01*
X88471989Y-152965765D01*
X88416608Y-151407812D01*
X88416537Y-151404668D01*
X88411104Y-150868343D01*
X88400719Y-149843080D01*
X88400727Y-149840085D01*
X88424578Y-148278520D01*
X88424664Y-148275454D01*
X88488168Y-146715088D01*
X88488329Y-146712071D01*
X88591447Y-145153799D01*
X88591685Y-145150772D01*
X88734359Y-143595516D01*
X88734668Y-143592563D01*
X88916794Y-142041478D01*
X88917181Y-142038502D01*
X89138640Y-140492587D01*
X89139113Y-140489556D01*
X89399769Y-138949743D01*
X89400303Y-138946813D01*
X89681024Y-137511099D01*
X97474000Y-137511099D01*
X97474000Y-157839799D01*
X97474000Y-157965001D01*
X97506405Y-158085936D01*
X97569005Y-158194364D01*
X109053336Y-169678695D01*
X109161764Y-169741295D01*
X109282699Y-169773700D01*
X109402463Y-169773700D01*
X109464462Y-169790312D01*
X109581316Y-169857777D01*
X109734043Y-169898700D01*
X109734045Y-169898700D01*
X109892155Y-169898700D01*
X109892157Y-169898700D01*
X110044884Y-169857777D01*
X110181816Y-169778720D01*
X110293620Y-169666916D01*
X110372677Y-169529984D01*
X110413600Y-169377257D01*
X110413600Y-169219143D01*
X110372677Y-169066416D01*
X110342789Y-169014648D01*
X110293624Y-168929490D01*
X110293618Y-168929482D01*
X110181817Y-168817681D01*
X110181809Y-168817675D01*
X110044890Y-168738626D01*
X110044886Y-168738624D01*
X110044884Y-168738623D01*
X109892157Y-168697700D01*
X109734043Y-168697700D01*
X109614561Y-168729715D01*
X109581308Y-168738625D01*
X109573801Y-168741735D01*
X109572771Y-168739250D01*
X109517712Y-168752589D01*
X109451693Y-168729715D01*
X109435971Y-168716412D01*
X107035127Y-166315568D01*
X107001642Y-166254245D01*
X107006626Y-166184553D01*
X107048498Y-166128620D01*
X107060804Y-166120502D01*
X107076016Y-166111720D01*
X107187820Y-165999916D01*
X107266877Y-165862984D01*
X107307800Y-165710257D01*
X107307800Y-165683810D01*
X107327485Y-165616771D01*
X107344119Y-165596129D01*
X117623629Y-155316619D01*
X117684952Y-155283134D01*
X117711310Y-155280300D01*
X142875447Y-155280300D01*
X142942486Y-155299985D01*
X142988241Y-155352789D01*
X142998185Y-155421947D01*
X142969160Y-155485503D01*
X142912735Y-155522561D01*
X141278486Y-156037838D01*
X139223229Y-156889152D01*
X137250009Y-157916346D01*
X135373795Y-159111624D01*
X133608921Y-160465860D01*
X133608916Y-160465865D01*
X131968777Y-161968776D01*
X131968776Y-161968777D01*
X130465865Y-163608916D01*
X130465860Y-163608921D01*
X129111624Y-165373795D01*
X127916346Y-167250009D01*
X126889152Y-169223229D01*
X126037838Y-171278486D01*
X125368892Y-173400108D01*
X124887401Y-175571974D01*
X124887400Y-175571983D01*
X124597034Y-177777529D01*
X124507446Y-179829454D01*
X124500000Y-180000000D01*
X124500781Y-180017877D01*
X124597034Y-182222469D01*
X124887400Y-184428015D01*
X124887401Y-184428024D01*
X125368892Y-186599890D01*
X125801328Y-187971399D01*
X126037838Y-188721513D01*
X126367066Y-189516340D01*
X126889152Y-190776769D01*
X127916346Y-192749990D01*
X127916350Y-192749996D01*
X127916352Y-192750000D01*
X128179264Y-193162689D01*
X129111624Y-194626203D01*
X130465860Y-196391077D01*
X130465862Y-196391079D01*
X130465866Y-196391084D01*
X131968777Y-198031222D01*
X133608915Y-199534133D01*
X133608919Y-199534136D01*
X133608921Y-199534138D01*
X135373795Y-200888374D01*
X135373800Y-200888377D01*
X137250000Y-202083647D01*
X137250006Y-202083650D01*
X137250009Y-202083652D01*
X139223229Y-203110846D01*
X139223234Y-203110848D01*
X141278486Y-203962161D01*
X143400114Y-204631108D01*
X145571971Y-205112597D01*
X147777528Y-205402964D01*
X150000000Y-205500000D01*
X150033720Y-205498527D01*
X150036554Y-205499226D01*
X150039358Y-205498409D01*
X150070260Y-205507544D01*
X150101553Y-205515267D01*
X150104410Y-205517640D01*
X150106361Y-205518217D01*
X150117187Y-205528252D01*
X150132992Y-205541379D01*
X150135569Y-205544364D01*
X150198133Y-205626867D01*
X150223210Y-205645883D01*
X150231745Y-205655770D01*
X150241014Y-205676166D01*
X150254332Y-205694189D01*
X150255191Y-205707361D01*
X150260653Y-205719378D01*
X150257423Y-205741551D01*
X150258883Y-205763910D01*
X150257658Y-205768893D01*
X150224500Y-205892643D01*
X150224500Y-206050756D01*
X150265423Y-206203483D01*
X150265426Y-206203490D01*
X150344475Y-206340409D01*
X150344479Y-206340414D01*
X150344480Y-206340416D01*
X150456284Y-206452220D01*
X150456286Y-206452221D01*
X150456290Y-206452224D01*
X150593209Y-206531273D01*
X150593216Y-206531277D01*
X150745943Y-206572200D01*
X150745945Y-206572200D01*
X150904055Y-206572200D01*
X150904057Y-206572200D01*
X151056784Y-206531277D01*
X151193716Y-206452220D01*
X151305520Y-206340416D01*
X151384577Y-206203484D01*
X151425500Y-206050757D01*
X151425500Y-205892643D01*
X151384577Y-205739916D01*
X151384573Y-205739909D01*
X151381466Y-205732406D01*
X151383051Y-205731749D01*
X151381258Y-205724362D01*
X151372450Y-205709348D01*
X151373190Y-205691115D01*
X151368887Y-205673381D01*
X151374587Y-205656719D01*
X151375286Y-205639536D01*
X151389895Y-205611982D01*
X151391240Y-205608053D01*
X151392550Y-205606185D01*
X151463115Y-205513132D01*
X151469886Y-205495960D01*
X151478335Y-205483919D01*
X151494604Y-205470939D01*
X151507386Y-205454510D01*
X151521367Y-205449588D01*
X151532953Y-205440346D01*
X151553657Y-205438222D01*
X151573292Y-205431312D01*
X151574221Y-205431267D01*
X152222471Y-205402964D01*
X154428028Y-205112597D01*
X156599885Y-204631108D01*
X158721513Y-203962161D01*
X160776765Y-203110848D01*
X162750000Y-202083647D01*
X164626199Y-200888377D01*
X166391084Y-199534133D01*
X168031222Y-198031222D01*
X168508733Y-197510111D01*
X175649500Y-197510111D01*
X175649500Y-197752688D01*
X175681161Y-197993185D01*
X175743947Y-198227504D01*
X175809098Y-198384792D01*
X175836776Y-198451612D01*
X175958064Y-198661689D01*
X175958066Y-198661692D01*
X175958067Y-198661693D01*
X176105733Y-198854136D01*
X176105739Y-198854143D01*
X176277256Y-199025660D01*
X176277262Y-199025665D01*
X176469711Y-199173336D01*
X176679788Y-199294624D01*
X176903900Y-199387454D01*
X177138211Y-199450238D01*
X177318586Y-199473984D01*
X177378711Y-199481900D01*
X177378712Y-199481900D01*
X177621289Y-199481900D01*
X177669388Y-199475567D01*
X177861789Y-199450238D01*
X178096100Y-199387454D01*
X178320212Y-199294624D01*
X178530289Y-199173336D01*
X178722738Y-199025665D01*
X178894265Y-198854138D01*
X179041936Y-198661689D01*
X179163224Y-198451612D01*
X179256054Y-198227500D01*
X179318838Y-197993189D01*
X179350500Y-197752688D01*
X179350500Y-197510112D01*
X179318838Y-197269611D01*
X179256054Y-197035300D01*
X179163224Y-196811188D01*
X179041936Y-196601111D01*
X178894265Y-196408662D01*
X178894260Y-196408656D01*
X178722743Y-196237139D01*
X178722736Y-196237133D01*
X178530293Y-196089467D01*
X178530292Y-196089466D01*
X178530289Y-196089464D01*
X178320212Y-195968176D01*
X178320205Y-195968173D01*
X178096104Y-195875347D01*
X177861785Y-195812561D01*
X177621289Y-195780900D01*
X177621288Y-195780900D01*
X177378712Y-195780900D01*
X177378711Y-195780900D01*
X177138214Y-195812561D01*
X176903895Y-195875347D01*
X176679794Y-195968173D01*
X176679785Y-195968177D01*
X176469706Y-196089467D01*
X176277263Y-196237133D01*
X176277256Y-196237139D01*
X176105739Y-196408656D01*
X176105733Y-196408663D01*
X175958067Y-196601106D01*
X175836777Y-196811185D01*
X175836773Y-196811194D01*
X175743947Y-197035295D01*
X175681161Y-197269614D01*
X175649500Y-197510111D01*
X168508733Y-197510111D01*
X169534133Y-196391084D01*
X170888377Y-194626199D01*
X172083647Y-192750000D01*
X173110848Y-190776765D01*
X173962161Y-188721513D01*
X174631108Y-186599885D01*
X175112597Y-184428028D01*
X175402964Y-182222471D01*
X175500000Y-180000000D01*
X175402964Y-177777528D01*
X175112597Y-175571971D01*
X174631108Y-173400114D01*
X173962161Y-171278486D01*
X173916195Y-171167515D01*
X173908727Y-171098050D01*
X173940002Y-171035570D01*
X174000091Y-170999918D01*
X174069916Y-171002411D01*
X174118438Y-171032385D01*
X182509281Y-179423228D01*
X182542766Y-179484551D01*
X182545600Y-179510909D01*
X182545600Y-179537357D01*
X182586523Y-179690082D01*
X182586523Y-179690083D01*
X182586526Y-179690090D01*
X182665575Y-179827009D01*
X182665579Y-179827014D01*
X182665580Y-179827016D01*
X182777384Y-179938820D01*
X182777386Y-179938821D01*
X182777390Y-179938824D01*
X182883350Y-179999999D01*
X182914316Y-180017877D01*
X183067043Y-180058800D01*
X183067045Y-180058800D01*
X183225155Y-180058800D01*
X183225157Y-180058800D01*
X183377884Y-180017877D01*
X183514816Y-179938820D01*
X183626620Y-179827016D01*
X183705677Y-179690084D01*
X183738603Y-179567201D01*
X183774965Y-179507544D01*
X183837812Y-179477014D01*
X183907188Y-179485308D01*
X183946057Y-179511616D01*
X186477107Y-182042666D01*
X186509201Y-182098253D01*
X186544123Y-182228585D01*
X186544126Y-182228590D01*
X186623175Y-182365509D01*
X186623179Y-182365514D01*
X186623180Y-182365516D01*
X186734984Y-182477320D01*
X186734986Y-182477321D01*
X186734990Y-182477324D01*
X186871909Y-182556373D01*
X186871916Y-182556377D01*
X187024643Y-182597300D01*
X187024645Y-182597300D01*
X187182755Y-182597300D01*
X187182757Y-182597300D01*
X187335484Y-182556377D01*
X187472416Y-182477320D01*
X187584220Y-182365516D01*
X187663277Y-182228584D01*
X187704200Y-182075857D01*
X187704200Y-181917743D01*
X187663277Y-181765016D01*
X187663273Y-181765009D01*
X187584224Y-181628090D01*
X187584218Y-181628082D01*
X187472417Y-181516281D01*
X187472409Y-181516275D01*
X187335490Y-181437226D01*
X187335485Y-181437223D01*
X187205153Y-181402301D01*
X187149566Y-181370207D01*
X170020906Y-164241547D01*
X170010211Y-164229352D01*
X169534138Y-163608921D01*
X169534136Y-163608919D01*
X169534133Y-163608915D01*
X168031222Y-161968777D01*
X166391084Y-160465866D01*
X166391079Y-160465862D01*
X166391077Y-160465860D01*
X165770645Y-159989786D01*
X165758450Y-159979091D01*
X159972954Y-154193595D01*
X201299499Y-154193595D01*
X201326418Y-154328922D01*
X201326421Y-154328932D01*
X201379221Y-154456404D01*
X201379228Y-154456417D01*
X201455885Y-154571141D01*
X201455888Y-154571145D01*
X201553454Y-154668711D01*
X201553458Y-154668714D01*
X201668182Y-154745371D01*
X201668195Y-154745378D01*
X201795667Y-154798178D01*
X201795672Y-154798180D01*
X201795676Y-154798180D01*
X201795677Y-154798181D01*
X201931004Y-154825100D01*
X201931007Y-154825100D01*
X202068995Y-154825100D01*
X202160041Y-154806989D01*
X202204328Y-154798180D01*
X202331811Y-154745375D01*
X202446542Y-154668714D01*
X202544114Y-154571142D01*
X202620775Y-154456411D01*
X202673580Y-154328928D01*
X202690919Y-154241756D01*
X202723301Y-154179849D01*
X202724796Y-154178328D01*
X204088890Y-152814234D01*
X217174500Y-152814234D01*
X217174500Y-152965765D01*
X217213719Y-153112136D01*
X217251602Y-153177750D01*
X217289485Y-153243365D01*
X217396635Y-153350515D01*
X217527865Y-153426281D01*
X217674234Y-153465500D01*
X217674236Y-153465500D01*
X217825764Y-153465500D01*
X217825766Y-153465500D01*
X217972135Y-153426281D01*
X218103365Y-153350515D01*
X218210515Y-153243365D01*
X218286281Y-153112135D01*
X218325500Y-152965766D01*
X218325500Y-152814234D01*
X218286281Y-152667865D01*
X218210515Y-152536635D01*
X218103365Y-152429485D01*
X218037750Y-152391602D01*
X217972136Y-152353719D01*
X217898950Y-152334109D01*
X217825766Y-152314500D01*
X217674234Y-152314500D01*
X217527863Y-152353719D01*
X217396635Y-152429485D01*
X217396632Y-152429487D01*
X217289487Y-152536632D01*
X217289485Y-152536635D01*
X217213719Y-152667863D01*
X217174500Y-152814234D01*
X204088890Y-152814234D01*
X205910110Y-150993015D01*
X205982093Y-150868334D01*
X206001793Y-150842661D01*
X206013714Y-150830742D01*
X206090375Y-150716011D01*
X206143180Y-150588528D01*
X206151989Y-150544241D01*
X206170100Y-150453195D01*
X206170100Y-150315204D01*
X206143181Y-150179877D01*
X206143180Y-150179876D01*
X206143180Y-150179872D01*
X206117849Y-150118717D01*
X206090378Y-150052395D01*
X206090371Y-150052382D01*
X206013714Y-149937658D01*
X206013711Y-149937654D01*
X205916142Y-149840085D01*
X205883690Y-149818402D01*
X205838885Y-149764790D01*
X205830178Y-149695465D01*
X205860332Y-149632438D01*
X205919775Y-149595718D01*
X205952581Y-149591300D01*
X213438202Y-149591300D01*
X213505241Y-149610985D01*
X213525883Y-149627619D01*
X213544584Y-149646320D01*
X213544586Y-149646321D01*
X213544590Y-149646324D01*
X213670486Y-149719009D01*
X213681516Y-149725377D01*
X213834243Y-149766300D01*
X213834245Y-149766300D01*
X213992354Y-149766300D01*
X213992357Y-149766300D01*
X214107636Y-149735411D01*
X214177483Y-149737074D01*
X214235346Y-149776236D01*
X214259502Y-149823092D01*
X214261100Y-149829055D01*
X214261100Y-149829057D01*
X214264035Y-149840009D01*
X214302023Y-149981785D01*
X214302026Y-149981790D01*
X214381075Y-150118709D01*
X214381079Y-150118714D01*
X214381080Y-150118716D01*
X214492884Y-150230520D01*
X214492886Y-150230521D01*
X214492890Y-150230524D01*
X214629809Y-150309573D01*
X214629816Y-150309577D01*
X214782543Y-150350500D01*
X214782545Y-150350500D01*
X214940655Y-150350500D01*
X214940657Y-150350500D01*
X215093384Y-150309577D01*
X215230316Y-150230520D01*
X215342120Y-150118716D01*
X215421177Y-149981784D01*
X215462100Y-149829057D01*
X215462100Y-149670943D01*
X215421177Y-149518216D01*
X215414289Y-149506285D01*
X215342124Y-149381290D01*
X215342118Y-149381282D01*
X215323419Y-149362583D01*
X215312082Y-149341821D01*
X215297046Y-149323560D01*
X215294015Y-149308735D01*
X215289934Y-149301260D01*
X215287957Y-149289457D01*
X215287100Y-149282206D01*
X215287100Y-149185882D01*
X215269049Y-149118516D01*
X215258103Y-149077663D01*
X215249227Y-149062289D01*
X215202085Y-148980637D01*
X215122863Y-148901415D01*
X215122862Y-148901414D01*
X215118532Y-148897084D01*
X215118521Y-148897074D01*
X213335236Y-147113788D01*
X213255682Y-147034234D01*
X217174500Y-147034234D01*
X217174500Y-147185765D01*
X217213719Y-147332136D01*
X217251602Y-147397750D01*
X217289485Y-147463365D01*
X217396635Y-147570515D01*
X217527865Y-147646281D01*
X217674234Y-147685500D01*
X217674236Y-147685500D01*
X217825764Y-147685500D01*
X217825766Y-147685500D01*
X217972135Y-147646281D01*
X218103365Y-147570515D01*
X218210515Y-147463365D01*
X218286281Y-147332135D01*
X218325500Y-147185766D01*
X218325500Y-147034234D01*
X218286281Y-146887865D01*
X218210515Y-146756635D01*
X218103365Y-146649485D01*
X217991600Y-146584957D01*
X217972136Y-146573719D01*
X217849916Y-146540971D01*
X217825766Y-146534500D01*
X217674234Y-146534500D01*
X217527863Y-146573719D01*
X217396635Y-146649485D01*
X217396632Y-146649487D01*
X217289487Y-146756632D01*
X217289485Y-146756635D01*
X217213719Y-146887863D01*
X217174500Y-147034234D01*
X213255682Y-147034234D01*
X212578865Y-146357417D01*
X212578864Y-146357416D01*
X212578863Y-146357415D01*
X212481837Y-146301397D01*
X212373618Y-146272400D01*
X212373617Y-146272400D01*
X205747798Y-146272400D01*
X205680759Y-146252715D01*
X205660117Y-146236081D01*
X205641417Y-146217381D01*
X205641409Y-146217375D01*
X205504490Y-146138326D01*
X205504486Y-146138324D01*
X205504484Y-146138323D01*
X205351757Y-146097400D01*
X205193643Y-146097400D01*
X205040916Y-146138323D01*
X205040909Y-146138326D01*
X204903990Y-146217375D01*
X204903982Y-146217381D01*
X204792181Y-146329182D01*
X204792175Y-146329190D01*
X204713126Y-146466109D01*
X204713123Y-146466116D01*
X204672200Y-146618843D01*
X204672200Y-146776956D01*
X204713123Y-146929683D01*
X204713126Y-146929690D01*
X204792175Y-147066609D01*
X204792179Y-147066614D01*
X204792180Y-147066616D01*
X204903984Y-147178420D01*
X204903986Y-147178421D01*
X204903990Y-147178424D01*
X205040909Y-147257473D01*
X205040916Y-147257477D01*
X205193643Y-147298400D01*
X205193645Y-147298400D01*
X205351755Y-147298400D01*
X205351757Y-147298400D01*
X205504484Y-147257477D01*
X205641416Y-147178420D01*
X205660117Y-147159719D01*
X205721440Y-147126234D01*
X205747798Y-147123400D01*
X212089990Y-147123400D01*
X212157029Y-147143085D01*
X212177671Y-147159719D01*
X213536227Y-148518274D01*
X213540563Y-148526216D01*
X213547810Y-148531640D01*
X213557048Y-148556405D01*
X213569712Y-148579597D01*
X213569066Y-148588622D01*
X213572230Y-148597103D01*
X213566613Y-148622928D01*
X213564728Y-148649289D01*
X213558911Y-148658339D01*
X213557381Y-148665377D01*
X213536231Y-148693632D01*
X213525887Y-148703977D01*
X213464566Y-148737465D01*
X213438202Y-148740300D01*
X206111400Y-148740300D01*
X206044361Y-148720615D01*
X205998606Y-148667811D01*
X205990496Y-148630534D01*
X205988461Y-148630803D01*
X205987400Y-148622750D01*
X205987400Y-148622743D01*
X205946477Y-148470016D01*
X205946473Y-148470009D01*
X205867424Y-148333090D01*
X205867418Y-148333082D01*
X205755617Y-148221281D01*
X205755609Y-148221275D01*
X205618690Y-148142226D01*
X205618686Y-148142224D01*
X205618684Y-148142223D01*
X205465957Y-148101300D01*
X205307843Y-148101300D01*
X205155116Y-148142223D01*
X205155109Y-148142226D01*
X205018190Y-148221275D01*
X205018182Y-148221281D01*
X204906381Y-148333082D01*
X204906375Y-148333090D01*
X204827326Y-148470009D01*
X204827323Y-148470016D01*
X204786400Y-148622743D01*
X204786400Y-148780857D01*
X204824970Y-148924800D01*
X204827323Y-148933583D01*
X204827326Y-148933590D01*
X204906375Y-149070509D01*
X204906379Y-149070514D01*
X204906380Y-149070516D01*
X205018184Y-149182320D01*
X205018186Y-149182321D01*
X205018190Y-149182324D01*
X205155109Y-149261373D01*
X205155116Y-149261377D01*
X205307843Y-149302300D01*
X205334290Y-149302300D01*
X205363730Y-149310944D01*
X205393717Y-149317468D01*
X205398732Y-149321222D01*
X205401329Y-149321985D01*
X205421971Y-149338619D01*
X205555371Y-149472019D01*
X205588856Y-149533342D01*
X205583872Y-149603034D01*
X205542000Y-149658967D01*
X205476536Y-149683384D01*
X205467690Y-149683700D01*
X205400605Y-149683700D01*
X205265277Y-149710618D01*
X205265267Y-149710621D01*
X205137795Y-149763421D01*
X205137782Y-149763428D01*
X205023058Y-149840085D01*
X205023054Y-149840088D01*
X204925488Y-149937654D01*
X204925485Y-149937658D01*
X204848828Y-150052382D01*
X204848821Y-150052395D01*
X204796021Y-150179867D01*
X204796018Y-150179877D01*
X204769100Y-150315204D01*
X204769100Y-150315207D01*
X204769100Y-150453193D01*
X204771877Y-150467155D01*
X204776706Y-150491434D01*
X204770477Y-150561025D01*
X204742769Y-150603304D01*
X201946329Y-153399744D01*
X201885006Y-153433229D01*
X201882840Y-153433680D01*
X201795677Y-153451018D01*
X201795667Y-153451021D01*
X201668195Y-153503821D01*
X201668182Y-153503828D01*
X201553458Y-153580485D01*
X201553454Y-153580488D01*
X201455888Y-153678054D01*
X201455885Y-153678058D01*
X201379228Y-153792782D01*
X201379221Y-153792795D01*
X201326421Y-153920267D01*
X201326418Y-153920277D01*
X201299500Y-154055604D01*
X201299500Y-154055607D01*
X201299500Y-154193593D01*
X201299500Y-154193595D01*
X201299499Y-154193595D01*
X159972954Y-154193595D01*
X158554965Y-152775606D01*
X158554964Y-152775605D01*
X158446536Y-152713005D01*
X158446537Y-152713005D01*
X158406224Y-152702203D01*
X158325601Y-152680600D01*
X158325599Y-152680600D01*
X121491521Y-152680600D01*
X121462080Y-152671955D01*
X121432094Y-152665432D01*
X121427078Y-152661677D01*
X121424482Y-152660915D01*
X121403840Y-152644281D01*
X121151402Y-152391843D01*
X161692500Y-152391843D01*
X161692500Y-152549957D01*
X161724094Y-152667865D01*
X161733423Y-152702683D01*
X161733426Y-152702690D01*
X161812475Y-152839609D01*
X161812479Y-152839614D01*
X161812480Y-152839616D01*
X161924284Y-152951420D01*
X161924286Y-152951421D01*
X161924290Y-152951424D01*
X162061209Y-153030473D01*
X162061216Y-153030477D01*
X162213943Y-153071400D01*
X162213945Y-153071400D01*
X162372055Y-153071400D01*
X162372057Y-153071400D01*
X162524784Y-153030477D01*
X162661716Y-152951420D01*
X162680417Y-152932719D01*
X162741740Y-152899234D01*
X162768098Y-152896400D01*
X194034802Y-152896400D01*
X194101841Y-152916085D01*
X194122483Y-152932719D01*
X194141184Y-152951420D01*
X194141186Y-152951421D01*
X194141190Y-152951424D01*
X194278109Y-153030473D01*
X194278116Y-153030477D01*
X194430843Y-153071400D01*
X194430845Y-153071400D01*
X194588955Y-153071400D01*
X194588957Y-153071400D01*
X194741684Y-153030477D01*
X194878616Y-152951420D01*
X194897317Y-152932719D01*
X194958640Y-152899234D01*
X194984998Y-152896400D01*
X198680502Y-152896400D01*
X198747541Y-152916085D01*
X198768183Y-152932719D01*
X198786884Y-152951420D01*
X198786886Y-152951421D01*
X198786890Y-152951424D01*
X198923809Y-153030473D01*
X198923816Y-153030477D01*
X199076543Y-153071400D01*
X199076545Y-153071400D01*
X199234655Y-153071400D01*
X199234657Y-153071400D01*
X199387384Y-153030477D01*
X199524316Y-152951420D01*
X199636120Y-152839616D01*
X199715177Y-152702684D01*
X199756100Y-152549957D01*
X199756100Y-152391843D01*
X199715177Y-152239116D01*
X199715173Y-152239109D01*
X199636124Y-152102190D01*
X199636118Y-152102182D01*
X199524317Y-151990381D01*
X199524309Y-151990375D01*
X199387390Y-151911326D01*
X199387386Y-151911324D01*
X199387384Y-151911323D01*
X199234657Y-151870400D01*
X199076543Y-151870400D01*
X198923816Y-151911323D01*
X198923809Y-151911326D01*
X198786890Y-151990375D01*
X198786882Y-151990381D01*
X198768183Y-152009081D01*
X198706860Y-152042566D01*
X198680502Y-152045400D01*
X194984998Y-152045400D01*
X194917959Y-152025715D01*
X194897317Y-152009081D01*
X194878617Y-151990381D01*
X194878609Y-151990375D01*
X194741690Y-151911326D01*
X194741686Y-151911324D01*
X194741684Y-151911323D01*
X194588957Y-151870400D01*
X194430843Y-151870400D01*
X194278116Y-151911323D01*
X194278109Y-151911326D01*
X194141190Y-151990375D01*
X194141182Y-151990381D01*
X194122483Y-152009081D01*
X194061160Y-152042566D01*
X194034802Y-152045400D01*
X162768098Y-152045400D01*
X162701059Y-152025715D01*
X162680417Y-152009081D01*
X162661717Y-151990381D01*
X162661709Y-151990375D01*
X162524790Y-151911326D01*
X162524786Y-151911324D01*
X162524784Y-151911323D01*
X162372057Y-151870400D01*
X162213943Y-151870400D01*
X162061216Y-151911323D01*
X162061209Y-151911326D01*
X161924290Y-151990375D01*
X161924282Y-151990381D01*
X161812481Y-152102182D01*
X161812475Y-152102190D01*
X161733426Y-152239109D01*
X161733423Y-152239116D01*
X161692500Y-152391843D01*
X121151402Y-152391843D01*
X106746340Y-137986781D01*
X106712855Y-137925458D01*
X106717839Y-137855766D01*
X106759711Y-137799833D01*
X106825175Y-137775416D01*
X106834021Y-137775100D01*
X126027415Y-137775100D01*
X126094454Y-137794785D01*
X126140209Y-137847589D01*
X126150153Y-137916747D01*
X126149032Y-137923291D01*
X126139800Y-137969702D01*
X126139800Y-137969707D01*
X126139800Y-138107693D01*
X126139800Y-138107695D01*
X126139799Y-138107695D01*
X126166718Y-138243022D01*
X126166721Y-138243032D01*
X126219521Y-138370504D01*
X126219528Y-138370517D01*
X126296185Y-138485241D01*
X126296188Y-138485245D01*
X126393754Y-138582811D01*
X126393758Y-138582814D01*
X126508482Y-138659471D01*
X126508495Y-138659478D01*
X126635967Y-138712278D01*
X126635972Y-138712280D01*
X126723142Y-138729619D01*
X126785049Y-138762002D01*
X126786629Y-138763554D01*
X130466685Y-142443609D01*
X133969986Y-145946910D01*
X133969987Y-145946911D01*
X133969989Y-145946912D01*
X134077850Y-146009185D01*
X134095515Y-146019384D01*
X134235525Y-146056900D01*
X134235526Y-146056900D01*
X134380474Y-146056900D01*
X151471258Y-146056900D01*
X151538297Y-146076585D01*
X151584052Y-146129389D01*
X151593996Y-146198547D01*
X151578646Y-146242899D01*
X151560623Y-146274115D01*
X151560623Y-146274116D01*
X151519700Y-146426843D01*
X151519700Y-146584957D01*
X151554164Y-146713576D01*
X151560623Y-146737683D01*
X151560626Y-146737690D01*
X151639675Y-146874609D01*
X151639679Y-146874614D01*
X151639680Y-146874616D01*
X151751484Y-146986420D01*
X151751486Y-146986421D01*
X151751490Y-146986424D01*
X151888409Y-147065473D01*
X151888416Y-147065477D01*
X152041143Y-147106400D01*
X152067590Y-147106400D01*
X152134629Y-147126085D01*
X152155271Y-147142719D01*
X154703337Y-149690785D01*
X154800363Y-149746803D01*
X154908582Y-149775800D01*
X155020618Y-149775800D01*
X156231102Y-149775800D01*
X156298141Y-149795485D01*
X156318783Y-149812119D01*
X156337484Y-149830820D01*
X156337486Y-149830821D01*
X156337490Y-149830824D01*
X156474409Y-149909873D01*
X156474416Y-149909877D01*
X156627143Y-149950800D01*
X156627145Y-149950800D01*
X156785255Y-149950800D01*
X156785257Y-149950800D01*
X156937984Y-149909877D01*
X157074916Y-149830820D01*
X157186720Y-149719016D01*
X157265777Y-149582084D01*
X157306700Y-149429357D01*
X157306700Y-149271243D01*
X157265777Y-149118516D01*
X157238065Y-149070517D01*
X157186724Y-148981590D01*
X157186718Y-148981582D01*
X157074917Y-148869781D01*
X157074909Y-148869775D01*
X156937990Y-148790726D01*
X156937986Y-148790724D01*
X156937984Y-148790723D01*
X156785257Y-148749800D01*
X156627143Y-148749800D01*
X156474416Y-148790723D01*
X156474409Y-148790726D01*
X156337490Y-148869775D01*
X156337482Y-148869781D01*
X156318783Y-148888481D01*
X156257460Y-148921966D01*
X156231102Y-148924800D01*
X155192210Y-148924800D01*
X155125171Y-148905115D01*
X155104529Y-148888481D01*
X152757019Y-146540971D01*
X152723534Y-146479648D01*
X152720700Y-146453290D01*
X152720700Y-146426845D01*
X152720700Y-146426843D01*
X152679777Y-146274116D01*
X152661753Y-146242898D01*
X152645283Y-146174999D01*
X152668135Y-146108972D01*
X152723057Y-146065782D01*
X152769142Y-146056900D01*
X160123808Y-146056900D01*
X160190847Y-146076585D01*
X160231905Y-146123969D01*
X160233455Y-146123141D01*
X160236328Y-146128517D01*
X160312985Y-146243241D01*
X160312988Y-146243245D01*
X160410554Y-146340811D01*
X160410558Y-146340814D01*
X160525282Y-146417471D01*
X160525295Y-146417478D01*
X160611754Y-146453290D01*
X160652772Y-146470280D01*
X160652776Y-146470280D01*
X160652777Y-146470281D01*
X160788104Y-146497200D01*
X160788107Y-146497200D01*
X160926095Y-146497200D01*
X161017141Y-146479089D01*
X161061428Y-146470280D01*
X161188911Y-146417475D01*
X161262809Y-146368098D01*
X161329486Y-146347220D01*
X161331700Y-146347200D01*
X191550400Y-146347200D01*
X191617439Y-146366885D01*
X191619291Y-146368098D01*
X191693189Y-146417475D01*
X191693191Y-146417476D01*
X191693195Y-146417478D01*
X191779654Y-146453290D01*
X191820672Y-146470280D01*
X191820676Y-146470280D01*
X191820677Y-146470281D01*
X191956004Y-146497200D01*
X191956007Y-146497200D01*
X192093995Y-146497200D01*
X192185041Y-146479089D01*
X192229328Y-146470280D01*
X192356811Y-146417475D01*
X192471542Y-146340814D01*
X192569114Y-146243242D01*
X192645775Y-146128511D01*
X192698580Y-146001028D01*
X192725500Y-145865693D01*
X192725500Y-145727707D01*
X192725500Y-145727704D01*
X192698581Y-145592377D01*
X192698580Y-145592376D01*
X192698580Y-145592372D01*
X192698578Y-145592367D01*
X192645778Y-145464895D01*
X192645771Y-145464882D01*
X192569114Y-145350158D01*
X192569111Y-145350154D01*
X192471545Y-145252588D01*
X192471541Y-145252585D01*
X192356817Y-145175928D01*
X192356804Y-145175921D01*
X192229332Y-145123121D01*
X192229322Y-145123118D01*
X192093995Y-145096200D01*
X192093993Y-145096200D01*
X191956007Y-145096200D01*
X191956005Y-145096200D01*
X191820677Y-145123118D01*
X191820667Y-145123121D01*
X191693195Y-145175921D01*
X191693183Y-145175928D01*
X191619291Y-145225302D01*
X191552614Y-145246180D01*
X191550400Y-145246200D01*
X161331700Y-145246200D01*
X161264661Y-145226515D01*
X161262809Y-145225302D01*
X161188916Y-145175928D01*
X161188904Y-145175921D01*
X161061432Y-145123121D01*
X161061422Y-145123118D01*
X160974258Y-145105780D01*
X160912347Y-145073395D01*
X160910769Y-145071844D01*
X160904816Y-145065891D01*
X160904815Y-145065890D01*
X160779285Y-144993416D01*
X160779286Y-144993416D01*
X160744282Y-144984037D01*
X160639275Y-144955900D01*
X160639272Y-144955900D01*
X134587386Y-144955900D01*
X134520347Y-144936215D01*
X134499705Y-144919581D01*
X127565154Y-137985029D01*
X127556090Y-137968430D01*
X127542959Y-137954821D01*
X127532553Y-137925326D01*
X127531669Y-137923706D01*
X127531242Y-137921658D01*
X127522098Y-137875687D01*
X127528327Y-137806098D01*
X127571191Y-137750921D01*
X127637081Y-137727678D01*
X127643716Y-137727500D01*
X132817490Y-137727500D01*
X132884529Y-137747185D01*
X132905171Y-137763819D01*
X133002681Y-137861329D01*
X133036166Y-137922652D01*
X133039000Y-137949009D01*
X133039000Y-137975457D01*
X133074870Y-138109324D01*
X133079923Y-138128183D01*
X133079926Y-138128190D01*
X133158975Y-138265109D01*
X133158979Y-138265114D01*
X133158980Y-138265116D01*
X133270784Y-138376920D01*
X133270786Y-138376921D01*
X133270790Y-138376924D01*
X133407709Y-138455973D01*
X133407716Y-138455977D01*
X133560443Y-138496900D01*
X133560445Y-138496900D01*
X133718555Y-138496900D01*
X133718557Y-138496900D01*
X133871284Y-138455977D01*
X134008216Y-138376920D01*
X134120020Y-138265116D01*
X134199077Y-138128184D01*
X134240000Y-137975457D01*
X134240000Y-137817343D01*
X134199077Y-137664616D01*
X134199073Y-137664609D01*
X134120024Y-137527690D01*
X134120018Y-137527682D01*
X134008217Y-137415881D01*
X134008209Y-137415875D01*
X133871290Y-137336826D01*
X133871286Y-137336824D01*
X133871284Y-137336823D01*
X133718557Y-137295900D01*
X133718556Y-137295900D01*
X133692110Y-137295900D01*
X133625071Y-137276215D01*
X133604429Y-137259581D01*
X133306365Y-136961517D01*
X133306363Y-136961515D01*
X133214675Y-136908579D01*
X133209339Y-136905498D01*
X133209338Y-136905497D01*
X133209337Y-136905497D01*
X133101118Y-136876500D01*
X126591219Y-136876500D01*
X126479182Y-136876500D01*
X126370961Y-136905497D01*
X126367520Y-136907485D01*
X126363675Y-136908515D01*
X126363449Y-136908609D01*
X126363436Y-136908579D01*
X126305516Y-136924100D01*
X113037255Y-136924100D01*
X112970216Y-136904415D01*
X112924461Y-136851611D01*
X112915782Y-136793684D01*
X112914100Y-136793684D01*
X112914100Y-136627445D01*
X112914100Y-136627443D01*
X112873177Y-136474716D01*
X112855801Y-136444619D01*
X112794124Y-136337790D01*
X112794118Y-136337782D01*
X112682317Y-136225981D01*
X112682309Y-136225975D01*
X112545390Y-136146926D01*
X112545385Y-136146923D01*
X112415053Y-136112001D01*
X112359466Y-136079907D01*
X110866440Y-134586881D01*
X110832955Y-134525558D01*
X110837939Y-134455866D01*
X110879811Y-134399933D01*
X110945275Y-134375516D01*
X110954121Y-134375200D01*
X111048855Y-134375200D01*
X111048857Y-134375200D01*
X111201584Y-134334277D01*
X111338516Y-134255220D01*
X111450320Y-134143416D01*
X111529377Y-134006484D01*
X111570300Y-133853757D01*
X111570300Y-133827309D01*
X111589985Y-133760270D01*
X111606614Y-133739633D01*
X126541904Y-118804342D01*
X126603225Y-118770859D01*
X126672917Y-118775843D01*
X126728850Y-118817715D01*
X126736965Y-118830017D01*
X126784480Y-118912316D01*
X126896284Y-119024120D01*
X126896286Y-119024121D01*
X126896290Y-119024124D01*
X126999901Y-119083943D01*
X127033216Y-119103177D01*
X127185943Y-119144100D01*
X127185945Y-119144100D01*
X127344055Y-119144100D01*
X127344057Y-119144100D01*
X127496784Y-119103177D01*
X127633716Y-119024120D01*
X127652417Y-119005419D01*
X127713740Y-118971934D01*
X127740098Y-118969100D01*
X131623990Y-118969100D01*
X131691029Y-118988785D01*
X131711671Y-119005419D01*
X147128927Y-134422675D01*
X147133265Y-134430620D01*
X147140513Y-134436046D01*
X147149747Y-134460805D01*
X147162412Y-134483998D01*
X147161766Y-134493027D01*
X147164930Y-134501510D01*
X147159313Y-134527330D01*
X147157428Y-134553690D01*
X147151609Y-134562743D01*
X147150078Y-134569783D01*
X147128927Y-134598037D01*
X147108783Y-134618181D01*
X147047460Y-134651666D01*
X147021102Y-134654500D01*
X141515282Y-134654500D01*
X141407063Y-134683497D01*
X141407060Y-134683498D01*
X141310040Y-134739513D01*
X141310034Y-134739517D01*
X134010971Y-142038581D01*
X133949648Y-142072066D01*
X133923290Y-142074900D01*
X133896843Y-142074900D01*
X133744116Y-142115823D01*
X133744109Y-142115826D01*
X133607190Y-142194875D01*
X133607182Y-142194881D01*
X133495381Y-142306682D01*
X133495375Y-142306690D01*
X133416326Y-142443609D01*
X133416323Y-142443616D01*
X133375400Y-142596343D01*
X133375400Y-142754457D01*
X133414840Y-142901647D01*
X133416323Y-142907183D01*
X133416326Y-142907190D01*
X133495375Y-143044109D01*
X133495379Y-143044114D01*
X133495380Y-143044116D01*
X133607184Y-143155920D01*
X133607186Y-143155921D01*
X133607190Y-143155924D01*
X133744109Y-143234973D01*
X133744116Y-143234977D01*
X133896843Y-143275900D01*
X133896845Y-143275900D01*
X134054955Y-143275900D01*
X134054957Y-143275900D01*
X134207684Y-143234977D01*
X134344616Y-143155920D01*
X134456420Y-143044116D01*
X134535477Y-142907184D01*
X134576400Y-142754457D01*
X134576400Y-142728010D01*
X134596085Y-142660971D01*
X134612719Y-142640329D01*
X141711229Y-135541819D01*
X141772552Y-135508334D01*
X141798910Y-135505500D01*
X147021102Y-135505500D01*
X147088141Y-135525185D01*
X147108783Y-135541819D01*
X147127484Y-135560520D01*
X147127486Y-135560521D01*
X147127490Y-135560524D01*
X147264409Y-135639573D01*
X147264416Y-135639577D01*
X147417143Y-135680500D01*
X147417145Y-135680500D01*
X147575254Y-135680500D01*
X147575257Y-135680500D01*
X147693909Y-135648707D01*
X147763756Y-135650370D01*
X147821619Y-135689532D01*
X147849123Y-135753760D01*
X147850000Y-135768482D01*
X147850000Y-139867989D01*
X147830315Y-139935028D01*
X147813681Y-139955670D01*
X146732656Y-141036694D01*
X146677071Y-141068787D01*
X146635521Y-141079921D01*
X146635509Y-141079926D01*
X146498590Y-141158975D01*
X146498582Y-141158981D01*
X146386781Y-141270782D01*
X146386775Y-141270790D01*
X146307726Y-141407709D01*
X146307723Y-141407716D01*
X146266800Y-141560443D01*
X146266800Y-141718557D01*
X146293915Y-141819749D01*
X146307723Y-141871283D01*
X146307726Y-141871290D01*
X146386775Y-142008209D01*
X146386779Y-142008214D01*
X146386780Y-142008216D01*
X146498584Y-142120020D01*
X146498586Y-142120021D01*
X146498590Y-142120024D01*
X146628248Y-142194881D01*
X146635516Y-142199077D01*
X146788243Y-142240000D01*
X146788245Y-142240000D01*
X146946355Y-142240000D01*
X146946357Y-142240000D01*
X147099084Y-142199077D01*
X147236016Y-142120020D01*
X147347820Y-142008216D01*
X147426877Y-141871284D01*
X147467800Y-141718557D01*
X147467800Y-141560443D01*
X147467800Y-141556409D01*
X147487485Y-141489370D01*
X147504119Y-141468728D01*
X147954708Y-141018140D01*
X148415429Y-140557419D01*
X148476752Y-140523934D01*
X148503110Y-140521100D01*
X152648402Y-140521100D01*
X152715441Y-140540785D01*
X152736083Y-140557419D01*
X152754784Y-140576120D01*
X152754786Y-140576121D01*
X152754790Y-140576124D01*
X152891709Y-140655173D01*
X152891716Y-140655177D01*
X153044443Y-140696100D01*
X153044445Y-140696100D01*
X153202555Y-140696100D01*
X153202557Y-140696100D01*
X153355284Y-140655177D01*
X153492216Y-140576120D01*
X153604020Y-140464316D01*
X153683077Y-140327384D01*
X153724000Y-140174657D01*
X153724000Y-140016543D01*
X153683077Y-139863816D01*
X153683073Y-139863809D01*
X153604024Y-139726890D01*
X153604018Y-139726882D01*
X153492217Y-139615081D01*
X153492209Y-139615075D01*
X153355290Y-139536026D01*
X153355286Y-139536024D01*
X153355284Y-139536023D01*
X153202557Y-139495100D01*
X153044443Y-139495100D01*
X152891716Y-139536023D01*
X152891709Y-139536026D01*
X152754790Y-139615075D01*
X152754782Y-139615081D01*
X152736083Y-139633781D01*
X152674760Y-139667266D01*
X152648402Y-139670100D01*
X148825000Y-139670100D01*
X148757961Y-139650415D01*
X148712206Y-139597611D01*
X148701000Y-139546100D01*
X148701000Y-134911484D01*
X148701000Y-134911482D01*
X148672003Y-134803263D01*
X148615985Y-134706237D01*
X148536763Y-134627015D01*
X132456529Y-118546781D01*
X132423044Y-118485458D01*
X132428028Y-118415766D01*
X132469900Y-118359833D01*
X132535364Y-118335416D01*
X132544210Y-118335100D01*
X143283290Y-118335100D01*
X143350329Y-118354785D01*
X143370971Y-118371419D01*
X144662181Y-119662628D01*
X144695666Y-119723951D01*
X144698500Y-119750309D01*
X144698500Y-119776757D01*
X144737852Y-119923619D01*
X144739423Y-119929483D01*
X144739426Y-119929490D01*
X144818475Y-120066409D01*
X144818479Y-120066414D01*
X144818480Y-120066416D01*
X144930284Y-120178220D01*
X144930286Y-120178221D01*
X144930290Y-120178224D01*
X145015148Y-120227216D01*
X145067216Y-120257277D01*
X145219943Y-120298200D01*
X145219945Y-120298200D01*
X145378055Y-120298200D01*
X145378057Y-120298200D01*
X145530784Y-120257277D01*
X145667716Y-120178220D01*
X145686417Y-120159519D01*
X145747740Y-120126034D01*
X145774098Y-120123200D01*
X159323194Y-120123200D01*
X159390233Y-120142885D01*
X159435988Y-120195689D01*
X159445932Y-120264847D01*
X159442968Y-120279293D01*
X159416000Y-120379943D01*
X159416000Y-120538057D01*
X159431057Y-120594248D01*
X159456923Y-120690783D01*
X159456926Y-120690790D01*
X159535975Y-120827709D01*
X159535979Y-120827714D01*
X159535980Y-120827716D01*
X159647784Y-120939520D01*
X159647785Y-120939521D01*
X159647787Y-120939522D01*
X159773173Y-121011913D01*
X159821388Y-121062479D01*
X159834612Y-121131086D01*
X159808644Y-121195951D01*
X159751730Y-121236480D01*
X159711173Y-121243300D01*
X143371298Y-121243300D01*
X143304259Y-121223615D01*
X143283617Y-121206981D01*
X143264917Y-121188281D01*
X143264909Y-121188275D01*
X143127990Y-121109226D01*
X143127986Y-121109224D01*
X143127984Y-121109223D01*
X142975257Y-121068300D01*
X142817143Y-121068300D01*
X142664416Y-121109223D01*
X142664409Y-121109226D01*
X142527490Y-121188275D01*
X142527482Y-121188281D01*
X142508783Y-121206981D01*
X142447460Y-121240466D01*
X142421102Y-121243300D01*
X140046410Y-121243300D01*
X139979371Y-121223615D01*
X139958729Y-121206981D01*
X139407319Y-120655571D01*
X139373834Y-120594248D01*
X139371000Y-120567890D01*
X139371000Y-120541445D01*
X139371000Y-120541443D01*
X139330077Y-120388716D01*
X139277818Y-120298200D01*
X139251024Y-120251790D01*
X139251018Y-120251782D01*
X139139217Y-120139981D01*
X139139209Y-120139975D01*
X139002290Y-120060926D01*
X139002286Y-120060924D01*
X139002284Y-120060923D01*
X138849557Y-120020000D01*
X138691443Y-120020000D01*
X138538716Y-120060923D01*
X138538709Y-120060926D01*
X138401790Y-120139975D01*
X138401782Y-120139981D01*
X138289981Y-120251782D01*
X138289975Y-120251790D01*
X138210926Y-120388709D01*
X138210923Y-120388716D01*
X138170000Y-120541443D01*
X138170000Y-120699557D01*
X138204341Y-120827717D01*
X138210923Y-120852283D01*
X138210926Y-120852290D01*
X138289975Y-120989209D01*
X138289979Y-120989214D01*
X138289980Y-120989216D01*
X138401784Y-121101020D01*
X138401786Y-121101021D01*
X138401790Y-121101024D01*
X138538709Y-121180073D01*
X138538716Y-121180077D01*
X138691443Y-121221000D01*
X138717890Y-121221000D01*
X138784929Y-121240685D01*
X138805571Y-121257319D01*
X139478315Y-121930063D01*
X139557537Y-122009285D01*
X139654563Y-122065303D01*
X139762782Y-122094300D01*
X142421102Y-122094300D01*
X142488141Y-122113985D01*
X142508783Y-122130619D01*
X142527484Y-122149320D01*
X142527486Y-122149321D01*
X142527490Y-122149324D01*
X142619091Y-122202209D01*
X142664416Y-122228377D01*
X142817143Y-122269300D01*
X142817145Y-122269300D01*
X142975255Y-122269300D01*
X142975257Y-122269300D01*
X143127984Y-122228377D01*
X143264916Y-122149320D01*
X143283617Y-122130619D01*
X143344940Y-122097134D01*
X143371298Y-122094300D01*
X160566190Y-122094300D01*
X160633229Y-122113985D01*
X160653871Y-122130619D01*
X161206377Y-122683125D01*
X161239862Y-122744448D01*
X161234878Y-122814140D01*
X161193006Y-122870073D01*
X161157015Y-122888737D01*
X161018360Y-122933789D01*
X160857002Y-123016006D01*
X160710505Y-123122441D01*
X160710500Y-123122445D01*
X160582445Y-123250500D01*
X160582441Y-123250505D01*
X160476006Y-123397002D01*
X160393788Y-123558360D01*
X160393787Y-123558363D01*
X160337829Y-123730589D01*
X160309500Y-123909448D01*
X160309500Y-124090551D01*
X160337828Y-124269409D01*
X160375905Y-124386596D01*
X160377900Y-124456437D01*
X160345655Y-124512595D01*
X156197637Y-128660615D01*
X156118417Y-128739834D01*
X156118413Y-128739840D01*
X156062398Y-128836860D01*
X156062397Y-128836863D01*
X156033400Y-128945082D01*
X156033400Y-131756702D01*
X156013715Y-131823741D01*
X155997081Y-131844383D01*
X155978381Y-131863082D01*
X155978375Y-131863090D01*
X155899326Y-132000009D01*
X155899323Y-132000016D01*
X155858400Y-132152743D01*
X155858400Y-132310856D01*
X155899323Y-132463583D01*
X155899326Y-132463590D01*
X155978375Y-132600509D01*
X155978379Y-132600514D01*
X155978380Y-132600516D01*
X156090184Y-132712320D01*
X156090186Y-132712321D01*
X156090190Y-132712324D01*
X156227109Y-132791373D01*
X156227116Y-132791377D01*
X156379843Y-132832300D01*
X156379845Y-132832300D01*
X156537955Y-132832300D01*
X156537957Y-132832300D01*
X156690684Y-132791377D01*
X156827616Y-132712320D01*
X156939420Y-132600516D01*
X157018477Y-132463584D01*
X157059400Y-132310857D01*
X157059400Y-132152743D01*
X157018477Y-132000016D01*
X157010785Y-131986693D01*
X156939424Y-131863090D01*
X156939418Y-131863082D01*
X156920719Y-131844383D01*
X156887234Y-131783060D01*
X156884400Y-131756702D01*
X156884400Y-129228709D01*
X156904085Y-129161670D01*
X156920714Y-129141033D01*
X160947404Y-125114342D01*
X161008725Y-125080859D01*
X161073399Y-125084093D01*
X161128294Y-125101929D01*
X161190590Y-125122171D01*
X161369449Y-125150500D01*
X161369454Y-125150500D01*
X161550551Y-125150500D01*
X161637259Y-125136765D01*
X161729409Y-125122171D01*
X161901639Y-125066211D01*
X162062994Y-124983996D01*
X162209501Y-124877553D01*
X162337553Y-124749501D01*
X162443996Y-124602994D01*
X162518059Y-124457637D01*
X162539354Y-124435089D01*
X162559122Y-124411188D01*
X162563137Y-124409908D01*
X162566031Y-124406844D01*
X162596139Y-124399387D01*
X162625691Y-124389968D01*
X162630527Y-124390872D01*
X162633852Y-124390049D01*
X162660732Y-124394186D01*
X162668811Y-124396357D01*
X162669063Y-124396503D01*
X162757692Y-124420251D01*
X162787489Y-124438446D01*
X162817255Y-124456589D01*
X162817277Y-124456636D01*
X162817322Y-124456663D01*
X162832552Y-124488079D01*
X162847784Y-124519436D01*
X162847790Y-124519513D01*
X162847801Y-124519535D01*
X162847795Y-124519577D01*
X162849501Y-124539999D01*
X162849501Y-124894856D01*
X162849502Y-124894882D01*
X162852413Y-124919987D01*
X162852415Y-124919991D01*
X162897793Y-125022764D01*
X162897794Y-125022765D01*
X162977235Y-125102206D01*
X163080009Y-125147585D01*
X163105135Y-125150500D01*
X164894864Y-125150499D01*
X164894879Y-125150497D01*
X164894882Y-125150497D01*
X164919987Y-125147586D01*
X164919988Y-125147585D01*
X164919991Y-125147585D01*
X165022765Y-125102206D01*
X165102206Y-125022765D01*
X165147585Y-124919991D01*
X165150500Y-124894865D01*
X165150499Y-123814219D01*
X165170184Y-123747181D01*
X165222987Y-123701426D01*
X165292146Y-123691482D01*
X165355702Y-123720507D01*
X165362180Y-123726539D01*
X165783181Y-124147540D01*
X165816666Y-124208863D01*
X165819500Y-124235221D01*
X165819500Y-137218163D01*
X165802888Y-137280162D01*
X165735423Y-137397015D01*
X165735423Y-137397016D01*
X165694500Y-137549743D01*
X165694500Y-137707857D01*
X165717793Y-137794785D01*
X165735423Y-137860583D01*
X165735426Y-137860590D01*
X165814475Y-137997509D01*
X165814479Y-137997514D01*
X165814480Y-137997516D01*
X165926284Y-138109320D01*
X165926286Y-138109321D01*
X165926290Y-138109324D01*
X166063209Y-138188373D01*
X166063216Y-138188377D01*
X166215943Y-138229300D01*
X166215945Y-138229300D01*
X166374055Y-138229300D01*
X166374057Y-138229300D01*
X166526784Y-138188377D01*
X166663716Y-138109320D01*
X166775520Y-137997516D01*
X166854577Y-137860584D01*
X166895500Y-137707857D01*
X166895500Y-137549743D01*
X166854577Y-137397016D01*
X166787112Y-137280162D01*
X166770500Y-137218163D01*
X166770500Y-123924300D01*
X166766522Y-123909454D01*
X166738095Y-123803364D01*
X166675495Y-123694936D01*
X166586964Y-123606405D01*
X163315440Y-120334881D01*
X163281955Y-120273558D01*
X163286939Y-120203866D01*
X163328811Y-120147933D01*
X163394275Y-120123516D01*
X163403121Y-120123200D01*
X182955902Y-120123200D01*
X183022941Y-120142885D01*
X183043583Y-120159519D01*
X183062284Y-120178220D01*
X183062286Y-120178221D01*
X183062290Y-120178224D01*
X183147148Y-120227216D01*
X183199216Y-120257277D01*
X183351943Y-120298200D01*
X183351945Y-120298200D01*
X183510055Y-120298200D01*
X183510057Y-120298200D01*
X183662784Y-120257277D01*
X183799716Y-120178220D01*
X183911520Y-120066416D01*
X183966126Y-119971833D01*
X184016692Y-119923619D01*
X184085299Y-119910395D01*
X184150164Y-119936363D01*
X184161194Y-119946153D01*
X186094407Y-121879366D01*
X186126501Y-121934953D01*
X186161423Y-122065285D01*
X186161426Y-122065290D01*
X186240475Y-122202209D01*
X186240479Y-122202214D01*
X186240480Y-122202216D01*
X186352284Y-122314020D01*
X186352286Y-122314021D01*
X186352290Y-122314024D01*
X186489209Y-122393073D01*
X186489216Y-122393077D01*
X186641943Y-122434000D01*
X186641945Y-122434000D01*
X186800055Y-122434000D01*
X186800057Y-122434000D01*
X186952784Y-122393077D01*
X187089716Y-122314020D01*
X187201520Y-122202216D01*
X187280577Y-122065284D01*
X187321500Y-121912557D01*
X187321500Y-121754443D01*
X187280577Y-121601716D01*
X187280573Y-121601709D01*
X187201524Y-121464790D01*
X187201518Y-121464782D01*
X187089717Y-121352981D01*
X187089709Y-121352975D01*
X186952790Y-121273926D01*
X186952785Y-121273923D01*
X186822453Y-121239001D01*
X186766866Y-121206907D01*
X171693340Y-106133381D01*
X171659855Y-106072058D01*
X171664839Y-106002366D01*
X171706711Y-105946433D01*
X171772175Y-105922016D01*
X171781021Y-105921700D01*
X179599379Y-105921700D01*
X179666418Y-105941385D01*
X179687060Y-105958019D01*
X186482907Y-112753866D01*
X186515001Y-112809453D01*
X186549923Y-112939785D01*
X186549926Y-112939790D01*
X186628975Y-113076709D01*
X186628979Y-113076714D01*
X186628980Y-113076716D01*
X186740784Y-113188520D01*
X186740786Y-113188521D01*
X186740790Y-113188524D01*
X186877709Y-113267573D01*
X186877716Y-113267577D01*
X187030443Y-113308500D01*
X187030445Y-113308500D01*
X187188555Y-113308500D01*
X187188557Y-113308500D01*
X187341284Y-113267577D01*
X187478216Y-113188520D01*
X187590020Y-113076716D01*
X187669077Y-112939784D01*
X187710000Y-112787057D01*
X187710000Y-112628943D01*
X187669077Y-112476216D01*
X187612133Y-112377585D01*
X187590024Y-112339290D01*
X187590018Y-112339282D01*
X187478217Y-112227481D01*
X187478209Y-112227475D01*
X187341290Y-112148426D01*
X187341285Y-112148423D01*
X187210953Y-112113501D01*
X187155366Y-112081407D01*
X180139665Y-105065706D01*
X180139664Y-105065705D01*
X180031236Y-105003105D01*
X180031237Y-105003105D01*
X179990924Y-104992303D01*
X179910301Y-104970700D01*
X179910299Y-104970700D01*
X119983037Y-104970700D01*
X119921038Y-104954088D01*
X119804184Y-104886623D01*
X119651457Y-104845700D01*
X119493343Y-104845700D01*
X119340616Y-104886623D01*
X119340609Y-104886626D01*
X119203690Y-104965675D01*
X119203682Y-104965681D01*
X119091881Y-105077482D01*
X119091877Y-105077487D01*
X119033095Y-105179302D01*
X118982528Y-105227518D01*
X118913921Y-105240741D01*
X118893616Y-105237077D01*
X118866458Y-105229800D01*
X118866457Y-105229800D01*
X118708343Y-105229800D01*
X118555616Y-105270723D01*
X118555609Y-105270726D01*
X118418690Y-105349775D01*
X118418682Y-105349781D01*
X118306881Y-105461582D01*
X118306875Y-105461590D01*
X118227826Y-105598509D01*
X118227823Y-105598516D01*
X118186900Y-105751243D01*
X118186900Y-105909357D01*
X118196835Y-105946433D01*
X118227823Y-106062083D01*
X118227826Y-106062090D01*
X118306875Y-106199009D01*
X118306879Y-106199014D01*
X118306880Y-106199016D01*
X118418684Y-106310820D01*
X118418686Y-106310821D01*
X118418690Y-106310824D01*
X118555609Y-106389873D01*
X118555616Y-106389877D01*
X118685946Y-106424798D01*
X118741533Y-106456892D01*
X118798036Y-106513395D01*
X118906464Y-106575995D01*
X119027399Y-106608400D01*
X131048137Y-106608400D01*
X131115176Y-106628085D01*
X131160931Y-106680889D01*
X131170875Y-106750047D01*
X131167912Y-106764490D01*
X131151500Y-106825743D01*
X131151500Y-106983857D01*
X131152107Y-106986120D01*
X131192423Y-107136583D01*
X131192424Y-107136586D01*
X131259887Y-107253436D01*
X131276500Y-107315436D01*
X131276500Y-109116279D01*
X131256815Y-109183318D01*
X131240181Y-109203960D01*
X123566533Y-116877607D01*
X123510946Y-116909701D01*
X123380614Y-116944623D01*
X123380609Y-116944626D01*
X123243690Y-117023675D01*
X123243682Y-117023681D01*
X123131881Y-117135482D01*
X123131875Y-117135490D01*
X123052826Y-117272409D01*
X123052823Y-117272416D01*
X123011900Y-117425143D01*
X123011900Y-117583256D01*
X123052823Y-117735983D01*
X123052826Y-117735990D01*
X123131875Y-117872909D01*
X123131881Y-117872917D01*
X123249431Y-117990467D01*
X123246811Y-117993086D01*
X123278168Y-118035366D01*
X123282843Y-118105079D01*
X123249476Y-118165863D01*
X109986236Y-131429105D01*
X109897706Y-131517634D01*
X109897704Y-131517637D01*
X109835105Y-131626063D01*
X109835105Y-131626064D01*
X109802700Y-131746999D01*
X109802700Y-134608499D01*
X109802700Y-134733701D01*
X109835105Y-134854636D01*
X109897704Y-134963062D01*
X109897706Y-134963065D01*
X111647060Y-136712419D01*
X111680545Y-136773742D01*
X111675561Y-136843434D01*
X111633689Y-136899367D01*
X111568225Y-136923784D01*
X111559379Y-136924100D01*
X106564810Y-136924100D01*
X106497771Y-136904415D01*
X106477129Y-136887781D01*
X106330665Y-136741317D01*
X106330663Y-136741315D01*
X106233637Y-136685297D01*
X106125418Y-136656300D01*
X106125417Y-136656300D01*
X99838721Y-136656300D01*
X99771682Y-136636615D01*
X99725927Y-136583811D01*
X99715983Y-136514653D01*
X99745008Y-136451097D01*
X99751040Y-136444619D01*
X113557840Y-122637819D01*
X127683868Y-108511790D01*
X127739451Y-108479699D01*
X127869784Y-108444777D01*
X128006716Y-108365720D01*
X128118520Y-108253916D01*
X128197577Y-108116984D01*
X128238500Y-107964257D01*
X128238500Y-107806143D01*
X128197577Y-107653416D01*
X128179829Y-107622675D01*
X128118524Y-107516490D01*
X128118518Y-107516482D01*
X128006717Y-107404681D01*
X128006709Y-107404675D01*
X127869790Y-107325626D01*
X127869786Y-107325624D01*
X127869784Y-107325623D01*
X127717057Y-107284700D01*
X127558943Y-107284700D01*
X127406216Y-107325623D01*
X127406209Y-107325626D01*
X127269290Y-107404675D01*
X127269282Y-107404681D01*
X127157481Y-107516482D01*
X127157475Y-107516490D01*
X127078426Y-107653409D01*
X127078423Y-107653414D01*
X127043501Y-107783746D01*
X127011407Y-107839333D01*
X97657536Y-137193205D01*
X97569006Y-137281734D01*
X97569004Y-137281737D01*
X97506405Y-137390163D01*
X97499514Y-137415880D01*
X97474000Y-137511099D01*
X89681024Y-137511099D01*
X89699998Y-137414059D01*
X89700609Y-137411133D01*
X90039125Y-135886542D01*
X90039822Y-135883585D01*
X90416934Y-134368163D01*
X90417728Y-134365137D01*
X90425086Y-134338479D01*
X90833229Y-132859710D01*
X90834060Y-132856846D01*
X91287653Y-131362500D01*
X91288601Y-131359517D01*
X91780003Y-129877175D01*
X91780979Y-129874349D01*
X92309877Y-128404960D01*
X92310975Y-128402028D01*
X92876998Y-126946614D01*
X92878177Y-126943693D01*
X93024713Y-126593506D01*
X93480998Y-125503091D01*
X93482216Y-125500281D01*
X94121456Y-124075409D01*
X94122705Y-124072715D01*
X94797965Y-122664463D01*
X94799293Y-122661781D01*
X95510102Y-121271142D01*
X95511479Y-121268532D01*
X96257368Y-119896417D01*
X96258872Y-119893733D01*
X97039303Y-118541126D01*
X97040889Y-118538457D01*
X97143008Y-118371419D01*
X97855464Y-117206045D01*
X97857075Y-117203483D01*
X98705251Y-115892158D01*
X98706959Y-115889591D01*
X99588129Y-114600290D01*
X99589889Y-114597785D01*
X100503538Y-113331261D01*
X100505344Y-113328823D01*
X100697286Y-113076511D01*
X107276500Y-113076511D01*
X107276500Y-113319088D01*
X107308161Y-113559585D01*
X107370947Y-113793904D01*
X107463773Y-114018005D01*
X107463776Y-114018012D01*
X107585064Y-114228089D01*
X107585066Y-114228092D01*
X107585067Y-114228093D01*
X107732733Y-114420536D01*
X107732739Y-114420543D01*
X107904256Y-114592060D01*
X107904263Y-114592066D01*
X107915028Y-114600326D01*
X108096711Y-114739736D01*
X108306788Y-114861024D01*
X108530900Y-114953854D01*
X108765211Y-115016638D01*
X108945586Y-115040384D01*
X109005711Y-115048300D01*
X109005712Y-115048300D01*
X109248289Y-115048300D01*
X109296388Y-115041967D01*
X109488789Y-115016638D01*
X109723100Y-114953854D01*
X109947212Y-114861024D01*
X110157289Y-114739736D01*
X110349738Y-114592065D01*
X110521265Y-114420538D01*
X110668936Y-114228089D01*
X110790224Y-114018012D01*
X110883054Y-113793900D01*
X110945838Y-113559589D01*
X110977500Y-113319088D01*
X110977500Y-113076512D01*
X110945838Y-112836011D01*
X110883054Y-112601700D01*
X110790224Y-112377588D01*
X110668936Y-112167511D01*
X110521265Y-111975062D01*
X110521260Y-111975056D01*
X110349743Y-111803539D01*
X110349736Y-111803533D01*
X110157293Y-111655867D01*
X110157292Y-111655866D01*
X110157289Y-111655864D01*
X109947212Y-111534576D01*
X109947205Y-111534573D01*
X109723104Y-111441747D01*
X109488785Y-111378961D01*
X109248289Y-111347300D01*
X109248288Y-111347300D01*
X109005712Y-111347300D01*
X109005711Y-111347300D01*
X108765214Y-111378961D01*
X108530895Y-111441747D01*
X108306794Y-111534573D01*
X108306785Y-111534577D01*
X108096706Y-111655867D01*
X107904263Y-111803533D01*
X107904256Y-111803539D01*
X107732739Y-111975056D01*
X107732733Y-111975063D01*
X107585067Y-112167506D01*
X107463777Y-112377585D01*
X107463773Y-112377594D01*
X107370947Y-112601695D01*
X107308161Y-112836014D01*
X107276500Y-113076511D01*
X100697286Y-113076511D01*
X101450887Y-112085889D01*
X101452750Y-112083504D01*
X102429566Y-110864976D01*
X102431490Y-110862638D01*
X103438927Y-109669334D01*
X103440902Y-109667053D01*
X104478338Y-108499705D01*
X104480374Y-108497472D01*
X105547132Y-107356845D01*
X105549241Y-107354646D01*
X106644594Y-106241516D01*
X106646765Y-106239366D01*
X107770056Y-105154398D01*
X107772237Y-105152345D01*
X108922735Y-104096248D01*
X108924997Y-104094224D01*
X110101928Y-103067709D01*
X110104254Y-103065731D01*
X111306856Y-102069459D01*
X111309230Y-102067542D01*
X112536751Y-101102136D01*
X112539245Y-101100227D01*
X113790843Y-100166347D01*
X113793307Y-100164556D01*
X115068353Y-99262674D01*
X115070796Y-99260992D01*
X116368291Y-98391820D01*
X116370830Y-98390165D01*
X117689979Y-97554231D01*
X117692588Y-97552624D01*
X119032502Y-96750491D01*
X119035157Y-96748947D01*
X120395045Y-95981089D01*
X120397702Y-95979633D01*
X121776615Y-95246584D01*
X121779382Y-95245158D01*
X123176477Y-94547365D01*
X123179282Y-94546009D01*
X124593560Y-93883970D01*
X124596388Y-93882689D01*
X126027188Y-93256714D01*
X126029991Y-93255531D01*
X127476162Y-92666128D01*
X127478973Y-92665023D01*
X128939692Y-92112527D01*
X128942543Y-92111489D01*
X130416837Y-91596268D01*
X130419694Y-91595310D01*
X131906546Y-91117719D01*
X131909528Y-91116803D01*
X133408011Y-90677138D01*
X133410912Y-90676326D01*
X134920167Y-90274839D01*
X134923092Y-90274101D01*
X136442025Y-89911087D01*
X136444999Y-89910416D01*
X137972664Y-89586100D01*
X137975617Y-89585512D01*
X138710431Y-89448921D01*
X138779938Y-89456023D01*
X138834573Y-89499575D01*
X138856988Y-89565752D01*
X138853905Y-89598763D01*
X138817960Y-89754241D01*
X138706580Y-90406224D01*
X138706580Y-90406225D01*
X138633185Y-91063532D01*
X138633184Y-91063545D01*
X138633184Y-91063548D01*
X138598014Y-91724026D01*
X138601190Y-92385433D01*
X138618770Y-92665000D01*
X138642699Y-93045545D01*
X138642700Y-93045555D01*
X138722400Y-93702113D01*
X138722405Y-93702146D01*
X138840034Y-94352998D01*
X138995196Y-94995953D01*
X138995198Y-94995961D01*
X139187373Y-95628849D01*
X139269798Y-95852704D01*
X139317080Y-95981118D01*
X139415911Y-96249529D01*
X139415912Y-96249532D01*
X139680034Y-96855897D01*
X139680035Y-96855900D01*
X139680038Y-96855907D01*
X139680039Y-96855908D01*
X139978876Y-97445963D01*
X139978882Y-97445973D01*
X140311412Y-98017698D01*
X140311419Y-98017710D01*
X140676534Y-98569202D01*
X140676554Y-98569230D01*
X140880284Y-98841267D01*
X141073014Y-99098616D01*
X141499512Y-99604153D01*
X141499519Y-99604160D01*
X141954592Y-100084110D01*
X141954601Y-100084119D01*
X142034956Y-100159579D01*
X142436742Y-100536893D01*
X142436754Y-100536903D01*
X142827966Y-100863750D01*
X142944320Y-100960960D01*
X143134737Y-101102142D01*
X143475628Y-101354891D01*
X144028856Y-101717348D01*
X144028869Y-101717356D01*
X144028877Y-101717361D01*
X144028893Y-101717370D01*
X144028901Y-101717375D01*
X144539992Y-102011364D01*
X144602207Y-102047151D01*
X145193690Y-102343152D01*
X145801336Y-102604369D01*
X146423104Y-102829923D01*
X147056900Y-103019055D01*
X147700594Y-103171130D01*
X148352021Y-103285636D01*
X149008990Y-103362188D01*
X149601309Y-103396580D01*
X149669274Y-103400527D01*
X149669282Y-103400528D01*
X149669292Y-103400528D01*
X150330717Y-103400528D01*
X150330724Y-103400527D01*
X150991009Y-103362188D01*
X151647978Y-103285636D01*
X152299405Y-103171130D01*
X152943099Y-103019055D01*
X153576895Y-102829923D01*
X154198663Y-102604369D01*
X154806309Y-102343152D01*
X155397792Y-102047151D01*
X155971122Y-101717361D01*
X156524371Y-101354891D01*
X157055679Y-100960960D01*
X157563257Y-100536893D01*
X158045400Y-100084117D01*
X158500487Y-99604153D01*
X158926985Y-99098616D01*
X159323462Y-98569206D01*
X159688584Y-98017703D01*
X160021123Y-97445963D01*
X160319960Y-96855908D01*
X160584091Y-96249522D01*
X160812627Y-95628845D01*
X161004800Y-94995964D01*
X161159963Y-94353007D01*
X161277595Y-93702137D01*
X161357300Y-93045543D01*
X161398809Y-92385433D01*
X161401985Y-91724026D01*
X161366815Y-91063548D01*
X161323620Y-90676709D01*
X161293418Y-90406225D01*
X161293418Y-90406224D01*
X161268262Y-90258970D01*
X161182040Y-89754249D01*
X161146059Y-89598615D01*
X161150137Y-89528867D01*
X161191277Y-89472393D01*
X161256419Y-89447127D01*
X161289509Y-89448770D01*
G37*
%TD.AperFunction*%
%TD*%
M02*
