%TF.GenerationSoftware,KiCad,Pcbnew,9.0.9-9.0.9~ubuntu24.04.1*%
%TF.CreationDate,2026-10-10T22:22:06+00:00*%
%TF.ProjectId,eclipse-sprig,65636c69-7073-4652-9d73-707269672e6b,rev?*%
%TF.SameCoordinates,Original*%
%TF.FileFunction,Copper,L2,Bot*%
%TF.FilePolarity,Positive*%
%FSLAX46Y46*%
G04 Gerber Fmt 4.6, Leading zero omitted, Abs format (unit mm)*
G04 Created by KiCad (PCBNEW 9.0.9-9.0.9~ubuntu24.04.1) date 2026-10-10 22:22:06*
%MOMM*%
%LPD*%
G01*
G04 APERTURE LIST*
%TA.AperFunction,ViaPad*%
%ADD10C,0.450000*%
%TD*%
%TA.AperFunction,Conductor*%
%ADD11C,0.150000*%
%TD*%
G04 APERTURE END LIST*
D10*
%TO.N,Net-(D1-K)*%
X112385257Y-103304870D03*
X99750000Y-100750000D03*
X116705192Y-98208702D03*
X116500665Y-91755529D03*
X122577781Y-109883241D03*
X111111039Y-94755679D03*
X117452798Y-106301971D03*
X130193728Y-104699176D03*
X132733959Y-99765379D03*
X126211045Y-104327376D03*
X123415943Y-103514079D03*
X146220469Y-100990227D03*
X133011425Y-93302034D03*
X129523076Y-107400255D03*
X137635896Y-97693718D03*
X136258960Y-99606037D03*
X121702946Y-98101769D03*
X137573096Y-105590468D03*
X124099115Y-94578351D03*
X119209036Y-97927378D03*
X127334610Y-95926635D03*
%TD*%
D11*
%TO.N,Net-(D1-K)*%
X134648995Y-95803046D02*
X137635896Y-97693718D01*
X136557543Y-102556352D02*
X143819509Y-103576955D01*
X143809606Y-103575563D02*
X146220469Y-100990227D01*
X122356814Y-106256805D02*
X124298793Y-107550312D01*
X126269091Y-108781491D02*
X129523076Y-107400255D01*
X114355859Y-96228382D02*
X116549422Y-95029099D01*
X129192782Y-98270762D02*
X130990370Y-97394020D01*
X126985562Y-99444361D02*
X127334610Y-95926635D01*
X122495527Y-106349198D02*
X122577781Y-109883241D01*
X120453277Y-104907362D02*
X122356814Y-106256805D01*
X123963551Y-101209271D02*
X125677885Y-100179195D01*
X116767942Y-102045287D02*
X118589795Y-103503127D01*
X113492757Y-96733412D02*
X116705192Y-98208702D01*
X99750000Y-100750000D02*
X100000000Y-100000000D01*
X100000000Y-100000000D02*
X107331347Y-100170639D01*
X110494585Y-100317969D02*
X112385257Y-103304870D01*
X107997292Y-100201655D02*
X110077984Y-98815755D01*
X117678868Y-102774207D02*
X117452798Y-106301971D01*
X119478299Y-100848980D02*
X121702946Y-98101769D01*
X125677885Y-100179195D02*
X127421454Y-99199416D01*
X112198104Y-97490956D02*
X114355859Y-96228382D01*
X120053960Y-104606455D02*
X123415943Y-103514079D01*
X133908907Y-102246771D02*
X136258960Y-99606037D01*
X129273795Y-101705004D02*
X136557543Y-102556352D01*
X116549422Y-95029099D02*
X118776939Y-93894123D01*
X114656739Y-100511824D02*
X121972209Y-101023372D01*
X129642179Y-98051576D02*
X132733959Y-99765379D01*
X124461386Y-101255746D02*
X126211045Y-104327376D01*
X121972209Y-101023372D02*
X129273795Y-101705004D01*
X127421454Y-99199416D02*
X129192782Y-98270762D01*
X130990370Y-97394020D02*
X132812697Y-96569931D01*
X124298793Y-107550312D02*
X126277572Y-108786790D01*
X121027485Y-92828692D02*
X124099115Y-94578351D01*
X135895384Y-102478957D02*
X137573096Y-105590468D01*
X107331347Y-100170639D02*
X114656739Y-100511824D01*
X132812697Y-96569931D02*
X134658222Y-95799192D01*
X132357116Y-96775953D02*
X133011425Y-93302034D01*
X116984389Y-100674589D02*
X119209036Y-97927378D01*
X110077984Y-98815755D02*
X112198104Y-97490956D01*
X116110710Y-95268956D02*
X116500665Y-91755529D01*
X118776939Y-93894123D02*
X121036523Y-92824413D01*
X114989261Y-100535076D02*
X116767942Y-102045287D01*
X118589795Y-103503127D02*
X120453277Y-104907362D01*
X128444069Y-101627546D02*
X130193728Y-104699176D01*
X110926032Y-98285835D02*
X111111039Y-94755679D01*
%TD*%
M02*
