%TF.GenerationSoftware,KiCad,Pcbnew,9.0.9-9.0.9~ubuntu24.04.1*%
%TF.CreationDate,2026-10-10T22:22:06+00:00*%
%TF.ProjectId,eclipse-sprig,65636c69-7073-4652-9d73-707269672e6b,rev?*%
%TF.SameCoordinates,Original*%
%TF.FileFunction,Drillmap*%
%TF.FilePolarity,Positive*%
%FSLAX45Y45*%
G04 Gerber Fmt 4.5, Leading zero omitted, Abs format (unit mm)*
G04 Created by KiCad (PCBNEW 9.0.9-9.0.9~ubuntu24.04.1) date 2026-10-10 22:22:06*
%MOMM*%
%LPD*%
G01*
G04 APERTURE LIST*
%ADD10C,0.050000*%
%ADD11C,0.200000*%
%ADD12C,0.100000*%
G04 APERTURE END LIST*
D10*
X9795000Y-9850000D02*
X9795000Y-10150000D01*
X9795000Y-10150000D02*
X10060000Y-10150000D01*
X10060000Y-9850000D02*
X9795000Y-9850000D01*
X10060000Y-9951383D02*
X10060000Y-9850000D01*
X10060000Y-10051410D02*
X10731390Y-10067037D01*
X10060000Y-10150000D02*
X10060000Y-10051410D01*
X10731390Y-10067037D02*
X11030888Y-10080986D01*
X10734298Y-9967077D02*
X10060000Y-9951383D01*
X10785666Y-9969456D02*
X10734298Y-9967077D01*
X10954265Y-9977309D02*
X11034911Y-9923593D01*
X10980080Y-9839962D02*
X10785666Y-9969456D01*
X11030888Y-10080986D02*
X11091523Y-10176778D01*
X11034911Y-9923593D02*
X11245690Y-9791883D01*
X11036066Y-9665401D02*
X11036906Y-9671193D01*
X11036906Y-9671193D02*
X11039898Y-9676223D01*
X11039898Y-9676223D02*
X11044588Y-9679725D01*
X11044440Y-9505620D02*
X11036066Y-9665401D01*
X11044588Y-9679725D02*
X11058249Y-9681584D01*
X11045881Y-9499948D02*
X11044440Y-9505620D01*
X11049382Y-9495258D02*
X11045881Y-9499948D01*
X11052316Y-9794799D02*
X10980080Y-9839962D01*
X11054412Y-9492266D02*
X11049382Y-9495258D01*
X11058249Y-9681584D02*
X11052316Y-9794799D01*
X11068193Y-9491845D02*
X11054412Y-9492266D01*
X11069685Y-9463384D02*
X11068193Y-9491845D01*
X11071683Y-9452603D02*
X11069685Y-9463384D01*
X11076403Y-9442707D02*
X11071683Y-9452603D01*
X11078006Y-10196293D02*
X11080112Y-10201754D01*
X11078151Y-10190442D02*
X11078006Y-10196293D01*
X11080112Y-10201754D02*
X11165687Y-10336946D01*
X11080524Y-10185092D02*
X11078151Y-10190442D01*
X11083524Y-9434370D02*
X11076403Y-9442707D01*
X11091523Y-10176778D02*
X11080524Y-10185092D01*
X11092560Y-9428159D02*
X11083524Y-9434370D01*
X11102895Y-9424499D02*
X11092560Y-9428159D01*
X11113825Y-9423639D02*
X11102895Y-9424499D01*
X11124606Y-9425637D02*
X11113825Y-9423639D01*
X11133322Y-10085757D02*
X11479071Y-10102241D01*
X11134502Y-9430358D02*
X11124606Y-9425637D01*
X11139279Y-9740458D02*
X11142134Y-9685980D01*
X11142134Y-9685980D02*
X11155916Y-9685559D01*
X11142839Y-9437478D02*
X11134502Y-9430358D01*
X11149050Y-9446514D02*
X11142839Y-9437478D01*
X11152078Y-9496241D02*
X11153570Y-9467780D01*
X11152709Y-9456849D02*
X11149050Y-9446514D01*
X11153570Y-9467780D02*
X11152709Y-9456849D01*
X11155916Y-9685559D02*
X11160945Y-9682567D01*
X11160945Y-9682567D02*
X11164447Y-9677877D01*
X11162499Y-10131851D02*
X11133322Y-10085757D01*
X11164447Y-9677877D02*
X11165888Y-9672205D01*
X11165687Y-10336946D02*
X11169722Y-10341186D01*
X11165740Y-9498100D02*
X11152078Y-9496241D01*
X11165888Y-9672205D02*
X11174262Y-9512424D01*
X11169722Y-10341186D02*
X11175072Y-10343558D01*
X11170429Y-9501602D02*
X11165740Y-9498100D01*
X11173422Y-9506632D02*
X11170429Y-9501602D01*
X11174262Y-9512424D02*
X11173422Y-9506632D01*
X11174719Y-10125467D02*
X11162499Y-10131851D01*
X11175072Y-10343558D02*
X11180923Y-10343703D01*
X11180570Y-10125612D02*
X11174719Y-10125467D01*
X11180923Y-10343703D02*
X11193143Y-10337319D01*
X11185920Y-10127985D02*
X11180570Y-10125612D01*
X11189955Y-10132224D02*
X11185920Y-10127985D01*
X11193143Y-10337319D02*
X11208386Y-10361400D01*
X11194559Y-9705941D02*
X11139279Y-9740458D01*
X11208386Y-10361400D02*
X11215409Y-10369819D01*
X11215409Y-10369819D02*
X11224372Y-10376134D01*
X11224372Y-10376134D02*
X11234664Y-10379914D01*
X11234664Y-10379914D02*
X11245584Y-10380902D01*
X11245584Y-10380902D02*
X11256387Y-10379029D01*
X11245690Y-9791883D02*
X11360491Y-9724709D01*
X11256387Y-10379029D02*
X11266338Y-10374424D01*
X11264119Y-10292392D02*
X11275118Y-10284078D01*
X11266338Y-10374424D02*
X11274757Y-10367401D01*
X11274757Y-10367401D02*
X11281072Y-10358438D01*
X11275118Y-10284078D02*
X11277491Y-10278728D01*
X11275530Y-10267416D02*
X11189955Y-10132224D01*
X11277491Y-10278728D02*
X11277636Y-10272877D01*
X11277636Y-10272877D02*
X11275530Y-10267416D01*
X11279362Y-10316473D02*
X11264119Y-10292392D01*
X11281072Y-10358438D02*
X11284852Y-10348146D01*
X11283967Y-10326423D02*
X11279362Y-10316473D01*
X11284852Y-10348146D02*
X11285839Y-10337227D01*
X11285839Y-10337227D02*
X11283967Y-10326423D01*
X11360491Y-9724709D02*
X11463516Y-9772023D01*
X11410334Y-9579683D02*
X11194559Y-9705941D01*
X11448998Y-9672921D02*
X11678290Y-9547130D01*
X11458820Y-9784986D02*
X11459744Y-9790765D01*
X11459744Y-9790765D02*
X11462809Y-9795751D01*
X11462809Y-9795751D02*
X11467549Y-9799184D01*
X11463516Y-9772023D02*
X11458820Y-9784986D01*
X11467549Y-9799184D02*
X11612949Y-9865958D01*
X11468000Y-10001237D02*
X10954265Y-9977309D01*
X11479071Y-10102241D02*
X11644432Y-10242643D01*
X11498573Y-9695688D02*
X11448998Y-9672921D01*
X11505345Y-9683678D02*
X11498573Y-9695688D01*
X11510331Y-9680613D02*
X11505345Y-9683678D01*
X11516110Y-9679689D02*
X11510331Y-9680613D01*
X11521803Y-9681047D02*
X11516110Y-9679689D01*
X11564118Y-9360702D02*
X11564619Y-9366533D01*
X11564619Y-9366533D02*
X11567314Y-9371728D01*
X11567314Y-9371728D02*
X11571792Y-9375497D01*
X11571792Y-9375497D02*
X11585323Y-9378147D01*
X11572816Y-9490826D02*
X11410334Y-9579683D01*
X11581768Y-9201678D02*
X11564118Y-9360702D01*
X11583536Y-9196099D02*
X11581768Y-9201678D01*
X11585323Y-9378147D02*
X11572816Y-9490826D01*
X11587304Y-9191621D02*
X11583536Y-9196099D01*
X11592500Y-9188926D02*
X11587304Y-9191621D01*
X11606282Y-9189307D02*
X11592500Y-9188926D01*
X11609426Y-9160981D02*
X11606282Y-9189307D01*
X11612047Y-9150335D02*
X11609426Y-9160981D01*
X11612949Y-9865958D02*
X11618642Y-9867316D01*
X11617335Y-9140730D02*
X11612047Y-9150335D01*
X11618642Y-9867316D02*
X11624421Y-9866392D01*
X11624421Y-9866392D02*
X11629407Y-9863327D01*
X11624928Y-9132821D02*
X11617335Y-9140730D01*
X11629407Y-9863327D02*
X11636179Y-9851317D01*
X11634310Y-9127146D02*
X11624928Y-9132821D01*
X11636179Y-9851317D02*
X11662078Y-9863211D01*
X11644432Y-10242643D02*
X11723950Y-10306300D01*
X11644841Y-9124094D02*
X11634310Y-9127146D01*
X11647442Y-10114015D02*
X12193153Y-10152175D01*
X11655803Y-9123870D02*
X11644841Y-9124094D01*
X11662078Y-9863211D02*
X11672554Y-9866447D01*
X11662656Y-9442863D02*
X11668810Y-9387414D01*
X11666449Y-9126492D02*
X11655803Y-9123870D01*
X11667203Y-9747821D02*
X11521803Y-9681047D01*
X11668810Y-9387414D02*
X11682592Y-9387795D01*
X11671236Y-9774982D02*
X11675932Y-9762019D01*
X11671943Y-9751254D02*
X11667203Y-9747821D01*
X11672554Y-9866447D02*
X11683511Y-9866862D01*
X11675008Y-9756240D02*
X11671943Y-9751254D01*
X11675932Y-9762019D02*
X11675008Y-9756240D01*
X11676054Y-9131780D02*
X11666449Y-9126492D01*
X11678290Y-9547130D02*
X11899745Y-9434293D01*
X11682555Y-10592609D02*
X11683328Y-10598410D01*
X11682592Y-9387795D02*
X11687788Y-9385100D01*
X11683328Y-10598410D02*
X11686261Y-10603475D01*
X11683511Y-9866862D02*
X11694201Y-9864427D01*
X11683963Y-9139373D02*
X11676054Y-9131780D01*
X11685704Y-10016446D02*
X11468000Y-10001237D01*
X11686261Y-10603475D02*
X11690910Y-10607031D01*
X11687788Y-9385100D02*
X11691556Y-9380622D01*
X11689637Y-9148755D02*
X11683963Y-9139373D01*
X11689769Y-9198573D02*
X11692913Y-9170247D01*
X11690910Y-10607031D02*
X11704549Y-10609049D01*
X11691556Y-9380622D02*
X11693324Y-9375042D01*
X11692690Y-9159285D02*
X11689637Y-9148755D01*
X11692788Y-10432936D02*
X11682555Y-10592609D01*
X11692913Y-9170247D02*
X11692690Y-9159285D01*
X11693324Y-9375042D02*
X11710974Y-9216019D01*
X11694201Y-9864427D02*
X11703897Y-9859307D01*
X11694294Y-10427281D02*
X11692788Y-10432936D01*
X11697135Y-9786876D02*
X11671236Y-9774982D01*
X11697850Y-10422632D02*
X11694294Y-10427281D01*
X11702726Y-10637491D02*
X11703459Y-10648430D01*
X11702915Y-10419699D02*
X11697850Y-10422632D01*
X11703300Y-9201224D02*
X11689769Y-9198573D01*
X11703459Y-10648430D02*
X11706999Y-10658808D01*
X11703897Y-9859307D02*
X11711937Y-9851853D01*
X11704549Y-10609049D02*
X11702726Y-10637491D01*
X11706416Y-9792713D02*
X11697135Y-9786876D01*
X11706999Y-10658808D02*
X11713103Y-10667915D01*
X11707778Y-9204992D02*
X11703300Y-9201224D01*
X11708601Y-10165943D02*
X11647442Y-10114015D01*
X11710473Y-9210188D02*
X11707778Y-9204992D01*
X11710974Y-9216019D02*
X11710473Y-9210188D01*
X11711937Y-9851853D02*
X11717774Y-9842572D01*
X11713103Y-10667915D02*
X11721357Y-10675132D01*
X11713870Y-9800754D02*
X11706416Y-9792713D01*
X11716700Y-10419438D02*
X11702915Y-10419699D01*
X11717774Y-9842572D02*
X11721010Y-9832096D01*
X11718989Y-9810449D02*
X11713870Y-9800754D01*
X11721010Y-9832096D02*
X11721425Y-9821140D01*
X11721357Y-10675132D02*
X11731198Y-10679967D01*
X11721425Y-9821140D02*
X11718989Y-9810449D01*
X11723950Y-10306300D02*
X11716700Y-10419438D01*
X11731198Y-10679967D02*
X11741954Y-10682091D01*
X11741954Y-10682091D02*
X11752894Y-10681358D01*
X11745355Y-9913218D02*
X11747091Y-9918807D01*
X11745891Y-9907389D02*
X11745355Y-9913218D01*
X11747091Y-9918807D02*
X11757050Y-9928341D01*
X11748616Y-9902210D02*
X11745891Y-9907389D01*
X11752894Y-10681358D02*
X11763271Y-10677818D01*
X11757050Y-9928341D02*
X11685704Y-10016446D01*
X11763271Y-10677818D02*
X11772379Y-10671714D01*
X11772379Y-10671714D02*
X11779596Y-10663460D01*
X11779596Y-10663460D02*
X11784431Y-10653619D01*
X11784431Y-10653619D02*
X11786554Y-10642863D01*
X11786554Y-10642863D02*
X11788377Y-10614421D01*
X11787999Y-10023600D02*
X11822330Y-9981204D01*
X11788377Y-10614421D02*
X11802162Y-10614160D01*
X11800528Y-10424810D02*
X11804017Y-10370369D01*
X11802162Y-10614160D02*
X11807226Y-10611227D01*
X11804017Y-10370369D02*
X12015237Y-10530668D01*
X11807226Y-10611227D02*
X11810783Y-10606578D01*
X11810783Y-10606578D02*
X11812289Y-10600923D01*
X11812289Y-10600923D02*
X11822521Y-10441250D01*
X11814167Y-10426828D02*
X11800528Y-10424810D01*
X11818815Y-10430384D02*
X11814167Y-10426828D01*
X11821749Y-10435449D02*
X11818815Y-10430384D01*
X11822330Y-9981204D02*
X11833727Y-9988964D01*
X11822521Y-10441250D02*
X11821749Y-10435449D01*
X11833727Y-9988964D02*
X11839555Y-9989499D01*
X11839555Y-9989499D02*
X11845145Y-9987764D01*
X11845145Y-9987764D02*
X11849645Y-9984021D01*
X11849307Y-9777866D02*
X11748616Y-9902210D01*
X11849645Y-9984021D02*
X11950336Y-9859678D01*
X11853807Y-9774124D02*
X11849307Y-9777866D01*
X11856300Y-9344221D02*
X11662656Y-9442863D01*
X11859396Y-9772388D02*
X11853807Y-9774124D01*
X11865224Y-9772924D02*
X11859396Y-9772388D01*
X11876621Y-9780684D02*
X11865224Y-9772924D01*
X11889651Y-10310819D02*
X11708601Y-10165943D01*
X11894557Y-9758535D02*
X11876621Y-9780684D01*
X11899745Y-9434293D02*
X12109444Y-9335019D01*
X11902510Y-9750988D02*
X11894557Y-9758535D01*
X11912145Y-9745756D02*
X11902510Y-9750988D01*
X11922807Y-9743196D02*
X11912145Y-9745756D01*
X11933767Y-9743483D02*
X11922807Y-9743196D01*
X11935095Y-10033885D02*
X11787999Y-10023600D01*
X11941901Y-9833546D02*
X11959837Y-9811398D01*
X11944280Y-9746597D02*
X11933767Y-9743483D01*
X11950336Y-9859678D02*
X11953061Y-9854499D01*
X11951861Y-9843081D02*
X11941901Y-9833546D01*
X11953061Y-9854499D02*
X11953596Y-9848670D01*
X11953596Y-9848670D02*
X11951861Y-9843081D01*
X11953628Y-9752326D02*
X11944280Y-9746597D01*
X11959837Y-9811398D02*
X11965566Y-9802049D01*
X11961175Y-9760279D02*
X11953628Y-9752326D01*
X11965566Y-9802049D02*
X11968680Y-9791537D01*
X11966407Y-9769915D02*
X11961175Y-9760279D01*
X11968680Y-9791537D02*
X11968967Y-9780576D01*
X11968967Y-9780576D02*
X11966407Y-9769915D01*
X11994746Y-9930657D02*
X11996482Y-9936246D01*
X11995282Y-9924828D02*
X11994746Y-9930657D01*
X11996482Y-9936246D02*
X12006441Y-9945780D01*
X11998007Y-9919649D02*
X11995282Y-9924828D01*
X12006441Y-9945780D02*
X11935095Y-10033885D01*
X12015237Y-10530668D02*
X12208300Y-10667519D01*
X12022499Y-10410927D02*
X11889651Y-10310819D01*
X12037390Y-10041039D02*
X12071721Y-9998643D01*
X12071721Y-9998643D02*
X12083118Y-10006403D01*
X12082258Y-9237250D02*
X11856300Y-9344221D01*
X12083118Y-10006403D02*
X12088946Y-10006939D01*
X12088946Y-10006939D02*
X12094536Y-10005203D01*
X12094536Y-10005203D02*
X12099036Y-10001461D01*
X12094684Y-9233252D02*
X12082258Y-9237250D01*
X12098698Y-9795306D02*
X11998007Y-9919649D01*
X12099036Y-10001461D02*
X12199727Y-9877117D01*
X12103198Y-9791563D02*
X12098698Y-9795306D01*
X12105672Y-10472225D02*
X12156278Y-10455782D01*
X12107720Y-9232607D02*
X12094684Y-9233252D01*
X12108787Y-9789828D02*
X12103198Y-9791563D01*
X12109444Y-9335019D02*
X12207954Y-9391132D01*
X12114615Y-9790363D02*
X12108787Y-9789828D01*
X12120480Y-9235358D02*
X12107720Y-9232607D01*
X12126012Y-9798123D02*
X12114615Y-9790363D01*
X12127160Y-10362473D02*
X12130320Y-10375894D01*
X12128749Y-10356840D02*
X12127160Y-10362473D01*
X12130320Y-10375894D02*
X12022499Y-10410927D01*
X12132092Y-9241318D02*
X12120480Y-9235358D01*
X12132372Y-10352244D02*
X12128749Y-10356840D01*
X12137479Y-10349384D02*
X12132372Y-10352244D01*
X12141767Y-9250080D02*
X12132092Y-9241318D01*
X12143948Y-9775974D02*
X12126012Y-9798123D01*
X12148582Y-9260641D02*
X12141767Y-9250080D01*
X12151901Y-9768427D02*
X12143948Y-9775974D01*
X12156278Y-10455782D02*
X12161610Y-10468497D01*
X12161536Y-9763195D02*
X12151901Y-9768427D01*
X12161610Y-10468497D02*
X12166206Y-10472121D01*
X12166206Y-10472121D02*
X12171839Y-10473709D01*
X12171839Y-10473709D02*
X12177651Y-10473021D01*
X12172198Y-9760636D02*
X12161536Y-9763195D01*
X12177651Y-10473021D02*
X12329820Y-10423579D01*
X12183158Y-9760923D02*
X12172198Y-9760636D01*
X12188293Y-10796389D02*
X12192016Y-10956346D01*
X12189301Y-10790624D02*
X12188293Y-10796389D01*
X12191292Y-9850986D02*
X12209228Y-9828837D01*
X12192016Y-10956346D02*
X12193291Y-10962058D01*
X12192439Y-10785683D02*
X12189301Y-10790624D01*
X12193153Y-10152175D02*
X12425299Y-10173847D01*
X12193291Y-10962058D02*
X12196655Y-10966847D01*
X12193671Y-9764037D02*
X12183158Y-9760923D01*
X12196655Y-10966847D02*
X12201596Y-10969985D01*
X12197228Y-10782319D02*
X12192439Y-10785683D01*
X12199727Y-9877117D02*
X12202452Y-9871938D01*
X12201252Y-9860520D02*
X12191292Y-9850986D01*
X12201596Y-10969985D02*
X12215359Y-10970806D01*
X12201868Y-10052554D02*
X12037390Y-10041039D01*
X12202145Y-9403636D02*
X12202562Y-9409474D01*
X12202452Y-9871938D02*
X12202988Y-9866109D01*
X12202562Y-9409474D02*
X12205181Y-9414708D01*
X12202988Y-9866109D02*
X12201252Y-9860520D01*
X12203019Y-9769765D02*
X12193671Y-9764037D01*
X12205181Y-9414708D02*
X12209604Y-9418542D01*
X12207954Y-9391132D02*
X12202145Y-9403636D01*
X12208300Y-10667519D02*
X12210938Y-10780858D01*
X12209228Y-9828837D02*
X12214957Y-9819488D01*
X12209604Y-9418542D02*
X12348631Y-9497734D01*
X12210566Y-9777718D02*
X12203019Y-9769765D01*
X12210938Y-10780858D02*
X12197228Y-10782319D01*
X12214957Y-9819488D02*
X12218071Y-9808976D01*
X12215359Y-10970806D02*
X12216022Y-10999299D01*
X12215798Y-9787354D02*
X12210566Y-9777718D01*
X12216022Y-10999299D02*
X12217706Y-11010133D01*
X12217706Y-11010133D02*
X12222136Y-11020162D01*
X12218071Y-9808976D02*
X12218358Y-9798015D01*
X12218358Y-9798015D02*
X12215798Y-9787354D01*
X12222136Y-11020162D02*
X12229011Y-11028703D01*
X12229011Y-11028703D02*
X12237863Y-11035173D01*
X12237863Y-11035173D02*
X12248087Y-11039132D01*
X12248087Y-11039132D02*
X12258988Y-11040310D01*
X12249530Y-9318143D02*
X12148582Y-9260641D01*
X12257323Y-9306769D02*
X12249530Y-9318143D01*
X12258988Y-11040310D02*
X12269822Y-11038626D01*
X12262557Y-9304150D02*
X12257323Y-9306769D01*
X12264005Y-10584470D02*
X12105672Y-10472225D01*
X12268395Y-9303733D02*
X12262557Y-9304150D01*
X12269822Y-11038626D02*
X12279851Y-11034196D01*
X12273948Y-9305582D02*
X12268395Y-9303733D01*
X12279851Y-11034196D02*
X12288392Y-11027321D01*
X12288392Y-11027321D02*
X12294863Y-11018469D01*
X12289648Y-10299941D02*
X12137479Y-10349384D01*
X12293646Y-10724365D02*
X12403383Y-10797434D01*
X12294863Y-11018469D02*
X12298822Y-11008245D01*
X12294915Y-10778903D02*
X12293646Y-10724365D01*
X12295460Y-10299254D02*
X12289648Y-10299941D01*
X12298822Y-11008245D02*
X12299999Y-10997344D01*
X12299336Y-10968852D02*
X12313046Y-10967391D01*
X12299999Y-10997344D02*
X12299336Y-10968852D01*
X12301093Y-10300842D02*
X12295460Y-10299254D01*
X12305689Y-10304466D02*
X12301093Y-10300842D01*
X12308678Y-10779725D02*
X12294915Y-10778903D01*
X12311021Y-10317180D02*
X12305689Y-10304466D01*
X12313046Y-10967391D02*
X12317836Y-10964027D01*
X12313619Y-10782863D02*
X12308678Y-10779725D01*
X12316983Y-10787652D02*
X12313619Y-10782863D01*
X12317836Y-10964027D02*
X12320973Y-10959086D01*
X12318258Y-10793364D02*
X12316983Y-10787652D01*
X12320973Y-10959086D02*
X12321981Y-10953321D01*
X12321981Y-10953321D02*
X12318258Y-10793364D01*
X12329820Y-10423579D02*
X12334927Y-10420719D01*
X12334927Y-10420719D02*
X12338550Y-10416123D01*
X12336979Y-10397069D02*
X12364084Y-10388262D01*
X12338126Y-10308373D02*
X12311021Y-10317180D01*
X12338550Y-10416123D02*
X12340139Y-10410490D01*
X12340139Y-10410490D02*
X12336979Y-10397069D01*
X12348631Y-9497734D02*
X12354184Y-9499583D01*
X12348907Y-10306375D02*
X12338126Y-10308373D01*
X12354184Y-9499583D02*
X12360022Y-9499166D01*
X12359837Y-10307236D02*
X12348907Y-10306375D01*
X12360022Y-9499166D02*
X12365256Y-9496547D01*
X12364084Y-10388262D02*
X12373980Y-10383542D01*
X12365256Y-9496547D02*
X12373048Y-9485173D01*
X12370172Y-10310896D02*
X12359837Y-10307236D01*
X12373048Y-9485173D02*
X12397813Y-9499279D01*
X12373980Y-10383542D02*
X12382317Y-10376421D01*
X12379208Y-10317106D02*
X12370172Y-10310896D01*
X12382317Y-10376421D02*
X12388527Y-10367385D01*
X12384667Y-10069619D02*
X12201868Y-10052554D01*
X12386329Y-10325443D02*
X12379208Y-10317106D01*
X12388527Y-10367385D02*
X12392187Y-10357050D01*
X12391049Y-10335339D02*
X12386329Y-10325443D01*
X12392187Y-10357050D02*
X12393047Y-10346120D01*
X12393047Y-10346120D02*
X12391049Y-10335339D01*
X12397813Y-9499279D02*
X12407966Y-9503416D01*
X12403383Y-10797434D02*
X12601261Y-10921081D01*
X12407966Y-9503416D02*
X12418845Y-9504784D01*
X12412975Y-9384775D02*
X12273948Y-9305582D01*
X12414625Y-9412184D02*
X12420433Y-9399680D01*
X12417397Y-9388608D02*
X12412975Y-9384775D01*
X12418845Y-9504784D02*
X12429707Y-9503290D01*
X12420016Y-9393842D02*
X12417397Y-9388608D01*
X12420433Y-9399680D02*
X12420016Y-9393842D01*
X12425299Y-10173847D02*
X12481412Y-10272356D01*
X12429707Y-9503290D02*
X12439812Y-9499035D01*
X12439389Y-9426290D02*
X12414625Y-9412184D01*
X12439812Y-9499035D02*
X12448471Y-9492310D01*
X12448126Y-9432914D02*
X12439389Y-9426290D01*
X12448471Y-9492310D02*
X12455095Y-9483573D01*
X12454851Y-9441573D02*
X12448126Y-9432914D01*
X12455095Y-9483573D02*
X12459232Y-9473419D01*
X12456992Y-10713014D02*
X12264005Y-10584470D01*
X12459106Y-9451678D02*
X12454851Y-9441573D01*
X12459232Y-9473419D02*
X12460600Y-9462540D01*
X12460600Y-9462540D02*
X12459106Y-9451678D01*
X12467002Y-10291221D02*
X12468851Y-10296774D01*
X12467419Y-10285383D02*
X12467002Y-10291221D01*
X12468851Y-10296774D02*
X12548044Y-10435801D01*
X12470038Y-10280149D02*
X12467419Y-10285383D01*
X12481412Y-10272356D02*
X12470038Y-10280149D01*
X12527400Y-10183378D02*
X12823568Y-10211027D01*
X12542037Y-9975061D02*
X12384667Y-10069619D01*
X12548044Y-10435801D02*
X12551877Y-10440224D01*
X12551877Y-10440224D02*
X12557111Y-10442843D01*
X12552717Y-10085307D02*
X12592917Y-10061153D01*
X12554401Y-10230780D02*
X12527400Y-10183378D01*
X12557111Y-10442843D02*
X12562949Y-10443259D01*
X12562949Y-10443259D02*
X12575453Y-10437451D01*
X12566906Y-10224971D02*
X12554401Y-10230780D01*
X12572744Y-10225388D02*
X12566906Y-10224971D01*
X12575453Y-10437451D02*
X12589559Y-10462215D01*
X12577978Y-10228007D02*
X12572744Y-10225388D01*
X12581811Y-10232430D02*
X12577978Y-10228007D01*
X12589559Y-10462215D02*
X12596183Y-10470952D01*
X12592917Y-10061153D02*
X12766006Y-9963887D01*
X12596183Y-10470952D02*
X12604843Y-10477677D01*
X12601261Y-10921081D02*
X12613139Y-10926494D01*
X12604843Y-10477677D02*
X12614948Y-10481932D01*
X12613139Y-10926494D02*
X12626012Y-10928649D01*
X12614948Y-10481932D02*
X12625810Y-10483426D01*
X12625810Y-10483426D02*
X12636688Y-10482058D01*
X12626012Y-10928649D02*
X12639005Y-10927398D01*
X12636688Y-10482058D02*
X12646842Y-10477921D01*
X12639005Y-10927398D02*
X12651231Y-10922826D01*
X12639614Y-10827129D02*
X12456992Y-10713014D01*
X12646842Y-10477921D02*
X12655579Y-10471298D01*
X12648443Y-10395875D02*
X12659817Y-10388082D01*
X12649672Y-9778800D02*
X12650242Y-9784625D01*
X12650242Y-9784625D02*
X12652997Y-9789788D01*
X12651231Y-10922826D02*
X12661857Y-10915247D01*
X12652997Y-9789788D02*
X12657518Y-9793505D01*
X12655579Y-10471298D02*
X12662304Y-10462638D01*
X12657518Y-9793505D02*
X12671079Y-9795998D01*
X12659817Y-10388082D02*
X12662436Y-10382848D01*
X12659885Y-9908814D02*
X12542037Y-9975061D01*
X12661003Y-10371457D02*
X12581811Y-10232430D01*
X12661857Y-10915247D02*
X12669852Y-10905548D01*
X12662304Y-10462638D02*
X12666559Y-10452533D01*
X12662436Y-10382848D02*
X12662852Y-10377010D01*
X12662549Y-10420639D02*
X12648443Y-10395875D01*
X12662852Y-10377010D02*
X12661003Y-10371457D01*
X12665471Y-9619582D02*
X12649672Y-9778800D01*
X12666559Y-10452533D02*
X12668053Y-10441671D01*
X12666685Y-10430793D02*
X12662549Y-10420639D01*
X12667174Y-9613982D02*
X12665471Y-9619582D01*
X12668053Y-10441671D02*
X12666685Y-10430793D01*
X12669852Y-10905548D02*
X12776793Y-10860154D01*
X12670890Y-9609461D02*
X12667174Y-9613982D01*
X12671079Y-9795998D02*
X12659885Y-9908814D01*
X12676054Y-9606706D02*
X12670890Y-9609461D01*
X12689839Y-9606926D02*
X12676054Y-9606706D01*
X12692654Y-9578565D02*
X12689839Y-9606926D01*
X12695151Y-9567889D02*
X12692654Y-9578565D01*
X12700327Y-9558224D02*
X12695151Y-9567889D01*
X12707827Y-9550227D02*
X12700327Y-9558224D01*
X12717142Y-9544444D02*
X12707827Y-9550227D01*
X12727637Y-9541268D02*
X12717142Y-9544444D01*
X12738595Y-9540918D02*
X12727637Y-9541268D01*
X12739654Y-10769738D02*
X12743972Y-10782832D01*
X12740746Y-10763988D02*
X12739654Y-10769738D01*
X12743955Y-10759093D02*
X12740746Y-10763988D01*
X12743972Y-10782832D02*
X12639614Y-10827129D01*
X12748792Y-10755799D02*
X12743955Y-10759093D01*
X12749160Y-9859809D02*
X12754668Y-9804292D01*
X12749271Y-9543415D02*
X12738595Y-9540918D01*
X12754668Y-9804292D02*
X12768454Y-9804512D01*
X12758937Y-9548591D02*
X12749271Y-9543415D01*
X12766006Y-9963887D02*
X12971520Y-9857226D01*
X12766934Y-9556092D02*
X12758937Y-9548591D01*
X12768454Y-9804512D02*
X12773618Y-9801757D01*
X12772717Y-9565407D02*
X12766934Y-9556092D01*
X12773429Y-9615220D02*
X12776243Y-9586860D01*
X12773618Y-9801757D02*
X12777334Y-9797236D01*
X12775892Y-9575901D02*
X12772717Y-9565407D01*
X12776243Y-9586860D02*
X12775892Y-9575901D01*
X12776793Y-10860154D02*
X12783213Y-10872356D01*
X12777334Y-9797236D02*
X12779037Y-9791636D01*
X12779037Y-9791636D02*
X12794836Y-9632418D01*
X12783213Y-10872356D02*
X12788107Y-10875565D01*
X12786989Y-9617713D02*
X12773429Y-9615220D01*
X12788107Y-10875565D02*
X12793857Y-10876657D01*
X12791511Y-9621429D02*
X12786989Y-9617713D01*
X12793857Y-10876657D02*
X12799587Y-10875465D01*
X12794266Y-9626593D02*
X12791511Y-9621429D01*
X12794836Y-9632418D02*
X12794266Y-9626593D01*
X12799587Y-10875465D02*
X12946868Y-10812948D01*
X12823568Y-10211027D02*
X12879680Y-10309536D01*
X12865271Y-10328401D02*
X12867120Y-10333954D01*
X12865687Y-10322563D02*
X12865271Y-10328401D01*
X12867120Y-10333954D02*
X12946312Y-10472981D01*
X12868306Y-10317329D02*
X12865687Y-10322563D01*
X12879680Y-10309536D02*
X12868306Y-10317329D01*
X12896073Y-10693282D02*
X12748792Y-10755799D01*
X12897360Y-9782137D02*
X12749160Y-9859809D01*
X12901803Y-10692091D02*
X12896073Y-10693282D01*
X12907553Y-10693182D02*
X12901803Y-10692091D01*
X12912448Y-10696391D02*
X12907553Y-10693182D01*
X12918867Y-10708593D02*
X12912448Y-10696391D01*
X12925719Y-10220647D02*
X13567582Y-10295670D01*
X12933184Y-10120839D02*
X12552717Y-10085307D01*
X12945102Y-10697457D02*
X12918867Y-10708593D01*
X12946312Y-10472981D02*
X12950145Y-10477404D01*
X12946868Y-10812948D02*
X12951706Y-10809654D01*
X12950145Y-10477404D02*
X12955379Y-10480023D01*
X12951689Y-10785915D02*
X12977923Y-10774779D01*
X12951706Y-10809654D02*
X12954915Y-10804760D01*
X12952670Y-10267960D02*
X12925719Y-10220647D01*
X12954915Y-10804760D02*
X12956007Y-10799010D01*
X12955379Y-10480023D02*
X12961217Y-10480439D01*
X12955667Y-10694527D02*
X12945102Y-10697457D01*
X12956007Y-10799010D02*
X12951689Y-10785915D01*
X12961217Y-10480439D02*
X12973722Y-10474631D01*
X12965174Y-10262151D02*
X12952670Y-10267960D01*
X12966631Y-10694431D02*
X12955667Y-10694527D01*
X12971012Y-10262568D02*
X12965174Y-10262151D01*
X12971520Y-9857226D02*
X13070676Y-9912189D01*
X12973722Y-10474631D02*
X12987828Y-10499395D01*
X12976246Y-10265187D02*
X12971012Y-10262568D01*
X12977246Y-10697177D02*
X12966631Y-10694431D01*
X12977923Y-10774779D02*
X12987370Y-10769215D01*
X12980079Y-10269610D02*
X12976246Y-10265187D01*
X12986789Y-10702576D02*
X12977246Y-10697177D01*
X12987370Y-10769215D02*
X12995055Y-10761394D01*
X12987828Y-10499395D02*
X12994452Y-10508132D01*
X12994452Y-10508132D02*
X13003111Y-10514857D01*
X12994609Y-10710260D02*
X12986789Y-10702576D01*
X12995055Y-10761394D02*
X13000454Y-10751852D01*
X13000174Y-10719708D02*
X12994609Y-10710260D01*
X13000454Y-10751852D02*
X13003200Y-10741237D01*
X13003104Y-10730273D02*
X13000174Y-10719708D01*
X13003111Y-10514857D02*
X13013216Y-10519112D01*
X13003200Y-10741237D02*
X13003104Y-10730273D01*
X13013216Y-10519112D02*
X13024078Y-10520606D01*
X13024078Y-10520606D02*
X13034956Y-10519238D01*
X13034956Y-10519238D02*
X13045110Y-10515101D01*
X13045110Y-10515101D02*
X13053847Y-10508478D01*
X13046711Y-10433055D02*
X13058085Y-10425262D01*
X13053847Y-10508478D02*
X13060573Y-10499818D01*
X13058085Y-10425262D02*
X13060704Y-10420028D01*
X13059272Y-10408637D02*
X12980079Y-10269610D01*
X13060573Y-10499818D02*
X13064827Y-10489713D01*
X13060704Y-10420028D02*
X13061121Y-10414190D01*
X13060817Y-10457819D02*
X13046711Y-10433055D01*
X13061121Y-10414190D02*
X13059272Y-10408637D01*
X13063687Y-9812273D02*
X13120302Y-9784661D01*
X13064827Y-10489713D02*
X13066322Y-10478851D01*
X13064954Y-10467973D02*
X13060817Y-10457819D01*
X13065013Y-9924760D02*
X13065498Y-9930593D01*
X13065498Y-9930593D02*
X13068177Y-9935796D01*
X13066322Y-10478851D02*
X13064954Y-10467973D01*
X13068177Y-9935796D02*
X13072644Y-9939578D01*
X13070676Y-9912189D02*
X13065013Y-9924760D01*
X13072644Y-9939578D02*
X13212584Y-10017147D01*
X13077118Y-9694462D02*
X12897360Y-9782137D01*
X13111400Y-9838721D02*
X13063687Y-9812273D01*
X13119060Y-9827257D02*
X13111400Y-9838721D01*
X13120302Y-9784661D02*
X13301209Y-9702851D01*
X13124263Y-9824577D02*
X13119060Y-9827257D01*
X13130096Y-9824093D02*
X13124263Y-9824577D01*
X13135670Y-9825877D02*
X13130096Y-9824093D01*
X13200292Y-9638738D02*
X13077118Y-9694462D01*
X13201450Y-9508329D02*
X13201509Y-9514181D01*
X13201509Y-9514181D02*
X13203804Y-9519565D01*
X13203804Y-9519565D02*
X13207985Y-9523662D01*
X13207985Y-9523662D02*
X13221276Y-9527327D01*
X13212584Y-10017147D02*
X13218158Y-10018931D01*
X13218158Y-10018931D02*
X13223990Y-10018447D01*
X13221276Y-9527327D02*
X13200292Y-9638738D01*
X13223990Y-10018447D02*
X13229193Y-10015767D01*
X13229193Y-10015767D02*
X13236853Y-10004303D01*
X13231065Y-9351094D02*
X13201450Y-9508329D01*
X13233250Y-9345664D02*
X13231065Y-9351094D01*
X13236853Y-10004303D02*
X13261780Y-10018120D01*
X13237346Y-9341483D02*
X13233250Y-9345664D01*
X13242730Y-9339189D02*
X13237346Y-9341483D01*
X13256444Y-9340610D02*
X13242730Y-9339189D01*
X13261719Y-9312602D02*
X13256444Y-9340610D01*
X13261780Y-10018120D02*
X13271981Y-10022138D01*
X13265138Y-9302185D02*
X13261719Y-9312602D01*
X13271136Y-9293007D02*
X13265138Y-9302185D01*
X13271981Y-10022138D02*
X13282875Y-10023380D01*
X13275609Y-9903446D02*
X13135670Y-9825877D01*
X13277577Y-9930835D02*
X13283240Y-9918264D01*
X13279305Y-9285694D02*
X13271136Y-9293007D01*
X13280076Y-9907228D02*
X13275609Y-9903446D01*
X13282756Y-9912431D02*
X13280076Y-9907228D01*
X13282875Y-10023380D02*
X13293719Y-10021759D01*
X13283240Y-9918264D02*
X13282756Y-9912431D01*
X13289089Y-9280745D02*
X13279305Y-9285694D01*
X13293498Y-9597701D02*
X13303824Y-9542875D01*
X13293719Y-10021759D02*
X13303774Y-10017387D01*
X13299820Y-9278496D02*
X13289089Y-9280745D01*
X13301209Y-9702851D02*
X13469162Y-9632710D01*
X13302504Y-9944652D02*
X13277577Y-9930835D01*
X13303774Y-10017387D02*
X13312354Y-10010562D01*
X13303824Y-9542875D02*
X13317539Y-9544296D01*
X13310767Y-9279102D02*
X13299820Y-9278496D01*
X13311318Y-9951174D02*
X13302504Y-9944652D01*
X13312354Y-10010562D02*
X13318876Y-10001748D01*
X13317539Y-9544296D02*
X13322923Y-9542001D01*
X13318143Y-9959754D02*
X13311318Y-9951174D01*
X13318876Y-10001748D02*
X13322894Y-9991547D01*
X13321185Y-9282520D02*
X13310767Y-9279102D01*
X13322515Y-9969809D02*
X13318143Y-9959754D01*
X13322894Y-9991547D02*
X13324136Y-9980653D01*
X13322923Y-9542001D02*
X13327019Y-9537821D01*
X13324136Y-9980653D02*
X13322515Y-9969809D01*
X13327019Y-9537821D02*
X13329204Y-9532391D01*
X13329204Y-9532391D02*
X13358819Y-9375156D01*
X13330363Y-9288519D02*
X13321185Y-9282520D01*
X13337676Y-9296688D02*
X13330363Y-9288519D01*
X13338992Y-9356158D02*
X13344268Y-9328150D01*
X13342625Y-9306472D02*
X13337676Y-9296688D01*
X13344268Y-9328150D02*
X13344873Y-9317203D01*
X13344873Y-9317203D02*
X13342625Y-9306472D01*
X13352284Y-9359823D02*
X13338992Y-9356158D01*
X13356464Y-9363919D02*
X13352284Y-9359823D01*
X13358759Y-9369304D02*
X13356464Y-9363919D01*
X13358819Y-9375156D02*
X13358759Y-9369304D01*
X13380543Y-10173127D02*
X12933184Y-10120839D01*
X13444932Y-10072786D02*
X13446406Y-10078450D01*
X13445738Y-10066989D02*
X13444932Y-10072786D01*
X13446406Y-10078450D02*
X13455911Y-10088437D01*
X13446554Y-9533781D02*
X13293498Y-9597701D01*
X13448701Y-10061941D02*
X13445738Y-10066989D01*
X13455911Y-10088437D02*
X13380543Y-10173127D01*
X13459152Y-9530366D02*
X13446554Y-9533781D01*
X13469162Y-9632710D02*
X13564954Y-9693345D01*
X13472204Y-9530328D02*
X13459152Y-9530366D01*
X13482395Y-10185032D02*
X13518661Y-10144280D01*
X13484822Y-9533670D02*
X13472204Y-9530328D01*
X13496145Y-9540163D02*
X13484822Y-9533670D01*
X13505401Y-9549366D02*
X13496145Y-9540163D01*
X13511717Y-9560233D02*
X13505401Y-9549366D01*
X13518661Y-10144280D02*
X13529685Y-10152561D01*
X13529685Y-10152561D02*
X13535481Y-10153368D01*
X13535481Y-10153368D02*
X13541146Y-10151894D01*
X13541146Y-10151894D02*
X13545815Y-10148365D01*
X13545815Y-10148365D02*
X13652182Y-10028841D01*
X13555069Y-9942417D02*
X13448701Y-10061941D01*
X13558570Y-9705565D02*
X13558714Y-9711416D01*
X13558714Y-9711416D02*
X13561087Y-9716767D01*
X13559738Y-9938888D02*
X13555069Y-9942417D01*
X13561087Y-9716767D02*
X13565327Y-9720801D01*
X13564954Y-9693345D02*
X13558570Y-9705565D01*
X13565327Y-9720801D02*
X13700519Y-9806377D01*
X13565402Y-9937415D02*
X13559738Y-9938888D01*
X13567582Y-10295670D02*
X13621387Y-10395458D01*
X13571199Y-9938221D02*
X13565402Y-9937415D01*
X13582222Y-9946502D02*
X13571199Y-9938221D01*
X13601169Y-9925212D02*
X13582222Y-9946502D01*
X13606542Y-10413982D02*
X13608261Y-10419577D01*
X13607094Y-10408156D02*
X13606542Y-10413982D01*
X13608261Y-10419577D02*
X13684197Y-10560409D01*
X13609465Y-9918043D02*
X13601169Y-9925212D01*
X13609835Y-10402984D02*
X13607094Y-10408156D01*
X13609881Y-9622369D02*
X13511717Y-9560233D01*
X13618194Y-9611370D02*
X13609881Y-9622369D01*
X13619333Y-9913265D02*
X13609465Y-9918043D01*
X13621387Y-10395458D02*
X13609835Y-10402984D01*
X13623545Y-9608997D02*
X13618194Y-9611370D01*
X13629395Y-9608853D02*
X13623545Y-9608997D01*
X13630102Y-9911205D02*
X13619333Y-9913265D01*
X13634856Y-9610958D02*
X13629395Y-9608853D01*
X13641037Y-9912001D02*
X13630102Y-9911205D01*
X13644972Y-10002345D02*
X13663919Y-9981055D01*
X13651393Y-9915601D02*
X13641037Y-9912001D01*
X13652182Y-10028841D02*
X13655145Y-10023794D01*
X13654478Y-10012333D02*
X13644972Y-10002345D01*
X13655145Y-10023794D02*
X13655951Y-10017997D01*
X13655951Y-10017997D02*
X13654478Y-10012333D01*
X13660465Y-9921758D02*
X13651393Y-9915601D01*
X13662713Y-10206122D02*
X13482395Y-10185032D01*
X13663919Y-9981055D02*
X13670076Y-9971983D01*
X13667634Y-9930054D02*
X13660465Y-9921758D01*
X13669710Y-10308088D02*
X14374992Y-10407209D01*
X13670076Y-9971983D02*
X13673676Y-9961627D01*
X13672412Y-9939923D02*
X13667634Y-9930054D01*
X13673676Y-9961627D02*
X13674473Y-9950691D01*
X13674473Y-9950691D02*
X13672412Y-9939923D01*
X13684197Y-10560409D02*
X13687927Y-10564920D01*
X13687927Y-10564920D02*
X13693098Y-10567660D01*
X13693098Y-10567660D02*
X13698925Y-10568213D01*
X13695324Y-10355592D02*
X13669710Y-10308088D01*
X13698925Y-10568213D02*
X13711561Y-10562696D01*
X13700519Y-9806377D02*
X13705980Y-9808482D01*
X13705980Y-9808482D02*
X13711831Y-9808337D01*
X13707960Y-10350076D02*
X13695324Y-10355592D01*
X13711561Y-10562696D02*
X13725087Y-10587782D01*
X13711831Y-9808337D02*
X13717181Y-9805964D01*
X13713787Y-10350628D02*
X13707960Y-10350076D01*
X13717181Y-9805964D02*
X13725495Y-9794965D01*
X13718958Y-10353368D02*
X13713787Y-10350628D01*
X13722687Y-10357879D02*
X13718958Y-10353368D01*
X13725087Y-10587782D02*
X13731506Y-10596671D01*
X13725495Y-9794965D02*
X13749576Y-9810208D01*
X13731506Y-10596671D02*
X13740007Y-10603596D01*
X13740007Y-10603596D02*
X13750010Y-10608084D01*
X13749576Y-9810208D02*
X13759526Y-9814813D01*
X13750010Y-10608084D02*
X13760834Y-10609831D01*
X13759526Y-9814813D02*
X13770329Y-9816685D01*
X13760834Y-10609831D02*
X13771741Y-10608717D01*
X13770049Y-9696533D02*
X13634856Y-9610958D01*
X13770329Y-9816685D02*
X13781249Y-9815698D01*
X13770421Y-9723989D02*
X13776806Y-9711769D01*
X13771741Y-10608717D02*
X13781989Y-10604817D01*
X13774288Y-9700568D02*
X13770049Y-9696533D01*
X13776661Y-9705918D02*
X13774288Y-9700568D01*
X13776806Y-9711769D02*
X13776661Y-9705918D01*
X13781249Y-9815698D02*
X13791541Y-9811918D01*
X13781989Y-10604817D02*
X13790878Y-10598399D01*
X13785498Y-10522830D02*
X13797050Y-10515304D01*
X13790878Y-10598399D02*
X13797802Y-10589898D01*
X13791541Y-9811918D02*
X13800504Y-9805603D01*
X13794502Y-9739232D02*
X13770421Y-9723989D01*
X13797050Y-10515304D02*
X13799790Y-10510132D01*
X13797802Y-10589898D02*
X13802291Y-10579895D01*
X13798624Y-10498711D02*
X13722687Y-10357879D01*
X13799024Y-10547916D02*
X13785498Y-10522830D01*
X13799790Y-10510132D02*
X13800343Y-10504306D01*
X13800343Y-10504306D02*
X13798624Y-10498711D01*
X13800504Y-9805603D02*
X13807527Y-9797184D01*
X13802291Y-10579895D02*
X13804038Y-10569070D01*
X13802922Y-9746256D02*
X13794502Y-9739232D01*
X13802923Y-10558163D02*
X13799024Y-10547916D01*
X13804038Y-10569070D02*
X13802923Y-10558163D01*
X13807527Y-9797184D02*
X13812132Y-9787233D01*
X13809237Y-9755219D02*
X13802922Y-9746256D01*
X13812132Y-9787233D02*
X13814004Y-9776430D01*
X13813017Y-9765511D02*
X13809237Y-9755219D01*
X13814004Y-9776430D02*
X13813017Y-9765511D01*
X14371815Y-10305780D02*
X13662713Y-10206122D01*
X14374992Y-10407209D02*
X14388044Y-10407323D01*
X14388044Y-10407323D02*
X14400681Y-10404055D01*
X14400681Y-10404055D02*
X14412042Y-10397627D01*
X14412042Y-10397627D02*
X14421351Y-10388479D01*
X14421351Y-10388479D02*
X14427976Y-10377232D01*
X14427976Y-10377232D02*
X14431335Y-10365120D01*
X14431335Y-10365120D02*
X14510567Y-10280154D01*
X14438522Y-10206963D02*
X14439863Y-10212660D01*
X14439463Y-10201187D02*
X14438522Y-10206963D01*
X14439863Y-10212660D02*
X14449133Y-10222866D01*
X14442542Y-10196210D02*
X14439463Y-10201187D01*
X14449133Y-10222866D02*
X14371815Y-10305780D01*
X14510567Y-10280154D02*
X14521395Y-10288690D01*
X14521395Y-10288690D02*
X14527171Y-10289631D01*
X14527171Y-10289631D02*
X14532868Y-10288289D01*
X14532868Y-10288289D02*
X14537618Y-10284870D01*
X14537618Y-10284870D02*
X14646738Y-10167853D01*
X14551662Y-10079193D02*
X14442542Y-10196210D01*
X14556412Y-10075774D02*
X14551662Y-10079193D01*
X14562109Y-10074432D02*
X14556412Y-10075774D01*
X14567885Y-10075373D02*
X14562109Y-10074432D01*
X14578713Y-10083909D02*
X14567885Y-10075373D01*
X14598150Y-10063065D02*
X14578713Y-10083909D01*
X14606610Y-10056091D02*
X14598150Y-10063065D01*
X14616587Y-10051544D02*
X14606610Y-10056091D01*
X14627401Y-10049735D02*
X14616587Y-10051544D01*
X14638315Y-10050786D02*
X14627401Y-10049735D01*
X14640147Y-10141197D02*
X14659584Y-10120353D01*
X14646738Y-10167853D02*
X14649818Y-10162876D01*
X14648585Y-10054625D02*
X14638315Y-10050786D01*
X14649417Y-10151403D02*
X14640147Y-10141197D01*
X14649818Y-10162876D02*
X14650759Y-10157100D01*
X14650759Y-10157100D02*
X14649417Y-10151403D01*
X14657511Y-10060992D02*
X14648585Y-10054625D01*
X14659584Y-10120353D02*
X14665951Y-10111427D01*
X14664485Y-10069453D02*
X14657511Y-10060992D01*
X14665951Y-10111427D02*
X14669790Y-10101157D01*
X14669032Y-10079430D02*
X14664485Y-10069453D01*
X14669790Y-10101157D02*
X14670841Y-10090243D01*
X14670841Y-10090243D02*
X14669032Y-10079430D01*
D11*
D12*
X9965000Y-10065000D02*
X9985000Y-10085000D01*
X9985000Y-10065000D02*
X9965000Y-10085000D01*
X11101104Y-9465568D02*
X11121104Y-9485568D01*
X11121104Y-9465568D02*
X11101104Y-9485568D01*
X11228526Y-10320487D02*
X11248526Y-10340487D01*
X11248526Y-10320487D02*
X11228526Y-10340487D01*
X11640066Y-9165553D02*
X11660066Y-9185553D01*
X11660066Y-9165553D02*
X11640066Y-9185553D01*
X11660519Y-9810870D02*
X11680519Y-9830870D01*
X11680519Y-9810870D02*
X11660519Y-9830870D01*
X11735280Y-10620197D02*
X11755280Y-10640197D01*
X11755280Y-10620197D02*
X11735280Y-10640197D01*
X11910904Y-9782738D02*
X11930904Y-9802738D01*
X11930904Y-9782738D02*
X11910904Y-9802738D01*
X12160295Y-9800177D02*
X12180295Y-9820177D01*
X12180295Y-9800177D02*
X12160295Y-9820177D01*
X12247778Y-10978324D02*
X12267778Y-10998324D01*
X12267778Y-10978324D02*
X12247778Y-10998324D01*
X12331594Y-10341408D02*
X12351594Y-10361408D01*
X12351594Y-10341408D02*
X12331594Y-10361408D01*
X12399911Y-9447835D02*
X12419911Y-9467835D01*
X12419911Y-9447835D02*
X12399911Y-9467835D01*
X12611104Y-10422738D02*
X12631104Y-10442738D01*
X12631104Y-10422738D02*
X12611104Y-10442738D01*
X12723461Y-9582664D02*
X12743461Y-9602664D01*
X12743461Y-9582664D02*
X12723461Y-9602664D01*
X12942308Y-10730026D02*
X12962308Y-10750026D01*
X12962308Y-10730026D02*
X12942308Y-10750026D01*
X13009373Y-10459918D02*
X13029373Y-10479918D01*
X13029373Y-10459918D02*
X13009373Y-10479918D01*
X13263396Y-9966538D02*
X13283396Y-9986538D01*
X13283396Y-9966538D02*
X13263396Y-9986538D01*
X13291142Y-9320203D02*
X13311142Y-9340203D01*
X13311142Y-9320203D02*
X13291142Y-9340203D01*
X13615896Y-9950604D02*
X13635896Y-9970604D01*
X13635896Y-9950604D02*
X13615896Y-9970604D01*
X13747310Y-10549047D02*
X13767310Y-10569047D01*
X13767310Y-10549047D02*
X13747310Y-10569047D01*
X13753590Y-9759372D02*
X13773590Y-9779372D01*
X13773590Y-9759372D02*
X13753590Y-9779372D01*
X14612047Y-10089023D02*
X14632047Y-10109023D01*
X14632047Y-10089023D02*
X14612047Y-10109023D01*
D11*
X10053277Y-11354294D02*
X10053277Y-11154294D01*
X10053277Y-11154294D02*
X10100896Y-11154294D01*
X10100896Y-11154294D02*
X10129467Y-11163818D01*
X10129467Y-11163818D02*
X10148515Y-11182865D01*
X10148515Y-11182865D02*
X10158039Y-11201913D01*
X10158039Y-11201913D02*
X10167563Y-11240008D01*
X10167563Y-11240008D02*
X10167563Y-11268579D01*
X10167563Y-11268579D02*
X10158039Y-11306675D01*
X10158039Y-11306675D02*
X10148515Y-11325722D01*
X10148515Y-11325722D02*
X10129467Y-11344770D01*
X10129467Y-11344770D02*
X10100896Y-11354294D01*
X10100896Y-11354294D02*
X10053277Y-11354294D01*
X10253277Y-11354294D02*
X10253277Y-11220960D01*
X10253277Y-11259056D02*
X10262801Y-11240008D01*
X10262801Y-11240008D02*
X10272324Y-11230484D01*
X10272324Y-11230484D02*
X10291372Y-11220960D01*
X10291372Y-11220960D02*
X10310420Y-11220960D01*
X10377086Y-11354294D02*
X10377086Y-11220960D01*
X10377086Y-11154294D02*
X10367563Y-11163818D01*
X10367563Y-11163818D02*
X10377086Y-11173341D01*
X10377086Y-11173341D02*
X10386610Y-11163818D01*
X10386610Y-11163818D02*
X10377086Y-11154294D01*
X10377086Y-11154294D02*
X10377086Y-11173341D01*
X10500896Y-11354294D02*
X10481848Y-11344770D01*
X10481848Y-11344770D02*
X10472324Y-11325722D01*
X10472324Y-11325722D02*
X10472324Y-11154294D01*
X10605658Y-11354294D02*
X10586610Y-11344770D01*
X10586610Y-11344770D02*
X10577086Y-11325722D01*
X10577086Y-11325722D02*
X10577086Y-11154294D01*
X10834229Y-11354294D02*
X10834229Y-11154294D01*
X10834229Y-11154294D02*
X10900896Y-11297151D01*
X10900896Y-11297151D02*
X10967563Y-11154294D01*
X10967563Y-11154294D02*
X10967563Y-11354294D01*
X11148515Y-11354294D02*
X11148515Y-11249532D01*
X11148515Y-11249532D02*
X11138991Y-11230484D01*
X11138991Y-11230484D02*
X11119944Y-11220960D01*
X11119944Y-11220960D02*
X11081848Y-11220960D01*
X11081848Y-11220960D02*
X11062801Y-11230484D01*
X11148515Y-11344770D02*
X11129467Y-11354294D01*
X11129467Y-11354294D02*
X11081848Y-11354294D01*
X11081848Y-11354294D02*
X11062801Y-11344770D01*
X11062801Y-11344770D02*
X11053277Y-11325722D01*
X11053277Y-11325722D02*
X11053277Y-11306675D01*
X11053277Y-11306675D02*
X11062801Y-11287627D01*
X11062801Y-11287627D02*
X11081848Y-11278103D01*
X11081848Y-11278103D02*
X11129467Y-11278103D01*
X11129467Y-11278103D02*
X11148515Y-11268579D01*
X11243753Y-11220960D02*
X11243753Y-11420960D01*
X11243753Y-11230484D02*
X11262801Y-11220960D01*
X11262801Y-11220960D02*
X11300896Y-11220960D01*
X11300896Y-11220960D02*
X11319943Y-11230484D01*
X11319943Y-11230484D02*
X11329467Y-11240008D01*
X11329467Y-11240008D02*
X11338991Y-11259056D01*
X11338991Y-11259056D02*
X11338991Y-11316198D01*
X11338991Y-11316198D02*
X11329467Y-11335246D01*
X11329467Y-11335246D02*
X11319943Y-11344770D01*
X11319943Y-11344770D02*
X11300896Y-11354294D01*
X11300896Y-11354294D02*
X11262801Y-11354294D01*
X11262801Y-11354294D02*
X11243753Y-11344770D01*
X11424705Y-11335246D02*
X11434229Y-11344770D01*
X11434229Y-11344770D02*
X11424705Y-11354294D01*
X11424705Y-11354294D02*
X11415182Y-11344770D01*
X11415182Y-11344770D02*
X11424705Y-11335246D01*
X11424705Y-11335246D02*
X11424705Y-11354294D01*
X11424705Y-11230484D02*
X11434229Y-11240008D01*
X11434229Y-11240008D02*
X11424705Y-11249532D01*
X11424705Y-11249532D02*
X11415182Y-11240008D01*
X11415182Y-11240008D02*
X11424705Y-11230484D01*
X11424705Y-11230484D02*
X11424705Y-11249532D01*
D12*
X9772500Y-11672810D02*
X9792500Y-11692810D01*
X9792500Y-11672810D02*
X9772500Y-11692810D01*
D11*
X10091372Y-11574294D02*
X10110420Y-11574294D01*
X10110420Y-11574294D02*
X10129467Y-11583818D01*
X10129467Y-11583818D02*
X10138991Y-11593341D01*
X10138991Y-11593341D02*
X10148515Y-11612389D01*
X10148515Y-11612389D02*
X10158039Y-11650484D01*
X10158039Y-11650484D02*
X10158039Y-11698103D01*
X10158039Y-11698103D02*
X10148515Y-11736198D01*
X10148515Y-11736198D02*
X10138991Y-11755246D01*
X10138991Y-11755246D02*
X10129467Y-11764770D01*
X10129467Y-11764770D02*
X10110420Y-11774294D01*
X10110420Y-11774294D02*
X10091372Y-11774294D01*
X10091372Y-11774294D02*
X10072324Y-11764770D01*
X10072324Y-11764770D02*
X10062801Y-11755246D01*
X10062801Y-11755246D02*
X10053277Y-11736198D01*
X10053277Y-11736198D02*
X10043753Y-11698103D01*
X10043753Y-11698103D02*
X10043753Y-11650484D01*
X10043753Y-11650484D02*
X10053277Y-11612389D01*
X10053277Y-11612389D02*
X10062801Y-11593341D01*
X10062801Y-11593341D02*
X10072324Y-11583818D01*
X10072324Y-11583818D02*
X10091372Y-11574294D01*
X10243753Y-11755246D02*
X10253277Y-11764770D01*
X10253277Y-11764770D02*
X10243753Y-11774294D01*
X10243753Y-11774294D02*
X10234229Y-11764770D01*
X10234229Y-11764770D02*
X10243753Y-11755246D01*
X10243753Y-11755246D02*
X10243753Y-11774294D01*
X10329467Y-11593341D02*
X10338991Y-11583818D01*
X10338991Y-11583818D02*
X10358039Y-11574294D01*
X10358039Y-11574294D02*
X10405658Y-11574294D01*
X10405658Y-11574294D02*
X10424705Y-11583818D01*
X10424705Y-11583818D02*
X10434229Y-11593341D01*
X10434229Y-11593341D02*
X10443753Y-11612389D01*
X10443753Y-11612389D02*
X10443753Y-11631437D01*
X10443753Y-11631437D02*
X10434229Y-11660008D01*
X10434229Y-11660008D02*
X10319944Y-11774294D01*
X10319944Y-11774294D02*
X10443753Y-11774294D01*
X10567563Y-11574294D02*
X10586610Y-11574294D01*
X10586610Y-11574294D02*
X10605658Y-11583818D01*
X10605658Y-11583818D02*
X10615182Y-11593341D01*
X10615182Y-11593341D02*
X10624705Y-11612389D01*
X10624705Y-11612389D02*
X10634229Y-11650484D01*
X10634229Y-11650484D02*
X10634229Y-11698103D01*
X10634229Y-11698103D02*
X10624705Y-11736198D01*
X10624705Y-11736198D02*
X10615182Y-11755246D01*
X10615182Y-11755246D02*
X10605658Y-11764770D01*
X10605658Y-11764770D02*
X10586610Y-11774294D01*
X10586610Y-11774294D02*
X10567563Y-11774294D01*
X10567563Y-11774294D02*
X10548515Y-11764770D01*
X10548515Y-11764770D02*
X10538991Y-11755246D01*
X10538991Y-11755246D02*
X10529467Y-11736198D01*
X10529467Y-11736198D02*
X10519944Y-11698103D01*
X10519944Y-11698103D02*
X10519944Y-11650484D01*
X10519944Y-11650484D02*
X10529467Y-11612389D01*
X10529467Y-11612389D02*
X10538991Y-11593341D01*
X10538991Y-11593341D02*
X10548515Y-11583818D01*
X10548515Y-11583818D02*
X10567563Y-11574294D01*
X10758039Y-11574294D02*
X10777086Y-11574294D01*
X10777086Y-11574294D02*
X10796134Y-11583818D01*
X10796134Y-11583818D02*
X10805658Y-11593341D01*
X10805658Y-11593341D02*
X10815182Y-11612389D01*
X10815182Y-11612389D02*
X10824705Y-11650484D01*
X10824705Y-11650484D02*
X10824705Y-11698103D01*
X10824705Y-11698103D02*
X10815182Y-11736198D01*
X10815182Y-11736198D02*
X10805658Y-11755246D01*
X10805658Y-11755246D02*
X10796134Y-11764770D01*
X10796134Y-11764770D02*
X10777086Y-11774294D01*
X10777086Y-11774294D02*
X10758039Y-11774294D01*
X10758039Y-11774294D02*
X10738991Y-11764770D01*
X10738991Y-11764770D02*
X10729467Y-11755246D01*
X10729467Y-11755246D02*
X10719944Y-11736198D01*
X10719944Y-11736198D02*
X10710420Y-11698103D01*
X10710420Y-11698103D02*
X10710420Y-11650484D01*
X10710420Y-11650484D02*
X10719944Y-11612389D01*
X10719944Y-11612389D02*
X10729467Y-11593341D01*
X10729467Y-11593341D02*
X10738991Y-11583818D01*
X10738991Y-11583818D02*
X10758039Y-11574294D01*
X10910420Y-11774294D02*
X10910420Y-11640960D01*
X10910420Y-11660008D02*
X10919944Y-11650484D01*
X10919944Y-11650484D02*
X10938991Y-11640960D01*
X10938991Y-11640960D02*
X10967563Y-11640960D01*
X10967563Y-11640960D02*
X10986610Y-11650484D01*
X10986610Y-11650484D02*
X10996134Y-11669532D01*
X10996134Y-11669532D02*
X10996134Y-11774294D01*
X10996134Y-11669532D02*
X11005658Y-11650484D01*
X11005658Y-11650484D02*
X11024705Y-11640960D01*
X11024705Y-11640960D02*
X11053277Y-11640960D01*
X11053277Y-11640960D02*
X11072325Y-11650484D01*
X11072325Y-11650484D02*
X11081848Y-11669532D01*
X11081848Y-11669532D02*
X11081848Y-11774294D01*
X11177086Y-11774294D02*
X11177086Y-11640960D01*
X11177086Y-11660008D02*
X11186610Y-11650484D01*
X11186610Y-11650484D02*
X11205658Y-11640960D01*
X11205658Y-11640960D02*
X11234229Y-11640960D01*
X11234229Y-11640960D02*
X11253277Y-11650484D01*
X11253277Y-11650484D02*
X11262801Y-11669532D01*
X11262801Y-11669532D02*
X11262801Y-11774294D01*
X11262801Y-11669532D02*
X11272324Y-11650484D01*
X11272324Y-11650484D02*
X11291372Y-11640960D01*
X11291372Y-11640960D02*
X11319943Y-11640960D01*
X11319943Y-11640960D02*
X11338991Y-11650484D01*
X11338991Y-11650484D02*
X11348515Y-11669532D01*
X11348515Y-11669532D02*
X11348515Y-11774294D01*
X11738991Y-11564770D02*
X11567563Y-11821913D01*
X11996134Y-11574294D02*
X12015182Y-11574294D01*
X12015182Y-11574294D02*
X12034229Y-11583818D01*
X12034229Y-11583818D02*
X12043753Y-11593341D01*
X12043753Y-11593341D02*
X12053277Y-11612389D01*
X12053277Y-11612389D02*
X12062801Y-11650484D01*
X12062801Y-11650484D02*
X12062801Y-11698103D01*
X12062801Y-11698103D02*
X12053277Y-11736198D01*
X12053277Y-11736198D02*
X12043753Y-11755246D01*
X12043753Y-11755246D02*
X12034229Y-11764770D01*
X12034229Y-11764770D02*
X12015182Y-11774294D01*
X12015182Y-11774294D02*
X11996134Y-11774294D01*
X11996134Y-11774294D02*
X11977086Y-11764770D01*
X11977086Y-11764770D02*
X11967563Y-11755246D01*
X11967563Y-11755246D02*
X11958039Y-11736198D01*
X11958039Y-11736198D02*
X11948515Y-11698103D01*
X11948515Y-11698103D02*
X11948515Y-11650484D01*
X11948515Y-11650484D02*
X11958039Y-11612389D01*
X11958039Y-11612389D02*
X11967563Y-11593341D01*
X11967563Y-11593341D02*
X11977086Y-11583818D01*
X11977086Y-11583818D02*
X11996134Y-11574294D01*
X12148515Y-11755246D02*
X12158039Y-11764770D01*
X12158039Y-11764770D02*
X12148515Y-11774294D01*
X12148515Y-11774294D02*
X12138991Y-11764770D01*
X12138991Y-11764770D02*
X12148515Y-11755246D01*
X12148515Y-11755246D02*
X12148515Y-11774294D01*
X12281848Y-11574294D02*
X12300896Y-11574294D01*
X12300896Y-11574294D02*
X12319944Y-11583818D01*
X12319944Y-11583818D02*
X12329467Y-11593341D01*
X12329467Y-11593341D02*
X12338991Y-11612389D01*
X12338991Y-11612389D02*
X12348515Y-11650484D01*
X12348515Y-11650484D02*
X12348515Y-11698103D01*
X12348515Y-11698103D02*
X12338991Y-11736198D01*
X12338991Y-11736198D02*
X12329467Y-11755246D01*
X12329467Y-11755246D02*
X12319944Y-11764770D01*
X12319944Y-11764770D02*
X12300896Y-11774294D01*
X12300896Y-11774294D02*
X12281848Y-11774294D01*
X12281848Y-11774294D02*
X12262801Y-11764770D01*
X12262801Y-11764770D02*
X12253277Y-11755246D01*
X12253277Y-11755246D02*
X12243753Y-11736198D01*
X12243753Y-11736198D02*
X12234229Y-11698103D01*
X12234229Y-11698103D02*
X12234229Y-11650484D01*
X12234229Y-11650484D02*
X12243753Y-11612389D01*
X12243753Y-11612389D02*
X12253277Y-11593341D01*
X12253277Y-11593341D02*
X12262801Y-11583818D01*
X12262801Y-11583818D02*
X12281848Y-11574294D01*
X12472325Y-11574294D02*
X12491372Y-11574294D01*
X12491372Y-11574294D02*
X12510420Y-11583818D01*
X12510420Y-11583818D02*
X12519944Y-11593341D01*
X12519944Y-11593341D02*
X12529467Y-11612389D01*
X12529467Y-11612389D02*
X12538991Y-11650484D01*
X12538991Y-11650484D02*
X12538991Y-11698103D01*
X12538991Y-11698103D02*
X12529467Y-11736198D01*
X12529467Y-11736198D02*
X12519944Y-11755246D01*
X12519944Y-11755246D02*
X12510420Y-11764770D01*
X12510420Y-11764770D02*
X12491372Y-11774294D01*
X12491372Y-11774294D02*
X12472325Y-11774294D01*
X12472325Y-11774294D02*
X12453277Y-11764770D01*
X12453277Y-11764770D02*
X12443753Y-11755246D01*
X12443753Y-11755246D02*
X12434229Y-11736198D01*
X12434229Y-11736198D02*
X12424706Y-11698103D01*
X12424706Y-11698103D02*
X12424706Y-11650484D01*
X12424706Y-11650484D02*
X12434229Y-11612389D01*
X12434229Y-11612389D02*
X12443753Y-11593341D01*
X12443753Y-11593341D02*
X12453277Y-11583818D01*
X12453277Y-11583818D02*
X12472325Y-11574294D01*
X12605658Y-11574294D02*
X12738991Y-11574294D01*
X12738991Y-11574294D02*
X12653277Y-11774294D01*
X12824706Y-11774294D02*
X12862801Y-11774294D01*
X12862801Y-11774294D02*
X12881848Y-11764770D01*
X12881848Y-11764770D02*
X12891372Y-11755246D01*
X12891372Y-11755246D02*
X12910420Y-11726675D01*
X12910420Y-11726675D02*
X12919944Y-11688579D01*
X12919944Y-11688579D02*
X12919944Y-11612389D01*
X12919944Y-11612389D02*
X12910420Y-11593341D01*
X12910420Y-11593341D02*
X12900896Y-11583818D01*
X12900896Y-11583818D02*
X12881848Y-11574294D01*
X12881848Y-11574294D02*
X12843753Y-11574294D01*
X12843753Y-11574294D02*
X12824706Y-11583818D01*
X12824706Y-11583818D02*
X12815182Y-11593341D01*
X12815182Y-11593341D02*
X12805658Y-11612389D01*
X12805658Y-11612389D02*
X12805658Y-11660008D01*
X12805658Y-11660008D02*
X12815182Y-11679056D01*
X12815182Y-11679056D02*
X12824706Y-11688579D01*
X12824706Y-11688579D02*
X12843753Y-11698103D01*
X12843753Y-11698103D02*
X12881848Y-11698103D01*
X12881848Y-11698103D02*
X12900896Y-11688579D01*
X12900896Y-11688579D02*
X12910420Y-11679056D01*
X12910420Y-11679056D02*
X12919944Y-11660008D01*
X12996134Y-11574294D02*
X12996134Y-11612389D01*
X13072325Y-11574294D02*
X13072325Y-11612389D01*
X13367563Y-11850484D02*
X13358039Y-11840960D01*
X13358039Y-11840960D02*
X13338991Y-11812389D01*
X13338991Y-11812389D02*
X13329468Y-11793341D01*
X13329468Y-11793341D02*
X13319944Y-11764770D01*
X13319944Y-11764770D02*
X13310420Y-11717151D01*
X13310420Y-11717151D02*
X13310420Y-11679056D01*
X13310420Y-11679056D02*
X13319944Y-11631437D01*
X13319944Y-11631437D02*
X13329468Y-11602865D01*
X13329468Y-11602865D02*
X13338991Y-11583818D01*
X13338991Y-11583818D02*
X13358039Y-11555246D01*
X13358039Y-11555246D02*
X13367563Y-11545722D01*
X13434229Y-11593341D02*
X13443753Y-11583818D01*
X13443753Y-11583818D02*
X13462801Y-11574294D01*
X13462801Y-11574294D02*
X13510420Y-11574294D01*
X13510420Y-11574294D02*
X13529468Y-11583818D01*
X13529468Y-11583818D02*
X13538991Y-11593341D01*
X13538991Y-11593341D02*
X13548515Y-11612389D01*
X13548515Y-11612389D02*
X13548515Y-11631437D01*
X13548515Y-11631437D02*
X13538991Y-11660008D01*
X13538991Y-11660008D02*
X13424706Y-11774294D01*
X13424706Y-11774294D02*
X13548515Y-11774294D01*
X13738991Y-11774294D02*
X13624706Y-11774294D01*
X13681848Y-11774294D02*
X13681848Y-11574294D01*
X13681848Y-11574294D02*
X13662801Y-11602865D01*
X13662801Y-11602865D02*
X13643753Y-11621913D01*
X13643753Y-11621913D02*
X13624706Y-11631437D01*
X13977087Y-11774294D02*
X13977087Y-11574294D01*
X14062801Y-11774294D02*
X14062801Y-11669532D01*
X14062801Y-11669532D02*
X14053277Y-11650484D01*
X14053277Y-11650484D02*
X14034230Y-11640960D01*
X14034230Y-11640960D02*
X14005658Y-11640960D01*
X14005658Y-11640960D02*
X13986610Y-11650484D01*
X13986610Y-11650484D02*
X13977087Y-11660008D01*
X14186610Y-11774294D02*
X14167563Y-11764770D01*
X14167563Y-11764770D02*
X14158039Y-11755246D01*
X14158039Y-11755246D02*
X14148515Y-11736198D01*
X14148515Y-11736198D02*
X14148515Y-11679056D01*
X14148515Y-11679056D02*
X14158039Y-11660008D01*
X14158039Y-11660008D02*
X14167563Y-11650484D01*
X14167563Y-11650484D02*
X14186610Y-11640960D01*
X14186610Y-11640960D02*
X14215182Y-11640960D01*
X14215182Y-11640960D02*
X14234230Y-11650484D01*
X14234230Y-11650484D02*
X14243753Y-11660008D01*
X14243753Y-11660008D02*
X14253277Y-11679056D01*
X14253277Y-11679056D02*
X14253277Y-11736198D01*
X14253277Y-11736198D02*
X14243753Y-11755246D01*
X14243753Y-11755246D02*
X14234230Y-11764770D01*
X14234230Y-11764770D02*
X14215182Y-11774294D01*
X14215182Y-11774294D02*
X14186610Y-11774294D01*
X14367563Y-11774294D02*
X14348515Y-11764770D01*
X14348515Y-11764770D02*
X14338991Y-11745722D01*
X14338991Y-11745722D02*
X14338991Y-11574294D01*
X14519944Y-11764770D02*
X14500896Y-11774294D01*
X14500896Y-11774294D02*
X14462801Y-11774294D01*
X14462801Y-11774294D02*
X14443753Y-11764770D01*
X14443753Y-11764770D02*
X14434230Y-11745722D01*
X14434230Y-11745722D02*
X14434230Y-11669532D01*
X14434230Y-11669532D02*
X14443753Y-11650484D01*
X14443753Y-11650484D02*
X14462801Y-11640960D01*
X14462801Y-11640960D02*
X14500896Y-11640960D01*
X14500896Y-11640960D02*
X14519944Y-11650484D01*
X14519944Y-11650484D02*
X14529468Y-11669532D01*
X14529468Y-11669532D02*
X14529468Y-11688579D01*
X14529468Y-11688579D02*
X14434230Y-11707627D01*
X14605658Y-11764770D02*
X14624706Y-11774294D01*
X14624706Y-11774294D02*
X14662801Y-11774294D01*
X14662801Y-11774294D02*
X14681849Y-11764770D01*
X14681849Y-11764770D02*
X14691372Y-11745722D01*
X14691372Y-11745722D02*
X14691372Y-11736198D01*
X14691372Y-11736198D02*
X14681849Y-11717151D01*
X14681849Y-11717151D02*
X14662801Y-11707627D01*
X14662801Y-11707627D02*
X14634230Y-11707627D01*
X14634230Y-11707627D02*
X14615182Y-11698103D01*
X14615182Y-11698103D02*
X14605658Y-11679056D01*
X14605658Y-11679056D02*
X14605658Y-11669532D01*
X14605658Y-11669532D02*
X14615182Y-11650484D01*
X14615182Y-11650484D02*
X14634230Y-11640960D01*
X14634230Y-11640960D02*
X14662801Y-11640960D01*
X14662801Y-11640960D02*
X14681849Y-11650484D01*
X14758039Y-11850484D02*
X14767563Y-11840960D01*
X14767563Y-11840960D02*
X14786611Y-11812389D01*
X14786611Y-11812389D02*
X14796134Y-11793341D01*
X14796134Y-11793341D02*
X14805658Y-11764770D01*
X14805658Y-11764770D02*
X14815182Y-11717151D01*
X14815182Y-11717151D02*
X14815182Y-11679056D01*
X14815182Y-11679056D02*
X14805658Y-11631437D01*
X14805658Y-11631437D02*
X14796134Y-11602865D01*
X14796134Y-11602865D02*
X14786611Y-11583818D01*
X14786611Y-11583818D02*
X14767563Y-11555246D01*
X14767563Y-11555246D02*
X14758039Y-11545722D01*
M02*
