M48
; DRILL file {KiCad 9.0.9-9.0.9~ubuntu24.04.1} date 2026-10-10T22:22:06+0000
; FORMAT={-:-/ absolute / metric / decimal}
; #@! TF.CreationDate,2026-10-10T22:22:06+00:00
; #@! TF.GenerationSoftware,Kicad,Pcbnew,9.0.9-9.0.9~ubuntu24.04.1
; #@! TF.FileFunction,Plated,1,2,PTH
FMAT,2
METRIC
; #@! TA.AperFunction,Plated,PTH,ViaDrill
T1C0.200
%
G90
G05
T1
X99.75Y-100.75
X111.111Y-94.756
X112.385Y-103.305
X116.501Y-91.756
X116.705Y-98.209
X117.453Y-106.302
X119.209Y-97.927
X121.703Y-98.102
X122.578Y-109.883
X123.416Y-103.514
X124.099Y-94.578
X126.211Y-104.327
X127.335Y-95.927
X129.523Y-107.4
X130.194Y-104.699
X132.734Y-99.765
X133.011Y-93.302
X136.259Y-99.606
X137.573Y-105.59
X137.636Y-97.694
X146.22Y-100.99
M30
