ISO-10303-21;
HEADER;
FILE_DESCRIPTION(('Open CASCADE Model'),'2;1');
FILE_NAME('Open CASCADE Shape Model','2026-10-10T22:15:01',('Author'),(
    'Open CASCADE'),'Open CASCADE STEP processor 7.9','Open CASCADE 7.9'
  ,'Unknown');
FILE_SCHEMA(('AUTOMOTIVE_DESIGN { 1 0 10303 214 1 1 1 1 }'));
ENDSEC;
DATA;
#1 = APPLICATION_PROTOCOL_DEFINITION('international standard',
  'automotive_design',2000,#2);
#2 = APPLICATION_CONTEXT(
  'core data for automotive mechanical design processes');
#3 = SHAPE_DEFINITION_REPRESENTATION(#4,#10);
#4 = PRODUCT_DEFINITION_SHAPE('','',#5);
#5 = PRODUCT_DEFINITION('design','',#6,#9);
#6 = PRODUCT_DEFINITION_FORMATION('','',#7);
#7 = PRODUCT('Open CASCADE STEP translator 7.9 8',
  'Open CASCADE STEP translator 7.9 8','',(#8));
#8 = PRODUCT_CONTEXT('',#2,'mechanical');
#9 = PRODUCT_DEFINITION_CONTEXT('part definition',#2,'design');
#10 = SHAPE_REPRESENTATION('',(#11,#15,#19,#23,#27,#31,#35,#39,#43,#47,
    #51,#55,#59,#63,#67,#71,#75),#79);
#11 = AXIS2_PLACEMENT_3D('',#12,#13,#14);
#12 = CARTESIAN_POINT('',(0.,0.,0.));
#13 = DIRECTION('',(0.,0.,1.));
#14 = DIRECTION('',(1.,0.,-0.));
#15 = AXIS2_PLACEMENT_3D('',#16,#17,#18);
#16 = CARTESIAN_POINT('',(0.,0.,0.));
#17 = DIRECTION('',(0.,0.,1.));
#18 = DIRECTION('',(1.,0.,-0.));
#19 = AXIS2_PLACEMENT_3D('',#20,#21,#22);
#20 = CARTESIAN_POINT('',(0.,0.,0.));
#21 = DIRECTION('',(0.,0.,1.));
#22 = DIRECTION('',(1.,0.,-0.));
#23 = AXIS2_PLACEMENT_3D('',#24,#25,#26);
#24 = CARTESIAN_POINT('',(0.,0.,0.));
#25 = DIRECTION('',(0.,0.,1.));
#26 = DIRECTION('',(1.,0.,-0.));
#27 = AXIS2_PLACEMENT_3D('',#28,#29,#30);
#28 = CARTESIAN_POINT('',(0.,0.,0.));
#29 = DIRECTION('',(0.,0.,1.));
#30 = DIRECTION('',(1.,0.,-0.));
#31 = AXIS2_PLACEMENT_3D('',#32,#33,#34);
#32 = CARTESIAN_POINT('',(0.,0.,0.));
#33 = DIRECTION('',(0.,0.,1.));
#34 = DIRECTION('',(1.,0.,-0.));
#35 = AXIS2_PLACEMENT_3D('',#36,#37,#38);
#36 = CARTESIAN_POINT('',(0.,0.,0.));
#37 = DIRECTION('',(0.,0.,1.));
#38 = DIRECTION('',(1.,0.,-0.));
#39 = AXIS2_PLACEMENT_3D('',#40,#41,#42);
#40 = CARTESIAN_POINT('',(0.,0.,0.));
#41 = DIRECTION('',(0.,0.,1.));
#42 = DIRECTION('',(1.,0.,-0.));
#43 = AXIS2_PLACEMENT_3D('',#44,#45,#46);
#44 = CARTESIAN_POINT('',(0.,0.,0.));
#45 = DIRECTION('',(0.,0.,1.));
#46 = DIRECTION('',(1.,0.,-0.));
#47 = AXIS2_PLACEMENT_3D('',#48,#49,#50);
#48 = CARTESIAN_POINT('',(0.,0.,0.));
#49 = DIRECTION('',(0.,0.,1.));
#50 = DIRECTION('',(1.,0.,-0.));
#51 = AXIS2_PLACEMENT_3D('',#52,#53,#54);
#52 = CARTESIAN_POINT('',(0.,0.,0.));
#53 = DIRECTION('',(0.,0.,1.));
#54 = DIRECTION('',(1.,0.,-0.));
#55 = AXIS2_PLACEMENT_3D('',#56,#57,#58);
#56 = CARTESIAN_POINT('',(0.,0.,0.));
#57 = DIRECTION('',(0.,0.,1.));
#58 = DIRECTION('',(1.,0.,-0.));
#59 = AXIS2_PLACEMENT_3D('',#60,#61,#62);
#60 = CARTESIAN_POINT('',(0.,0.,0.));
#61 = DIRECTION('',(0.,0.,1.));
#62 = DIRECTION('',(1.,0.,-0.));
#63 = AXIS2_PLACEMENT_3D('',#64,#65,#66);
#64 = CARTESIAN_POINT('',(0.,0.,0.));
#65 = DIRECTION('',(0.,0.,1.));
#66 = DIRECTION('',(1.,0.,-0.));
#67 = AXIS2_PLACEMENT_3D('',#68,#69,#70);
#68 = CARTESIAN_POINT('',(0.,0.,0.));
#69 = DIRECTION('',(0.,0.,1.));
#70 = DIRECTION('',(1.,0.,-0.));
#71 = AXIS2_PLACEMENT_3D('',#72,#73,#74);
#72 = CARTESIAN_POINT('',(0.,0.,0.));
#73 = DIRECTION('',(0.,0.,1.));
#74 = DIRECTION('',(1.,0.,-0.));
#75 = AXIS2_PLACEMENT_3D('',#76,#77,#78);
#76 = CARTESIAN_POINT('',(0.,0.,0.));
#77 = DIRECTION('',(0.,0.,1.));
#78 = DIRECTION('',(1.,0.,-0.));
#79 = ( GEOMETRIC_REPRESENTATION_CONTEXT(3) 
GLOBAL_UNCERTAINTY_ASSIGNED_CONTEXT((#83)) GLOBAL_UNIT_ASSIGNED_CONTEXT(
(#80,#81,#82)) REPRESENTATION_CONTEXT('Context #1',
  '3D Context with UNIT and UNCERTAINTY') );
#80 = ( LENGTH_UNIT() NAMED_UNIT(*) SI_UNIT(.MILLI.,.METRE.) );
#81 = ( NAMED_UNIT(*) PLANE_ANGLE_UNIT() SI_UNIT($,.RADIAN.) );
#82 = ( NAMED_UNIT(*) SI_UNIT($,.STERADIAN.) SOLID_ANGLE_UNIT() );
#83 = UNCERTAINTY_MEASURE_WITH_UNIT(LENGTH_MEASURE(1.E-07),#80,
  'distance_accuracy_value','confusion accuracy');
#84 = PRODUCT_RELATED_PRODUCT_CATEGORY('part',$,(#7));
#85 = SHAPE_DEFINITION_REPRESENTATION(#86,#92);
#86 = PRODUCT_DEFINITION_SHAPE('','',#87);
#87 = PRODUCT_DEFINITION('design','',#88,#91);
#88 = PRODUCT_DEFINITION_FORMATION('','',#89);
#89 = PRODUCT('Open CASCADE STEP translator 7.9 8.1',
  'Open CASCADE STEP translator 7.9 8.1','',(#90));
#90 = PRODUCT_CONTEXT('',#2,'mechanical');
#91 = PRODUCT_DEFINITION_CONTEXT('part definition',#2,'design');
#92 = ADVANCED_BREP_SHAPE_REPRESENTATION('',(#11,#93),#191);
#93 = MANIFOLD_SOLID_BREP('',#94);
#94 = CLOSED_SHELL('',(#95,#183,#187));
#95 = ADVANCED_FACE('',(#96),#109,.T.);
#96 = FACE_BOUND('',#97,.T.);
#97 = EDGE_LOOP('',(#98,#132,#155,#182));
#98 = ORIENTED_EDGE('',*,*,#99,.F.);
#99 = EDGE_CURVE('',#100,#100,#102,.T.);
#100 = VERTEX_POINT('',#101);
#101 = CARTESIAN_POINT('',(1.755291818821,62.461706768263,
    41.043124911774));
#102 = SURFACE_CURVE('',#103,(#108,#120),.PCURVE_S1.);
#103 = CIRCLE('',#104,6.895);
#104 = AXIS2_PLACEMENT_3D('',#105,#106,#107);
#105 = CARTESIAN_POINT('',(1.755291818821,55.625,40.1484375));
#106 = DIRECTION('',(9.546293851352E-02,-0.129166259729,0.987017175493)
  );
#107 = DIRECTION('',(0.,0.991545579153,0.129758870453));
#108 = PCURVE('',#109,#114);
#109 = CONICAL_SURFACE('',#110,7.,5.710446253019E-03);
#110 = AXIS2_PLACEMENT_3D('',#111,#112,#113);
#111 = CARTESIAN_POINT('',(0.,58.,22.));
#112 = DIRECTION('',(-9.546293851352E-02,0.129166259729,-0.987017175493)
  );
#113 = DIRECTION('',(0.,0.991545579153,0.129758870453));
#114 = DEFINITIONAL_REPRESENTATION('',(#115),#119);
#115 = LINE('',#116,#117);
#116 = CARTESIAN_POINT('',(-0.,-18.38715470268));
#117 = VECTOR('',#118,1.);
#118 = DIRECTION('',(-1.,-0.));
#119 = ( GEOMETRIC_REPRESENTATION_CONTEXT(2) 
PARAMETRIC_REPRESENTATION_CONTEXT() REPRESENTATION_CONTEXT('2D SPACE',''
  ) );
#120 = PCURVE('',#121,#126);
#121 = PLANE('',#122);
#122 = AXIS2_PLACEMENT_3D('',#123,#124,#125);
#123 = CARTESIAN_POINT('',(1.755291818821,55.625,40.1484375));
#124 = DIRECTION('',(9.546293851352E-02,-0.129166259729,0.987017175493)
  );
#125 = DIRECTION('',(0.,0.991545579153,0.129758870453));
#126 = DEFINITIONAL_REPRESENTATION('',(#127),#131);
#127 = CIRCLE('',#128,6.895);
#128 = AXIS2_PLACEMENT_2D('',#129,#130);
#129 = CARTESIAN_POINT('',(0.,0.));
#130 = DIRECTION('',(1.,0.));
#131 = ( GEOMETRIC_REPRESENTATION_CONTEXT(2) 
PARAMETRIC_REPRESENTATION_CONTEXT() REPRESENTATION_CONTEXT('2D SPACE',''
  ) );
#132 = ORIENTED_EDGE('',*,*,#133,.F.);
#133 = EDGE_CURVE('',#134,#100,#136,.T.);
#134 = VERTEX_POINT('',#135);
#135 = CARTESIAN_POINT('',(1.706675346164E-15,64.940819054074,
    22.908312093172));
#136 = SEAM_CURVE('',#137,(#141,#148),.PCURVE_S1.);
#137 = LINE('',#138,#139);
#138 = CARTESIAN_POINT('',(1.706675346164E-15,64.940819054074,
    22.908312093172));
#139 = VECTOR('',#140,1.);
#140 = DIRECTION('',(9.546138203289E-02,-0.134826290695,0.98626010559));
#141 = PCURVE('',#109,#142);
#142 = DEFINITIONAL_REPRESENTATION('',(#143),#147);
#143 = LINE('',#144,#145);
#144 = CARTESIAN_POINT('',(-6.28318530718,0.));
#145 = VECTOR('',#146,1.);
#146 = DIRECTION('',(-0.,-1.));
#147 = ( GEOMETRIC_REPRESENTATION_CONTEXT(2) 
PARAMETRIC_REPRESENTATION_CONTEXT() REPRESENTATION_CONTEXT('2D SPACE',''
  ) );
#148 = PCURVE('',#109,#149);
#149 = DEFINITIONAL_REPRESENTATION('',(#150),#154);
#150 = LINE('',#151,#152);
#151 = CARTESIAN_POINT('',(0.,-0.));
#152 = VECTOR('',#153,1.);
#153 = DIRECTION('',(-0.,-1.));
#154 = ( GEOMETRIC_REPRESENTATION_CONTEXT(2) 
PARAMETRIC_REPRESENTATION_CONTEXT() REPRESENTATION_CONTEXT('2D SPACE',''
  ) );
#155 = ORIENTED_EDGE('',*,*,#156,.T.);
#156 = EDGE_CURVE('',#134,#134,#157,.T.);
#157 = SURFACE_CURVE('',#158,(#163,#170),.PCURVE_S1.);
#158 = CIRCLE('',#159,7.);
#159 = AXIS2_PLACEMENT_3D('',#160,#161,#162);
#160 = CARTESIAN_POINT('',(0.,58.,22.));
#161 = DIRECTION('',(9.546293851352E-02,-0.129166259729,0.987017175493)
  );
#162 = DIRECTION('',(0.,0.991545579153,0.129758870453));
#163 = PCURVE('',#109,#164);
#164 = DEFINITIONAL_REPRESENTATION('',(#165),#169);
#165 = LINE('',#166,#167);
#166 = CARTESIAN_POINT('',(-0.,-0.));
#167 = VECTOR('',#168,1.);
#168 = DIRECTION('',(-1.,-0.));
#169 = ( GEOMETRIC_REPRESENTATION_CONTEXT(2) 
PARAMETRIC_REPRESENTATION_CONTEXT() REPRESENTATION_CONTEXT('2D SPACE',''
  ) );
#170 = PCURVE('',#171,#176);
#171 = PLANE('',#172);
#172 = AXIS2_PLACEMENT_3D('',#173,#174,#175);
#173 = CARTESIAN_POINT('',(0.,58.,22.));
#174 = DIRECTION('',(9.546293851352E-02,-0.129166259729,0.987017175493)
  );
#175 = DIRECTION('',(0.,0.991545579153,0.129758870453));
#176 = DEFINITIONAL_REPRESENTATION('',(#177),#181);
#177 = CIRCLE('',#178,7.);
#178 = AXIS2_PLACEMENT_2D('',#179,#180);
#179 = CARTESIAN_POINT('',(0.,0.));
#180 = DIRECTION('',(1.,0.));
#181 = ( GEOMETRIC_REPRESENTATION_CONTEXT(2) 
PARAMETRIC_REPRESENTATION_CONTEXT() REPRESENTATION_CONTEXT('2D SPACE',''
  ) );
#182 = ORIENTED_EDGE('',*,*,#133,.T.);
#183 = ADVANCED_FACE('',(#184),#121,.T.);
#184 = FACE_BOUND('',#185,.T.);
#185 = EDGE_LOOP('',(#186));
#186 = ORIENTED_EDGE('',*,*,#99,.T.);
#187 = ADVANCED_FACE('',(#188),#171,.F.);
#188 = FACE_BOUND('',#189,.T.);
#189 = EDGE_LOOP('',(#190));
#190 = ORIENTED_EDGE('',*,*,#156,.F.);
#191 = ( GEOMETRIC_REPRESENTATION_CONTEXT(3) 
GLOBAL_UNCERTAINTY_ASSIGNED_CONTEXT((#195)) GLOBAL_UNIT_ASSIGNED_CONTEXT
((#192,#193,#194)) REPRESENTATION_CONTEXT('Context #1',
  '3D Context with UNIT and UNCERTAINTY') );
#192 = ( LENGTH_UNIT() NAMED_UNIT(*) SI_UNIT(.MILLI.,.METRE.) );
#193 = ( NAMED_UNIT(*) PLANE_ANGLE_UNIT() SI_UNIT($,.RADIAN.) );
#194 = ( NAMED_UNIT(*) SI_UNIT($,.STERADIAN.) SOLID_ANGLE_UNIT() );
#195 = UNCERTAINTY_MEASURE_WITH_UNIT(LENGTH_MEASURE(1.E-07),#192,
  'distance_accuracy_value','confusion accuracy');
#196 = CONTEXT_DEPENDENT_SHAPE_REPRESENTATION(#197,#199);
#197 = ( REPRESENTATION_RELATIONSHIP('','',#92,#10) 
REPRESENTATION_RELATIONSHIP_WITH_TRANSFORMATION(#198) 
SHAPE_REPRESENTATION_RELATIONSHIP() );
#198 = ITEM_DEFINED_TRANSFORMATION('','',#11,#15);
#199 = PRODUCT_DEFINITION_SHAPE('Placement','Placement of an item',#200
  );
#200 = NEXT_ASSEMBLY_USAGE_OCCURRENCE('3','','',#5,#87,$);
#201 = PRODUCT_RELATED_PRODUCT_CATEGORY('part',$,(#89));
#202 = SHAPE_DEFINITION_REPRESENTATION(#203,#209);
#203 = PRODUCT_DEFINITION_SHAPE('','',#204);
#204 = PRODUCT_DEFINITION('design','',#205,#208);
#205 = PRODUCT_DEFINITION_FORMATION('','',#206);
#206 = PRODUCT('Open CASCADE STEP translator 7.9 8.2',
  'Open CASCADE STEP translator 7.9 8.2','',(#207));
#207 = PRODUCT_CONTEXT('',#2,'mechanical');
#208 = PRODUCT_DEFINITION_CONTEXT('part definition',#2,'design');
#209 = ADVANCED_BREP_SHAPE_REPRESENTATION('',(#11,#210),#308);
#210 = MANIFOLD_SOLID_BREP('',#211);
#211 = CLOSED_SHELL('',(#212,#300,#304));
#212 = ADVANCED_FACE('',(#213),#226,.T.);
#213 = FACE_BOUND('',#214,.T.);
#214 = EDGE_LOOP('',(#215,#249,#272,#299));
#215 = ORIENTED_EDGE('',*,*,#216,.F.);
#216 = EDGE_CURVE('',#217,#217,#219,.T.);
#217 = VERTEX_POINT('',#218);
#218 = CARTESIAN_POINT('',(2.846953858067,55.895020060511,
    59.594564509531));
#219 = SURFACE_CURVE('',#220,(#225,#237),.PCURVE_S1.);
#220 = CIRCLE('',#221,6.79);
#221 = AXIS2_PLACEMENT_3D('',#222,#223,#224);
#222 = CARTESIAN_POINT('',(2.846953858067,49.5,57.3125));
#223 = DIRECTION('',(5.979467066046E-02,-0.335490604811,0.940143952512)
  );
#224 = DIRECTION('',(3.469446951954E-18,0.941829169442,0.336091974894));
#225 = PCURVE('',#226,#231);
#226 = CONICAL_SURFACE('',#227,6.895,5.751204100592E-03);
#227 = AXIS2_PLACEMENT_3D('',#228,#229,#230);
#228 = CARTESIAN_POINT('',(1.755291818821,55.625,40.1484375));
#229 = DIRECTION('',(-5.979467066046E-02,0.335490604811,-0.940143952512)
  );
#230 = DIRECTION('',(3.469446951954E-18,0.941829169442,0.336091974894));
#231 = DEFINITIONAL_REPRESENTATION('',(#232),#236);
#232 = LINE('',#233,#234);
#233 = CARTESIAN_POINT('',(-0.,-18.25684508648));
#234 = VECTOR('',#235,1.);
#235 = DIRECTION('',(-1.,-0.));
#236 = ( GEOMETRIC_REPRESENTATION_CONTEXT(2) 
PARAMETRIC_REPRESENTATION_CONTEXT() REPRESENTATION_CONTEXT('2D SPACE',''
  ) );
#237 = PCURVE('',#238,#243);
#238 = PLANE('',#239);
#239 = AXIS2_PLACEMENT_3D('',#240,#241,#242);
#240 = CARTESIAN_POINT('',(2.846953858067,49.5,57.3125));
#241 = DIRECTION('',(5.979467066046E-02,-0.335490604811,0.940143952512)
  );
#242 = DIRECTION('',(3.469446951954E-18,0.941829169442,0.336091974894));
#243 = DEFINITIONAL_REPRESENTATION('',(#244),#248);
#244 = CIRCLE('',#245,6.79);
#245 = AXIS2_PLACEMENT_2D('',#246,#247);
#246 = CARTESIAN_POINT('',(0.,0.));
#247 = DIRECTION('',(1.,0.));
#248 = ( GEOMETRIC_REPRESENTATION_CONTEXT(2) 
PARAMETRIC_REPRESENTATION_CONTEXT() REPRESENTATION_CONTEXT('2D SPACE',''
  ) );
#249 = ORIENTED_EDGE('',*,*,#250,.F.);
#250 = EDGE_CURVE('',#251,#217,#253,.T.);
#251 = VERTEX_POINT('',#252);
#252 = CARTESIAN_POINT('',(1.755291818821,62.118912123302,
    42.465791666895));
#253 = SEAM_CURVE('',#254,(#258,#265),.PCURVE_S1.);
#254 = LINE('',#255,#256);
#255 = CARTESIAN_POINT('',(1.755291818821,62.118912123302,
    42.465791666895));
#256 = VECTOR('',#257,1.);
#257 = DIRECTION('',(5.97936817685E-02,-0.340901678345,0.938195481402));
#258 = PCURVE('',#226,#259);
#259 = DEFINITIONAL_REPRESENTATION('',(#260),#264);
#260 = LINE('',#261,#262);
#261 = CARTESIAN_POINT('',(-6.28318530718,0.));
#262 = VECTOR('',#263,1.);
#263 = DIRECTION('',(-0.,-1.));
#264 = ( GEOMETRIC_REPRESENTATION_CONTEXT(2) 
PARAMETRIC_REPRESENTATION_CONTEXT() REPRESENTATION_CONTEXT('2D SPACE',''
  ) );
#265 = PCURVE('',#226,#266);
#266 = DEFINITIONAL_REPRESENTATION('',(#267),#271);
#267 = LINE('',#268,#269);
#268 = CARTESIAN_POINT('',(0.,-0.));
#269 = VECTOR('',#270,1.);
#270 = DIRECTION('',(-0.,-1.));
#271 = ( GEOMETRIC_REPRESENTATION_CONTEXT(2) 
PARAMETRIC_REPRESENTATION_CONTEXT() REPRESENTATION_CONTEXT('2D SPACE',''
  ) );
#272 = ORIENTED_EDGE('',*,*,#273,.T.);
#273 = EDGE_CURVE('',#251,#251,#274,.T.);
#274 = SURFACE_CURVE('',#275,(#280,#287),.PCURVE_S1.);
#275 = CIRCLE('',#276,6.895);
#276 = AXIS2_PLACEMENT_3D('',#277,#278,#279);
#277 = CARTESIAN_POINT('',(1.755291818821,55.625,40.1484375));
#278 = DIRECTION('',(5.979467066046E-02,-0.335490604811,0.940143952512)
  );
#279 = DIRECTION('',(3.469446951954E-18,0.941829169442,0.336091974894));
#280 = PCURVE('',#226,#281);
#281 = DEFINITIONAL_REPRESENTATION('',(#282),#286);
#282 = LINE('',#283,#284);
#283 = CARTESIAN_POINT('',(-0.,-0.));
#284 = VECTOR('',#285,1.);
#285 = DIRECTION('',(-1.,-0.));
#286 = ( GEOMETRIC_REPRESENTATION_CONTEXT(2) 
PARAMETRIC_REPRESENTATION_CONTEXT() REPRESENTATION_CONTEXT('2D SPACE',''
  ) );
#287 = PCURVE('',#288,#293);
#288 = PLANE('',#289);
#289 = AXIS2_PLACEMENT_3D('',#290,#291,#292);
#290 = CARTESIAN_POINT('',(1.755291818821,55.625,40.1484375));
#291 = DIRECTION('',(5.979467066046E-02,-0.335490604811,0.940143952512)
  );
#292 = DIRECTION('',(3.469446951954E-18,0.941829169442,0.336091974894));
#293 = DEFINITIONAL_REPRESENTATION('',(#294),#298);
#294 = CIRCLE('',#295,6.895);
#295 = AXIS2_PLACEMENT_2D('',#296,#297);
#296 = CARTESIAN_POINT('',(0.,0.));
#297 = DIRECTION('',(1.,0.));
#298 = ( GEOMETRIC_REPRESENTATION_CONTEXT(2) 
PARAMETRIC_REPRESENTATION_CONTEXT() REPRESENTATION_CONTEXT('2D SPACE',''
  ) );
#299 = ORIENTED_EDGE('',*,*,#250,.T.);
#300 = ADVANCED_FACE('',(#301),#238,.T.);
#301 = FACE_BOUND('',#302,.T.);
#302 = EDGE_LOOP('',(#303));
#303 = ORIENTED_EDGE('',*,*,#216,.T.);
#304 = ADVANCED_FACE('',(#305),#288,.F.);
#305 = FACE_BOUND('',#306,.T.);
#306 = EDGE_LOOP('',(#307));
#307 = ORIENTED_EDGE('',*,*,#273,.F.);
#308 = ( GEOMETRIC_REPRESENTATION_CONTEXT(3) 
GLOBAL_UNCERTAINTY_ASSIGNED_CONTEXT((#312)) GLOBAL_UNIT_ASSIGNED_CONTEXT
((#309,#310,#311)) REPRESENTATION_CONTEXT('Context #1',
  '3D Context with UNIT and UNCERTAINTY') );
#309 = ( LENGTH_UNIT() NAMED_UNIT(*) SI_UNIT(.MILLI.,.METRE.) );
#310 = ( NAMED_UNIT(*) PLANE_ANGLE_UNIT() SI_UNIT($,.RADIAN.) );
#311 = ( NAMED_UNIT(*) SI_UNIT($,.STERADIAN.) SOLID_ANGLE_UNIT() );
#312 = UNCERTAINTY_MEASURE_WITH_UNIT(LENGTH_MEASURE(1.E-07),#309,
  'distance_accuracy_value','confusion accuracy');
#313 = CONTEXT_DEPENDENT_SHAPE_REPRESENTATION(#314,#316);
#314 = ( REPRESENTATION_RELATIONSHIP('','',#209,#10) 
REPRESENTATION_RELATIONSHIP_WITH_TRANSFORMATION(#315) 
SHAPE_REPRESENTATION_RELATIONSHIP() );
#315 = ITEM_DEFINED_TRANSFORMATION('','',#11,#19);
#316 = PRODUCT_DEFINITION_SHAPE('Placement','Placement of an item',#317
  );
#317 = NEXT_ASSEMBLY_USAGE_OCCURRENCE('4','','',#5,#204,$);
#318 = PRODUCT_RELATED_PRODUCT_CATEGORY('part',$,(#206));
#319 = SHAPE_DEFINITION_REPRESENTATION(#320,#326);
#320 = PRODUCT_DEFINITION_SHAPE('','',#321);
#321 = PRODUCT_DEFINITION('design','',#322,#325);
#322 = PRODUCT_DEFINITION_FORMATION('','',#323);
#323 = PRODUCT('Open CASCADE STEP translator 7.9 8.3',
  'Open CASCADE STEP translator 7.9 8.3','',(#324));
#324 = PRODUCT_CONTEXT('',#2,'mechanical');
#325 = PRODUCT_DEFINITION_CONTEXT('part definition',#2,'design');
#326 = ADVANCED_BREP_SHAPE_REPRESENTATION('',(#11,#327),#339);
#327 = MANIFOLD_SOLID_BREP('',#328);
#328 = CLOSED_SHELL('',(#329));
#329 = ADVANCED_FACE('',(#330),#334,.T.);
#330 = FACE_BOUND('',#331,.T.);
#331 = VERTEX_LOOP('',#332);
#332 = VERTEX_POINT('',#333);
#333 = CARTESIAN_POINT('',(1.755291818821,55.625,33.2534375));
#334 = SPHERICAL_SURFACE('',#335,6.895);
#335 = AXIS2_PLACEMENT_3D('',#336,#337,#338);
#336 = CARTESIAN_POINT('',(1.755291818821,55.625,40.1484375));
#337 = DIRECTION('',(0.,0.,1.));
#338 = DIRECTION('',(1.,0.,-0.));
#339 = ( GEOMETRIC_REPRESENTATION_CONTEXT(3) 
GLOBAL_UNCERTAINTY_ASSIGNED_CONTEXT((#343)) GLOBAL_UNIT_ASSIGNED_CONTEXT
((#340,#341,#342)) REPRESENTATION_CONTEXT('Context #1',
  '3D Context with UNIT and UNCERTAINTY') );
#340 = ( LENGTH_UNIT() NAMED_UNIT(*) SI_UNIT(.MILLI.,.METRE.) );
#341 = ( NAMED_UNIT(*) PLANE_ANGLE_UNIT() SI_UNIT($,.RADIAN.) );
#342 = ( NAMED_UNIT(*) SI_UNIT($,.STERADIAN.) SOLID_ANGLE_UNIT() );
#343 = UNCERTAINTY_MEASURE_WITH_UNIT(LENGTH_MEASURE(1.E-07),#340,
  'distance_accuracy_value','confusion accuracy');
#344 = CONTEXT_DEPENDENT_SHAPE_REPRESENTATION(#345,#347);
#345 = ( REPRESENTATION_RELATIONSHIP('','',#326,#10) 
REPRESENTATION_RELATIONSHIP_WITH_TRANSFORMATION(#346) 
SHAPE_REPRESENTATION_RELATIONSHIP() );
#346 = ITEM_DEFINED_TRANSFORMATION('','',#11,#23);
#347 = PRODUCT_DEFINITION_SHAPE('Placement','Placement of an item',#348
  );
#348 = NEXT_ASSEMBLY_USAGE_OCCURRENCE('5','','',#5,#321,$);
#349 = PRODUCT_RELATED_PRODUCT_CATEGORY('part',$,(#323));
#350 = SHAPE_DEFINITION_REPRESENTATION(#351,#357);
#351 = PRODUCT_DEFINITION_SHAPE('','',#352);
#352 = PRODUCT_DEFINITION('design','',#353,#356);
#353 = PRODUCT_DEFINITION_FORMATION('','',#354);
#354 = PRODUCT('Open CASCADE STEP translator 7.9 8.4',
  'Open CASCADE STEP translator 7.9 8.4','',(#355));
#355 = PRODUCT_CONTEXT('',#2,'mechanical');
#356 = PRODUCT_DEFINITION_CONTEXT('part definition',#2,'design');
#357 = ADVANCED_BREP_SHAPE_REPRESENTATION('',(#11,#358),#456);
#358 = MANIFOLD_SOLID_BREP('',#359);
#359 = CLOSED_SHELL('',(#360,#448,#452));
#360 = ADVANCED_FACE('',(#361),#374,.T.);
#361 = FACE_BOUND('',#362,.T.);
#362 = EDGE_LOOP('',(#363,#397,#420,#447));
#363 = ORIENTED_EDGE('',*,*,#364,.F.);
#364 = EDGE_CURVE('',#365,#365,#367,.T.);
#365 = VERTEX_POINT('',#366);
#366 = CARTESIAN_POINT('',(2.862257344829,47.08665064266,76.844869759314
    ));
#367 = SURFACE_CURVE('',#368,(#373,#385),.PCURVE_S1.);
#368 = CIRCLE('',#369,6.685);
#369 = AXIS2_PLACEMENT_3D('',#370,#371,#372);
#370 = CARTESIAN_POINT('',(2.862257344829,41.125,73.8203125));
#371 = DIRECTION('',(8.267340543961E-04,-0.452439225982,0.891794854944)
  );
#372 = DIRECTION('',(0.,0.89179515971,0.452439380601));
#373 = PCURVE('',#374,#379);
#374 = CONICAL_SURFACE('',#375,6.79,5.672311548895E-03);
#375 = AXIS2_PLACEMENT_3D('',#376,#377,#378);
#376 = CARTESIAN_POINT('',(2.846953858067,49.5,57.3125));
#377 = DIRECTION('',(-8.267340543961E-04,0.452439225982,-0.891794854944)
  );
#378 = DIRECTION('',(0.,0.89179515971,0.452439380601));
#379 = DEFINITIONAL_REPRESENTATION('',(#380),#384);
#380 = LINE('',#381,#382);
#381 = CARTESIAN_POINT('',(-0.,-18.51077342338));
#382 = VECTOR('',#383,1.);
#383 = DIRECTION('',(-1.,-0.));
#384 = ( GEOMETRIC_REPRESENTATION_CONTEXT(2) 
PARAMETRIC_REPRESENTATION_CONTEXT() REPRESENTATION_CONTEXT('2D SPACE',''
  ) );
#385 = PCURVE('',#386,#391);
#386 = PLANE('',#387);
#387 = AXIS2_PLACEMENT_3D('',#388,#389,#390);
#388 = CARTESIAN_POINT('',(2.862257344829,41.125,73.8203125));
#389 = DIRECTION('',(8.267340543961E-04,-0.452439225982,0.891794854944)
  );
#390 = DIRECTION('',(0.,0.89179515971,0.452439380601));
#391 = DEFINITIONAL_REPRESENTATION('',(#392),#396);
#392 = CIRCLE('',#393,6.685);
#393 = AXIS2_PLACEMENT_2D('',#394,#395);
#394 = CARTESIAN_POINT('',(0.,0.));
#395 = DIRECTION('',(1.,0.));
#396 = ( GEOMETRIC_REPRESENTATION_CONTEXT(2) 
PARAMETRIC_REPRESENTATION_CONTEXT() REPRESENTATION_CONTEXT('2D SPACE',''
  ) );
#397 = ORIENTED_EDGE('',*,*,#398,.F.);
#398 = EDGE_CURVE('',#399,#365,#401,.T.);
#399 = VERTEX_POINT('',#400);
#400 = CARTESIAN_POINT('',(2.846953858067,55.55528913443,60.384563394278
    ));
#401 = SEAM_CURVE('',#402,(#406,#413),.PCURVE_S1.);
#402 = LINE('',#403,#404);
#403 = CARTESIAN_POINT('',(2.846953858067,55.55528913443,60.384563394278
    ));
#404 = VECTOR('',#405,1.);
#405 = DIRECTION('',(8.267207542988E-04,-0.457490460216,0.889214144818)
  );
#406 = PCURVE('',#374,#407);
#407 = DEFINITIONAL_REPRESENTATION('',(#408),#412);
#408 = LINE('',#409,#410);
#409 = CARTESIAN_POINT('',(-6.28318530718,0.));
#410 = VECTOR('',#411,1.);
#411 = DIRECTION('',(-0.,-1.));
#412 = ( GEOMETRIC_REPRESENTATION_CONTEXT(2) 
PARAMETRIC_REPRESENTATION_CONTEXT() REPRESENTATION_CONTEXT('2D SPACE',''
  ) );
#413 = PCURVE('',#374,#414);
#414 = DEFINITIONAL_REPRESENTATION('',(#415),#419);
#415 = LINE('',#416,#417);
#416 = CARTESIAN_POINT('',(0.,-0.));
#417 = VECTOR('',#418,1.);
#418 = DIRECTION('',(-0.,-1.));
#419 = ( GEOMETRIC_REPRESENTATION_CONTEXT(2) 
PARAMETRIC_REPRESENTATION_CONTEXT() REPRESENTATION_CONTEXT('2D SPACE',''
  ) );
#420 = ORIENTED_EDGE('',*,*,#421,.T.);
#421 = EDGE_CURVE('',#399,#399,#422,.T.);
#422 = SURFACE_CURVE('',#423,(#428,#435),.PCURVE_S1.);
#423 = CIRCLE('',#424,6.79);
#424 = AXIS2_PLACEMENT_3D('',#425,#426,#427);
#425 = CARTESIAN_POINT('',(2.846953858067,49.5,57.3125));
#426 = DIRECTION('',(8.267340543961E-04,-0.452439225982,0.891794854944)
  );
#427 = DIRECTION('',(0.,0.89179515971,0.452439380601));
#428 = PCURVE('',#374,#429);
#429 = DEFINITIONAL_REPRESENTATION('',(#430),#434);
#430 = LINE('',#431,#432);
#431 = CARTESIAN_POINT('',(-0.,-0.));
#432 = VECTOR('',#433,1.);
#433 = DIRECTION('',(-1.,-0.));
#434 = ( GEOMETRIC_REPRESENTATION_CONTEXT(2) 
PARAMETRIC_REPRESENTATION_CONTEXT() REPRESENTATION_CONTEXT('2D SPACE',''
  ) );
#435 = PCURVE('',#436,#441);
#436 = PLANE('',#437);
#437 = AXIS2_PLACEMENT_3D('',#438,#439,#440);
#438 = CARTESIAN_POINT('',(2.846953858067,49.5,57.3125));
#439 = DIRECTION('',(8.267340543961E-04,-0.452439225982,0.891794854944)
  );
#440 = DIRECTION('',(0.,0.89179515971,0.452439380601));
#441 = DEFINITIONAL_REPRESENTATION('',(#442),#446);
#442 = CIRCLE('',#443,6.79);
#443 = AXIS2_PLACEMENT_2D('',#444,#445);
#444 = CARTESIAN_POINT('',(0.,0.));
#445 = DIRECTION('',(1.,0.));
#446 = ( GEOMETRIC_REPRESENTATION_CONTEXT(2) 
PARAMETRIC_REPRESENTATION_CONTEXT() REPRESENTATION_CONTEXT('2D SPACE',''
  ) );
#447 = ORIENTED_EDGE('',*,*,#398,.T.);
#448 = ADVANCED_FACE('',(#449),#386,.T.);
#449 = FACE_BOUND('',#450,.T.);
#450 = EDGE_LOOP('',(#451));
#451 = ORIENTED_EDGE('',*,*,#364,.T.);
#452 = ADVANCED_FACE('',(#453),#436,.F.);
#453 = FACE_BOUND('',#454,.T.);
#454 = EDGE_LOOP('',(#455));
#455 = ORIENTED_EDGE('',*,*,#421,.F.);
#456 = ( GEOMETRIC_REPRESENTATION_CONTEXT(3) 
GLOBAL_UNCERTAINTY_ASSIGNED_CONTEXT((#460)) GLOBAL_UNIT_ASSIGNED_CONTEXT
((#457,#458,#459)) REPRESENTATION_CONTEXT('Context #1',
  '3D Context with UNIT and UNCERTAINTY') );
#457 = ( LENGTH_UNIT() NAMED_UNIT(*) SI_UNIT(.MILLI.,.METRE.) );
#458 = ( NAMED_UNIT(*) PLANE_ANGLE_UNIT() SI_UNIT($,.RADIAN.) );
#459 = ( NAMED_UNIT(*) SI_UNIT($,.STERADIAN.) SOLID_ANGLE_UNIT() );
#460 = UNCERTAINTY_MEASURE_WITH_UNIT(LENGTH_MEASURE(1.E-07),#457,
  'distance_accuracy_value','confusion accuracy');
#461 = CONTEXT_DEPENDENT_SHAPE_REPRESENTATION(#462,#464);
#462 = ( REPRESENTATION_RELATIONSHIP('','',#357,#10) 
REPRESENTATION_RELATIONSHIP_WITH_TRANSFORMATION(#463) 
SHAPE_REPRESENTATION_RELATIONSHIP() );
#463 = ITEM_DEFINED_TRANSFORMATION('','',#11,#27);
#464 = PRODUCT_DEFINITION_SHAPE('Placement','Placement of an item',#465
  );
#465 = NEXT_ASSEMBLY_USAGE_OCCURRENCE('6','','',#5,#352,$);
#466 = PRODUCT_RELATED_PRODUCT_CATEGORY('part',$,(#354));
#467 = SHAPE_DEFINITION_REPRESENTATION(#468,#474);
#468 = PRODUCT_DEFINITION_SHAPE('','',#469);
#469 = PRODUCT_DEFINITION('design','',#470,#473);
#470 = PRODUCT_DEFINITION_FORMATION('','',#471);
#471 = PRODUCT('Open CASCADE STEP translator 7.9 8.5',
  'Open CASCADE STEP translator 7.9 8.5','',(#472));
#472 = PRODUCT_CONTEXT('',#2,'mechanical');
#473 = PRODUCT_DEFINITION_CONTEXT('part definition',#2,'design');
#474 = ADVANCED_BREP_SHAPE_REPRESENTATION('',(#11,#475),#487);
#475 = MANIFOLD_SOLID_BREP('',#476);
#476 = CLOSED_SHELL('',(#477));
#477 = ADVANCED_FACE('',(#478),#482,.T.);
#478 = FACE_BOUND('',#479,.T.);
#479 = VERTEX_LOOP('',#480);
#480 = VERTEX_POINT('',#481);
#481 = CARTESIAN_POINT('',(2.846953858067,49.5,50.5225));
#482 = SPHERICAL_SURFACE('',#483,6.79);
#483 = AXIS2_PLACEMENT_3D('',#484,#485,#486);
#484 = CARTESIAN_POINT('',(2.846953858067,49.5,57.3125));
#485 = DIRECTION('',(0.,0.,1.));
#486 = DIRECTION('',(1.,0.,-0.));
#487 = ( GEOMETRIC_REPRESENTATION_CONTEXT(3) 
GLOBAL_UNCERTAINTY_ASSIGNED_CONTEXT((#491)) GLOBAL_UNIT_ASSIGNED_CONTEXT
((#488,#489,#490)) REPRESENTATION_CONTEXT('Context #1',
  '3D Context with UNIT and UNCERTAINTY') );
#488 = ( LENGTH_UNIT() NAMED_UNIT(*) SI_UNIT(.MILLI.,.METRE.) );
#489 = ( NAMED_UNIT(*) PLANE_ANGLE_UNIT() SI_UNIT($,.RADIAN.) );
#490 = ( NAMED_UNIT(*) SI_UNIT($,.STERADIAN.) SOLID_ANGLE_UNIT() );
#491 = UNCERTAINTY_MEASURE_WITH_UNIT(LENGTH_MEASURE(1.E-07),#488,
  'distance_accuracy_value','confusion accuracy');
#492 = CONTEXT_DEPENDENT_SHAPE_REPRESENTATION(#493,#495);
#493 = ( REPRESENTATION_RELATIONSHIP('','',#474,#10) 
REPRESENTATION_RELATIONSHIP_WITH_TRANSFORMATION(#494) 
SHAPE_REPRESENTATION_RELATIONSHIP() );
#494 = ITEM_DEFINED_TRANSFORMATION('','',#11,#31);
#495 = PRODUCT_DEFINITION_SHAPE('Placement','Placement of an item',#496
  );
#496 = NEXT_ASSEMBLY_USAGE_OCCURRENCE('7','','',#5,#469,$);
#497 = PRODUCT_RELATED_PRODUCT_CATEGORY('part',$,(#471));
#498 = SHAPE_DEFINITION_REPRESENTATION(#499,#505);
#499 = PRODUCT_DEFINITION_SHAPE('','',#500);
#500 = PRODUCT_DEFINITION('design','',#501,#504);
#501 = PRODUCT_DEFINITION_FORMATION('','',#502);
#502 = PRODUCT('Open CASCADE STEP translator 7.9 8.6',
  'Open CASCADE STEP translator 7.9 8.6','',(#503));
#503 = PRODUCT_CONTEXT('',#2,'mechanical');
#504 = PRODUCT_DEFINITION_CONTEXT('part definition',#2,'design');
#505 = ADVANCED_BREP_SHAPE_REPRESENTATION('',(#11,#506),#604);
#506 = MANIFOLD_SOLID_BREP('',#507);
#507 = CLOSED_SHELL('',(#508,#596,#600));
#508 = ADVANCED_FACE('',(#509),#522,.T.);
#509 = FACE_BOUND('',#510,.T.);
#510 = EDGE_LOOP('',(#511,#545,#568,#595));
#511 = ORIENTED_EDGE('',*,*,#512,.F.);
#512 = EDGE_CURVE('',#513,#513,#515,.T.);
#513 = VERTEX_POINT('',#514);
#514 = CARTESIAN_POINT('',(1.795416432312,37.731341950327,
    93.232355093183));
#515 = SURFACE_CURVE('',#516,(#521,#533),.PCURVE_S1.);
#516 = CIRCLE('',#517,6.58);
#517 = AXIS2_PLACEMENT_3D('',#518,#519,#520);
#518 = CARTESIAN_POINT('',(1.795416432312,32.,90.));
#519 = DIRECTION('',(-5.733830795809E-02,-0.490431191735,0.869591607948)
  );
#520 = DIRECTION('',(0.,0.871024612512,0.491239375864));
#521 = PCURVE('',#522,#527);
#522 = CONICAL_SURFACE('',#523,6.685,5.643257916201E-03);
#523 = AXIS2_PLACEMENT_3D('',#524,#525,#526);
#524 = CARTESIAN_POINT('',(2.862257344829,41.125,73.8203125));
#525 = DIRECTION('',(5.733830795809E-02,0.490431191735,-0.869591607948)
  );
#526 = DIRECTION('',(0.,0.871024612512,0.491239375864));
#527 = DEFINITIONAL_REPRESENTATION('',(#528),#532);
#528 = LINE('',#529,#530);
#529 = CARTESIAN_POINT('',(-0.,-18.60607594659));
#530 = VECTOR('',#531,1.);
#531 = DIRECTION('',(-1.,-0.));
#532 = ( GEOMETRIC_REPRESENTATION_CONTEXT(2) 
PARAMETRIC_REPRESENTATION_CONTEXT() REPRESENTATION_CONTEXT('2D SPACE',''
  ) );
#533 = PCURVE('',#534,#539);
#534 = PLANE('',#535);
#535 = AXIS2_PLACEMENT_3D('',#536,#537,#538);
#536 = CARTESIAN_POINT('',(1.795416432312,32.,90.));
#537 = DIRECTION('',(-5.733830795809E-02,-0.490431191735,0.869591607948)
  );
#538 = DIRECTION('',(0.,0.871024612512,0.491239375864));
#539 = DEFINITIONAL_REPRESENTATION('',(#540),#544);
#540 = CIRCLE('',#541,6.58);
#541 = AXIS2_PLACEMENT_2D('',#542,#543);
#542 = CARTESIAN_POINT('',(0.,0.));
#543 = DIRECTION('',(1.,0.));
#544 = ( GEOMETRIC_REPRESENTATION_CONTEXT(2) 
PARAMETRIC_REPRESENTATION_CONTEXT() REPRESENTATION_CONTEXT('2D SPACE',''
  ) );
#545 = ORIENTED_EDGE('',*,*,#546,.F.);
#546 = EDGE_CURVE('',#547,#513,#549,.T.);
#547 = VERTEX_POINT('',#548);
#548 = CARTESIAN_POINT('',(2.862257344829,46.94779953464,77.104247727649
    ));
#549 = SEAM_CURVE('',#550,(#554,#561),.PCURVE_S1.);
#550 = LINE('',#551,#552);
#551 = CARTESIAN_POINT('',(2.862257344829,46.94779953464,77.104247727649
    ));
#552 = VECTOR('',#553,1.);
#553 = DIRECTION('',(-5.733739495232E-02,-0.495338772982,0.866805585539)
  );
#554 = PCURVE('',#522,#555);
#555 = DEFINITIONAL_REPRESENTATION('',(#556),#560);
#556 = LINE('',#557,#558);
#557 = CARTESIAN_POINT('',(-6.28318530718,0.));
#558 = VECTOR('',#559,1.);
#559 = DIRECTION('',(-0.,-1.));
#560 = ( GEOMETRIC_REPRESENTATION_CONTEXT(2) 
PARAMETRIC_REPRESENTATION_CONTEXT() REPRESENTATION_CONTEXT('2D SPACE',''
  ) );
#561 = PCURVE('',#522,#562);
#562 = DEFINITIONAL_REPRESENTATION('',(#563),#567);
#563 = LINE('',#564,#565);
#564 = CARTESIAN_POINT('',(0.,-0.));
#565 = VECTOR('',#566,1.);
#566 = DIRECTION('',(-0.,-1.));
#567 = ( GEOMETRIC_REPRESENTATION_CONTEXT(2) 
PARAMETRIC_REPRESENTATION_CONTEXT() REPRESENTATION_CONTEXT('2D SPACE',''
  ) );
#568 = ORIENTED_EDGE('',*,*,#569,.T.);
#569 = EDGE_CURVE('',#547,#547,#570,.T.);
#570 = SURFACE_CURVE('',#571,(#576,#583),.PCURVE_S1.);
#571 = CIRCLE('',#572,6.685);
#572 = AXIS2_PLACEMENT_3D('',#573,#574,#575);
#573 = CARTESIAN_POINT('',(2.862257344829,41.125,73.8203125));
#574 = DIRECTION('',(-5.733830795809E-02,-0.490431191735,0.869591607948)
  );
#575 = DIRECTION('',(0.,0.871024612512,0.491239375864));
#576 = PCURVE('',#522,#577);
#577 = DEFINITIONAL_REPRESENTATION('',(#578),#582);
#578 = LINE('',#579,#580);
#579 = CARTESIAN_POINT('',(-0.,-0.));
#580 = VECTOR('',#581,1.);
#581 = DIRECTION('',(-1.,-0.));
#582 = ( GEOMETRIC_REPRESENTATION_CONTEXT(2) 
PARAMETRIC_REPRESENTATION_CONTEXT() REPRESENTATION_CONTEXT('2D SPACE',''
  ) );
#583 = PCURVE('',#584,#589);
#584 = PLANE('',#585);
#585 = AXIS2_PLACEMENT_3D('',#586,#587,#588);
#586 = CARTESIAN_POINT('',(2.862257344829,41.125,73.8203125));
#587 = DIRECTION('',(-5.733830795809E-02,-0.490431191735,0.869591607948)
  );
#588 = DIRECTION('',(0.,0.871024612512,0.491239375864));
#589 = DEFINITIONAL_REPRESENTATION('',(#590),#594);
#590 = CIRCLE('',#591,6.685);
#591 = AXIS2_PLACEMENT_2D('',#592,#593);
#592 = CARTESIAN_POINT('',(0.,0.));
#593 = DIRECTION('',(1.,0.));
#594 = ( GEOMETRIC_REPRESENTATION_CONTEXT(2) 
PARAMETRIC_REPRESENTATION_CONTEXT() REPRESENTATION_CONTEXT('2D SPACE',''
  ) );
#595 = ORIENTED_EDGE('',*,*,#546,.T.);
#596 = ADVANCED_FACE('',(#597),#534,.T.);
#597 = FACE_BOUND('',#598,.T.);
#598 = EDGE_LOOP('',(#599));
#599 = ORIENTED_EDGE('',*,*,#512,.T.);
#600 = ADVANCED_FACE('',(#601),#584,.F.);
#601 = FACE_BOUND('',#602,.T.);
#602 = EDGE_LOOP('',(#603));
#603 = ORIENTED_EDGE('',*,*,#569,.F.);
#604 = ( GEOMETRIC_REPRESENTATION_CONTEXT(3) 
GLOBAL_UNCERTAINTY_ASSIGNED_CONTEXT((#608)) GLOBAL_UNIT_ASSIGNED_CONTEXT
((#605,#606,#607)) REPRESENTATION_CONTEXT('Context #1',
  '3D Context with UNIT and UNCERTAINTY') );
#605 = ( LENGTH_UNIT() NAMED_UNIT(*) SI_UNIT(.MILLI.,.METRE.) );
#606 = ( NAMED_UNIT(*) PLANE_ANGLE_UNIT() SI_UNIT($,.RADIAN.) );
#607 = ( NAMED_UNIT(*) SI_UNIT($,.STERADIAN.) SOLID_ANGLE_UNIT() );
#608 = UNCERTAINTY_MEASURE_WITH_UNIT(LENGTH_MEASURE(1.E-07),#605,
  'distance_accuracy_value','confusion accuracy');
#609 = CONTEXT_DEPENDENT_SHAPE_REPRESENTATION(#610,#612);
#610 = ( REPRESENTATION_RELATIONSHIP('','',#505,#10) 
REPRESENTATION_RELATIONSHIP_WITH_TRANSFORMATION(#611) 
SHAPE_REPRESENTATION_RELATIONSHIP() );
#611 = ITEM_DEFINED_TRANSFORMATION('','',#11,#35);
#612 = PRODUCT_DEFINITION_SHAPE('Placement','Placement of an item',#613
  );
#613 = NEXT_ASSEMBLY_USAGE_OCCURRENCE('8','','',#5,#500,$);
#614 = PRODUCT_RELATED_PRODUCT_CATEGORY('part',$,(#502));
#615 = SHAPE_DEFINITION_REPRESENTATION(#616,#622);
#616 = PRODUCT_DEFINITION_SHAPE('','',#617);
#617 = PRODUCT_DEFINITION('design','',#618,#621);
#618 = PRODUCT_DEFINITION_FORMATION('','',#619);
#619 = PRODUCT('Open CASCADE STEP translator 7.9 8.7',
  'Open CASCADE STEP translator 7.9 8.7','',(#620));
#620 = PRODUCT_CONTEXT('',#2,'mechanical');
#621 = PRODUCT_DEFINITION_CONTEXT('part definition',#2,'design');
#622 = ADVANCED_BREP_SHAPE_REPRESENTATION('',(#11,#623),#635);
#623 = MANIFOLD_SOLID_BREP('',#624);
#624 = CLOSED_SHELL('',(#625));
#625 = ADVANCED_FACE('',(#626),#630,.T.);
#626 = FACE_BOUND('',#627,.T.);
#627 = VERTEX_LOOP('',#628);
#628 = VERTEX_POINT('',#629);
#629 = CARTESIAN_POINT('',(2.862257344829,41.125,67.1353125));
#630 = SPHERICAL_SURFACE('',#631,6.685);
#631 = AXIS2_PLACEMENT_3D('',#632,#633,#634);
#632 = CARTESIAN_POINT('',(2.862257344829,41.125,73.8203125));
#633 = DIRECTION('',(0.,0.,1.));
#634 = DIRECTION('',(1.,0.,-0.));
#635 = ( GEOMETRIC_REPRESENTATION_CONTEXT(3) 
GLOBAL_UNCERTAINTY_ASSIGNED_CONTEXT((#639)) GLOBAL_UNIT_ASSIGNED_CONTEXT
((#636,#637,#638)) REPRESENTATION_CONTEXT('Context #1',
  '3D Context with UNIT and UNCERTAINTY') );
#636 = ( LENGTH_UNIT() NAMED_UNIT(*) SI_UNIT(.MILLI.,.METRE.) );
#637 = ( NAMED_UNIT(*) PLANE_ANGLE_UNIT() SI_UNIT($,.RADIAN.) );
#638 = ( NAMED_UNIT(*) SI_UNIT($,.STERADIAN.) SOLID_ANGLE_UNIT() );
#639 = UNCERTAINTY_MEASURE_WITH_UNIT(LENGTH_MEASURE(1.E-07),#636,
  'distance_accuracy_value','confusion accuracy');
#640 = CONTEXT_DEPENDENT_SHAPE_REPRESENTATION(#641,#643);
#641 = ( REPRESENTATION_RELATIONSHIP('','',#622,#10) 
REPRESENTATION_RELATIONSHIP_WITH_TRANSFORMATION(#642) 
SHAPE_REPRESENTATION_RELATIONSHIP() );
#642 = ITEM_DEFINED_TRANSFORMATION('','',#11,#39);
#643 = PRODUCT_DEFINITION_SHAPE('Placement','Placement of an item',#644
  );
#644 = NEXT_ASSEMBLY_USAGE_OCCURRENCE('9','','',#5,#617,$);
#645 = PRODUCT_RELATED_PRODUCT_CATEGORY('part',$,(#619));
#646 = SHAPE_DEFINITION_REPRESENTATION(#647,#653);
#647 = PRODUCT_DEFINITION_SHAPE('','',#648);
#648 = PRODUCT_DEFINITION('design','',#649,#652);
#649 = PRODUCT_DEFINITION_FORMATION('','',#650);
#650 = PRODUCT('Open CASCADE STEP translator 7.9 8.8',
  'Open CASCADE STEP translator 7.9 8.8','',(#651));
#651 = PRODUCT_CONTEXT('',#2,'mechanical');
#652 = PRODUCT_DEFINITION_CONTEXT('part definition',#2,'design');
#653 = ADVANCED_BREP_SHAPE_REPRESENTATION('',(#11,#654),#752);
#654 = MANIFOLD_SOLID_BREP('',#655);
#655 = CLOSED_SHELL('',(#656,#744,#748));
#656 = ADVANCED_FACE('',(#657),#670,.T.);
#657 = FACE_BOUND('',#658,.T.);
#658 = EDGE_LOOP('',(#659,#693,#716,#743));
#659 = ORIENTED_EDGE('',*,*,#660,.F.);
#660 = EDGE_CURVE('',#661,#661,#663,.T.);
#661 = VERTEX_POINT('',#662);
#662 = CARTESIAN_POINT('',(4.977567668805E-02,29.375310363244,
    109.15618808396));
#663 = SURFACE_CURVE('',#664,(#669,#681),.PCURVE_S1.);
#664 = CIRCLE('',#665,6.475);
#665 = AXIS2_PLACEMENT_3D('',#666,#667,#668);
#666 = CARTESIAN_POINT('',(4.977567668804E-02,23.625,106.1796875));
#667 = DIRECTION('',(-9.537878884266E-02,-0.457595501241,0.884030114805)
  );
#668 = DIRECTION('',(0.,0.888078820578,0.459691209879));
#669 = PCURVE('',#670,#675);
#670 = CONICAL_SURFACE('',#671,6.58,5.736955284213E-03);
#671 = AXIS2_PLACEMENT_3D('',#672,#673,#674);
#672 = CARTESIAN_POINT('',(1.795416432312,32.,90.));
#673 = DIRECTION('',(9.537878884266E-02,0.457595501241,-0.884030114805)
  );
#674 = DIRECTION('',(0.,0.888078820578,0.459691209879));
#675 = DEFINITIONAL_REPRESENTATION('',(#676),#680);
#676 = LINE('',#677,#678);
#677 = CARTESIAN_POINT('',(-0.,-18.30219042206));
#678 = VECTOR('',#679,1.);
#679 = DIRECTION('',(-1.,-0.));
#680 = ( GEOMETRIC_REPRESENTATION_CONTEXT(2) 
PARAMETRIC_REPRESENTATION_CONTEXT() REPRESENTATION_CONTEXT('2D SPACE',''
  ) );
#681 = PCURVE('',#682,#687);
#682 = PLANE('',#683);
#683 = AXIS2_PLACEMENT_3D('',#684,#685,#686);
#684 = CARTESIAN_POINT('',(4.977567668804E-02,23.625,106.1796875));
#685 = DIRECTION('',(-9.537878884266E-02,-0.457595501241,0.884030114805)
  );
#686 = DIRECTION('',(0.,0.888078820578,0.459691209879));
#687 = DEFINITIONAL_REPRESENTATION('',(#688),#692);
#688 = CIRCLE('',#689,6.475);
#689 = AXIS2_PLACEMENT_2D('',#690,#691);
#690 = CARTESIAN_POINT('',(0.,0.));
#691 = DIRECTION('',(1.,0.));
#692 = ( GEOMETRIC_REPRESENTATION_CONTEXT(2) 
PARAMETRIC_REPRESENTATION_CONTEXT() REPRESENTATION_CONTEXT('2D SPACE',''
  ) );
#693 = ORIENTED_EDGE('',*,*,#694,.F.);
#694 = EDGE_CURVE('',#695,#661,#697,.T.);
#695 = VERTEX_POINT('',#696);
#696 = CARTESIAN_POINT('',(1.795416432312,37.843558639405,
    93.024768161005));
#697 = SEAM_CURVE('',#698,(#702,#709),.PCURVE_S1.);
#698 = LINE('',#699,#700);
#699 = CARTESIAN_POINT('',(1.795416432312,37.843558639405,
    93.024768161005));
#700 = VECTOR('',#701,1.);
#701 = DIRECTION('',(-9.537721926233E-02,-0.462682811455,0.881378353506)
  );
#702 = PCURVE('',#670,#703);
#703 = DEFINITIONAL_REPRESENTATION('',(#704),#708);
#704 = LINE('',#705,#706);
#705 = CARTESIAN_POINT('',(-6.28318530718,0.));
#706 = VECTOR('',#707,1.);
#707 = DIRECTION('',(-0.,-1.));
#708 = ( GEOMETRIC_REPRESENTATION_CONTEXT(2) 
PARAMETRIC_REPRESENTATION_CONTEXT() REPRESENTATION_CONTEXT('2D SPACE',''
  ) );
#709 = PCURVE('',#670,#710);
#710 = DEFINITIONAL_REPRESENTATION('',(#711),#715);
#711 = LINE('',#712,#713);
#712 = CARTESIAN_POINT('',(0.,-0.));
#713 = VECTOR('',#714,1.);
#714 = DIRECTION('',(-0.,-1.));
#715 = ( GEOMETRIC_REPRESENTATION_CONTEXT(2) 
PARAMETRIC_REPRESENTATION_CONTEXT() REPRESENTATION_CONTEXT('2D SPACE',''
  ) );
#716 = ORIENTED_EDGE('',*,*,#717,.T.);
#717 = EDGE_CURVE('',#695,#695,#718,.T.);
#718 = SURFACE_CURVE('',#719,(#724,#731),.PCURVE_S1.);
#719 = CIRCLE('',#720,6.58);
#720 = AXIS2_PLACEMENT_3D('',#721,#722,#723);
#721 = CARTESIAN_POINT('',(1.795416432312,32.,90.));
#722 = DIRECTION('',(-9.537878884266E-02,-0.457595501241,0.884030114805)
  );
#723 = DIRECTION('',(0.,0.888078820578,0.459691209879));
#724 = PCURVE('',#670,#725);
#725 = DEFINITIONAL_REPRESENTATION('',(#726),#730);
#726 = LINE('',#727,#728);
#727 = CARTESIAN_POINT('',(-0.,-0.));
#728 = VECTOR('',#729,1.);
#729 = DIRECTION('',(-1.,-0.));
#730 = ( GEOMETRIC_REPRESENTATION_CONTEXT(2) 
PARAMETRIC_REPRESENTATION_CONTEXT() REPRESENTATION_CONTEXT('2D SPACE',''
  ) );
#731 = PCURVE('',#732,#737);
#732 = PLANE('',#733);
#733 = AXIS2_PLACEMENT_3D('',#734,#735,#736);
#734 = CARTESIAN_POINT('',(1.795416432312,32.,90.));
#735 = DIRECTION('',(-9.537878884266E-02,-0.457595501241,0.884030114805)
  );
#736 = DIRECTION('',(0.,0.888078820578,0.459691209879));
#737 = DEFINITIONAL_REPRESENTATION('',(#738),#742);
#738 = CIRCLE('',#739,6.58);
#739 = AXIS2_PLACEMENT_2D('',#740,#741);
#740 = CARTESIAN_POINT('',(0.,0.));
#741 = DIRECTION('',(1.,0.));
#742 = ( GEOMETRIC_REPRESENTATION_CONTEXT(2) 
PARAMETRIC_REPRESENTATION_CONTEXT() REPRESENTATION_CONTEXT('2D SPACE',''
  ) );
#743 = ORIENTED_EDGE('',*,*,#694,.T.);
#744 = ADVANCED_FACE('',(#745),#682,.T.);
#745 = FACE_BOUND('',#746,.T.);
#746 = EDGE_LOOP('',(#747));
#747 = ORIENTED_EDGE('',*,*,#660,.T.);
#748 = ADVANCED_FACE('',(#749),#732,.F.);
#749 = FACE_BOUND('',#750,.T.);
#750 = EDGE_LOOP('',(#751));
#751 = ORIENTED_EDGE('',*,*,#717,.F.);
#752 = ( GEOMETRIC_REPRESENTATION_CONTEXT(3) 
GLOBAL_UNCERTAINTY_ASSIGNED_CONTEXT((#756)) GLOBAL_UNIT_ASSIGNED_CONTEXT
((#753,#754,#755)) REPRESENTATION_CONTEXT('Context #1',
  '3D Context with UNIT and UNCERTAINTY') );
#753 = ( LENGTH_UNIT() NAMED_UNIT(*) SI_UNIT(.MILLI.,.METRE.) );
#754 = ( NAMED_UNIT(*) PLANE_ANGLE_UNIT() SI_UNIT($,.RADIAN.) );
#755 = ( NAMED_UNIT(*) SI_UNIT($,.STERADIAN.) SOLID_ANGLE_UNIT() );
#756 = UNCERTAINTY_MEASURE_WITH_UNIT(LENGTH_MEASURE(1.E-07),#753,
  'distance_accuracy_value','confusion accuracy');
#757 = CONTEXT_DEPENDENT_SHAPE_REPRESENTATION(#758,#760);
#758 = ( REPRESENTATION_RELATIONSHIP('','',#653,#10) 
REPRESENTATION_RELATIONSHIP_WITH_TRANSFORMATION(#759) 
SHAPE_REPRESENTATION_RELATIONSHIP() );
#759 = ITEM_DEFINED_TRANSFORMATION('','',#11,#43);
#760 = PRODUCT_DEFINITION_SHAPE('Placement','Placement of an item',#761
  );
#761 = NEXT_ASSEMBLY_USAGE_OCCURRENCE('10','','',#5,#648,$);
#762 = PRODUCT_RELATED_PRODUCT_CATEGORY('part',$,(#650));
#763 = SHAPE_DEFINITION_REPRESENTATION(#764,#770);
#764 = PRODUCT_DEFINITION_SHAPE('','',#765);
#765 = PRODUCT_DEFINITION('design','',#766,#769);
#766 = PRODUCT_DEFINITION_FORMATION('','',#767);
#767 = PRODUCT('Open CASCADE STEP translator 7.9 8.9',
  'Open CASCADE STEP translator 7.9 8.9','',(#768));
#768 = PRODUCT_CONTEXT('',#2,'mechanical');
#769 = PRODUCT_DEFINITION_CONTEXT('part definition',#2,'design');
#770 = ADVANCED_BREP_SHAPE_REPRESENTATION('',(#11,#771),#783);
#771 = MANIFOLD_SOLID_BREP('',#772);
#772 = CLOSED_SHELL('',(#773));
#773 = ADVANCED_FACE('',(#774),#778,.T.);
#774 = FACE_BOUND('',#775,.T.);
#775 = VERTEX_LOOP('',#776);
#776 = VERTEX_POINT('',#777);
#777 = CARTESIAN_POINT('',(1.795416432312,32.,83.42));
#778 = SPHERICAL_SURFACE('',#779,6.58);
#779 = AXIS2_PLACEMENT_3D('',#780,#781,#782);
#780 = CARTESIAN_POINT('',(1.795416432312,32.,90.));
#781 = DIRECTION('',(0.,0.,1.));
#782 = DIRECTION('',(1.,0.,-0.));
#783 = ( GEOMETRIC_REPRESENTATION_CONTEXT(3) 
GLOBAL_UNCERTAINTY_ASSIGNED_CONTEXT((#787)) GLOBAL_UNIT_ASSIGNED_CONTEXT
((#784,#785,#786)) REPRESENTATION_CONTEXT('Context #1',
  '3D Context with UNIT and UNCERTAINTY') );
#784 = ( LENGTH_UNIT() NAMED_UNIT(*) SI_UNIT(.MILLI.,.METRE.) );
#785 = ( NAMED_UNIT(*) PLANE_ANGLE_UNIT() SI_UNIT($,.RADIAN.) );
#786 = ( NAMED_UNIT(*) SI_UNIT($,.STERADIAN.) SOLID_ANGLE_UNIT() );
#787 = UNCERTAINTY_MEASURE_WITH_UNIT(LENGTH_MEASURE(1.E-07),#784,
  'distance_accuracy_value','confusion accuracy');
#788 = CONTEXT_DEPENDENT_SHAPE_REPRESENTATION(#789,#791);
#789 = ( REPRESENTATION_RELATIONSHIP('','',#770,#10) 
REPRESENTATION_RELATIONSHIP_WITH_TRANSFORMATION(#790) 
SHAPE_REPRESENTATION_RELATIONSHIP() );
#790 = ITEM_DEFINED_TRANSFORMATION('','',#11,#47);
#791 = PRODUCT_DEFINITION_SHAPE('Placement','Placement of an item',#792
  );
#792 = NEXT_ASSEMBLY_USAGE_OCCURRENCE('11','','',#5,#765,$);
#793 = PRODUCT_RELATED_PRODUCT_CATEGORY('part',$,(#767));
#794 = SHAPE_DEFINITION_REPRESENTATION(#795,#801);
#795 = PRODUCT_DEFINITION_SHAPE('','',#796);
#796 = PRODUCT_DEFINITION('design','',#797,#800);
#797 = PRODUCT_DEFINITION_FORMATION('','',#798);
#798 = PRODUCT('Open CASCADE STEP translator 7.9 8.10',
  'Open CASCADE STEP translator 7.9 8.10','',(#799));
#799 = PRODUCT_CONTEXT('',#2,'mechanical');
#800 = PRODUCT_DEFINITION_CONTEXT('part definition',#2,'design');
#801 = ADVANCED_BREP_SHAPE_REPRESENTATION('',(#11,#802),#900);
#802 = MANIFOLD_SOLID_BREP('',#803);
#803 = CLOSED_SHELL('',(#804,#892,#896));
#804 = ADVANCED_FACE('',(#805),#818,.T.);
#805 = FACE_BOUND('',#806,.T.);
#806 = EDGE_LOOP('',(#807,#841,#864,#891));
#807 = ORIENTED_EDGE('',*,*,#808,.F.);
#808 = EDGE_CURVE('',#809,#809,#811,.T.);
#809 = VERTEX_POINT('',#810);
#810 = CARTESIAN_POINT('',(-1.714683956227,23.472163010576,
    124.90339010898));
#811 = SURFACE_CURVE('',#812,(#817,#829),.PCURVE_S1.);
#812 = CIRCLE('',#813,6.37);
#813 = AXIS2_PLACEMENT_3D('',#814,#815,#816);
#814 = CARTESIAN_POINT('',(-1.714683956227,17.5,122.6875));
#815 = DIRECTION('',(-9.971136491017E-02,-0.346129828465,0.932872866769)
  );
#816 = DIRECTION('',(0.,0.937545213591,0.347863439402));
#817 = PCURVE('',#818,#823);
#818 = CONICAL_SURFACE('',#819,6.475,5.933584565868E-03);
#819 = AXIS2_PLACEMENT_3D('',#820,#821,#822);
#820 = CARTESIAN_POINT('',(4.977567668804E-02,23.625,106.1796875));
#821 = DIRECTION('',(9.971136491017E-02,0.346129828465,-0.932872866769)
  );
#822 = DIRECTION('',(0.,0.937545213591,0.347863439402));
#823 = DEFINITIONAL_REPRESENTATION('',(#824),#828);
#824 = LINE('',#825,#826);
#825 = CARTESIAN_POINT('',(-0.,-17.69567224864));
#826 = VECTOR('',#827,1.);
#827 = DIRECTION('',(-1.,-0.));
#828 = ( GEOMETRIC_REPRESENTATION_CONTEXT(2) 
PARAMETRIC_REPRESENTATION_CONTEXT() REPRESENTATION_CONTEXT('2D SPACE',''
  ) );
#829 = PCURVE('',#830,#835);
#830 = PLANE('',#831);
#831 = AXIS2_PLACEMENT_3D('',#832,#833,#834);
#832 = CARTESIAN_POINT('',(-1.714683956227,17.5,122.6875));
#833 = DIRECTION('',(-9.971136491017E-02,-0.346129828465,0.932872866769)
  );
#834 = DIRECTION('',(0.,0.937545213591,0.347863439402));
#835 = DEFINITIONAL_REPRESENTATION('',(#836),#840);
#836 = CIRCLE('',#837,6.37);
#837 = AXIS2_PLACEMENT_2D('',#838,#839);
#838 = CARTESIAN_POINT('',(0.,0.));
#839 = DIRECTION('',(1.,0.));
#840 = ( GEOMETRIC_REPRESENTATION_CONTEXT(2) 
PARAMETRIC_REPRESENTATION_CONTEXT() REPRESENTATION_CONTEXT('2D SPACE',''
  ) );
#841 = ORIENTED_EDGE('',*,*,#842,.F.);
#842 = EDGE_CURVE('',#843,#809,#845,.T.);
#843 = VERTEX_POINT('',#844);
#844 = CARTESIAN_POINT('',(4.977567668805E-02,29.695605258003,
    108.43210327012));
#845 = SEAM_CURVE('',#846,(#850,#857),.PCURVE_S1.);
#846 = LINE('',#847,#848);
#847 = CARTESIAN_POINT('',(4.977567668805E-02,29.695605258003,
    108.43210327012));
#848 = VECTOR('',#849,1.);
#849 = DIRECTION('',(-9.970960962508E-02,-0.351686706479,0.930792379768)
  );
#850 = PCURVE('',#818,#851);
#851 = DEFINITIONAL_REPRESENTATION('',(#852),#856);
#852 = LINE('',#853,#854);
#853 = CARTESIAN_POINT('',(-6.28318530718,0.));
#854 = VECTOR('',#855,1.);
#855 = DIRECTION('',(-0.,-1.));
#856 = ( GEOMETRIC_REPRESENTATION_CONTEXT(2) 
PARAMETRIC_REPRESENTATION_CONTEXT() REPRESENTATION_CONTEXT('2D SPACE',''
  ) );
#857 = PCURVE('',#818,#858);
#858 = DEFINITIONAL_REPRESENTATION('',(#859),#863);
#859 = LINE('',#860,#861);
#860 = CARTESIAN_POINT('',(0.,-0.));
#861 = VECTOR('',#862,1.);
#862 = DIRECTION('',(-0.,-1.));
#863 = ( GEOMETRIC_REPRESENTATION_CONTEXT(2) 
PARAMETRIC_REPRESENTATION_CONTEXT() REPRESENTATION_CONTEXT('2D SPACE',''
  ) );
#864 = ORIENTED_EDGE('',*,*,#865,.T.);
#865 = EDGE_CURVE('',#843,#843,#866,.T.);
#866 = SURFACE_CURVE('',#867,(#872,#879),.PCURVE_S1.);
#867 = CIRCLE('',#868,6.475);
#868 = AXIS2_PLACEMENT_3D('',#869,#870,#871);
#869 = CARTESIAN_POINT('',(4.977567668804E-02,23.625,106.1796875));
#870 = DIRECTION('',(-9.971136491017E-02,-0.346129828465,0.932872866769)
  );
#871 = DIRECTION('',(0.,0.937545213591,0.347863439402));
#872 = PCURVE('',#818,#873);
#873 = DEFINITIONAL_REPRESENTATION('',(#874),#878);
#874 = LINE('',#875,#876);
#875 = CARTESIAN_POINT('',(-0.,-0.));
#876 = VECTOR('',#877,1.);
#877 = DIRECTION('',(-1.,-0.));
#878 = ( GEOMETRIC_REPRESENTATION_CONTEXT(2) 
PARAMETRIC_REPRESENTATION_CONTEXT() REPRESENTATION_CONTEXT('2D SPACE',''
  ) );
#879 = PCURVE('',#880,#885);
#880 = PLANE('',#881);
#881 = AXIS2_PLACEMENT_3D('',#882,#883,#884);
#882 = CARTESIAN_POINT('',(4.977567668804E-02,23.625,106.1796875));
#883 = DIRECTION('',(-9.971136491017E-02,-0.346129828465,0.932872866769)
  );
#884 = DIRECTION('',(0.,0.937545213591,0.347863439402));
#885 = DEFINITIONAL_REPRESENTATION('',(#886),#890);
#886 = CIRCLE('',#887,6.475);
#887 = AXIS2_PLACEMENT_2D('',#888,#889);
#888 = CARTESIAN_POINT('',(0.,0.));
#889 = DIRECTION('',(1.,0.));
#890 = ( GEOMETRIC_REPRESENTATION_CONTEXT(2) 
PARAMETRIC_REPRESENTATION_CONTEXT() REPRESENTATION_CONTEXT('2D SPACE',''
  ) );
#891 = ORIENTED_EDGE('',*,*,#842,.T.);
#892 = ADVANCED_FACE('',(#893),#830,.T.);
#893 = FACE_BOUND('',#894,.T.);
#894 = EDGE_LOOP('',(#895));
#895 = ORIENTED_EDGE('',*,*,#808,.T.);
#896 = ADVANCED_FACE('',(#897),#880,.F.);
#897 = FACE_BOUND('',#898,.T.);
#898 = EDGE_LOOP('',(#899));
#899 = ORIENTED_EDGE('',*,*,#865,.F.);
#900 = ( GEOMETRIC_REPRESENTATION_CONTEXT(3) 
GLOBAL_UNCERTAINTY_ASSIGNED_CONTEXT((#904)) GLOBAL_UNIT_ASSIGNED_CONTEXT
((#901,#902,#903)) REPRESENTATION_CONTEXT('Context #1',
  '3D Context with UNIT and UNCERTAINTY') );
#901 = ( LENGTH_UNIT() NAMED_UNIT(*) SI_UNIT(.MILLI.,.METRE.) );
#902 = ( NAMED_UNIT(*) PLANE_ANGLE_UNIT() SI_UNIT($,.RADIAN.) );
#903 = ( NAMED_UNIT(*) SI_UNIT($,.STERADIAN.) SOLID_ANGLE_UNIT() );
#904 = UNCERTAINTY_MEASURE_WITH_UNIT(LENGTH_MEASURE(1.E-07),#901,
  'distance_accuracy_value','confusion accuracy');
#905 = CONTEXT_DEPENDENT_SHAPE_REPRESENTATION(#906,#908);
#906 = ( REPRESENTATION_RELATIONSHIP('','',#801,#10) 
REPRESENTATION_RELATIONSHIP_WITH_TRANSFORMATION(#907) 
SHAPE_REPRESENTATION_RELATIONSHIP() );
#907 = ITEM_DEFINED_TRANSFORMATION('','',#11,#51);
#908 = PRODUCT_DEFINITION_SHAPE('Placement','Placement of an item',#909
  );
#909 = NEXT_ASSEMBLY_USAGE_OCCURRENCE('12','','',#5,#796,$);
#910 = PRODUCT_RELATED_PRODUCT_CATEGORY('part',$,(#798));
#911 = SHAPE_DEFINITION_REPRESENTATION(#912,#918);
#912 = PRODUCT_DEFINITION_SHAPE('','',#913);
#913 = PRODUCT_DEFINITION('design','',#914,#917);
#914 = PRODUCT_DEFINITION_FORMATION('','',#915);
#915 = PRODUCT('Open CASCADE STEP translator 7.9 8.11',
  'Open CASCADE STEP translator 7.9 8.11','',(#916));
#916 = PRODUCT_CONTEXT('',#2,'mechanical');
#917 = PRODUCT_DEFINITION_CONTEXT('part definition',#2,'design');
#918 = ADVANCED_BREP_SHAPE_REPRESENTATION('',(#11,#919),#931);
#919 = MANIFOLD_SOLID_BREP('',#920);
#920 = CLOSED_SHELL('',(#921));
#921 = ADVANCED_FACE('',(#922),#926,.T.);
#922 = FACE_BOUND('',#923,.T.);
#923 = VERTEX_LOOP('',#924);
#924 = VERTEX_POINT('',#925);
#925 = CARTESIAN_POINT('',(4.977567668804E-02,23.625,99.7046875));
#926 = SPHERICAL_SURFACE('',#927,6.475);
#927 = AXIS2_PLACEMENT_3D('',#928,#929,#930);
#928 = CARTESIAN_POINT('',(4.977567668804E-02,23.625,106.1796875));
#929 = DIRECTION('',(0.,0.,1.));
#930 = DIRECTION('',(1.,0.,-0.));
#931 = ( GEOMETRIC_REPRESENTATION_CONTEXT(3) 
GLOBAL_UNCERTAINTY_ASSIGNED_CONTEXT((#935)) GLOBAL_UNIT_ASSIGNED_CONTEXT
((#932,#933,#934)) REPRESENTATION_CONTEXT('Context #1',
  '3D Context with UNIT and UNCERTAINTY') );
#932 = ( LENGTH_UNIT() NAMED_UNIT(*) SI_UNIT(.MILLI.,.METRE.) );
#933 = ( NAMED_UNIT(*) PLANE_ANGLE_UNIT() SI_UNIT($,.RADIAN.) );
#934 = ( NAMED_UNIT(*) SI_UNIT($,.STERADIAN.) SOLID_ANGLE_UNIT() );
#935 = UNCERTAINTY_MEASURE_WITH_UNIT(LENGTH_MEASURE(1.E-07),#932,
  'distance_accuracy_value','confusion accuracy');
#936 = CONTEXT_DEPENDENT_SHAPE_REPRESENTATION(#937,#939);
#937 = ( REPRESENTATION_RELATIONSHIP('','',#918,#10) 
REPRESENTATION_RELATIONSHIP_WITH_TRANSFORMATION(#938) 
SHAPE_REPRESENTATION_RELATIONSHIP() );
#938 = ITEM_DEFINED_TRANSFORMATION('','',#11,#55);
#939 = PRODUCT_DEFINITION_SHAPE('Placement','Placement of an item',#940
  );
#940 = NEXT_ASSEMBLY_USAGE_OCCURRENCE('13','','',#5,#913,$);
#941 = PRODUCT_RELATED_PRODUCT_CATEGORY('part',$,(#915));
#942 = SHAPE_DEFINITION_REPRESENTATION(#943,#949);
#943 = PRODUCT_DEFINITION_SHAPE('','',#944);
#944 = PRODUCT_DEFINITION('design','',#945,#948);
#945 = PRODUCT_DEFINITION_FORMATION('','',#946);
#946 = PRODUCT('Open CASCADE STEP translator 7.9 8.12',
  'Open CASCADE STEP translator 7.9 8.12','',(#947));
#947 = PRODUCT_CONTEXT('',#2,'mechanical');
#948 = PRODUCT_DEFINITION_CONTEXT('part definition',#2,'design');
#949 = ADVANCED_BREP_SHAPE_REPRESENTATION('',(#11,#950),#1048);
#950 = MANIFOLD_SOLID_BREP('',#951);
#951 = CLOSED_SHELL('',(#952,#1040,#1044));
#952 = ADVANCED_FACE('',(#953),#966,.T.);
#953 = FACE_BOUND('',#954,.T.);
#954 = EDGE_LOOP('',(#955,#989,#1012,#1039));
#955 = ORIENTED_EDGE('',*,*,#956,.F.);
#956 = EDGE_CURVE('',#957,#957,#959,.T.);
#957 = VERTEX_POINT('',#958);
#958 = CARTESIAN_POINT('',(-2.830866576903,21.330871641628,
    140.71027209447));
#959 = SURFACE_CURVE('',#960,(#965,#977),.PCURVE_S1.);
#960 = CIRCLE('',#961,6.265);
#961 = AXIS2_PLACEMENT_3D('',#962,#963,#964);
#962 = CARTESIAN_POINT('',(-2.830866576903,15.125,139.8515625));
#963 = DIRECTION('',(-6.428323115321E-02,-0.136781088651,0.988513328175)
  );
#964 = DIRECTION('',(-3.469446951954E-18,0.990562113588,0.137064580123)
  );
#965 = PCURVE('',#966,#971);
#966 = CONICAL_SURFACE('',#967,6.37,6.047090209622E-03);
#967 = AXIS2_PLACEMENT_3D('',#968,#969,#970);
#968 = CARTESIAN_POINT('',(-1.714683956227,17.5,122.6875));
#969 = DIRECTION('',(6.428323115321E-02,0.136781088651,-0.988513328175)
  );
#970 = DIRECTION('',(-1.734723475977E-18,0.990562113588,0.137064580123)
  );
#971 = DEFINITIONAL_REPRESENTATION('',(#972),#976);
#972 = LINE('',#973,#974);
#973 = CARTESIAN_POINT('',(-0.,-17.36351145784));
#974 = VECTOR('',#975,1.);
#975 = DIRECTION('',(-1.,-0.));
#976 = ( GEOMETRIC_REPRESENTATION_CONTEXT(2) 
PARAMETRIC_REPRESENTATION_CONTEXT() REPRESENTATION_CONTEXT('2D SPACE',''
  ) );
#977 = PCURVE('',#978,#983);
#978 = PLANE('',#979);
#979 = AXIS2_PLACEMENT_3D('',#980,#981,#982);
#980 = CARTESIAN_POINT('',(-2.830866576903,15.125,139.8515625));
#981 = DIRECTION('',(-6.428323115321E-02,-0.136781088651,0.988513328175)
  );
#982 = DIRECTION('',(-1.734723475977E-18,0.990562113588,0.137064580123)
  );
#983 = DEFINITIONAL_REPRESENTATION('',(#984),#988);
#984 = CIRCLE('',#985,6.265);
#985 = AXIS2_PLACEMENT_2D('',#986,#987);
#986 = CARTESIAN_POINT('',(0.,0.));
#987 = DIRECTION('',(1.,0.));
#988 = ( GEOMETRIC_REPRESENTATION_CONTEXT(2) 
PARAMETRIC_REPRESENTATION_CONTEXT() REPRESENTATION_CONTEXT('2D SPACE',''
  ) );
#989 = ORIENTED_EDGE('',*,*,#990,.F.);
#990 = EDGE_CURVE('',#991,#957,#993,.T.);
#991 = VERTEX_POINT('',#992);
#992 = CARTESIAN_POINT('',(-1.714683956227,23.809880663555,
    123.56060137538));
#993 = SEAM_CURVE('',#994,(#998,#1005),.PCURVE_S1.);
#994 = LINE('',#995,#996);
#995 = CARTESIAN_POINT('',(-1.714683956227,23.809880663555,
    123.56060137538));
#996 = VECTOR('',#997,1.);
#997 = DIRECTION('',(-6.428205582469E-02,-0.142768569753,0.987666417769)
  );
#998 = PCURVE('',#966,#999);
#999 = DEFINITIONAL_REPRESENTATION('',(#1000),#1004);
#1000 = LINE('',#1001,#1002);
#1001 = CARTESIAN_POINT('',(-6.28318530718,0.));
#1002 = VECTOR('',#1003,1.);
#1003 = DIRECTION('',(-0.,-1.));
#1004 = ( GEOMETRIC_REPRESENTATION_CONTEXT(2) 
PARAMETRIC_REPRESENTATION_CONTEXT() REPRESENTATION_CONTEXT('2D SPACE',''
  ) );
#1005 = PCURVE('',#966,#1006);
#1006 = DEFINITIONAL_REPRESENTATION('',(#1007),#1011);
#1007 = LINE('',#1008,#1009);
#1008 = CARTESIAN_POINT('',(0.,-0.));
#1009 = VECTOR('',#1010,1.);
#1010 = DIRECTION('',(-0.,-1.));
#1011 = ( GEOMETRIC_REPRESENTATION_CONTEXT(2) 
PARAMETRIC_REPRESENTATION_CONTEXT() REPRESENTATION_CONTEXT('2D SPACE',''
  ) );
#1012 = ORIENTED_EDGE('',*,*,#1013,.T.);
#1013 = EDGE_CURVE('',#991,#991,#1014,.T.);
#1014 = SURFACE_CURVE('',#1015,(#1020,#1027),.PCURVE_S1.);
#1015 = CIRCLE('',#1016,6.37);
#1016 = AXIS2_PLACEMENT_3D('',#1017,#1018,#1019);
#1017 = CARTESIAN_POINT('',(-1.714683956227,17.5,122.6875));
#1018 = DIRECTION('',(-6.428323115321E-02,-0.136781088651,0.988513328175
    ));
#1019 = DIRECTION('',(-3.469446951954E-18,0.990562113588,0.137064580123)
  );
#1020 = PCURVE('',#966,#1021);
#1021 = DEFINITIONAL_REPRESENTATION('',(#1022),#1026);
#1022 = LINE('',#1023,#1024);
#1023 = CARTESIAN_POINT('',(-0.,-0.));
#1024 = VECTOR('',#1025,1.);
#1025 = DIRECTION('',(-1.,-0.));
#1026 = ( GEOMETRIC_REPRESENTATION_CONTEXT(2) 
PARAMETRIC_REPRESENTATION_CONTEXT() REPRESENTATION_CONTEXT('2D SPACE',''
  ) );
#1027 = PCURVE('',#1028,#1033);
#1028 = PLANE('',#1029);
#1029 = AXIS2_PLACEMENT_3D('',#1030,#1031,#1032);
#1030 = CARTESIAN_POINT('',(-1.714683956227,17.5,122.6875));
#1031 = DIRECTION('',(-6.428323115321E-02,-0.136781088651,0.988513328175
    ));
#1032 = DIRECTION('',(-1.734723475977E-18,0.990562113588,0.137064580123)
  );
#1033 = DEFINITIONAL_REPRESENTATION('',(#1034),#1038);
#1034 = CIRCLE('',#1035,6.37);
#1035 = AXIS2_PLACEMENT_2D('',#1036,#1037);
#1036 = CARTESIAN_POINT('',(0.,0.));
#1037 = DIRECTION('',(1.,0.));
#1038 = ( GEOMETRIC_REPRESENTATION_CONTEXT(2) 
PARAMETRIC_REPRESENTATION_CONTEXT() REPRESENTATION_CONTEXT('2D SPACE',''
  ) );
#1039 = ORIENTED_EDGE('',*,*,#990,.T.);
#1040 = ADVANCED_FACE('',(#1041),#978,.T.);
#1041 = FACE_BOUND('',#1042,.T.);
#1042 = EDGE_LOOP('',(#1043));
#1043 = ORIENTED_EDGE('',*,*,#956,.T.);
#1044 = ADVANCED_FACE('',(#1045),#1028,.F.);
#1045 = FACE_BOUND('',#1046,.T.);
#1046 = EDGE_LOOP('',(#1047));
#1047 = ORIENTED_EDGE('',*,*,#1013,.F.);
#1048 = ( GEOMETRIC_REPRESENTATION_CONTEXT(3) 
GLOBAL_UNCERTAINTY_ASSIGNED_CONTEXT((#1052)) 
GLOBAL_UNIT_ASSIGNED_CONTEXT((#1049,#1050,#1051)) REPRESENTATION_CONTEXT
('Context #1','3D Context with UNIT and UNCERTAINTY') );
#1049 = ( LENGTH_UNIT() NAMED_UNIT(*) SI_UNIT(.MILLI.,.METRE.) );
#1050 = ( NAMED_UNIT(*) PLANE_ANGLE_UNIT() SI_UNIT($,.RADIAN.) );
#1051 = ( NAMED_UNIT(*) SI_UNIT($,.STERADIAN.) SOLID_ANGLE_UNIT() );
#1052 = UNCERTAINTY_MEASURE_WITH_UNIT(LENGTH_MEASURE(1.E-07),#1049,
  'distance_accuracy_value','confusion accuracy');
#1053 = CONTEXT_DEPENDENT_SHAPE_REPRESENTATION(#1054,#1056);
#1054 = ( REPRESENTATION_RELATIONSHIP('','',#949,#10) 
REPRESENTATION_RELATIONSHIP_WITH_TRANSFORMATION(#1055) 
SHAPE_REPRESENTATION_RELATIONSHIP() );
#1055 = ITEM_DEFINED_TRANSFORMATION('','',#11,#59);
#1056 = PRODUCT_DEFINITION_SHAPE('Placement','Placement of an item',
  #1057);
#1057 = NEXT_ASSEMBLY_USAGE_OCCURRENCE('14','','',#5,#944,$);
#1058 = PRODUCT_RELATED_PRODUCT_CATEGORY('part',$,(#946));
#1059 = SHAPE_DEFINITION_REPRESENTATION(#1060,#1066);
#1060 = PRODUCT_DEFINITION_SHAPE('','',#1061);
#1061 = PRODUCT_DEFINITION('design','',#1062,#1065);
#1062 = PRODUCT_DEFINITION_FORMATION('','',#1063);
#1063 = PRODUCT('Open CASCADE STEP translator 7.9 8.13',
  'Open CASCADE STEP translator 7.9 8.13','',(#1064));
#1064 = PRODUCT_CONTEXT('',#2,'mechanical');
#1065 = PRODUCT_DEFINITION_CONTEXT('part definition',#2,'design');
#1066 = ADVANCED_BREP_SHAPE_REPRESENTATION('',(#11,#1067),#1079);
#1067 = MANIFOLD_SOLID_BREP('',#1068);
#1068 = CLOSED_SHELL('',(#1069));
#1069 = ADVANCED_FACE('',(#1070),#1074,.T.);
#1070 = FACE_BOUND('',#1071,.T.);
#1071 = VERTEX_LOOP('',#1072);
#1072 = VERTEX_POINT('',#1073);
#1073 = CARTESIAN_POINT('',(-1.714683956227,17.5,116.3175));
#1074 = SPHERICAL_SURFACE('',#1075,6.37);
#1075 = AXIS2_PLACEMENT_3D('',#1076,#1077,#1078);
#1076 = CARTESIAN_POINT('',(-1.714683956227,17.5,122.6875));
#1077 = DIRECTION('',(0.,0.,1.));
#1078 = DIRECTION('',(1.,0.,-0.));
#1079 = ( GEOMETRIC_REPRESENTATION_CONTEXT(3) 
GLOBAL_UNCERTAINTY_ASSIGNED_CONTEXT((#1083)) 
GLOBAL_UNIT_ASSIGNED_CONTEXT((#1080,#1081,#1082)) REPRESENTATION_CONTEXT
('Context #1','3D Context with UNIT and UNCERTAINTY') );
#1080 = ( LENGTH_UNIT() NAMED_UNIT(*) SI_UNIT(.MILLI.,.METRE.) );
#1081 = ( NAMED_UNIT(*) PLANE_ANGLE_UNIT() SI_UNIT($,.RADIAN.) );
#1082 = ( NAMED_UNIT(*) SI_UNIT($,.STERADIAN.) SOLID_ANGLE_UNIT() );
#1083 = UNCERTAINTY_MEASURE_WITH_UNIT(LENGTH_MEASURE(1.E-07),#1080,
  'distance_accuracy_value','confusion accuracy');
#1084 = CONTEXT_DEPENDENT_SHAPE_REPRESENTATION(#1085,#1087);
#1085 = ( REPRESENTATION_RELATIONSHIP('','',#1066,#10) 
REPRESENTATION_RELATIONSHIP_WITH_TRANSFORMATION(#1086) 
SHAPE_REPRESENTATION_RELATIONSHIP() );
#1086 = ITEM_DEFINED_TRANSFORMATION('','',#11,#63);
#1087 = PRODUCT_DEFINITION_SHAPE('Placement','Placement of an item',
  #1088);
#1088 = NEXT_ASSEMBLY_USAGE_OCCURRENCE('15','','',#5,#1061,$);
#1089 = PRODUCT_RELATED_PRODUCT_CATEGORY('part',$,(#1063));
#1090 = SHAPE_DEFINITION_REPRESENTATION(#1091,#1097);
#1091 = PRODUCT_DEFINITION_SHAPE('','',#1092);
#1092 = PRODUCT_DEFINITION('design','',#1093,#1096);
#1093 = PRODUCT_DEFINITION_FORMATION('','',#1094);
#1094 = PRODUCT('Open CASCADE STEP translator 7.9 8.14',
  'Open CASCADE STEP translator 7.9 8.14','',(#1095));
#1095 = PRODUCT_CONTEXT('',#2,'mechanical');
#1096 = PRODUCT_DEFINITION_CONTEXT('part definition',#2,'design');
#1097 = ADVANCED_BREP_SHAPE_REPRESENTATION('',(#11,#1098),#1196);
#1098 = MANIFOLD_SOLID_BREP('',#1099);
#1099 = CLOSED_SHELL('',(#1100,#1188,#1192));
#1100 = ADVANCED_FACE('',(#1101),#1114,.T.);
#1101 = FACE_BOUND('',#1102,.T.);
#1102 = EDGE_LOOP('',(#1103,#1137,#1160,#1187));
#1103 = ORIENTED_EDGE('',*,*,#1104,.F.);
#1104 = EDGE_CURVE('',#1105,#1105,#1107,.T.);
#1105 = VERTEX_POINT('',#1106);
#1106 = CARTESIAN_POINT('',(-2.876772823989,24.084130656461,
    157.03617732174));
#1107 = SURFACE_CURVE('',#1108,(#1113,#1125),.PCURVE_S1.);
#1108 = CIRCLE('',#1109,6.16);
#1109 = AXIS2_PLACEMENT_3D('',#1110,#1111,#1112);
#1110 = CARTESIAN_POINT('',(-2.876772823989,18.,158.));
#1111 = DIRECTION('',(-2.498325462068E-03,0.156464232197,0.987680465744)
  );
#1112 = DIRECTION('',(0.,0.987683548127,-0.156464720495));
#1113 = PCURVE('',#1114,#1119);
#1114 = CONICAL_SURFACE('',#1115,6.265,5.714283674494E-03);
#1115 = AXIS2_PLACEMENT_3D('',#1116,#1117,#1118);
#1116 = CARTESIAN_POINT('',(-2.830866576903,15.125,139.8515625));
#1117 = DIRECTION('',(2.498325462068E-03,-0.156464232197,-0.987680465744
    ));
#1118 = DIRECTION('',(5.421010862428E-20,0.987683548127,-0.156464720495)
  );
#1119 = DEFINITIONAL_REPRESENTATION('',(#1120),#1124);
#1120 = LINE('',#1121,#1122);
#1121 = CARTESIAN_POINT('',(-0.,-18.37480655884));
#1122 = VECTOR('',#1123,1.);
#1123 = DIRECTION('',(-1.,-0.));
#1124 = ( GEOMETRIC_REPRESENTATION_CONTEXT(2) 
PARAMETRIC_REPRESENTATION_CONTEXT() REPRESENTATION_CONTEXT('2D SPACE',''
  ) );
#1125 = PCURVE('',#1126,#1131);
#1126 = PLANE('',#1127);
#1127 = AXIS2_PLACEMENT_3D('',#1128,#1129,#1130);
#1128 = CARTESIAN_POINT('',(-2.876772823989,18.,158.));
#1129 = DIRECTION('',(-2.498325462068E-03,0.156464232197,0.987680465744)
  );
#1130 = DIRECTION('',(5.421010862428E-20,0.987683548127,-0.156464720495)
  );
#1131 = DEFINITIONAL_REPRESENTATION('',(#1132),#1136);
#1132 = CIRCLE('',#1133,6.16);
#1133 = AXIS2_PLACEMENT_2D('',#1134,#1135);
#1134 = CARTESIAN_POINT('',(0.,0.));
#1135 = DIRECTION('',(1.,0.));
#1136 = ( GEOMETRIC_REPRESENTATION_CONTEXT(2) 
PARAMETRIC_REPRESENTATION_CONTEXT() REPRESENTATION_CONTEXT('2D SPACE',''
  ) );
#1137 = ORIENTED_EDGE('',*,*,#1138,.F.);
#1138 = EDGE_CURVE('',#1139,#1105,#1141,.T.);
#1139 = VERTEX_POINT('',#1140);
#1140 = CARTESIAN_POINT('',(-2.830866576903,21.312837429014,
    138.87131102609));
#1141 = SEAM_CURVE('',#1142,(#1146,#1153),.PCURVE_S1.);
#1142 = LINE('',#1143,#1144);
#1143 = CARTESIAN_POINT('',(-2.830866576903,21.312837429014,
    138.87131102609));
#1144 = VECTOR('',#1145,1.);
#1145 = DIRECTION('',(-2.498284673221E-03,0.150817804428,0.988558419337)
  );
#1146 = PCURVE('',#1114,#1147);
#1147 = DEFINITIONAL_REPRESENTATION('',(#1148),#1152);
#1148 = LINE('',#1149,#1150);
#1149 = CARTESIAN_POINT('',(-6.28318530718,0.));
#1150 = VECTOR('',#1151,1.);
#1151 = DIRECTION('',(-0.,-1.));
#1152 = ( GEOMETRIC_REPRESENTATION_CONTEXT(2) 
PARAMETRIC_REPRESENTATION_CONTEXT() REPRESENTATION_CONTEXT('2D SPACE',''
  ) );
#1153 = PCURVE('',#1114,#1154);
#1154 = DEFINITIONAL_REPRESENTATION('',(#1155),#1159);
#1155 = LINE('',#1156,#1157);
#1156 = CARTESIAN_POINT('',(0.,-0.));
#1157 = VECTOR('',#1158,1.);
#1158 = DIRECTION('',(-0.,-1.));
#1159 = ( GEOMETRIC_REPRESENTATION_CONTEXT(2) 
PARAMETRIC_REPRESENTATION_CONTEXT() REPRESENTATION_CONTEXT('2D SPACE',''
  ) );
#1160 = ORIENTED_EDGE('',*,*,#1161,.T.);
#1161 = EDGE_CURVE('',#1139,#1139,#1162,.T.);
#1162 = SURFACE_CURVE('',#1163,(#1168,#1175),.PCURVE_S1.);
#1163 = CIRCLE('',#1164,6.265);
#1164 = AXIS2_PLACEMENT_3D('',#1165,#1166,#1167);
#1165 = CARTESIAN_POINT('',(-2.830866576903,15.125,139.8515625));
#1166 = DIRECTION('',(-2.498325462068E-03,0.156464232197,0.987680465744)
  );
#1167 = DIRECTION('',(0.,0.987683548127,-0.156464720495));
#1168 = PCURVE('',#1114,#1169);
#1169 = DEFINITIONAL_REPRESENTATION('',(#1170),#1174);
#1170 = LINE('',#1171,#1172);
#1171 = CARTESIAN_POINT('',(-0.,-0.));
#1172 = VECTOR('',#1173,1.);
#1173 = DIRECTION('',(-1.,-0.));
#1174 = ( GEOMETRIC_REPRESENTATION_CONTEXT(2) 
PARAMETRIC_REPRESENTATION_CONTEXT() REPRESENTATION_CONTEXT('2D SPACE',''
  ) );
#1175 = PCURVE('',#1176,#1181);
#1176 = PLANE('',#1177);
#1177 = AXIS2_PLACEMENT_3D('',#1178,#1179,#1180);
#1178 = CARTESIAN_POINT('',(-2.830866576903,15.125,139.8515625));
#1179 = DIRECTION('',(-2.498325462068E-03,0.156464232197,0.987680465744)
  );
#1180 = DIRECTION('',(5.421010862428E-20,0.987683548127,-0.156464720495)
  );
#1181 = DEFINITIONAL_REPRESENTATION('',(#1182),#1186);
#1182 = CIRCLE('',#1183,6.265);
#1183 = AXIS2_PLACEMENT_2D('',#1184,#1185);
#1184 = CARTESIAN_POINT('',(0.,0.));
#1185 = DIRECTION('',(1.,0.));
#1186 = ( GEOMETRIC_REPRESENTATION_CONTEXT(2) 
PARAMETRIC_REPRESENTATION_CONTEXT() REPRESENTATION_CONTEXT('2D SPACE',''
  ) );
#1187 = ORIENTED_EDGE('',*,*,#1138,.T.);
#1188 = ADVANCED_FACE('',(#1189),#1126,.T.);
#1189 = FACE_BOUND('',#1190,.T.);
#1190 = EDGE_LOOP('',(#1191));
#1191 = ORIENTED_EDGE('',*,*,#1104,.T.);
#1192 = ADVANCED_FACE('',(#1193),#1176,.F.);
#1193 = FACE_BOUND('',#1194,.T.);
#1194 = EDGE_LOOP('',(#1195));
#1195 = ORIENTED_EDGE('',*,*,#1161,.F.);
#1196 = ( GEOMETRIC_REPRESENTATION_CONTEXT(3) 
GLOBAL_UNCERTAINTY_ASSIGNED_CONTEXT((#1200)) 
GLOBAL_UNIT_ASSIGNED_CONTEXT((#1197,#1198,#1199)) REPRESENTATION_CONTEXT
('Context #1','3D Context with UNIT and UNCERTAINTY') );
#1197 = ( LENGTH_UNIT() NAMED_UNIT(*) SI_UNIT(.MILLI.,.METRE.) );
#1198 = ( NAMED_UNIT(*) PLANE_ANGLE_UNIT() SI_UNIT($,.RADIAN.) );
#1199 = ( NAMED_UNIT(*) SI_UNIT($,.STERADIAN.) SOLID_ANGLE_UNIT() );
#1200 = UNCERTAINTY_MEASURE_WITH_UNIT(LENGTH_MEASURE(1.E-07),#1197,
  'distance_accuracy_value','confusion accuracy');
#1201 = CONTEXT_DEPENDENT_SHAPE_REPRESENTATION(#1202,#1204);
#1202 = ( REPRESENTATION_RELATIONSHIP('','',#1097,#10) 
REPRESENTATION_RELATIONSHIP_WITH_TRANSFORMATION(#1203) 
SHAPE_REPRESENTATION_RELATIONSHIP() );
#1203 = ITEM_DEFINED_TRANSFORMATION('','',#11,#67);
#1204 = PRODUCT_DEFINITION_SHAPE('Placement','Placement of an item',
  #1205);
#1205 = NEXT_ASSEMBLY_USAGE_OCCURRENCE('16','','',#5,#1092,$);
#1206 = PRODUCT_RELATED_PRODUCT_CATEGORY('part',$,(#1094));
#1207 = SHAPE_DEFINITION_REPRESENTATION(#1208,#1214);
#1208 = PRODUCT_DEFINITION_SHAPE('','',#1209);
#1209 = PRODUCT_DEFINITION('design','',#1210,#1213);
#1210 = PRODUCT_DEFINITION_FORMATION('','',#1211);
#1211 = PRODUCT('Open CASCADE STEP translator 7.9 8.15',
  'Open CASCADE STEP translator 7.9 8.15','',(#1212));
#1212 = PRODUCT_CONTEXT('',#2,'mechanical');
#1213 = PRODUCT_DEFINITION_CONTEXT('part definition',#2,'design');
#1214 = ADVANCED_BREP_SHAPE_REPRESENTATION('',(#11,#1215),#1227);
#1215 = MANIFOLD_SOLID_BREP('',#1216);
#1216 = CLOSED_SHELL('',(#1217));
#1217 = ADVANCED_FACE('',(#1218),#1222,.T.);
#1218 = FACE_BOUND('',#1219,.T.);
#1219 = VERTEX_LOOP('',#1220);
#1220 = VERTEX_POINT('',#1221);
#1221 = CARTESIAN_POINT('',(-2.830866576903,15.125,133.5865625));
#1222 = SPHERICAL_SURFACE('',#1223,6.265);
#1223 = AXIS2_PLACEMENT_3D('',#1224,#1225,#1226);
#1224 = CARTESIAN_POINT('',(-2.830866576903,15.125,139.8515625));
#1225 = DIRECTION('',(0.,0.,1.));
#1226 = DIRECTION('',(1.,0.,-0.));
#1227 = ( GEOMETRIC_REPRESENTATION_CONTEXT(3) 
GLOBAL_UNCERTAINTY_ASSIGNED_CONTEXT((#1231)) 
GLOBAL_UNIT_ASSIGNED_CONTEXT((#1228,#1229,#1230)) REPRESENTATION_CONTEXT
('Context #1','3D Context with UNIT and UNCERTAINTY') );
#1228 = ( LENGTH_UNIT() NAMED_UNIT(*) SI_UNIT(.MILLI.,.METRE.) );
#1229 = ( NAMED_UNIT(*) PLANE_ANGLE_UNIT() SI_UNIT($,.RADIAN.) );
#1230 = ( NAMED_UNIT(*) SI_UNIT($,.STERADIAN.) SOLID_ANGLE_UNIT() );
#1231 = UNCERTAINTY_MEASURE_WITH_UNIT(LENGTH_MEASURE(1.E-07),#1228,
  'distance_accuracy_value','confusion accuracy');
#1232 = CONTEXT_DEPENDENT_SHAPE_REPRESENTATION(#1233,#1235);
#1233 = ( REPRESENTATION_RELATIONSHIP('','',#1214,#10) 
REPRESENTATION_RELATIONSHIP_WITH_TRANSFORMATION(#1234) 
SHAPE_REPRESENTATION_RELATIONSHIP() );
#1234 = ITEM_DEFINED_TRANSFORMATION('','',#11,#71);
#1235 = PRODUCT_DEFINITION_SHAPE('Placement','Placement of an item',
  #1236);
#1236 = NEXT_ASSEMBLY_USAGE_OCCURRENCE('17','','',#5,#1209,$);
#1237 = PRODUCT_RELATED_PRODUCT_CATEGORY('part',$,(#1211));
#1238 = SHAPE_DEFINITION_REPRESENTATION(#1239,#1245);
#1239 = PRODUCT_DEFINITION_SHAPE('','',#1240);
#1240 = PRODUCT_DEFINITION('design','',#1241,#1244);
#1241 = PRODUCT_DEFINITION_FORMATION('','',#1242);
#1242 = PRODUCT('Open CASCADE STEP translator 7.9 8.16',
  'Open CASCADE STEP translator 7.9 8.16','',(#1243));
#1243 = PRODUCT_CONTEXT('',#2,'mechanical');
#1244 = PRODUCT_DEFINITION_CONTEXT('part definition',#2,'design');
#1245 = ADVANCED_BREP_SHAPE_REPRESENTATION('',(#11,#1246),#1344);
#1246 = MANIFOLD_SOLID_BREP('',#1247);
#1247 = CLOSED_SHELL('',(#1248,#1336,#1340));
#1248 = ADVANCED_FACE('',(#1249),#1262,.T.);
#1249 = FACE_BOUND('',#1250,.T.);
#1250 = EDGE_LOOP('',(#1251,#1285,#1308,#1335));
#1251 = ORIENTED_EDGE('',*,*,#1252,.F.);
#1252 = EDGE_CURVE('',#1253,#1253,#1255,.T.);
#1253 = VERTEX_POINT('',#1254);
#1254 = CARTESIAN_POINT('',(7.,58.,46.));
#1255 = SURFACE_CURVE('',#1256,(#1261,#1273),.PCURVE_S1.);
#1256 = CIRCLE('',#1257,7.);
#1257 = AXIS2_PLACEMENT_3D('',#1258,#1259,#1260);
#1258 = CARTESIAN_POINT('',(0.,58.,46.));
#1259 = DIRECTION('',(0.,0.,1.));
#1260 = DIRECTION('',(1.,0.,-0.));
#1261 = PCURVE('',#1262,#1267);
#1262 = CONICAL_SURFACE('',#1263,12.,0.20539538919);
#1263 = AXIS2_PLACEMENT_3D('',#1264,#1265,#1266);
#1264 = CARTESIAN_POINT('',(0.,58.,22.));
#1265 = DIRECTION('',(-0.,-0.,-1.));
#1266 = DIRECTION('',(1.,0.,-0.));
#1267 = DEFINITIONAL_REPRESENTATION('',(#1268),#1272);
#1268 = LINE('',#1269,#1270);
#1269 = CARTESIAN_POINT('',(-0.,-24.));
#1270 = VECTOR('',#1271,1.);
#1271 = DIRECTION('',(-1.,-0.));
#1272 = ( GEOMETRIC_REPRESENTATION_CONTEXT(2) 
PARAMETRIC_REPRESENTATION_CONTEXT() REPRESENTATION_CONTEXT('2D SPACE',''
  ) );
#1273 = PCURVE('',#1274,#1279);
#1274 = PLANE('',#1275);
#1275 = AXIS2_PLACEMENT_3D('',#1276,#1277,#1278);
#1276 = CARTESIAN_POINT('',(0.,58.,46.));
#1277 = DIRECTION('',(0.,0.,1.));
#1278 = DIRECTION('',(1.,0.,-0.));
#1279 = DEFINITIONAL_REPRESENTATION('',(#1280),#1284);
#1280 = CIRCLE('',#1281,7.);
#1281 = AXIS2_PLACEMENT_2D('',#1282,#1283);
#1282 = CARTESIAN_POINT('',(0.,0.));
#1283 = DIRECTION('',(1.,0.));
#1284 = ( GEOMETRIC_REPRESENTATION_CONTEXT(2) 
PARAMETRIC_REPRESENTATION_CONTEXT() REPRESENTATION_CONTEXT('2D SPACE',''
  ) );
#1285 = ORIENTED_EDGE('',*,*,#1286,.F.);
#1286 = EDGE_CURVE('',#1287,#1253,#1289,.T.);
#1287 = VERTEX_POINT('',#1288);
#1288 = CARTESIAN_POINT('',(12.,58.,22.));
#1289 = SEAM_CURVE('',#1290,(#1294,#1301),.PCURVE_S1.);
#1290 = LINE('',#1291,#1292);
#1291 = CARTESIAN_POINT('',(12.,58.,22.));
#1292 = VECTOR('',#1293,1.);
#1293 = DIRECTION('',(-0.203954254112,4.995438489415E-17,0.978980419738)
  );
#1294 = PCURVE('',#1262,#1295);
#1295 = DEFINITIONAL_REPRESENTATION('',(#1296),#1300);
#1296 = LINE('',#1297,#1298);
#1297 = CARTESIAN_POINT('',(-6.28318530718,0.));
#1298 = VECTOR('',#1299,1.);
#1299 = DIRECTION('',(-0.,-1.));
#1300 = ( GEOMETRIC_REPRESENTATION_CONTEXT(2) 
PARAMETRIC_REPRESENTATION_CONTEXT() REPRESENTATION_CONTEXT('2D SPACE',''
  ) );
#1301 = PCURVE('',#1262,#1302);
#1302 = DEFINITIONAL_REPRESENTATION('',(#1303),#1307);
#1303 = LINE('',#1304,#1305);
#1304 = CARTESIAN_POINT('',(0.,-0.));
#1305 = VECTOR('',#1306,1.);
#1306 = DIRECTION('',(-0.,-1.));
#1307 = ( GEOMETRIC_REPRESENTATION_CONTEXT(2) 
PARAMETRIC_REPRESENTATION_CONTEXT() REPRESENTATION_CONTEXT('2D SPACE',''
  ) );
#1308 = ORIENTED_EDGE('',*,*,#1309,.T.);
#1309 = EDGE_CURVE('',#1287,#1287,#1310,.T.);
#1310 = SURFACE_CURVE('',#1311,(#1316,#1323),.PCURVE_S1.);
#1311 = CIRCLE('',#1312,12.);
#1312 = AXIS2_PLACEMENT_3D('',#1313,#1314,#1315);
#1313 = CARTESIAN_POINT('',(0.,58.,22.));
#1314 = DIRECTION('',(0.,0.,1.));
#1315 = DIRECTION('',(1.,0.,-0.));
#1316 = PCURVE('',#1262,#1317);
#1317 = DEFINITIONAL_REPRESENTATION('',(#1318),#1322);
#1318 = LINE('',#1319,#1320);
#1319 = CARTESIAN_POINT('',(-0.,-0.));
#1320 = VECTOR('',#1321,1.);
#1321 = DIRECTION('',(-1.,-0.));
#1322 = ( GEOMETRIC_REPRESENTATION_CONTEXT(2) 
PARAMETRIC_REPRESENTATION_CONTEXT() REPRESENTATION_CONTEXT('2D SPACE',''
  ) );
#1323 = PCURVE('',#1324,#1329);
#1324 = PLANE('',#1325);
#1325 = AXIS2_PLACEMENT_3D('',#1326,#1327,#1328);
#1326 = CARTESIAN_POINT('',(0.,58.,22.));
#1327 = DIRECTION('',(0.,0.,1.));
#1328 = DIRECTION('',(1.,0.,-0.));
#1329 = DEFINITIONAL_REPRESENTATION('',(#1330),#1334);
#1330 = CIRCLE('',#1331,12.);
#1331 = AXIS2_PLACEMENT_2D('',#1332,#1333);
#1332 = CARTESIAN_POINT('',(0.,0.));
#1333 = DIRECTION('',(1.,0.));
#1334 = ( GEOMETRIC_REPRESENTATION_CONTEXT(2) 
PARAMETRIC_REPRESENTATION_CONTEXT() REPRESENTATION_CONTEXT('2D SPACE',''
  ) );
#1335 = ORIENTED_EDGE('',*,*,#1286,.T.);
#1336 = ADVANCED_FACE('',(#1337),#1274,.T.);
#1337 = FACE_BOUND('',#1338,.T.);
#1338 = EDGE_LOOP('',(#1339));
#1339 = ORIENTED_EDGE('',*,*,#1252,.T.);
#1340 = ADVANCED_FACE('',(#1341),#1324,.F.);
#1341 = FACE_BOUND('',#1342,.T.);
#1342 = EDGE_LOOP('',(#1343));
#1343 = ORIENTED_EDGE('',*,*,#1309,.F.);
#1344 = ( GEOMETRIC_REPRESENTATION_CONTEXT(3) 
GLOBAL_UNCERTAINTY_ASSIGNED_CONTEXT((#1348)) 
GLOBAL_UNIT_ASSIGNED_CONTEXT((#1345,#1346,#1347)) REPRESENTATION_CONTEXT
('Context #1','3D Context with UNIT and UNCERTAINTY') );
#1345 = ( LENGTH_UNIT() NAMED_UNIT(*) SI_UNIT(.MILLI.,.METRE.) );
#1346 = ( NAMED_UNIT(*) PLANE_ANGLE_UNIT() SI_UNIT($,.RADIAN.) );
#1347 = ( NAMED_UNIT(*) SI_UNIT($,.STERADIAN.) SOLID_ANGLE_UNIT() );
#1348 = UNCERTAINTY_MEASURE_WITH_UNIT(LENGTH_MEASURE(1.E-07),#1345,
  'distance_accuracy_value','confusion accuracy');
#1349 = CONTEXT_DEPENDENT_SHAPE_REPRESENTATION(#1350,#1352);
#1350 = ( REPRESENTATION_RELATIONSHIP('','',#1245,#10) 
REPRESENTATION_RELATIONSHIP_WITH_TRANSFORMATION(#1351) 
SHAPE_REPRESENTATION_RELATIONSHIP() );
#1351 = ITEM_DEFINED_TRANSFORMATION('','',#11,#75);
#1352 = PRODUCT_DEFINITION_SHAPE('Placement','Placement of an item',
  #1353);
#1353 = NEXT_ASSEMBLY_USAGE_OCCURRENCE('18','','',#5,#1240,$);
#1354 = PRODUCT_RELATED_PRODUCT_CATEGORY('part',$,(#1242));
ENDSEC;
END-ISO-10303-21;
