%TF.GenerationSoftware,KiCad,Pcbnew,9.0.9-9.0.9~ubuntu24.04.1*%
%TF.CreationDate,2026-10-10T22:22:03+00:00*%
%TF.ProjectId,eclipse-hub,65636c69-7073-4652-9d68-75622e6b6963,rev?*%
%TF.SameCoordinates,Original*%
%TF.FileFunction,Copper,L1,Top*%
%TF.FilePolarity,Positive*%
%FSLAX46Y46*%
G04 Gerber Fmt 4.6, Leading zero omitted, Abs format (unit mm)*
G04 Created by KiCad (PCBNEW 9.0.9-9.0.9~ubuntu24.04.1) date 2026-10-10 22:22:03*
%MOMM*%
%LPD*%
G01*
G04 APERTURE LIST*
G04 Aperture macros list*
%AMRoundRect*
0 Rectangle with rounded corners*
0 $1 Rounding radius*
0 $2 $3 $4 $5 $6 $7 $8 $9 X,Y pos of 4 corners*
0 Add a 4 corners polygon primitive as box body*
4,1,4,$2,$3,$4,$5,$6,$7,$8,$9,$2,$3,0*
0 Add four circle primitives for the rounded corners*
1,1,$1+$1,$2,$3*
1,1,$1+$1,$4,$5*
1,1,$1+$1,$6,$7*
1,1,$1+$1,$8,$9*
0 Add four rect primitives between the rounded corners*
20,1,$1+$1,$2,$3,$4,$5,0*
20,1,$1+$1,$4,$5,$6,$7,0*
20,1,$1+$1,$6,$7,$8,$9,0*
20,1,$1+$1,$8,$9,$2,$3,0*%
G04 Aperture macros list end*
%TA.AperFunction,SMDPad,CuDef*%
%ADD10RoundRect,0.200000X0.389634X0.371733X0.025781X0.537899X-0.389634X-0.371733X-0.025781X-0.537899X0*%
%TD*%
%TA.AperFunction,SMDPad,CuDef*%
%ADD11RoundRect,0.200000X-0.246903X0.478580X-0.508847X0.176280X0.246903X-0.478580X0.508847X-0.176280X0*%
%TD*%
%TA.AperFunction,SMDPad,CuDef*%
%ADD12RoundRect,0.200000X0.537899X0.025781X0.371733X0.389634X-0.537899X-0.025781X-0.371733X-0.389634X0*%
%TD*%
%TA.AperFunction,SMDPad,CuDef*%
%ADD13RoundRect,0.200000X-0.126807X-0.523374X0.269122X-0.466448X0.126807X0.523374X-0.269122X0.466448X0*%
%TD*%
%TA.AperFunction,SMDPad,CuDef*%
%ADD14RoundRect,0.200000X0.332765X0.423400X-0.051032X0.536093X-0.332765X-0.423400X0.051032X-0.536093X0*%
%TD*%
%TA.AperFunction,SMDPad,CuDef*%
%ADD15RoundRect,0.200000X0.025781X-0.537899X0.389634X-0.371733X-0.025781X0.537899X-0.389634X0.371733X0*%
%TD*%
%TA.AperFunction,SMDPad,CuDef*%
%ADD16RoundRect,0.200000X0.246903X-0.478580X0.508847X-0.176280X-0.246903X0.478580X-0.508847X0.176280X0*%
%TD*%
%TA.AperFunction,SMDPad,CuDef*%
%ADD17RoundRect,0.200000X0.523374X-0.126807X0.466448X0.269122X-0.523374X0.126807X-0.466448X-0.269122X0*%
%TD*%
%TA.AperFunction,SMDPad,CuDef*%
%ADD18RoundRect,0.200000X0.102070X-0.528755X0.438571X-0.312499X-0.102070X0.528755X-0.438571X0.312499X0*%
%TD*%
%TA.AperFunction,SMDPad,CuDef*%
%ADD19RoundRect,0.200000X-0.312499X0.438571X-0.528755X0.102070X0.312499X-0.438571X0.528755X-0.102070X0*%
%TD*%
%TA.AperFunction,SMDPad,CuDef*%
%ADD20RoundRect,0.200000X0.176280X-0.508847X0.478580X-0.246903X-0.176280X0.508847X-0.478580X0.246903X0*%
%TD*%
%TA.AperFunction,SMDPad,CuDef*%
%ADD21RoundRect,0.200000X0.312499X-0.438571X0.528755X-0.102070X-0.312499X0.438571X-0.528755X0.102070X0*%
%TD*%
%TA.AperFunction,SMDPad,CuDef*%
%ADD22RoundRect,0.200000X-0.269122X-0.466448X0.126807X-0.523374X0.269122X0.466448X-0.126807X0.523374X0*%
%TD*%
%TA.AperFunction,SMDPad,CuDef*%
%ADD23RoundRect,0.200000X-0.528755X-0.102070X-0.312499X-0.438571X0.528755X0.102070X0.312499X0.438571X0*%
%TD*%
%TA.AperFunction,SMDPad,CuDef*%
%ADD24RoundRect,0.200000X-0.523374X0.126807X-0.466448X-0.269122X0.523374X-0.126807X0.466448X0.269122X0*%
%TD*%
%TA.AperFunction,SMDPad,CuDef*%
%ADD25RoundRect,0.200000X-0.102070X0.528755X-0.438571X0.312499X0.102070X-0.528755X0.438571X-0.312499X0*%
%TD*%
%TA.AperFunction,SMDPad,CuDef*%
%ADD26RoundRect,0.200000X-0.536093X0.051032X-0.423400X-0.332765X0.536093X-0.051032X0.423400X0.332765X0*%
%TD*%
%TA.AperFunction,SMDPad,CuDef*%
%ADD27RoundRect,0.200000X0.478580X0.246903X0.176280X0.508847X-0.478580X-0.246903X-0.176280X-0.508847X0*%
%TD*%
%TA.AperFunction,SMDPad,CuDef*%
%ADD28C,1.150000*%
%TD*%
%TA.AperFunction,SMDPad,CuDef*%
%ADD29RoundRect,0.200000X-0.176280X0.508847X-0.478580X0.246903X0.176280X-0.508847X0.478580X-0.246903X0*%
%TD*%
%TA.AperFunction,SMDPad,CuDef*%
%ADD30RoundRect,0.200000X0.126807X0.523374X-0.269122X0.466448X-0.126807X-0.523374X0.269122X-0.466448X0*%
%TD*%
%TA.AperFunction,SMDPad,CuDef*%
%ADD31RoundRect,0.200000X0.536093X-0.051032X0.423400X0.332765X-0.536093X0.051032X-0.423400X-0.332765X0*%
%TD*%
%TA.AperFunction,SMDPad,CuDef*%
%ADD32RoundRect,0.200000X0.438571X0.312499X0.102070X0.528755X-0.438571X-0.312499X-0.102070X-0.528755X0*%
%TD*%
%TA.AperFunction,SMDPad,CuDef*%
%ADD33RoundRect,0.200000X-0.389634X-0.371733X-0.025781X-0.537899X0.389634X0.371733X0.025781X0.537899X0*%
%TD*%
%TA.AperFunction,SMDPad,CuDef*%
%ADD34RoundRect,0.200000X0.466448X-0.269122X0.523374X0.126807X-0.466448X0.269122X-0.523374X-0.126807X0*%
%TD*%
%TA.AperFunction,SMDPad,CuDef*%
%ADD35RoundRect,0.200000X-0.478580X-0.246903X-0.176280X-0.508847X0.478580X0.246903X0.176280X0.508847X0*%
%TD*%
%TA.AperFunction,SMDPad,CuDef*%
%ADD36RoundRect,0.200000X0.423400X-0.332765X0.536093X0.051032X-0.423400X0.332765X-0.536093X-0.051032X0*%
%TD*%
%TA.AperFunction,SMDPad,CuDef*%
%ADD37RoundRect,0.200000X-0.335876X-0.053033X-0.053033X-0.335876X0.335876X0.053033X0.053033X0.335876X0*%
%TD*%
%TA.AperFunction,SMDPad,CuDef*%
%ADD38RoundRect,0.200000X-0.051032X-0.536093X0.332765X-0.423400X0.051032X0.536093X-0.332765X0.423400X0*%
%TD*%
%TA.AperFunction,SMDPad,CuDef*%
%ADD39RoundRect,0.200000X-0.466448X0.269122X-0.523374X-0.126807X0.466448X-0.269122X0.523374X0.126807X0*%
%TD*%
%TA.AperFunction,SMDPad,CuDef*%
%ADD40RoundRect,0.200000X0.051032X0.536093X-0.332765X0.423400X-0.051032X-0.536093X0.332765X-0.423400X0*%
%TD*%
%TA.AperFunction,SMDPad,CuDef*%
%ADD41RoundRect,0.200000X0.528755X0.102070X0.312499X0.438571X-0.528755X-0.102070X-0.312499X-0.438571X0*%
%TD*%
%TA.AperFunction,SMDPad,CuDef*%
%ADD42RoundRect,0.200000X-0.423400X0.332765X-0.536093X-0.051032X0.423400X-0.332765X0.536093X0.051032X0*%
%TD*%
%TA.AperFunction,SMDPad,CuDef*%
%ADD43RoundRect,0.200000X-0.508847X-0.176280X-0.246903X-0.478580X0.508847X0.176280X0.246903X0.478580X0*%
%TD*%
%TA.AperFunction,SMDPad,CuDef*%
%ADD44RoundRect,0.200000X-0.537899X-0.025781X-0.371733X-0.389634X0.537899X0.025781X0.371733X0.389634X0*%
%TD*%
%TA.AperFunction,SMDPad,CuDef*%
%ADD45RoundRect,0.200000X-0.371733X0.389634X-0.537899X0.025781X0.371733X-0.389634X0.537899X-0.025781X0*%
%TD*%
%TA.AperFunction,SMDPad,CuDef*%
%ADD46RoundRect,0.200000X0.508847X0.176280X0.246903X0.478580X-0.508847X-0.176280X-0.246903X-0.478580X0*%
%TD*%
%TA.AperFunction,SMDPad,CuDef*%
%ADD47RoundRect,0.200000X-0.332765X-0.423400X0.051032X-0.536093X0.332765X0.423400X-0.051032X0.536093X0*%
%TD*%
%TA.AperFunction,SMDPad,CuDef*%
%ADD48RoundRect,0.200000X-0.438571X-0.312499X-0.102070X-0.528755X0.438571X0.312499X0.102070X0.528755X0*%
%TD*%
%TA.AperFunction,SMDPad,CuDef*%
%ADD49RoundRect,0.200000X0.269122X0.466448X-0.126807X0.523374X-0.269122X-0.466448X0.126807X-0.523374X0*%
%TD*%
%TA.AperFunction,SMDPad,CuDef*%
%ADD50RoundRect,0.200000X0.371733X-0.389634X0.537899X-0.025781X-0.371733X0.389634X-0.537899X0.025781X0*%
%TD*%
%TA.AperFunction,SMDPad,CuDef*%
%ADD51RoundRect,0.200000X-0.025781X0.537899X-0.389634X0.371733X0.025781X-0.537899X0.389634X-0.371733X0*%
%TD*%
%TA.AperFunction,Conductor*%
%ADD52C,0.250000*%
%TD*%
G04 APERTURE END LIST*
D10*
%TO.P,S23,1*%
%TO.N,Net-(S22-Pin_2)*%
X143768774Y-163644479D03*
%TO.P,S23,2*%
%TO.N,Net-(S23-Pin_2)*%
X145305810Y-160278841D03*
%TD*%
D11*
%TO.P,S15,1*%
%TO.N,Net-(S14-Pin_2)*%
X161336243Y-159822910D03*
%TO.P,S15,2*%
%TO.N,Net-(S15-Pin_2)*%
X158539969Y-157399926D03*
%TD*%
D12*
%TO.P,S28,1*%
%TO.N,Net-(S27-Pin_2)*%
X136355520Y-156231225D03*
%TO.P,S28,2*%
%TO.N,Net-(S28-Pin_2)*%
X139721158Y-154694189D03*
%TD*%
D13*
%TO.P,S40,1*%
%TO.N,Net-(S39-Pin_2)*%
X147865277Y-135152678D03*
%TO.P,S40,2*%
%TO.N,Net-(J1-Pin_10)*%
X148391841Y-138815018D03*
%TD*%
D14*
%TO.P,S22,1*%
%TO.N,Net-(S21-Pin_2)*%
X145774011Y-164392394D03*
%TO.P,S22,2*%
%TO.N,Net-(S22-Pin_2)*%
X146816421Y-160842270D03*
%TD*%
D15*
%TO.P,S38,1*%
%TO.N,Net-(S37-Pin_2)*%
X143768774Y-136355520D03*
%TO.P,S38,2*%
%TO.N,Net-(S38-Pin_2)*%
X145305810Y-139721158D03*
%TD*%
D16*
%TO.P,S35,1*%
%TO.N,Net-(S34-Pin_2)*%
X138663756Y-140177089D03*
%TO.P,S35,2*%
%TO.N,Net-(S35-Pin_2)*%
X141460030Y-142600073D03*
%TD*%
D17*
%TO.P,S30,1*%
%TO.N,Net-(S29-Pin_2)*%
X135152678Y-152134722D03*
%TO.P,S30,2*%
%TO.N,Net-(J1-Pin_7)*%
X138815018Y-151608158D03*
%TD*%
D18*
%TO.P,S37,1*%
%TO.N,Net-(S36-Pin_2)*%
X141890387Y-137381197D03*
%TO.P,S37,2*%
%TO.N,Net-(S37-Pin_2)*%
X143890759Y-140493835D03*
%TD*%
D19*
%TO.P,S14,1*%
%TO.N,Net-(S13-Pin_2)*%
X162618802Y-158109612D03*
%TO.P,S14,2*%
%TO.N,Net-(S14-Pin_2)*%
X159506164Y-156109240D03*
%TD*%
D20*
%TO.P,S36,1*%
%TO.N,Net-(S35-Pin_2)*%
X140177089Y-138663756D03*
%TO.P,S36,2*%
%TO.N,Net-(S36-Pin_2)*%
X142600073Y-141460030D03*
%TD*%
D21*
%TO.P,S34,1*%
%TO.N,Net-(S33-Pin_2)*%
X137381197Y-141890387D03*
%TO.P,S34,2*%
%TO.N,Net-(S34-Pin_2)*%
X140493835Y-143890759D03*
%TD*%
D22*
%TO.P,S1,1*%
%TO.N,Net-(J1-Pin_3)*%
X152134722Y-135152678D03*
%TO.P,S1,2*%
%TO.N,Net-(S1-Pin_2)*%
X151608158Y-138815018D03*
%TD*%
D23*
%TO.P,S7,1*%
%TO.N,Net-(S6-Pin_2)*%
X162618802Y-141890387D03*
%TO.P,S7,2*%
%TO.N,Net-(S7-Pin_2)*%
X159506164Y-143890759D03*
%TD*%
D24*
%TO.P,S10,1*%
%TO.N,Net-(S10-Pin_1)*%
X164847321Y-147865277D03*
%TO.P,S10,2*%
%TO.N,Net-(J1-Pin_4)*%
X161184981Y-148391841D03*
%TD*%
D25*
%TO.P,S17,1*%
%TO.N,Net-(S16-Pin_2)*%
X158109612Y-162618802D03*
%TO.P,S17,2*%
%TO.N,Net-(S17-Pin_2)*%
X156109240Y-159506164D03*
%TD*%
D26*
%TO.P,S9,1*%
%TO.N,Net-(S8-Pin_2)*%
X164392394Y-145774011D03*
%TO.P,S9,2*%
%TO.N,Net-(S10-Pin_1)*%
X160842270Y-146816421D03*
%TD*%
D27*
%TO.P,S25,1*%
%TO.N,Net-(S24-Pin_2)*%
X140177089Y-161336243D03*
%TO.P,S25,2*%
%TO.N,Net-(S25-Pin_2)*%
X142600073Y-158539969D03*
%TD*%
D28*
%TO.P,J1,1*%
%TO.N,Net-(J1-Pin_1)*%
X150740000Y-155147000D03*
%TO.P,J1,2*%
%TO.N,Net-(J1-Pin_2)*%
X157600000Y-150000000D03*
%TO.P,J1,3*%
%TO.N,Net-(J1-Pin_3)*%
X150000000Y-142400000D03*
%TO.P,J1,4*%
%TO.N,Net-(J1-Pin_4)*%
X155147000Y-149260000D03*
%TO.P,J1,5*%
%TO.N,Net-(J1-Pin_5)*%
X154028000Y-145026000D03*
%TO.P,J1,6*%
%TO.N,Net-(J1-Pin_6)*%
X154974000Y-145972000D03*
%TO.P,J1,7*%
%TO.N,Net-(J1-Pin_7)*%
X144853000Y-150740000D03*
%TO.P,J1,8*%
%TO.N,Net-(J1-Pin_8)*%
X150000000Y-157600000D03*
%TO.P,J1,9*%
%TO.N,Net-(J1-Pin_9)*%
X142400000Y-150000000D03*
%TO.P,J1,10*%
%TO.N,Net-(J1-Pin_10)*%
X149260000Y-144853000D03*
%TD*%
D29*
%TO.P,S16,1*%
%TO.N,Net-(S15-Pin_2)*%
X159822910Y-161336243D03*
%TO.P,S16,2*%
%TO.N,Net-(S16-Pin_2)*%
X157399926Y-158539969D03*
%TD*%
D30*
%TO.P,S20,1*%
%TO.N,Net-(S19-Pin_2)*%
X152134722Y-164847321D03*
%TO.P,S20,2*%
%TO.N,Net-(J1-Pin_1)*%
X151608158Y-161184981D03*
%TD*%
D31*
%TO.P,S29,1*%
%TO.N,Net-(S28-Pin_2)*%
X135607605Y-154225988D03*
%TO.P,S29,2*%
%TO.N,Net-(S29-Pin_2)*%
X139157729Y-153183578D03*
%TD*%
D32*
%TO.P,S24,1*%
%TO.N,Net-(S23-Pin_2)*%
X141890387Y-162618802D03*
%TO.P,S24,2*%
%TO.N,Net-(S24-Pin_2)*%
X143890759Y-159506164D03*
%TD*%
D33*
%TO.P,S3,1*%
%TO.N,Net-(S2-Pin_2)*%
X156231225Y-136355520D03*
%TO.P,S3,2*%
%TO.N,Net-(S3-Pin_2)*%
X154694189Y-139721158D03*
%TD*%
D34*
%TO.P,S31,1*%
%TO.N,Net-(J1-Pin_9)*%
X135152678Y-147865277D03*
%TO.P,S31,2*%
%TO.N,Net-(S31-Pin_2)*%
X138815018Y-148391841D03*
%TD*%
D35*
%TO.P,S5,1*%
%TO.N,Net-(S4-Pin_2)*%
X159822910Y-138663756D03*
%TO.P,S5,2*%
%TO.N,Net-(S5-Pin_2)*%
X157399926Y-141460030D03*
%TD*%
D36*
%TO.P,S32,1*%
%TO.N,Net-(S31-Pin_2)*%
X135607605Y-145774011D03*
%TO.P,S32,2*%
%TO.N,Net-(S32-Pin_2)*%
X139157729Y-146816421D03*
%TD*%
D37*
%TO.P,TH1,1*%
%TO.N,Net-(J1-Pin_5)*%
X155992730Y-142840543D03*
%TO.P,TH1,2*%
%TO.N,Net-(J1-Pin_6)*%
X157159456Y-144007269D03*
%TD*%
D38*
%TO.P,S39,1*%
%TO.N,Net-(S38-Pin_2)*%
X145774011Y-135607605D03*
%TO.P,S39,2*%
%TO.N,Net-(S39-Pin_2)*%
X146816421Y-139157729D03*
%TD*%
D39*
%TO.P,S11,1*%
%TO.N,Net-(J1-Pin_2)*%
X164847321Y-152134722D03*
%TO.P,S11,2*%
%TO.N,Net-(S11-Pin_2)*%
X161184981Y-151608158D03*
%TD*%
D40*
%TO.P,S19,1*%
%TO.N,Net-(S18-Pin_2)*%
X154225988Y-164392394D03*
%TO.P,S19,2*%
%TO.N,Net-(S19-Pin_2)*%
X153183578Y-160842270D03*
%TD*%
D41*
%TO.P,S27,1*%
%TO.N,Net-(S26-Pin_2)*%
X137381197Y-158109612D03*
%TO.P,S27,2*%
%TO.N,Net-(S27-Pin_2)*%
X140493835Y-156109240D03*
%TD*%
D42*
%TO.P,S12,1*%
%TO.N,Net-(S11-Pin_2)*%
X164392394Y-154225988D03*
%TO.P,S12,2*%
%TO.N,Net-(S12-Pin_2)*%
X160842270Y-153183578D03*
%TD*%
D43*
%TO.P,S6,1*%
%TO.N,Net-(S5-Pin_2)*%
X161336243Y-140177089D03*
%TO.P,S6,2*%
%TO.N,Net-(S6-Pin_2)*%
X158539969Y-142600073D03*
%TD*%
D44*
%TO.P,S8,1*%
%TO.N,Net-(S7-Pin_2)*%
X163644479Y-143768774D03*
%TO.P,S8,2*%
%TO.N,Net-(S8-Pin_2)*%
X160278841Y-145305810D03*
%TD*%
D45*
%TO.P,S13,1*%
%TO.N,Net-(S12-Pin_2)*%
X163644479Y-156231225D03*
%TO.P,S13,2*%
%TO.N,Net-(S13-Pin_2)*%
X160278841Y-154694189D03*
%TD*%
D46*
%TO.P,S26,1*%
%TO.N,Net-(S25-Pin_2)*%
X138663756Y-159822910D03*
%TO.P,S26,2*%
%TO.N,Net-(S26-Pin_2)*%
X141460030Y-157399926D03*
%TD*%
D47*
%TO.P,S2,1*%
%TO.N,Net-(S1-Pin_2)*%
X154225988Y-135607605D03*
%TO.P,S2,2*%
%TO.N,Net-(S2-Pin_2)*%
X153183578Y-139157729D03*
%TD*%
D48*
%TO.P,S4,1*%
%TO.N,Net-(S3-Pin_2)*%
X158109612Y-137381197D03*
%TO.P,S4,2*%
%TO.N,Net-(S4-Pin_2)*%
X156109240Y-140493835D03*
%TD*%
D49*
%TO.P,S21,1*%
%TO.N,Net-(J1-Pin_8)*%
X147865277Y-164847321D03*
%TO.P,S21,2*%
%TO.N,Net-(S21-Pin_2)*%
X148391841Y-161184981D03*
%TD*%
D50*
%TO.P,S33,1*%
%TO.N,Net-(S32-Pin_2)*%
X136355520Y-143768774D03*
%TO.P,S33,2*%
%TO.N,Net-(S33-Pin_2)*%
X139721158Y-145305810D03*
%TD*%
D51*
%TO.P,S18,1*%
%TO.N,Net-(S17-Pin_2)*%
X156231225Y-163644479D03*
%TO.P,S18,2*%
%TO.N,Net-(S18-Pin_2)*%
X154694189Y-160278841D03*
%TD*%
D52*
%TO.N,Net-(J1-Pin_1)*%
X151608158Y-161184981D02*
X150740000Y-155147000D01*
%TO.N,Net-(J1-Pin_2)*%
X164847321Y-152134722D02*
X165000000Y-150000000D01*
X165000000Y-150000000D02*
X157600000Y-150000000D01*
%TO.N,Net-(J1-Pin_3)*%
X150000000Y-135000000D02*
X150000000Y-142400000D01*
X152134722Y-135152678D02*
X150000000Y-135000000D01*
%TO.N,Net-(J1-Pin_4)*%
X161184981Y-148391841D02*
X155147000Y-149260000D01*
%TO.N,Net-(J1-Pin_5)*%
X155992730Y-142840543D02*
X154028000Y-145026000D01*
%TO.N,Net-(J1-Pin_6)*%
X157159456Y-144007269D02*
X154974000Y-145972000D01*
%TO.N,Net-(J1-Pin_7)*%
X138815018Y-151608158D02*
X144853000Y-150740000D01*
%TO.N,Net-(J1-Pin_8)*%
X150000000Y-165000000D02*
X150000000Y-157600000D01*
X147865277Y-164847321D02*
X150000000Y-165000000D01*
%TO.N,Net-(J1-Pin_9)*%
X135152678Y-147865277D02*
X135000000Y-150000000D01*
X135000000Y-150000000D02*
X142400000Y-150000000D01*
%TO.N,Net-(J1-Pin_10)*%
X148391841Y-138815018D02*
X149260000Y-144853000D01*
%TO.N,Net-(S1-Pin_2)*%
X151608158Y-138815018D02*
X154225988Y-135607605D01*
%TO.N,Net-(S2-Pin_2)*%
X153183578Y-139157729D02*
X156231225Y-136355520D01*
%TO.N,Net-(S3-Pin_2)*%
X154694189Y-139721158D02*
X158109612Y-137381197D01*
%TO.N,Net-(S4-Pin_2)*%
X156109240Y-140493835D02*
X159822910Y-138663756D01*
%TO.N,Net-(S5-Pin_2)*%
X157399926Y-141460030D02*
X161336243Y-140177089D01*
%TO.N,Net-(S6-Pin_2)*%
X158539969Y-142600073D02*
X162618802Y-141890387D01*
%TO.N,Net-(S7-Pin_2)*%
X159506164Y-143890759D02*
X163644479Y-143768774D01*
%TO.N,Net-(S8-Pin_2)*%
X160278841Y-145305810D02*
X164392394Y-145774011D01*
%TO.N,Net-(S10-Pin_1)*%
X160842270Y-146816421D02*
X164847321Y-147865277D01*
%TO.N,Net-(S11-Pin_2)*%
X161184981Y-151608158D02*
X164392394Y-154225988D01*
%TO.N,Net-(S12-Pin_2)*%
X160842270Y-153183578D02*
X163644479Y-156231225D01*
%TO.N,Net-(S13-Pin_2)*%
X160278841Y-154694189D02*
X162618802Y-158109612D01*
%TO.N,Net-(S14-Pin_2)*%
X159506164Y-156109240D02*
X161336243Y-159822910D01*
%TO.N,Net-(S15-Pin_2)*%
X158539969Y-157399926D02*
X159822910Y-161336243D01*
%TO.N,Net-(S16-Pin_2)*%
X157399926Y-158539969D02*
X158109612Y-162618802D01*
%TO.N,Net-(S17-Pin_2)*%
X156109240Y-159506164D02*
X156231225Y-163644479D01*
%TO.N,Net-(S18-Pin_2)*%
X154694189Y-160278841D02*
X154225988Y-164392394D01*
%TO.N,Net-(S19-Pin_2)*%
X153183578Y-160842270D02*
X152134722Y-164847321D01*
%TO.N,Net-(S21-Pin_2)*%
X148391841Y-161184981D02*
X145774011Y-164392394D01*
%TO.N,Net-(S22-Pin_2)*%
X146816421Y-160842270D02*
X143768774Y-163644479D01*
%TO.N,Net-(S23-Pin_2)*%
X145305810Y-160278841D02*
X141890387Y-162618802D01*
%TO.N,Net-(S24-Pin_2)*%
X143890759Y-159506164D02*
X140177089Y-161336243D01*
%TO.N,Net-(S25-Pin_2)*%
X142600073Y-158539969D02*
X138663756Y-159822910D01*
%TO.N,Net-(S26-Pin_2)*%
X141460030Y-157399926D02*
X137381197Y-158109612D01*
%TO.N,Net-(S27-Pin_2)*%
X140493835Y-156109240D02*
X136355520Y-156231225D01*
%TO.N,Net-(S28-Pin_2)*%
X139721158Y-154694189D02*
X135607605Y-154225988D01*
%TO.N,Net-(S29-Pin_2)*%
X139157729Y-153183578D02*
X135152678Y-152134722D01*
%TO.N,Net-(S31-Pin_2)*%
X138815018Y-148391841D02*
X135607605Y-145774011D01*
%TO.N,Net-(S32-Pin_2)*%
X139157729Y-146816421D02*
X136355520Y-143768774D01*
%TO.N,Net-(S33-Pin_2)*%
X139721158Y-145305810D02*
X137381197Y-141890387D01*
%TO.N,Net-(S34-Pin_2)*%
X140493835Y-143890759D02*
X138663756Y-140177089D01*
%TO.N,Net-(S35-Pin_2)*%
X141460030Y-142600073D02*
X140177089Y-138663756D01*
%TO.N,Net-(S36-Pin_2)*%
X142600073Y-141460030D02*
X141890387Y-137381197D01*
%TO.N,Net-(S37-Pin_2)*%
X143890759Y-140493835D02*
X143768774Y-136355520D01*
%TO.N,Net-(S38-Pin_2)*%
X145305810Y-139721158D02*
X145774011Y-135607605D01*
%TO.N,Net-(S39-Pin_2)*%
X146816421Y-139157729D02*
X147865277Y-135152678D01*
%TD*%
M02*
