%TF.GenerationSoftware,KiCad,Pcbnew,9.0.9-9.0.9~ubuntu24.04.1*%
%TF.CreationDate,2026-10-10T22:22:03+00:00*%
%TF.ProjectId,eclipse-hub,65636c69-7073-4652-9d68-75622e6b6963,rev?*%
%TF.SameCoordinates,Original*%
%TF.FileFunction,Soldermask,Top*%
%TF.FilePolarity,Negative*%
%FSLAX46Y46*%
G04 Gerber Fmt 4.6, Leading zero omitted, Abs format (unit mm)*
G04 Created by KiCad (PCBNEW 9.0.9-9.0.9~ubuntu24.04.1) date 2026-10-10 22:22:03*
%MOMM*%
%LPD*%
G01*
G04 APERTURE LIST*
G04 Aperture macros list*
%AMRoundRect*
0 Rectangle with rounded corners*
0 $1 Rounding radius*
0 $2 $3 $4 $5 $6 $7 $8 $9 X,Y pos of 4 corners*
0 Add a 4 corners polygon primitive as box body*
4,1,4,$2,$3,$4,$5,$6,$7,$8,$9,$2,$3,0*
0 Add four circle primitives for the rounded corners*
1,1,$1+$1,$2,$3*
1,1,$1+$1,$4,$5*
1,1,$1+$1,$6,$7*
1,1,$1+$1,$8,$9*
0 Add four rect primitives between the rounded corners*
20,1,$1+$1,$2,$3,$4,$5,0*
20,1,$1+$1,$4,$5,$6,$7,0*
20,1,$1+$1,$6,$7,$8,$9,0*
20,1,$1+$1,$8,$9,$2,$3,0*%
G04 Aperture macros list end*
%ADD10RoundRect,0.200000X0.389634X0.371733X0.025781X0.537899X-0.389634X-0.371733X-0.025781X-0.537899X0*%
%ADD11RoundRect,0.200000X-0.246903X0.478580X-0.508847X0.176280X0.246903X-0.478580X0.508847X-0.176280X0*%
%ADD12RoundRect,0.200000X0.537899X0.025781X0.371733X0.389634X-0.537899X-0.025781X-0.371733X-0.389634X0*%
%ADD13RoundRect,0.200000X-0.126807X-0.523374X0.269122X-0.466448X0.126807X0.523374X-0.269122X0.466448X0*%
%ADD14RoundRect,0.200000X0.332765X0.423400X-0.051032X0.536093X-0.332765X-0.423400X0.051032X-0.536093X0*%
%ADD15RoundRect,0.200000X0.025781X-0.537899X0.389634X-0.371733X-0.025781X0.537899X-0.389634X0.371733X0*%
%ADD16RoundRect,0.200000X0.246903X-0.478580X0.508847X-0.176280X-0.246903X0.478580X-0.508847X0.176280X0*%
%ADD17RoundRect,0.200000X0.523374X-0.126807X0.466448X0.269122X-0.523374X0.126807X-0.466448X-0.269122X0*%
%ADD18RoundRect,0.200000X0.102070X-0.528755X0.438571X-0.312499X-0.102070X0.528755X-0.438571X0.312499X0*%
%ADD19RoundRect,0.200000X-0.312499X0.438571X-0.528755X0.102070X0.312499X-0.438571X0.528755X-0.102070X0*%
%ADD20RoundRect,0.200000X0.176280X-0.508847X0.478580X-0.246903X-0.176280X0.508847X-0.478580X0.246903X0*%
%ADD21RoundRect,0.200000X0.312499X-0.438571X0.528755X-0.102070X-0.312499X0.438571X-0.528755X0.102070X0*%
%ADD22RoundRect,0.200000X-0.269122X-0.466448X0.126807X-0.523374X0.269122X0.466448X-0.126807X0.523374X0*%
%ADD23RoundRect,0.200000X-0.528755X-0.102070X-0.312499X-0.438571X0.528755X0.102070X0.312499X0.438571X0*%
%ADD24RoundRect,0.200000X-0.523374X0.126807X-0.466448X-0.269122X0.523374X-0.126807X0.466448X0.269122X0*%
%ADD25RoundRect,0.200000X-0.102070X0.528755X-0.438571X0.312499X0.102070X-0.528755X0.438571X-0.312499X0*%
%ADD26RoundRect,0.200000X-0.536093X0.051032X-0.423400X-0.332765X0.536093X-0.051032X0.423400X0.332765X0*%
%ADD27RoundRect,0.200000X0.478580X0.246903X0.176280X0.508847X-0.478580X-0.246903X-0.176280X-0.508847X0*%
%ADD28C,1.150000*%
%ADD29RoundRect,0.200000X-0.176280X0.508847X-0.478580X0.246903X0.176280X-0.508847X0.478580X-0.246903X0*%
%ADD30RoundRect,0.200000X0.126807X0.523374X-0.269122X0.466448X-0.126807X-0.523374X0.269122X-0.466448X0*%
%ADD31RoundRect,0.200000X0.536093X-0.051032X0.423400X0.332765X-0.536093X0.051032X-0.423400X-0.332765X0*%
%ADD32RoundRect,0.200000X0.438571X0.312499X0.102070X0.528755X-0.438571X-0.312499X-0.102070X-0.528755X0*%
%ADD33RoundRect,0.200000X-0.389634X-0.371733X-0.025781X-0.537899X0.389634X0.371733X0.025781X0.537899X0*%
%ADD34RoundRect,0.200000X0.466448X-0.269122X0.523374X0.126807X-0.466448X0.269122X-0.523374X-0.126807X0*%
%ADD35RoundRect,0.200000X-0.478580X-0.246903X-0.176280X-0.508847X0.478580X0.246903X0.176280X0.508847X0*%
%ADD36RoundRect,0.200000X0.423400X-0.332765X0.536093X0.051032X-0.423400X0.332765X-0.536093X-0.051032X0*%
%ADD37RoundRect,0.200000X-0.335876X-0.053033X-0.053033X-0.335876X0.335876X0.053033X0.053033X0.335876X0*%
%ADD38RoundRect,0.200000X-0.051032X-0.536093X0.332765X-0.423400X0.051032X0.536093X-0.332765X0.423400X0*%
%ADD39RoundRect,0.200000X-0.466448X0.269122X-0.523374X-0.126807X0.466448X-0.269122X0.523374X0.126807X0*%
%ADD40RoundRect,0.200000X0.051032X0.536093X-0.332765X0.423400X-0.051032X-0.536093X0.332765X-0.423400X0*%
%ADD41RoundRect,0.200000X0.528755X0.102070X0.312499X0.438571X-0.528755X-0.102070X-0.312499X-0.438571X0*%
%ADD42RoundRect,0.200000X-0.423400X0.332765X-0.536093X-0.051032X0.423400X-0.332765X0.536093X0.051032X0*%
%ADD43RoundRect,0.200000X-0.508847X-0.176280X-0.246903X-0.478580X0.508847X0.176280X0.246903X0.478580X0*%
%ADD44RoundRect,0.200000X-0.537899X-0.025781X-0.371733X-0.389634X0.537899X0.025781X0.371733X0.389634X0*%
%ADD45RoundRect,0.200000X-0.371733X0.389634X-0.537899X0.025781X0.371733X-0.389634X0.537899X-0.025781X0*%
%ADD46RoundRect,0.200000X0.508847X0.176280X0.246903X0.478580X-0.508847X-0.176280X-0.246903X-0.478580X0*%
%ADD47RoundRect,0.200000X-0.332765X-0.423400X0.051032X-0.536093X0.332765X0.423400X-0.051032X0.536093X0*%
%ADD48RoundRect,0.200000X-0.438571X-0.312499X-0.102070X-0.528755X0.438571X0.312499X0.102070X0.528755X0*%
%ADD49RoundRect,0.200000X0.269122X0.466448X-0.126807X0.523374X-0.269122X-0.466448X0.126807X-0.523374X0*%
%ADD50RoundRect,0.200000X0.371733X-0.389634X0.537899X-0.025781X-0.371733X0.389634X-0.537899X0.025781X0*%
%ADD51RoundRect,0.200000X-0.025781X0.537899X-0.389634X0.371733X0.025781X-0.537899X0.389634X-0.371733X0*%
G04 APERTURE END LIST*
D10*
%TO.C,S23*%
X143768774Y-163644479D03*
X145305810Y-160278841D03*
%TD*%
D11*
%TO.C,S15*%
X161336243Y-159822910D03*
X158539969Y-157399926D03*
%TD*%
D12*
%TO.C,S28*%
X136355520Y-156231225D03*
X139721158Y-154694189D03*
%TD*%
D13*
%TO.C,S40*%
X147865277Y-135152678D03*
X148391841Y-138815018D03*
%TD*%
D14*
%TO.C,S22*%
X145774011Y-164392394D03*
X146816421Y-160842270D03*
%TD*%
D15*
%TO.C,S38*%
X143768774Y-136355520D03*
X145305810Y-139721158D03*
%TD*%
D16*
%TO.C,S35*%
X138663756Y-140177089D03*
X141460030Y-142600073D03*
%TD*%
D17*
%TO.C,S30*%
X135152678Y-152134722D03*
X138815018Y-151608158D03*
%TD*%
D18*
%TO.C,S37*%
X141890387Y-137381197D03*
X143890759Y-140493835D03*
%TD*%
D19*
%TO.C,S14*%
X162618802Y-158109612D03*
X159506164Y-156109240D03*
%TD*%
D20*
%TO.C,S36*%
X140177089Y-138663756D03*
X142600073Y-141460030D03*
%TD*%
D21*
%TO.C,S34*%
X137381197Y-141890387D03*
X140493835Y-143890759D03*
%TD*%
D22*
%TO.C,S1*%
X152134722Y-135152678D03*
X151608158Y-138815018D03*
%TD*%
D23*
%TO.C,S7*%
X162618802Y-141890387D03*
X159506164Y-143890759D03*
%TD*%
D24*
%TO.C,S10*%
X164847321Y-147865277D03*
X161184981Y-148391841D03*
%TD*%
D25*
%TO.C,S17*%
X158109612Y-162618802D03*
X156109240Y-159506164D03*
%TD*%
D26*
%TO.C,S9*%
X164392394Y-145774011D03*
X160842270Y-146816421D03*
%TD*%
D27*
%TO.C,S25*%
X140177089Y-161336243D03*
X142600073Y-158539969D03*
%TD*%
D28*
%TO.C,J1*%
X150740000Y-155147000D03*
X157600000Y-150000000D03*
X150000000Y-142400000D03*
X155147000Y-149260000D03*
X154028000Y-145026000D03*
X154974000Y-145972000D03*
X144853000Y-150740000D03*
X150000000Y-157600000D03*
X142400000Y-150000000D03*
X149260000Y-144853000D03*
%TD*%
D29*
%TO.C,S16*%
X159822910Y-161336243D03*
X157399926Y-158539969D03*
%TD*%
D30*
%TO.C,S20*%
X152134722Y-164847321D03*
X151608158Y-161184981D03*
%TD*%
D31*
%TO.C,S29*%
X135607605Y-154225988D03*
X139157729Y-153183578D03*
%TD*%
D32*
%TO.C,S24*%
X141890387Y-162618802D03*
X143890759Y-159506164D03*
%TD*%
D33*
%TO.C,S3*%
X156231225Y-136355520D03*
X154694189Y-139721158D03*
%TD*%
D34*
%TO.C,S31*%
X135152678Y-147865277D03*
X138815018Y-148391841D03*
%TD*%
D35*
%TO.C,S5*%
X159822910Y-138663756D03*
X157399926Y-141460030D03*
%TD*%
D36*
%TO.C,S32*%
X135607605Y-145774011D03*
X139157729Y-146816421D03*
%TD*%
D37*
%TO.C,TH1*%
X155992730Y-142840543D03*
X157159456Y-144007269D03*
%TD*%
D38*
%TO.C,S39*%
X145774011Y-135607605D03*
X146816421Y-139157729D03*
%TD*%
D39*
%TO.C,S11*%
X164847321Y-152134722D03*
X161184981Y-151608158D03*
%TD*%
D40*
%TO.C,S19*%
X154225988Y-164392394D03*
X153183578Y-160842270D03*
%TD*%
D41*
%TO.C,S27*%
X137381197Y-158109612D03*
X140493835Y-156109240D03*
%TD*%
D42*
%TO.C,S12*%
X164392394Y-154225988D03*
X160842270Y-153183578D03*
%TD*%
D43*
%TO.C,S6*%
X161336243Y-140177089D03*
X158539969Y-142600073D03*
%TD*%
D44*
%TO.C,S8*%
X163644479Y-143768774D03*
X160278841Y-145305810D03*
%TD*%
D45*
%TO.C,S13*%
X163644479Y-156231225D03*
X160278841Y-154694189D03*
%TD*%
D46*
%TO.C,S26*%
X138663756Y-159822910D03*
X141460030Y-157399926D03*
%TD*%
D47*
%TO.C,S2*%
X154225988Y-135607605D03*
X153183578Y-139157729D03*
%TD*%
D48*
%TO.C,S4*%
X158109612Y-137381197D03*
X156109240Y-140493835D03*
%TD*%
D49*
%TO.C,S21*%
X147865277Y-164847321D03*
X148391841Y-161184981D03*
%TD*%
D50*
%TO.C,S33*%
X136355520Y-143768774D03*
X139721158Y-145305810D03*
%TD*%
D51*
%TO.C,S18*%
X156231225Y-163644479D03*
X154694189Y-160278841D03*
%TD*%
M02*
