%TF.GenerationSoftware,KiCad,Pcbnew,9.0.9-9.0.9~ubuntu24.04.1*%
%TF.CreationDate,2026-10-10T04:14:13+00:00*%
%TF.ProjectId,eclipse-halo,65636c69-7073-4652-9d68-616c6f2e6b69,rev?*%
%TF.SameCoordinates,Original*%
%TF.FileFunction,Legend,Top*%
%TF.FilePolarity,Positive*%
%FSLAX46Y46*%
G04 Gerber Fmt 4.6, Leading zero omitted, Abs format (unit mm)*
G04 Created by KiCad (PCBNEW 9.0.9-9.0.9~ubuntu24.04.1) date 2026-10-10 04:14:13*
%MOMM*%
%LPD*%
G01*
G04 APERTURE LIST*
G04 Aperture macros list*
%AMRoundRect*
0 Rectangle with rounded corners*
0 $1 Rounding radius*
0 $2 $3 $4 $5 $6 $7 $8 $9 X,Y pos of 4 corners*
0 Add a 4 corners polygon primitive as box body*
4,1,4,$2,$3,$4,$5,$6,$7,$8,$9,$2,$3,0*
0 Add four circle primitives for the rounded corners*
1,1,$1+$1,$2,$3*
1,1,$1+$1,$4,$5*
1,1,$1+$1,$6,$7*
1,1,$1+$1,$8,$9*
0 Add four rect primitives between the rounded corners*
20,1,$1+$1,$2,$3,$4,$5,0*
20,1,$1+$1,$4,$5,$6,$7,0*
20,1,$1+$1,$6,$7,$8,$9,0*
20,1,$1+$1,$8,$9,$2,$3,0*%
%AMRotRect*
0 Rectangle, with rotation*
0 The origin of the aperture is its center*
0 $1 length*
0 $2 width*
0 $3 Rotation angle, in degrees counterclockwise*
0 Add horizontal line*
21,1,$1,$2,0,0,$3*%
G04 Aperture macros list end*
%ADD10C,0.150000*%
%ADD11C,0.165000*%
%ADD12C,0.280000*%
%ADD13C,0.120000*%
%ADD14RotRect,1.600000X2.400000X49.500000*%
%ADD15RotRect,0.600000X2.400000X49.500000*%
%ADD16RotRect,0.600000X0.500000X49.500000*%
%ADD17RotRect,1.600000X2.400000X166.500000*%
%ADD18RotRect,0.600000X2.400000X166.500000*%
%ADD19RotRect,0.600000X0.500000X166.500000*%
%ADD20RotRect,1.600000X2.400000X22.500000*%
%ADD21RotRect,0.600000X2.400000X22.500000*%
%ADD22RotRect,0.600000X0.500000X22.500000*%
%ADD23RotRect,1.600000X2.400000X139.500000*%
%ADD24RotRect,0.600000X2.400000X139.500000*%
%ADD25RotRect,0.600000X0.500000X139.500000*%
%ADD26RotRect,1.600000X2.400000X40.500000*%
%ADD27RotRect,0.600000X2.400000X40.500000*%
%ADD28RotRect,0.600000X0.500000X40.500000*%
%ADD29C,2.700000*%
%ADD30RotRect,1.600000X2.400000X148.500000*%
%ADD31RotRect,0.600000X2.400000X148.500000*%
%ADD32RotRect,0.600000X0.500000X148.500000*%
%ADD33RotRect,1.600000X2.400000X13.500000*%
%ADD34RotRect,0.600000X2.400000X13.500000*%
%ADD35RotRect,0.600000X0.500000X13.500000*%
%ADD36RotRect,1.600000X2.400000X85.500000*%
%ADD37RotRect,0.600000X2.400000X85.500000*%
%ADD38RotRect,0.600000X0.500000X85.500000*%
%ADD39RotRect,1.600000X2.400000X121.500000*%
%ADD40RotRect,0.600000X2.400000X121.500000*%
%ADD41RotRect,0.600000X0.500000X121.500000*%
%ADD42RotRect,1.600000X2.400000X175.500000*%
%ADD43RotRect,0.600000X2.400000X175.500000*%
%ADD44RotRect,0.600000X0.500000X175.500000*%
%ADD45RotRect,1.600000X2.400000X58.500000*%
%ADD46RotRect,0.600000X2.400000X58.500000*%
%ADD47RotRect,0.600000X0.500000X58.500000*%
%ADD48RotRect,1.600000X2.400000X76.500000*%
%ADD49RotRect,0.600000X2.400000X76.500000*%
%ADD50RotRect,0.600000X0.500000X76.500000*%
%ADD51RotRect,1.600000X2.400000X112.500000*%
%ADD52RotRect,0.600000X2.400000X112.500000*%
%ADD53RotRect,0.600000X0.500000X112.500000*%
%ADD54RotRect,1.600000X2.400000X94.500000*%
%ADD55RotRect,0.600000X2.400000X94.500000*%
%ADD56RotRect,0.600000X0.500000X94.500000*%
%ADD57RotRect,1.600000X2.400000X130.500000*%
%ADD58RotRect,0.600000X2.400000X130.500000*%
%ADD59RotRect,0.600000X0.500000X130.500000*%
%ADD60RoundRect,0.250000X0.250000X1.500000X-0.250000X1.500000X-0.250000X-1.500000X0.250000X-1.500000X0*%
%ADD61RoundRect,0.250001X0.499999X1.449999X-0.499999X1.449999X-0.499999X-1.449999X0.499999X-1.449999X0*%
%ADD62RotRect,1.600000X2.400000X31.500000*%
%ADD63RotRect,0.600000X2.400000X31.500000*%
%ADD64RotRect,0.600000X0.500000X31.500000*%
%ADD65RotRect,1.600000X2.400000X67.500000*%
%ADD66RotRect,0.600000X2.400000X67.500000*%
%ADD67RotRect,0.600000X0.500000X67.500000*%
%ADD68RotRect,1.600000X2.400000X157.500000*%
%ADD69RotRect,0.600000X2.400000X157.500000*%
%ADD70RotRect,0.600000X0.500000X157.500000*%
%ADD71RotRect,1.600000X2.400000X4.500000*%
%ADD72RotRect,0.600000X2.400000X4.500000*%
%ADD73RotRect,0.600000X0.500000X4.500000*%
%ADD74RoundRect,0.200000X0.200000X0.275000X-0.200000X0.275000X-0.200000X-0.275000X0.200000X-0.275000X0*%
%ADD75RotRect,1.600000X2.400000X103.500000*%
%ADD76RotRect,0.600000X2.400000X103.500000*%
%ADD77RotRect,0.600000X0.500000X103.500000*%
G04 APERTURE END LIST*
D10*
X189823980Y-74213318D02*
X189530176Y-75198391D01*
X189530176Y-75198391D02*
X190052276Y-74675040D01*
X190052276Y-74675040D02*
X189860091Y-75388867D01*
X189860091Y-75388867D02*
X190566287Y-74641889D01*
X190849834Y-75960296D02*
X190354962Y-75674581D01*
X190602398Y-75817439D02*
X191102398Y-74951413D01*
X191102398Y-74951413D02*
X190948491Y-75027512D01*
X190948491Y-75027512D02*
X190818393Y-75062372D01*
X190818393Y-75062372D02*
X190712105Y-75055992D01*
X192363387Y-75624460D02*
X190978222Y-76309349D01*
X192670743Y-76901627D02*
X192605694Y-76919056D01*
X192605694Y-76919056D02*
X192458167Y-76888867D01*
X192458167Y-76888867D02*
X192375688Y-76841248D01*
X192375688Y-76841248D02*
X192275780Y-76728580D01*
X192275780Y-76728580D02*
X192240920Y-76598483D01*
X192240920Y-76598483D02*
X192247300Y-76492194D01*
X192247300Y-76492194D02*
X192301299Y-76303428D01*
X192301299Y-76303428D02*
X192372727Y-76179710D01*
X192372727Y-76179710D02*
X192509205Y-76038562D01*
X192509205Y-76038562D02*
X192598063Y-75979893D01*
X192598063Y-75979893D02*
X192728161Y-75945033D01*
X192728161Y-75945033D02*
X192875688Y-75975223D01*
X192875688Y-75975223D02*
X192958167Y-76022842D01*
X192958167Y-76022842D02*
X193058075Y-76135510D01*
X193058075Y-76135510D02*
X193075505Y-76200558D01*
X193447910Y-77460296D02*
X192953038Y-77174581D01*
X193200474Y-77317439D02*
X193700474Y-76451413D01*
X193700474Y-76451413D02*
X193546567Y-76527512D01*
X193546567Y-76527512D02*
X193416469Y-76562372D01*
X193416469Y-76562372D02*
X193310181Y-76555992D01*
X194812226Y-77478184D02*
X195329198Y-78106572D01*
X195329198Y-78106572D02*
X194526512Y-77973055D01*
X105187772Y-77478184D02*
X104670800Y-78106572D01*
X104670800Y-78106572D02*
X105473486Y-77973055D01*
X106010849Y-76618080D02*
X106717045Y-77365058D01*
X106717045Y-77365058D02*
X106524859Y-76651230D01*
X106524859Y-76651230D02*
X107046960Y-77174581D01*
X107046960Y-77174581D02*
X106753156Y-76189508D01*
X107089450Y-76105320D02*
X107106880Y-76040272D01*
X107106880Y-76040272D02*
X107165549Y-75951413D01*
X107165549Y-75951413D02*
X107371746Y-75832366D01*
X107371746Y-75832366D02*
X107478034Y-75825986D01*
X107478034Y-75825986D02*
X107543082Y-75843416D01*
X107543082Y-75843416D02*
X107631941Y-75902085D01*
X107631941Y-75902085D02*
X107679560Y-75984563D01*
X107679560Y-75984563D02*
X107709749Y-76132091D01*
X107709749Y-76132091D02*
X107500592Y-76912677D01*
X107500592Y-76912677D02*
X108036703Y-76603153D01*
X108502637Y-75124460D02*
X108403186Y-76666492D01*
X109762374Y-75496865D02*
X109744944Y-75561914D01*
X109744944Y-75561914D02*
X109645036Y-75674582D01*
X109645036Y-75674582D02*
X109562557Y-75722201D01*
X109562557Y-75722201D02*
X109415030Y-75752390D01*
X109415030Y-75752390D02*
X109284932Y-75717530D01*
X109284932Y-75717530D02*
X109196074Y-75658861D01*
X109196074Y-75658861D02*
X109059596Y-75517714D01*
X109059596Y-75517714D02*
X108988168Y-75393996D01*
X108988168Y-75393996D02*
X108934169Y-75205229D01*
X108934169Y-75205229D02*
X108927789Y-75098941D01*
X108927789Y-75098941D02*
X108962649Y-74968843D01*
X108962649Y-74968843D02*
X109062557Y-74856175D01*
X109062557Y-74856175D02*
X109145036Y-74808556D01*
X109145036Y-74808556D02*
X109292563Y-74778367D01*
X109292563Y-74778367D02*
X109357612Y-74795797D01*
X109687526Y-74605320D02*
X109704956Y-74540272D01*
X109704956Y-74540272D02*
X109763625Y-74451413D01*
X109763625Y-74451413D02*
X109969822Y-74332366D01*
X109969822Y-74332366D02*
X110076110Y-74325986D01*
X110076110Y-74325986D02*
X110141159Y-74343416D01*
X110141159Y-74343416D02*
X110230017Y-74402085D01*
X110230017Y-74402085D02*
X110277636Y-74484563D01*
X110277636Y-74484563D02*
X110307825Y-74632091D01*
X110307825Y-74632091D02*
X110098668Y-75412677D01*
X110098668Y-75412677D02*
X110634779Y-75103153D01*
D11*
X237083032Y-136773810D02*
X236349699Y-136773810D01*
X237502080Y-136511905D02*
X236716365Y-136250000D01*
X236716365Y-136250000D02*
X236716365Y-136930953D01*
X237449699Y-137559524D02*
X237449699Y-137664286D01*
X237449699Y-137664286D02*
X237397318Y-137769048D01*
X237397318Y-137769048D02*
X237344937Y-137821429D01*
X237344937Y-137821429D02*
X237240175Y-137873810D01*
X237240175Y-137873810D02*
X237030651Y-137926191D01*
X237030651Y-137926191D02*
X236768746Y-137926191D01*
X236768746Y-137926191D02*
X236559222Y-137873810D01*
X236559222Y-137873810D02*
X236454460Y-137821429D01*
X236454460Y-137821429D02*
X236402080Y-137769048D01*
X236402080Y-137769048D02*
X236349699Y-137664286D01*
X236349699Y-137664286D02*
X236349699Y-137559524D01*
X236349699Y-137559524D02*
X236402080Y-137454762D01*
X236402080Y-137454762D02*
X236454460Y-137402381D01*
X236454460Y-137402381D02*
X236559222Y-137350000D01*
X236559222Y-137350000D02*
X236768746Y-137297619D01*
X236768746Y-137297619D02*
X237030651Y-137297619D01*
X237030651Y-137297619D02*
X237240175Y-137350000D01*
X237240175Y-137350000D02*
X237344937Y-137402381D01*
X237344937Y-137402381D02*
X237397318Y-137454762D01*
X237397318Y-137454762D02*
X237449699Y-137559524D01*
X236349699Y-138292857D02*
X237083032Y-138869048D01*
X237083032Y-138292857D02*
X236349699Y-138869048D01*
X237449699Y-140021428D02*
X237449699Y-140702381D01*
X237449699Y-140702381D02*
X237030651Y-140335714D01*
X237030651Y-140335714D02*
X237030651Y-140492857D01*
X237030651Y-140492857D02*
X236978270Y-140597619D01*
X236978270Y-140597619D02*
X236925889Y-140650000D01*
X236925889Y-140650000D02*
X236821127Y-140702381D01*
X236821127Y-140702381D02*
X236559222Y-140702381D01*
X236559222Y-140702381D02*
X236454460Y-140650000D01*
X236454460Y-140650000D02*
X236402080Y-140597619D01*
X236402080Y-140597619D02*
X236349699Y-140492857D01*
X236349699Y-140492857D02*
X236349699Y-140178571D01*
X236349699Y-140178571D02*
X236402080Y-140073809D01*
X236402080Y-140073809D02*
X236454460Y-140021428D01*
X237449699Y-141383333D02*
X237449699Y-141488095D01*
X237449699Y-141488095D02*
X237397318Y-141592857D01*
X237397318Y-141592857D02*
X237344937Y-141645238D01*
X237344937Y-141645238D02*
X237240175Y-141697619D01*
X237240175Y-141697619D02*
X237030651Y-141750000D01*
X237030651Y-141750000D02*
X236768746Y-141750000D01*
X236768746Y-141750000D02*
X236559222Y-141697619D01*
X236559222Y-141697619D02*
X236454460Y-141645238D01*
X236454460Y-141645238D02*
X236402080Y-141592857D01*
X236402080Y-141592857D02*
X236349699Y-141488095D01*
X236349699Y-141488095D02*
X236349699Y-141383333D01*
X236349699Y-141383333D02*
X236402080Y-141278571D01*
X236402080Y-141278571D02*
X236454460Y-141226190D01*
X236454460Y-141226190D02*
X236559222Y-141173809D01*
X236559222Y-141173809D02*
X236768746Y-141121428D01*
X236768746Y-141121428D02*
X237030651Y-141121428D01*
X237030651Y-141121428D02*
X237240175Y-141173809D01*
X237240175Y-141173809D02*
X237344937Y-141226190D01*
X237344937Y-141226190D02*
X237397318Y-141278571D01*
X237397318Y-141278571D02*
X237449699Y-141383333D01*
X237449699Y-142116666D02*
X237449699Y-142797619D01*
X237449699Y-142797619D02*
X237030651Y-142430952D01*
X237030651Y-142430952D02*
X237030651Y-142588095D01*
X237030651Y-142588095D02*
X236978270Y-142692857D01*
X236978270Y-142692857D02*
X236925889Y-142745238D01*
X236925889Y-142745238D02*
X236821127Y-142797619D01*
X236821127Y-142797619D02*
X236559222Y-142797619D01*
X236559222Y-142797619D02*
X236454460Y-142745238D01*
X236454460Y-142745238D02*
X236402080Y-142692857D01*
X236402080Y-142692857D02*
X236349699Y-142588095D01*
X236349699Y-142588095D02*
X236349699Y-142273809D01*
X236349699Y-142273809D02*
X236402080Y-142169047D01*
X236402080Y-142169047D02*
X236454460Y-142116666D01*
X237449699Y-143478571D02*
X237449699Y-143583333D01*
X237449699Y-143583333D02*
X237397318Y-143688095D01*
X237397318Y-143688095D02*
X237344937Y-143740476D01*
X237344937Y-143740476D02*
X237240175Y-143792857D01*
X237240175Y-143792857D02*
X237030651Y-143845238D01*
X237030651Y-143845238D02*
X236768746Y-143845238D01*
X236768746Y-143845238D02*
X236559222Y-143792857D01*
X236559222Y-143792857D02*
X236454460Y-143740476D01*
X236454460Y-143740476D02*
X236402080Y-143688095D01*
X236402080Y-143688095D02*
X236349699Y-143583333D01*
X236349699Y-143583333D02*
X236349699Y-143478571D01*
X236349699Y-143478571D02*
X236402080Y-143373809D01*
X236402080Y-143373809D02*
X236454460Y-143321428D01*
X236454460Y-143321428D02*
X236559222Y-143269047D01*
X236559222Y-143269047D02*
X236768746Y-143216666D01*
X236768746Y-143216666D02*
X237030651Y-143216666D01*
X237030651Y-143216666D02*
X237240175Y-143269047D01*
X237240175Y-143269047D02*
X237344937Y-143321428D01*
X237344937Y-143321428D02*
X237397318Y-143373809D01*
X237397318Y-143373809D02*
X237449699Y-143478571D01*
X237344937Y-145940475D02*
X237397318Y-145992856D01*
X237397318Y-145992856D02*
X237449699Y-146097618D01*
X237449699Y-146097618D02*
X237449699Y-146359523D01*
X237449699Y-146359523D02*
X237397318Y-146464285D01*
X237397318Y-146464285D02*
X237344937Y-146516666D01*
X237344937Y-146516666D02*
X237240175Y-146569047D01*
X237240175Y-146569047D02*
X237135413Y-146569047D01*
X237135413Y-146569047D02*
X236978270Y-146516666D01*
X236978270Y-146516666D02*
X236349699Y-145888094D01*
X236349699Y-145888094D02*
X236349699Y-146569047D01*
X237449699Y-146935713D02*
X237449699Y-147669047D01*
X237449699Y-147669047D02*
X236349699Y-147197618D01*
X237449699Y-148297618D02*
X237449699Y-148402380D01*
X237449699Y-148402380D02*
X237397318Y-148507142D01*
X237397318Y-148507142D02*
X237344937Y-148559523D01*
X237344937Y-148559523D02*
X237240175Y-148611904D01*
X237240175Y-148611904D02*
X237030651Y-148664285D01*
X237030651Y-148664285D02*
X236768746Y-148664285D01*
X236768746Y-148664285D02*
X236559222Y-148611904D01*
X236559222Y-148611904D02*
X236454460Y-148559523D01*
X236454460Y-148559523D02*
X236402080Y-148507142D01*
X236402080Y-148507142D02*
X236349699Y-148402380D01*
X236349699Y-148402380D02*
X236349699Y-148297618D01*
X236349699Y-148297618D02*
X236402080Y-148192856D01*
X236402080Y-148192856D02*
X236454460Y-148140475D01*
X236454460Y-148140475D02*
X236559222Y-148088094D01*
X236559222Y-148088094D02*
X236768746Y-148035713D01*
X236768746Y-148035713D02*
X237030651Y-148035713D01*
X237030651Y-148035713D02*
X237240175Y-148088094D01*
X237240175Y-148088094D02*
X237344937Y-148140475D01*
X237344937Y-148140475D02*
X237397318Y-148192856D01*
X237397318Y-148192856D02*
X237449699Y-148297618D01*
X237449699Y-149345237D02*
X237449699Y-149449999D01*
X237449699Y-149449999D02*
X237397318Y-149554761D01*
X237397318Y-149554761D02*
X237344937Y-149607142D01*
X237344937Y-149607142D02*
X237240175Y-149659523D01*
X237240175Y-149659523D02*
X237030651Y-149711904D01*
X237030651Y-149711904D02*
X236768746Y-149711904D01*
X236768746Y-149711904D02*
X236559222Y-149659523D01*
X236559222Y-149659523D02*
X236454460Y-149607142D01*
X236454460Y-149607142D02*
X236402080Y-149554761D01*
X236402080Y-149554761D02*
X236349699Y-149449999D01*
X236349699Y-149449999D02*
X236349699Y-149345237D01*
X236349699Y-149345237D02*
X236402080Y-149240475D01*
X236402080Y-149240475D02*
X236454460Y-149188094D01*
X236454460Y-149188094D02*
X236559222Y-149135713D01*
X236559222Y-149135713D02*
X236768746Y-149083332D01*
X236768746Y-149083332D02*
X237030651Y-149083332D01*
X237030651Y-149083332D02*
X237240175Y-149135713D01*
X237240175Y-149135713D02*
X237344937Y-149188094D01*
X237344937Y-149188094D02*
X237397318Y-149240475D01*
X237397318Y-149240475D02*
X237449699Y-149345237D01*
X236349699Y-150183332D02*
X237449699Y-150183332D01*
X236349699Y-150811904D02*
X236978270Y-150340475D01*
X237449699Y-150811904D02*
X236821127Y-150183332D01*
X237502080Y-152069047D02*
X236087794Y-151126189D01*
X237449699Y-152907142D02*
X237449699Y-152697618D01*
X237449699Y-152697618D02*
X237397318Y-152592856D01*
X237397318Y-152592856D02*
X237344937Y-152540475D01*
X237344937Y-152540475D02*
X237187794Y-152435713D01*
X237187794Y-152435713D02*
X236978270Y-152383332D01*
X236978270Y-152383332D02*
X236559222Y-152383332D01*
X236559222Y-152383332D02*
X236454460Y-152435713D01*
X236454460Y-152435713D02*
X236402080Y-152488094D01*
X236402080Y-152488094D02*
X236349699Y-152592856D01*
X236349699Y-152592856D02*
X236349699Y-152802380D01*
X236349699Y-152802380D02*
X236402080Y-152907142D01*
X236402080Y-152907142D02*
X236454460Y-152959523D01*
X236454460Y-152959523D02*
X236559222Y-153011904D01*
X236559222Y-153011904D02*
X236821127Y-153011904D01*
X236821127Y-153011904D02*
X236925889Y-152959523D01*
X236925889Y-152959523D02*
X236978270Y-152907142D01*
X236978270Y-152907142D02*
X237030651Y-152802380D01*
X237030651Y-152802380D02*
X237030651Y-152592856D01*
X237030651Y-152592856D02*
X236978270Y-152488094D01*
X236978270Y-152488094D02*
X236925889Y-152435713D01*
X236925889Y-152435713D02*
X236821127Y-152383332D01*
X237449699Y-154007142D02*
X237449699Y-153483332D01*
X237449699Y-153483332D02*
X236925889Y-153430951D01*
X236925889Y-153430951D02*
X236978270Y-153483332D01*
X236978270Y-153483332D02*
X237030651Y-153588094D01*
X237030651Y-153588094D02*
X237030651Y-153849999D01*
X237030651Y-153849999D02*
X236978270Y-153954761D01*
X236978270Y-153954761D02*
X236925889Y-154007142D01*
X236925889Y-154007142D02*
X236821127Y-154059523D01*
X236821127Y-154059523D02*
X236559222Y-154059523D01*
X236559222Y-154059523D02*
X236454460Y-154007142D01*
X236454460Y-154007142D02*
X236402080Y-153954761D01*
X236402080Y-153954761D02*
X236349699Y-153849999D01*
X236349699Y-153849999D02*
X236349699Y-153588094D01*
X236349699Y-153588094D02*
X236402080Y-153483332D01*
X236402080Y-153483332D02*
X236454460Y-153430951D01*
X237449699Y-154740475D02*
X237449699Y-154845237D01*
X237449699Y-154845237D02*
X237397318Y-154949999D01*
X237397318Y-154949999D02*
X237344937Y-155002380D01*
X237344937Y-155002380D02*
X237240175Y-155054761D01*
X237240175Y-155054761D02*
X237030651Y-155107142D01*
X237030651Y-155107142D02*
X236768746Y-155107142D01*
X236768746Y-155107142D02*
X236559222Y-155054761D01*
X236559222Y-155054761D02*
X236454460Y-155002380D01*
X236454460Y-155002380D02*
X236402080Y-154949999D01*
X236402080Y-154949999D02*
X236349699Y-154845237D01*
X236349699Y-154845237D02*
X236349699Y-154740475D01*
X236349699Y-154740475D02*
X236402080Y-154635713D01*
X236402080Y-154635713D02*
X236454460Y-154583332D01*
X236454460Y-154583332D02*
X236559222Y-154530951D01*
X236559222Y-154530951D02*
X236768746Y-154478570D01*
X236768746Y-154478570D02*
X237030651Y-154478570D01*
X237030651Y-154478570D02*
X237240175Y-154530951D01*
X237240175Y-154530951D02*
X237344937Y-154583332D01*
X237344937Y-154583332D02*
X237397318Y-154635713D01*
X237397318Y-154635713D02*
X237449699Y-154740475D01*
X237449699Y-155788094D02*
X237449699Y-155892856D01*
X237449699Y-155892856D02*
X237397318Y-155997618D01*
X237397318Y-155997618D02*
X237344937Y-156049999D01*
X237344937Y-156049999D02*
X237240175Y-156102380D01*
X237240175Y-156102380D02*
X237030651Y-156154761D01*
X237030651Y-156154761D02*
X236768746Y-156154761D01*
X236768746Y-156154761D02*
X236559222Y-156102380D01*
X236559222Y-156102380D02*
X236454460Y-156049999D01*
X236454460Y-156049999D02*
X236402080Y-155997618D01*
X236402080Y-155997618D02*
X236349699Y-155892856D01*
X236349699Y-155892856D02*
X236349699Y-155788094D01*
X236349699Y-155788094D02*
X236402080Y-155683332D01*
X236402080Y-155683332D02*
X236454460Y-155630951D01*
X236454460Y-155630951D02*
X236559222Y-155578570D01*
X236559222Y-155578570D02*
X236768746Y-155526189D01*
X236768746Y-155526189D02*
X237030651Y-155526189D01*
X237030651Y-155526189D02*
X237240175Y-155578570D01*
X237240175Y-155578570D02*
X237344937Y-155630951D01*
X237344937Y-155630951D02*
X237397318Y-155683332D01*
X237397318Y-155683332D02*
X237449699Y-155788094D01*
X236349699Y-156626189D02*
X237449699Y-156626189D01*
X236349699Y-157254761D02*
X236978270Y-156783332D01*
X237449699Y-157254761D02*
X236821127Y-156626189D01*
X236454460Y-160030951D02*
X236402080Y-159978570D01*
X236402080Y-159978570D02*
X236349699Y-159821427D01*
X236349699Y-159821427D02*
X236349699Y-159716665D01*
X236349699Y-159716665D02*
X236402080Y-159559522D01*
X236402080Y-159559522D02*
X236506841Y-159454760D01*
X236506841Y-159454760D02*
X236611603Y-159402379D01*
X236611603Y-159402379D02*
X236821127Y-159349998D01*
X236821127Y-159349998D02*
X236978270Y-159349998D01*
X236978270Y-159349998D02*
X237187794Y-159402379D01*
X237187794Y-159402379D02*
X237292556Y-159454760D01*
X237292556Y-159454760D02*
X237397318Y-159559522D01*
X237397318Y-159559522D02*
X237449699Y-159716665D01*
X237449699Y-159716665D02*
X237449699Y-159821427D01*
X237449699Y-159821427D02*
X237397318Y-159978570D01*
X237397318Y-159978570D02*
X237344937Y-160030951D01*
X236349699Y-161130951D02*
X236873508Y-160764284D01*
X236349699Y-160502379D02*
X237449699Y-160502379D01*
X237449699Y-160502379D02*
X237449699Y-160921427D01*
X237449699Y-160921427D02*
X237397318Y-161026189D01*
X237397318Y-161026189D02*
X237344937Y-161078570D01*
X237344937Y-161078570D02*
X237240175Y-161130951D01*
X237240175Y-161130951D02*
X237083032Y-161130951D01*
X237083032Y-161130951D02*
X236978270Y-161078570D01*
X236978270Y-161078570D02*
X236925889Y-161026189D01*
X236925889Y-161026189D02*
X236873508Y-160921427D01*
X236873508Y-160921427D02*
X236873508Y-160502379D01*
X236349699Y-161602379D02*
X237449699Y-161602379D01*
X236349699Y-162178570D02*
X236349699Y-162388094D01*
X236349699Y-162388094D02*
X236402080Y-162492856D01*
X236402080Y-162492856D02*
X236454460Y-162545237D01*
X236454460Y-162545237D02*
X236611603Y-162649999D01*
X236611603Y-162649999D02*
X236821127Y-162702380D01*
X236821127Y-162702380D02*
X237240175Y-162702380D01*
X237240175Y-162702380D02*
X237344937Y-162649999D01*
X237344937Y-162649999D02*
X237397318Y-162597618D01*
X237397318Y-162597618D02*
X237449699Y-162492856D01*
X237449699Y-162492856D02*
X237449699Y-162283332D01*
X237449699Y-162283332D02*
X237397318Y-162178570D01*
X237397318Y-162178570D02*
X237344937Y-162126189D01*
X237344937Y-162126189D02*
X237240175Y-162073808D01*
X237240175Y-162073808D02*
X236978270Y-162073808D01*
X236978270Y-162073808D02*
X236873508Y-162126189D01*
X236873508Y-162126189D02*
X236821127Y-162178570D01*
X236821127Y-162178570D02*
X236768746Y-162283332D01*
X236768746Y-162283332D02*
X236768746Y-162492856D01*
X236768746Y-162492856D02*
X236821127Y-162597618D01*
X236821127Y-162597618D02*
X236873508Y-162649999D01*
X236873508Y-162649999D02*
X236978270Y-162702380D01*
X237449699Y-163383332D02*
X237449699Y-163488094D01*
X237449699Y-163488094D02*
X237397318Y-163592856D01*
X237397318Y-163592856D02*
X237344937Y-163645237D01*
X237344937Y-163645237D02*
X237240175Y-163697618D01*
X237240175Y-163697618D02*
X237030651Y-163749999D01*
X237030651Y-163749999D02*
X236768746Y-163749999D01*
X236768746Y-163749999D02*
X236559222Y-163697618D01*
X236559222Y-163697618D02*
X236454460Y-163645237D01*
X236454460Y-163645237D02*
X236402080Y-163592856D01*
X236402080Y-163592856D02*
X236349699Y-163488094D01*
X236349699Y-163488094D02*
X236349699Y-163383332D01*
X236349699Y-163383332D02*
X236402080Y-163278570D01*
X236402080Y-163278570D02*
X236454460Y-163226189D01*
X236454460Y-163226189D02*
X236559222Y-163173808D01*
X236559222Y-163173808D02*
X236768746Y-163121427D01*
X236768746Y-163121427D02*
X237030651Y-163121427D01*
X237030651Y-163121427D02*
X237240175Y-163173808D01*
X237240175Y-163173808D02*
X237344937Y-163226189D01*
X237344937Y-163226189D02*
X237397318Y-163278570D01*
X237397318Y-163278570D02*
X237449699Y-163383332D01*
X62916967Y-160502379D02*
X63650300Y-160502379D01*
X62497920Y-160764284D02*
X63283634Y-161026189D01*
X63283634Y-161026189D02*
X63283634Y-160345236D01*
X63597920Y-159140475D02*
X63650300Y-159035713D01*
X63650300Y-159035713D02*
X63650300Y-158826189D01*
X63650300Y-158826189D02*
X63597920Y-158721427D01*
X63597920Y-158721427D02*
X63493158Y-158669046D01*
X63493158Y-158669046D02*
X63440777Y-158669046D01*
X63440777Y-158669046D02*
X63336015Y-158721427D01*
X63336015Y-158721427D02*
X63283634Y-158826189D01*
X63283634Y-158826189D02*
X63283634Y-158983332D01*
X63283634Y-158983332D02*
X63231253Y-159088094D01*
X63231253Y-159088094D02*
X63126491Y-159140475D01*
X63126491Y-159140475D02*
X63074110Y-159140475D01*
X63074110Y-159140475D02*
X62969348Y-159088094D01*
X62969348Y-159088094D02*
X62916967Y-158983332D01*
X62916967Y-158983332D02*
X62916967Y-158826189D01*
X62916967Y-158826189D02*
X62969348Y-158721427D01*
X62916967Y-158354761D02*
X62916967Y-157935713D01*
X62550300Y-158197618D02*
X63493158Y-158197618D01*
X63493158Y-158197618D02*
X63597920Y-158145237D01*
X63597920Y-158145237D02*
X63650300Y-158040475D01*
X63650300Y-158040475D02*
X63650300Y-157935713D01*
X63650300Y-157569047D02*
X62916967Y-157569047D01*
X63126491Y-157569047D02*
X63021729Y-157516666D01*
X63021729Y-157516666D02*
X62969348Y-157464285D01*
X62969348Y-157464285D02*
X62916967Y-157359523D01*
X62916967Y-157359523D02*
X62916967Y-157254761D01*
X63650300Y-156888095D02*
X62916967Y-156888095D01*
X62550300Y-156888095D02*
X62602681Y-156940476D01*
X62602681Y-156940476D02*
X62655062Y-156888095D01*
X62655062Y-156888095D02*
X62602681Y-156835714D01*
X62602681Y-156835714D02*
X62550300Y-156888095D01*
X62550300Y-156888095D02*
X62655062Y-156888095D01*
X62916967Y-156364285D02*
X63650300Y-156364285D01*
X63021729Y-156364285D02*
X62969348Y-156311904D01*
X62969348Y-156311904D02*
X62916967Y-156207142D01*
X62916967Y-156207142D02*
X62916967Y-156049999D01*
X62916967Y-156049999D02*
X62969348Y-155945237D01*
X62969348Y-155945237D02*
X63074110Y-155892856D01*
X63074110Y-155892856D02*
X63650300Y-155892856D01*
X62916967Y-154897618D02*
X63807443Y-154897618D01*
X63807443Y-154897618D02*
X63912205Y-154949999D01*
X63912205Y-154949999D02*
X63964586Y-155002380D01*
X63964586Y-155002380D02*
X64016967Y-155107142D01*
X64016967Y-155107142D02*
X64016967Y-155264285D01*
X64016967Y-155264285D02*
X63964586Y-155369047D01*
X63597920Y-154897618D02*
X63650300Y-155002380D01*
X63650300Y-155002380D02*
X63650300Y-155211904D01*
X63650300Y-155211904D02*
X63597920Y-155316666D01*
X63597920Y-155316666D02*
X63545539Y-155369047D01*
X63545539Y-155369047D02*
X63440777Y-155421428D01*
X63440777Y-155421428D02*
X63126491Y-155421428D01*
X63126491Y-155421428D02*
X63021729Y-155369047D01*
X63021729Y-155369047D02*
X62969348Y-155316666D01*
X62969348Y-155316666D02*
X62916967Y-155211904D01*
X62916967Y-155211904D02*
X62916967Y-155002380D01*
X62916967Y-155002380D02*
X62969348Y-154897618D01*
X63597920Y-154426190D02*
X63650300Y-154321428D01*
X63650300Y-154321428D02*
X63650300Y-154111904D01*
X63650300Y-154111904D02*
X63597920Y-154007142D01*
X63597920Y-154007142D02*
X63493158Y-153954761D01*
X63493158Y-153954761D02*
X63440777Y-153954761D01*
X63440777Y-153954761D02*
X63336015Y-154007142D01*
X63336015Y-154007142D02*
X63283634Y-154111904D01*
X63283634Y-154111904D02*
X63283634Y-154269047D01*
X63283634Y-154269047D02*
X63231253Y-154373809D01*
X63231253Y-154373809D02*
X63126491Y-154426190D01*
X63126491Y-154426190D02*
X63074110Y-154426190D01*
X63074110Y-154426190D02*
X62969348Y-154373809D01*
X62969348Y-154373809D02*
X62916967Y-154269047D01*
X62916967Y-154269047D02*
X62916967Y-154111904D01*
X62916967Y-154111904D02*
X62969348Y-154007142D01*
X63650300Y-152750000D02*
X62916967Y-152173809D01*
X62916967Y-152750000D02*
X63650300Y-152173809D01*
X63650300Y-150340476D02*
X63650300Y-150969048D01*
X63650300Y-150654762D02*
X62550300Y-150654762D01*
X62550300Y-150654762D02*
X62707443Y-150759524D01*
X62707443Y-150759524D02*
X62812205Y-150864286D01*
X62812205Y-150864286D02*
X62864586Y-150969048D01*
X62550300Y-149659524D02*
X62550300Y-149554762D01*
X62550300Y-149554762D02*
X62602681Y-149450000D01*
X62602681Y-149450000D02*
X62655062Y-149397619D01*
X62655062Y-149397619D02*
X62759824Y-149345238D01*
X62759824Y-149345238D02*
X62969348Y-149292857D01*
X62969348Y-149292857D02*
X63231253Y-149292857D01*
X63231253Y-149292857D02*
X63440777Y-149345238D01*
X63440777Y-149345238D02*
X63545539Y-149397619D01*
X63545539Y-149397619D02*
X63597920Y-149450000D01*
X63597920Y-149450000D02*
X63650300Y-149554762D01*
X63650300Y-149554762D02*
X63650300Y-149659524D01*
X63650300Y-149659524D02*
X63597920Y-149764286D01*
X63597920Y-149764286D02*
X63545539Y-149816667D01*
X63545539Y-149816667D02*
X63440777Y-149869048D01*
X63440777Y-149869048D02*
X63231253Y-149921429D01*
X63231253Y-149921429D02*
X62969348Y-149921429D01*
X62969348Y-149921429D02*
X62759824Y-149869048D01*
X62759824Y-149869048D02*
X62655062Y-149816667D01*
X62655062Y-149816667D02*
X62602681Y-149764286D01*
X62602681Y-149764286D02*
X62550300Y-149659524D01*
X63126491Y-146464286D02*
X63074110Y-146516667D01*
X63074110Y-146516667D02*
X63021729Y-146621429D01*
X63021729Y-146621429D02*
X63021729Y-146726191D01*
X63021729Y-146726191D02*
X63074110Y-146830953D01*
X63074110Y-146830953D02*
X63126491Y-146883334D01*
X63126491Y-146883334D02*
X63231253Y-146935715D01*
X63231253Y-146935715D02*
X63336015Y-146935715D01*
X63336015Y-146935715D02*
X63440777Y-146883334D01*
X63440777Y-146883334D02*
X63493158Y-146830953D01*
X63493158Y-146830953D02*
X63545539Y-146726191D01*
X63545539Y-146726191D02*
X63545539Y-146621429D01*
X63545539Y-146621429D02*
X63493158Y-146516667D01*
X63493158Y-146516667D02*
X63440777Y-146464286D01*
X63021729Y-146464286D02*
X63440777Y-146464286D01*
X63440777Y-146464286D02*
X63493158Y-146411905D01*
X63493158Y-146411905D02*
X63493158Y-146359524D01*
X63493158Y-146359524D02*
X63440777Y-146254763D01*
X63440777Y-146254763D02*
X63336015Y-146202382D01*
X63336015Y-146202382D02*
X63074110Y-146202382D01*
X63074110Y-146202382D02*
X62916967Y-146307144D01*
X62916967Y-146307144D02*
X62812205Y-146464286D01*
X62812205Y-146464286D02*
X62759824Y-146673810D01*
X62759824Y-146673810D02*
X62812205Y-146883334D01*
X62812205Y-146883334D02*
X62916967Y-147040477D01*
X62916967Y-147040477D02*
X63074110Y-147145239D01*
X63074110Y-147145239D02*
X63283634Y-147197620D01*
X63283634Y-147197620D02*
X63493158Y-147145239D01*
X63493158Y-147145239D02*
X63650300Y-147040477D01*
X63650300Y-147040477D02*
X63755062Y-146883334D01*
X63755062Y-146883334D02*
X63807443Y-146673810D01*
X63807443Y-146673810D02*
X63755062Y-146464286D01*
X63755062Y-146464286D02*
X63650300Y-146307144D01*
X63650300Y-144316667D02*
X63650300Y-144945239D01*
X63650300Y-144630953D02*
X62550300Y-144630953D01*
X62550300Y-144630953D02*
X62707443Y-144735715D01*
X62707443Y-144735715D02*
X62812205Y-144840477D01*
X62812205Y-144840477D02*
X62864586Y-144945239D01*
X62550300Y-143635715D02*
X62550300Y-143530953D01*
X62550300Y-143530953D02*
X62602681Y-143426191D01*
X62602681Y-143426191D02*
X62655062Y-143373810D01*
X62655062Y-143373810D02*
X62759824Y-143321429D01*
X62759824Y-143321429D02*
X62969348Y-143269048D01*
X62969348Y-143269048D02*
X63231253Y-143269048D01*
X63231253Y-143269048D02*
X63440777Y-143321429D01*
X63440777Y-143321429D02*
X63545539Y-143373810D01*
X63545539Y-143373810D02*
X63597920Y-143426191D01*
X63597920Y-143426191D02*
X63650300Y-143530953D01*
X63650300Y-143530953D02*
X63650300Y-143635715D01*
X63650300Y-143635715D02*
X63597920Y-143740477D01*
X63597920Y-143740477D02*
X63545539Y-143792858D01*
X63545539Y-143792858D02*
X63440777Y-143845239D01*
X63440777Y-143845239D02*
X63231253Y-143897620D01*
X63231253Y-143897620D02*
X62969348Y-143897620D01*
X62969348Y-143897620D02*
X62759824Y-143845239D01*
X62759824Y-143845239D02*
X62655062Y-143792858D01*
X62655062Y-143792858D02*
X62602681Y-143740477D01*
X62602681Y-143740477D02*
X62550300Y-143635715D01*
X62550300Y-142588096D02*
X62550300Y-142483334D01*
X62550300Y-142483334D02*
X62602681Y-142378572D01*
X62602681Y-142378572D02*
X62655062Y-142326191D01*
X62655062Y-142326191D02*
X62759824Y-142273810D01*
X62759824Y-142273810D02*
X62969348Y-142221429D01*
X62969348Y-142221429D02*
X63231253Y-142221429D01*
X63231253Y-142221429D02*
X63440777Y-142273810D01*
X63440777Y-142273810D02*
X63545539Y-142326191D01*
X63545539Y-142326191D02*
X63597920Y-142378572D01*
X63597920Y-142378572D02*
X63650300Y-142483334D01*
X63650300Y-142483334D02*
X63650300Y-142588096D01*
X63650300Y-142588096D02*
X63597920Y-142692858D01*
X63597920Y-142692858D02*
X63545539Y-142745239D01*
X63545539Y-142745239D02*
X63440777Y-142797620D01*
X63440777Y-142797620D02*
X63231253Y-142850001D01*
X63231253Y-142850001D02*
X62969348Y-142850001D01*
X62969348Y-142850001D02*
X62759824Y-142797620D01*
X62759824Y-142797620D02*
X62655062Y-142745239D01*
X62655062Y-142745239D02*
X62602681Y-142692858D01*
X62602681Y-142692858D02*
X62550300Y-142588096D01*
X63650300Y-140911906D02*
X62916967Y-140911906D01*
X63021729Y-140911906D02*
X62969348Y-140859525D01*
X62969348Y-140859525D02*
X62916967Y-140754763D01*
X62916967Y-140754763D02*
X62916967Y-140597620D01*
X62916967Y-140597620D02*
X62969348Y-140492858D01*
X62969348Y-140492858D02*
X63074110Y-140440477D01*
X63074110Y-140440477D02*
X63650300Y-140440477D01*
X63074110Y-140440477D02*
X62969348Y-140388096D01*
X62969348Y-140388096D02*
X62916967Y-140283334D01*
X62916967Y-140283334D02*
X62916967Y-140126191D01*
X62916967Y-140126191D02*
X62969348Y-140021430D01*
X62969348Y-140021430D02*
X63074110Y-139969049D01*
X63074110Y-139969049D02*
X63650300Y-139969049D01*
X63336015Y-139497620D02*
X63336015Y-138973810D01*
X63650300Y-139602382D02*
X62550300Y-139235715D01*
X62550300Y-139235715D02*
X63650300Y-138869048D01*
D12*
X138633332Y-236749773D02*
X139099999Y-236749773D01*
X139299999Y-237483106D02*
X138633332Y-237483106D01*
X138633332Y-237483106D02*
X138633332Y-236083106D01*
X138633332Y-236083106D02*
X139299999Y-236083106D01*
X140699999Y-237349773D02*
X140633332Y-237416440D01*
X140633332Y-237416440D02*
X140433332Y-237483106D01*
X140433332Y-237483106D02*
X140299999Y-237483106D01*
X140299999Y-237483106D02*
X140099999Y-237416440D01*
X140099999Y-237416440D02*
X139966666Y-237283106D01*
X139966666Y-237283106D02*
X139899999Y-237149773D01*
X139899999Y-237149773D02*
X139833332Y-236883106D01*
X139833332Y-236883106D02*
X139833332Y-236683106D01*
X139833332Y-236683106D02*
X139899999Y-236416440D01*
X139899999Y-236416440D02*
X139966666Y-236283106D01*
X139966666Y-236283106D02*
X140099999Y-236149773D01*
X140099999Y-236149773D02*
X140299999Y-236083106D01*
X140299999Y-236083106D02*
X140433332Y-236083106D01*
X140433332Y-236083106D02*
X140633332Y-236149773D01*
X140633332Y-236149773D02*
X140699999Y-236216440D01*
X141966666Y-237483106D02*
X141299999Y-237483106D01*
X141299999Y-237483106D02*
X141299999Y-236083106D01*
X142433332Y-237483106D02*
X142433332Y-236083106D01*
X143099999Y-237483106D02*
X143099999Y-236083106D01*
X143099999Y-236083106D02*
X143633332Y-236083106D01*
X143633332Y-236083106D02*
X143766666Y-236149773D01*
X143766666Y-236149773D02*
X143833332Y-236216440D01*
X143833332Y-236216440D02*
X143899999Y-236349773D01*
X143899999Y-236349773D02*
X143899999Y-236549773D01*
X143899999Y-236549773D02*
X143833332Y-236683106D01*
X143833332Y-236683106D02*
X143766666Y-236749773D01*
X143766666Y-236749773D02*
X143633332Y-236816440D01*
X143633332Y-236816440D02*
X143099999Y-236816440D01*
X144433332Y-237416440D02*
X144633332Y-237483106D01*
X144633332Y-237483106D02*
X144966666Y-237483106D01*
X144966666Y-237483106D02*
X145099999Y-237416440D01*
X145099999Y-237416440D02*
X145166666Y-237349773D01*
X145166666Y-237349773D02*
X145233332Y-237216440D01*
X145233332Y-237216440D02*
X145233332Y-237083106D01*
X145233332Y-237083106D02*
X145166666Y-236949773D01*
X145166666Y-236949773D02*
X145099999Y-236883106D01*
X145099999Y-236883106D02*
X144966666Y-236816440D01*
X144966666Y-236816440D02*
X144699999Y-236749773D01*
X144699999Y-236749773D02*
X144566666Y-236683106D01*
X144566666Y-236683106D02*
X144499999Y-236616440D01*
X144499999Y-236616440D02*
X144433332Y-236483106D01*
X144433332Y-236483106D02*
X144433332Y-236349773D01*
X144433332Y-236349773D02*
X144499999Y-236216440D01*
X144499999Y-236216440D02*
X144566666Y-236149773D01*
X144566666Y-236149773D02*
X144699999Y-236083106D01*
X144699999Y-236083106D02*
X145033332Y-236083106D01*
X145033332Y-236083106D02*
X145233332Y-236149773D01*
X145833332Y-236749773D02*
X146299999Y-236749773D01*
X146499999Y-237483106D02*
X145833332Y-237483106D01*
X145833332Y-237483106D02*
X145833332Y-236083106D01*
X145833332Y-236083106D02*
X146499999Y-236083106D01*
X149233333Y-237483106D02*
X149233333Y-236083106D01*
X149233333Y-236749773D02*
X150033333Y-236749773D01*
X150033333Y-237483106D02*
X150033333Y-236083106D01*
X150633333Y-237083106D02*
X151300000Y-237083106D01*
X150500000Y-237483106D02*
X150966667Y-236083106D01*
X150966667Y-236083106D02*
X151433333Y-237483106D01*
X152566667Y-237483106D02*
X151900000Y-237483106D01*
X151900000Y-237483106D02*
X151900000Y-236083106D01*
X153300000Y-236083106D02*
X153566666Y-236083106D01*
X153566666Y-236083106D02*
X153700000Y-236149773D01*
X153700000Y-236149773D02*
X153833333Y-236283106D01*
X153833333Y-236283106D02*
X153900000Y-236549773D01*
X153900000Y-236549773D02*
X153900000Y-237016440D01*
X153900000Y-237016440D02*
X153833333Y-237283106D01*
X153833333Y-237283106D02*
X153700000Y-237416440D01*
X153700000Y-237416440D02*
X153566666Y-237483106D01*
X153566666Y-237483106D02*
X153300000Y-237483106D01*
X153300000Y-237483106D02*
X153166666Y-237416440D01*
X153166666Y-237416440D02*
X153033333Y-237283106D01*
X153033333Y-237283106D02*
X152966666Y-237016440D01*
X152966666Y-237016440D02*
X152966666Y-236549773D01*
X152966666Y-236549773D02*
X153033333Y-236283106D01*
X153033333Y-236283106D02*
X153166666Y-236149773D01*
X153166666Y-236149773D02*
X153300000Y-236083106D01*
X156633334Y-237483106D02*
X156633334Y-236549773D01*
X156633334Y-236816440D02*
X156700001Y-236683106D01*
X156700001Y-236683106D02*
X156766667Y-236616440D01*
X156766667Y-236616440D02*
X156900001Y-236549773D01*
X156900001Y-236549773D02*
X157033334Y-236549773D01*
X158033334Y-237416440D02*
X157900001Y-237483106D01*
X157900001Y-237483106D02*
X157633334Y-237483106D01*
X157633334Y-237483106D02*
X157500001Y-237416440D01*
X157500001Y-237416440D02*
X157433334Y-237283106D01*
X157433334Y-237283106D02*
X157433334Y-236749773D01*
X157433334Y-236749773D02*
X157500001Y-236616440D01*
X157500001Y-236616440D02*
X157633334Y-236549773D01*
X157633334Y-236549773D02*
X157900001Y-236549773D01*
X157900001Y-236549773D02*
X158033334Y-236616440D01*
X158033334Y-236616440D02*
X158100001Y-236749773D01*
X158100001Y-236749773D02*
X158100001Y-236883106D01*
X158100001Y-236883106D02*
X157433334Y-237016440D01*
X158566668Y-236549773D02*
X158900001Y-237483106D01*
X158900001Y-237483106D02*
X159233334Y-236549773D01*
X160766668Y-237083106D02*
X161433335Y-237083106D01*
X160633335Y-237483106D02*
X161100002Y-236083106D01*
X161100002Y-236083106D02*
X161566668Y-237483106D01*
D13*
X83642547Y-94602894D02*
X83034222Y-94083335D01*
X83034222Y-94083335D02*
X83157926Y-93938496D01*
X83157926Y-93938496D02*
X83261117Y-93876334D01*
X83261117Y-93876334D02*
X83368534Y-93867880D01*
X83368534Y-93867880D02*
X83451211Y-93888393D01*
X83451211Y-93888393D02*
X83591823Y-93958389D01*
X83591823Y-93958389D02*
X83678727Y-94032612D01*
X83678727Y-94032612D02*
X83769857Y-94160543D01*
X83769857Y-94160543D02*
X83803052Y-94238993D01*
X83803052Y-94238993D02*
X83811506Y-94346410D01*
X83811506Y-94346410D02*
X83766251Y-94458055D01*
X83766251Y-94458055D02*
X83642547Y-94602894D01*
X83504299Y-93532946D02*
X83825930Y-93156364D01*
X83825930Y-93156364D02*
X83884487Y-93557066D01*
X83884487Y-93557066D02*
X83958709Y-93470163D01*
X83958709Y-93470163D02*
X84037159Y-93436968D01*
X84037159Y-93436968D02*
X84090868Y-93432741D01*
X84090868Y-93432741D02*
X84173544Y-93453255D01*
X84173544Y-93453255D02*
X84318383Y-93576959D01*
X84318383Y-93576959D02*
X84351578Y-93655409D01*
X84351578Y-93655409D02*
X84355805Y-93709118D01*
X84355805Y-93709118D02*
X84335291Y-93791794D01*
X84335291Y-93791794D02*
X84186846Y-93965601D01*
X84186846Y-93965601D02*
X84108396Y-93998796D01*
X84108396Y-93998796D02*
X84054688Y-94003023D01*
X84296007Y-92605975D02*
X84048598Y-92895654D01*
X84048598Y-92895654D02*
X84313536Y-93172030D01*
X84313536Y-93172030D02*
X84309309Y-93118321D01*
X84309309Y-93118321D02*
X84329823Y-93035645D01*
X84329823Y-93035645D02*
X84453527Y-92890806D01*
X84453527Y-92890806D02*
X84531977Y-92857611D01*
X84531977Y-92857611D02*
X84585685Y-92853384D01*
X84585685Y-92853384D02*
X84668362Y-92873898D01*
X84668362Y-92873898D02*
X84813201Y-92997602D01*
X84813201Y-92997602D02*
X84846396Y-93076052D01*
X84846396Y-93076052D02*
X84850623Y-93129760D01*
X84850623Y-93129760D02*
X84830109Y-93212437D01*
X84830109Y-93212437D02*
X84706405Y-93357276D01*
X84706405Y-93357276D02*
X84627955Y-93390471D01*
X84627955Y-93390471D02*
X84574246Y-93394698D01*
X128707413Y-234528735D02*
X128894169Y-233750839D01*
X128894169Y-233750839D02*
X129079383Y-233795305D01*
X129079383Y-233795305D02*
X129181617Y-233859027D01*
X129181617Y-233859027D02*
X129237916Y-233950898D01*
X129237916Y-233950898D02*
X129257173Y-234033877D01*
X129257173Y-234033877D02*
X129258643Y-234190941D01*
X129258643Y-234190941D02*
X129231963Y-234302069D01*
X129231963Y-234302069D02*
X129159348Y-234441346D01*
X129159348Y-234441346D02*
X129104519Y-234506538D01*
X129104519Y-234506538D02*
X129012647Y-234562837D01*
X129012647Y-234562837D02*
X128892626Y-234573201D01*
X128892626Y-234573201D02*
X128707413Y-234528735D01*
X129617236Y-234002787D02*
X129663172Y-233974638D01*
X129663172Y-233974638D02*
X129746151Y-233955382D01*
X129746151Y-233955382D02*
X129931364Y-233999847D01*
X129931364Y-233999847D02*
X129996556Y-234054676D01*
X129996556Y-234054676D02*
X130024706Y-234100612D01*
X130024706Y-234100612D02*
X130043962Y-234183591D01*
X130043962Y-234183591D02*
X130026176Y-234257676D01*
X130026176Y-234257676D02*
X129962453Y-234359911D01*
X129962453Y-234359911D02*
X129411224Y-234697705D01*
X129411224Y-234697705D02*
X129892778Y-234813316D01*
X130358090Y-234180651D02*
X130404026Y-234152501D01*
X130404026Y-234152501D02*
X130487004Y-234133245D01*
X130487004Y-234133245D02*
X130672217Y-234177710D01*
X130672217Y-234177710D02*
X130737410Y-234232539D01*
X130737410Y-234232539D02*
X130765559Y-234278475D01*
X130765559Y-234278475D02*
X130784815Y-234361454D01*
X130784815Y-234361454D02*
X130767029Y-234435539D01*
X130767029Y-234435539D02*
X130703307Y-234537774D01*
X130703307Y-234537774D02*
X130152077Y-234875568D01*
X130152077Y-234875568D02*
X130633632Y-234991179D01*
X182458679Y-230900650D02*
X182152532Y-230161546D01*
X182152532Y-230161546D02*
X182328509Y-230088654D01*
X182328509Y-230088654D02*
X182448674Y-230080114D01*
X182448674Y-230080114D02*
X182548221Y-230121348D01*
X182548221Y-230121348D02*
X182612574Y-230177160D01*
X182612574Y-230177160D02*
X182706083Y-230303364D01*
X182706083Y-230303364D02*
X182749818Y-230408950D01*
X182749818Y-230408950D02*
X182772936Y-230564310D01*
X182772936Y-230564310D02*
X182766898Y-230649279D01*
X182766898Y-230649279D02*
X182725664Y-230748827D01*
X182725664Y-230748827D02*
X182634656Y-230827758D01*
X182634656Y-230827758D02*
X182458679Y-230900650D01*
X183584932Y-230434140D02*
X183162587Y-230609081D01*
X183373759Y-230521611D02*
X183067613Y-229782507D01*
X183067613Y-229782507D02*
X183040957Y-229917250D01*
X183040957Y-229917250D02*
X182999723Y-230016798D01*
X182999723Y-230016798D02*
X182943911Y-230081150D01*
X183832336Y-229836854D02*
X183747367Y-229830816D01*
X183747367Y-229830816D02*
X183697593Y-229810199D01*
X183697593Y-229810199D02*
X183633241Y-229754386D01*
X183633241Y-229754386D02*
X183618662Y-229719191D01*
X183618662Y-229719191D02*
X183624701Y-229634222D01*
X183624701Y-229634222D02*
X183645318Y-229584448D01*
X183645318Y-229584448D02*
X183701130Y-229520096D01*
X183701130Y-229520096D02*
X183841912Y-229461782D01*
X183841912Y-229461782D02*
X183926881Y-229467820D01*
X183926881Y-229467820D02*
X183976655Y-229488437D01*
X183976655Y-229488437D02*
X184041007Y-229544250D01*
X184041007Y-229544250D02*
X184055586Y-229579445D01*
X184055586Y-229579445D02*
X184049547Y-229664415D01*
X184049547Y-229664415D02*
X184028930Y-229714188D01*
X184028930Y-229714188D02*
X183973118Y-229778541D01*
X183973118Y-229778541D02*
X183832336Y-229836854D01*
X183832336Y-229836854D02*
X183776524Y-229901207D01*
X183776524Y-229901207D02*
X183755907Y-229950980D01*
X183755907Y-229950980D02*
X183749868Y-230035950D01*
X183749868Y-230035950D02*
X183808182Y-230176731D01*
X183808182Y-230176731D02*
X183872534Y-230232544D01*
X183872534Y-230232544D02*
X183922308Y-230253161D01*
X183922308Y-230253161D02*
X184007277Y-230259199D01*
X184007277Y-230259199D02*
X184148059Y-230200886D01*
X184148059Y-230200886D02*
X184203871Y-230136533D01*
X184203871Y-230136533D02*
X184224488Y-230086759D01*
X184224488Y-230086759D02*
X184230527Y-230001790D01*
X184230527Y-230001790D02*
X184172213Y-229861009D01*
X184172213Y-229861009D02*
X184107861Y-229805196D01*
X184107861Y-229805196D02*
X184058087Y-229784579D01*
X184058087Y-229784579D02*
X183973118Y-229778541D01*
X92652923Y-215649022D02*
X93172482Y-215040697D01*
X93172482Y-215040697D02*
X93317321Y-215164401D01*
X93317321Y-215164401D02*
X93379483Y-215267592D01*
X93379483Y-215267592D02*
X93387937Y-215375009D01*
X93387937Y-215375009D02*
X93367424Y-215457686D01*
X93367424Y-215457686D02*
X93297428Y-215598298D01*
X93297428Y-215598298D02*
X93223205Y-215685202D01*
X93223205Y-215685202D02*
X93095274Y-215776332D01*
X93095274Y-215776332D02*
X93016824Y-215809527D01*
X93016824Y-215809527D02*
X92909407Y-215817981D01*
X92909407Y-215817981D02*
X92797762Y-215772726D01*
X92797762Y-215772726D02*
X92652923Y-215649022D01*
X93702357Y-215593450D02*
X93756065Y-215589223D01*
X93756065Y-215589223D02*
X93838742Y-215609737D01*
X93838742Y-215609737D02*
X93983581Y-215733441D01*
X93983581Y-215733441D02*
X94016776Y-215811891D01*
X94016776Y-215811891D02*
X94021003Y-215865600D01*
X94021003Y-215865600D02*
X94000489Y-215948276D01*
X94000489Y-215948276D02*
X93951007Y-216006212D01*
X93951007Y-216006212D02*
X93847817Y-216068375D01*
X93847817Y-216068375D02*
X93203312Y-216119098D01*
X93203312Y-216119098D02*
X93579894Y-216440730D01*
X94649842Y-216302482D02*
X94360163Y-216055073D01*
X94360163Y-216055073D02*
X94083787Y-216320011D01*
X94083787Y-216320011D02*
X94137496Y-216315784D01*
X94137496Y-216315784D02*
X94220172Y-216336298D01*
X94220172Y-216336298D02*
X94365011Y-216460002D01*
X94365011Y-216460002D02*
X94398206Y-216538452D01*
X94398206Y-216538452D02*
X94402433Y-216592160D01*
X94402433Y-216592160D02*
X94381919Y-216674837D01*
X94381919Y-216674837D02*
X94258215Y-216819676D01*
X94258215Y-216819676D02*
X94179765Y-216852871D01*
X94179765Y-216852871D02*
X94126057Y-216857098D01*
X94126057Y-216857098D02*
X94043380Y-216836584D01*
X94043380Y-216836584D02*
X93898541Y-216712880D01*
X93898541Y-216712880D02*
X93865346Y-216634430D01*
X93865346Y-216634430D02*
X93861119Y-216580721D01*
X93125533Y-84904332D02*
X92605975Y-84296007D01*
X92605975Y-84296007D02*
X92750814Y-84172303D01*
X92750814Y-84172303D02*
X92862459Y-84127048D01*
X92862459Y-84127048D02*
X92969876Y-84135502D01*
X92969876Y-84135502D02*
X93048326Y-84168697D01*
X93048326Y-84168697D02*
X93176257Y-84259827D01*
X93176257Y-84259827D02*
X93250480Y-84346731D01*
X93250480Y-84346731D02*
X93320475Y-84487343D01*
X93320475Y-84487343D02*
X93340989Y-84570019D01*
X93340989Y-84570019D02*
X93332535Y-84677437D01*
X93332535Y-84677437D02*
X93270373Y-84780627D01*
X93270373Y-84780627D02*
X93125533Y-84904332D01*
X93156364Y-83825930D02*
X93532946Y-83504299D01*
X93532946Y-83504299D02*
X93528098Y-83909228D01*
X93528098Y-83909228D02*
X93615002Y-83835005D01*
X93615002Y-83835005D02*
X93697678Y-83814491D01*
X93697678Y-83814491D02*
X93751387Y-83818718D01*
X93751387Y-83818718D02*
X93829836Y-83851913D01*
X93829836Y-83851913D02*
X93953541Y-83996752D01*
X93953541Y-83996752D02*
X93974055Y-84079429D01*
X93974055Y-84079429D02*
X93969828Y-84133138D01*
X93969828Y-84133138D02*
X93936633Y-84211587D01*
X93936633Y-84211587D02*
X93762826Y-84360032D01*
X93762826Y-84360032D02*
X93680149Y-84380546D01*
X93680149Y-84380546D02*
X93626441Y-84376319D01*
X94054367Y-83058963D02*
X93938496Y-83157926D01*
X93938496Y-83157926D02*
X93905301Y-83236376D01*
X93905301Y-83236376D02*
X93901074Y-83290085D01*
X93901074Y-83290085D02*
X93917361Y-83426470D01*
X93917361Y-83426470D02*
X93987357Y-83567082D01*
X93987357Y-83567082D02*
X94185284Y-83798825D01*
X94185284Y-83798825D02*
X94263733Y-83832020D01*
X94263733Y-83832020D02*
X94317442Y-83836247D01*
X94317442Y-83836247D02*
X94400119Y-83815733D01*
X94400119Y-83815733D02*
X94515990Y-83716769D01*
X94515990Y-83716769D02*
X94549185Y-83638320D01*
X94549185Y-83638320D02*
X94553412Y-83584611D01*
X94553412Y-83584611D02*
X94532898Y-83501935D01*
X94532898Y-83501935D02*
X94409194Y-83357095D01*
X94409194Y-83357095D02*
X94330744Y-83323900D01*
X94330744Y-83323900D02*
X94277035Y-83319674D01*
X94277035Y-83319674D02*
X94194359Y-83340187D01*
X94194359Y-83340187D02*
X94078487Y-83439151D01*
X94078487Y-83439151D02*
X94045293Y-83517601D01*
X94045293Y-83517601D02*
X94041066Y-83571309D01*
X94041066Y-83571309D02*
X94061579Y-83653986D01*
X103628730Y-223811833D02*
X104046729Y-223129721D01*
X104046729Y-223129721D02*
X104209137Y-223229244D01*
X104209137Y-223229244D02*
X104286677Y-223321440D01*
X104286677Y-223321440D02*
X104311830Y-223426212D01*
X104311830Y-223426212D02*
X104304503Y-223511080D01*
X104304503Y-223511080D02*
X104257365Y-223660911D01*
X104257365Y-223660911D02*
X104197651Y-223758356D01*
X104197651Y-223758356D02*
X104085551Y-223868377D01*
X104085551Y-223868377D02*
X104013260Y-223913435D01*
X104013260Y-223913435D02*
X103908487Y-223938589D01*
X103908487Y-223938589D02*
X103791138Y-223911356D01*
X103791138Y-223911356D02*
X103628730Y-223811833D01*
X104656550Y-223592778D02*
X104708937Y-223580201D01*
X104708937Y-223580201D02*
X104793804Y-223587529D01*
X104793804Y-223587529D02*
X104956212Y-223687053D01*
X104956212Y-223687053D02*
X105001270Y-223759344D01*
X105001270Y-223759344D02*
X105013847Y-223811730D01*
X105013847Y-223811730D02*
X105006519Y-223896598D01*
X105006519Y-223896598D02*
X104966710Y-223961561D01*
X104966710Y-223961561D02*
X104874514Y-224039100D01*
X104874514Y-224039100D02*
X104245880Y-224190022D01*
X104245880Y-224190022D02*
X104668139Y-224448784D01*
X105531473Y-224352327D02*
X105252807Y-224807068D01*
X105528303Y-223992951D02*
X105067325Y-224380651D01*
X105067325Y-224380651D02*
X105489585Y-224639412D01*
X128877294Y-66178867D02*
X128690537Y-65400971D01*
X128690537Y-65400971D02*
X128875751Y-65356505D01*
X128875751Y-65356505D02*
X128995772Y-65366868D01*
X128995772Y-65366868D02*
X129087643Y-65423167D01*
X129087643Y-65423167D02*
X129142472Y-65488360D01*
X129142472Y-65488360D02*
X129215088Y-65627637D01*
X129215088Y-65627637D02*
X129241767Y-65738765D01*
X129241767Y-65738765D02*
X129240297Y-65895829D01*
X129240297Y-65895829D02*
X129221041Y-65978807D01*
X129221041Y-65978807D02*
X129164742Y-66070679D01*
X129164742Y-66070679D02*
X129062507Y-66134401D01*
X129062507Y-66134401D02*
X128877294Y-66178867D01*
X129394348Y-65232001D02*
X129875903Y-65116390D01*
X129875903Y-65116390D02*
X129687749Y-65474983D01*
X129687749Y-65474983D02*
X129798877Y-65448304D01*
X129798877Y-65448304D02*
X129881856Y-65467560D01*
X129881856Y-65467560D02*
X129927792Y-65495710D01*
X129927792Y-65495710D02*
X129982620Y-65560902D01*
X129982620Y-65560902D02*
X130027086Y-65746115D01*
X130027086Y-65746115D02*
X130007830Y-65829094D01*
X130007830Y-65829094D02*
X129979680Y-65875030D01*
X129979680Y-65875030D02*
X129914488Y-65929859D01*
X129914488Y-65929859D02*
X129692232Y-65983217D01*
X129692232Y-65983217D02*
X129609254Y-65963961D01*
X129609254Y-65963961D02*
X129563318Y-65935812D01*
X130433086Y-65805354D02*
X130581256Y-65769782D01*
X130581256Y-65769782D02*
X130646449Y-65714953D01*
X130646449Y-65714953D02*
X130674598Y-65669017D01*
X130674598Y-65669017D02*
X130722004Y-65540103D01*
X130722004Y-65540103D02*
X130723474Y-65383039D01*
X130723474Y-65383039D02*
X130652329Y-65086697D01*
X130652329Y-65086697D02*
X130597500Y-65021505D01*
X130597500Y-65021505D02*
X130551564Y-64993356D01*
X130551564Y-64993356D02*
X130468585Y-64974099D01*
X130468585Y-64974099D02*
X130320415Y-65009672D01*
X130320415Y-65009672D02*
X130255223Y-65064501D01*
X130255223Y-65064501D02*
X130227073Y-65110437D01*
X130227073Y-65110437D02*
X130207817Y-65193415D01*
X130207817Y-65193415D02*
X130252283Y-65378629D01*
X130252283Y-65378629D02*
X130307112Y-65443821D01*
X130307112Y-65443821D02*
X130353047Y-65471970D01*
X130353047Y-65471970D02*
X130436026Y-65491227D01*
X130436026Y-65491227D02*
X130584196Y-65455654D01*
X130584196Y-65455654D02*
X130649389Y-65400825D01*
X130649389Y-65400825D02*
X130677538Y-65354889D01*
X130677538Y-65354889D02*
X130696795Y-65271911D01*
X236818940Y-157807230D02*
X236021406Y-157744463D01*
X236021406Y-157744463D02*
X236036350Y-157554574D01*
X236036350Y-157554574D02*
X236083295Y-157443630D01*
X236083295Y-157443630D02*
X236165228Y-157373652D01*
X236165228Y-157373652D02*
X236244173Y-157341652D01*
X236244173Y-157341652D02*
X236399073Y-157315630D01*
X236399073Y-157315630D02*
X236513006Y-157324597D01*
X236513006Y-157324597D02*
X236661929Y-157374530D01*
X236661929Y-157374530D02*
X236734895Y-157418486D01*
X236734895Y-157418486D02*
X236804873Y-157500419D01*
X236804873Y-157500419D02*
X236833884Y-157617341D01*
X236833884Y-157617341D02*
X236818940Y-157807230D01*
X236914585Y-156591941D02*
X236878718Y-157047674D01*
X236896652Y-156819808D02*
X236099118Y-156757040D01*
X236099118Y-156757040D02*
X236207073Y-156841963D01*
X236207073Y-156841963D02*
X236277051Y-156923896D01*
X236277051Y-156923896D02*
X236309051Y-157002841D01*
X236974363Y-155832384D02*
X236938496Y-156288118D01*
X236956430Y-156060251D02*
X236158896Y-155997484D01*
X236158896Y-155997484D02*
X236266852Y-156082406D01*
X236266852Y-156082406D02*
X236336829Y-156164340D01*
X236336829Y-156164340D02*
X236368829Y-156243284D01*
X75173025Y-194714709D02*
X75855137Y-194296710D01*
X75855137Y-194296710D02*
X75954660Y-194459118D01*
X75954660Y-194459118D02*
X75981893Y-194576467D01*
X75981893Y-194576467D02*
X75956739Y-194681240D01*
X75956739Y-194681240D02*
X75911681Y-194753531D01*
X75911681Y-194753531D02*
X75801660Y-194865631D01*
X75801660Y-194865631D02*
X75704215Y-194925345D01*
X75704215Y-194925345D02*
X75554384Y-194972482D01*
X75554384Y-194972482D02*
X75469516Y-194979810D01*
X75469516Y-194979810D02*
X75364744Y-194954657D01*
X75364744Y-194954657D02*
X75272548Y-194877117D01*
X75272548Y-194877117D02*
X75173025Y-194714709D01*
X76188268Y-194986150D02*
X76240654Y-194998727D01*
X76240654Y-194998727D02*
X76312945Y-195043785D01*
X76312945Y-195043785D02*
X76412469Y-195206193D01*
X76412469Y-195206193D02*
X76419797Y-195291061D01*
X76419797Y-195291061D02*
X76407220Y-195343447D01*
X76407220Y-195343447D02*
X76362161Y-195415738D01*
X76362161Y-195415738D02*
X76297198Y-195455547D01*
X76297198Y-195455547D02*
X76179849Y-195482780D01*
X76179849Y-195482780D02*
X75551214Y-195331858D01*
X75551214Y-195331858D02*
X75809975Y-195754118D01*
X76631421Y-195563490D02*
X76910086Y-196018232D01*
X76910086Y-196018232D02*
X76048832Y-196143897D01*
X194659297Y-75992547D02*
X195077296Y-75310435D01*
X195077296Y-75310435D02*
X195239704Y-75409959D01*
X195239704Y-75409959D02*
X195317244Y-75502154D01*
X195317244Y-75502154D02*
X195342397Y-75606927D01*
X195342397Y-75606927D02*
X195335069Y-75691795D01*
X195335069Y-75691795D02*
X195287932Y-75841625D01*
X195287932Y-75841625D02*
X195228218Y-75939070D01*
X195228218Y-75939070D02*
X195116118Y-76049091D01*
X195116118Y-76049091D02*
X195043827Y-76094150D01*
X195043827Y-76094150D02*
X194939054Y-76119303D01*
X194939054Y-76119303D02*
X194821705Y-76092071D01*
X194821705Y-76092071D02*
X194659297Y-75992547D01*
X195912409Y-76134947D02*
X195633743Y-76589689D01*
X195909239Y-75775571D02*
X195448261Y-76163271D01*
X195448261Y-76163271D02*
X195870521Y-76422032D01*
X156193045Y-63783980D02*
X156255812Y-62986446D01*
X156255812Y-62986446D02*
X156445701Y-63001391D01*
X156445701Y-63001391D02*
X156556646Y-63048335D01*
X156556646Y-63048335D02*
X156626624Y-63130269D01*
X156626624Y-63130269D02*
X156658624Y-63209213D01*
X156658624Y-63209213D02*
X156684646Y-63364113D01*
X156684646Y-63364113D02*
X156675679Y-63478047D01*
X156675679Y-63478047D02*
X156625746Y-63626969D01*
X156625746Y-63626969D02*
X156581790Y-63699936D01*
X156581790Y-63699936D02*
X156499857Y-63769913D01*
X156499857Y-63769913D02*
X156382934Y-63798924D01*
X156382934Y-63798924D02*
X156193045Y-63783980D01*
X157408335Y-63879625D02*
X156952601Y-63843758D01*
X157180468Y-63861692D02*
X157243235Y-63064158D01*
X157243235Y-63064158D02*
X157158313Y-63172113D01*
X157158313Y-63172113D02*
X157076380Y-63242091D01*
X157076380Y-63242091D02*
X156997435Y-63274091D01*
X223811833Y-196371268D02*
X223129721Y-195953269D01*
X223129721Y-195953269D02*
X223229244Y-195790861D01*
X223229244Y-195790861D02*
X223321440Y-195713321D01*
X223321440Y-195713321D02*
X223426212Y-195688168D01*
X223426212Y-195688168D02*
X223511080Y-195695495D01*
X223511080Y-195695495D02*
X223660911Y-195742633D01*
X223660911Y-195742633D02*
X223758356Y-195802347D01*
X223758356Y-195802347D02*
X223868377Y-195914447D01*
X223868377Y-195914447D02*
X223913435Y-195986738D01*
X223913435Y-195986738D02*
X223938589Y-196091511D01*
X223938589Y-196091511D02*
X223911356Y-196208860D01*
X223911356Y-196208860D02*
X223811833Y-196371268D01*
X224448784Y-195331859D02*
X224209927Y-195721637D01*
X224329355Y-195526748D02*
X223647243Y-195108749D01*
X223647243Y-195108749D02*
X223704878Y-195233426D01*
X223704878Y-195233426D02*
X223730032Y-195338199D01*
X223730032Y-195338199D02*
X223722704Y-195423066D01*
X224352327Y-194468525D02*
X224807068Y-194747191D01*
X223992951Y-194471695D02*
X224380651Y-194932673D01*
X224380651Y-194932673D02*
X224639412Y-194510413D01*
X65725316Y-130766470D02*
X64947420Y-130579714D01*
X64947420Y-130579714D02*
X64991886Y-130394500D01*
X64991886Y-130394500D02*
X65055608Y-130292266D01*
X65055608Y-130292266D02*
X65147479Y-130235967D01*
X65147479Y-130235967D02*
X65230458Y-130216710D01*
X65230458Y-130216710D02*
X65387522Y-130215240D01*
X65387522Y-130215240D02*
X65498650Y-130241920D01*
X65498650Y-130241920D02*
X65637927Y-130314535D01*
X65637927Y-130314535D02*
X65703119Y-130369364D01*
X65703119Y-130369364D02*
X65759418Y-130461236D01*
X65759418Y-130461236D02*
X65769782Y-130581257D01*
X65769782Y-130581257D02*
X65725316Y-130766470D01*
X65116390Y-129875903D02*
X65232001Y-129394348D01*
X65232001Y-129394348D02*
X65466090Y-129724792D01*
X65466090Y-129724792D02*
X65492770Y-129613664D01*
X65492770Y-129613664D02*
X65547599Y-129548472D01*
X65547599Y-129548472D02*
X65593534Y-129520323D01*
X65593534Y-129520323D02*
X65676513Y-129501066D01*
X65676513Y-129501066D02*
X65861726Y-129545532D01*
X65861726Y-129545532D02*
X65926918Y-129600361D01*
X65926918Y-129600361D02*
X65955068Y-129646297D01*
X65955068Y-129646297D02*
X65974324Y-129729275D01*
X65974324Y-129729275D02*
X65920965Y-129951531D01*
X65920965Y-129951531D02*
X65866136Y-130016724D01*
X65866136Y-130016724D02*
X65820200Y-130044873D01*
X65377232Y-129115793D02*
X65349082Y-129069857D01*
X65349082Y-129069857D02*
X65329826Y-128986879D01*
X65329826Y-128986879D02*
X65374291Y-128801666D01*
X65374291Y-128801666D02*
X65429120Y-128736473D01*
X65429120Y-128736473D02*
X65475056Y-128708324D01*
X65475056Y-128708324D02*
X65558035Y-128689068D01*
X65558035Y-128689068D02*
X65632120Y-128706854D01*
X65632120Y-128706854D02*
X65734355Y-128770576D01*
X65734355Y-128770576D02*
X66072149Y-129321806D01*
X66072149Y-129321806D02*
X66187760Y-128840251D01*
X229630618Y-116376790D02*
X230369721Y-116070644D01*
X230369721Y-116070644D02*
X230442613Y-116246621D01*
X230442613Y-116246621D02*
X230451153Y-116366785D01*
X230451153Y-116366785D02*
X230409919Y-116466333D01*
X230409919Y-116466333D02*
X230354107Y-116530685D01*
X230354107Y-116530685D02*
X230227904Y-116624194D01*
X230227904Y-116624194D02*
X230122317Y-116667930D01*
X230122317Y-116667930D02*
X229966957Y-116691048D01*
X229966957Y-116691048D02*
X229881988Y-116685009D01*
X229881988Y-116685009D02*
X229782441Y-116643775D01*
X229782441Y-116643775D02*
X229703510Y-116552767D01*
X229703510Y-116552767D02*
X229630618Y-116376790D01*
X230402845Y-117046539D02*
X230408883Y-116961570D01*
X230408883Y-116961570D02*
X230429500Y-116911796D01*
X230429500Y-116911796D02*
X230485313Y-116847444D01*
X230485313Y-116847444D02*
X230520508Y-116832865D01*
X230520508Y-116832865D02*
X230605477Y-116838904D01*
X230605477Y-116838904D02*
X230655251Y-116859521D01*
X230655251Y-116859521D02*
X230719603Y-116915333D01*
X230719603Y-116915333D02*
X230777917Y-117056115D01*
X230777917Y-117056115D02*
X230771878Y-117141084D01*
X230771878Y-117141084D02*
X230751261Y-117190858D01*
X230751261Y-117190858D02*
X230695449Y-117255210D01*
X230695449Y-117255210D02*
X230660254Y-117269789D01*
X230660254Y-117269789D02*
X230575284Y-117263750D01*
X230575284Y-117263750D02*
X230525511Y-117243133D01*
X230525511Y-117243133D02*
X230461158Y-117187321D01*
X230461158Y-117187321D02*
X230402845Y-117046539D01*
X230402845Y-117046539D02*
X230338492Y-116990727D01*
X230338492Y-116990727D02*
X230288719Y-116970110D01*
X230288719Y-116970110D02*
X230203749Y-116964071D01*
X230203749Y-116964071D02*
X230062968Y-117022385D01*
X230062968Y-117022385D02*
X230007155Y-117086737D01*
X230007155Y-117086737D02*
X229986538Y-117136511D01*
X229986538Y-117136511D02*
X229980500Y-117221480D01*
X229980500Y-117221480D02*
X230038813Y-117362262D01*
X230038813Y-117362262D02*
X230103166Y-117418074D01*
X230103166Y-117418074D02*
X230152940Y-117438691D01*
X230152940Y-117438691D02*
X230237909Y-117444730D01*
X230237909Y-117444730D02*
X230378690Y-117386416D01*
X230378690Y-117386416D02*
X230434503Y-117322064D01*
X230434503Y-117322064D02*
X230455120Y-117272290D01*
X230455120Y-117272290D02*
X230461158Y-117187321D01*
X142192768Y-236818940D02*
X142255535Y-236021406D01*
X142255535Y-236021406D02*
X142445424Y-236036350D01*
X142445424Y-236036350D02*
X142556368Y-236083295D01*
X142556368Y-236083295D02*
X142626346Y-236165228D01*
X142626346Y-236165228D02*
X142658346Y-236244173D01*
X142658346Y-236244173D02*
X142684368Y-236399073D01*
X142684368Y-236399073D02*
X142675401Y-236513006D01*
X142675401Y-236513006D02*
X142625468Y-236661929D01*
X142625468Y-236661929D02*
X142581512Y-236734895D01*
X142581512Y-236734895D02*
X142499579Y-236804873D01*
X142499579Y-236804873D02*
X142382657Y-236833884D01*
X142382657Y-236833884D02*
X142192768Y-236818940D01*
X143009113Y-236157140D02*
X143050080Y-236122151D01*
X143050080Y-236122151D02*
X143129024Y-236090151D01*
X143129024Y-236090151D02*
X143318913Y-236105096D01*
X143318913Y-236105096D02*
X143391880Y-236149051D01*
X143391880Y-236149051D02*
X143426869Y-236190018D01*
X143426869Y-236190018D02*
X143458869Y-236268962D01*
X143458869Y-236268962D02*
X143452891Y-236344918D01*
X143452891Y-236344918D02*
X143405946Y-236455862D01*
X143405946Y-236455862D02*
X142914346Y-236875729D01*
X142914346Y-236875729D02*
X143408057Y-236914585D01*
X144167614Y-236974363D02*
X143711880Y-236938496D01*
X143939747Y-236956430D02*
X144002514Y-236158896D01*
X144002514Y-236158896D02*
X143917592Y-236266852D01*
X143917592Y-236266852D02*
X143835658Y-236336829D01*
X143835658Y-236336829D02*
X143756714Y-236368829D01*
X205869714Y-216910807D02*
X205350156Y-216302482D01*
X205350156Y-216302482D02*
X205494995Y-216178778D01*
X205494995Y-216178778D02*
X205606640Y-216133523D01*
X205606640Y-216133523D02*
X205714057Y-216141977D01*
X205714057Y-216141977D02*
X205792507Y-216175172D01*
X205792507Y-216175172D02*
X205920438Y-216266302D01*
X205920438Y-216266302D02*
X205994661Y-216353206D01*
X205994661Y-216353206D02*
X206064656Y-216493818D01*
X206064656Y-216493818D02*
X206085170Y-216576494D01*
X206085170Y-216576494D02*
X206076716Y-216683912D01*
X206076716Y-216683912D02*
X206014554Y-216787102D01*
X206014554Y-216787102D02*
X205869714Y-216910807D01*
X206796685Y-216119099D02*
X206449071Y-216415989D01*
X206622878Y-216267544D02*
X206103320Y-215659219D01*
X206103320Y-215659219D02*
X206119607Y-215795604D01*
X206119607Y-215795604D02*
X206111153Y-215903022D01*
X206111153Y-215903022D02*
X206077958Y-215981471D01*
X206798548Y-215065438D02*
X206682677Y-215164401D01*
X206682677Y-215164401D02*
X206649482Y-215242851D01*
X206649482Y-215242851D02*
X206645255Y-215296560D01*
X206645255Y-215296560D02*
X206661542Y-215432945D01*
X206661542Y-215432945D02*
X206731538Y-215573557D01*
X206731538Y-215573557D02*
X206929465Y-215805300D01*
X206929465Y-215805300D02*
X207007914Y-215838495D01*
X207007914Y-215838495D02*
X207061623Y-215842722D01*
X207061623Y-215842722D02*
X207144300Y-215822208D01*
X207144300Y-215822208D02*
X207260171Y-215723244D01*
X207260171Y-215723244D02*
X207293366Y-215644795D01*
X207293366Y-215644795D02*
X207297593Y-215591086D01*
X207297593Y-215591086D02*
X207277079Y-215508410D01*
X207277079Y-215508410D02*
X207153375Y-215363570D01*
X207153375Y-215363570D02*
X207074925Y-215330375D01*
X207074925Y-215330375D02*
X207021216Y-215326149D01*
X207021216Y-215326149D02*
X206938540Y-215346662D01*
X206938540Y-215346662D02*
X206822668Y-215445626D01*
X206822668Y-215445626D02*
X206789474Y-215524076D01*
X206789474Y-215524076D02*
X206785247Y-215577784D01*
X206785247Y-215577784D02*
X206805760Y-215660461D01*
X234528735Y-171292585D02*
X233750839Y-171105829D01*
X233750839Y-171105829D02*
X233795305Y-170920615D01*
X233795305Y-170920615D02*
X233859027Y-170818381D01*
X233859027Y-170818381D02*
X233950898Y-170762082D01*
X233950898Y-170762082D02*
X234033877Y-170742825D01*
X234033877Y-170742825D02*
X234190941Y-170741355D01*
X234190941Y-170741355D02*
X234302069Y-170768035D01*
X234302069Y-170768035D02*
X234441346Y-170840650D01*
X234441346Y-170840650D02*
X234506538Y-170895479D01*
X234506538Y-170895479D02*
X234562837Y-170987351D01*
X234562837Y-170987351D02*
X234573201Y-171107372D01*
X234573201Y-171107372D02*
X234528735Y-171292585D01*
X234813316Y-170107220D02*
X234706598Y-170551732D01*
X234759957Y-170329476D02*
X233982061Y-170142719D01*
X233982061Y-170142719D02*
X234075403Y-170243484D01*
X234075403Y-170243484D02*
X234131702Y-170335356D01*
X234131702Y-170335356D02*
X234150958Y-170418334D01*
X234180651Y-169641908D02*
X234152501Y-169595972D01*
X234152501Y-169595972D02*
X234133245Y-169512994D01*
X234133245Y-169512994D02*
X234177710Y-169327781D01*
X234177710Y-169327781D02*
X234232539Y-169262588D01*
X234232539Y-169262588D02*
X234278475Y-169234439D01*
X234278475Y-169234439D02*
X234361454Y-169215183D01*
X234361454Y-169215183D02*
X234435539Y-169232969D01*
X234435539Y-169232969D02*
X234537774Y-169296691D01*
X234537774Y-169296691D02*
X234875568Y-169847921D01*
X234875568Y-169847921D02*
X234991179Y-169366366D01*
X236093472Y-142249863D02*
X236891006Y-142187096D01*
X236891006Y-142187096D02*
X236905951Y-142376985D01*
X236905951Y-142376985D02*
X236876940Y-142493907D01*
X236876940Y-142493907D02*
X236806962Y-142575841D01*
X236806962Y-142575841D02*
X236733995Y-142619796D01*
X236733995Y-142619796D02*
X236585073Y-142669730D01*
X236585073Y-142669730D02*
X236471140Y-142678696D01*
X236471140Y-142678696D02*
X236316240Y-142652674D01*
X236316240Y-142652674D02*
X236237295Y-142620674D01*
X236237295Y-142620674D02*
X236155362Y-142550697D01*
X236155362Y-142550697D02*
X236108417Y-142439752D01*
X236108417Y-142439752D02*
X236093472Y-142249863D01*
X236189118Y-143465153D02*
X236153251Y-143009419D01*
X236171184Y-143237286D02*
X236968718Y-143174519D01*
X236968718Y-143174519D02*
X236848807Y-143107530D01*
X236848807Y-143107530D02*
X236766874Y-143037552D01*
X236766874Y-143037552D02*
X236722918Y-142964585D01*
X237025508Y-143896097D02*
X237031486Y-143972053D01*
X237031486Y-143972053D02*
X236999486Y-144050997D01*
X236999486Y-144050997D02*
X236964497Y-144091964D01*
X236964497Y-144091964D02*
X236891530Y-144135920D01*
X236891530Y-144135920D02*
X236742608Y-144185853D01*
X236742608Y-144185853D02*
X236552719Y-144200798D01*
X236552719Y-144200798D02*
X236397819Y-144174776D01*
X236397819Y-144174776D02*
X236318874Y-144142776D01*
X236318874Y-144142776D02*
X236277907Y-144107787D01*
X236277907Y-144107787D02*
X236233952Y-144034820D01*
X236233952Y-144034820D02*
X236227974Y-143958864D01*
X236227974Y-143958864D02*
X236259974Y-143879920D01*
X236259974Y-143879920D02*
X236294963Y-143838953D01*
X236294963Y-143838953D02*
X236367929Y-143794998D01*
X236367929Y-143794998D02*
X236516852Y-143745064D01*
X236516852Y-143745064D02*
X236706741Y-143730119D01*
X236706741Y-143730119D02*
X236861641Y-143756142D01*
X236861641Y-143756142D02*
X236940585Y-143788142D01*
X236940585Y-143788142D02*
X236981552Y-143823130D01*
X236981552Y-143823130D02*
X237025508Y-143896097D01*
X83089191Y-205869714D02*
X83697516Y-205350156D01*
X83697516Y-205350156D02*
X83821220Y-205494995D01*
X83821220Y-205494995D02*
X83866475Y-205606640D01*
X83866475Y-205606640D02*
X83858021Y-205714057D01*
X83858021Y-205714057D02*
X83824826Y-205792507D01*
X83824826Y-205792507D02*
X83733696Y-205920438D01*
X83733696Y-205920438D02*
X83646792Y-205994661D01*
X83646792Y-205994661D02*
X83506180Y-206064656D01*
X83506180Y-206064656D02*
X83423504Y-206085170D01*
X83423504Y-206085170D02*
X83316086Y-206076716D01*
X83316086Y-206076716D02*
X83212896Y-206014554D01*
X83212896Y-206014554D02*
X83089191Y-205869714D01*
X84134398Y-205978995D02*
X84188107Y-205983222D01*
X84188107Y-205983222D02*
X84266556Y-206016416D01*
X84266556Y-206016416D02*
X84390261Y-206161256D01*
X84390261Y-206161256D02*
X84410775Y-206243932D01*
X84410775Y-206243932D02*
X84406548Y-206297641D01*
X84406548Y-206297641D02*
X84373353Y-206376090D01*
X84373353Y-206376090D02*
X84315417Y-206425572D01*
X84315417Y-206425572D02*
X84203773Y-206470827D01*
X84203773Y-206470827D02*
X83559268Y-206420103D01*
X83559268Y-206420103D02*
X83880899Y-206796685D01*
X84934560Y-206798548D02*
X84835597Y-206682677D01*
X84835597Y-206682677D02*
X84757147Y-206649482D01*
X84757147Y-206649482D02*
X84703438Y-206645255D01*
X84703438Y-206645255D02*
X84567053Y-206661542D01*
X84567053Y-206661542D02*
X84426441Y-206731538D01*
X84426441Y-206731538D02*
X84194698Y-206929465D01*
X84194698Y-206929465D02*
X84161503Y-207007914D01*
X84161503Y-207007914D02*
X84157276Y-207061623D01*
X84157276Y-207061623D02*
X84177790Y-207144300D01*
X84177790Y-207144300D02*
X84276754Y-207260171D01*
X84276754Y-207260171D02*
X84355203Y-207293366D01*
X84355203Y-207293366D02*
X84408912Y-207297593D01*
X84408912Y-207297593D02*
X84491588Y-207277079D01*
X84491588Y-207277079D02*
X84636428Y-207153375D01*
X84636428Y-207153375D02*
X84669623Y-207074925D01*
X84669623Y-207074925D02*
X84673849Y-207021216D01*
X84673849Y-207021216D02*
X84653336Y-206938540D01*
X84653336Y-206938540D02*
X84554372Y-206822668D01*
X84554372Y-206822668D02*
X84475922Y-206789474D01*
X84475922Y-206789474D02*
X84422214Y-206785247D01*
X84422214Y-206785247D02*
X84339537Y-206805760D01*
X69099348Y-182458679D02*
X69838452Y-182152532D01*
X69838452Y-182152532D02*
X69911344Y-182328509D01*
X69911344Y-182328509D02*
X69919884Y-182448674D01*
X69919884Y-182448674D02*
X69878650Y-182548221D01*
X69878650Y-182548221D02*
X69822838Y-182612574D01*
X69822838Y-182612574D02*
X69696634Y-182706083D01*
X69696634Y-182706083D02*
X69591048Y-182749818D01*
X69591048Y-182749818D02*
X69435688Y-182772936D01*
X69435688Y-182772936D02*
X69350719Y-182766898D01*
X69350719Y-182766898D02*
X69251171Y-182725664D01*
X69251171Y-182725664D02*
X69172240Y-182634656D01*
X69172240Y-182634656D02*
X69099348Y-182458679D01*
X70059630Y-182885597D02*
X70109403Y-182906214D01*
X70109403Y-182906214D02*
X70173756Y-182962026D01*
X70173756Y-182962026D02*
X70246648Y-183138003D01*
X70246648Y-183138003D02*
X70240609Y-183222973D01*
X70240609Y-183222973D02*
X70219992Y-183272746D01*
X70219992Y-183272746D02*
X70164180Y-183337099D01*
X70164180Y-183337099D02*
X70093789Y-183366256D01*
X70093789Y-183366256D02*
X69973624Y-183374795D01*
X69973624Y-183374795D02*
X69376338Y-183127391D01*
X69376338Y-183127391D02*
X69565858Y-183584932D01*
X70163144Y-183832336D02*
X70169182Y-183747367D01*
X70169182Y-183747367D02*
X70189799Y-183697593D01*
X70189799Y-183697593D02*
X70245612Y-183633241D01*
X70245612Y-183633241D02*
X70280807Y-183618662D01*
X70280807Y-183618662D02*
X70365776Y-183624701D01*
X70365776Y-183624701D02*
X70415550Y-183645318D01*
X70415550Y-183645318D02*
X70479902Y-183701130D01*
X70479902Y-183701130D02*
X70538216Y-183841912D01*
X70538216Y-183841912D02*
X70532178Y-183926881D01*
X70532178Y-183926881D02*
X70511561Y-183976655D01*
X70511561Y-183976655D02*
X70455748Y-184041007D01*
X70455748Y-184041007D02*
X70420553Y-184055586D01*
X70420553Y-184055586D02*
X70335583Y-184049547D01*
X70335583Y-184049547D02*
X70285810Y-184028930D01*
X70285810Y-184028930D02*
X70221457Y-183973118D01*
X70221457Y-183973118D02*
X70163144Y-183832336D01*
X70163144Y-183832336D02*
X70098791Y-183776524D01*
X70098791Y-183776524D02*
X70049018Y-183755907D01*
X70049018Y-183755907D02*
X69964048Y-183749868D01*
X69964048Y-183749868D02*
X69823267Y-183808182D01*
X69823267Y-183808182D02*
X69767454Y-183872534D01*
X69767454Y-183872534D02*
X69746837Y-183922308D01*
X69746837Y-183922308D02*
X69740799Y-184007277D01*
X69740799Y-184007277D02*
X69799112Y-184148059D01*
X69799112Y-184148059D02*
X69863465Y-184203871D01*
X69863465Y-184203871D02*
X69913239Y-184224488D01*
X69913239Y-184224488D02*
X69998208Y-184230527D01*
X69998208Y-184230527D02*
X70138989Y-184172213D01*
X70138989Y-184172213D02*
X70194802Y-184107861D01*
X70194802Y-184107861D02*
X70215419Y-184058087D01*
X70215419Y-184058087D02*
X70221457Y-183973118D01*
X63028623Y-155870362D02*
X63826157Y-155807595D01*
X63826157Y-155807595D02*
X63841102Y-155997484D01*
X63841102Y-155997484D02*
X63812091Y-156114406D01*
X63812091Y-156114406D02*
X63742113Y-156196340D01*
X63742113Y-156196340D02*
X63669146Y-156240295D01*
X63669146Y-156240295D02*
X63520224Y-156290229D01*
X63520224Y-156290229D02*
X63406291Y-156299195D01*
X63406291Y-156299195D02*
X63251391Y-156273173D01*
X63251391Y-156273173D02*
X63172446Y-156241173D01*
X63172446Y-156241173D02*
X63090513Y-156171196D01*
X63090513Y-156171196D02*
X63043568Y-156060251D01*
X63043568Y-156060251D02*
X63028623Y-155870362D01*
X63882947Y-156529173D02*
X63921803Y-157022884D01*
X63921803Y-157022884D02*
X63597058Y-156780951D01*
X63597058Y-156780951D02*
X63606025Y-156894885D01*
X63606025Y-156894885D02*
X63574025Y-156973829D01*
X63574025Y-156973829D02*
X63539036Y-157014796D01*
X63539036Y-157014796D02*
X63466069Y-157058751D01*
X63466069Y-157058751D02*
X63276180Y-157073696D01*
X63276180Y-157073696D02*
X63197236Y-157041696D01*
X63197236Y-157041696D02*
X63156269Y-157006707D01*
X63156269Y-157006707D02*
X63112313Y-156933741D01*
X63112313Y-156933741D02*
X63094380Y-156705874D01*
X63094380Y-156705874D02*
X63126380Y-156626929D01*
X63126380Y-156626929D02*
X63161369Y-156585962D01*
X63960659Y-157516596D02*
X63966637Y-157592552D01*
X63966637Y-157592552D02*
X63934637Y-157671496D01*
X63934637Y-157671496D02*
X63899648Y-157712463D01*
X63899648Y-157712463D02*
X63826681Y-157756419D01*
X63826681Y-157756419D02*
X63677759Y-157806352D01*
X63677759Y-157806352D02*
X63487870Y-157821297D01*
X63487870Y-157821297D02*
X63332970Y-157795275D01*
X63332970Y-157795275D02*
X63254025Y-157763275D01*
X63254025Y-157763275D02*
X63213058Y-157728286D01*
X63213058Y-157728286D02*
X63169103Y-157655319D01*
X63169103Y-157655319D02*
X63163125Y-157579363D01*
X63163125Y-157579363D02*
X63195125Y-157500419D01*
X63195125Y-157500419D02*
X63230114Y-157459452D01*
X63230114Y-157459452D02*
X63303080Y-157415497D01*
X63303080Y-157415497D02*
X63452003Y-157365563D01*
X63452003Y-157365563D02*
X63641892Y-157350618D01*
X63641892Y-157350618D02*
X63796792Y-157376641D01*
X63796792Y-157376641D02*
X63875736Y-157408641D01*
X63875736Y-157408641D02*
X63916703Y-157443629D01*
X63916703Y-157443629D02*
X63960659Y-157516596D01*
D10*
X149666666Y-53254819D02*
X149666666Y-53969104D01*
X149666666Y-53969104D02*
X149619047Y-54111961D01*
X149619047Y-54111961D02*
X149523809Y-54207200D01*
X149523809Y-54207200D02*
X149380952Y-54254819D01*
X149380952Y-54254819D02*
X149285714Y-54254819D01*
X150666666Y-54254819D02*
X150095238Y-54254819D01*
X150380952Y-54254819D02*
X150380952Y-53254819D01*
X150380952Y-53254819D02*
X150285714Y-53397676D01*
X150285714Y-53397676D02*
X150190476Y-53492914D01*
X150190476Y-53492914D02*
X150095238Y-53540533D01*
D13*
X116024836Y-70515165D02*
X115718689Y-69776061D01*
X115718689Y-69776061D02*
X115894666Y-69703169D01*
X115894666Y-69703169D02*
X116014831Y-69694629D01*
X116014831Y-69694629D02*
X116114378Y-69735863D01*
X116114378Y-69735863D02*
X116178731Y-69791675D01*
X116178731Y-69791675D02*
X116272240Y-69917879D01*
X116272240Y-69917879D02*
X116315975Y-70023465D01*
X116315975Y-70023465D02*
X116339093Y-70178825D01*
X116339093Y-70178825D02*
X116333055Y-70263794D01*
X116333055Y-70263794D02*
X116291821Y-70363342D01*
X116291821Y-70363342D02*
X116200813Y-70442273D01*
X116200813Y-70442273D02*
X116024836Y-70515165D01*
X116387402Y-69499071D02*
X116844942Y-69309552D01*
X116844942Y-69309552D02*
X116715202Y-69693164D01*
X116715202Y-69693164D02*
X116820788Y-69649429D01*
X116820788Y-69649429D02*
X116905757Y-69655467D01*
X116905757Y-69655467D02*
X116955531Y-69676084D01*
X116955531Y-69676084D02*
X117019883Y-69731897D01*
X117019883Y-69731897D02*
X117092775Y-69907874D01*
X117092775Y-69907874D02*
X117086737Y-69992843D01*
X117086737Y-69992843D02*
X117066120Y-70042617D01*
X117066120Y-70042617D02*
X117010307Y-70106969D01*
X117010307Y-70106969D02*
X116799135Y-70194439D01*
X116799135Y-70194439D02*
X116714165Y-70188401D01*
X116714165Y-70188401D02*
X116664392Y-70167784D01*
X117398493Y-69451369D02*
X117313524Y-69445331D01*
X117313524Y-69445331D02*
X117263750Y-69424714D01*
X117263750Y-69424714D02*
X117199398Y-69368901D01*
X117199398Y-69368901D02*
X117184819Y-69333706D01*
X117184819Y-69333706D02*
X117190858Y-69248737D01*
X117190858Y-69248737D02*
X117211475Y-69198963D01*
X117211475Y-69198963D02*
X117267287Y-69134611D01*
X117267287Y-69134611D02*
X117408069Y-69076297D01*
X117408069Y-69076297D02*
X117493038Y-69082335D01*
X117493038Y-69082335D02*
X117542812Y-69102952D01*
X117542812Y-69102952D02*
X117607164Y-69158765D01*
X117607164Y-69158765D02*
X117621743Y-69193960D01*
X117621743Y-69193960D02*
X117615704Y-69278930D01*
X117615704Y-69278930D02*
X117595087Y-69328703D01*
X117595087Y-69328703D02*
X117539275Y-69393056D01*
X117539275Y-69393056D02*
X117398493Y-69451369D01*
X117398493Y-69451369D02*
X117342681Y-69515722D01*
X117342681Y-69515722D02*
X117322064Y-69565495D01*
X117322064Y-69565495D02*
X117316025Y-69650465D01*
X117316025Y-69650465D02*
X117374339Y-69791246D01*
X117374339Y-69791246D02*
X117438691Y-69847059D01*
X117438691Y-69847059D02*
X117488465Y-69867676D01*
X117488465Y-69867676D02*
X117573434Y-69873714D01*
X117573434Y-69873714D02*
X117714216Y-69815401D01*
X117714216Y-69815401D02*
X117770028Y-69751048D01*
X117770028Y-69751048D02*
X117790645Y-69701274D01*
X117790645Y-69701274D02*
X117796684Y-69616305D01*
X117796684Y-69616305D02*
X117738370Y-69475524D01*
X117738370Y-69475524D02*
X117674018Y-69419711D01*
X117674018Y-69419711D02*
X117624244Y-69399094D01*
X117624244Y-69399094D02*
X117539275Y-69393056D01*
X169603955Y-65814248D02*
X169790712Y-65036352D01*
X169790712Y-65036352D02*
X169975925Y-65080817D01*
X169975925Y-65080817D02*
X170078160Y-65144540D01*
X170078160Y-65144540D02*
X170134459Y-65236411D01*
X170134459Y-65236411D02*
X170153715Y-65319390D01*
X170153715Y-65319390D02*
X170155185Y-65476453D01*
X170155185Y-65476453D02*
X170128506Y-65587581D01*
X170128506Y-65587581D02*
X170055890Y-65726859D01*
X170055890Y-65726859D02*
X170001061Y-65792051D01*
X170001061Y-65792051D02*
X169909190Y-65848350D01*
X169909190Y-65848350D02*
X169789169Y-65858713D01*
X169789169Y-65858713D02*
X169603955Y-65814248D01*
X170513779Y-65288300D02*
X170559714Y-65260151D01*
X170559714Y-65260151D02*
X170642693Y-65240894D01*
X170642693Y-65240894D02*
X170827906Y-65285360D01*
X170827906Y-65285360D02*
X170893098Y-65340189D01*
X170893098Y-65340189D02*
X170921248Y-65386125D01*
X170921248Y-65386125D02*
X170940504Y-65469103D01*
X170940504Y-65469103D02*
X170922718Y-65543189D01*
X170922718Y-65543189D02*
X170858996Y-65645423D01*
X170858996Y-65645423D02*
X170307766Y-65983218D01*
X170307766Y-65983218D02*
X170789321Y-66098829D01*
X194714709Y-224826973D02*
X194296710Y-224144861D01*
X194296710Y-224144861D02*
X194459118Y-224045338D01*
X194459118Y-224045338D02*
X194576467Y-224018105D01*
X194576467Y-224018105D02*
X194681240Y-224043259D01*
X194681240Y-224043259D02*
X194753531Y-224088317D01*
X194753531Y-224088317D02*
X194865631Y-224198338D01*
X194865631Y-224198338D02*
X194925345Y-224295783D01*
X194925345Y-224295783D02*
X194972482Y-224445614D01*
X194972482Y-224445614D02*
X194979810Y-224530482D01*
X194979810Y-224530482D02*
X194954657Y-224635254D01*
X194954657Y-224635254D02*
X194877117Y-224727450D01*
X194877117Y-224727450D02*
X194714709Y-224826973D01*
X195754118Y-224190023D02*
X195364340Y-224428879D01*
X195559229Y-224309451D02*
X195141230Y-223627339D01*
X195141230Y-223627339D02*
X195135981Y-223764593D01*
X195135981Y-223764593D02*
X195110827Y-223869365D01*
X195110827Y-223869365D02*
X195065769Y-223941656D01*
X195563490Y-223368577D02*
X196018232Y-223089912D01*
X196018232Y-223089912D02*
X196143897Y-223951166D01*
X69771665Y-117819802D02*
X69032562Y-117513655D01*
X69032562Y-117513655D02*
X69105454Y-117337678D01*
X69105454Y-117337678D02*
X69184384Y-117246670D01*
X69184384Y-117246670D02*
X69283932Y-117205436D01*
X69283932Y-117205436D02*
X69368901Y-117199398D01*
X69368901Y-117199398D02*
X69524261Y-117222516D01*
X69524261Y-117222516D02*
X69629847Y-117266251D01*
X69629847Y-117266251D02*
X69756051Y-117359760D01*
X69756051Y-117359760D02*
X69811863Y-117424113D01*
X69811863Y-117424113D02*
X69853097Y-117523660D01*
X69853097Y-117523660D02*
X69844557Y-117643825D01*
X69844557Y-117643825D02*
X69771665Y-117819802D01*
X69309551Y-116844943D02*
X69499071Y-116387402D01*
X69499071Y-116387402D02*
X69678585Y-116750397D01*
X69678585Y-116750397D02*
X69722321Y-116644811D01*
X69722321Y-116644811D02*
X69786673Y-116588999D01*
X69786673Y-116588999D02*
X69836447Y-116568382D01*
X69836447Y-116568382D02*
X69921416Y-116562343D01*
X69921416Y-116562343D02*
X70097393Y-116635235D01*
X70097393Y-116635235D02*
X70153205Y-116699587D01*
X70153205Y-116699587D02*
X70173822Y-116749361D01*
X70173822Y-116749361D02*
X70179861Y-116834331D01*
X70179861Y-116834331D02*
X70092390Y-117045503D01*
X70092390Y-117045503D02*
X70028038Y-117101315D01*
X70028038Y-117101315D02*
X69978264Y-117121932D01*
X69601120Y-116141034D02*
X69790639Y-115683494D01*
X69790639Y-115683494D02*
X69970154Y-116046489D01*
X69970154Y-116046489D02*
X70013889Y-115940903D01*
X70013889Y-115940903D02*
X70078241Y-115885090D01*
X70078241Y-115885090D02*
X70128015Y-115864473D01*
X70128015Y-115864473D02*
X70212984Y-115858435D01*
X70212984Y-115858435D02*
X70388961Y-115931327D01*
X70388961Y-115931327D02*
X70444774Y-115995679D01*
X70444774Y-115995679D02*
X70465391Y-116045453D01*
X70465391Y-116045453D02*
X70471429Y-116130422D01*
X70471429Y-116130422D02*
X70383959Y-116341595D01*
X70383959Y-116341595D02*
X70319607Y-116397407D01*
X70319607Y-116397407D02*
X70269833Y-116418024D01*
X215343075Y-93415212D02*
X215951400Y-92895654D01*
X215951400Y-92895654D02*
X216075105Y-93040493D01*
X216075105Y-93040493D02*
X216120359Y-93152137D01*
X216120359Y-93152137D02*
X216111905Y-93259555D01*
X216111905Y-93259555D02*
X216078711Y-93338005D01*
X216078711Y-93338005D02*
X215987580Y-93465936D01*
X215987580Y-93465936D02*
X215900677Y-93540158D01*
X215900677Y-93540158D02*
X215760064Y-93610154D01*
X215760064Y-93610154D02*
X215677388Y-93630668D01*
X215677388Y-93630668D02*
X215569970Y-93622214D01*
X215569970Y-93622214D02*
X215466780Y-93560051D01*
X215466780Y-93560051D02*
X215343075Y-93415212D01*
X216693627Y-93764689D02*
X216594663Y-93648818D01*
X216594663Y-93648818D02*
X216516213Y-93615623D01*
X216516213Y-93615623D02*
X216462505Y-93611396D01*
X216462505Y-93611396D02*
X216326119Y-93627683D01*
X216326119Y-93627683D02*
X216185507Y-93697679D01*
X216185507Y-93697679D02*
X215953764Y-93895606D01*
X215953764Y-93895606D02*
X215920570Y-93974055D01*
X215920570Y-93974055D02*
X215916343Y-94027764D01*
X215916343Y-94027764D02*
X215936857Y-94110441D01*
X215936857Y-94110441D02*
X216035820Y-94226312D01*
X216035820Y-94226312D02*
X216114270Y-94259507D01*
X216114270Y-94259507D02*
X216167978Y-94263734D01*
X216167978Y-94263734D02*
X216250655Y-94243220D01*
X216250655Y-94243220D02*
X216395494Y-94119515D01*
X216395494Y-94119515D02*
X216428689Y-94041066D01*
X216428689Y-94041066D02*
X216432916Y-93987357D01*
X216432916Y-93987357D02*
X216412402Y-93904681D01*
X216412402Y-93904681D02*
X216313439Y-93788809D01*
X216313439Y-93788809D02*
X216234989Y-93755614D01*
X216234989Y-93755614D02*
X216181280Y-93751387D01*
X216181280Y-93751387D02*
X216098604Y-93771901D01*
X169403409Y-234982286D02*
X169216652Y-234204390D01*
X169216652Y-234204390D02*
X169401866Y-234159924D01*
X169401866Y-234159924D02*
X169521887Y-234170287D01*
X169521887Y-234170287D02*
X169613758Y-234226586D01*
X169613758Y-234226586D02*
X169668587Y-234291779D01*
X169668587Y-234291779D02*
X169741203Y-234431056D01*
X169741203Y-234431056D02*
X169767882Y-234542184D01*
X169767882Y-234542184D02*
X169766412Y-234699248D01*
X169766412Y-234699248D02*
X169747156Y-234782226D01*
X169747156Y-234782226D02*
X169690857Y-234874098D01*
X169690857Y-234874098D02*
X169588622Y-234937820D01*
X169588622Y-234937820D02*
X169403409Y-234982286D01*
X170588774Y-234697705D02*
X170144262Y-234804423D01*
X170366518Y-234751064D02*
X170179762Y-233973168D01*
X170179762Y-233973168D02*
X170132356Y-234102082D01*
X170132356Y-234102082D02*
X170076057Y-234193954D01*
X170076057Y-234193954D02*
X170010865Y-234248783D01*
X170959201Y-234608773D02*
X171107371Y-234573201D01*
X171107371Y-234573201D02*
X171172564Y-234518372D01*
X171172564Y-234518372D02*
X171200713Y-234472436D01*
X171200713Y-234472436D02*
X171248119Y-234343522D01*
X171248119Y-234343522D02*
X171249589Y-234186458D01*
X171249589Y-234186458D02*
X171178444Y-233890116D01*
X171178444Y-233890116D02*
X171123615Y-233824924D01*
X171123615Y-233824924D02*
X171077679Y-233796775D01*
X171077679Y-233796775D02*
X170994700Y-233777518D01*
X170994700Y-233777518D02*
X170846530Y-233813091D01*
X170846530Y-233813091D02*
X170781338Y-233867920D01*
X170781338Y-233867920D02*
X170753188Y-233913856D01*
X170753188Y-233913856D02*
X170733932Y-233996834D01*
X170733932Y-233996834D02*
X170778398Y-234182048D01*
X170778398Y-234182048D02*
X170833227Y-234247240D01*
X170833227Y-234247240D02*
X170879162Y-234275389D01*
X170879162Y-234275389D02*
X170962141Y-234294646D01*
X170962141Y-234294646D02*
X171110311Y-234259073D01*
X171110311Y-234259073D02*
X171175504Y-234204244D01*
X171175504Y-234204244D02*
X171203653Y-234158308D01*
X171203653Y-234158308D02*
X171222910Y-234075330D01*
X205686783Y-83889956D02*
X206206342Y-83281631D01*
X206206342Y-83281631D02*
X206351181Y-83405335D01*
X206351181Y-83405335D02*
X206413343Y-83508526D01*
X206413343Y-83508526D02*
X206421797Y-83615943D01*
X206421797Y-83615943D02*
X206401283Y-83698620D01*
X206401283Y-83698620D02*
X206331288Y-83839232D01*
X206331288Y-83839232D02*
X206257065Y-83926136D01*
X206257065Y-83926136D02*
X206129134Y-84017266D01*
X206129134Y-84017266D02*
X206050684Y-84050461D01*
X206050684Y-84050461D02*
X205943267Y-84058915D01*
X205943267Y-84058915D02*
X205831622Y-84013660D01*
X205831622Y-84013660D02*
X205686783Y-83889956D01*
X207104345Y-84048598D02*
X206814666Y-83801189D01*
X206814666Y-83801189D02*
X206538290Y-84066127D01*
X206538290Y-84066127D02*
X206591998Y-84061900D01*
X206591998Y-84061900D02*
X206674675Y-84082414D01*
X206674675Y-84082414D02*
X206819514Y-84206118D01*
X206819514Y-84206118D02*
X206852709Y-84284568D01*
X206852709Y-84284568D02*
X206856936Y-84338277D01*
X206856936Y-84338277D02*
X206836422Y-84420953D01*
X206836422Y-84420953D02*
X206712718Y-84565793D01*
X206712718Y-84565793D02*
X206634268Y-84598987D01*
X206634268Y-84598987D02*
X206580559Y-84603214D01*
X206580559Y-84603214D02*
X206497883Y-84582700D01*
X206497883Y-84582700D02*
X206353044Y-84458996D01*
X206353044Y-84458996D02*
X206319849Y-84380546D01*
X206319849Y-84380546D02*
X206315622Y-84326838D01*
X182532151Y-69917450D02*
X182838297Y-69178346D01*
X182838297Y-69178346D02*
X183014274Y-69251238D01*
X183014274Y-69251238D02*
X183105282Y-69330169D01*
X183105282Y-69330169D02*
X183146516Y-69429716D01*
X183146516Y-69429716D02*
X183152555Y-69514686D01*
X183152555Y-69514686D02*
X183129437Y-69670046D01*
X183129437Y-69670046D02*
X183085701Y-69775632D01*
X183085701Y-69775632D02*
X182992192Y-69901835D01*
X182992192Y-69901835D02*
X182927840Y-69957648D01*
X182927840Y-69957648D02*
X182828292Y-69998882D01*
X182828292Y-69998882D02*
X182708128Y-69990342D01*
X182708128Y-69990342D02*
X182532151Y-69917450D01*
X183507010Y-69455336D02*
X183964551Y-69644855D01*
X183964551Y-69644855D02*
X183601555Y-69824370D01*
X183601555Y-69824370D02*
X183707142Y-69868105D01*
X183707142Y-69868105D02*
X183762954Y-69932457D01*
X183762954Y-69932457D02*
X183783571Y-69982231D01*
X183783571Y-69982231D02*
X183789610Y-70067200D01*
X183789610Y-70067200D02*
X183716717Y-70243177D01*
X183716717Y-70243177D02*
X183652365Y-70298990D01*
X183652365Y-70298990D02*
X183602591Y-70319607D01*
X183602591Y-70319607D02*
X183517622Y-70325645D01*
X183517622Y-70325645D02*
X183306450Y-70238175D01*
X183306450Y-70238175D02*
X183250637Y-70173823D01*
X183250637Y-70173823D02*
X183230020Y-70124049D01*
X223390405Y-104333774D02*
X224072517Y-103915775D01*
X224072517Y-103915775D02*
X224172041Y-104078183D01*
X224172041Y-104078183D02*
X224199273Y-104195532D01*
X224199273Y-104195532D02*
X224174120Y-104300305D01*
X224174120Y-104300305D02*
X224129061Y-104372595D01*
X224129061Y-104372595D02*
X224019040Y-104484696D01*
X224019040Y-104484696D02*
X223921595Y-104544410D01*
X223921595Y-104544410D02*
X223771765Y-104591547D01*
X223771765Y-104591547D02*
X223686897Y-104598875D01*
X223686897Y-104598875D02*
X223582124Y-104573721D01*
X223582124Y-104573721D02*
X223489929Y-104496182D01*
X223489929Y-104496182D02*
X223390405Y-104333774D01*
X224450707Y-104532924D02*
X224729373Y-104987666D01*
X224729373Y-104987666D02*
X223868118Y-105113331D01*
X63754091Y-144186731D02*
X62956557Y-144123964D01*
X62956557Y-144123964D02*
X62971501Y-143934075D01*
X62971501Y-143934075D02*
X63018446Y-143823131D01*
X63018446Y-143823131D02*
X63100379Y-143753153D01*
X63100379Y-143753153D02*
X63179324Y-143721153D01*
X63179324Y-143721153D02*
X63334224Y-143695131D01*
X63334224Y-143695131D02*
X63448157Y-143704098D01*
X63448157Y-143704098D02*
X63597080Y-143754031D01*
X63597080Y-143754031D02*
X63670046Y-143797987D01*
X63670046Y-143797987D02*
X63740024Y-143879920D01*
X63740024Y-143879920D02*
X63769035Y-143996842D01*
X63769035Y-143996842D02*
X63754091Y-144186731D01*
X63013346Y-143402386D02*
X63052202Y-142908674D01*
X63052202Y-142908674D02*
X63335102Y-143198430D01*
X63335102Y-143198430D02*
X63344069Y-143084497D01*
X63344069Y-143084497D02*
X63388025Y-143011530D01*
X63388025Y-143011530D02*
X63428991Y-142976541D01*
X63428991Y-142976541D02*
X63507936Y-142944542D01*
X63507936Y-142944542D02*
X63697825Y-142959486D01*
X63697825Y-142959486D02*
X63770792Y-143003442D01*
X63770792Y-143003442D02*
X63805780Y-143044408D01*
X63805780Y-143044408D02*
X63837780Y-143123353D01*
X63837780Y-143123353D02*
X63819847Y-143351220D01*
X63819847Y-143351220D02*
X63775891Y-143424186D01*
X63775891Y-143424186D02*
X63734925Y-143459175D01*
X63909514Y-142211885D02*
X63873647Y-142667619D01*
X63891581Y-142439752D02*
X63094047Y-142376985D01*
X63094047Y-142376985D02*
X63202003Y-142461907D01*
X63202003Y-142461907D02*
X63271980Y-142543841D01*
X63271980Y-142543841D02*
X63303980Y-142622785D01*
X142249863Y-63906526D02*
X142187096Y-63108992D01*
X142187096Y-63108992D02*
X142376985Y-63094047D01*
X142376985Y-63094047D02*
X142493907Y-63123058D01*
X142493907Y-63123058D02*
X142575841Y-63193036D01*
X142575841Y-63193036D02*
X142619796Y-63266003D01*
X142619796Y-63266003D02*
X142669730Y-63414925D01*
X142669730Y-63414925D02*
X142678696Y-63528858D01*
X142678696Y-63528858D02*
X142652674Y-63683758D01*
X142652674Y-63683758D02*
X142620674Y-63762703D01*
X142620674Y-63762703D02*
X142550697Y-63844636D01*
X142550697Y-63844636D02*
X142439752Y-63891581D01*
X142439752Y-63891581D02*
X142249863Y-63906526D01*
X143347352Y-63285169D02*
X143389197Y-63816858D01*
X143133552Y-62996291D02*
X142988497Y-63580903D01*
X142988497Y-63580903D02*
X143482208Y-63542047D01*
X143896097Y-62974490D02*
X143972053Y-62968512D01*
X143972053Y-62968512D02*
X144050997Y-63000512D01*
X144050997Y-63000512D02*
X144091964Y-63035501D01*
X144091964Y-63035501D02*
X144135920Y-63108468D01*
X144135920Y-63108468D02*
X144185853Y-63257390D01*
X144185853Y-63257390D02*
X144200798Y-63447279D01*
X144200798Y-63447279D02*
X144174776Y-63602179D01*
X144174776Y-63602179D02*
X144142776Y-63681124D01*
X144142776Y-63681124D02*
X144107787Y-63722091D01*
X144107787Y-63722091D02*
X144034820Y-63766046D01*
X144034820Y-63766046D02*
X143958864Y-63772024D01*
X143958864Y-63772024D02*
X143879920Y-63740024D01*
X143879920Y-63740024D02*
X143838953Y-63705035D01*
X143838953Y-63705035D02*
X143794998Y-63632069D01*
X143794998Y-63632069D02*
X143745064Y-63483146D01*
X143745064Y-63483146D02*
X143730119Y-63293257D01*
X143730119Y-63293257D02*
X143756142Y-63138357D01*
X143756142Y-63138357D02*
X143788142Y-63059413D01*
X143788142Y-63059413D02*
X143823130Y-63018446D01*
X143823130Y-63018446D02*
X143896097Y-62974490D01*
X230157150Y-184253645D02*
X229418047Y-183947498D01*
X229418047Y-183947498D02*
X229490939Y-183771521D01*
X229490939Y-183771521D02*
X229569869Y-183680513D01*
X229569869Y-183680513D02*
X229669417Y-183639279D01*
X229669417Y-183639279D02*
X229754386Y-183633241D01*
X229754386Y-183633241D02*
X229909746Y-183656359D01*
X229909746Y-183656359D02*
X230015332Y-183700094D01*
X230015332Y-183700094D02*
X230141536Y-183793603D01*
X230141536Y-183793603D02*
X230197348Y-183857956D01*
X230197348Y-183857956D02*
X230238582Y-183957503D01*
X230238582Y-183957503D02*
X230230042Y-184077668D01*
X230230042Y-184077668D02*
X230157150Y-184253645D01*
X230623660Y-183127392D02*
X230448719Y-183549737D01*
X230536189Y-183338564D02*
X229797085Y-183032418D01*
X229797085Y-183032418D02*
X229873515Y-183146544D01*
X229873515Y-183146544D02*
X229914749Y-183246091D01*
X229914749Y-183246091D02*
X229920787Y-183331061D01*
X229986605Y-182574877D02*
X230176124Y-182117337D01*
X230176124Y-182117337D02*
X230355639Y-182480332D01*
X230355639Y-182480332D02*
X230399374Y-182374746D01*
X230399374Y-182374746D02*
X230463726Y-182318933D01*
X230463726Y-182318933D02*
X230513500Y-182298316D01*
X230513500Y-182298316D02*
X230598469Y-182292278D01*
X230598469Y-182292278D02*
X230774446Y-182365170D01*
X230774446Y-182365170D02*
X230830259Y-182429522D01*
X230830259Y-182429522D02*
X230850876Y-182479296D01*
X230850876Y-182479296D02*
X230856914Y-182564265D01*
X230856914Y-182564265D02*
X230769444Y-182775438D01*
X230769444Y-182775438D02*
X230705092Y-182831250D01*
X230705092Y-182831250D02*
X230655318Y-182851867D01*
X155870362Y-236971375D02*
X155807595Y-236173841D01*
X155807595Y-236173841D02*
X155997484Y-236158896D01*
X155997484Y-236158896D02*
X156114406Y-236187907D01*
X156114406Y-236187907D02*
X156196340Y-236257885D01*
X156196340Y-236257885D02*
X156240295Y-236330852D01*
X156240295Y-236330852D02*
X156290229Y-236479774D01*
X156290229Y-236479774D02*
X156299195Y-236593707D01*
X156299195Y-236593707D02*
X156273173Y-236748607D01*
X156273173Y-236748607D02*
X156241173Y-236827552D01*
X156241173Y-236827552D02*
X156171196Y-236909485D01*
X156171196Y-236909485D02*
X156060251Y-236956430D01*
X156060251Y-236956430D02*
X155870362Y-236971375D01*
X156573129Y-236190018D02*
X156608118Y-236149051D01*
X156608118Y-236149051D02*
X156681084Y-236105096D01*
X156681084Y-236105096D02*
X156870973Y-236090151D01*
X156870973Y-236090151D02*
X156949918Y-236122151D01*
X156949918Y-236122151D02*
X156990884Y-236157140D01*
X156990884Y-236157140D02*
X157034840Y-236230106D01*
X157034840Y-236230106D02*
X157040818Y-236306062D01*
X157040818Y-236306062D02*
X157011807Y-236422984D01*
X157011807Y-236422984D02*
X156591940Y-236914585D01*
X156591940Y-236914585D02*
X157085652Y-236875729D01*
X157516596Y-236039339D02*
X157592552Y-236033361D01*
X157592552Y-236033361D02*
X157671496Y-236065361D01*
X157671496Y-236065361D02*
X157712463Y-236100350D01*
X157712463Y-236100350D02*
X157756419Y-236173317D01*
X157756419Y-236173317D02*
X157806352Y-236322239D01*
X157806352Y-236322239D02*
X157821297Y-236512128D01*
X157821297Y-236512128D02*
X157795275Y-236667028D01*
X157795275Y-236667028D02*
X157763275Y-236745973D01*
X157763275Y-236745973D02*
X157728286Y-236786940D01*
X157728286Y-236786940D02*
X157655319Y-236830895D01*
X157655319Y-236830895D02*
X157579363Y-236836873D01*
X157579363Y-236836873D02*
X157500419Y-236804873D01*
X157500419Y-236804873D02*
X157459452Y-236769884D01*
X157459452Y-236769884D02*
X157415497Y-236696918D01*
X157415497Y-236696918D02*
X157365563Y-236547995D01*
X157365563Y-236547995D02*
X157350618Y-236358106D01*
X157350618Y-236358106D02*
X157376641Y-236203206D01*
X157376641Y-236203206D02*
X157408641Y-236124262D01*
X157408641Y-236124262D02*
X157443629Y-236083295D01*
X157443629Y-236083295D02*
X157516596Y-236039339D01*
X115746353Y-230157150D02*
X116052500Y-229418047D01*
X116052500Y-229418047D02*
X116228477Y-229490939D01*
X116228477Y-229490939D02*
X116319485Y-229569869D01*
X116319485Y-229569869D02*
X116360719Y-229669417D01*
X116360719Y-229669417D02*
X116366757Y-229754386D01*
X116366757Y-229754386D02*
X116343639Y-229909746D01*
X116343639Y-229909746D02*
X116299904Y-230015332D01*
X116299904Y-230015332D02*
X116206395Y-230141536D01*
X116206395Y-230141536D02*
X116142042Y-230197348D01*
X116142042Y-230197348D02*
X116042495Y-230238582D01*
X116042495Y-230238582D02*
X115922330Y-230230042D01*
X115922330Y-230230042D02*
X115746353Y-230157150D01*
X116727251Y-229780006D02*
X116777025Y-229759389D01*
X116777025Y-229759389D02*
X116861994Y-229753350D01*
X116861994Y-229753350D02*
X117037971Y-229826242D01*
X117037971Y-229826242D02*
X117093784Y-229890594D01*
X117093784Y-229890594D02*
X117114401Y-229940368D01*
X117114401Y-229940368D02*
X117120439Y-230025338D01*
X117120439Y-230025338D02*
X117091282Y-230095728D01*
X117091282Y-230095728D02*
X117012352Y-230186736D01*
X117012352Y-230186736D02*
X116415066Y-230434140D01*
X116415066Y-230434140D02*
X116872606Y-230623660D01*
X117425121Y-229986605D02*
X117882661Y-230176124D01*
X117882661Y-230176124D02*
X117519666Y-230355639D01*
X117519666Y-230355639D02*
X117625252Y-230399374D01*
X117625252Y-230399374D02*
X117681065Y-230463726D01*
X117681065Y-230463726D02*
X117701682Y-230513500D01*
X117701682Y-230513500D02*
X117707720Y-230598469D01*
X117707720Y-230598469D02*
X117634828Y-230774446D01*
X117634828Y-230774446D02*
X117570476Y-230830259D01*
X117570476Y-230830259D02*
X117520702Y-230850876D01*
X117520702Y-230850876D02*
X117435733Y-230856914D01*
X117435733Y-230856914D02*
X117224560Y-230769444D01*
X117224560Y-230769444D02*
X117168748Y-230705092D01*
X117168748Y-230705092D02*
X117148131Y-230655318D01*
X75793500Y-105665517D02*
X75111388Y-105247518D01*
X75111388Y-105247518D02*
X75210911Y-105085110D01*
X75210911Y-105085110D02*
X75303107Y-105007570D01*
X75303107Y-105007570D02*
X75407879Y-104982417D01*
X75407879Y-104982417D02*
X75492747Y-104989744D01*
X75492747Y-104989744D02*
X75642578Y-105036882D01*
X75642578Y-105036882D02*
X75740023Y-105096596D01*
X75740023Y-105096596D02*
X75850044Y-105208696D01*
X75850044Y-105208696D02*
X75895102Y-105280987D01*
X75895102Y-105280987D02*
X75920256Y-105385760D01*
X75920256Y-105385760D02*
X75893023Y-105503109D01*
X75893023Y-105503109D02*
X75793500Y-105665517D01*
X75489577Y-104630369D02*
X75748338Y-104208109D01*
X75748338Y-104208109D02*
X75868858Y-104594717D01*
X75868858Y-104594717D02*
X75928572Y-104497273D01*
X75928572Y-104497273D02*
X76000863Y-104452214D01*
X76000863Y-104452214D02*
X76053249Y-104439637D01*
X76053249Y-104439637D02*
X76138117Y-104446965D01*
X76138117Y-104446965D02*
X76300524Y-104546489D01*
X76300524Y-104546489D02*
X76345583Y-104618780D01*
X76345583Y-104618780D02*
X76358160Y-104671166D01*
X76358160Y-104671166D02*
X76350832Y-104756034D01*
X76350832Y-104756034D02*
X76231403Y-104950923D01*
X76231403Y-104950923D02*
X76159113Y-104995981D01*
X76159113Y-104995981D02*
X76106726Y-105008558D01*
X76333994Y-103762774D02*
X76788735Y-104041440D01*
X75974618Y-103765944D02*
X76362318Y-104226922D01*
X76362318Y-104226922D02*
X76621079Y-103804662D01*
X215649022Y-207347075D02*
X215040697Y-206827516D01*
X215040697Y-206827516D02*
X215164401Y-206682677D01*
X215164401Y-206682677D02*
X215267592Y-206620515D01*
X215267592Y-206620515D02*
X215375009Y-206612061D01*
X215375009Y-206612061D02*
X215457686Y-206632574D01*
X215457686Y-206632574D02*
X215598298Y-206702570D01*
X215598298Y-206702570D02*
X215685202Y-206776793D01*
X215685202Y-206776793D02*
X215776332Y-206904724D01*
X215776332Y-206904724D02*
X215809527Y-206983174D01*
X215809527Y-206983174D02*
X215817981Y-207090591D01*
X215817981Y-207090591D02*
X215772726Y-207202236D01*
X215772726Y-207202236D02*
X215649022Y-207347075D01*
X216440730Y-206420104D02*
X216143839Y-206767718D01*
X216292284Y-206593911D02*
X215683960Y-206074352D01*
X215683960Y-206074352D02*
X215721381Y-206206511D01*
X215721381Y-206206511D02*
X215729835Y-206313928D01*
X215729835Y-206313928D02*
X215709322Y-206396605D01*
X216302482Y-205350156D02*
X216055073Y-205639835D01*
X216055073Y-205639835D02*
X216320011Y-205916211D01*
X216320011Y-205916211D02*
X216315784Y-205862502D01*
X216315784Y-205862502D02*
X216336298Y-205779826D01*
X216336298Y-205779826D02*
X216460002Y-205634987D01*
X216460002Y-205634987D02*
X216538452Y-205601792D01*
X216538452Y-205601792D02*
X216592160Y-205597565D01*
X216592160Y-205597565D02*
X216674837Y-205618079D01*
X216674837Y-205618079D02*
X216819676Y-205741783D01*
X216819676Y-205741783D02*
X216852871Y-205820233D01*
X216852871Y-205820233D02*
X216857098Y-205873941D01*
X216857098Y-205873941D02*
X216836584Y-205956618D01*
X216836584Y-205956618D02*
X216712880Y-206101457D01*
X216712880Y-206101457D02*
X216634430Y-206134652D01*
X216634430Y-206134652D02*
X216580721Y-206138879D01*
X104008958Y-76808640D02*
X103590959Y-76126528D01*
X103590959Y-76126528D02*
X103753367Y-76027005D01*
X103753367Y-76027005D02*
X103870716Y-75999772D01*
X103870716Y-75999772D02*
X103975489Y-76024926D01*
X103975489Y-76024926D02*
X104047780Y-76069984D01*
X104047780Y-76069984D02*
X104159880Y-76180005D01*
X104159880Y-76180005D02*
X104219594Y-76277450D01*
X104219594Y-76277450D02*
X104266731Y-76427281D01*
X104266731Y-76427281D02*
X104274059Y-76512149D01*
X104274059Y-76512149D02*
X104248906Y-76616921D01*
X104248906Y-76616921D02*
X104171366Y-76709117D01*
X104171366Y-76709117D02*
X104008958Y-76808640D01*
X104208108Y-75748339D02*
X104630368Y-75489577D01*
X104630368Y-75489577D02*
X104562235Y-75888763D01*
X104562235Y-75888763D02*
X104659680Y-75829049D01*
X104659680Y-75829049D02*
X104744548Y-75821721D01*
X104744548Y-75821721D02*
X104796934Y-75834297D01*
X104796934Y-75834297D02*
X104869225Y-75879356D01*
X104869225Y-75879356D02*
X104968748Y-76041763D01*
X104968748Y-76041763D02*
X104976076Y-76126631D01*
X104976076Y-76126631D02*
X104963499Y-76179018D01*
X104963499Y-76179018D02*
X104918441Y-76251308D01*
X104918441Y-76251308D02*
X104723552Y-76370737D01*
X104723552Y-76370737D02*
X104638684Y-76378065D01*
X104638684Y-76378065D02*
X104586298Y-76365488D01*
X104857739Y-75350244D02*
X105312481Y-75071579D01*
X105312481Y-75071579D02*
X105438146Y-75932833D01*
D10*
X148714286Y-60854819D02*
X149285714Y-60854819D01*
X149000000Y-61854819D02*
X149000000Y-60854819D01*
X149619048Y-61854819D02*
X149619048Y-60854819D01*
X149619048Y-61331009D02*
X150190476Y-61331009D01*
X150190476Y-61854819D02*
X150190476Y-60854819D01*
X151190476Y-61854819D02*
X150619048Y-61854819D01*
X150904762Y-61854819D02*
X150904762Y-60854819D01*
X150904762Y-60854819D02*
X150809524Y-60997676D01*
X150809524Y-60997676D02*
X150714286Y-61092914D01*
X150714286Y-61092914D02*
X150619048Y-61140533D01*
D13*
X233910063Y-129247721D02*
X234687959Y-129060965D01*
X234687959Y-129060965D02*
X234732424Y-129246178D01*
X234732424Y-129246178D02*
X234722061Y-129366199D01*
X234722061Y-129366199D02*
X234665762Y-129458071D01*
X234665762Y-129458071D02*
X234600570Y-129512900D01*
X234600570Y-129512900D02*
X234461293Y-129585515D01*
X234461293Y-129585515D02*
X234350165Y-129612194D01*
X234350165Y-129612194D02*
X234193101Y-129610724D01*
X234193101Y-129610724D02*
X234110122Y-129591468D01*
X234110122Y-129591468D02*
X234018251Y-129535169D01*
X234018251Y-129535169D02*
X233954529Y-129432934D01*
X233954529Y-129432934D02*
X233910063Y-129247721D01*
X234105712Y-130062660D02*
X234141285Y-130210830D01*
X234141285Y-130210830D02*
X234196114Y-130276022D01*
X234196114Y-130276022D02*
X234242050Y-130304172D01*
X234242050Y-130304172D02*
X234370964Y-130351578D01*
X234370964Y-130351578D02*
X234528028Y-130353048D01*
X234528028Y-130353048D02*
X234824369Y-130281902D01*
X234824369Y-130281902D02*
X234889561Y-130227073D01*
X234889561Y-130227073D02*
X234917711Y-130181138D01*
X234917711Y-130181138D02*
X234936967Y-130098159D01*
X234936967Y-130098159D02*
X234901394Y-129949989D01*
X234901394Y-129949989D02*
X234846565Y-129884796D01*
X234846565Y-129884796D02*
X234800630Y-129856647D01*
X234800630Y-129856647D02*
X234717651Y-129837391D01*
X234717651Y-129837391D02*
X234532438Y-129881856D01*
X234532438Y-129881856D02*
X234467246Y-129936685D01*
X234467246Y-129936685D02*
X234439096Y-129982621D01*
X234439096Y-129982621D02*
X234419840Y-130065600D01*
X234419840Y-130065600D02*
X234455412Y-130213770D01*
X234455412Y-130213770D02*
X234510241Y-130278962D01*
X234510241Y-130278962D02*
X234556177Y-130307112D01*
X234556177Y-130307112D02*
X234639156Y-130326368D01*
X65017712Y-169403409D02*
X65795608Y-169216652D01*
X65795608Y-169216652D02*
X65840074Y-169401866D01*
X65840074Y-169401866D02*
X65829711Y-169521887D01*
X65829711Y-169521887D02*
X65773412Y-169613758D01*
X65773412Y-169613758D02*
X65708219Y-169668587D01*
X65708219Y-169668587D02*
X65568942Y-169741203D01*
X65568942Y-169741203D02*
X65457814Y-169767882D01*
X65457814Y-169767882D02*
X65300750Y-169766412D01*
X65300750Y-169766412D02*
X65217772Y-169747156D01*
X65217772Y-169747156D02*
X65125900Y-169690857D01*
X65125900Y-169690857D02*
X65062178Y-169588622D01*
X65062178Y-169588622D02*
X65017712Y-169403409D01*
X65899386Y-169975292D02*
X65945322Y-170003441D01*
X65945322Y-170003441D02*
X66000151Y-170068634D01*
X66000151Y-170068634D02*
X66044616Y-170253847D01*
X66044616Y-170253847D02*
X66025360Y-170336825D01*
X66025360Y-170336825D02*
X65997211Y-170382761D01*
X65997211Y-170382761D02*
X65932018Y-170437590D01*
X65932018Y-170437590D02*
X65857933Y-170455377D01*
X65857933Y-170455377D02*
X65737912Y-170445013D01*
X65737912Y-170445013D02*
X65186682Y-170107219D01*
X65186682Y-170107219D02*
X65302293Y-170588774D01*
X65391225Y-170959201D02*
X65426797Y-171107371D01*
X65426797Y-171107371D02*
X65481626Y-171172564D01*
X65481626Y-171172564D02*
X65527562Y-171200713D01*
X65527562Y-171200713D02*
X65656476Y-171248119D01*
X65656476Y-171248119D02*
X65813540Y-171249589D01*
X65813540Y-171249589D02*
X66109882Y-171178444D01*
X66109882Y-171178444D02*
X66175074Y-171123615D01*
X66175074Y-171123615D02*
X66203223Y-171077679D01*
X66203223Y-171077679D02*
X66222480Y-170994700D01*
X66222480Y-170994700D02*
X66186907Y-170846530D01*
X66186907Y-170846530D02*
X66132078Y-170781338D01*
X66132078Y-170781338D02*
X66086142Y-170753188D01*
X66086142Y-170753188D02*
X66003164Y-170733932D01*
X66003164Y-170733932D02*
X65817950Y-170778398D01*
X65817950Y-170778398D02*
X65752758Y-170833227D01*
X65752758Y-170833227D02*
X65724609Y-170879162D01*
X65724609Y-170879162D02*
X65705352Y-170962141D01*
X65705352Y-170962141D02*
X65740925Y-171110311D01*
X65740925Y-171110311D02*
X65795754Y-171175504D01*
X65795754Y-171175504D02*
X65841690Y-171203653D01*
X65841690Y-171203653D02*
X65924668Y-171222910D01*
%TO.C,D35*%
X79279499Y-91729427D02*
X81383711Y-89265711D01*
X79279499Y-91729427D02*
X81743215Y-93833639D01*
X81743215Y-93833639D02*
X83847427Y-91369923D01*
%TO.C,D22*%
X130186975Y-239466713D02*
X127036496Y-238710350D01*
X130186975Y-239466713D02*
X130943338Y-236316234D01*
X130943338Y-236316234D02*
X127792859Y-235559871D01*
%TO.C,D18*%
X182324876Y-232272419D02*
X183564770Y-235265789D01*
X182324876Y-232272419D02*
X185318246Y-231032525D01*
X183564770Y-235265789D02*
X186558140Y-234025895D01*
%TO.C,D25*%
X91729427Y-220720500D02*
X89265711Y-218616288D01*
X91729427Y-220720500D02*
X93833639Y-218256784D01*
X93833639Y-218256784D02*
X91369923Y-216152572D01*
%TO.C,D36*%
X89265711Y-81383711D02*
X91369923Y-83847427D01*
X89265711Y-81383711D02*
X91729427Y-79279499D01*
X91369923Y-83847427D02*
X93833639Y-81743215D01*
%TO.C,D24*%
X103509958Y-228965339D02*
X100747404Y-227272443D01*
X103509958Y-228965339D02*
X105202854Y-226202785D01*
X105202854Y-226202785D02*
X102440300Y-224509889D01*
%TO.C,D39*%
X127036496Y-61289649D02*
X127792859Y-64440128D01*
X127036496Y-61289649D02*
X130186975Y-60533286D01*
X127792859Y-64440128D02*
X130943338Y-63683765D01*
%TO.C,D11*%
X237980450Y-158549220D02*
X238234658Y-155319208D01*
X237980450Y-158549220D02*
X241210462Y-158803428D01*
X241210462Y-158803428D02*
X241464670Y-155573416D01*
%TO.C,D27*%
X72727556Y-199252595D02*
X71034660Y-196490041D01*
X72727556Y-199252595D02*
X75490110Y-197559699D01*
X75490110Y-197559699D02*
X73797214Y-194797145D01*
%TO.C,D4*%
X197559699Y-75490110D02*
X194797145Y-73797214D01*
X197559699Y-75490110D02*
X199252595Y-72727556D01*
X199252595Y-72727556D02*
X196490041Y-71034660D01*
%TO.C,D1*%
X158549220Y-62019549D02*
X155319208Y-61765341D01*
X158549220Y-62019549D02*
X158803428Y-58789537D01*
X158803428Y-58789537D02*
X155573416Y-58535329D01*
%TO.C,D14*%
X224509889Y-197559699D02*
X226202785Y-194797145D01*
X224509889Y-197559699D02*
X227272443Y-199252595D01*
X227272443Y-199252595D02*
X228965339Y-196490041D01*
%TO.C,D32*%
X60533286Y-130186975D02*
X61289649Y-127036496D01*
X60533286Y-130186975D02*
X63683765Y-130943338D01*
X63683765Y-130943338D02*
X64440128Y-127792859D01*
%TO.C,D8*%
X232272419Y-117675123D02*
X231032525Y-114681753D01*
X232272419Y-117675123D02*
X235265789Y-116435229D01*
X235265789Y-116435229D02*
X234025895Y-113441859D01*
%TO.C,D21*%
X144426583Y-241464670D02*
X141196571Y-241210462D01*
X144426583Y-241464670D02*
X144680791Y-238234658D01*
X144680791Y-238234658D02*
X141450779Y-237980450D01*
%TO.C,D16*%
X206166360Y-218256784D02*
X208270572Y-220720500D01*
X206166360Y-218256784D02*
X208630076Y-216152572D01*
X208270572Y-220720500D02*
X210734288Y-218616288D01*
%TO.C,D12*%
X235559871Y-172207140D02*
X236316234Y-169056661D01*
X235559871Y-172207140D02*
X238710350Y-172963503D01*
X238710350Y-172963503D02*
X239466713Y-169813024D01*
%TO.C,D10*%
X238234658Y-144680791D02*
X237980450Y-141450779D01*
X238234658Y-144680791D02*
X241464670Y-144426583D01*
X241464670Y-144426583D02*
X241210462Y-141196571D01*
%TO.C,D26*%
X81383711Y-210734288D02*
X79279499Y-208270572D01*
X81383711Y-210734288D02*
X83847427Y-208630076D01*
X83847427Y-208630076D02*
X81743215Y-206166360D01*
%TO.C,D28*%
X65974104Y-186558140D02*
X64734210Y-183564770D01*
X65974104Y-186558140D02*
X68967474Y-185318246D01*
X68967474Y-185318246D02*
X67727580Y-182324876D01*
%TO.C,D30*%
X58789537Y-158803428D02*
X58535329Y-155573416D01*
X58789537Y-158803428D02*
X62019549Y-158549220D01*
X62019549Y-158549220D02*
X61765341Y-155319208D01*
%TO.C,J1*%
X137940000Y-47060000D02*
X137940000Y-51310000D01*
X137940000Y-51310000D02*
X138960000Y-51310000D01*
X138960000Y-49710000D02*
X140240000Y-49710000D01*
X138960000Y-51310000D02*
X138960000Y-49710000D01*
X159760000Y-49710000D02*
X159760000Y-52600000D01*
X160340000Y-43490000D02*
X139660000Y-43490000D01*
X161040000Y-49710000D02*
X159760000Y-49710000D01*
X161040000Y-51310000D02*
X161040000Y-49710000D01*
X162060000Y-47060000D02*
X162060000Y-51310000D01*
X162060000Y-51310000D02*
X161040000Y-51310000D01*
%TO.C,D38*%
X113441859Y-65974104D02*
X114681753Y-68967474D01*
X113441859Y-65974104D02*
X116435229Y-64734210D01*
X114681753Y-68967474D02*
X117675123Y-67727580D01*
%TO.C,D2*%
X172207140Y-64440128D02*
X169056661Y-63683765D01*
X172207140Y-64440128D02*
X172963503Y-61289649D01*
X172963503Y-61289649D02*
X169813024Y-60533286D01*
%TO.C,D17*%
X194797145Y-226202785D02*
X196490041Y-228965339D01*
X194797145Y-226202785D02*
X197559699Y-224509889D01*
X196490041Y-228965339D02*
X199252595Y-227272443D01*
%TO.C,D33*%
X64734210Y-116435229D02*
X65974104Y-113441859D01*
X64734210Y-116435229D02*
X67727580Y-117675123D01*
X67727580Y-117675123D02*
X68967474Y-114681753D01*
%TO.C,D6*%
X218256784Y-93833639D02*
X216152572Y-91369923D01*
X218256784Y-93833639D02*
X220720500Y-91729427D01*
X220720500Y-91729427D02*
X218616288Y-89265711D01*
%TO.C,D19*%
X169056661Y-236316234D02*
X169813024Y-239466713D01*
X169056661Y-236316234D02*
X172207140Y-235559871D01*
X169813024Y-239466713D02*
X172963503Y-238710350D01*
%TO.C,D5*%
X208630076Y-83847427D02*
X206166360Y-81743215D01*
X208630076Y-83847427D02*
X210734288Y-81383711D01*
X210734288Y-81383711D02*
X208270572Y-79279499D01*
%TO.C,D3*%
X185318246Y-68967474D02*
X182324876Y-67727580D01*
X185318246Y-68967474D02*
X186558140Y-65974104D01*
X186558140Y-65974104D02*
X183564770Y-64734210D01*
%TO.C,D7*%
X226202785Y-105202854D02*
X224509889Y-102440300D01*
X226202785Y-105202854D02*
X228965339Y-103509958D01*
X228965339Y-103509958D02*
X227272443Y-100747404D01*
%TO.C,D31*%
X58535329Y-144426583D02*
X58789537Y-141196571D01*
X58535329Y-144426583D02*
X61765341Y-144680791D01*
X61765341Y-144680791D02*
X62019549Y-141450779D01*
%TO.C,D40*%
X141196571Y-58789537D02*
X141450779Y-62019549D01*
X141196571Y-58789537D02*
X144426583Y-58535329D01*
X141450779Y-62019549D02*
X144680791Y-61765341D01*
%TO.C,D13*%
X231032525Y-185318246D02*
X232272419Y-182324876D01*
X231032525Y-185318246D02*
X234025895Y-186558140D01*
X234025895Y-186558140D02*
X235265789Y-183564770D01*
%TO.C,D20*%
X155319208Y-238234658D02*
X155573416Y-241464670D01*
X155319208Y-238234658D02*
X158549220Y-237980450D01*
X155573416Y-241464670D02*
X158803428Y-241210462D01*
%TO.C,D23*%
X116435229Y-235265789D02*
X113441859Y-234025895D01*
X116435229Y-235265789D02*
X117675123Y-232272419D01*
X117675123Y-232272419D02*
X114681753Y-231032525D01*
%TO.C,D34*%
X71034660Y-103509958D02*
X72727556Y-100747404D01*
X71034660Y-103509958D02*
X73797214Y-105202854D01*
X73797214Y-105202854D02*
X75490110Y-102440300D01*
%TO.C,D15*%
X216152572Y-208630076D02*
X218256784Y-206166360D01*
X216152572Y-208630076D02*
X218616288Y-210734288D01*
X218616288Y-210734288D02*
X220720500Y-208270572D01*
%TO.C,D37*%
X100747404Y-72727556D02*
X102440300Y-75490110D01*
X100747404Y-72727556D02*
X103509958Y-71034660D01*
X102440300Y-75490110D02*
X105202854Y-73797214D01*
%TO.C,TH1*%
X150237258Y-58477500D02*
X149762742Y-58477500D01*
X150237258Y-59522500D02*
X149762742Y-59522500D01*
%TO.C,D9*%
X236316234Y-130943338D02*
X235559871Y-127792859D01*
X236316234Y-130943338D02*
X239466713Y-130186975D01*
X239466713Y-130186975D02*
X238710350Y-127036496D01*
%TO.C,D29*%
X61289649Y-172963503D02*
X60533286Y-169813024D01*
X61289649Y-172963503D02*
X64440128Y-172207140D01*
X64440128Y-172207140D02*
X63683765Y-169056661D01*
%TD*%
%LPC*%
D14*
%TO.C,D35*%
X81190030Y-91986908D03*
D15*
X82261620Y-90732239D03*
D16*
X82456454Y-90504117D03*
%TD*%
D17*
%TO.C,D22*%
X129549030Y-237647523D03*
D18*
X127944619Y-237262338D03*
D19*
X127652908Y-237192305D03*
%TD*%
D20*
%TO.C,D18*%
X183910277Y-233369200D03*
D21*
X185434678Y-232737772D03*
D22*
X185711842Y-232622967D03*
%TD*%
D23*
%TO.C,D25*%
X91986908Y-218809969D03*
D24*
X90732239Y-217738379D03*
D25*
X90504117Y-217543545D03*
%TD*%
D26*
%TO.C,D36*%
X91112442Y-81936896D03*
D27*
X92367111Y-80865306D03*
D28*
X92595233Y-80670472D03*
%TD*%
D29*
%TO.C,H3*%
X86360389Y-213639610D03*
%TD*%
D30*
%TO.C,D24*%
X103465397Y-227038051D03*
D31*
X102058541Y-226175928D03*
D32*
X101802749Y-226019178D03*
%TD*%
D33*
%TO.C,D39*%
X128430804Y-62620938D03*
D34*
X130035215Y-62235753D03*
D35*
X130326926Y-62165720D03*
%TD*%
D36*
%TO.C,D11*%
X239677446Y-157634545D03*
D37*
X239806904Y-155989632D03*
D38*
X239830441Y-155690557D03*
%TD*%
D39*
%TO.C,D27*%
X73562822Y-197515138D03*
D40*
X72700699Y-196108282D03*
D41*
X72543949Y-195852490D03*
%TD*%
D30*
%TO.C,D4*%
X197515138Y-73562822D03*
D31*
X196108282Y-72700699D03*
D32*
X195852490Y-72543949D03*
%TD*%
D42*
%TO.C,D1*%
X157634545Y-60322553D03*
D43*
X155989632Y-60193095D03*
D44*
X155690557Y-60169558D03*
%TD*%
D45*
%TO.C,D14*%
X226437177Y-197515138D03*
D46*
X227299300Y-196108282D03*
D47*
X227456050Y-195852490D03*
%TD*%
D48*
%TO.C,D32*%
X62352476Y-129549030D03*
D49*
X62737661Y-127944619D03*
D50*
X62807694Y-127652908D03*
%TD*%
D29*
%TO.C,H1*%
X213639610Y-86360389D03*
%TD*%
D51*
%TO.C,D8*%
X233369200Y-116089722D03*
D52*
X232737772Y-114565321D03*
D53*
X232622967Y-114288157D03*
%TD*%
D42*
%TO.C,D21*%
X143511908Y-239767674D03*
D43*
X141866995Y-239638216D03*
D44*
X141567920Y-239614679D03*
%TD*%
D26*
%TO.C,D16*%
X208013091Y-218809969D03*
D27*
X209267760Y-217738379D03*
D28*
X209495882Y-217543545D03*
%TD*%
D48*
%TO.C,D12*%
X237379061Y-171569195D03*
D49*
X237764246Y-169964784D03*
D50*
X237834279Y-169673073D03*
%TD*%
D54*
%TO.C,D10*%
X239767674Y-143511908D03*
D55*
X239638216Y-141866995D03*
D56*
X239614679Y-141567920D03*
%TD*%
D57*
%TO.C,D26*%
X81936896Y-208887557D03*
D58*
X80865306Y-207632888D03*
D59*
X80670472Y-207404766D03*
%TD*%
D51*
%TO.C,D28*%
X67070885Y-184972739D03*
D52*
X66439457Y-183448338D03*
D53*
X66324652Y-183171174D03*
%TD*%
D54*
%TO.C,D30*%
X60322553Y-157634545D03*
D55*
X60193095Y-155989632D03*
D56*
X60169558Y-155690557D03*
%TD*%
D60*
%TO.C,J1*%
X159000000Y-50850000D03*
X157000000Y-50850000D03*
X155000000Y-50850000D03*
X153000000Y-50850000D03*
X151000000Y-50850000D03*
X149000000Y-50850000D03*
X147000000Y-50850000D03*
X145000000Y-50850000D03*
X143000000Y-50850000D03*
X141000000Y-50850000D03*
D61*
X161350000Y-45100000D03*
X138650000Y-45100000D03*
%TD*%
D20*
%TO.C,D38*%
X115027260Y-67070885D03*
D21*
X116551661Y-66439457D03*
D22*
X116828825Y-66324652D03*
%TD*%
D17*
%TO.C,D2*%
X171569195Y-62620938D03*
D18*
X169964784Y-62235753D03*
D19*
X169673073Y-62165720D03*
%TD*%
D62*
%TO.C,D17*%
X196534602Y-227038051D03*
D63*
X197941458Y-226175928D03*
D64*
X198197250Y-226019178D03*
%TD*%
D29*
%TO.C,H4*%
X86360389Y-86360389D03*
%TD*%
D65*
%TO.C,D33*%
X66630799Y-116089722D03*
D66*
X67262227Y-114565321D03*
D67*
X67377032Y-114288157D03*
%TD*%
D57*
%TO.C,D6*%
X218809969Y-91986908D03*
D58*
X217738379Y-90732239D03*
D59*
X217543545Y-90504117D03*
%TD*%
D33*
%TO.C,D19*%
X170450969Y-237647523D03*
D34*
X172055380Y-237262338D03*
D35*
X172347091Y-237192305D03*
%TD*%
D23*
%TO.C,D5*%
X208887557Y-81936896D03*
D24*
X207632888Y-80865306D03*
D25*
X207404766Y-80670472D03*
%TD*%
D68*
%TO.C,D3*%
X184972739Y-67070885D03*
D69*
X183448338Y-66439457D03*
D70*
X183171174Y-66324652D03*
%TD*%
D39*
%TO.C,D7*%
X227038051Y-103465397D03*
D40*
X226175928Y-102058541D03*
D41*
X226019178Y-101802749D03*
%TD*%
D36*
%TO.C,D31*%
X60232325Y-143511908D03*
D37*
X60361783Y-141866995D03*
D38*
X60385320Y-141567920D03*
%TD*%
D71*
%TO.C,D40*%
X142365454Y-60322553D03*
D72*
X144010367Y-60193095D03*
D73*
X144309442Y-60169558D03*
%TD*%
D65*
%TO.C,D13*%
X232929114Y-184972739D03*
D66*
X233560542Y-183448338D03*
D67*
X233675347Y-183171174D03*
%TD*%
D71*
%TO.C,D20*%
X156488091Y-239767674D03*
D72*
X158133004Y-239638216D03*
D73*
X158432079Y-239614679D03*
%TD*%
D29*
%TO.C,H2*%
X213639610Y-213639610D03*
%TD*%
D68*
%TO.C,D23*%
X116089722Y-233369200D03*
D69*
X114565321Y-232737772D03*
D70*
X114288157Y-232622967D03*
%TD*%
D45*
%TO.C,D34*%
X72961948Y-103465397D03*
D46*
X73824071Y-102058541D03*
D47*
X73980821Y-101802749D03*
%TD*%
D14*
%TO.C,D15*%
X218063103Y-208887557D03*
D15*
X219134693Y-207632888D03*
D16*
X219329527Y-207404766D03*
%TD*%
D62*
%TO.C,D37*%
X102484861Y-73562822D03*
D63*
X103891717Y-72700699D03*
D64*
X104147509Y-72543949D03*
%TD*%
D74*
%TO.C,TH1*%
X150825000Y-59000000D03*
X149175000Y-59000000D03*
%TD*%
D75*
%TO.C,D9*%
X237647523Y-129549030D03*
D76*
X237262338Y-127944619D03*
D77*
X237192305Y-127652908D03*
%TD*%
D75*
%TO.C,D29*%
X62620938Y-171569195D03*
D76*
X62235753Y-169964784D03*
D77*
X62165720Y-169673073D03*
%TD*%
%LPD*%
M02*
