%TF.GenerationSoftware,KiCad,Pcbnew,9.0.9-9.0.9~ubuntu24.04.1*%
%TF.CreationDate,2026-10-10T04:14:14+00:00*%
%TF.ProjectId,eclipse-halo,65636c69-7073-4652-9d68-616c6f2e6b69,rev?*%
%TF.SameCoordinates,Original*%
%TF.FileFunction,Drillmap*%
%TF.FilePolarity,Positive*%
%FSLAX45Y45*%
G04 Gerber Fmt 4.5, Leading zero omitted, Abs format (unit mm)*
G04 Created by KiCad (PCBNEW 9.0.9-9.0.9~ubuntu24.04.1) date 2026-10-10 04:14:14*
%MOMM*%
%LPD*%
G01*
G04 APERTURE LIST*
%ADD10C,0.100000*%
%ADD11C,0.200000*%
%ADD12C,0.270000*%
G04 APERTURE END LIST*
D10*
X13600000Y-4240000D02*
X16400000Y-4240000D01*
X13600000Y-5098485D02*
X13600000Y-4240000D01*
X23000000Y-15000000D02*
G75*
G02*
X7000000Y-15000000I-8000000J0D01*
G01*
X7000000Y-15000000D02*
G75*
G02*
X23000000Y-15000000I8000000J0D01*
G01*
X16400000Y-4240000D02*
X16400000Y-5098485D01*
X16400000Y-5098485D02*
G75*
G02*
X13600000Y-5098485I-1400000J-9901515D01*
G01*
D11*
D12*
X8501039Y-8501039D02*
X8771039Y-8771039D01*
X8771039Y-8501039D02*
X8501039Y-8771039D01*
X8501039Y-21228961D02*
X8771039Y-21498961D01*
X8771039Y-21228961D02*
X8501039Y-21498961D01*
X21228961Y-8501039D02*
X21498961Y-8771039D01*
X21498961Y-8501039D02*
X21228961Y-8771039D01*
X21228961Y-21228961D02*
X21498961Y-21498961D01*
X21498961Y-21228961D02*
X21228961Y-21498961D01*
D11*
X5255777Y-25316484D02*
X5255777Y-25116484D01*
X5255777Y-25116484D02*
X5303396Y-25116484D01*
X5303396Y-25116484D02*
X5331967Y-25126008D01*
X5331967Y-25126008D02*
X5351015Y-25145055D01*
X5351015Y-25145055D02*
X5360539Y-25164103D01*
X5360539Y-25164103D02*
X5370062Y-25202198D01*
X5370062Y-25202198D02*
X5370062Y-25230770D01*
X5370062Y-25230770D02*
X5360539Y-25268865D01*
X5360539Y-25268865D02*
X5351015Y-25287912D01*
X5351015Y-25287912D02*
X5331967Y-25306960D01*
X5331967Y-25306960D02*
X5303396Y-25316484D01*
X5303396Y-25316484D02*
X5255777Y-25316484D01*
X5455777Y-25316484D02*
X5455777Y-25183150D01*
X5455777Y-25221246D02*
X5465301Y-25202198D01*
X5465301Y-25202198D02*
X5474824Y-25192674D01*
X5474824Y-25192674D02*
X5493872Y-25183150D01*
X5493872Y-25183150D02*
X5512920Y-25183150D01*
X5579586Y-25316484D02*
X5579586Y-25183150D01*
X5579586Y-25116484D02*
X5570062Y-25126008D01*
X5570062Y-25126008D02*
X5579586Y-25135531D01*
X5579586Y-25135531D02*
X5589110Y-25126008D01*
X5589110Y-25126008D02*
X5579586Y-25116484D01*
X5579586Y-25116484D02*
X5579586Y-25135531D01*
X5703396Y-25316484D02*
X5684348Y-25306960D01*
X5684348Y-25306960D02*
X5674824Y-25287912D01*
X5674824Y-25287912D02*
X5674824Y-25116484D01*
X5808158Y-25316484D02*
X5789110Y-25306960D01*
X5789110Y-25306960D02*
X5779586Y-25287912D01*
X5779586Y-25287912D02*
X5779586Y-25116484D01*
X6036729Y-25316484D02*
X6036729Y-25116484D01*
X6036729Y-25116484D02*
X6103396Y-25259341D01*
X6103396Y-25259341D02*
X6170062Y-25116484D01*
X6170062Y-25116484D02*
X6170062Y-25316484D01*
X6351015Y-25316484D02*
X6351015Y-25211722D01*
X6351015Y-25211722D02*
X6341491Y-25192674D01*
X6341491Y-25192674D02*
X6322443Y-25183150D01*
X6322443Y-25183150D02*
X6284348Y-25183150D01*
X6284348Y-25183150D02*
X6265300Y-25192674D01*
X6351015Y-25306960D02*
X6331967Y-25316484D01*
X6331967Y-25316484D02*
X6284348Y-25316484D01*
X6284348Y-25316484D02*
X6265300Y-25306960D01*
X6265300Y-25306960D02*
X6255777Y-25287912D01*
X6255777Y-25287912D02*
X6255777Y-25268865D01*
X6255777Y-25268865D02*
X6265300Y-25249817D01*
X6265300Y-25249817D02*
X6284348Y-25240293D01*
X6284348Y-25240293D02*
X6331967Y-25240293D01*
X6331967Y-25240293D02*
X6351015Y-25230770D01*
X6446253Y-25183150D02*
X6446253Y-25383150D01*
X6446253Y-25192674D02*
X6465300Y-25183150D01*
X6465300Y-25183150D02*
X6503396Y-25183150D01*
X6503396Y-25183150D02*
X6522443Y-25192674D01*
X6522443Y-25192674D02*
X6531967Y-25202198D01*
X6531967Y-25202198D02*
X6541491Y-25221246D01*
X6541491Y-25221246D02*
X6541491Y-25278389D01*
X6541491Y-25278389D02*
X6531967Y-25297436D01*
X6531967Y-25297436D02*
X6522443Y-25306960D01*
X6522443Y-25306960D02*
X6503396Y-25316484D01*
X6503396Y-25316484D02*
X6465300Y-25316484D01*
X6465300Y-25316484D02*
X6446253Y-25306960D01*
X6627205Y-25297436D02*
X6636729Y-25306960D01*
X6636729Y-25306960D02*
X6627205Y-25316484D01*
X6627205Y-25316484D02*
X6617681Y-25306960D01*
X6617681Y-25306960D02*
X6627205Y-25297436D01*
X6627205Y-25297436D02*
X6627205Y-25316484D01*
X6627205Y-25192674D02*
X6636729Y-25202198D01*
X6636729Y-25202198D02*
X6627205Y-25211722D01*
X6627205Y-25211722D02*
X6617681Y-25202198D01*
X6617681Y-25202198D02*
X6627205Y-25192674D01*
X6627205Y-25192674D02*
X6627205Y-25211722D01*
X4795000Y-25545000D02*
X4995000Y-25745000D01*
X4995000Y-25545000D02*
X4795000Y-25745000D01*
X5246253Y-25555531D02*
X5255777Y-25546008D01*
X5255777Y-25546008D02*
X5274824Y-25536484D01*
X5274824Y-25536484D02*
X5322443Y-25536484D01*
X5322443Y-25536484D02*
X5341491Y-25546008D01*
X5341491Y-25546008D02*
X5351015Y-25555531D01*
X5351015Y-25555531D02*
X5360539Y-25574579D01*
X5360539Y-25574579D02*
X5360539Y-25593627D01*
X5360539Y-25593627D02*
X5351015Y-25622198D01*
X5351015Y-25622198D02*
X5236729Y-25736484D01*
X5236729Y-25736484D02*
X5360539Y-25736484D01*
X5446253Y-25717436D02*
X5455777Y-25726960D01*
X5455777Y-25726960D02*
X5446253Y-25736484D01*
X5446253Y-25736484D02*
X5436729Y-25726960D01*
X5436729Y-25726960D02*
X5446253Y-25717436D01*
X5446253Y-25717436D02*
X5446253Y-25736484D01*
X5522443Y-25536484D02*
X5655777Y-25536484D01*
X5655777Y-25536484D02*
X5570062Y-25736484D01*
X5770062Y-25536484D02*
X5789110Y-25536484D01*
X5789110Y-25536484D02*
X5808158Y-25546008D01*
X5808158Y-25546008D02*
X5817681Y-25555531D01*
X5817681Y-25555531D02*
X5827205Y-25574579D01*
X5827205Y-25574579D02*
X5836729Y-25612674D01*
X5836729Y-25612674D02*
X5836729Y-25660293D01*
X5836729Y-25660293D02*
X5827205Y-25698389D01*
X5827205Y-25698389D02*
X5817681Y-25717436D01*
X5817681Y-25717436D02*
X5808158Y-25726960D01*
X5808158Y-25726960D02*
X5789110Y-25736484D01*
X5789110Y-25736484D02*
X5770062Y-25736484D01*
X5770062Y-25736484D02*
X5751015Y-25726960D01*
X5751015Y-25726960D02*
X5741491Y-25717436D01*
X5741491Y-25717436D02*
X5731967Y-25698389D01*
X5731967Y-25698389D02*
X5722443Y-25660293D01*
X5722443Y-25660293D02*
X5722443Y-25612674D01*
X5722443Y-25612674D02*
X5731967Y-25574579D01*
X5731967Y-25574579D02*
X5741491Y-25555531D01*
X5741491Y-25555531D02*
X5751015Y-25546008D01*
X5751015Y-25546008D02*
X5770062Y-25536484D01*
X5960539Y-25536484D02*
X5979586Y-25536484D01*
X5979586Y-25536484D02*
X5998634Y-25546008D01*
X5998634Y-25546008D02*
X6008158Y-25555531D01*
X6008158Y-25555531D02*
X6017681Y-25574579D01*
X6017681Y-25574579D02*
X6027205Y-25612674D01*
X6027205Y-25612674D02*
X6027205Y-25660293D01*
X6027205Y-25660293D02*
X6017681Y-25698389D01*
X6017681Y-25698389D02*
X6008158Y-25717436D01*
X6008158Y-25717436D02*
X5998634Y-25726960D01*
X5998634Y-25726960D02*
X5979586Y-25736484D01*
X5979586Y-25736484D02*
X5960539Y-25736484D01*
X5960539Y-25736484D02*
X5941491Y-25726960D01*
X5941491Y-25726960D02*
X5931967Y-25717436D01*
X5931967Y-25717436D02*
X5922443Y-25698389D01*
X5922443Y-25698389D02*
X5912920Y-25660293D01*
X5912920Y-25660293D02*
X5912920Y-25612674D01*
X5912920Y-25612674D02*
X5922443Y-25574579D01*
X5922443Y-25574579D02*
X5931967Y-25555531D01*
X5931967Y-25555531D02*
X5941491Y-25546008D01*
X5941491Y-25546008D02*
X5960539Y-25536484D01*
X6112920Y-25736484D02*
X6112920Y-25603150D01*
X6112920Y-25622198D02*
X6122443Y-25612674D01*
X6122443Y-25612674D02*
X6141491Y-25603150D01*
X6141491Y-25603150D02*
X6170062Y-25603150D01*
X6170062Y-25603150D02*
X6189110Y-25612674D01*
X6189110Y-25612674D02*
X6198634Y-25631722D01*
X6198634Y-25631722D02*
X6198634Y-25736484D01*
X6198634Y-25631722D02*
X6208158Y-25612674D01*
X6208158Y-25612674D02*
X6227205Y-25603150D01*
X6227205Y-25603150D02*
X6255777Y-25603150D01*
X6255777Y-25603150D02*
X6274824Y-25612674D01*
X6274824Y-25612674D02*
X6284348Y-25631722D01*
X6284348Y-25631722D02*
X6284348Y-25736484D01*
X6379586Y-25736484D02*
X6379586Y-25603150D01*
X6379586Y-25622198D02*
X6389110Y-25612674D01*
X6389110Y-25612674D02*
X6408158Y-25603150D01*
X6408158Y-25603150D02*
X6436729Y-25603150D01*
X6436729Y-25603150D02*
X6455777Y-25612674D01*
X6455777Y-25612674D02*
X6465301Y-25631722D01*
X6465301Y-25631722D02*
X6465301Y-25736484D01*
X6465301Y-25631722D02*
X6474824Y-25612674D01*
X6474824Y-25612674D02*
X6493872Y-25603150D01*
X6493872Y-25603150D02*
X6522443Y-25603150D01*
X6522443Y-25603150D02*
X6541491Y-25612674D01*
X6541491Y-25612674D02*
X6551015Y-25631722D01*
X6551015Y-25631722D02*
X6551015Y-25736484D01*
X6941491Y-25526960D02*
X6770063Y-25784103D01*
X7198634Y-25536484D02*
X7217682Y-25536484D01*
X7217682Y-25536484D02*
X7236729Y-25546008D01*
X7236729Y-25546008D02*
X7246253Y-25555531D01*
X7246253Y-25555531D02*
X7255777Y-25574579D01*
X7255777Y-25574579D02*
X7265301Y-25612674D01*
X7265301Y-25612674D02*
X7265301Y-25660293D01*
X7265301Y-25660293D02*
X7255777Y-25698389D01*
X7255777Y-25698389D02*
X7246253Y-25717436D01*
X7246253Y-25717436D02*
X7236729Y-25726960D01*
X7236729Y-25726960D02*
X7217682Y-25736484D01*
X7217682Y-25736484D02*
X7198634Y-25736484D01*
X7198634Y-25736484D02*
X7179586Y-25726960D01*
X7179586Y-25726960D02*
X7170063Y-25717436D01*
X7170063Y-25717436D02*
X7160539Y-25698389D01*
X7160539Y-25698389D02*
X7151015Y-25660293D01*
X7151015Y-25660293D02*
X7151015Y-25612674D01*
X7151015Y-25612674D02*
X7160539Y-25574579D01*
X7160539Y-25574579D02*
X7170063Y-25555531D01*
X7170063Y-25555531D02*
X7179586Y-25546008D01*
X7179586Y-25546008D02*
X7198634Y-25536484D01*
X7351015Y-25717436D02*
X7360539Y-25726960D01*
X7360539Y-25726960D02*
X7351015Y-25736484D01*
X7351015Y-25736484D02*
X7341491Y-25726960D01*
X7341491Y-25726960D02*
X7351015Y-25717436D01*
X7351015Y-25717436D02*
X7351015Y-25736484D01*
X7551015Y-25736484D02*
X7436729Y-25736484D01*
X7493872Y-25736484D02*
X7493872Y-25536484D01*
X7493872Y-25536484D02*
X7474824Y-25565055D01*
X7474824Y-25565055D02*
X7455777Y-25584103D01*
X7455777Y-25584103D02*
X7436729Y-25593627D01*
X7674824Y-25536484D02*
X7693872Y-25536484D01*
X7693872Y-25536484D02*
X7712920Y-25546008D01*
X7712920Y-25546008D02*
X7722444Y-25555531D01*
X7722444Y-25555531D02*
X7731967Y-25574579D01*
X7731967Y-25574579D02*
X7741491Y-25612674D01*
X7741491Y-25612674D02*
X7741491Y-25660293D01*
X7741491Y-25660293D02*
X7731967Y-25698389D01*
X7731967Y-25698389D02*
X7722444Y-25717436D01*
X7722444Y-25717436D02*
X7712920Y-25726960D01*
X7712920Y-25726960D02*
X7693872Y-25736484D01*
X7693872Y-25736484D02*
X7674824Y-25736484D01*
X7674824Y-25736484D02*
X7655777Y-25726960D01*
X7655777Y-25726960D02*
X7646253Y-25717436D01*
X7646253Y-25717436D02*
X7636729Y-25698389D01*
X7636729Y-25698389D02*
X7627205Y-25660293D01*
X7627205Y-25660293D02*
X7627205Y-25612674D01*
X7627205Y-25612674D02*
X7636729Y-25574579D01*
X7636729Y-25574579D02*
X7646253Y-25555531D01*
X7646253Y-25555531D02*
X7655777Y-25546008D01*
X7655777Y-25546008D02*
X7674824Y-25536484D01*
X7912920Y-25536484D02*
X7874824Y-25536484D01*
X7874824Y-25536484D02*
X7855777Y-25546008D01*
X7855777Y-25546008D02*
X7846253Y-25555531D01*
X7846253Y-25555531D02*
X7827205Y-25584103D01*
X7827205Y-25584103D02*
X7817682Y-25622198D01*
X7817682Y-25622198D02*
X7817682Y-25698389D01*
X7817682Y-25698389D02*
X7827205Y-25717436D01*
X7827205Y-25717436D02*
X7836729Y-25726960D01*
X7836729Y-25726960D02*
X7855777Y-25736484D01*
X7855777Y-25736484D02*
X7893872Y-25736484D01*
X7893872Y-25736484D02*
X7912920Y-25726960D01*
X7912920Y-25726960D02*
X7922444Y-25717436D01*
X7922444Y-25717436D02*
X7931967Y-25698389D01*
X7931967Y-25698389D02*
X7931967Y-25650770D01*
X7931967Y-25650770D02*
X7922444Y-25631722D01*
X7922444Y-25631722D02*
X7912920Y-25622198D01*
X7912920Y-25622198D02*
X7893872Y-25612674D01*
X7893872Y-25612674D02*
X7855777Y-25612674D01*
X7855777Y-25612674D02*
X7836729Y-25622198D01*
X7836729Y-25622198D02*
X7827205Y-25631722D01*
X7827205Y-25631722D02*
X7817682Y-25650770D01*
X7998634Y-25536484D02*
X8122444Y-25536484D01*
X8122444Y-25536484D02*
X8055777Y-25612674D01*
X8055777Y-25612674D02*
X8084348Y-25612674D01*
X8084348Y-25612674D02*
X8103396Y-25622198D01*
X8103396Y-25622198D02*
X8112920Y-25631722D01*
X8112920Y-25631722D02*
X8122444Y-25650770D01*
X8122444Y-25650770D02*
X8122444Y-25698389D01*
X8122444Y-25698389D02*
X8112920Y-25717436D01*
X8112920Y-25717436D02*
X8103396Y-25726960D01*
X8103396Y-25726960D02*
X8084348Y-25736484D01*
X8084348Y-25736484D02*
X8027205Y-25736484D01*
X8027205Y-25736484D02*
X8008158Y-25726960D01*
X8008158Y-25726960D02*
X7998634Y-25717436D01*
X8198634Y-25536484D02*
X8198634Y-25574579D01*
X8274825Y-25536484D02*
X8274825Y-25574579D01*
X8570063Y-25812674D02*
X8560539Y-25803150D01*
X8560539Y-25803150D02*
X8541491Y-25774579D01*
X8541491Y-25774579D02*
X8531968Y-25755531D01*
X8531968Y-25755531D02*
X8522444Y-25726960D01*
X8522444Y-25726960D02*
X8512920Y-25679341D01*
X8512920Y-25679341D02*
X8512920Y-25641246D01*
X8512920Y-25641246D02*
X8522444Y-25593627D01*
X8522444Y-25593627D02*
X8531968Y-25565055D01*
X8531968Y-25565055D02*
X8541491Y-25546008D01*
X8541491Y-25546008D02*
X8560539Y-25517436D01*
X8560539Y-25517436D02*
X8570063Y-25507912D01*
X8731968Y-25603150D02*
X8731968Y-25736484D01*
X8684348Y-25526960D02*
X8636729Y-25669817D01*
X8636729Y-25669817D02*
X8760539Y-25669817D01*
X8989110Y-25736484D02*
X8989110Y-25536484D01*
X9074825Y-25736484D02*
X9074825Y-25631722D01*
X9074825Y-25631722D02*
X9065301Y-25612674D01*
X9065301Y-25612674D02*
X9046253Y-25603150D01*
X9046253Y-25603150D02*
X9017682Y-25603150D01*
X9017682Y-25603150D02*
X8998634Y-25612674D01*
X8998634Y-25612674D02*
X8989110Y-25622198D01*
X9198634Y-25736484D02*
X9179587Y-25726960D01*
X9179587Y-25726960D02*
X9170063Y-25717436D01*
X9170063Y-25717436D02*
X9160539Y-25698389D01*
X9160539Y-25698389D02*
X9160539Y-25641246D01*
X9160539Y-25641246D02*
X9170063Y-25622198D01*
X9170063Y-25622198D02*
X9179587Y-25612674D01*
X9179587Y-25612674D02*
X9198634Y-25603150D01*
X9198634Y-25603150D02*
X9227206Y-25603150D01*
X9227206Y-25603150D02*
X9246253Y-25612674D01*
X9246253Y-25612674D02*
X9255777Y-25622198D01*
X9255777Y-25622198D02*
X9265301Y-25641246D01*
X9265301Y-25641246D02*
X9265301Y-25698389D01*
X9265301Y-25698389D02*
X9255777Y-25717436D01*
X9255777Y-25717436D02*
X9246253Y-25726960D01*
X9246253Y-25726960D02*
X9227206Y-25736484D01*
X9227206Y-25736484D02*
X9198634Y-25736484D01*
X9379587Y-25736484D02*
X9360539Y-25726960D01*
X9360539Y-25726960D02*
X9351015Y-25707912D01*
X9351015Y-25707912D02*
X9351015Y-25536484D01*
X9531968Y-25726960D02*
X9512920Y-25736484D01*
X9512920Y-25736484D02*
X9474825Y-25736484D01*
X9474825Y-25736484D02*
X9455777Y-25726960D01*
X9455777Y-25726960D02*
X9446253Y-25707912D01*
X9446253Y-25707912D02*
X9446253Y-25631722D01*
X9446253Y-25631722D02*
X9455777Y-25612674D01*
X9455777Y-25612674D02*
X9474825Y-25603150D01*
X9474825Y-25603150D02*
X9512920Y-25603150D01*
X9512920Y-25603150D02*
X9531968Y-25612674D01*
X9531968Y-25612674D02*
X9541491Y-25631722D01*
X9541491Y-25631722D02*
X9541491Y-25650770D01*
X9541491Y-25650770D02*
X9446253Y-25669817D01*
X9617682Y-25726960D02*
X9636730Y-25736484D01*
X9636730Y-25736484D02*
X9674825Y-25736484D01*
X9674825Y-25736484D02*
X9693872Y-25726960D01*
X9693872Y-25726960D02*
X9703396Y-25707912D01*
X9703396Y-25707912D02*
X9703396Y-25698389D01*
X9703396Y-25698389D02*
X9693872Y-25679341D01*
X9693872Y-25679341D02*
X9674825Y-25669817D01*
X9674825Y-25669817D02*
X9646253Y-25669817D01*
X9646253Y-25669817D02*
X9627206Y-25660293D01*
X9627206Y-25660293D02*
X9617682Y-25641246D01*
X9617682Y-25641246D02*
X9617682Y-25631722D01*
X9617682Y-25631722D02*
X9627206Y-25612674D01*
X9627206Y-25612674D02*
X9646253Y-25603150D01*
X9646253Y-25603150D02*
X9674825Y-25603150D01*
X9674825Y-25603150D02*
X9693872Y-25612674D01*
X9770063Y-25812674D02*
X9779587Y-25803150D01*
X9779587Y-25803150D02*
X9798634Y-25774579D01*
X9798634Y-25774579D02*
X9808158Y-25755531D01*
X9808158Y-25755531D02*
X9817682Y-25726960D01*
X9817682Y-25726960D02*
X9827206Y-25679341D01*
X9827206Y-25679341D02*
X9827206Y-25641246D01*
X9827206Y-25641246D02*
X9817682Y-25593627D01*
X9817682Y-25593627D02*
X9808158Y-25565055D01*
X9808158Y-25565055D02*
X9798634Y-25546008D01*
X9798634Y-25546008D02*
X9779587Y-25517436D01*
X9779587Y-25517436D02*
X9770063Y-25507912D01*
X10131968Y-25812674D02*
X10122444Y-25803150D01*
X10122444Y-25803150D02*
X10103396Y-25774579D01*
X10103396Y-25774579D02*
X10093872Y-25755531D01*
X10093872Y-25755531D02*
X10084349Y-25726960D01*
X10084349Y-25726960D02*
X10074825Y-25679341D01*
X10074825Y-25679341D02*
X10074825Y-25641246D01*
X10074825Y-25641246D02*
X10084349Y-25593627D01*
X10084349Y-25593627D02*
X10093872Y-25565055D01*
X10093872Y-25565055D02*
X10103396Y-25546008D01*
X10103396Y-25546008D02*
X10122444Y-25517436D01*
X10122444Y-25517436D02*
X10131968Y-25507912D01*
X10208158Y-25603150D02*
X10208158Y-25736484D01*
X10208158Y-25622198D02*
X10217682Y-25612674D01*
X10217682Y-25612674D02*
X10236730Y-25603150D01*
X10236730Y-25603150D02*
X10265301Y-25603150D01*
X10265301Y-25603150D02*
X10284349Y-25612674D01*
X10284349Y-25612674D02*
X10293872Y-25631722D01*
X10293872Y-25631722D02*
X10293872Y-25736484D01*
X10417682Y-25736484D02*
X10398634Y-25726960D01*
X10398634Y-25726960D02*
X10389111Y-25717436D01*
X10389111Y-25717436D02*
X10379587Y-25698389D01*
X10379587Y-25698389D02*
X10379587Y-25641246D01*
X10379587Y-25641246D02*
X10389111Y-25622198D01*
X10389111Y-25622198D02*
X10398634Y-25612674D01*
X10398634Y-25612674D02*
X10417682Y-25603150D01*
X10417682Y-25603150D02*
X10446253Y-25603150D01*
X10446253Y-25603150D02*
X10465301Y-25612674D01*
X10465301Y-25612674D02*
X10474825Y-25622198D01*
X10474825Y-25622198D02*
X10484349Y-25641246D01*
X10484349Y-25641246D02*
X10484349Y-25698389D01*
X10484349Y-25698389D02*
X10474825Y-25717436D01*
X10474825Y-25717436D02*
X10465301Y-25726960D01*
X10465301Y-25726960D02*
X10446253Y-25736484D01*
X10446253Y-25736484D02*
X10417682Y-25736484D01*
X10541492Y-25603150D02*
X10617682Y-25603150D01*
X10570063Y-25536484D02*
X10570063Y-25707912D01*
X10570063Y-25707912D02*
X10579587Y-25726960D01*
X10579587Y-25726960D02*
X10598634Y-25736484D01*
X10598634Y-25736484D02*
X10617682Y-25736484D01*
X10836730Y-25603150D02*
X10836730Y-25803150D01*
X10836730Y-25612674D02*
X10855777Y-25603150D01*
X10855777Y-25603150D02*
X10893873Y-25603150D01*
X10893873Y-25603150D02*
X10912920Y-25612674D01*
X10912920Y-25612674D02*
X10922444Y-25622198D01*
X10922444Y-25622198D02*
X10931968Y-25641246D01*
X10931968Y-25641246D02*
X10931968Y-25698389D01*
X10931968Y-25698389D02*
X10922444Y-25717436D01*
X10922444Y-25717436D02*
X10912920Y-25726960D01*
X10912920Y-25726960D02*
X10893873Y-25736484D01*
X10893873Y-25736484D02*
X10855777Y-25736484D01*
X10855777Y-25736484D02*
X10836730Y-25726960D01*
X11046253Y-25736484D02*
X11027206Y-25726960D01*
X11027206Y-25726960D02*
X11017682Y-25707912D01*
X11017682Y-25707912D02*
X11017682Y-25536484D01*
X11208158Y-25736484D02*
X11208158Y-25631722D01*
X11208158Y-25631722D02*
X11198634Y-25612674D01*
X11198634Y-25612674D02*
X11179587Y-25603150D01*
X11179587Y-25603150D02*
X11141492Y-25603150D01*
X11141492Y-25603150D02*
X11122444Y-25612674D01*
X11208158Y-25726960D02*
X11189111Y-25736484D01*
X11189111Y-25736484D02*
X11141492Y-25736484D01*
X11141492Y-25736484D02*
X11122444Y-25726960D01*
X11122444Y-25726960D02*
X11112920Y-25707912D01*
X11112920Y-25707912D02*
X11112920Y-25688865D01*
X11112920Y-25688865D02*
X11122444Y-25669817D01*
X11122444Y-25669817D02*
X11141492Y-25660293D01*
X11141492Y-25660293D02*
X11189111Y-25660293D01*
X11189111Y-25660293D02*
X11208158Y-25650770D01*
X11274825Y-25603150D02*
X11351015Y-25603150D01*
X11303396Y-25536484D02*
X11303396Y-25707912D01*
X11303396Y-25707912D02*
X11312920Y-25726960D01*
X11312920Y-25726960D02*
X11331968Y-25736484D01*
X11331968Y-25736484D02*
X11351015Y-25736484D01*
X11493872Y-25726960D02*
X11474825Y-25736484D01*
X11474825Y-25736484D02*
X11436730Y-25736484D01*
X11436730Y-25736484D02*
X11417682Y-25726960D01*
X11417682Y-25726960D02*
X11408158Y-25707912D01*
X11408158Y-25707912D02*
X11408158Y-25631722D01*
X11408158Y-25631722D02*
X11417682Y-25612674D01*
X11417682Y-25612674D02*
X11436730Y-25603150D01*
X11436730Y-25603150D02*
X11474825Y-25603150D01*
X11474825Y-25603150D02*
X11493872Y-25612674D01*
X11493872Y-25612674D02*
X11503396Y-25631722D01*
X11503396Y-25631722D02*
X11503396Y-25650770D01*
X11503396Y-25650770D02*
X11408158Y-25669817D01*
X11674825Y-25736484D02*
X11674825Y-25536484D01*
X11674825Y-25726960D02*
X11655777Y-25736484D01*
X11655777Y-25736484D02*
X11617682Y-25736484D01*
X11617682Y-25736484D02*
X11598634Y-25726960D01*
X11598634Y-25726960D02*
X11589111Y-25717436D01*
X11589111Y-25717436D02*
X11579587Y-25698389D01*
X11579587Y-25698389D02*
X11579587Y-25641246D01*
X11579587Y-25641246D02*
X11589111Y-25622198D01*
X11589111Y-25622198D02*
X11598634Y-25612674D01*
X11598634Y-25612674D02*
X11617682Y-25603150D01*
X11617682Y-25603150D02*
X11655777Y-25603150D01*
X11655777Y-25603150D02*
X11674825Y-25612674D01*
X11751015Y-25812674D02*
X11760539Y-25803150D01*
X11760539Y-25803150D02*
X11779587Y-25774579D01*
X11779587Y-25774579D02*
X11789111Y-25755531D01*
X11789111Y-25755531D02*
X11798634Y-25726960D01*
X11798634Y-25726960D02*
X11808158Y-25679341D01*
X11808158Y-25679341D02*
X11808158Y-25641246D01*
X11808158Y-25641246D02*
X11798634Y-25593627D01*
X11798634Y-25593627D02*
X11789111Y-25565055D01*
X11789111Y-25565055D02*
X11779587Y-25546008D01*
X11779587Y-25546008D02*
X11760539Y-25517436D01*
X11760539Y-25517436D02*
X11751015Y-25507912D01*
M02*
