%TF.GenerationSoftware,KiCad,Pcbnew,9.0.9-9.0.9~ubuntu24.04.1*%
%TF.CreationDate,2026-10-10T04:14:13+00:00*%
%TF.ProjectId,eclipse-halo,65636c69-7073-4652-9d68-616c6f2e6b69,rev?*%
%TF.SameCoordinates,Original*%
%TF.FileFunction,Legend,Bot*%
%TF.FilePolarity,Positive*%
%FSLAX46Y46*%
G04 Gerber Fmt 4.6, Leading zero omitted, Abs format (unit mm)*
G04 Created by KiCad (PCBNEW 9.0.9-9.0.9~ubuntu24.04.1) date 2026-10-10 04:14:13*
%MOMM*%
%LPD*%
G01*
G04 APERTURE LIST*
%ADD10C,0.150000*%
%ADD11C,2.700000*%
G04 APERTURE END LIST*
D10*
X239830895Y-162428571D02*
X239830895Y-161952381D01*
X239545180Y-162523809D02*
X240545180Y-162190476D01*
X240545180Y-162190476D02*
X239545180Y-161857143D01*
X239545180Y-161380952D02*
X239592800Y-161476190D01*
X239592800Y-161476190D02*
X239688038Y-161523809D01*
X239688038Y-161523809D02*
X240545180Y-161523809D01*
X239926133Y-160999999D02*
X239926133Y-160238095D01*
X239545180Y-159761904D02*
X240545180Y-159761904D01*
X240545180Y-159761904D02*
X239830895Y-159428571D01*
X239830895Y-159428571D02*
X240545180Y-159095238D01*
X240545180Y-159095238D02*
X239545180Y-159095238D01*
X239640419Y-158047619D02*
X239592800Y-158095238D01*
X239592800Y-158095238D02*
X239545180Y-158238095D01*
X239545180Y-158238095D02*
X239545180Y-158333333D01*
X239545180Y-158333333D02*
X239592800Y-158476190D01*
X239592800Y-158476190D02*
X239688038Y-158571428D01*
X239688038Y-158571428D02*
X239783276Y-158619047D01*
X239783276Y-158619047D02*
X239973752Y-158666666D01*
X239973752Y-158666666D02*
X240116609Y-158666666D01*
X240116609Y-158666666D02*
X240307085Y-158619047D01*
X240307085Y-158619047D02*
X240402323Y-158571428D01*
X240402323Y-158571428D02*
X240497561Y-158476190D01*
X240497561Y-158476190D02*
X240545180Y-158333333D01*
X240545180Y-158333333D02*
X240545180Y-158238095D01*
X240545180Y-158238095D02*
X240497561Y-158095238D01*
X240497561Y-158095238D02*
X240449942Y-158047619D01*
X239545180Y-157619047D02*
X240545180Y-157619047D01*
X240545180Y-157619047D02*
X240545180Y-157238095D01*
X240545180Y-157238095D02*
X240497561Y-157142857D01*
X240497561Y-157142857D02*
X240449942Y-157095238D01*
X240449942Y-157095238D02*
X240354704Y-157047619D01*
X240354704Y-157047619D02*
X240211847Y-157047619D01*
X240211847Y-157047619D02*
X240116609Y-157095238D01*
X240116609Y-157095238D02*
X240068990Y-157142857D01*
X240068990Y-157142857D02*
X240021371Y-157238095D01*
X240021371Y-157238095D02*
X240021371Y-157619047D01*
X239640419Y-156047619D02*
X239592800Y-156095238D01*
X239592800Y-156095238D02*
X239545180Y-156238095D01*
X239545180Y-156238095D02*
X239545180Y-156333333D01*
X239545180Y-156333333D02*
X239592800Y-156476190D01*
X239592800Y-156476190D02*
X239688038Y-156571428D01*
X239688038Y-156571428D02*
X239783276Y-156619047D01*
X239783276Y-156619047D02*
X239973752Y-156666666D01*
X239973752Y-156666666D02*
X240116609Y-156666666D01*
X240116609Y-156666666D02*
X240307085Y-156619047D01*
X240307085Y-156619047D02*
X240402323Y-156571428D01*
X240402323Y-156571428D02*
X240497561Y-156476190D01*
X240497561Y-156476190D02*
X240545180Y-156333333D01*
X240545180Y-156333333D02*
X240545180Y-156238095D01*
X240545180Y-156238095D02*
X240497561Y-156095238D01*
X240497561Y-156095238D02*
X240449942Y-156047619D01*
X240068990Y-155285714D02*
X240021371Y-155142857D01*
X240021371Y-155142857D02*
X239973752Y-155095238D01*
X239973752Y-155095238D02*
X239878514Y-155047619D01*
X239878514Y-155047619D02*
X239735657Y-155047619D01*
X239735657Y-155047619D02*
X239640419Y-155095238D01*
X239640419Y-155095238D02*
X239592800Y-155142857D01*
X239592800Y-155142857D02*
X239545180Y-155238095D01*
X239545180Y-155238095D02*
X239545180Y-155619047D01*
X239545180Y-155619047D02*
X240545180Y-155619047D01*
X240545180Y-155619047D02*
X240545180Y-155285714D01*
X240545180Y-155285714D02*
X240497561Y-155190476D01*
X240497561Y-155190476D02*
X240449942Y-155142857D01*
X240449942Y-155142857D02*
X240354704Y-155095238D01*
X240354704Y-155095238D02*
X240259466Y-155095238D01*
X240259466Y-155095238D02*
X240164228Y-155142857D01*
X240164228Y-155142857D02*
X240116609Y-155190476D01*
X240116609Y-155190476D02*
X240068990Y-155285714D01*
X240068990Y-155285714D02*
X240068990Y-155619047D01*
X239545180Y-153333333D02*
X239545180Y-153904761D01*
X239545180Y-153619047D02*
X240545180Y-153619047D01*
X240545180Y-153619047D02*
X240402323Y-153714285D01*
X240402323Y-153714285D02*
X240307085Y-153809523D01*
X240307085Y-153809523D02*
X240259466Y-153904761D01*
X239640419Y-152904761D02*
X239592800Y-152857142D01*
X239592800Y-152857142D02*
X239545180Y-152904761D01*
X239545180Y-152904761D02*
X239592800Y-152952380D01*
X239592800Y-152952380D02*
X239640419Y-152904761D01*
X239640419Y-152904761D02*
X239545180Y-152904761D01*
X240545180Y-151952381D02*
X240545180Y-152428571D01*
X240545180Y-152428571D02*
X240068990Y-152476190D01*
X240068990Y-152476190D02*
X240116609Y-152428571D01*
X240116609Y-152428571D02*
X240164228Y-152333333D01*
X240164228Y-152333333D02*
X240164228Y-152095238D01*
X240164228Y-152095238D02*
X240116609Y-152000000D01*
X240116609Y-152000000D02*
X240068990Y-151952381D01*
X240068990Y-151952381D02*
X239973752Y-151904762D01*
X239973752Y-151904762D02*
X239735657Y-151904762D01*
X239735657Y-151904762D02*
X239640419Y-151952381D01*
X239640419Y-151952381D02*
X239592800Y-152000000D01*
X239592800Y-152000000D02*
X239545180Y-152095238D01*
X239545180Y-152095238D02*
X239545180Y-152333333D01*
X239545180Y-152333333D02*
X239592800Y-152428571D01*
X239592800Y-152428571D02*
X239640419Y-152476190D01*
X239545180Y-151476190D02*
X240211847Y-151476190D01*
X240116609Y-151476190D02*
X240164228Y-151428571D01*
X240164228Y-151428571D02*
X240211847Y-151333333D01*
X240211847Y-151333333D02*
X240211847Y-151190476D01*
X240211847Y-151190476D02*
X240164228Y-151095238D01*
X240164228Y-151095238D02*
X240068990Y-151047619D01*
X240068990Y-151047619D02*
X239545180Y-151047619D01*
X240068990Y-151047619D02*
X240164228Y-151000000D01*
X240164228Y-151000000D02*
X240211847Y-150904762D01*
X240211847Y-150904762D02*
X240211847Y-150761905D01*
X240211847Y-150761905D02*
X240164228Y-150666666D01*
X240164228Y-150666666D02*
X240068990Y-150619047D01*
X240068990Y-150619047D02*
X239545180Y-150619047D01*
X239545180Y-150142857D02*
X240211847Y-150142857D01*
X240116609Y-150142857D02*
X240164228Y-150095238D01*
X240164228Y-150095238D02*
X240211847Y-150000000D01*
X240211847Y-150000000D02*
X240211847Y-149857143D01*
X240211847Y-149857143D02*
X240164228Y-149761905D01*
X240164228Y-149761905D02*
X240068990Y-149714286D01*
X240068990Y-149714286D02*
X239545180Y-149714286D01*
X240068990Y-149714286D02*
X240164228Y-149666667D01*
X240164228Y-149666667D02*
X240211847Y-149571429D01*
X240211847Y-149571429D02*
X240211847Y-149428572D01*
X240211847Y-149428572D02*
X240164228Y-149333333D01*
X240164228Y-149333333D02*
X240068990Y-149285714D01*
X240068990Y-149285714D02*
X239545180Y-149285714D01*
X240592800Y-147333334D02*
X239307085Y-148190476D01*
X239545180Y-145714286D02*
X239545180Y-146285714D01*
X239545180Y-146000000D02*
X240545180Y-146000000D01*
X240545180Y-146000000D02*
X240402323Y-146095238D01*
X240402323Y-146095238D02*
X240307085Y-146190476D01*
X240307085Y-146190476D02*
X240259466Y-146285714D01*
X239545180Y-145142857D02*
X239592800Y-145238095D01*
X239592800Y-145238095D02*
X239640419Y-145285714D01*
X239640419Y-145285714D02*
X239735657Y-145333333D01*
X239735657Y-145333333D02*
X240021371Y-145333333D01*
X240021371Y-145333333D02*
X240116609Y-145285714D01*
X240116609Y-145285714D02*
X240164228Y-145238095D01*
X240164228Y-145238095D02*
X240211847Y-145142857D01*
X240211847Y-145142857D02*
X240211847Y-145000000D01*
X240211847Y-145000000D02*
X240164228Y-144904762D01*
X240164228Y-144904762D02*
X240116609Y-144857143D01*
X240116609Y-144857143D02*
X240021371Y-144809524D01*
X240021371Y-144809524D02*
X239735657Y-144809524D01*
X239735657Y-144809524D02*
X239640419Y-144857143D01*
X239640419Y-144857143D02*
X239592800Y-144904762D01*
X239592800Y-144904762D02*
X239545180Y-145000000D01*
X239545180Y-145000000D02*
X239545180Y-145142857D01*
X240211847Y-144476190D02*
X240211847Y-143952381D01*
X240211847Y-143952381D02*
X239545180Y-144476190D01*
X239545180Y-144476190D02*
X239545180Y-143952381D01*
X240592800Y-142095238D02*
X239307085Y-142952380D01*
X240211847Y-141095237D02*
X239545180Y-140904761D01*
X239545180Y-140904761D02*
X240021371Y-140714285D01*
X240021371Y-140714285D02*
X239545180Y-140523809D01*
X239545180Y-140523809D02*
X240211847Y-140333333D01*
X239545180Y-139952380D02*
X240545180Y-139952380D01*
X239545180Y-139523809D02*
X240068990Y-139523809D01*
X240068990Y-139523809D02*
X240164228Y-139571428D01*
X240164228Y-139571428D02*
X240211847Y-139666666D01*
X240211847Y-139666666D02*
X240211847Y-139809523D01*
X240211847Y-139809523D02*
X240164228Y-139904761D01*
X240164228Y-139904761D02*
X240116609Y-139952380D01*
X239545180Y-139047618D02*
X240211847Y-139047618D01*
X240545180Y-139047618D02*
X240497561Y-139095237D01*
X240497561Y-139095237D02*
X240449942Y-139047618D01*
X240449942Y-139047618D02*
X240497561Y-138999999D01*
X240497561Y-138999999D02*
X240545180Y-139047618D01*
X240545180Y-139047618D02*
X240449942Y-139047618D01*
X240211847Y-138714285D02*
X240211847Y-138333333D01*
X240545180Y-138571428D02*
X239688038Y-138571428D01*
X239688038Y-138571428D02*
X239592800Y-138523809D01*
X239592800Y-138523809D02*
X239545180Y-138428571D01*
X239545180Y-138428571D02*
X239545180Y-138333333D01*
X239592800Y-137619047D02*
X239545180Y-137714285D01*
X239545180Y-137714285D02*
X239545180Y-137904761D01*
X239545180Y-137904761D02*
X239592800Y-137999999D01*
X239592800Y-137999999D02*
X239688038Y-138047618D01*
X239688038Y-138047618D02*
X240068990Y-138047618D01*
X240068990Y-138047618D02*
X240164228Y-137999999D01*
X240164228Y-137999999D02*
X240211847Y-137904761D01*
X240211847Y-137904761D02*
X240211847Y-137714285D01*
X240211847Y-137714285D02*
X240164228Y-137619047D01*
X240164228Y-137619047D02*
X240068990Y-137571428D01*
X240068990Y-137571428D02*
X239973752Y-137571428D01*
X239973752Y-137571428D02*
X239878514Y-138047618D01*
%LPC*%
D11*
%TO.C,H3*%
X86360389Y-213639610D03*
%TD*%
%TO.C,H1*%
X213639610Y-86360389D03*
%TD*%
%TO.C,H4*%
X86360389Y-86360389D03*
%TD*%
%TO.C,H2*%
X213639610Y-213639610D03*
%TD*%
%LPD*%
M02*
