%TF.GenerationSoftware,KiCad,Pcbnew,9.0.9-9.0.9~ubuntu24.04.1*%
%TF.CreationDate,2026-10-07T20:14:46+00:00*%
%TF.ProjectId,eclipse-halo,65636c69-7073-4652-9d68-616c6f2e6b69,rev?*%
%TF.SameCoordinates,Original*%
%TF.FileFunction,Copper,L1,Top*%
%TF.FilePolarity,Positive*%
%FSLAX46Y46*%
G04 Gerber Fmt 4.6, Leading zero omitted, Abs format (unit mm)*
G04 Created by KiCad (PCBNEW 9.0.9-9.0.9~ubuntu24.04.1) date 2026-10-07 20:14:46*
%MOMM*%
%LPD*%
G01*
G04 APERTURE LIST*
G04 Aperture macros list*
%AMRoundRect*
0 Rectangle with rounded corners*
0 $1 Rounding radius*
0 $2 $3 $4 $5 $6 $7 $8 $9 X,Y pos of 4 corners*
0 Add a 4 corners polygon primitive as box body*
4,1,4,$2,$3,$4,$5,$6,$7,$8,$9,$2,$3,0*
0 Add four circle primitives for the rounded corners*
1,1,$1+$1,$2,$3*
1,1,$1+$1,$4,$5*
1,1,$1+$1,$6,$7*
1,1,$1+$1,$8,$9*
0 Add four rect primitives between the rounded corners*
20,1,$1+$1,$2,$3,$4,$5,0*
20,1,$1+$1,$4,$5,$6,$7,0*
20,1,$1+$1,$6,$7,$8,$9,0*
20,1,$1+$1,$8,$9,$2,$3,0*%
%AMRotRect*
0 Rectangle, with rotation*
0 The origin of the aperture is its center*
0 $1 length*
0 $2 width*
0 $3 Rotation angle, in degrees counterclockwise*
0 Add horizontal line*
21,1,$1,$2,0,0,$3*%
G04 Aperture macros list end*
%TA.AperFunction,SMDPad,CuDef*%
%ADD10RotRect,1.600000X2.400000X76.500000*%
%TD*%
%TA.AperFunction,SMDPad,CuDef*%
%ADD11RotRect,0.600000X2.400000X76.500000*%
%TD*%
%TA.AperFunction,SMDPad,CuDef*%
%ADD12RotRect,0.600000X0.500000X76.500000*%
%TD*%
%TA.AperFunction,SMDPad,CuDef*%
%ADD13RotRect,1.600000X2.400000X166.500000*%
%TD*%
%TA.AperFunction,SMDPad,CuDef*%
%ADD14RotRect,0.600000X2.400000X166.500000*%
%TD*%
%TA.AperFunction,SMDPad,CuDef*%
%ADD15RotRect,0.600000X0.500000X166.500000*%
%TD*%
%TA.AperFunction,SMDPad,CuDef*%
%ADD16RotRect,1.600000X2.400000X139.500000*%
%TD*%
%TA.AperFunction,SMDPad,CuDef*%
%ADD17RotRect,0.600000X2.400000X139.500000*%
%TD*%
%TA.AperFunction,SMDPad,CuDef*%
%ADD18RotRect,0.600000X0.500000X139.500000*%
%TD*%
%TA.AperFunction,SMDPad,CuDef*%
%ADD19RotRect,1.600000X2.400000X85.500000*%
%TD*%
%TA.AperFunction,SMDPad,CuDef*%
%ADD20RotRect,0.600000X2.400000X85.500000*%
%TD*%
%TA.AperFunction,SMDPad,CuDef*%
%ADD21RotRect,0.600000X0.500000X85.500000*%
%TD*%
%TA.AperFunction,SMDPad,CuDef*%
%ADD22RotRect,1.600000X2.400000X103.500000*%
%TD*%
%TA.AperFunction,SMDPad,CuDef*%
%ADD23RotRect,0.600000X2.400000X103.500000*%
%TD*%
%TA.AperFunction,SMDPad,CuDef*%
%ADD24RotRect,0.600000X0.500000X103.500000*%
%TD*%
%TA.AperFunction,SMDPad,CuDef*%
%ADD25RoundRect,0.200000X0.200000X0.275000X-0.200000X0.275000X-0.200000X-0.275000X0.200000X-0.275000X0*%
%TD*%
%TA.AperFunction,SMDPad,CuDef*%
%ADD26RotRect,1.600000X2.400000X157.500000*%
%TD*%
%TA.AperFunction,SMDPad,CuDef*%
%ADD27RotRect,0.600000X2.400000X157.500000*%
%TD*%
%TA.AperFunction,SMDPad,CuDef*%
%ADD28RotRect,0.600000X0.500000X157.500000*%
%TD*%
%TA.AperFunction,SMDPad,CuDef*%
%ADD29RotRect,1.600000X2.400000X49.500000*%
%TD*%
%TA.AperFunction,SMDPad,CuDef*%
%ADD30RotRect,0.600000X2.400000X49.500000*%
%TD*%
%TA.AperFunction,SMDPad,CuDef*%
%ADD31RotRect,0.600000X0.500000X49.500000*%
%TD*%
%TA.AperFunction,SMDPad,CuDef*%
%ADD32RoundRect,0.250000X0.250000X1.500000X-0.250000X1.500000X-0.250000X-1.500000X0.250000X-1.500000X0*%
%TD*%
%TA.AperFunction,SMDPad,CuDef*%
%ADD33RoundRect,0.250001X0.499999X1.449999X-0.499999X1.449999X-0.499999X-1.449999X0.499999X-1.449999X0*%
%TD*%
%TA.AperFunction,SMDPad,CuDef*%
%ADD34RotRect,1.600000X2.400000X148.500000*%
%TD*%
%TA.AperFunction,SMDPad,CuDef*%
%ADD35RotRect,0.600000X2.400000X148.500000*%
%TD*%
%TA.AperFunction,SMDPad,CuDef*%
%ADD36RotRect,0.600000X0.500000X148.500000*%
%TD*%
%TA.AperFunction,SMDPad,CuDef*%
%ADD37RotRect,1.600000X2.400000X112.500000*%
%TD*%
%TA.AperFunction,SMDPad,CuDef*%
%ADD38RotRect,0.600000X2.400000X112.500000*%
%TD*%
%TA.AperFunction,SMDPad,CuDef*%
%ADD39RotRect,0.600000X0.500000X112.500000*%
%TD*%
%TA.AperFunction,SMDPad,CuDef*%
%ADD40RotRect,1.600000X2.400000X130.500000*%
%TD*%
%TA.AperFunction,SMDPad,CuDef*%
%ADD41RotRect,0.600000X2.400000X130.500000*%
%TD*%
%TA.AperFunction,SMDPad,CuDef*%
%ADD42RotRect,0.600000X0.500000X130.500000*%
%TD*%
%TA.AperFunction,SMDPad,CuDef*%
%ADD43RotRect,1.600000X2.400000X58.500000*%
%TD*%
%TA.AperFunction,SMDPad,CuDef*%
%ADD44RotRect,0.600000X2.400000X58.500000*%
%TD*%
%TA.AperFunction,SMDPad,CuDef*%
%ADD45RotRect,0.600000X0.500000X58.500000*%
%TD*%
%TA.AperFunction,SMDPad,CuDef*%
%ADD46RotRect,1.600000X2.400000X40.500000*%
%TD*%
%TA.AperFunction,SMDPad,CuDef*%
%ADD47RotRect,0.600000X2.400000X40.500000*%
%TD*%
%TA.AperFunction,SMDPad,CuDef*%
%ADD48RotRect,0.600000X0.500000X40.500000*%
%TD*%
%TA.AperFunction,SMDPad,CuDef*%
%ADD49RotRect,1.600000X2.400000X175.500000*%
%TD*%
%TA.AperFunction,SMDPad,CuDef*%
%ADD50RotRect,0.600000X2.400000X175.500000*%
%TD*%
%TA.AperFunction,SMDPad,CuDef*%
%ADD51RotRect,0.600000X0.500000X175.500000*%
%TD*%
%TA.AperFunction,SMDPad,CuDef*%
%ADD52RotRect,1.600000X2.400000X121.500000*%
%TD*%
%TA.AperFunction,SMDPad,CuDef*%
%ADD53RotRect,0.600000X2.400000X121.500000*%
%TD*%
%TA.AperFunction,SMDPad,CuDef*%
%ADD54RotRect,0.600000X0.500000X121.500000*%
%TD*%
%TA.AperFunction,SMDPad,CuDef*%
%ADD55RotRect,1.600000X2.400000X31.500000*%
%TD*%
%TA.AperFunction,SMDPad,CuDef*%
%ADD56RotRect,0.600000X2.400000X31.500000*%
%TD*%
%TA.AperFunction,SMDPad,CuDef*%
%ADD57RotRect,0.600000X0.500000X31.500000*%
%TD*%
%TA.AperFunction,SMDPad,CuDef*%
%ADD58RotRect,1.600000X2.400000X4.500000*%
%TD*%
%TA.AperFunction,SMDPad,CuDef*%
%ADD59RotRect,0.600000X2.400000X4.500000*%
%TD*%
%TA.AperFunction,SMDPad,CuDef*%
%ADD60RotRect,0.600000X0.500000X4.500000*%
%TD*%
%TA.AperFunction,SMDPad,CuDef*%
%ADD61RotRect,1.600000X2.400000X94.500000*%
%TD*%
%TA.AperFunction,SMDPad,CuDef*%
%ADD62RotRect,0.600000X2.400000X94.500000*%
%TD*%
%TA.AperFunction,SMDPad,CuDef*%
%ADD63RotRect,0.600000X0.500000X94.500000*%
%TD*%
%TA.AperFunction,SMDPad,CuDef*%
%ADD64RotRect,1.600000X2.400000X22.500000*%
%TD*%
%TA.AperFunction,SMDPad,CuDef*%
%ADD65RotRect,0.600000X2.400000X22.500000*%
%TD*%
%TA.AperFunction,SMDPad,CuDef*%
%ADD66RotRect,0.600000X0.500000X22.500000*%
%TD*%
%TA.AperFunction,SMDPad,CuDef*%
%ADD67RotRect,1.600000X2.400000X13.500000*%
%TD*%
%TA.AperFunction,SMDPad,CuDef*%
%ADD68RotRect,0.600000X2.400000X13.500000*%
%TD*%
%TA.AperFunction,SMDPad,CuDef*%
%ADD69RotRect,0.600000X0.500000X13.500000*%
%TD*%
%TA.AperFunction,SMDPad,CuDef*%
%ADD70RotRect,1.600000X2.400000X67.500000*%
%TD*%
%TA.AperFunction,SMDPad,CuDef*%
%ADD71RotRect,0.600000X2.400000X67.500000*%
%TD*%
%TA.AperFunction,SMDPad,CuDef*%
%ADD72RotRect,0.600000X0.500000X67.500000*%
%TD*%
%TA.AperFunction,Conductor*%
%ADD73C,0.400000*%
%TD*%
%TA.AperFunction,Conductor*%
%ADD74C,0.800000*%
%TD*%
G04 APERTURE END LIST*
D10*
%TO.P,D12,1*%
%TO.N,Net-(D12-K)*%
X237379061Y-171569195D03*
D11*
%TO.P,D12,2*%
%TO.N,Net-(D10-K)*%
X237764246Y-169964784D03*
D12*
X237834279Y-169673073D03*
%TD*%
D13*
%TO.P,D22,1*%
%TO.N,Net-(D22-K)*%
X129549030Y-237647523D03*
D14*
%TO.P,D22,2*%
%TO.N,Net-(D22-A)*%
X127944619Y-237262338D03*
D15*
X127652908Y-237192305D03*
%TD*%
D16*
%TO.P,D25,1*%
%TO.N,Net-(D23-A)*%
X91986908Y-218809969D03*
D17*
%TO.P,D25,2*%
%TO.N,Net-(D25-A)*%
X90732239Y-217738379D03*
D18*
X90504117Y-217543545D03*
%TD*%
D19*
%TO.P,D11,1*%
%TO.N,Net-(D11-K)*%
X239677446Y-157634545D03*
D20*
%TO.P,D11,2*%
%TO.N,Net-(D11-A)*%
X239806904Y-155989632D03*
D21*
X239830441Y-155690557D03*
%TD*%
D22*
%TO.P,D29,1*%
%TO.N,Net-(D27-A)*%
X62620938Y-171569195D03*
D23*
%TO.P,D29,2*%
%TO.N,Net-(D29-A)*%
X62235753Y-169964784D03*
D24*
X62165720Y-169673073D03*
%TD*%
D25*
%TO.P,TH1,1*%
%TO.N,Net-(J1-Pin_5)*%
X150825000Y-59000000D03*
%TO.P,TH1,2*%
%TO.N,GND*%
X149175000Y-59000000D03*
%TD*%
D26*
%TO.P,D23,1*%
%TO.N,Net-(D21-A)*%
X116089722Y-233369200D03*
D27*
%TO.P,D23,2*%
%TO.N,Net-(D23-A)*%
X114565321Y-232737772D03*
D28*
X114288157Y-232622967D03*
%TD*%
D29*
%TO.P,D35,1*%
%TO.N,Net-(D33-A)*%
X81190030Y-91986908D03*
D30*
%TO.P,D35,2*%
%TO.N,Net-(D35-A)*%
X82261620Y-90732239D03*
D31*
X82456454Y-90504117D03*
%TD*%
D32*
%TO.P,J1,1*%
%TO.N,Net-(D20-K)*%
X159000000Y-50850000D03*
%TO.P,J1,2*%
%TO.N,Net-(D2-A)*%
X157000000Y-50850000D03*
%TO.P,J1,3*%
%TO.N,Net-(D1-A)*%
X155000000Y-50850000D03*
%TO.P,J1,4*%
%TO.N,Net-(D19-K)*%
X153000000Y-50850000D03*
%TO.P,J1,5*%
%TO.N,Net-(J1-Pin_5)*%
X151000000Y-50850000D03*
%TO.P,J1,6*%
%TO.N,GND*%
X149000000Y-50850000D03*
%TO.P,J1,7*%
%TO.N,Net-(D22-K)*%
X147000000Y-50850000D03*
%TO.P,J1,8*%
%TO.N,Net-(D40-A)*%
X145000000Y-50850000D03*
%TO.P,J1,9*%
%TO.N,Net-(D39-A)*%
X143000000Y-50850000D03*
%TO.P,J1,10*%
%TO.N,Net-(D21-K)*%
X141000000Y-50850000D03*
D33*
%TO.P,J1,MP*%
%TO.N,GND*%
X161350000Y-45100000D03*
X138650000Y-45100000D03*
%TD*%
D29*
%TO.P,D15,1*%
%TO.N,Net-(D15-K)*%
X218063103Y-208887557D03*
D30*
%TO.P,D15,2*%
%TO.N,Net-(D13-K)*%
X219134693Y-207632888D03*
D31*
X219329527Y-207404766D03*
%TD*%
D34*
%TO.P,D4,1*%
%TO.N,Net-(D4-K)*%
X197515138Y-73562822D03*
D35*
%TO.P,D4,2*%
%TO.N,Net-(D2-K)*%
X196108282Y-72700699D03*
D36*
X195852490Y-72543949D03*
%TD*%
D37*
%TO.P,D8,1*%
%TO.N,Net-(D10-A)*%
X233369200Y-116089722D03*
D38*
%TO.P,D8,2*%
%TO.N,Net-(D6-K)*%
X232737772Y-114565321D03*
D39*
X232622967Y-114288157D03*
%TD*%
D34*
%TO.P,D24,1*%
%TO.N,Net-(D22-A)*%
X103465397Y-227038051D03*
D35*
%TO.P,D24,2*%
%TO.N,Net-(D24-A)*%
X102058541Y-226175928D03*
D36*
X101802749Y-226019178D03*
%TD*%
D40*
%TO.P,D6,1*%
%TO.N,Net-(D6-K)*%
X218809969Y-91986908D03*
D41*
%TO.P,D6,2*%
%TO.N,Net-(D4-K)*%
X217738379Y-90732239D03*
D42*
X217543545Y-90504117D03*
%TD*%
D43*
%TO.P,D34,1*%
%TO.N,Net-(D32-A)*%
X72961948Y-103465397D03*
D44*
%TO.P,D34,2*%
%TO.N,Net-(D34-A)*%
X73824071Y-102058541D03*
D45*
X73980821Y-101802749D03*
%TD*%
D46*
%TO.P,D16,1*%
%TO.N,Net-(D16-K)*%
X208013091Y-218809969D03*
D47*
%TO.P,D16,2*%
%TO.N,Net-(D14-K)*%
X209267760Y-217738379D03*
D48*
X209495882Y-217543545D03*
%TD*%
D49*
%TO.P,D1,1*%
%TO.N,Net-(D1-K)*%
X157634545Y-60322553D03*
D50*
%TO.P,D1,2*%
%TO.N,Net-(D1-A)*%
X155989632Y-60193095D03*
D51*
X155690557Y-60169558D03*
%TD*%
D26*
%TO.P,D3,1*%
%TO.N,Net-(D3-K)*%
X184972739Y-67070885D03*
D27*
%TO.P,D3,2*%
%TO.N,Net-(D1-K)*%
X183448338Y-66439457D03*
D28*
X183171174Y-66324652D03*
%TD*%
D52*
%TO.P,D27,1*%
%TO.N,Net-(D25-A)*%
X73562822Y-197515138D03*
D53*
%TO.P,D27,2*%
%TO.N,Net-(D27-A)*%
X72700699Y-196108282D03*
D54*
X72543949Y-195852490D03*
%TD*%
D55*
%TO.P,D37,1*%
%TO.N,Net-(D35-A)*%
X102484861Y-73562822D03*
D56*
%TO.P,D37,2*%
%TO.N,Net-(D37-A)*%
X103891717Y-72700699D03*
D57*
X104147509Y-72543949D03*
%TD*%
D52*
%TO.P,D7,1*%
%TO.N,Net-(D7-K)*%
X227038051Y-103465397D03*
D53*
%TO.P,D7,2*%
%TO.N,Net-(D5-K)*%
X226175928Y-102058541D03*
D54*
X226019178Y-101802749D03*
%TD*%
D10*
%TO.P,D32,1*%
%TO.N,Net-(D30-A)*%
X62352476Y-129549030D03*
D11*
%TO.P,D32,2*%
%TO.N,Net-(D32-A)*%
X62737661Y-127944619D03*
D12*
X62807694Y-127652908D03*
%TD*%
D40*
%TO.P,D26,1*%
%TO.N,Net-(D24-A)*%
X81936896Y-208887557D03*
D41*
%TO.P,D26,2*%
%TO.N,Net-(D26-A)*%
X80865306Y-207632888D03*
D42*
X80670472Y-207404766D03*
%TD*%
D58*
%TO.P,D20,1*%
%TO.N,Net-(D20-K)*%
X156488091Y-239767674D03*
D59*
%TO.P,D20,2*%
%TO.N,Net-(D18-K)*%
X158133004Y-239638216D03*
D60*
X158432079Y-239614679D03*
%TD*%
D61*
%TO.P,D30,1*%
%TO.N,Net-(D28-A)*%
X60322553Y-157634545D03*
D62*
%TO.P,D30,2*%
%TO.N,Net-(D30-A)*%
X60193095Y-155989632D03*
D63*
X60169558Y-155690557D03*
%TD*%
D46*
%TO.P,D36,1*%
%TO.N,Net-(D34-A)*%
X91112442Y-81936896D03*
D47*
%TO.P,D36,2*%
%TO.N,Net-(D36-A)*%
X92367111Y-80865306D03*
D48*
X92595233Y-80670472D03*
%TD*%
D61*
%TO.P,D10,1*%
%TO.N,Net-(D10-K)*%
X239767674Y-143511908D03*
D62*
%TO.P,D10,2*%
%TO.N,Net-(D10-A)*%
X239638216Y-141866995D03*
D63*
X239614679Y-141567920D03*
%TD*%
D64*
%TO.P,D18,1*%
%TO.N,Net-(D18-K)*%
X183910277Y-233369200D03*
D65*
%TO.P,D18,2*%
%TO.N,Net-(D16-K)*%
X185434678Y-232737772D03*
D66*
X185711842Y-232622967D03*
%TD*%
D13*
%TO.P,D2,1*%
%TO.N,Net-(D2-K)*%
X171569195Y-62620938D03*
D14*
%TO.P,D2,2*%
%TO.N,Net-(D2-A)*%
X169964784Y-62235753D03*
D15*
X169673073Y-62165720D03*
%TD*%
D49*
%TO.P,D21,1*%
%TO.N,Net-(D21-K)*%
X143511908Y-239767674D03*
D50*
%TO.P,D21,2*%
%TO.N,Net-(D21-A)*%
X141866995Y-239638216D03*
D51*
X141567920Y-239614679D03*
%TD*%
D58*
%TO.P,D40,1*%
%TO.N,Net-(D38-A)*%
X142365454Y-60322553D03*
D59*
%TO.P,D40,2*%
%TO.N,Net-(D40-A)*%
X144010367Y-60193095D03*
D60*
X144309442Y-60169558D03*
%TD*%
D64*
%TO.P,D38,1*%
%TO.N,Net-(D36-A)*%
X115027260Y-67070885D03*
D65*
%TO.P,D38,2*%
%TO.N,Net-(D38-A)*%
X116551661Y-66439457D03*
D66*
X116828825Y-66324652D03*
%TD*%
D43*
%TO.P,D14,1*%
%TO.N,Net-(D14-K)*%
X226437177Y-197515138D03*
D44*
%TO.P,D14,2*%
%TO.N,Net-(D12-K)*%
X227299300Y-196108282D03*
D45*
X227456050Y-195852490D03*
%TD*%
D67*
%TO.P,D19,1*%
%TO.N,Net-(D19-K)*%
X170450969Y-237647523D03*
D68*
%TO.P,D19,2*%
%TO.N,Net-(D17-K)*%
X172055380Y-237262338D03*
D69*
X172347091Y-237192305D03*
%TD*%
D22*
%TO.P,D9,1*%
%TO.N,Net-(D11-A)*%
X237647523Y-129549030D03*
D23*
%TO.P,D9,2*%
%TO.N,Net-(D7-K)*%
X237262338Y-127944619D03*
D24*
X237192305Y-127652908D03*
%TD*%
D67*
%TO.P,D39,1*%
%TO.N,Net-(D37-A)*%
X128430804Y-62620938D03*
D68*
%TO.P,D39,2*%
%TO.N,Net-(D39-A)*%
X130035215Y-62235753D03*
D69*
X130326926Y-62165720D03*
%TD*%
D70*
%TO.P,D13,1*%
%TO.N,Net-(D13-K)*%
X232929114Y-184972739D03*
D71*
%TO.P,D13,2*%
%TO.N,Net-(D11-K)*%
X233560542Y-183448338D03*
D72*
X233675347Y-183171174D03*
%TD*%
D19*
%TO.P,D31,1*%
%TO.N,Net-(D29-A)*%
X60232325Y-143511908D03*
D20*
%TO.P,D31,2*%
%TO.N,Net-(D31-A)*%
X60361783Y-141866995D03*
D21*
X60385320Y-141567920D03*
%TD*%
D70*
%TO.P,D33,1*%
%TO.N,Net-(D31-A)*%
X66630799Y-116089722D03*
D71*
%TO.P,D33,2*%
%TO.N,Net-(D33-A)*%
X67262227Y-114565321D03*
D72*
X67377032Y-114288157D03*
%TD*%
D37*
%TO.P,D28,1*%
%TO.N,Net-(D26-A)*%
X67070885Y-184972739D03*
D38*
%TO.P,D28,2*%
%TO.N,Net-(D28-A)*%
X66439457Y-183448338D03*
D39*
X66324652Y-183171174D03*
%TD*%
D16*
%TO.P,D5,1*%
%TO.N,Net-(D5-K)*%
X208887557Y-81936896D03*
D17*
%TO.P,D5,2*%
%TO.N,Net-(D3-K)*%
X207632888Y-80865306D03*
D18*
X207404766Y-80670472D03*
%TD*%
D55*
%TO.P,D17,1*%
%TO.N,Net-(D17-K)*%
X196534602Y-227038051D03*
D56*
%TO.P,D17,2*%
%TO.N,Net-(D15-K)*%
X197941458Y-226175928D03*
D57*
X198197250Y-226019178D03*
%TD*%
D73*
%TO.N,GND*%
X138650000Y-47800000D02*
X149000000Y-47800000D01*
X149175000Y-59000000D02*
X149000000Y-57000000D01*
X149000000Y-57000000D02*
X149000000Y-50850000D01*
X161350000Y-47800000D02*
X149000000Y-47800000D01*
X149000000Y-47800000D02*
X149000000Y-50850000D01*
X138650000Y-45100000D02*
X138650000Y-47800000D01*
X161350000Y-45100000D02*
X161350000Y-47800000D01*
X149000000Y-47800000D02*
X149000000Y-50850000D01*
D74*
%TO.N,Net-(D1-A)*%
X155000000Y-50850000D02*
X155000000Y-53899999D01*
X155000000Y-53899999D02*
X155989632Y-60193095D01*
%TO.N,Net-(D1-K)*%
X157634545Y-60322553D02*
X157167843Y-65804560D01*
X181402032Y-71551530D02*
X183448338Y-66439457D01*
X157167843Y-65804560D02*
G75*
G02*
X181402032Y-71551530I-7167843J-84195440D01*
G01*
%TO.N,Net-(D2-A)*%
X171183343Y-56879025D02*
X169964784Y-62235753D01*
X157000000Y-50850000D02*
X157000000Y-54756890D01*
X157000000Y-54756890D02*
G75*
G02*
X171183343Y-56879027I-7000000J-95243010D01*
G01*
%TO.N,Net-(D2-K)*%
X198922520Y-67982703D02*
X196108282Y-72700699D01*
X171569195Y-62620938D02*
X172886845Y-57282998D01*
X172886845Y-57282998D02*
G75*
G02*
X198922520Y-67982702I-22886845J-92717002D01*
G01*
%TO.N,Net-(D3-K)*%
X204107018Y-85094834D02*
X207632888Y-80865306D01*
X184972739Y-67070885D02*
X182834846Y-72140364D01*
X182834846Y-72140364D02*
G75*
G02*
X204107018Y-85094834I-32834846J-77859636D01*
G01*
%TO.N,Net-(D4-K)*%
X197515138Y-73562822D02*
X200417812Y-68893315D01*
X221872820Y-87114805D02*
X217738379Y-90732239D01*
X200417812Y-68893315D02*
G75*
G02*
X221872820Y-87114805I-50417812J-81106685D01*
G01*
%TO.N,Net-(D5-K)*%
X208887557Y-81936896D02*
X205287745Y-86097611D01*
X221515631Y-104991507D02*
X226175928Y-102058541D01*
X205287745Y-86097611D02*
G75*
G02*
X221515632Y-104991507I-55287745J-63902389D01*
G01*
%TO.N,Net-(D6-K)*%
X237787708Y-112402549D02*
X232737772Y-114565321D01*
X218809969Y-91986908D02*
X223013532Y-88442919D01*
X223013532Y-88442919D02*
G75*
G02*
X237787708Y-112402549I-73013532J-61557081D01*
G01*
%TO.N,Net-(D7-K)*%
X227038051Y-103465397D02*
X222328694Y-106310069D01*
X231923796Y-129293924D02*
X237262338Y-127944619D01*
X222328694Y-106310069D02*
G75*
G02*
X231923797Y-129293924I-72328694J-43689931D01*
G01*
%TO.N,Net-(D10-A)*%
X233369200Y-116089722D02*
X238462179Y-114018161D01*
X245109323Y-141370593D02*
X239638216Y-141866995D01*
X238462179Y-114018161D02*
G75*
G02*
X245109322Y-141370593I-88462179J-35981839D01*
G01*
%TO.N,Net-(D10-K)*%
X243120974Y-171183343D02*
X237764246Y-169964784D01*
X239767674Y-143511908D02*
X245251532Y-143115553D01*
X245251532Y-143115553D02*
G75*
G02*
X243120975Y-171183343I-95251532J-6884447D01*
G01*
%TO.N,Net-(D11-A)*%
X237647523Y-129549029D02*
X232289606Y-130799203D01*
X234312689Y-155623197D02*
X239806904Y-155989632D01*
X232289606Y-130799203D02*
G75*
G02*
X234312691Y-155623197I-82289506J-19200797D01*
G01*
%TO.N,Net-(D11-K)*%
X239677446Y-157634545D02*
X234195439Y-157167843D01*
X228448469Y-181402033D02*
X233560542Y-183448338D01*
X234195439Y-157167843D02*
G75*
G02*
X228448469Y-181402033I-84195439J7167843D01*
G01*
%TO.N,Net-(D12-K)*%
X237379061Y-171569195D02*
X242717001Y-172886845D01*
X232017296Y-198922521D02*
X227299300Y-196108282D01*
X242717001Y-172886845D02*
G75*
G02*
X232017296Y-198922521I-92717001J22886845D01*
G01*
%TO.N,Net-(D13-K)*%
X214905165Y-204107018D02*
X219134693Y-207632888D01*
X232929114Y-184972739D02*
X227859635Y-182834846D01*
X227859635Y-182834846D02*
G75*
G02*
X214905165Y-204107018I-77859635J32834846D01*
G01*
%TO.N,Net-(D14-K)*%
X226437177Y-197515138D02*
X231106683Y-200417812D01*
X212885193Y-221872820D02*
X209267760Y-217738379D01*
X231106683Y-200417812D02*
G75*
G02*
X212885193Y-221872820I-81106683J50417812D01*
G01*
%TO.N,Net-(D15-K)*%
X218063103Y-208887557D02*
X213902388Y-205287745D01*
X195008492Y-221515632D02*
X197941458Y-226175928D01*
X213902388Y-205287745D02*
G75*
G02*
X195008494Y-221515635I-63902488J55287845D01*
G01*
%TO.N,Net-(D16-K)*%
X208013091Y-218809969D02*
X211557079Y-223013532D01*
X187597449Y-237787708D02*
X185434678Y-232737772D01*
X211557079Y-223013532D02*
G75*
G02*
X187597449Y-237787708I-61557079J73013532D01*
G01*
%TO.N,Net-(D17-K)*%
X196534602Y-227038051D02*
X193689929Y-222328694D01*
X170706074Y-231923796D02*
X172055380Y-237262338D01*
X193689929Y-222328694D02*
G75*
G02*
X170706077Y-231923807I-43689929J72328594D01*
G01*
%TO.N,Net-(D18-K)*%
X183910277Y-233369200D02*
X185981837Y-238462180D01*
X158629405Y-245109323D02*
X158133004Y-239638216D01*
X185981837Y-238462180D02*
G75*
G02*
X158629404Y-245109316I-35981837J88462280D01*
G01*
%TO.N,Net-(D19-K)*%
X153000000Y-68054896D02*
X153000000Y-50850000D01*
X170450969Y-237647523D02*
X168632725Y-229855003D01*
X231619926Y-142114085D02*
G75*
G03*
X153000000Y-68054897I-81619926J-7885915D01*
G01*
X168632725Y-229855003D02*
G75*
G03*
X231619926Y-142114085I-18632725J79855003D01*
G01*
%TO.N,Net-(D20-K)*%
X159000000Y-52414140D02*
X159000000Y-50850000D01*
X156488091Y-239767674D02*
X157064666Y-247745027D01*
X247995190Y-150970934D02*
G75*
G03*
X159000000Y-52414140I-97995190J970934D01*
G01*
X157064666Y-247745027D02*
G75*
G03*
X247995189Y-150970934I-7064666J97745027D01*
G01*
%TO.N,Net-(D21-A)*%
X116089722Y-233369200D02*
X114018161Y-238462179D01*
X141370593Y-245109323D02*
X141866995Y-239638216D01*
X114018161Y-238462179D02*
G75*
G03*
X141370593Y-245109322I35981839J88462179D01*
G01*
%TO.N,Net-(D21-K)*%
X141000000Y-52414140D02*
X141000000Y-50850000D01*
X143511908Y-239767674D02*
X142935332Y-247745027D01*
X52004809Y-150970933D02*
G75*
G02*
X141000000Y-52414140I97995191J970933D01*
G01*
X142935332Y-247745027D02*
G75*
G02*
X52004811Y-150970933I7064668J97745027D01*
G01*
%TO.N,Net-(D22-A)*%
X129293924Y-231923796D02*
X127944619Y-237262338D01*
X103465397Y-227038051D02*
X106310069Y-222328694D01*
X106310069Y-222328694D02*
G75*
G03*
X129293924Y-231923797I43689931J72328694D01*
G01*
%TO.N,Net-(D22-K)*%
X147000000Y-68054896D02*
X147000000Y-50850000D01*
X129549029Y-237647523D02*
X131367274Y-229855003D01*
X131367274Y-229855003D02*
G75*
G02*
X68380074Y-142114084I18632726J79855003D01*
G01*
X68380073Y-142114084D02*
G75*
G02*
X147000000Y-68054895I81619927J-7885916D01*
G01*
%TO.N,Net-(D23-A)*%
X91986908Y-218809969D02*
X88442919Y-223013532D01*
X112402549Y-237787708D02*
X114565321Y-232737772D01*
X88442919Y-223013532D02*
G75*
G03*
X112402549Y-237787708I61557081J73013532D01*
G01*
%TO.N,Net-(D24-A)*%
X104991507Y-221515631D02*
X102058541Y-226175928D01*
X81936896Y-208887557D02*
X86097611Y-205287745D01*
X86097611Y-205287745D02*
G75*
G03*
X104991507Y-221515632I63902389J55287745D01*
G01*
%TO.N,Net-(D25-A)*%
X87114805Y-221872820D02*
X90732239Y-217738379D01*
X73562822Y-197515138D02*
X68893315Y-200417812D01*
X68893315Y-200417812D02*
G75*
G03*
X87114805Y-221872820I81106685J50417812D01*
G01*
%TO.N,Net-(D26-A)*%
X85094834Y-204107018D02*
X80865306Y-207632888D01*
X67070885Y-184972739D02*
X72140364Y-182834846D01*
X72140364Y-182834846D02*
G75*
G03*
X85094834Y-204107018I77859636J32834846D01*
G01*
%TO.N,Net-(D27-A)*%
X62620938Y-171569195D02*
X57282998Y-172886845D01*
X67982703Y-198922520D02*
X72700699Y-196108282D01*
X57282998Y-172886845D02*
G75*
G03*
X67982702Y-198922520I92717002J22886845D01*
G01*
%TO.N,Net-(D28-A)*%
X60322553Y-157634545D02*
X65804560Y-157167843D01*
X71551530Y-181402032D02*
X66439457Y-183448338D01*
X65804560Y-157167843D02*
G75*
G03*
X71551530Y-181402032I84195440J7167843D01*
G01*
%TO.N,Net-(D29-A)*%
X60232325Y-143511908D02*
X54748467Y-143115554D01*
X56879025Y-171183343D02*
X62235753Y-169964784D01*
X54748467Y-143115554D02*
G75*
G03*
X56879024Y-171183343I95251533J-6884446D01*
G01*
%TO.N,Net-(D30-A)*%
X65687310Y-155623197D02*
X60193095Y-155989632D01*
X62352476Y-129549029D02*
X67710393Y-130799203D01*
X67710393Y-130799203D02*
G75*
G03*
X65687308Y-155623197I82289507J-19200797D01*
G01*
%TO.N,Net-(D31-A)*%
X54890676Y-141370593D02*
X60361783Y-141866995D01*
X66630798Y-116089722D02*
X61537819Y-114018161D01*
X61537819Y-114018161D02*
G75*
G03*
X54890683Y-141370594I88462281J-35981839D01*
G01*
%TO.N,Net-(D32-A)*%
X72961948Y-103465397D02*
X77671305Y-106310070D01*
X68076203Y-129293924D02*
X62737661Y-127944619D01*
X77671305Y-106310070D02*
G75*
G03*
X68076203Y-129293924I72328695J-43689930D01*
G01*
%TO.N,Net-(D33-A)*%
X62212291Y-112402550D02*
X67262227Y-114565321D01*
X81190030Y-91986908D02*
X76986467Y-88442920D01*
X76986467Y-88442920D02*
G75*
G03*
X62212291Y-112402550I73013533J-61557080D01*
G01*
%TO.N,Net-(D34-A)*%
X78484368Y-104991507D02*
X73824071Y-102058541D01*
X91112442Y-81936896D02*
X94712254Y-86097612D01*
X94712254Y-86097612D02*
G75*
G03*
X78484368Y-104991507I55287746J-63902388D01*
G01*
%TO.N,Net-(D35-A)*%
X102484861Y-73562822D02*
X99582186Y-68893316D01*
X78127179Y-87114805D02*
X82261620Y-90732239D01*
X99582186Y-68893316D02*
G75*
G03*
X78127179Y-87114805I50417814J-81106684D01*
G01*
%TO.N,Net-(D36-A)*%
X95892981Y-85094834D02*
X92367111Y-80865306D01*
X115027260Y-67070885D02*
X117165153Y-72140364D01*
X117165153Y-72140364D02*
G75*
G03*
X95892981Y-85094834I32834847J-77859636D01*
G01*
%TO.N,Net-(D37-A)*%
X101077478Y-67982703D02*
X103891717Y-72700699D01*
X128430804Y-62620938D02*
X127113153Y-57282999D01*
X127113153Y-57282999D02*
G75*
G03*
X101077478Y-67982704I22886847J-92717001D01*
G01*
%TO.N,Net-(D38-A)*%
X118597966Y-71551531D02*
X116551661Y-66439457D01*
X142365454Y-60322553D02*
X142832155Y-65804560D01*
X142832155Y-65804560D02*
G75*
G03*
X118597966Y-71551531I7167845J-84195440D01*
G01*
%TO.N,Net-(D39-A)*%
X143000000Y-50850000D02*
X143000000Y-54756890D01*
X128816655Y-56879025D02*
X130035215Y-62235753D01*
X143000000Y-54756890D02*
G75*
G03*
X128816656Y-56879028I7000000J-95243010D01*
G01*
%TO.N,Net-(D40-A)*%
X145000000Y-50850000D02*
X145000000Y-53899999D01*
X145000000Y-53899999D02*
X144010367Y-60193095D01*
D73*
%TO.N,Net-(J1-Pin_5)*%
X151000000Y-57000000D02*
X151000000Y-50850000D01*
X150825000Y-59000000D02*
X151000000Y-57000000D01*
%TD*%
M02*
