%TF.GenerationSoftware,KiCad,Pcbnew,9.0.9-9.0.9~ubuntu24.04.1*%
%TF.CreationDate,2026-10-10T04:14:13+00:00*%
%TF.ProjectId,eclipse-halo,65636c69-7073-4652-9d68-616c6f2e6b69,rev?*%
%TF.SameCoordinates,Original*%
%TF.FileFunction,Drillmap*%
%TF.FilePolarity,Positive*%
%FSLAX45Y45*%
G04 Gerber Fmt 4.5, Leading zero omitted, Abs format (unit mm)*
G04 Created by KiCad (PCBNEW 9.0.9-9.0.9~ubuntu24.04.1) date 2026-10-10 04:14:13*
%MOMM*%
%LPD*%
G01*
G04 APERTURE LIST*
%ADD10C,0.100000*%
%ADD11C,0.200000*%
G04 APERTURE END LIST*
D10*
X13600000Y-4240000D02*
X16400000Y-4240000D01*
X13600000Y-5098485D02*
X13600000Y-4240000D01*
X23000000Y-15000000D02*
G75*
G02*
X7000000Y-15000000I-8000000J0D01*
G01*
X7000000Y-15000000D02*
G75*
G02*
X23000000Y-15000000I8000000J0D01*
G01*
X16400000Y-4240000D02*
X16400000Y-5098485D01*
X16400000Y-5098485D02*
G75*
G02*
X13600000Y-5098485I-1400000J-9901515D01*
G01*
D11*
X5255777Y-25316484D02*
X5255777Y-25116484D01*
X5255777Y-25116484D02*
X5303396Y-25116484D01*
X5303396Y-25116484D02*
X5331967Y-25126008D01*
X5331967Y-25126008D02*
X5351015Y-25145055D01*
X5351015Y-25145055D02*
X5360539Y-25164103D01*
X5360539Y-25164103D02*
X5370062Y-25202198D01*
X5370062Y-25202198D02*
X5370062Y-25230770D01*
X5370062Y-25230770D02*
X5360539Y-25268865D01*
X5360539Y-25268865D02*
X5351015Y-25287912D01*
X5351015Y-25287912D02*
X5331967Y-25306960D01*
X5331967Y-25306960D02*
X5303396Y-25316484D01*
X5303396Y-25316484D02*
X5255777Y-25316484D01*
X5455777Y-25316484D02*
X5455777Y-25183150D01*
X5455777Y-25221246D02*
X5465301Y-25202198D01*
X5465301Y-25202198D02*
X5474824Y-25192674D01*
X5474824Y-25192674D02*
X5493872Y-25183150D01*
X5493872Y-25183150D02*
X5512920Y-25183150D01*
X5579586Y-25316484D02*
X5579586Y-25183150D01*
X5579586Y-25116484D02*
X5570062Y-25126008D01*
X5570062Y-25126008D02*
X5579586Y-25135531D01*
X5579586Y-25135531D02*
X5589110Y-25126008D01*
X5589110Y-25126008D02*
X5579586Y-25116484D01*
X5579586Y-25116484D02*
X5579586Y-25135531D01*
X5703396Y-25316484D02*
X5684348Y-25306960D01*
X5684348Y-25306960D02*
X5674824Y-25287912D01*
X5674824Y-25287912D02*
X5674824Y-25116484D01*
X5808158Y-25316484D02*
X5789110Y-25306960D01*
X5789110Y-25306960D02*
X5779586Y-25287912D01*
X5779586Y-25287912D02*
X5779586Y-25116484D01*
X6036729Y-25316484D02*
X6036729Y-25116484D01*
X6036729Y-25116484D02*
X6103396Y-25259341D01*
X6103396Y-25259341D02*
X6170062Y-25116484D01*
X6170062Y-25116484D02*
X6170062Y-25316484D01*
X6351015Y-25316484D02*
X6351015Y-25211722D01*
X6351015Y-25211722D02*
X6341491Y-25192674D01*
X6341491Y-25192674D02*
X6322443Y-25183150D01*
X6322443Y-25183150D02*
X6284348Y-25183150D01*
X6284348Y-25183150D02*
X6265300Y-25192674D01*
X6351015Y-25306960D02*
X6331967Y-25316484D01*
X6331967Y-25316484D02*
X6284348Y-25316484D01*
X6284348Y-25316484D02*
X6265300Y-25306960D01*
X6265300Y-25306960D02*
X6255777Y-25287912D01*
X6255777Y-25287912D02*
X6255777Y-25268865D01*
X6255777Y-25268865D02*
X6265300Y-25249817D01*
X6265300Y-25249817D02*
X6284348Y-25240293D01*
X6284348Y-25240293D02*
X6331967Y-25240293D01*
X6331967Y-25240293D02*
X6351015Y-25230770D01*
X6446253Y-25183150D02*
X6446253Y-25383150D01*
X6446253Y-25192674D02*
X6465300Y-25183150D01*
X6465300Y-25183150D02*
X6503396Y-25183150D01*
X6503396Y-25183150D02*
X6522443Y-25192674D01*
X6522443Y-25192674D02*
X6531967Y-25202198D01*
X6531967Y-25202198D02*
X6541491Y-25221246D01*
X6541491Y-25221246D02*
X6541491Y-25278389D01*
X6541491Y-25278389D02*
X6531967Y-25297436D01*
X6531967Y-25297436D02*
X6522443Y-25306960D01*
X6522443Y-25306960D02*
X6503396Y-25316484D01*
X6503396Y-25316484D02*
X6465300Y-25316484D01*
X6465300Y-25316484D02*
X6446253Y-25306960D01*
X6627205Y-25297436D02*
X6636729Y-25306960D01*
X6636729Y-25306960D02*
X6627205Y-25316484D01*
X6627205Y-25316484D02*
X6617681Y-25306960D01*
X6617681Y-25306960D02*
X6627205Y-25297436D01*
X6627205Y-25297436D02*
X6627205Y-25316484D01*
X6627205Y-25192674D02*
X6636729Y-25202198D01*
X6636729Y-25202198D02*
X6627205Y-25211722D01*
X6627205Y-25211722D02*
X6617681Y-25202198D01*
X6617681Y-25202198D02*
X6627205Y-25192674D01*
X6627205Y-25192674D02*
X6627205Y-25211722D01*
M02*
