%TF.GenerationSoftware,KiCad,Pcbnew,9.0.9-9.0.9~ubuntu24.04.1*%
%TF.CreationDate,2026-10-07T20:14:46+00:00*%
%TF.ProjectId,eclipse-halo,65636c69-7073-4652-9d68-616c6f2e6b69,rev?*%
%TF.SameCoordinates,Original*%
%TF.FileFunction,Paste,Top*%
%TF.FilePolarity,Positive*%
%FSLAX46Y46*%
G04 Gerber Fmt 4.6, Leading zero omitted, Abs format (unit mm)*
G04 Created by KiCad (PCBNEW 9.0.9-9.0.9~ubuntu24.04.1) date 2026-10-07 20:14:46*
%MOMM*%
%LPD*%
G01*
G04 APERTURE LIST*
G04 Aperture macros list*
%AMRoundRect*
0 Rectangle with rounded corners*
0 $1 Rounding radius*
0 $2 $3 $4 $5 $6 $7 $8 $9 X,Y pos of 4 corners*
0 Add a 4 corners polygon primitive as box body*
4,1,4,$2,$3,$4,$5,$6,$7,$8,$9,$2,$3,0*
0 Add four circle primitives for the rounded corners*
1,1,$1+$1,$2,$3*
1,1,$1+$1,$4,$5*
1,1,$1+$1,$6,$7*
1,1,$1+$1,$8,$9*
0 Add four rect primitives between the rounded corners*
20,1,$1+$1,$2,$3,$4,$5,0*
20,1,$1+$1,$4,$5,$6,$7,0*
20,1,$1+$1,$6,$7,$8,$9,0*
20,1,$1+$1,$8,$9,$2,$3,0*%
%AMRotRect*
0 Rectangle, with rotation*
0 The origin of the aperture is its center*
0 $1 length*
0 $2 width*
0 $3 Rotation angle, in degrees counterclockwise*
0 Add horizontal line*
21,1,$1,$2,0,0,$3*%
G04 Aperture macros list end*
%ADD10RotRect,1.300000X1.900000X76.500000*%
%ADD11RotRect,0.400000X1.900000X76.500000*%
%ADD12RotRect,1.300000X1.900000X166.500000*%
%ADD13RotRect,0.400000X1.900000X166.500000*%
%ADD14RotRect,1.300000X1.900000X139.500000*%
%ADD15RotRect,0.400000X1.900000X139.500000*%
%ADD16RotRect,1.300000X1.900000X85.500000*%
%ADD17RotRect,0.400000X1.900000X85.500000*%
%ADD18RotRect,1.300000X1.900000X103.500000*%
%ADD19RotRect,0.400000X1.900000X103.500000*%
%ADD20RoundRect,0.200000X0.200000X0.275000X-0.200000X0.275000X-0.200000X-0.275000X0.200000X-0.275000X0*%
%ADD21RotRect,1.300000X1.900000X157.500000*%
%ADD22RotRect,0.400000X1.900000X157.500000*%
%ADD23RotRect,1.300000X1.900000X49.500000*%
%ADD24RotRect,0.400000X1.900000X49.500000*%
%ADD25RoundRect,0.250000X0.250000X1.500000X-0.250000X1.500000X-0.250000X-1.500000X0.250000X-1.500000X0*%
%ADD26RoundRect,0.250001X0.499999X1.449999X-0.499999X1.449999X-0.499999X-1.449999X0.499999X-1.449999X0*%
%ADD27RotRect,1.300000X1.900000X148.500000*%
%ADD28RotRect,0.400000X1.900000X148.500000*%
%ADD29RotRect,1.300000X1.900000X112.500000*%
%ADD30RotRect,0.400000X1.900000X112.500000*%
%ADD31RotRect,1.300000X1.900000X130.500000*%
%ADD32RotRect,0.400000X1.900000X130.500000*%
%ADD33RotRect,1.300000X1.900000X58.500000*%
%ADD34RotRect,0.400000X1.900000X58.500000*%
%ADD35RotRect,1.300000X1.900000X40.500000*%
%ADD36RotRect,0.400000X1.900000X40.500000*%
%ADD37RotRect,1.300000X1.900000X175.500000*%
%ADD38RotRect,0.400000X1.900000X175.500000*%
%ADD39RotRect,1.300000X1.900000X121.500000*%
%ADD40RotRect,0.400000X1.900000X121.500000*%
%ADD41RotRect,1.300000X1.900000X31.500000*%
%ADD42RotRect,0.400000X1.900000X31.500000*%
%ADD43RotRect,1.300000X1.900000X4.500000*%
%ADD44RotRect,0.400000X1.900000X4.500000*%
%ADD45RotRect,1.300000X1.900000X94.500000*%
%ADD46RotRect,0.400000X1.900000X94.500000*%
%ADD47RotRect,1.300000X1.900000X22.500000*%
%ADD48RotRect,0.400000X1.900000X22.500000*%
%ADD49RotRect,1.300000X1.900000X13.500000*%
%ADD50RotRect,0.400000X1.900000X13.500000*%
%ADD51RotRect,1.300000X1.900000X67.500000*%
%ADD52RotRect,0.400000X1.900000X67.500000*%
G04 APERTURE END LIST*
D10*
%TO.C,D12*%
X237379061Y-171569195D03*
D11*
X237764246Y-169964784D03*
%TD*%
D12*
%TO.C,D22*%
X129549030Y-237647523D03*
D13*
X127944619Y-237262338D03*
%TD*%
D14*
%TO.C,D25*%
X91986908Y-218809969D03*
D15*
X90732239Y-217738379D03*
%TD*%
D16*
%TO.C,D11*%
X239677446Y-157634545D03*
D17*
X239806904Y-155989632D03*
%TD*%
D18*
%TO.C,D29*%
X62620938Y-171569195D03*
D19*
X62235753Y-169964784D03*
%TD*%
D20*
%TO.C,TH1*%
X150825000Y-59000000D03*
X149175000Y-59000000D03*
%TD*%
D21*
%TO.C,D23*%
X116089722Y-233369200D03*
D22*
X114565321Y-232737772D03*
%TD*%
D23*
%TO.C,D35*%
X81190030Y-91986908D03*
D24*
X82261620Y-90732239D03*
%TD*%
D25*
%TO.C,J1*%
X159000000Y-50850000D03*
X157000000Y-50850000D03*
X155000000Y-50850000D03*
X153000000Y-50850000D03*
X151000000Y-50850000D03*
X149000000Y-50850000D03*
X147000000Y-50850000D03*
X145000000Y-50850000D03*
X143000000Y-50850000D03*
X141000000Y-50850000D03*
D26*
X161350000Y-45100000D03*
X138650000Y-45100000D03*
%TD*%
D23*
%TO.C,D15*%
X218063103Y-208887557D03*
D24*
X219134693Y-207632888D03*
%TD*%
D27*
%TO.C,D4*%
X197515138Y-73562822D03*
D28*
X196108282Y-72700699D03*
%TD*%
D29*
%TO.C,D8*%
X233369200Y-116089722D03*
D30*
X232737772Y-114565321D03*
%TD*%
D27*
%TO.C,D24*%
X103465397Y-227038051D03*
D28*
X102058541Y-226175928D03*
%TD*%
D31*
%TO.C,D6*%
X218809969Y-91986908D03*
D32*
X217738379Y-90732239D03*
%TD*%
D33*
%TO.C,D34*%
X72961948Y-103465397D03*
D34*
X73824071Y-102058541D03*
%TD*%
D35*
%TO.C,D16*%
X208013091Y-218809969D03*
D36*
X209267760Y-217738379D03*
%TD*%
D37*
%TO.C,D1*%
X157634545Y-60322553D03*
D38*
X155989632Y-60193095D03*
%TD*%
D21*
%TO.C,D3*%
X184972739Y-67070885D03*
D22*
X183448338Y-66439457D03*
%TD*%
D39*
%TO.C,D27*%
X73562822Y-197515138D03*
D40*
X72700699Y-196108282D03*
%TD*%
D41*
%TO.C,D37*%
X102484861Y-73562822D03*
D42*
X103891717Y-72700699D03*
%TD*%
D39*
%TO.C,D7*%
X227038051Y-103465397D03*
D40*
X226175928Y-102058541D03*
%TD*%
D10*
%TO.C,D32*%
X62352476Y-129549030D03*
D11*
X62737661Y-127944619D03*
%TD*%
D31*
%TO.C,D26*%
X81936896Y-208887557D03*
D32*
X80865306Y-207632888D03*
%TD*%
D43*
%TO.C,D20*%
X156488091Y-239767674D03*
D44*
X158133004Y-239638216D03*
%TD*%
D45*
%TO.C,D30*%
X60322553Y-157634545D03*
D46*
X60193095Y-155989632D03*
%TD*%
D35*
%TO.C,D36*%
X91112442Y-81936896D03*
D36*
X92367111Y-80865306D03*
%TD*%
D45*
%TO.C,D10*%
X239767674Y-143511908D03*
D46*
X239638216Y-141866995D03*
%TD*%
D47*
%TO.C,D18*%
X183910277Y-233369200D03*
D48*
X185434678Y-232737772D03*
%TD*%
D12*
%TO.C,D2*%
X171569195Y-62620938D03*
D13*
X169964784Y-62235753D03*
%TD*%
D37*
%TO.C,D21*%
X143511908Y-239767674D03*
D38*
X141866995Y-239638216D03*
%TD*%
D43*
%TO.C,D40*%
X142365454Y-60322553D03*
D44*
X144010367Y-60193095D03*
%TD*%
D47*
%TO.C,D38*%
X115027260Y-67070885D03*
D48*
X116551661Y-66439457D03*
%TD*%
D33*
%TO.C,D14*%
X226437177Y-197515138D03*
D34*
X227299300Y-196108282D03*
%TD*%
D49*
%TO.C,D19*%
X170450969Y-237647523D03*
D50*
X172055380Y-237262338D03*
%TD*%
D18*
%TO.C,D9*%
X237647523Y-129549030D03*
D19*
X237262338Y-127944619D03*
%TD*%
D49*
%TO.C,D39*%
X128430804Y-62620938D03*
D50*
X130035215Y-62235753D03*
%TD*%
D51*
%TO.C,D13*%
X232929114Y-184972739D03*
D52*
X233560542Y-183448338D03*
%TD*%
D16*
%TO.C,D31*%
X60232325Y-143511908D03*
D17*
X60361783Y-141866995D03*
%TD*%
D51*
%TO.C,D33*%
X66630799Y-116089722D03*
D52*
X67262227Y-114565321D03*
%TD*%
D29*
%TO.C,D28*%
X67070885Y-184972739D03*
D30*
X66439457Y-183448338D03*
%TD*%
D14*
%TO.C,D5*%
X208887557Y-81936896D03*
D15*
X207632888Y-80865306D03*
%TD*%
D41*
%TO.C,D17*%
X196534602Y-227038051D03*
D42*
X197941458Y-226175928D03*
%TD*%
M02*
